<svg width="764" height="707" viewBox="0 0 764 707" fill="none" xmlns="http://www.w3.org/2000/svg">
<rect x="2" y="2" width="760" height="703" rx="50" stroke="url(#paint0_linear_553_6610)" stroke-width="3"/>
<path d="M215.156 55.6387C219.578 55.6387 222.766 58.3574 222.781 62.2949C222.766 65.7793 220.266 68.3105 216.625 68.8418V73.2637C219.266 73.1387 221.953 72.9043 224.469 72.5449L224.688 74.7012C218.359 75.873 211.562 75.9043 206.562 75.9199L206.188 73.4824C208.391 73.4824 210.953 73.4668 213.656 73.3887V68.8418C210.031 68.2949 207.516 65.7637 207.531 62.2949C207.516 58.3574 210.75 55.6387 215.156 55.6387ZM210.469 62.2949C210.438 64.748 212.438 66.4199 215.156 66.3887C217.875 66.4199 219.875 64.748 219.875 62.2949C219.875 59.7949 217.875 58.2012 215.156 58.2012C212.438 58.2012 210.438 59.7949 210.469 62.2949ZM226.219 81.9199V53.8574H229.188V81.9199H226.219ZM256.062 55.1699V57.2637C256.078 59.3262 256.078 61.7949 255.422 65.0449H259.312V67.4512H247.938V72.2324H256.188V81.8574H253.219V74.6074H236.312V72.2324H244.969V67.4512H233.688V65.0449H252.438C253.094 61.9043 253.125 59.5762 253.125 57.5762H236.906V55.1699H256.062ZM284.562 53.8887V74.2324H281.594V53.8887H284.562ZM261.906 62.7012C261.922 58.6543 265.141 55.7793 269.375 55.7637C273.594 55.7793 276.812 58.6543 276.812 62.7012C276.812 66.8105 273.594 69.6699 269.375 69.6699C265.141 69.6699 261.922 66.8105 261.906 62.7012ZM264.812 62.7012C264.797 65.3418 266.766 67.0762 269.375 67.0762C271.938 67.0762 273.906 65.3418 273.906 62.7012C273.906 60.123 271.938 58.3574 269.375 58.3574C266.766 58.3574 264.797 60.123 264.812 62.7012ZM266.25 81.2637V72.1699H269.25V78.8574H285.406V81.2637H266.25ZM314.562 65.3262V67.7012H289V65.3262H314.562ZM292.062 72.2012V69.9199H311.312V76.7012H295V79.2012H312.094V81.5449H292.094V74.5137H308.375V72.2012H292.062ZM292.344 63.2949V54.6699H311.25V57.0762H295.312V60.9199H311.531V63.2949H292.344ZM325.781 55.8574C330.203 55.8418 333.391 58.5762 333.406 62.5137C333.391 66.4512 330.203 69.1855 325.781 69.2012C321.375 69.1855 318.141 66.4512 318.156 62.5137C318.141 58.5762 321.375 55.8418 325.781 55.8574ZM316.812 73.4199C321.906 73.4199 328.969 73.373 335.094 72.4824L335.312 74.6387C328.984 75.8574 322.188 75.8887 317.188 75.8887L316.812 73.4199ZM321.094 62.5137C321.062 64.998 323.062 66.6074 325.781 66.6074C328.5 66.6074 330.5 64.998 330.5 62.5137C330.5 60.0605 328.5 58.4199 325.781 58.4199C323.062 58.4199 321.062 60.0605 321.094 62.5137ZM336.844 81.9199V53.8574H339.812V81.9199H336.844ZM374.125 53.8887V62.8887H378.188V65.3574H374.125V74.8262H371.156V53.8887H374.125ZM352.156 59.5449V57.1387H359.031V53.8574H362V57.1387H368.844V59.5449H352.156ZM353.688 66.1699C353.672 62.9668 356.438 60.873 360.5 60.8887C364.516 60.873 367.281 62.9668 367.281 66.1699C367.281 69.3418 364.516 71.4043 360.5 71.4199C356.438 71.4043 353.672 69.3418 353.688 66.1699ZM356.375 81.2637V73.1699H359.344V78.8574H375.312V81.2637H356.375ZM356.562 66.1699C356.531 67.998 358.125 69.123 360.5 69.1074C362.875 69.123 364.469 67.998 364.5 66.1699C364.469 64.3262 362.875 63.1855 360.5 63.1699C358.125 63.1855 356.531 64.3262 356.562 66.1699ZM402.156 55.1699V57.2637C402.172 59.3262 402.172 61.7949 401.516 65.0449H405.406V67.4512H394.031V72.2324H402.281V81.8574H399.312V74.6074H382.406V72.2324H391.062V67.4512H379.781V65.0449H398.531C399.188 61.9043 399.219 59.5762 399.219 57.5762H383V55.1699H402.156ZM415.031 55.9512C418.844 55.9668 421.609 59.1855 422.062 64.3574H427.844V53.8574H430.781V81.9199H427.844V66.7637H422.094C421.766 72.2324 418.938 75.623 415.031 75.6074C410.859 75.623 407.906 71.8105 407.938 65.7637C407.906 59.7793 410.859 55.9668 415.031 55.9512ZM410.75 65.7637C410.766 70.2168 412.5 72.9512 415.031 72.9512C417.562 72.9512 419.297 70.2168 419.312 65.7637C419.297 61.373 417.562 58.623 415.031 58.6074C412.5 58.623 410.766 61.373 410.75 65.7637ZM459.625 56.7012V59.0762H442.938V56.7012H449.812V53.7324H452.781V56.7012H459.625ZM444.469 65.4199C444.453 62.3574 447.234 60.3574 451.281 60.3262C455.312 60.3574 458.062 62.3574 458.062 65.4199C458.062 68.498 455.312 70.5137 451.281 70.5137C447.234 70.5137 444.453 68.498 444.469 65.4199ZM446.406 75.2012V72.7949H464.906V81.8574H461.938V75.2012H446.406ZM447.344 65.4199C447.312 67.1543 448.906 68.2012 451.281 68.2012C453.656 68.2012 455.25 67.1543 455.281 65.4199C455.25 63.7012 453.656 62.623 451.281 62.6074C448.906 62.623 447.312 63.7012 447.344 65.4199ZM461.938 71.3574V53.8574H464.906V61.4512H468.969V63.9199H464.906V71.3574H461.938ZM476.656 70.6387V73.6074H489.812V70.6387H492.781V81.5137H473.719V70.6387H476.656ZM470.562 68.8887V66.4199H496.094V68.8887H470.562ZM471.938 62.3574C477.359 61.6543 481.797 58.6699 481.812 55.3574V54.1699H484.844V55.3574C484.859 58.5762 489.328 61.7012 494.688 62.3574L493.625 64.7012C489.094 64.0762 485.141 61.9199 483.344 58.9355C481.531 61.9355 477.562 64.0762 473.062 64.7012L471.938 62.3574ZM476.656 79.1387H489.812V75.9199H476.656V79.1387ZM531.562 67.0449V69.4512H506.031V67.0449H531.562ZM507.375 63.2324C512.453 62.6855 516.469 60.4043 516.797 57.6699H508.375V55.2324H529.281V57.6699H520.766C521.109 60.3887 525.062 62.6855 530.25 63.2324L529.188 65.5762C524.328 65.0137 520.312 62.9668 518.797 60.0137C517.25 62.9668 513.266 65.0137 508.406 65.5762L507.375 63.2324ZM509.062 76.7324C509.062 73.4824 512.703 71.6074 518.781 71.6074C524.812 71.6074 528.422 73.4824 528.438 76.7324C528.422 79.9824 524.812 81.8105 518.781 81.7949C512.703 81.8105 509.062 79.9824 509.062 76.7324ZM512.062 76.7324C512.047 78.498 514.5 79.4668 518.781 79.4512C523 79.4668 525.469 78.498 525.469 76.7324C525.469 74.9199 523 73.9512 518.781 73.9199C514.5 73.9512 512.047 74.9199 512.062 76.7324ZM555.5 53.8574V65.0137H559.844V67.4824H555.5V81.8262H552.531V53.8574H555.5ZM533.719 74.3574C540.734 70.8574 544.547 65.7949 545.156 59.2637H535.125V56.7949H548.188C548.156 64.8887 544.594 72.123 535.375 76.6699L533.719 74.3574Z" fill="#707070"/>
<path d="M145.94 451.132C143.471 451.132 141.605 449.605 141.511 447.514H143.151C143.283 448.739 144.47 449.643 145.94 449.643C147.711 449.643 148.992 448.343 148.992 446.628C148.992 444.857 147.655 443.556 145.827 443.537C144.677 443.519 143.791 443.877 143.283 444.762H141.643L142.604 437.3H149.991V438.807H144.018L143.509 442.803H143.641C144.244 442.331 145.167 442.011 146.128 442.011C148.729 442.011 150.651 443.933 150.651 446.59C150.651 449.229 148.653 451.132 145.94 451.132ZM154.646 449.681L153.176 454.806H151.781L152.818 449.681H154.646ZM161.863 437.111C164.219 437.13 166.819 438.544 166.819 443.575C166.819 448.418 164.841 451.132 161.637 451.132C159.244 451.132 157.548 449.662 157.209 447.495H158.886C159.187 448.72 160.111 449.624 161.637 449.624C163.861 449.624 165.218 447.702 165.236 444.385H165.048C164.257 445.516 163.013 446.195 161.562 446.195C159.112 446.195 157.096 444.329 157.096 441.691C157.096 439.147 158.961 437.093 161.863 437.111ZM161.863 438.6C160.073 438.6 158.735 439.995 158.754 441.672C158.754 443.368 160.017 444.706 161.807 444.706C163.578 444.706 164.973 443.236 164.973 441.634C164.973 440.07 163.672 438.6 161.863 438.6ZM169.213 450.943L175.469 438.902V438.807H168.252V437.3H177.222V438.883L170.984 450.943H169.213ZM183.874 451.132C181.499 451.094 178.899 449.7 178.899 444.649C178.899 439.825 180.877 437.111 184.081 437.111C186.474 437.111 188.151 438.581 188.509 440.73H186.832C186.512 439.524 185.607 438.619 184.081 438.619C181.838 438.619 180.501 440.541 180.501 443.82H180.67C181.462 442.689 182.705 442.011 184.175 442.011C186.606 442.011 188.623 443.896 188.623 446.534C188.623 449.097 186.738 451.151 183.874 451.132ZM183.874 449.643C185.645 449.643 186.964 448.249 186.983 446.553C186.964 444.875 185.702 443.5 183.911 443.5C182.121 443.5 180.745 444.951 180.727 446.571C180.727 448.173 182.046 449.643 183.874 449.643Z" fill="black" fill-opacity="0.7"/>
<path d="M131 479.889C131 473.591 136.105 468.486 142.403 468.486H188.013C194.311 468.486 199.416 473.591 199.416 479.889H131Z" fill="#E2E2E2"/>
<path d="M139.581 513.432V511.719L144.956 506.301C146.648 504.523 147.505 503.538 147.505 502.189C147.505 500.669 146.263 499.684 144.635 499.684C142.922 499.684 141.809 500.776 141.809 502.425H139.581C139.56 499.598 141.723 497.714 144.678 497.714C147.676 497.714 149.732 499.598 149.753 502.125C149.732 503.859 148.918 505.23 146.006 508.099L142.858 511.29V511.419H150.01V513.432H139.581ZM158.019 513.646C154.422 513.646 152.323 510.755 152.323 505.68C152.323 500.647 154.464 497.714 158.019 497.714C161.574 497.714 163.715 500.647 163.715 505.68C163.715 510.755 161.595 513.646 158.019 513.646ZM158.019 511.611C160.118 511.611 161.36 509.556 161.36 505.68C161.36 501.825 160.096 499.705 158.019 499.705C155.942 499.705 154.678 501.825 154.678 505.68C154.678 509.556 155.921 511.611 158.019 511.611ZM171.553 513.646C167.955 513.646 165.857 510.755 165.857 505.68C165.857 500.647 167.998 497.714 171.553 497.714C175.108 497.714 177.249 500.647 177.249 505.68C177.249 510.755 175.129 513.646 171.553 513.646ZM171.553 511.611C173.651 511.611 174.894 509.556 174.894 505.68C174.894 501.825 173.63 499.705 171.553 499.705C169.476 499.705 168.212 501.825 168.212 505.68C168.212 509.556 169.454 511.611 171.553 511.611ZM185.087 513.646C181.489 513.646 179.39 510.755 179.39 505.68C179.39 500.647 181.532 497.714 185.087 497.714C188.641 497.714 190.783 500.647 190.783 505.68C190.783 510.755 188.663 513.646 185.087 513.646ZM185.087 511.611C187.185 511.611 188.427 509.556 188.427 505.68C188.427 501.825 187.164 499.705 185.087 499.705C183.009 499.705 181.746 501.825 181.746 505.68C181.746 509.556 182.988 511.611 185.087 511.611Z" fill="black"/>
<path d="M246.906 429.893L246.888 428.649L251.542 423.749C253.163 422.034 253.935 421.111 253.935 419.848C253.935 418.454 252.748 417.531 251.222 417.531C249.601 417.531 248.565 418.567 248.565 420.093H246.963C246.944 417.681 248.81 416.061 251.278 416.061C253.747 416.061 255.518 417.719 255.518 419.848C255.518 421.375 254.802 422.562 252.39 425.05L249.262 428.272V428.385H255.763V429.893H246.906ZM262.981 430.081C260.606 430.043 258.006 428.649 258.006 423.599C258.006 418.774 259.985 416.061 263.188 416.061C265.581 416.061 267.259 417.531 267.617 419.679H265.939C265.619 418.473 264.714 417.568 263.188 417.568C260.946 417.568 259.608 419.49 259.608 422.769H259.777C260.569 421.639 261.812 420.96 263.282 420.96C265.713 420.96 267.73 422.845 267.73 425.483C267.73 428.046 265.845 430.1 262.981 430.081ZM262.981 428.592C264.752 428.592 266.071 427.198 266.09 425.502C266.071 423.825 264.809 422.449 263.018 422.449C261.228 422.449 259.853 423.9 259.834 425.521C259.834 427.122 261.153 428.592 262.981 428.592ZM271.574 428.63L270.104 433.756H268.71L269.746 428.63H271.574ZM278.659 430.081C276.285 430.043 273.684 428.649 273.684 423.599C273.684 418.774 275.663 416.061 278.867 416.061C281.26 416.061 282.937 417.531 283.295 419.679H281.618C281.298 418.473 280.393 417.568 278.867 417.568C276.624 417.568 275.286 419.49 275.286 422.769H275.456C276.247 421.639 277.491 420.96 278.961 420.96C281.392 420.96 283.408 422.845 283.408 425.483C283.408 428.046 281.524 430.1 278.659 430.081ZM278.659 428.592C280.431 428.592 281.75 427.198 281.769 425.502C281.75 423.825 280.487 422.449 278.697 422.449C276.907 422.449 275.531 423.9 275.512 425.521C275.512 427.122 276.832 428.592 278.659 428.592ZM290.569 416.249V429.893H288.854V418.021H288.779L285.462 420.225V418.51L288.854 416.249H290.569ZM299.03 416.249V429.893H297.316V418.021H297.24L293.923 420.225V418.51L297.316 416.249H299.03Z" fill="black" fill-opacity="0.7"/>
<path d="M239.414 468.487C239.414 461.118 239.414 457.434 240.848 454.619C242.109 452.144 244.122 450.131 246.598 448.87C249.412 447.436 253.097 447.436 260.465 447.436H286.779C294.147 447.436 297.832 447.436 300.646 448.87C303.122 450.131 305.135 452.144 306.396 454.619C307.83 457.434 307.83 461.118 307.83 468.487V479.889H239.414V468.487Z" fill="#E2E2E2"/>
<path d="M247.996 513.432V511.719L253.37 506.301C255.062 504.523 255.919 503.538 255.919 502.189C255.919 500.669 254.677 499.684 253.049 499.684C251.336 499.684 250.223 500.776 250.223 502.425H247.996C247.974 499.598 250.137 497.714 253.092 497.714C256.09 497.714 258.146 499.598 258.167 502.125C258.146 503.859 257.332 505.23 254.42 508.099L251.272 511.29V511.419H258.424V513.432H247.996ZM266.433 513.646C262.836 513.646 260.737 510.755 260.737 505.68C260.737 500.647 262.878 497.714 266.433 497.714C269.988 497.714 272.129 500.647 272.129 505.68C272.129 510.755 270.009 513.646 266.433 513.646ZM266.433 511.611C268.532 511.611 269.774 509.556 269.774 505.68C269.774 501.825 268.51 499.705 266.433 499.705C264.356 499.705 263.093 501.825 263.093 505.68C263.093 509.556 264.335 511.611 266.433 511.611ZM279.967 513.646C276.369 513.646 274.271 510.755 274.271 505.68C274.271 500.647 276.412 497.714 279.967 497.714C283.522 497.714 285.663 500.647 285.663 505.68C285.663 510.755 283.543 513.646 279.967 513.646ZM279.967 511.611C282.066 511.611 283.308 509.556 283.308 505.68C283.308 501.825 282.044 499.705 279.967 499.705C277.89 499.705 276.626 501.825 276.626 505.68C276.626 509.556 277.868 511.611 279.967 511.611ZM293.372 513.646C290.439 513.646 288.233 511.847 288.126 509.384H290.417C290.546 510.712 291.809 511.676 293.372 511.676C295.257 511.676 296.606 510.305 296.606 508.464C296.606 506.579 295.214 505.209 293.265 505.187C292.023 505.187 291.081 505.594 290.546 506.558H288.318L289.325 497.928H298.105V499.941H291.274L290.76 504.288H290.91C291.552 503.667 292.644 503.238 293.822 503.238C296.734 503.238 298.897 505.401 298.897 508.399C298.897 511.462 296.606 513.646 293.372 513.646Z" fill="black"/>
<path d="M352.145 340.816V354.459H350.43V342.587H350.354L347.038 344.792V343.077L350.43 340.816H352.145ZM360.248 354.647C357.214 354.647 355.48 352.103 355.48 347.637C355.48 343.209 357.252 340.627 360.248 340.627C363.244 340.627 365.015 343.209 365.015 347.637C365.015 352.103 363.263 354.647 360.248 354.647ZM360.248 353.14C362.208 353.14 363.357 351.161 363.357 347.637C363.357 344.113 362.208 342.097 360.248 342.097C358.288 342.097 357.12 344.113 357.12 347.637C357.12 351.161 358.269 353.14 360.248 353.14ZM372.026 354.647C369.651 354.61 367.051 353.215 367.051 348.165C367.051 343.341 369.029 340.627 372.233 340.627C374.626 340.627 376.303 342.097 376.661 344.245H374.984C374.664 343.039 373.759 342.135 372.233 342.135C369.99 342.135 368.652 344.057 368.652 347.336H368.822C369.614 346.205 370.857 345.527 372.327 345.527C374.758 345.527 376.774 347.411 376.774 350.049C376.774 352.612 374.89 354.666 372.026 354.647ZM372.026 353.159C373.797 353.159 375.116 351.764 375.135 350.068C375.116 348.391 373.854 347.015 372.063 347.015C370.273 347.015 368.897 348.466 368.879 350.087C368.879 351.689 370.198 353.159 372.026 353.159ZM380.619 353.196L379.149 358.322H377.754L378.791 353.196H380.619ZM387.836 340.627C390.192 340.646 392.792 342.059 392.792 347.091C392.792 351.934 390.814 354.647 387.61 354.647C385.217 354.647 383.521 353.178 383.182 351.01H384.859C385.16 352.235 386.084 353.14 387.61 353.14C389.834 353.14 391.191 351.218 391.209 347.901H391.021C390.229 349.032 388.986 349.71 387.535 349.71C385.085 349.71 383.069 347.845 383.069 345.206C383.069 342.662 384.934 340.608 387.836 340.627ZM387.836 342.116C386.046 342.116 384.708 343.51 384.727 345.187C384.727 346.883 385.989 348.221 387.78 348.221C389.551 348.221 390.946 346.752 390.946 345.15C390.946 343.586 389.645 342.116 387.836 342.116ZM399.576 354.647C397.108 354.647 395.242 353.121 395.148 351.029H396.787C396.919 352.254 398.106 353.159 399.576 353.159C401.348 353.159 402.629 351.858 402.629 350.144C402.629 348.372 401.291 347.072 399.463 347.053C398.314 347.034 397.428 347.392 396.919 348.278H395.28L396.241 340.816H403.628V342.323H397.654L397.145 346.318H397.277C397.88 345.847 398.804 345.527 399.765 345.527C402.365 345.527 404.287 347.449 404.287 350.106C404.287 352.744 402.29 354.647 399.576 354.647ZM411.354 354.647C408.641 354.647 406.7 353.196 406.605 351.029H408.32C408.414 352.33 409.715 353.14 411.335 353.14C413.126 353.14 414.445 352.16 414.445 350.747C414.445 349.258 413.257 348.203 411.128 348.203H410.016V346.714H411.128C412.786 346.714 413.936 345.791 413.936 344.377C413.936 343.02 412.937 342.097 411.392 342.097C409.941 342.097 408.603 342.907 408.527 344.245H406.888C406.982 342.078 408.98 340.627 411.411 340.627C414.011 340.627 415.594 342.323 415.575 344.283C415.594 345.828 414.69 346.978 413.257 347.373V347.468C415.029 347.75 416.122 349.013 416.103 350.747C416.122 352.989 414.068 354.647 411.354 354.647Z" fill="black" fill-opacity="0.7"/>
<path d="M347.828 393.053C347.828 385.684 347.828 382 349.262 379.186C350.524 376.71 352.536 374.697 355.012 373.436C357.826 372.002 361.511 372.002 368.879 372.002H395.193C402.562 372.002 406.246 372.002 409.06 373.436C411.536 374.697 413.549 376.71 414.81 379.186C416.244 382 416.244 385.684 416.244 393.053V479.889H347.828V393.053Z" fill="#E2E2E2"/>
<path d="M358.41 513.43V511.717L363.785 506.299C365.476 504.521 366.333 503.536 366.333 502.187C366.333 500.667 365.091 499.682 363.463 499.682C361.75 499.682 360.637 500.774 360.637 502.423H358.41C358.388 499.596 360.551 497.712 363.506 497.712C366.504 497.712 368.56 499.596 368.581 502.123C368.56 503.858 367.746 505.228 364.834 508.098L361.686 511.288V511.417H368.838V513.43H358.41ZM376.847 513.644C373.25 513.644 371.151 510.753 371.151 505.678C371.151 500.645 373.292 497.712 376.847 497.712C380.402 497.712 382.543 500.645 382.543 505.678C382.543 510.753 380.423 513.644 376.847 513.644ZM376.847 511.609C378.946 511.609 380.188 509.554 380.188 505.678C380.188 501.823 378.924 499.703 376.847 499.703C374.77 499.703 373.507 501.823 373.507 505.678C373.507 509.554 374.749 511.609 376.847 511.609ZM390.874 497.926V513.43H388.497V500.281H388.411L384.706 502.701V500.453L388.561 497.926H390.874ZM400.21 513.644C396.613 513.644 394.514 510.753 394.514 505.678C394.514 500.645 396.655 497.712 400.21 497.712C403.765 497.712 405.906 500.645 405.906 505.678C405.906 510.753 403.786 513.644 400.21 513.644ZM400.21 511.609C402.309 511.609 403.551 509.554 403.551 505.678C403.551 501.823 402.287 499.703 400.21 499.703C398.133 499.703 396.87 501.823 396.87 505.678C396.87 509.554 398.112 511.609 400.21 511.609Z" fill="black"/>
<path d="M447.925 241.557V239.544L453.408 234.254C454.971 232.691 455.784 231.77 455.784 230.464C455.784 229.029 454.65 228.109 453.129 228.109C451.523 228.109 450.495 229.115 450.517 230.678H447.861C447.84 227.744 450.045 225.839 453.151 225.839C456.32 225.839 458.461 227.723 458.461 230.336C458.461 232.092 457.605 233.505 454.564 236.374L451.801 239.115V239.222H458.697V241.557H447.925ZM466.856 241.771C463.13 241.771 460.902 238.88 460.902 233.805C460.902 228.751 463.13 225.839 466.856 225.839C470.56 225.839 472.809 228.751 472.809 233.805C472.809 238.88 470.582 241.771 466.856 241.771ZM466.856 239.437C468.804 239.437 470.004 237.531 470.004 233.805C470.004 230.1 468.783 228.151 466.856 228.151C464.928 228.151 463.708 230.1 463.708 233.805C463.708 237.531 464.907 239.437 466.856 239.437ZM480.946 241.771C477.927 241.749 474.886 239.951 474.907 234.233C474.907 228.922 477.327 225.839 481.118 225.839C484.116 225.839 486.171 227.723 486.514 230.229H483.751C483.473 229.051 482.531 228.258 481.118 228.258C478.869 228.258 477.606 230.25 477.606 233.505H477.755C478.548 232.177 480.047 231.385 481.739 231.385C484.522 231.385 486.664 233.483 486.664 236.417C486.664 239.501 484.372 241.792 480.946 241.771ZM480.946 239.522C482.681 239.522 483.966 238.173 483.966 236.481C483.966 234.833 482.702 233.505 480.989 233.505C479.254 233.505 477.927 234.875 477.905 236.503C477.927 238.13 479.19 239.522 480.946 239.522ZM491.482 240.036L489.683 246.032H487.649L488.762 240.036H491.482ZM494.523 241.557L501.247 228.494V228.387H493.452V226.053H504.138V228.43L497.414 241.557H494.523ZM507.393 241.557L514.117 228.494V228.387H506.322V226.053H517.008V228.43L510.284 241.557H507.393ZM524.588 241.771C521.141 241.771 518.699 239.929 518.699 237.402C518.699 235.432 520.156 233.826 522.019 233.526V233.441C520.391 233.098 519.278 231.685 519.278 229.993C519.278 227.595 521.526 225.839 524.588 225.839C527.629 225.839 529.878 227.595 529.878 229.993C529.878 231.685 528.743 233.098 527.137 233.441V233.526C529 233.826 530.477 235.432 530.477 237.402C530.477 239.929 528.015 241.771 524.588 241.771ZM524.588 239.565C526.409 239.565 527.608 238.58 527.608 237.145C527.608 235.689 526.323 234.618 524.588 234.618C522.832 234.618 521.548 235.689 521.569 237.145C521.548 238.58 522.747 239.565 524.588 239.565ZM524.588 232.541C526.087 232.541 527.158 231.599 527.158 230.25C527.158 228.944 526.109 228.023 524.588 228.023C523.047 228.023 521.997 228.922 521.997 230.25C521.997 231.599 523.068 232.541 524.588 232.541Z" fill="black"/>
<path d="M456.25 280.151C456.25 272.782 456.25 269.098 457.684 266.283C458.945 263.808 460.958 261.795 463.434 260.534C466.248 259.1 469.932 259.1 477.301 259.1H500.983C508.352 259.1 512.036 259.1 514.851 260.534C517.326 261.795 519.339 263.808 520.6 266.283C522.035 269.098 522.035 272.782 522.035 280.151V480.136H456.25V280.151Z" fill="#FF577C"/>
<path d="M465.511 513.678V511.965L470.886 506.547C472.578 504.769 473.434 503.784 473.434 502.435C473.434 500.915 472.192 499.93 470.565 499.93C468.852 499.93 467.738 501.022 467.738 502.671H465.511C465.49 499.844 467.653 497.96 470.608 497.96C473.606 497.96 475.661 499.844 475.683 502.371C475.661 504.106 474.848 505.476 471.935 508.346L468.788 511.536V511.665H475.94V513.678H465.511ZM483.949 513.892C480.351 513.892 478.253 511.001 478.253 505.926C478.253 500.893 480.394 497.96 483.949 497.96C487.504 497.96 489.645 500.893 489.645 505.926C489.645 511.001 487.525 513.892 483.949 513.892ZM483.949 511.858C486.047 511.858 487.289 509.802 487.289 505.926C487.289 502.071 486.026 499.951 483.949 499.951C481.872 499.951 480.608 502.071 480.608 505.926C480.608 509.802 481.85 511.858 483.949 511.858ZM497.975 498.174V513.678H495.598V500.529H495.512L491.808 502.949V500.701L495.662 498.174H497.975ZM507.183 513.892C504.249 513.892 502.044 512.093 501.937 509.63H504.228C504.357 510.958 505.62 511.922 507.183 511.922C509.068 511.922 510.417 510.551 510.417 508.71C510.417 506.825 509.025 505.455 507.076 505.433C505.834 505.433 504.892 505.84 504.357 506.804H502.129L503.136 498.174H511.916V500.187H505.085L504.571 504.534H504.721C505.363 503.913 506.455 503.485 507.633 503.485C510.545 503.485 512.708 505.647 512.708 508.645C512.708 511.708 510.417 513.892 507.183 513.892Z" fill="black"/>
<path d="M563.534 167.214C560.215 167.214 557.859 165.415 557.795 162.803H560.6C560.686 164.045 561.928 164.859 563.534 164.859C565.247 164.859 566.468 163.916 566.468 162.546C566.468 161.154 565.269 160.147 563.256 160.147H561.864V158.006H563.256C564.904 158.006 566.061 157.085 566.039 155.736C566.061 154.43 565.076 153.552 563.555 153.552C562.099 153.552 560.836 154.366 560.793 155.672H558.116C558.18 153.059 560.536 151.282 563.577 151.282C566.725 151.282 568.759 153.209 568.738 155.586C568.759 157.321 567.603 158.584 565.911 158.927V159.055C568.095 159.355 569.337 160.747 569.316 162.696C569.337 165.308 566.896 167.214 563.534 167.214ZM572.335 167L579.059 153.937V153.83H571.265V151.496H581.95V153.873L575.226 167H572.335ZM589.488 167.214C586.383 167.214 584.113 165.373 584.027 162.803H586.747C586.833 164.066 588.01 164.966 589.488 164.966C591.223 164.966 592.465 163.702 592.465 161.989C592.465 160.212 591.18 158.948 589.402 158.948C588.203 158.927 587.325 159.355 586.833 160.276H584.242L585.184 151.496H594.349V153.83H587.475L587.004 157.942H587.154C587.753 157.257 588.888 156.764 590.152 156.764C593.043 156.764 595.163 158.927 595.163 161.903C595.163 165.008 592.829 167.214 589.488 167.214ZM600.131 165.48L598.332 171.476H596.298L597.411 165.48H600.131ZM608.14 167.214C604.692 167.214 602.251 165.373 602.251 162.846C602.251 160.876 603.707 159.269 605.57 158.97V158.884C603.943 158.541 602.829 157.128 602.829 155.436C602.829 153.038 605.078 151.282 608.14 151.282C611.181 151.282 613.429 153.038 613.429 155.436C613.429 157.128 612.294 158.541 610.688 158.884V158.97C612.551 159.269 614.029 160.876 614.029 162.846C614.029 165.373 611.566 167.214 608.14 167.214ZM608.14 165.008C609.96 165.008 611.159 164.023 611.159 162.589C611.159 161.133 609.874 160.062 608.14 160.062C606.384 160.062 605.099 161.133 605.12 162.589C605.099 164.023 606.298 165.008 608.14 165.008ZM608.14 157.985C609.639 157.985 610.71 157.042 610.71 155.693C610.71 154.387 609.66 153.466 608.14 153.466C606.598 153.466 605.549 154.366 605.549 155.693C605.549 157.042 606.619 157.985 608.14 157.985ZM616.92 167L623.644 153.937V153.83H615.849V151.496H626.535V153.873L619.811 167H616.92ZM635.079 151.496V167H632.274V154.216H632.188L628.569 156.528V153.98L632.402 151.496H635.079Z" fill="black"/>
<path d="M562.031 205.594C562.031 198.225 562.031 194.541 563.465 191.727C564.727 189.251 566.739 187.238 569.215 185.977C572.029 184.543 575.714 184.543 583.082 184.543H611.15C618.519 184.543 622.203 184.543 625.018 185.977C627.493 187.238 629.506 189.251 630.767 191.727C632.201 194.541 632.201 198.225 632.201 205.594V480.135H562.031V205.594Z" fill="#FF577C"/>
<path d="M572.988 513.676V511.963L578.363 506.545C580.065 504.778 580.911 503.793 580.911 502.433C580.911 500.902 579.669 499.928 578.041 499.928C576.318 499.928 575.225 501.02 575.215 502.669H572.988C572.966 499.831 575.129 497.958 578.084 497.958C581.072 497.958 583.138 499.853 583.159 502.369C583.138 504.104 582.324 505.485 579.412 508.344L576.264 511.534V511.663H583.416V513.676H572.988ZM591.425 513.89C587.838 513.89 585.729 510.999 585.729 505.924C585.729 500.881 587.86 497.958 591.425 497.958C594.98 497.958 597.111 500.881 597.122 505.924C597.111 510.999 595.012 513.89 591.425 513.89ZM588.085 505.924C588.074 509.789 589.327 511.856 591.425 511.856C593.513 511.856 594.766 509.789 594.766 505.924C594.766 502.069 593.503 499.96 591.425 499.949C589.337 499.96 588.085 502.069 588.085 505.924ZM605.452 498.172V513.676H603.075V500.527H602.989L599.284 502.947V500.699L603.139 498.172H605.452ZM614.724 497.958C617.572 497.979 620.559 499.692 620.57 505.367C620.57 510.806 618.225 513.89 614.51 513.89C611.651 513.89 609.66 512.123 609.285 509.607H611.619C611.94 510.913 612.947 511.823 614.51 511.834C616.898 511.823 618.3 509.746 618.322 506.202H618.129C617.294 507.508 615.838 508.301 614.167 508.301C611.383 508.301 609.156 506.17 609.156 503.204C609.156 500.249 611.351 497.936 614.724 497.958ZM611.448 503.161C611.458 504.96 612.797 506.384 614.681 506.374C616.555 506.384 618 504.853 618 503.14C618 501.459 616.619 499.928 614.724 499.928C612.85 499.928 611.437 501.384 611.448 503.161Z" fill="black"/>
<path d="M77.7012 619V600.617H81.002V609.072H81.2559L88.4414 600.617H92.4785L85.3691 608.869L92.5547 619H88.5684L83.0586 611.104L81.002 613.516V619H77.7012ZM101.111 608.488V611.154H92.834V608.488H101.111ZM104.438 619V600.617H111.344C115.559 600.617 117.806 603.182 117.818 606.711C117.806 610.228 115.533 612.779 111.293 612.779H107.738V619H104.438ZM107.738 610.062H110.836C113.324 610.05 114.441 608.653 114.441 606.711C114.441 604.743 113.324 603.385 110.836 603.385H107.738V610.062ZM136.887 609.809C136.899 615.75 133.269 619.254 128.457 619.254C123.62 619.254 120.015 615.737 120.027 609.809C120.015 603.867 123.62 600.363 128.457 600.363C133.269 600.363 136.899 603.867 136.887 609.809ZM123.354 609.809C123.341 614.011 125.461 616.283 128.457 616.283C131.466 616.283 133.573 614.011 133.561 609.809C133.573 605.606 131.466 603.334 128.457 603.334C125.461 603.334 123.341 605.606 123.354 609.809ZM139.832 619V600.617H146.738C150.953 600.617 153.2 603.182 153.213 606.711C153.2 610.228 150.928 612.779 146.688 612.779H143.133V619H139.832ZM143.133 610.062H146.23C148.719 610.05 149.836 608.653 149.836 606.711C149.836 604.743 148.719 603.385 146.23 603.385H143.133V610.062ZM158.393 617.197L156.26 624.307H153.848L155.168 617.197H158.393ZM184.824 598.332V605.543H188.023V607.879H184.824V615.471H182.006V598.332H184.824ZM166.746 603.131V600.871H172.154V598.307H174.973V600.871H180.355V603.131H166.746ZM167.914 608.463C167.914 605.822 170.212 604.07 173.551 604.07C176.864 604.07 179.149 605.822 179.162 608.463C179.149 611.091 176.864 612.805 173.551 612.805C170.212 612.805 167.914 611.091 167.914 608.463ZM170.123 620.803V614.125H172.941V618.518H185.738V620.803H170.123ZM170.656 608.463C170.644 609.847 171.812 610.634 173.551 610.621C175.29 610.634 176.471 609.847 176.471 608.463C176.471 607.066 175.29 606.254 173.551 606.254C171.812 606.254 170.644 607.066 170.656 608.463ZM207.6 599.348V601.1C207.612 602.801 207.612 604.781 207.104 607.346H210.164V609.631H201.049V613.211H207.65V621.26H204.832V615.471H191.324V613.211H198.23V609.631H189.191V607.346H204.273C204.73 604.984 204.781 603.194 204.781 601.607H191.781V599.348H207.6ZM236.469 609.072V611.332H220.371V600.312H236.291V602.598H223.164V609.072H236.469ZM217.832 618.34V616.004H238.805V618.34H217.832ZM258.279 598.307V607.117H261.809V609.479H258.279V621.285H255.486V598.307H258.279ZM241.217 602.598V600.312H251.779V608.971H244.061V613.541C247.704 613.516 250.535 613.363 253.734 612.805L253.988 615.09C250.446 615.725 247.323 615.877 243.146 615.877H241.268V606.711H248.961V602.598H241.217ZM274.453 600.541V615.572H263.586V600.541H274.453ZM266.354 613.312H271.635V602.75H266.354V613.312ZM277.932 621.26V598.307H280.75V607.117H284.279V609.504H280.75V621.26H277.932ZM289.713 617.197L287.58 624.307H285.168L286.488 617.197H289.713ZM304.414 599.602C306.268 599.589 307.88 600.274 308.959 601.43H314.443V598.307H317.262V611.814H314.443V608.895H308.946C307.854 610.024 306.255 610.71 304.414 610.697C300.948 610.71 298.346 608.387 298.346 605.162C298.346 601.912 300.948 599.589 304.414 599.602ZM301.037 605.162C301.037 607.041 302.446 608.311 304.414 608.311C306.318 608.311 307.728 607.041 307.74 605.162C307.728 603.22 306.318 602.014 304.414 602.014C302.446 602.014 301.037 603.22 301.037 605.162ZM301.697 616.766C301.672 613.935 304.681 612.284 309.492 612.297C314.316 612.284 317.325 613.935 317.338 616.766C317.325 619.584 314.316 621.234 309.492 621.234C304.681 621.234 301.672 619.584 301.697 616.766ZM304.465 616.766C304.439 618.226 306.306 619.013 309.492 619.025C312.742 619.013 314.57 618.226 314.57 616.766C314.57 615.268 312.742 614.468 309.492 614.455C306.306 614.468 304.439 615.268 304.465 616.766ZM310.229 603.689C310.355 604.159 310.432 604.642 310.432 605.162C310.432 605.67 310.355 606.152 310.241 606.609H314.443V603.689H310.229ZM338.666 598.307V607.777H341.891V610.139H338.666V621.26H335.822V598.307H338.666ZM320.232 614.887C321.972 614.887 323.99 614.887 326.098 614.836V612.69C323.597 612.259 321.972 610.697 321.984 608.539C321.972 605.949 324.244 604.235 327.545 604.223C330.808 604.235 333.105 605.949 333.131 608.539C333.105 610.71 331.442 612.271 328.941 612.69V614.734C330.871 614.633 332.801 614.48 334.604 614.227L334.781 616.283C329.855 617.185 324.549 617.223 320.639 617.223L320.232 614.887ZM320.664 603.182V600.947H326.098V598.408H328.941V600.947H334.35V603.182H320.664ZM324.65 608.539C324.638 609.859 325.806 610.634 327.545 610.621C329.259 610.634 330.414 609.859 330.414 608.539C330.414 607.206 329.259 606.394 327.545 606.381C325.806 606.394 324.638 607.206 324.65 608.539ZM350.422 599.906C354.065 599.894 356.719 602.191 356.744 605.441C356.719 608.704 354.065 610.989 350.422 611.002C346.816 610.989 344.112 608.704 344.125 605.441C344.112 602.191 346.816 599.894 350.422 599.906ZM343.084 614.176C347.223 614.176 352.948 614.125 357.912 613.414L358.141 615.471C352.999 616.448 347.489 616.486 343.439 616.486L343.084 614.176ZM346.918 605.441C346.905 607.358 348.416 608.539 350.422 608.539C352.453 608.539 353.964 607.358 353.977 605.441C353.964 603.537 352.466 602.344 350.422 602.344C348.416 602.344 346.905 603.537 346.918 605.441ZM359.283 621.285V598.307H362.102V621.285H359.283ZM390.742 598.332V614.912H387.898V598.332H390.742ZM372.029 605.568C372.029 602.229 374.733 599.843 378.225 599.83C381.716 599.843 384.407 602.229 384.395 605.568C384.407 608.958 381.716 611.332 378.225 611.332C374.733 611.332 372.029 608.958 372.029 605.568ZM374.797 605.568C374.784 607.6 376.257 608.869 378.225 608.869C380.142 608.869 381.627 607.6 381.627 605.568C381.627 603.588 380.142 602.293 378.225 602.293C376.257 602.293 374.784 603.588 374.797 605.568ZM375.559 620.803V613.236H378.402V618.518H391.377V620.803H375.559ZM413.264 598.307V621.26H410.42V598.307H413.264ZM394.246 614.938C400.264 612.081 403.031 608.196 403.539 602.979H395.414V600.744H406.408C406.408 607.574 403.755 613.376 395.719 617.197L394.246 614.938ZM437.537 616.258V618.594H416.564V616.258H425.604V612.525H419.053V605.01H432.256V602.166H419.002V599.881H435.049V607.244H421.871V610.215H435.582V612.525H428.396V616.258H437.537ZM463.309 598.332V605.543H466.508V607.879H463.309V615.471H460.49V598.332H463.309ZM445.23 603.131V600.871H450.639V598.307H453.457V600.871H458.84V603.131H445.23ZM446.398 608.463C446.398 605.822 448.696 604.07 452.035 604.07C455.349 604.07 457.634 605.822 457.646 608.463C457.634 611.091 455.349 612.805 452.035 612.805C448.696 612.805 446.398 611.091 446.398 608.463ZM448.607 620.803V614.125H451.426V618.518H464.223V620.803H448.607ZM449.141 608.463C449.128 609.847 450.296 610.634 452.035 610.621C453.774 610.634 454.955 609.847 454.955 608.463C454.955 607.066 453.774 606.254 452.035 606.254C450.296 606.254 449.128 607.066 449.141 608.463ZM486.084 599.348V601.1C486.097 602.801 486.097 604.781 485.589 607.346H488.648V609.631H479.533V613.211H486.135V621.26H483.316V615.471H469.809V613.211H476.715V609.631H467.676V607.346H482.758C483.215 604.984 483.266 603.194 483.266 601.607H470.266V599.348H486.084ZM496.418 599.982C499.516 599.982 501.813 602.572 502.22 606.762H506.6V598.307H509.393V621.285H506.6V609.047H502.245C501.94 613.478 499.604 616.207 496.418 616.207C492.965 616.207 490.515 613.071 490.527 608.082C490.515 603.131 492.965 599.982 496.418 599.982ZM493.244 608.082C493.231 611.611 494.526 613.655 496.418 613.668C498.322 613.655 499.604 611.611 499.617 608.082C499.604 604.578 498.322 602.521 496.418 602.521C494.526 602.521 493.231 604.578 493.244 608.082ZM532.422 600.516V602.75H518.812V600.516H524.221V598.205H527.039V600.516H532.422ZM519.98 607.828C519.98 605.314 522.304 603.639 525.617 603.639C528.931 603.639 531.216 605.314 531.229 607.828C531.216 610.342 528.931 612.018 525.617 612.018C522.304 612.018 519.98 610.342 519.98 607.828ZM521.605 616.004V613.744H536.891V621.26H534.072V616.004H521.605ZM522.723 607.828C522.71 609.123 523.878 609.847 525.617 609.834C527.356 609.847 528.537 609.123 528.537 607.828C528.537 606.533 527.356 605.771 525.617 605.771C523.878 605.771 522.71 606.533 522.723 607.828ZM534.072 612.678V598.307H536.891V604.4H540.09V606.711H536.891V612.678H534.072ZM546.564 612.068V614.252H556.67V612.068H559.488V620.98H543.771V612.068H546.564ZM541.258 610.773V608.463H562.18V610.773H541.258ZM542.324 605.035C547.123 604.438 550.259 601.976 550.271 599.424V598.561H553.166V599.424C553.166 601.899 556.314 604.477 561.062 605.035L560.072 607.27C556.226 606.749 553.191 605.035 551.719 602.712C550.233 605.048 547.187 606.749 543.365 607.27L542.324 605.035ZM546.564 618.746H556.67V616.41H546.564V618.746ZM571.955 604.832C571.942 608.374 574.075 612.411 577.693 614.1L576.119 616.334C573.529 615.115 571.612 612.652 570.584 609.783C569.543 612.932 567.537 615.623 564.896 616.893L563.246 614.684C566.902 612.944 569.124 608.653 569.137 604.832V602.902H564.135V600.566H576.754V602.902H571.955V604.832ZM578.887 621.26V598.307H581.705V607.244H585.234V609.605H581.705V621.26H578.887ZM603.82 607.676H607.477V609.352H603.82V621.057H601.84V598.484H603.82V607.676ZM597.98 600.922C597.98 604.282 597.138 607.329 595.454 610.062C593.77 612.788 591.159 615.022 587.621 616.766L586.504 615.191C589.407 613.744 591.654 611.958 593.245 609.834C594.836 607.701 595.746 605.289 595.975 602.598H587.545V600.922H597.98ZM633.553 605.568H618.141V598.865H620.096V603.918H633.553V605.568ZM635.99 609.428H615.322V607.803H635.99V609.428ZM633.324 616.74H619.969V619.152H634.137V620.752H617.963V615.217H631.369V613.033H617.912V611.459H633.324V616.74ZM643.887 600.236C644.902 600.245 645.812 600.528 646.616 601.087C647.429 601.646 648.085 602.441 648.584 603.474C649.083 604.506 649.384 605.721 649.485 607.117H654.551V598.484H656.531V621.107H654.551V608.768H649.511C649.435 610.223 649.151 611.493 648.66 612.576C648.169 613.66 647.509 614.493 646.68 615.077C645.859 615.661 644.928 615.953 643.887 615.953C642.786 615.953 641.805 615.632 640.941 614.988C640.087 614.345 639.418 613.431 638.936 612.246C638.462 611.061 638.225 609.682 638.225 608.107C638.225 606.533 638.462 605.154 638.936 603.969C639.418 602.784 640.087 601.87 640.941 601.227C641.796 600.575 642.778 600.245 643.887 600.236ZM643.887 602.014C643.15 602.022 642.494 602.28 641.919 602.788C641.352 603.287 640.912 603.998 640.599 604.921C640.285 605.835 640.129 606.897 640.129 608.107C640.129 609.318 640.285 610.384 640.599 611.307C640.912 612.221 641.352 612.927 641.919 613.427C642.494 613.926 643.15 614.176 643.887 614.176C644.615 614.176 645.262 613.926 645.829 613.427C646.405 612.927 646.849 612.221 647.162 611.307C647.484 610.384 647.645 609.318 647.645 608.107C647.645 606.897 647.484 605.835 647.162 604.921C646.849 603.998 646.409 603.287 645.842 602.788C645.275 602.28 644.623 602.022 643.887 602.014ZM681.414 609.174H677.758V621.057H675.777V598.484H677.758V607.498H681.414V609.174ZM663.209 613.643C664.978 613.634 666.709 613.549 668.401 613.389C670.094 613.228 671.825 612.965 673.594 612.602L673.848 614.303C672.011 614.675 670.213 614.938 668.452 615.09C666.7 615.242 664.893 615.318 663.031 615.318H661.229V600.719H663.209V613.643ZM94.5605 641.949H97.9629V643.625H94.5605V651.42H92.5801V634.51H94.5605V641.949ZM90.4219 638.902H76.9648V637.277H82.7031V634.51H84.6836V637.277H90.4219V638.902ZM83.6934 640.146C84.7598 640.146 85.6992 640.32 86.5117 640.667C87.3327 641.014 87.9717 641.505 88.4287 642.14C88.8857 642.774 89.1185 643.515 89.127 644.361C89.1185 645.199 88.8857 645.931 88.4287 646.558C87.9717 647.184 87.3327 647.671 86.5117 648.018C85.6992 648.356 84.7598 648.525 83.6934 648.525C82.6185 648.525 81.6663 648.356 80.8369 648.018C80.016 647.671 79.377 647.184 78.9199 646.558C78.4714 645.931 78.2513 645.199 78.2598 644.361C78.2513 643.515 78.4714 642.774 78.9199 642.14C79.377 641.505 80.016 641.014 80.8369 640.667C81.6663 640.32 82.6185 640.146 83.6934 640.146ZM83.6934 641.721C82.9909 641.721 82.3688 641.831 81.8271 642.051C81.2939 642.262 80.8792 642.571 80.583 642.978C80.2952 643.375 80.1556 643.837 80.1641 644.361C80.1556 644.886 80.2952 645.347 80.583 645.745C80.8792 646.134 81.2939 646.435 81.8271 646.646C82.3688 646.858 82.9909 646.96 83.6934 646.951C84.3874 646.96 85.001 646.858 85.5342 646.646C86.0758 646.435 86.4948 646.134 86.791 645.745C87.0872 645.347 87.2396 644.886 87.248 644.361C87.2396 643.837 87.0872 643.375 86.791 642.978C86.4948 642.571 86.0758 642.262 85.5342 642.051C85.001 641.831 84.3874 641.721 83.6934 641.721ZM95.6016 656.574H80.4434V650.074H82.3984V654.898H95.6016V656.574ZM117.336 637.227C117.336 638.403 117.302 639.469 117.234 640.426C117.175 641.374 117.023 642.449 116.777 643.65H120.053V645.275H110.658V649.439H117.488V657.057H115.482V651.09H101.518V649.439H108.678V645.275H99.3848V643.65H114.771C115.025 642.432 115.186 641.348 115.254 640.4C115.322 639.452 115.355 638.395 115.355 637.227H102V635.602H117.336V637.227ZM127.924 636.236C128.939 636.245 129.849 636.528 130.653 637.087C131.466 637.646 132.122 638.441 132.621 639.474C133.12 640.506 133.421 641.721 133.522 643.117H138.588V634.484H140.568V657.107H138.588V644.768H133.548C133.472 646.223 133.188 647.493 132.697 648.576C132.206 649.66 131.546 650.493 130.717 651.077C129.896 651.661 128.965 651.953 127.924 651.953C126.824 651.953 125.842 651.632 124.979 650.988C124.124 650.345 123.455 649.431 122.973 648.246C122.499 647.061 122.262 645.682 122.262 644.107C122.262 642.533 122.499 641.154 122.973 639.969C123.455 638.784 124.124 637.87 124.979 637.227C125.833 636.575 126.815 636.245 127.924 636.236ZM127.924 638.014C127.188 638.022 126.532 638.28 125.956 638.788C125.389 639.287 124.949 639.998 124.636 640.921C124.323 641.835 124.166 642.897 124.166 644.107C124.166 645.318 124.323 646.384 124.636 647.307C124.949 648.221 125.389 648.927 125.956 649.427C126.532 649.926 127.188 650.176 127.924 650.176C128.652 650.176 129.299 649.926 129.866 649.427C130.442 648.927 130.886 648.221 131.199 647.307C131.521 646.384 131.682 645.318 131.682 644.107C131.682 642.897 131.521 641.835 131.199 640.921C130.886 639.998 130.446 639.287 129.879 638.788C129.312 638.28 128.66 638.022 127.924 638.014ZM169.082 642.457H153.67V634.941H155.65V640.807H169.082V642.457ZM171.443 646.748H150.852V645.098H171.443V646.748ZM161.135 648.779C162.751 648.779 164.139 648.94 165.299 649.262C166.458 649.575 167.347 650.04 167.965 650.658C168.583 651.268 168.896 652.004 168.904 652.867C168.896 653.73 168.583 654.467 167.965 655.076C167.347 655.694 166.458 656.16 165.299 656.473C164.139 656.794 162.751 656.955 161.135 656.955C159.51 656.955 158.113 656.794 156.945 656.473C155.777 656.16 154.884 655.694 154.267 655.076C153.649 654.467 153.34 653.73 153.34 652.867C153.34 652.004 153.649 651.268 154.267 650.658C154.884 650.04 155.777 649.575 156.945 649.262C158.113 648.94 159.51 648.779 161.135 648.779ZM161.135 650.354C159.307 650.37 157.885 650.595 156.869 651.026C155.862 651.458 155.363 652.072 155.371 652.867C155.363 653.392 155.587 653.845 156.044 654.226C156.501 654.606 157.161 654.898 158.024 655.102C158.896 655.305 159.933 655.406 161.135 655.406C162.32 655.406 163.344 655.305 164.207 655.102C165.079 654.898 165.743 654.606 166.2 654.226C166.666 653.845 166.898 653.392 166.898 652.867C166.898 652.072 166.391 651.458 165.375 651.026C164.359 650.595 162.946 650.37 161.135 650.354ZM184.037 642.203H176.268V645.707C178.561 645.707 180.334 645.673 181.587 645.605C182.84 645.538 184.096 645.385 185.357 645.148L185.561 646.799C184.215 647.019 182.869 647.163 181.523 647.23C180.186 647.298 178.307 647.332 175.887 647.332H174.287V640.68H182.057V637.48H174.236V635.881H184.037V642.203ZM192.035 648.373H190.029V644.184H185.535V642.533H190.029V639.486H185.535V637.861H190.029V634.51H192.035V648.373ZM192.035 657.107H190.029V651.217H176.826V649.592H192.035V657.107ZM210.342 640.553C210.333 641.89 210.604 643.219 211.154 644.539C211.704 645.851 212.449 647.019 213.389 648.043C214.328 649.067 215.352 649.829 216.461 650.328L215.242 651.902C213.956 651.268 212.788 650.324 211.738 649.071C210.697 647.81 209.91 646.38 209.377 644.78C208.852 646.481 208.065 648.005 207.016 649.351C205.966 650.688 204.781 651.691 203.461 652.359L202.191 650.684C203.3 650.167 204.324 649.384 205.264 648.335C206.203 647.277 206.952 646.067 207.511 644.704C208.069 643.333 208.353 641.949 208.361 640.553V636.439H210.342V640.553ZM220.93 657.107H218.924V634.484H220.93V657.107ZM243.502 648.17H241.496V643.016H237.662V641.365H241.496V634.484H243.502V648.17ZM243.502 656.752H228.75V649.389H243.502V656.752ZM230.73 655.127H241.547V650.988H230.73V655.127ZM237.992 638.496H224.814V636.871H230.426V634.281H232.381V636.871H237.992V638.496ZM231.391 639.664C232.406 639.664 233.308 639.833 234.095 640.172C234.89 640.51 235.512 640.984 235.961 641.594C236.41 642.203 236.638 642.897 236.646 643.676C236.638 644.48 236.41 645.187 235.961 645.796C235.521 646.405 234.903 646.879 234.107 647.218C233.312 647.548 232.406 647.713 231.391 647.713C230.375 647.713 229.469 647.548 228.674 647.218C227.887 646.879 227.269 646.405 226.82 645.796C226.38 645.187 226.16 644.48 226.16 643.676C226.16 642.897 226.38 642.203 226.82 641.594C227.269 640.984 227.887 640.51 228.674 640.172C229.469 639.833 230.375 639.664 231.391 639.664ZM231.391 641.213C230.747 641.213 230.172 641.319 229.664 641.53C229.165 641.733 228.771 642.025 228.483 642.406C228.204 642.779 228.064 643.202 228.064 643.676C228.064 644.167 228.204 644.603 228.483 644.983C228.763 645.356 229.152 645.648 229.651 645.859C230.159 646.071 230.739 646.181 231.391 646.189C232.042 646.181 232.618 646.071 233.117 645.859C233.625 645.648 234.019 645.356 234.298 644.983C234.577 644.603 234.717 644.167 234.717 643.676C234.717 643.202 234.573 642.779 234.285 642.406C234.006 642.025 233.612 641.733 233.104 641.53C232.605 641.319 232.034 641.213 231.391 641.213ZM261.174 635.957C262.35 635.965 263.396 636.194 264.31 636.643C265.232 637.083 265.951 637.705 266.468 638.509C266.984 639.313 267.242 640.231 267.242 641.264C267.242 642.195 267.031 643.037 266.607 643.79C266.184 644.535 265.588 645.14 264.817 645.605C264.047 646.071 263.163 646.363 262.164 646.481V650.328C264.686 650.201 266.904 649.99 268.816 649.693L268.969 651.166C266.701 651.589 264.386 651.86 262.024 651.979C259.672 652.097 257.061 652.156 254.191 652.156L253.912 650.48C256.57 650.48 258.652 650.455 260.158 650.404V646.481C259.151 646.363 258.262 646.071 257.492 645.605C256.722 645.132 256.125 644.522 255.702 643.777C255.279 643.033 255.072 642.195 255.08 641.264C255.072 640.231 255.326 639.317 255.842 638.521C256.367 637.717 257.09 637.091 258.013 636.643C258.944 636.194 259.997 635.965 261.174 635.957ZM261.174 637.709C260.378 637.709 259.663 637.861 259.028 638.166C258.402 638.462 257.911 638.881 257.556 639.423C257.2 639.956 257.027 640.57 257.035 641.264C257.027 641.958 257.2 642.576 257.556 643.117C257.911 643.659 258.402 644.082 259.028 644.387C259.663 644.683 260.378 644.827 261.174 644.818C261.961 644.827 262.668 644.683 263.294 644.387C263.92 644.082 264.407 643.659 264.754 643.117C265.109 642.576 265.287 641.958 265.287 641.264C265.287 640.57 265.109 639.956 264.754 639.423C264.407 638.881 263.92 638.462 263.294 638.166C262.668 637.861 261.961 637.709 261.174 637.709ZM272.295 657.107H270.314V634.484H272.295V657.107ZM294.207 637.227C294.207 638.403 294.173 639.469 294.105 640.426C294.046 641.374 293.894 642.449 293.648 643.65H296.924V645.275H287.529V649.439H294.359V657.057H292.354V651.09H278.389V649.439H285.549V645.275H276.256V643.65H291.643C291.896 642.432 292.057 641.348 292.125 640.4C292.193 639.452 292.227 638.395 292.227 637.227H278.871V635.602H294.207V637.227ZM317.363 651.014H315.383V634.51H317.363V651.014ZM318.074 656.574H302.789V649.338H304.77V654.898H318.074V656.574ZM305.176 636.084C306.293 636.084 307.3 636.321 308.197 636.795C309.103 637.26 309.81 637.916 310.317 638.763C310.834 639.601 311.092 640.553 311.092 641.619C311.092 642.702 310.834 643.667 310.317 644.514C309.81 645.352 309.103 646.007 308.197 646.481C307.3 646.947 306.293 647.18 305.176 647.18C304.059 647.18 303.047 646.947 302.142 646.481C301.244 646.007 300.538 645.352 300.021 644.514C299.514 643.667 299.26 642.702 299.26 641.619C299.26 640.553 299.514 639.601 300.021 638.763C300.538 637.916 301.244 637.26 302.142 636.795C303.047 636.321 304.059 636.084 305.176 636.084ZM305.176 637.836C304.423 637.836 303.741 637.997 303.132 638.318C302.531 638.64 302.057 639.089 301.71 639.664C301.371 640.24 301.206 640.891 301.215 641.619C301.206 642.355 301.371 643.016 301.71 643.6C302.057 644.175 302.531 644.624 303.132 644.945C303.741 645.267 304.423 645.428 305.176 645.428C305.912 645.428 306.581 645.267 307.182 644.945C307.791 644.624 308.269 644.175 308.616 643.6C308.963 643.016 309.137 642.355 309.137 641.619C309.137 640.9 308.963 640.252 308.616 639.677C308.269 639.101 307.791 638.653 307.182 638.331C306.581 638.001 305.912 637.836 305.176 637.836ZM335.797 641.416C335.797 642.66 336.072 643.9 336.622 645.136C337.172 646.363 337.913 647.459 338.844 648.424C339.783 649.38 340.807 650.1 341.916 650.582L340.799 652.156C339.47 651.547 338.272 650.629 337.206 649.401C336.14 648.166 335.344 646.773 334.819 645.225C334.295 646.883 333.499 648.386 332.433 649.731C331.375 651.069 330.202 652.063 328.916 652.715L327.723 651.141C328.789 650.624 329.784 649.846 330.706 648.805C331.637 647.764 332.382 646.591 332.94 645.288C333.499 643.976 333.783 642.686 333.791 641.416V638.471H328.459V636.82H341.18V638.471H335.797V641.416ZM346.334 657.057H344.328V634.484H346.334V657.057ZM368.805 651.648H366.799V649.312H362.127V647.865H366.799V634.51H368.805V651.648ZM369.363 656.574H353.316V649.973H355.322V654.898H369.363V656.574ZM350.066 644.971C353.164 644.954 355.855 644.907 358.141 644.831C360.434 644.755 362.643 644.581 364.768 644.311L364.895 645.758C363.033 646.054 360.967 646.27 358.699 646.405V650.861H356.693V646.507C355.009 646.566 353.299 646.596 351.564 646.596H350.346L350.066 644.971ZM357.48 635.424C358.572 635.424 359.537 635.589 360.375 635.919C361.221 636.241 361.877 636.702 362.343 637.303C362.817 637.895 363.058 638.581 363.066 639.359C363.058 640.155 362.817 640.849 362.343 641.441C361.877 642.025 361.221 642.478 360.375 642.8C359.537 643.113 358.572 643.27 357.48 643.27C356.38 643.27 355.407 643.113 354.561 642.8C353.714 642.478 353.058 642.025 352.593 641.441C352.127 640.849 351.895 640.155 351.895 639.359C351.895 638.581 352.127 637.895 352.593 637.303C353.058 636.702 353.714 636.241 354.561 635.919C355.407 635.589 356.38 635.424 357.48 635.424ZM357.48 636.947C356.753 636.939 356.109 637.036 355.551 637.239C354.992 637.442 354.556 637.73 354.243 638.103C353.938 638.466 353.79 638.885 353.799 639.359C353.79 639.842 353.938 640.269 354.243 640.642C354.548 641.006 354.979 641.289 355.538 641.492C356.105 641.695 356.753 641.797 357.48 641.797C358.183 641.797 358.813 641.695 359.372 641.492C359.931 641.289 360.367 641.006 360.68 640.642C360.993 640.269 361.154 639.842 361.162 639.359C361.154 638.885 360.989 638.466 360.667 638.103C360.354 637.73 359.918 637.442 359.359 637.239C358.809 637.036 358.183 636.939 357.48 636.947ZM380.307 641.416C380.298 642.601 380.552 643.807 381.068 645.034C381.593 646.253 382.304 647.357 383.201 648.348C384.098 649.329 385.089 650.074 386.172 650.582L385.029 652.156C383.768 651.547 382.63 650.616 381.614 649.363C380.607 648.111 379.845 646.714 379.329 645.174C378.991 646.274 378.525 647.319 377.933 648.31C377.34 649.3 376.663 650.176 375.901 650.938C375.14 651.691 374.34 652.283 373.502 652.715L372.283 651.141C373.358 650.624 374.357 649.841 375.279 648.792C376.21 647.743 376.951 646.566 377.501 645.263C378.06 643.959 378.343 642.677 378.352 641.416V638.471H373.096V636.82H385.385V638.471H380.307V641.416ZM390.133 643.625H393.916V645.326H390.133V657.057H388.152V634.484H390.133V643.625ZM413.391 642.939H397.928V635.322H399.908V641.34H413.391V642.939ZM415.777 647.637H395.109V646.012H415.777V647.637ZM413.518 656.498H397.801V649.947H399.781V654.848H413.518V656.498ZM431.418 655.254C427.495 655.254 424.689 653.121 424.613 650.023H427.939C428.028 651.496 429.501 652.474 431.418 652.461C433.437 652.474 434.896 651.356 434.896 649.719C434.896 648.068 433.475 646.888 431.088 646.875H429.438V644.336H431.088C433.043 644.336 434.401 643.244 434.389 641.645C434.401 640.096 433.233 639.055 431.443 639.055C429.717 639.055 428.231 640.02 428.168 641.568H424.994C425.07 638.483 427.876 636.363 431.469 636.363C435.201 636.363 437.613 638.648 437.588 641.467C437.613 643.523 436.242 645.009 434.236 645.428V645.58C436.826 645.923 438.299 647.586 438.273 649.896C438.299 653.007 435.392 655.254 431.418 655.254ZM443.783 636.414V641.721H447.516V636.414H450.131V651.699H441.117V636.414H443.783ZM443.783 649.414H447.516V643.955H443.783V649.414ZM452.391 656.143V634.713H455.057V643.168H457.494V634.307H460.211V657.26H457.494V645.504H455.057V656.143H452.391ZM488.141 634.307V657.285H485.297V634.307H488.141ZM469.783 644.082C469.771 639.131 472.297 635.982 475.775 635.982C479.216 635.982 481.755 639.131 481.768 644.082C481.755 649.071 479.216 652.207 475.775 652.207C472.297 652.207 469.771 649.071 469.783 644.082ZM472.5 644.082C472.5 647.611 473.833 649.655 475.775 649.668C477.705 649.655 479.025 647.611 479.025 644.082C479.025 640.578 477.705 638.521 475.775 638.521C473.833 638.521 472.5 640.578 472.5 644.082ZM499.643 637.963C499.643 640.845 501.509 643.574 505.051 644.691L503.527 646.9C501.052 646.062 499.274 644.387 498.271 642.254C497.281 644.691 495.428 646.608 492.787 647.535L491.264 645.326C494.958 644.044 496.812 640.984 496.824 637.709V635.525H499.643V637.963ZM494.387 652.867C494.387 650.15 497.37 648.538 502.156 648.551C506.904 648.538 509.837 650.15 509.85 652.867C509.837 655.647 506.904 657.234 502.156 657.234C497.37 657.234 494.387 655.647 494.387 652.867ZM497.205 652.867C497.205 654.289 499.008 655 502.156 655C505.292 655 507.057 654.289 507.057 652.867C507.057 651.521 505.292 650.76 502.156 650.76C499.008 650.76 497.205 651.521 497.205 652.867ZM506.803 648.043V634.307H509.621V639.893H512.82V642.229H509.621V648.043H506.803ZM541.08 644.996V647.281H520.158V644.996H541.08ZM521.174 641.746C525.427 641.327 528.194 639.626 528.626 637.709H522.062V635.398H539.201V637.709H532.574C532.993 639.601 535.735 641.327 540.09 641.746L539.1 643.98C534.923 643.549 531.838 641.886 530.594 639.562C529.35 641.886 526.303 643.549 522.139 643.98L521.174 641.746ZM522.596 653.02C522.596 650.354 525.604 648.805 530.594 648.805C535.545 648.805 538.528 650.354 538.541 653.02C538.528 655.724 535.545 657.234 530.594 657.234C525.604 657.234 522.596 655.724 522.596 653.02ZM525.465 653.02C525.452 654.353 527.255 655.013 530.594 655.025C533.882 655.013 535.697 654.353 535.723 653.02C535.697 651.687 533.882 651.014 530.594 651.014C527.255 651.014 525.452 651.687 525.465 653.02ZM560.605 634.307V643.27H564.008V645.631H560.605V657.209H557.787V634.307H560.605ZM542.502 650.938C548.088 648.145 551.109 644.26 551.668 639.029H543.746V636.693H554.537C554.524 643.435 551.731 649.363 544.102 653.121L542.502 650.938ZM584.727 634.332V648.475H582.035V642.66H579.852V648.195H577.211V634.662H579.852V640.35H582.035V634.332H584.727ZM564.973 638.902V636.668H569.314V634.434H572.107V636.668H576.398V638.902H564.973ZM565.785 643.752C565.76 641.353 567.842 639.778 570.711 639.766C573.631 639.778 575.688 641.353 575.713 643.752C575.688 646.113 573.631 647.726 570.711 647.738C567.842 647.726 565.76 646.113 565.785 643.752ZM566.445 654.848C569.378 653.959 570.876 651.801 570.863 649.744V649.186H573.656V649.744C573.644 651.534 574.494 653.362 576.424 654.505C578.379 653.286 579.28 651.344 579.293 649.744V649.186H582.086V649.744C582.086 651.928 583.521 654.035 586.529 654.848L585.209 656.98C582.962 656.27 581.451 654.848 580.664 653.096C579.928 654.835 578.582 656.396 576.475 657.184C574.316 656.422 572.958 654.949 572.234 653.21C571.396 654.886 569.898 656.257 567.766 656.98L566.445 654.848ZM568.299 643.752C568.299 644.958 569.276 645.682 570.711 645.682C572.158 645.682 573.148 644.958 573.148 643.752C573.148 642.521 572.158 641.822 570.711 641.822C569.276 641.822 568.299 642.521 568.299 643.752ZM592.877 648.068V650.252H602.982V648.068H605.801V656.98H590.084V648.068H592.877ZM587.57 646.773V644.463H608.492V646.773H587.57ZM588.637 641.035C593.436 640.438 596.571 637.976 596.584 635.424V634.561H599.479V635.424C599.479 637.899 602.627 640.477 607.375 641.035L606.385 643.27C602.538 642.749 599.504 641.035 598.031 638.712C596.546 641.048 593.499 642.749 589.678 643.27L588.637 641.035ZM592.877 654.746H602.982V652.41H592.877V654.746ZM629.186 634.307V657.26H626.393V634.307H629.186ZM611.361 651.496V636.541H614.154V649.084C617.366 649.033 620.794 648.754 624.336 648.043L624.691 650.404C620.654 651.242 616.909 651.509 613.342 651.496H611.361ZM650.488 634.307V643.016H654.018V645.326H650.488V657.285H647.67V634.307H650.488ZM633.451 651.674V636.49H644.191V638.775H636.27V649.312C639.837 649.3 642.668 649.122 645.816 648.576L646.146 650.963C642.579 651.572 639.494 651.674 635.355 651.674H633.451ZM657.775 655.203C656.684 655.203 655.782 654.314 655.795 653.223C655.782 652.156 656.684 651.28 657.775 651.268C658.829 651.28 659.73 652.156 659.73 653.223C659.73 654.314 658.829 655.203 657.775 655.203Z" fill="#2C2C2C"/>
<defs>
<linearGradient id="paint0_linear_553_6610" x1="24.9851" y1="80.7088" x2="722.984" y2="154.095" gradientUnits="userSpaceOnUse">
<stop stop-color="#FF577C"/>
<stop offset="1" stop-color="#66B8FB"/>
</linearGradient>
</defs>
</svg>
