<svg width="764" height="707" viewBox="0 0 764 707" fill="none" xmlns="http://www.w3.org/2000/svg">
<rect x="2" y="2" width="760" height="703" rx="50" stroke="url(#paint0_linear_553_6635)" stroke-width="3"/>
<path d="M210.031 66.6875V75.6875H214.094V78.1562H210.031V87.625H207.062V66.6875H210.031ZM188.062 72.3438V69.9375H194.938V66.6562H197.906V69.9375H204.75V72.3438H188.062ZM189.594 78.9688C189.578 75.7656 192.344 73.6719 196.406 73.6875C200.422 73.6719 203.188 75.7656 203.188 78.9688C203.188 82.1406 200.422 84.2031 196.406 84.2188C192.344 84.2031 189.578 82.1406 189.594 78.9688ZM192.281 94.0625V85.9688H195.25V91.6562H211.219V94.0625H192.281ZM192.469 78.9688C192.438 80.7969 194.031 81.9219 196.406 81.9062C198.781 81.9219 200.375 80.7969 200.406 78.9688C200.375 77.125 198.781 75.9844 196.406 75.9688C194.031 75.9844 192.438 77.125 192.469 78.9688ZM238.062 67.9688V70.0625C238.078 72.125 238.078 74.5938 237.422 77.8438H241.312V80.25H229.938V85.0312H238.188V94.6562H235.219V87.4062H218.312V85.0312H226.969V80.25H215.688V77.8438H234.438C235.094 74.7031 235.125 72.375 235.125 70.375H218.906V67.9688H238.062ZM250.938 68.75C254.75 68.7656 257.516 71.9844 257.969 77.1562H263.75V66.6562H266.688V94.7188H263.75V79.5625H258C257.672 85.0312 254.844 88.4219 250.938 88.4062C246.766 88.4219 243.812 84.6094 243.844 78.5625C243.812 72.5781 246.766 68.7656 250.938 68.75ZM246.656 78.5625C246.672 83.0156 248.406 85.75 250.938 85.75C253.469 85.75 255.203 83.0156 255.219 78.5625C255.203 74.1719 253.469 71.4219 250.938 71.4062C248.406 71.4219 246.672 74.1719 246.656 78.5625ZM295.531 69.5V71.875H278.844V69.5H285.719V66.5312H288.688V69.5H295.531ZM280.375 78.2188C280.359 75.1562 283.141 73.1562 287.188 73.125C291.219 73.1562 293.969 75.1562 293.969 78.2188C293.969 81.2969 291.219 83.3125 287.188 83.3125C283.141 83.3125 280.359 81.2969 280.375 78.2188ZM282.312 88V85.5938H300.812V94.6562H297.844V88H282.312ZM283.25 78.2188C283.219 79.9531 284.812 81 287.188 81C289.562 81 291.156 79.9531 291.188 78.2188C291.156 76.5 289.562 75.4219 287.188 75.4062C284.812 75.4219 283.219 76.5 283.25 78.2188ZM297.844 84.1562V66.6562H300.812V74.25H304.875V76.7188H300.812V84.1562H297.844ZM312.562 83.4375V86.4062H325.719V83.4375H328.688V94.3125H309.625V83.4375H312.562ZM306.469 81.6875V79.2188H332V81.6875H306.469ZM307.844 75.1562C313.266 74.4531 317.703 71.4688 317.719 68.1562V66.9688H320.75V68.1562C320.766 71.375 325.234 74.5 330.594 75.1562L329.531 77.5C325 76.875 321.047 74.7188 319.25 71.7344C317.438 74.7344 313.469 76.875 308.969 77.5L307.844 75.1562ZM312.562 91.9375H325.719V88.7188H312.562V91.9375ZM343.25 68.6562C347.672 68.6406 350.859 71.375 350.875 75.3125C350.859 79.25 347.672 81.9844 343.25 82C338.844 81.9844 335.609 79.25 335.625 75.3125C335.609 71.375 338.844 68.6406 343.25 68.6562ZM334.281 86.2188C339.375 86.2188 346.438 86.1719 352.562 85.2812L352.781 87.4375C346.453 88.6562 339.656 88.6875 334.656 88.6875L334.281 86.2188ZM338.562 75.3125C338.531 77.7969 340.531 79.4062 343.25 79.4062C345.969 79.4062 347.969 77.7969 347.969 75.3125C347.969 72.8594 345.969 71.2188 343.25 71.2188C340.531 71.2188 338.531 72.8594 338.562 75.3125ZM354.312 94.7188V66.6562H357.281V94.7188H354.312ZM395.125 82.4375V84.8438H383.75V94.625H380.844V84.8438H369.594V82.4375H395.125ZM371.031 77.9688C376.25 77.25 380.594 74.1406 380.688 70.6875H371.969V68.3125H392.719V70.6875H384.062C384.109 74.1406 388.422 77.25 393.719 77.9688L392.625 80.3125C388.031 79.5938 384.062 77.3281 382.359 74.1406C380.641 77.3281 376.688 79.5938 372.156 80.3125L371.031 77.9688ZM422.875 88.6875V91.1562H397.25V88.6875H403.375V81.375C401.078 80.1094 399.672 78.1094 399.688 75.5938C399.672 71.1875 404 68.2969 410 68.2812C416.016 68.2969 420.344 71.1875 420.344 75.5938C420.344 78.0625 419 80.0469 416.75 81.3125V88.6875H422.875ZM402.562 75.5938C402.562 78.5938 405.609 80.5469 410 80.5625C414.359 80.5469 417.453 78.5938 417.469 75.5938C417.453 72.5781 414.359 70.6562 410 70.6562C405.609 70.6562 402.562 72.5781 402.562 75.5938ZM406.312 88.6875H413.75V82.4688C412.609 82.7344 411.344 82.875 410 82.875C408.688 82.875 407.438 82.7344 406.312 82.4688V88.6875ZM458.281 80.2812V82.6562H432.719V80.2812H444.062V77.3125H435.906V67.9375H455.125V70.2812H438.844V74.9375H455.312V77.3125H446.938V80.2812H458.281ZM435.75 89.5625C435.75 86.3125 439.391 84.4844 445.469 84.4688C451.5 84.4844 455.109 86.3125 455.125 89.5625C455.109 92.8125 451.5 94.6406 445.469 94.6562C439.391 94.6406 435.75 92.8125 435.75 89.5625ZM438.75 89.5625C438.734 91.3594 441.188 92.3438 445.469 92.3125C449.688 92.3438 452.156 91.3594 452.156 89.5625C452.156 87.7969 449.688 86.7812 445.469 86.7812C441.188 86.7812 438.734 87.7969 438.75 89.5625ZM483.656 66.6562V94.6562H480.656V66.6562H483.656ZM460.656 87.1562C468.094 83.6094 471.734 78.5625 472.312 72.0312H462V69.6562H475.312C475.312 77.8594 471.828 84.9531 462.219 89.5625L460.656 87.1562ZM496.438 68.4375C500.75 68.4375 503.953 71.1562 503.969 75.0938C503.953 78.5625 501.469 81.0781 497.938 81.6406V86.0781C500.422 85.9531 502.906 85.7656 505.219 85.4688L505.438 87.6875C499.516 88.7188 493 88.7656 488.156 88.7188L487.688 86.2812C489.859 86.2656 492.359 86.25 494.969 86.1875V81.6406C491.359 81.1094 488.891 78.5781 488.906 75.0938C488.891 71.1562 492.047 68.4375 496.438 68.4375ZM491.781 75.0938C491.766 77.5781 493.75 79.2344 496.438 79.2188C499.094 79.2344 501.047 77.5781 501.062 75.0938C501.047 72.5938 499.094 70.9688 496.438 70.9375C493.75 70.9688 491.766 72.5938 491.781 75.0938ZM506.906 94.6562V66.6562H509.875V78.0312H514.188V80.5312H509.875V94.6562H506.906ZM545.781 67.8125V77.4062H537.719V80.6562H549.031V83.0625H523.5V80.6562H534.781V77.4062H526.75V67.8125H545.781ZM526.344 88.0625V85.7188H545.906V94.6562H542.906V88.0625H526.344ZM529.656 75.0312H542.844V70.1562H529.656V75.0312ZM561.188 71.625C561.172 75.1562 563.703 78.6094 567.938 80.0625L566.406 82.375C563.266 81.2969 560.938 79.0469 559.719 76.2812C558.5 79.3594 556.047 81.8281 552.719 83L551.188 80.6562C555.484 79.1875 558.172 75.4531 558.156 71.6562V70.875H552.094V68.4688H567.188V70.875H561.188V71.625ZM555.531 87.2188V84.8125H574.5V94.6562H571.531V87.2188H555.531ZM566.344 76.2188V73.7812H571.531V66.6562H574.5V83.4062H571.531V76.2188H566.344Z" fill="#969696"/>
<path d="M273.402 191.708C302.815 163.932 341.648 148.471 381.997 148.471V307.999L273.402 191.708Z" fill="#FFB2C3"/>
<path d="M238.457 240.075C246.971 221.882 258.827 205.472 273.402 191.708L381.997 307.999L238.457 240.075Z" fill="#FF99B4"/>
<path d="M224.61 327.994C220.837 297.96 225.64 267.467 238.457 240.075L381.997 307.999L224.61 327.994Z" fill="#FD819F"/>
<path d="M273.402 424.291C246.492 398.878 229.237 364.824 224.61 327.994L381.997 307.999L273.402 424.291Z" fill="#FF7A97"/>
<path d="M381.997 148.471C422.347 148.471 461.179 163.932 490.593 191.708C520.006 219.484 537.789 257.487 540.322 297.982C542.856 338.478 529.95 378.423 504.23 409.687C478.511 440.951 441.911 461.185 401.88 466.27L381.997 307.999V148.471Z" fill="#FF577C"/>
<path d="M401.88 466.27C378.712 469.213 355.184 466.977 332.976 459.72C310.767 452.464 290.425 440.366 273.402 424.291L381.997 307.999L401.88 466.27Z" fill="#FF698A"/>
<path d="M466.489 310.313V308.428L472.044 299.651H473.616V302.336H472.658L468.918 308.261V308.364H476.672V310.313H466.489ZM472.734 312.742V309.738L472.76 308.894V299.651H474.997V312.742H472.734ZM483.368 312.921C482.417 312.921 481.574 312.761 480.836 312.442C480.103 312.122 479.528 311.685 479.11 311.131C478.697 310.573 478.493 309.94 478.497 309.233C478.493 308.683 478.612 308.178 478.855 307.718C479.098 307.258 479.426 306.874 479.839 306.567C480.257 306.256 480.721 306.058 481.233 305.973V305.884C480.559 305.734 480.014 305.391 479.596 304.854C479.183 304.313 478.978 303.689 478.983 302.982C478.978 302.308 479.166 301.707 479.545 301.179C479.924 300.651 480.444 300.235 481.105 299.933C481.765 299.626 482.52 299.472 483.368 299.472C484.207 299.472 484.955 299.626 485.611 299.933C486.272 300.235 486.792 300.651 487.171 301.179C487.554 301.707 487.746 302.308 487.746 302.982C487.746 303.689 487.535 304.313 487.113 304.854C486.696 305.391 486.157 305.734 485.496 305.884V305.973C486.007 306.058 486.468 306.256 486.877 306.567C487.29 306.874 487.618 307.258 487.861 307.718C488.108 308.178 488.232 308.683 488.232 309.233C488.232 309.94 488.023 310.573 487.605 311.131C487.188 311.685 486.613 312.122 485.88 312.442C485.151 312.761 484.314 312.921 483.368 312.921ZM483.368 311.093C483.858 311.093 484.284 311.01 484.646 310.844C485.008 310.673 485.289 310.435 485.49 310.128C485.69 309.821 485.792 309.467 485.797 309.067C485.792 308.649 485.684 308.281 485.471 307.961C485.262 307.637 484.974 307.384 484.608 307.2C484.245 307.017 483.832 306.925 483.368 306.925C482.899 306.925 482.481 307.017 482.115 307.2C481.748 307.384 481.458 307.637 481.245 307.961C481.037 308.281 480.934 308.649 480.939 309.067C480.934 309.467 481.032 309.821 481.233 310.128C481.433 310.43 481.714 310.667 482.076 310.837C482.443 311.008 482.873 311.093 483.368 311.093ZM483.368 305.129C483.768 305.129 484.122 305.048 484.429 304.886C484.74 304.724 484.985 304.499 485.164 304.209C485.343 303.919 485.434 303.585 485.439 303.205C485.434 302.83 485.345 302.502 485.17 302.221C484.995 301.935 484.752 301.716 484.441 301.562C484.13 301.405 483.772 301.326 483.368 301.326C482.954 301.326 482.59 301.405 482.275 301.562C481.963 301.716 481.721 301.935 481.546 302.221C481.375 302.502 481.292 302.83 481.297 303.205C481.292 303.585 481.377 303.919 481.552 304.209C481.731 304.494 481.976 304.72 482.287 304.886C482.603 305.048 482.963 305.129 483.368 305.129Z" fill="white"/>
<path d="M347.613 378.538V391.629H345.241V380.846H345.165L342.103 382.801V380.628L345.357 378.538H347.613ZM350.7 389.2V387.314L356.255 378.538H357.827V381.223H356.869L353.129 387.148V387.25H360.883V389.2H350.7ZM356.945 391.629V388.625L356.971 387.781V378.538H359.208V391.629H356.945Z" fill="white"/>
<path d="M299.886 336.921V350.012H297.515V339.228H297.438L294.376 341.184V339.011L297.63 336.921H299.886ZM308.535 336.921V350.012H306.163V339.228H306.087L303.025 341.184V339.011L306.278 336.921H308.535Z" fill="white"/>
<path d="M293.013 285.632C293.639 285.637 294.249 285.748 294.841 285.965C295.438 286.178 295.974 286.527 296.452 287.013C296.929 287.495 297.308 288.14 297.589 288.95C297.871 289.76 298.011 290.761 298.011 291.954C298.016 293.079 297.896 294.085 297.653 294.971C297.415 295.853 297.072 296.599 296.624 297.208C296.177 297.818 295.638 298.282 295.007 298.602C294.376 298.922 293.667 299.081 292.879 299.081C292.052 299.081 291.319 298.919 290.68 298.596C290.045 298.272 289.531 297.828 289.139 297.266C288.747 296.703 288.506 296.06 288.417 295.336H290.75C290.869 295.855 291.112 296.269 291.479 296.576C291.849 296.878 292.316 297.029 292.879 297.029C293.786 297.029 294.485 296.635 294.975 295.847C295.465 295.059 295.71 293.963 295.71 292.561H295.621C295.412 292.936 295.141 293.26 294.809 293.533C294.477 293.801 294.099 294.008 293.678 294.153C293.26 294.298 292.817 294.37 292.348 294.37C291.581 294.37 290.891 294.187 290.277 293.821C289.668 293.454 289.184 292.951 288.826 292.312C288.472 291.673 288.293 290.942 288.289 290.12C288.289 289.267 288.485 288.502 288.877 287.825C289.273 287.143 289.825 286.606 290.533 286.214C291.24 285.818 292.067 285.624 293.013 285.632ZM293.019 287.55C292.559 287.55 292.143 287.663 291.773 287.889C291.406 288.11 291.116 288.413 290.903 288.797C290.695 289.176 290.59 289.6 290.59 290.069C290.594 290.533 290.699 290.955 290.903 291.334C291.112 291.713 291.396 292.014 291.754 292.235C292.116 292.457 292.529 292.568 292.994 292.568C293.339 292.568 293.661 292.502 293.959 292.37C294.257 292.238 294.517 292.054 294.739 291.82C294.964 291.581 295.139 291.311 295.263 291.008C295.391 290.706 295.452 290.386 295.448 290.049C295.448 289.602 295.342 289.189 295.129 288.809C294.92 288.43 294.632 288.125 294.266 287.895C293.903 287.665 293.488 287.55 293.019 287.55Z" fill="white"/>
<path d="M308.223 262.966C307.597 262.962 306.985 262.853 306.388 262.64C305.792 262.423 305.255 262.071 304.778 261.585C304.3 261.095 303.921 260.445 303.64 259.636C303.359 258.822 303.22 257.814 303.224 256.612C303.224 255.492 303.344 254.492 303.582 253.615C303.821 252.737 304.164 251.995 304.612 251.39C305.059 250.781 305.598 250.316 306.229 249.997C306.864 249.677 307.573 249.517 308.357 249.517C309.18 249.517 309.908 249.679 310.543 250.003C311.183 250.327 311.698 250.77 312.09 251.333C312.482 251.891 312.725 252.521 312.819 253.225H310.486C310.366 252.722 310.121 252.321 309.751 252.023C309.384 251.72 308.92 251.569 308.357 251.569C307.45 251.569 306.751 251.963 306.261 252.752C305.775 253.54 305.53 254.622 305.526 255.999H305.615C305.824 255.624 306.094 255.302 306.427 255.034C306.759 254.765 307.134 254.558 307.552 254.414C307.974 254.264 308.419 254.19 308.888 254.19C309.655 254.19 310.343 254.373 310.952 254.74C311.566 255.106 312.052 255.611 312.41 256.254C312.768 256.894 312.945 257.627 312.94 258.453C312.945 259.314 312.749 260.088 312.352 260.774C311.956 261.455 311.404 261.992 310.697 262.384C309.989 262.776 309.165 262.97 308.223 262.966ZM308.21 261.048C308.675 261.048 309.09 260.936 309.457 260.71C309.823 260.484 310.113 260.179 310.326 259.796C310.539 259.412 310.643 258.982 310.639 258.504C310.643 258.036 310.541 257.612 310.332 257.232C310.128 256.853 309.844 256.553 309.482 256.331C309.12 256.11 308.707 255.999 308.242 255.999C307.897 255.999 307.575 256.065 307.277 256.197C306.979 256.329 306.719 256.512 306.497 256.747C306.276 256.977 306.101 257.245 305.973 257.552C305.849 257.855 305.786 258.178 305.781 258.524C305.786 258.98 305.892 259.399 306.101 259.783C306.31 260.166 306.597 260.473 306.964 260.703C307.33 260.933 307.746 261.048 308.21 261.048Z" fill="white"/>
<path d="M342.668 221.061V234.152H340.296V223.369H340.219L337.158 225.325V223.152L340.411 221.061H342.668ZM345.991 234.152V232.439L350.536 227.984C350.971 227.545 351.333 227.155 351.623 226.814C351.913 226.473 352.13 226.143 352.275 225.824C352.42 225.504 352.492 225.163 352.492 224.801C352.492 224.387 352.398 224.034 352.211 223.74C352.023 223.441 351.766 223.211 351.438 223.049C351.109 222.887 350.737 222.806 350.319 222.806C349.888 222.806 349.511 222.896 349.188 223.075C348.864 223.25 348.612 223.499 348.433 223.823C348.259 224.147 348.171 224.532 348.171 224.98H345.915C345.915 224.149 346.104 223.426 346.484 222.813C346.863 222.199 347.385 221.724 348.05 221.387C348.719 221.051 349.486 220.882 350.351 220.882C351.229 220.882 352 221.047 352.665 221.375C353.33 221.703 353.845 222.152 354.212 222.723C354.582 223.294 354.768 223.946 354.768 224.679C354.768 225.169 354.674 225.651 354.487 226.124C354.299 226.597 353.969 227.121 353.496 227.696C353.027 228.272 352.369 228.968 351.521 229.787L349.264 232.081V232.171H354.966V234.152H345.991Z" fill="white"/>
<circle cx="179" cy="501.5" r="3.5" fill="#FF577C" stroke="white"/>
<path d="M195.912 496.296H197V496.504C197 497.208 196.835 497.859 196.504 498.456C196.173 499.043 195.709 499.544 195.112 499.96C194.515 500.376 193.811 500.685 193 500.888L192.44 499.848C193.133 499.677 193.741 499.432 194.264 499.112C194.787 498.781 195.192 498.392 195.48 497.944C195.768 497.496 195.912 497.016 195.912 496.504V496.296ZM196.152 496.296H197.24V496.504C197.24 496.984 197.384 497.437 197.672 497.864C197.96 498.28 198.36 498.643 198.872 498.952C199.395 499.261 199.997 499.496 200.68 499.656L200.136 500.696C199.336 500.493 198.637 500.195 198.04 499.8C197.443 499.395 196.979 498.915 196.648 498.36C196.317 497.795 196.152 497.176 196.152 496.504V496.296ZM192.744 495.416H200.408V496.456H192.744V495.416ZM195.912 493.8H197.24V496.12H195.912V493.8ZM195.944 502.056H197.272V507.816H195.944V502.056ZM202.344 493.784H203.656V508.248H202.344V493.784ZM191.944 503.016L191.768 501.896C192.685 501.896 193.683 501.891 194.76 501.88C195.837 501.859 196.936 501.816 198.056 501.752C199.176 501.688 200.259 501.587 201.304 501.448L201.4 502.424C200.323 502.605 199.224 502.739 198.104 502.824C196.995 502.909 195.912 502.963 194.856 502.984C193.811 503.005 192.84 503.016 191.944 503.016ZM207.335 495.192H213.991V504.616H207.335V495.192ZM212.711 496.248H208.647V503.544H212.711V496.248ZM217.031 493.768H218.359V508.264H217.031V493.768Z" fill="black" fill-opacity="0.7"/>
<circle cx="237" cy="501.5" r="3.5" fill="#FF698A" stroke="white"/>
<path d="M260.312 493.768H261.64V508.264H260.312V493.768ZM254.008 494.888C254.723 494.888 255.352 495.096 255.896 495.512C256.451 495.917 256.883 496.499 257.192 497.256C257.512 498.013 257.672 498.904 257.672 499.928C257.672 500.952 257.512 501.843 257.192 502.6C256.883 503.357 256.451 503.944 255.896 504.36C255.352 504.776 254.723 504.984 254.008 504.984C253.293 504.984 252.659 504.776 252.104 504.36C251.549 503.944 251.112 503.357 250.792 502.6C250.483 501.843 250.328 500.952 250.328 499.928C250.328 498.904 250.483 498.013 250.792 497.256C251.112 496.499 251.549 495.917 252.104 495.512C252.659 495.096 253.293 494.888 254.008 494.888ZM254.008 496.072C253.528 496.072 253.107 496.232 252.744 496.552C252.392 496.861 252.115 497.309 251.912 497.896C251.709 498.472 251.608 499.149 251.608 499.928C251.608 500.707 251.709 501.389 251.912 501.976C252.115 502.552 252.392 503 252.744 503.32C253.107 503.64 253.528 503.8 254.008 503.8C254.477 503.8 254.888 503.64 255.24 503.32C255.603 503 255.885 502.552 256.088 501.976C256.291 501.389 256.392 500.707 256.392 499.928C256.392 499.149 256.291 498.472 256.088 497.896C255.885 497.309 255.603 496.861 255.24 496.552C254.888 496.232 254.477 496.072 254.008 496.072ZM270.311 495.208H271.463V495.816C271.463 496.328 271.361 496.813 271.159 497.272C270.956 497.731 270.673 498.157 270.311 498.552C269.948 498.936 269.527 499.277 269.047 499.576C268.567 499.875 268.049 500.131 267.495 500.344C266.951 500.547 266.385 500.696 265.799 500.792L265.287 499.736C265.799 499.672 266.295 499.555 266.775 499.384C267.265 499.203 267.724 498.989 268.151 498.744C268.577 498.499 268.951 498.221 269.271 497.912C269.601 497.603 269.857 497.272 270.039 496.92C270.22 496.557 270.311 496.189 270.311 495.816V495.208ZM270.647 495.208H271.799V495.816C271.799 496.189 271.889 496.557 272.071 496.92C272.252 497.272 272.503 497.603 272.823 497.912C273.153 498.221 273.532 498.499 273.959 498.744C274.385 498.989 274.839 499.203 275.319 499.384C275.809 499.555 276.311 499.672 276.823 499.736L276.327 500.792C275.74 500.696 275.169 500.547 274.615 500.344C274.06 500.131 273.543 499.875 273.063 499.576C272.583 499.277 272.161 498.936 271.799 498.552C271.436 498.157 271.153 497.731 270.951 497.272C270.748 496.813 270.647 496.328 270.647 495.816V495.208ZM270.375 502.728H271.687V508.232H270.375V502.728ZM264.519 502.008H277.591V503.096H264.519V502.008ZM265.751 494.664H276.343V495.736H265.751V494.664Z" fill="black" fill-opacity="0.7"/>
<circle cx="295" cy="501.5" r="3.5" fill="#FF7A97" stroke="white"/>
<path d="M314.728 496.44H318.6V497.512H314.728V496.44ZM314.6 499.448H318.504V500.536H314.6V499.448ZM318.376 493.784H319.704V502.44H318.376V493.784ZM313.848 494.856H315.256C315.256 496.093 314.984 497.208 314.44 498.2C313.907 499.192 313.133 500.045 312.12 500.76C311.117 501.464 309.923 502.024 308.536 502.44L307.992 501.384C309.219 501.021 310.269 500.552 311.144 499.976C312.019 499.389 312.685 498.717 313.144 497.96C313.613 497.192 313.848 496.349 313.848 495.432V494.856ZM308.728 494.856H314.744V495.944H308.728V494.856ZM315 502.6C315.981 502.6 316.824 502.712 317.528 502.936C318.243 503.16 318.797 503.48 319.192 503.896C319.587 504.312 319.784 504.808 319.784 505.384C319.784 505.971 319.587 506.472 319.192 506.888C318.797 507.293 318.243 507.608 317.528 507.832C316.824 508.067 315.981 508.184 315 508.184C314.029 508.184 313.181 508.067 312.456 507.832C311.741 507.608 311.187 507.293 310.792 506.888C310.397 506.472 310.2 505.971 310.2 505.384C310.2 504.808 310.397 504.312 310.792 503.896C311.187 503.48 311.741 503.16 312.456 502.936C313.181 502.712 314.029 502.6 315 502.6ZM315 503.656C314.296 503.656 313.683 503.725 313.16 503.864C312.637 504.003 312.232 504.2 311.944 504.456C311.656 504.712 311.512 505.021 311.512 505.384C311.512 505.747 311.656 506.056 311.944 506.312C312.232 506.568 312.637 506.765 313.16 506.904C313.683 507.043 314.296 507.112 315 507.112C315.715 507.112 316.328 507.043 316.84 506.904C317.352 506.765 317.752 506.568 318.04 506.312C318.328 506.056 318.472 505.747 318.472 505.384C318.472 505.021 318.328 504.712 318.04 504.456C317.752 504.2 317.352 504.003 316.84 503.864C316.328 503.725 315.715 503.656 315 503.656ZM323.127 500.952H324.151C325.1 500.952 325.911 500.947 326.583 500.936C327.265 500.915 327.884 500.877 328.439 500.824C329.004 500.771 329.575 500.691 330.151 500.584L330.279 501.672C329.841 501.747 329.409 501.811 328.983 501.864C328.556 501.907 328.108 501.939 327.639 501.96C327.169 501.981 326.652 501.997 326.087 502.008C325.521 502.019 324.876 502.024 324.151 502.024H323.127V500.952ZM323.095 494.648H329.319V498.744H324.439V501.592H323.127V497.72H328.007V495.72H323.095V494.648ZM333.095 493.784H334.423V502.68H333.095V493.784ZM330.279 495.928H333.399V497H330.279V495.928ZM330.279 498.92H333.399V500.008H330.279V498.92ZM324.743 503.448H334.423V508.264H333.095V504.536H324.743V503.448Z" fill="black" fill-opacity="0.7"/>
<circle cx="353" cy="501.5" r="3.5" fill="#FD819F" stroke="white"/>
<path d="M375.592 493.768H376.92V508.232H375.592V493.768ZM376.568 499.64H379.224V500.744H376.568V499.64ZM371.896 495.32H373.192C373.192 496.696 372.968 498.013 372.52 499.272C372.072 500.52 371.368 501.677 370.408 502.744C369.448 503.8 368.184 504.717 366.616 505.496L365.88 504.472C367.224 503.8 368.339 503.016 369.224 502.12C370.12 501.213 370.787 500.211 371.224 499.112C371.672 498.003 371.896 496.808 371.896 495.528V495.32ZM366.552 495.32H372.568V496.424H366.552V495.32ZM386.199 494.92H387.367V495.368C387.367 495.827 387.265 496.264 387.063 496.68C386.871 497.085 386.599 497.459 386.247 497.8C385.895 498.131 385.479 498.424 384.999 498.68C384.529 498.925 384.017 499.133 383.463 499.304C382.908 499.475 382.332 499.597 381.735 499.672L381.239 498.616C381.761 498.563 382.263 498.467 382.743 498.328C383.233 498.189 383.687 498.024 384.103 497.832C384.529 497.629 384.897 497.4 385.207 497.144C385.516 496.888 385.756 496.611 385.927 496.312C386.108 496.013 386.199 495.699 386.199 495.368V494.92ZM386.743 494.92H387.911V495.368C387.911 495.688 387.996 496.003 388.167 496.312C388.348 496.611 388.593 496.888 388.903 497.144C389.223 497.389 389.591 497.613 390.007 497.816C390.423 498.019 390.871 498.189 391.351 498.328C391.841 498.467 392.348 498.563 392.871 498.616L392.375 499.672C391.777 499.597 391.201 499.475 390.647 499.304C390.092 499.133 389.575 498.92 389.095 498.664C388.625 498.408 388.215 498.115 387.863 497.784C387.511 497.443 387.233 497.069 387.031 496.664C386.839 496.259 386.743 495.827 386.743 495.368V494.92ZM381.719 494.36H392.407V495.432H381.719V494.36ZM380.519 501.032H393.623V502.12H380.519V501.032ZM386.391 498.856H387.703V501.56H386.391V498.856ZM381.975 503.544H391.975V508.248H390.647V504.616H381.975V503.544ZM400.256 494.888H406.656V495.992H400.256V494.888ZM402.432 498.12H403.744V501.736H402.432V498.12ZM406.128 494.888H407.424V495.656C407.424 496.136 407.408 496.733 407.376 497.448C407.355 498.163 407.248 498.995 407.056 499.944L405.744 499.816C405.936 498.856 406.048 498.04 406.08 497.368C406.112 496.696 406.128 496.125 406.128 495.656V494.888ZM409.392 493.768H410.736V504.664H409.392V493.768ZM410.128 498.472H412.8V499.592H410.128V498.472ZM401.584 506.84H411.2V507.928H401.584V506.84ZM401.584 503.672H402.912V507.16H401.584V503.672ZM399.52 502.36L399.376 501.272C400.229 501.272 401.173 501.261 402.208 501.24C403.243 501.219 404.293 501.176 405.36 501.112C406.427 501.037 407.451 500.936 408.432 500.808L408.512 501.784C407.52 501.955 406.491 502.083 405.424 502.168C404.357 502.253 403.317 502.307 402.304 502.328C401.301 502.349 400.373 502.36 399.52 502.36ZM414.783 501.4H415.823C416.74 501.4 417.535 501.389 418.207 501.368C418.889 501.347 419.513 501.309 420.079 501.256C420.655 501.203 421.241 501.128 421.839 501.032L421.983 502.12C421.364 502.227 420.761 502.307 420.175 502.36C419.588 502.413 418.948 502.451 418.255 502.472C417.561 502.483 416.751 502.488 415.823 502.488H414.783V501.4ZM414.751 494.808H420.991V499.032H416.111V502.04H414.783V497.992H419.663V495.88H414.751V494.808ZM424.767 493.784H426.095V504.424H424.767V493.784ZM421.967 496.216H425.087V497.288H421.967V496.216ZM416.751 506.76H426.527V507.864H416.751V506.76ZM416.751 503.656H418.063V507.256H416.751V503.656ZM421.967 499.448H425.087V500.536H421.967V499.448Z" fill="black" fill-opacity="0.7"/>
<circle cx="445" cy="501.5" r="3.5" fill="#FF99B4" stroke="white"/>
<path d="M461.608 495.016H462.712V497.608C462.712 498.44 462.605 499.251 462.392 500.04C462.189 500.819 461.896 501.549 461.512 502.232C461.139 502.904 460.696 503.501 460.184 504.024C459.683 504.536 459.133 504.941 458.536 505.24L457.72 504.136C458.264 503.891 458.771 503.539 459.24 503.08C459.709 502.621 460.12 502.104 460.472 501.528C460.824 500.941 461.101 500.312 461.304 499.64C461.507 498.968 461.608 498.291 461.608 497.608V495.016ZM461.832 495.016H462.936V497.608C462.936 498.269 463.032 498.92 463.224 499.56C463.427 500.2 463.704 500.808 464.056 501.384C464.419 501.949 464.829 502.451 465.288 502.888C465.757 503.315 466.259 503.651 466.792 503.896L465.992 504.952C465.405 504.675 464.861 504.285 464.36 503.784C463.859 503.283 463.416 502.707 463.032 502.056C462.659 501.405 462.365 500.701 462.152 499.944C461.939 499.187 461.832 498.408 461.832 497.608V495.016ZM468.312 493.768H469.64V508.264H468.312V493.768ZM483.095 493.768H484.423V502.536H483.095V493.768ZM480.695 498.168H483.687V499.272H480.695V498.168ZM475.031 503.304H484.423V508.056H475.031V503.304ZM483.127 504.376H476.343V506.968H483.127V504.376ZM472.535 495.272H480.903V496.36H472.535V495.272ZM476.727 497.096C477.377 497.096 477.953 497.203 478.455 497.416C478.956 497.629 479.345 497.933 479.623 498.328C479.911 498.712 480.055 499.16 480.055 499.672C480.055 500.195 479.911 500.648 479.623 501.032C479.345 501.416 478.956 501.715 478.455 501.928C477.953 502.141 477.377 502.248 476.727 502.248C476.076 502.248 475.495 502.141 474.983 501.928C474.481 501.715 474.087 501.416 473.799 501.032C473.521 500.648 473.383 500.195 473.383 499.672C473.383 499.16 473.521 498.712 473.799 498.328C474.087 497.933 474.481 497.629 474.983 497.416C475.495 497.203 476.076 497.096 476.727 497.096ZM476.727 498.12C476.321 498.12 475.959 498.184 475.639 498.312C475.329 498.44 475.084 498.621 474.903 498.856C474.732 499.091 474.647 499.363 474.647 499.672C474.647 499.981 474.732 500.253 474.903 500.488C475.084 500.723 475.329 500.909 475.639 501.048C475.959 501.176 476.321 501.24 476.727 501.24C477.132 501.24 477.489 501.176 477.799 501.048C478.108 500.909 478.348 500.723 478.519 500.488C478.7 500.253 478.791 499.981 478.791 499.672C478.791 499.363 478.7 499.091 478.519 498.856C478.348 498.621 478.108 498.44 477.799 498.312C477.489 498.184 477.132 498.12 476.727 498.12ZM476.071 493.64H477.383V496.056H476.071V493.64ZM493.766 494.024C495.366 494.024 496.614 494.243 497.51 494.68C498.406 495.107 498.854 495.72 498.854 496.52C498.854 497.331 498.406 497.955 497.51 498.392C496.614 498.819 495.366 499.032 493.766 499.032C492.176 499.032 490.928 498.819 490.022 498.392C489.126 497.955 488.678 497.331 488.678 496.52C488.678 495.72 489.126 495.107 490.022 494.68C490.928 494.243 492.176 494.024 493.766 494.024ZM493.766 495.016C492.987 495.016 492.32 495.075 491.766 495.192C491.211 495.309 490.784 495.48 490.486 495.704C490.198 495.928 490.054 496.2 490.054 496.52C490.054 496.84 490.198 497.117 490.486 497.352C490.784 497.576 491.211 497.747 491.766 497.864C492.32 497.971 492.987 498.024 493.766 498.024C494.555 498.024 495.227 497.971 495.782 497.864C496.336 497.747 496.758 497.576 497.046 497.352C497.344 497.117 497.494 496.84 497.494 496.52C497.494 496.2 497.344 495.928 497.046 495.704C496.758 495.48 496.336 495.309 495.782 495.192C495.227 495.075 494.555 495.016 493.766 495.016ZM487.238 500.008H500.31V501.08H487.238V500.008ZM488.822 502.312H498.63V505.576H490.15V507.32H488.854V504.6H497.334V503.336H488.822V502.312ZM488.854 507.048H499.062V508.088H488.854V507.048ZM510.911 494.456C511.636 494.456 512.276 494.584 512.831 494.84C513.385 495.085 513.817 495.432 514.127 495.88C514.447 496.317 514.607 496.835 514.607 497.432C514.607 498.008 514.447 498.525 514.127 498.984C513.817 499.432 513.385 499.784 512.831 500.04C512.276 500.285 511.636 500.408 510.911 500.408C510.207 500.408 509.577 500.285 509.023 500.04C508.468 499.784 508.031 499.432 507.711 498.984C507.391 498.525 507.231 498.008 507.231 497.432C507.231 496.835 507.391 496.317 507.711 495.88C508.031 495.432 508.468 495.085 509.023 494.84C509.577 494.584 510.207 494.456 510.911 494.456ZM510.911 495.544C510.452 495.544 510.041 495.624 509.679 495.784C509.316 495.944 509.028 496.168 508.815 496.456C508.612 496.733 508.511 497.059 508.511 497.432C508.511 497.795 508.612 498.12 508.815 498.408C509.028 498.685 509.316 498.904 509.679 499.064C510.041 499.224 510.452 499.304 510.911 499.304C511.391 499.304 511.812 499.224 512.175 499.064C512.537 498.904 512.82 498.685 513.023 498.408C513.236 498.12 513.343 497.795 513.343 497.432C513.343 497.059 513.236 496.733 513.023 496.456C512.82 496.168 512.537 495.944 512.175 495.784C511.812 495.624 511.391 495.544 510.911 495.544ZM510.335 502.024H511.663V507.8H510.335V502.024ZM516.735 493.784H518.047V508.248H516.735V493.784ZM506.335 502.744L506.159 501.624C507.055 501.624 508.036 501.613 509.103 501.592C510.18 501.571 511.284 501.523 512.415 501.448C513.556 501.373 514.649 501.256 515.695 501.096L515.791 502.088C514.713 502.291 513.615 502.44 512.495 502.536C511.375 502.621 510.287 502.675 509.231 502.696C508.185 502.717 507.22 502.733 506.335 502.744ZM520.877 496.248H528.061V497.336H520.877V496.248ZM524.477 498.296C525.085 498.296 525.619 498.435 526.077 498.712C526.547 498.989 526.915 499.379 527.181 499.88C527.448 500.371 527.581 500.941 527.581 501.592C527.581 502.243 527.448 502.819 527.181 503.32C526.915 503.811 526.547 504.2 526.077 504.488C525.619 504.765 525.085 504.904 524.477 504.904C523.88 504.904 523.347 504.765 522.877 504.488C522.408 504.2 522.04 503.811 521.773 503.32C521.507 502.819 521.373 502.243 521.373 501.592C521.373 500.941 521.507 500.371 521.773 499.88C522.04 499.389 522.408 499.005 522.877 498.728C523.347 498.44 523.88 498.296 524.477 498.296ZM524.477 499.416C524.115 499.416 523.784 499.512 523.485 499.704C523.197 499.885 522.968 500.141 522.797 500.472C522.637 500.792 522.557 501.165 522.557 501.592C522.557 502.019 522.637 502.397 522.797 502.728C522.968 503.059 523.197 503.315 523.485 503.496C523.784 503.677 524.115 503.768 524.477 503.768C524.851 503.768 525.181 503.677 525.469 503.496C525.757 503.315 525.981 503.059 526.141 502.728C526.312 502.397 526.397 502.019 526.397 501.592C526.397 501.165 526.312 500.792 526.141 500.472C525.981 500.141 525.757 499.885 525.469 499.704C525.181 499.512 524.851 499.416 524.477 499.416ZM531.885 493.768H533.149V508.248H531.885V493.768ZM529.565 499.864H532.301V500.952H529.565V499.864ZM528.781 494.104H530.029V507.544H528.781V494.104ZM523.821 494.2H525.133V496.904H523.821V494.2Z" fill="black" fill-opacity="0.7"/>
<circle cx="551" cy="501.5" r="3.5" fill="#FFB2C3" stroke="white"/>
<path d="M574.344 493.768H575.672V508.248H574.344V493.768ZM570.104 495.336H571.416C571.416 496.381 571.288 497.389 571.032 498.36C570.787 499.331 570.397 500.253 569.864 501.128C569.331 501.992 568.637 502.797 567.784 503.544C566.931 504.291 565.896 504.957 564.68 505.544L563.976 504.472C565.373 503.8 566.525 503.016 567.432 502.12C568.339 501.224 569.011 500.227 569.448 499.128C569.885 498.019 570.104 496.824 570.104 495.544V495.336ZM564.648 495.336H570.664V496.408H564.648V495.336ZM579.143 503.656H580.279C581.164 503.656 581.975 503.645 582.711 503.624C583.447 503.603 584.156 503.56 584.839 503.496C585.532 503.432 586.241 503.336 586.967 503.208L587.095 504.296C586.359 504.424 585.639 504.525 584.935 504.6C584.231 504.664 583.5 504.707 582.743 504.728C581.996 504.749 581.175 504.76 580.279 504.76H579.143V503.656ZM579.143 495.08H585.879V496.184H580.471V504.04H579.143V495.08ZM580.135 499.144H585.559V500.216H580.135V499.144ZM588.311 493.768H589.639V508.248H588.311V493.768ZM589.335 499.576H592.007V500.696H589.335V499.576Z" fill="black" fill-opacity="0.7"/>
<path d="M59.8652 598.332V605.543H63.0645V607.879H59.8652V615.471H57.0469V598.332H59.8652ZM41.7871 603.131V600.871H47.1953V598.307H50.0137V600.871H55.3965V603.131H41.7871ZM42.9551 608.463C42.9551 605.822 45.2529 604.07 48.5918 604.07C51.9053 604.07 54.1904 605.822 54.2031 608.463C54.1904 611.091 51.9053 612.805 48.5918 612.805C45.2529 612.805 42.9551 611.091 42.9551 608.463ZM45.1641 620.803V614.125H47.9824V618.518H60.7793V620.803H45.1641ZM45.6973 608.463C45.6846 609.847 46.8525 610.634 48.5918 610.621C50.3311 610.634 51.5117 609.847 51.5117 608.463C51.5117 607.066 50.3311 606.254 48.5918 606.254C46.8525 606.254 45.6846 607.066 45.6973 608.463ZM82.6406 599.348V601.1C82.6533 602.801 82.6533 604.781 82.1455 607.346H85.2051V609.631H76.0898V613.211H82.6914V621.26H79.873V615.471H66.3652V613.211H73.2715V609.631H64.2324V607.346H79.3145C79.7715 604.984 79.8223 603.194 79.8223 601.607H66.8223V599.348H82.6406ZM113.82 609.783V612.043H104.959V616.258H102.166V612.043H92.8477V609.783H113.82ZM95.3867 620.803V614.15H98.2051V618.518H111.51V620.803H95.3867ZM95.5137 607.65V599.348H111.129V607.65H95.5137ZM98.2559 605.441H108.336V601.557H98.2559V605.441ZM133.498 598.307V607.777H136.723V610.139H133.498V621.26H130.654V598.307H133.498ZM115.064 614.887C116.804 614.887 118.822 614.887 120.93 614.836V612.69C118.429 612.259 116.804 610.697 116.816 608.539C116.804 605.949 119.076 604.235 122.377 604.223C125.64 604.235 127.938 605.949 127.963 608.539C127.938 610.71 126.274 612.271 123.773 612.69V614.734C125.703 614.633 127.633 614.48 129.436 614.227L129.613 616.283C124.688 617.185 119.381 617.223 115.471 617.223L115.064 614.887ZM115.496 603.182V600.947H120.93V598.408H123.773V600.947H129.182V603.182H115.496ZM119.482 608.539C119.47 609.859 120.638 610.634 122.377 610.621C124.091 610.634 125.246 609.859 125.246 608.539C125.246 607.206 124.091 606.394 122.377 606.381C120.638 606.394 119.47 607.206 119.482 608.539ZM157.619 598.307V621.26H154.902V598.307H157.619ZM138.043 608.234C138.043 603.182 139.998 600.046 142.994 600.059C145.774 600.046 147.666 602.648 147.996 606.939H150.205V598.713H152.896V620.143H150.205V609.225H148.021C147.755 613.706 145.838 616.448 142.994 616.436C139.998 616.448 138.043 613.3 138.043 608.234ZM140.658 608.234C140.646 611.827 141.534 613.757 142.994 613.744C144.518 613.757 145.419 611.827 145.432 608.234C145.419 604.654 144.518 602.712 142.994 602.725C141.534 602.712 140.646 604.654 140.658 608.234ZM186.209 598.307V621.26H183.518V609.555H180.928V620.092H178.338V598.738H180.928V607.295H183.518V598.307H186.209ZM167.166 615.902V601.023H175.748V603.309H170.01V613.516C172.498 613.49 174.555 613.363 176.891 612.932L177.094 615.242C174.313 615.801 171.914 615.877 168.715 615.902H167.166ZM207.029 598.332V605.543H210.229V607.879H207.029V615.471H204.211V598.332H207.029ZM188.951 603.131V600.871H194.359V598.307H197.178V600.871H202.561V603.131H188.951ZM190.119 608.463C190.119 605.822 192.417 604.07 195.756 604.07C199.069 604.07 201.354 605.822 201.367 608.463C201.354 611.091 199.069 612.805 195.756 612.805C192.417 612.805 190.119 611.091 190.119 608.463ZM192.328 620.803V614.125H195.146V618.518H207.943V620.803H192.328ZM192.861 608.463C192.849 609.847 194.017 610.634 195.756 610.621C197.495 610.634 198.676 609.847 198.676 608.463C198.676 607.066 197.495 606.254 195.756 606.254C194.017 606.254 192.849 607.066 192.861 608.463ZM228.002 614.125C233.067 614.125 235.937 615.344 235.949 617.68C235.937 620.041 233.067 621.247 228.002 621.26C222.873 621.247 220.004 620.041 220.004 617.68C220.004 615.344 222.873 614.125 228.002 614.125ZM217.566 612.906V610.748H238.488V612.906H217.566ZM218.607 602.242V600.109H226.605V598.053H229.424V600.109H237.346V602.242H218.607ZM220.385 606.279C220.385 604.108 223.14 602.953 228.002 602.953C232.915 602.953 235.632 604.108 235.645 606.279C235.632 608.438 232.915 609.567 228.002 609.555C223.14 609.567 220.385 608.438 220.385 606.279ZM222.898 617.68C222.898 618.708 224.587 619.203 228.002 619.178C231.379 619.203 233.093 618.708 233.105 617.68C233.093 616.689 231.379 616.169 228.002 616.156C224.587 616.169 222.898 616.689 222.898 617.68ZM223.406 606.279C223.406 607.181 224.968 607.612 228.002 607.625C231.087 607.612 232.61 607.181 232.623 606.279C232.61 605.327 231.087 604.857 228.002 604.857C224.968 604.857 223.406 605.327 223.406 606.279ZM252.174 600.465V615.674H241.256V600.465H252.174ZM244.049 613.414H249.432V602.674H244.049V613.414ZM256.287 621.285V598.307H259.131V621.285H256.287ZM269.363 599.729C272.893 599.729 275.584 602.001 275.609 605.264C275.584 608.069 273.604 610.139 270.811 610.659V614.049C272.728 613.947 274.632 613.808 276.422 613.566L276.625 615.674C271.813 616.537 266.57 616.562 262.635 616.512L262.229 614.201C263.955 614.201 265.936 614.188 267.992 614.138V610.685C265.11 610.177 263.117 608.095 263.143 605.264C263.117 602.001 265.758 599.729 269.363 599.729ZM265.885 605.264C265.872 607.181 267.357 608.412 269.363 608.387C271.331 608.412 272.804 607.181 272.816 605.264C272.804 603.334 271.331 602.141 269.363 602.115C267.357 602.141 265.872 603.334 265.885 605.264ZM277.742 621.26V598.307H280.561V607.473H283.887V609.859H280.561V621.26H277.742ZM312.121 616.131V618.416H291.148V616.131H300.137V610.824H302.93V616.131H312.121ZM291.758 609.047C296.557 608.272 299.997 604.832 300.01 601.379V599.703H303.006V601.379C303.006 604.845 306.472 608.272 311.309 609.047L310.09 611.383C306.218 610.646 303.031 608.425 301.508 605.416C299.997 608.412 296.849 610.659 292.977 611.383L291.758 609.047ZM334.541 610.24V612.475H313.568V610.24H322.633V608.539H316.26V598.916H332.027V601.1H319.078V602.674H331.469V604.756H319.078V606.381H332.205V608.539H325.451V610.24H334.541ZM316.057 617.477C316.057 615.077 318.938 613.731 324.055 613.744C329.095 613.731 331.989 615.077 332.002 617.477C331.989 619.939 329.095 621.234 324.055 621.234C318.938 621.234 316.057 619.939 316.057 617.477ZM318.875 617.477C318.875 618.594 320.602 619.127 324.055 619.127C327.444 619.127 329.158 618.594 329.184 617.477C329.158 616.385 327.444 615.852 324.055 615.852C320.602 615.852 318.875 616.385 318.875 617.477ZM355.184 598.307V621.285H352.34V598.307H355.184ZM336.826 608.082C336.813 603.131 339.34 599.982 342.818 599.982C346.259 599.982 348.798 603.131 348.811 608.082C348.798 613.071 346.259 616.207 342.818 616.207C339.34 616.207 336.813 613.071 336.826 608.082ZM339.543 608.082C339.543 611.611 340.876 613.655 342.818 613.668C344.748 613.655 346.068 611.611 346.068 608.082C346.068 604.578 344.748 602.521 342.818 602.521C340.876 602.521 339.543 604.578 339.543 608.082ZM383.24 603.588C383.24 605.044 383.223 606.267 383.189 607.257C383.164 608.247 383.084 609.356 382.948 610.583C382.813 611.802 382.597 613.126 382.301 614.557L380.295 614.379C380.743 612.424 381.035 610.49 381.171 608.577L367.396 609.326L367.117 607.676L381.247 607.092C381.264 606.618 381.277 606.148 381.285 605.683C381.294 605.209 381.302 604.739 381.311 604.273V603.588V602.471H367.727V600.795H383.24V603.588ZM385.805 617.883H365.238V616.207H385.805V617.883ZM407.031 621.057H405.127V598.484H407.031V621.057ZM402.283 619.914H400.379V609.377H395.593C394.154 612.136 391.924 614.404 388.902 616.182L387.734 614.734C390.146 613.312 391.992 611.611 393.27 609.631C394.556 607.642 395.292 605.441 395.479 603.029H388.699V601.379H397.459C397.442 603.681 397.065 605.805 396.329 607.752H400.379V599.094H402.283V619.914ZM424.348 602.674C424.348 603.664 424.576 604.616 425.033 605.53C425.499 606.436 426.15 607.24 426.988 607.942C427.826 608.645 428.799 609.191 429.908 609.58L428.893 611.129C427.615 610.672 426.497 610.003 425.541 609.123C424.585 608.234 423.865 607.206 423.383 606.038C422.9 607.308 422.164 608.425 421.174 609.39C420.184 610.346 419.024 611.07 417.695 611.561L416.629 610.012C417.746 609.614 418.741 609.043 419.612 608.298C420.484 607.553 421.161 606.694 421.644 605.721C422.134 604.747 422.384 603.732 422.393 602.674V601.709H417.238V600.084H429.426V601.709H424.348V602.674ZM434.352 604.451H437.754V606.152H434.352V612.094H432.371V598.484H434.352V604.451ZM434.352 621.057H432.371V614.912H419.574V613.287H434.352V621.057ZM459.742 611.307H439.176V609.656H444.279V606.482C443.365 606.127 442.667 605.666 442.185 605.099C441.702 604.523 441.461 603.859 441.461 603.105C441.461 602.225 441.783 601.472 442.426 600.846C443.069 600.219 443.987 599.741 445.181 599.411C446.382 599.081 447.809 598.916 449.459 598.916C451.092 598.916 452.506 599.081 453.699 599.411C454.901 599.741 455.824 600.219 456.467 600.846C457.11 601.472 457.432 602.225 457.432 603.105C457.432 603.85 457.19 604.51 456.708 605.086C456.234 605.653 455.544 606.114 454.639 606.47V609.656H459.742V611.307ZM449.459 613.033C451.076 613.033 452.464 613.186 453.623 613.49C454.783 613.795 455.671 614.248 456.289 614.849C456.907 615.441 457.22 616.165 457.229 617.02C457.22 617.866 456.907 618.585 456.289 619.178C455.671 619.779 454.783 620.231 453.623 620.536C452.464 620.849 451.076 621.006 449.459 621.006C447.826 621.006 446.425 620.849 445.257 620.536C444.097 620.231 443.209 619.779 442.591 619.178C441.973 618.585 441.664 617.866 441.664 617.02C441.664 616.165 441.969 615.441 442.578 614.849C443.196 614.248 444.089 613.795 445.257 613.49C446.425 613.186 447.826 613.033 449.459 613.033ZM449.459 614.557C447.631 614.574 446.209 614.798 445.193 615.229C444.186 615.653 443.687 616.249 443.695 617.02C443.687 617.527 443.911 617.963 444.368 618.327C444.825 618.691 445.485 618.97 446.349 619.165C447.22 619.36 448.257 619.457 449.459 619.457C450.644 619.457 451.668 619.36 452.531 619.165C453.403 618.97 454.067 618.691 454.524 618.327C454.99 617.963 455.223 617.527 455.223 617.02C455.223 616.249 454.711 615.653 453.687 615.229C452.671 614.798 451.262 614.574 449.459 614.557ZM449.459 600.49C448.24 600.49 447.182 600.596 446.285 600.808C445.388 601.019 444.698 601.324 444.216 601.722C443.742 602.111 443.509 602.572 443.518 603.105C443.509 603.647 443.742 604.117 444.216 604.515C444.698 604.904 445.384 605.204 446.272 605.416C447.17 605.619 448.232 605.721 449.459 605.721C450.678 605.721 451.731 605.619 452.62 605.416C453.509 605.204 454.194 604.904 454.677 604.515C455.159 604.117 455.4 603.647 455.4 603.105C455.4 602.572 455.159 602.111 454.677 601.722C454.194 601.324 453.505 601.019 452.607 600.808C451.719 600.596 450.669 600.49 449.459 600.49ZM452.658 609.656V607.016C451.685 607.185 450.618 607.27 449.459 607.27C448.299 607.27 447.233 607.185 446.26 607.016V609.656H452.658ZM479.115 607.803H482.898V609.453H479.115V621.057H477.135V598.484H479.115V607.803ZM474.951 603.766H461.52V602.115H467.334V598.764H469.314V602.115H474.951V603.766ZM468.35 605.645C469.408 605.645 470.355 605.865 471.193 606.305C472.031 606.745 472.687 607.358 473.161 608.146C473.635 608.933 473.876 609.826 473.885 610.824C473.876 611.823 473.635 612.716 473.161 613.503C472.687 614.29 472.031 614.904 471.193 615.344C470.355 615.784 469.408 616.004 468.35 616.004C467.283 616.004 466.327 615.784 465.48 615.344C464.643 614.904 463.987 614.29 463.513 613.503C463.039 612.716 462.806 611.823 462.814 610.824C462.806 609.826 463.039 608.933 463.513 608.146C463.987 607.358 464.643 606.745 465.48 606.305C466.327 605.865 467.283 605.645 468.35 605.645ZM468.35 607.32C467.656 607.32 467.029 607.473 466.471 607.777C465.921 608.074 465.489 608.488 465.176 609.021C464.863 609.555 464.71 610.156 464.719 610.824C464.71 611.501 464.863 612.106 465.176 612.64C465.489 613.164 465.921 613.575 466.471 613.871C467.029 614.167 467.656 614.311 468.35 614.303C469.035 614.311 469.653 614.167 470.203 613.871C470.753 613.575 471.185 613.164 471.498 612.64C471.811 612.106 471.972 611.501 471.98 610.824C471.972 610.156 471.811 609.555 471.498 609.021C471.185 608.488 470.753 608.074 470.203 607.777C469.653 607.473 469.035 607.32 468.35 607.32ZM502.221 603.029V603.309C502.204 605.171 502.145 606.842 502.043 608.323C501.95 609.796 501.73 611.501 501.383 613.439L499.352 613.211C499.622 611.874 499.817 610.613 499.936 609.428C500.062 608.243 500.139 607.189 500.164 606.267C500.198 605.344 500.215 604.265 500.215 603.029V602.42H486.301V600.77H502.221V603.029ZM504.684 617.857H484.117V616.207H492.191V608.133H494.146V616.207H504.684V617.857ZM520.756 613.643C520.756 614.684 521.031 615.687 521.581 616.651C522.14 617.616 522.935 618.391 523.968 618.975C524.653 618.543 525.246 618.027 525.745 617.426C526.244 616.816 526.621 616.186 526.875 615.534C527.129 614.874 527.256 614.243 527.256 613.643V612.398H529.211V613.643C529.211 614.421 529.393 615.183 529.757 615.928C530.129 616.664 530.662 617.328 531.356 617.921C532.05 618.505 532.867 618.958 533.807 619.279L532.816 620.752C531.708 620.363 530.76 619.796 529.973 619.051C529.186 618.306 528.593 617.451 528.195 616.486C527.823 617.451 527.285 618.327 526.583 619.114C525.881 619.901 525.03 620.507 524.031 620.93C522.973 620.523 522.085 619.935 521.365 619.165C520.654 618.403 520.121 617.527 519.766 616.537C519.351 617.477 518.758 618.314 517.988 619.051C517.218 619.787 516.304 620.354 515.246 620.752L514.23 619.279C515.153 618.932 515.957 618.458 516.643 617.857C517.337 617.248 517.87 616.575 518.242 615.839C518.623 615.103 518.818 614.37 518.826 613.643V612.398H520.756V613.643ZM531.75 611.408H529.77V598.51H531.75V611.408ZM519.562 599.83C520.697 599.83 521.712 600.054 522.609 600.503C523.507 600.943 524.209 601.565 524.717 602.369C525.225 603.165 525.479 604.079 525.479 605.111C525.479 606.127 525.225 607.033 524.717 607.828C524.209 608.624 523.507 609.242 522.609 609.682C521.712 610.122 520.697 610.342 519.562 610.342C518.428 610.342 517.413 610.122 516.516 609.682C515.618 609.242 514.916 608.624 514.408 607.828C513.9 607.033 513.646 606.127 513.646 605.111C513.646 604.079 513.9 603.165 514.408 602.369C514.916 601.565 515.618 600.943 516.516 600.503C517.413 600.054 518.428 599.83 519.562 599.83ZM519.562 601.531C518.801 601.523 518.115 601.671 517.506 601.976C516.905 602.28 516.435 602.708 516.097 603.258C515.758 603.799 515.593 604.417 515.602 605.111C515.593 605.797 515.758 606.41 516.097 606.952C516.435 607.494 516.905 607.917 517.506 608.222C518.115 608.526 518.801 608.683 519.562 608.691C520.316 608.683 520.993 608.526 521.594 608.222C522.195 607.917 522.664 607.494 523.003 606.952C523.35 606.41 523.523 605.797 523.523 605.111C523.523 604.417 523.35 603.799 523.003 603.258C522.664 602.708 522.195 602.28 521.594 601.976C520.993 601.671 520.316 601.523 519.562 601.531ZM545.867 599.957C547.433 599.957 548.842 600.215 550.095 600.731C551.347 601.248 552.329 601.976 553.04 602.915C553.759 603.854 554.119 604.934 554.119 606.152C554.119 607.38 553.759 608.467 553.04 609.415C552.329 610.354 551.347 611.082 550.095 611.599C548.842 612.106 547.433 612.356 545.867 612.348C544.301 612.356 542.892 612.106 541.64 611.599C540.387 611.082 539.401 610.354 538.682 609.415C537.971 608.467 537.615 607.38 537.615 606.152C537.615 604.934 537.971 603.854 538.682 602.915C539.401 601.976 540.387 601.248 541.64 600.731C542.892 600.215 544.301 599.957 545.867 599.957ZM545.867 601.582C544.665 601.574 543.578 601.764 542.604 602.153C541.64 602.543 540.882 603.089 540.332 603.791C539.782 604.485 539.511 605.272 539.52 606.152C539.511 607.049 539.782 607.845 540.332 608.539C540.882 609.233 541.64 609.771 542.604 610.151C543.578 610.532 544.665 610.723 545.867 610.723C547.061 610.723 548.135 610.532 549.092 610.151C550.057 609.771 550.814 609.233 551.364 608.539C551.914 607.845 552.189 607.049 552.189 606.152C552.189 605.272 551.914 604.485 551.364 603.791C550.814 603.089 550.057 602.543 549.092 602.153C548.135 601.764 547.061 601.574 545.867 601.582ZM556.252 618.061H535.584V616.385H556.252V618.061ZM569.252 603.918H574.787V598.484H576.768V621.107H574.787V611.789H569.252V615.344H558.969V600.744H569.252V603.918ZM560.949 613.744H567.322V602.318H560.949V613.744ZM574.787 610.139V605.568H569.252V610.139H574.787ZM582.252 624.205H580.373L581.77 617.299H584.232L582.252 624.205ZM44.8086 636.617V643.371H42.3457V636.617H44.8086ZM60.7285 636.719V638.928H55.9805C56.0312 640.921 57.8467 642.686 61.2363 643.346L60.1191 645.529C57.4912 644.983 55.6377 643.752 54.6221 642.102C53.6191 643.904 51.7148 645.263 49.0234 645.834L47.8301 643.65C51.2705 642.965 53.0986 641.035 53.1367 638.928H48.4141V636.719H53.1621V634.357H55.9805V636.719H60.7285ZM46.9668 647.027C51.2451 647.04 56.9453 647.002 61.8457 646.393L62.0488 648.424C60.0684 648.767 58.0117 648.982 56.0059 649.122V656.549H53.1621V649.274C51.0674 649.351 49.0742 649.363 47.3223 649.363L46.9668 647.027ZM63.3438 657.234V634.332H66.1367V657.234H63.3438ZM81.5488 636.465V651.674H70.6309V636.465H81.5488ZM73.4238 649.414H78.8066V638.674H73.4238V649.414ZM85.6621 657.285V634.307H88.5059V657.285H85.6621ZM94.9297 636.617V643.371H92.4668V636.617H94.9297ZM115.039 634.307V643.27H118.441V645.631H115.039V657.209H112.221V634.307H115.039ZM96.9355 650.938C102.521 648.145 105.543 644.26 106.102 639.029H98.1797V636.693H108.971C108.958 643.435 106.165 649.363 98.5352 653.121L96.9355 650.938ZM139.338 636.516V638.75H125.729V636.516H131.137V634.205H133.955V636.516H139.338ZM126.896 643.828C126.896 641.314 129.22 639.639 132.533 639.639C135.847 639.639 138.132 641.314 138.145 643.828C138.132 646.342 135.847 648.018 132.533 648.018C129.22 648.018 126.896 646.342 126.896 643.828ZM128.521 652.004V649.744H143.807V657.26H140.988V652.004H128.521ZM129.639 643.828C129.626 645.123 130.794 645.847 132.533 645.834C134.272 645.847 135.453 645.123 135.453 643.828C135.453 642.533 134.272 641.771 132.533 641.771C130.794 641.771 129.626 642.533 129.639 643.828ZM140.988 648.678V634.307H143.807V640.4H147.006V642.711H143.807V648.678H140.988ZM153.48 648.068V650.252H163.586V648.068H166.404V656.98H150.688V648.068H153.48ZM148.174 646.773V644.463H169.096V646.773H148.174ZM149.24 641.035C154.039 640.438 157.175 637.976 157.188 635.424V634.561H160.082V635.424C160.082 637.899 163.23 640.477 167.979 641.035L166.988 643.27C163.142 642.749 160.107 641.035 158.635 638.712C157.149 641.048 154.103 642.749 150.281 643.27L149.24 641.035ZM153.48 654.746H163.586V652.41H153.48V654.746ZM178.084 635.906C181.728 635.894 184.381 638.191 184.406 641.441C184.381 644.704 181.728 646.989 178.084 647.002C174.479 646.989 171.774 644.704 171.787 641.441C171.774 638.191 174.479 635.894 178.084 635.906ZM170.746 650.176C174.885 650.176 180.61 650.125 185.574 649.414L185.803 651.471C180.661 652.448 175.151 652.486 171.102 652.486L170.746 650.176ZM174.58 641.441C174.567 643.358 176.078 644.539 178.084 644.539C180.115 644.539 181.626 643.358 181.639 641.441C181.626 639.537 180.128 638.344 178.084 638.344C176.078 638.344 174.567 639.537 174.58 641.441ZM186.945 657.285V634.307H189.764V657.285H186.945ZM220.207 647.104V649.389H211.092V657.234H208.299V649.389H199.285V647.104H220.207ZM200.377 643.346C204.884 642.774 207.905 640.35 208.108 637.836H201.215V635.602H218.277V637.836H211.384C211.574 640.35 214.57 642.774 219.115 643.346L218.1 645.555C214.189 644.996 211.143 643.206 209.746 640.73C208.337 643.206 205.315 644.996 201.443 645.555L200.377 643.346ZM235.111 641.518V643.777H230.846V646.38C232.763 646.304 234.667 646.177 236.457 645.986L236.66 648.018C231.785 648.69 226.517 648.817 222.238 648.83L221.857 646.57C223.749 646.558 225.844 646.545 228.002 646.481V643.777H223.838V635.729H234.934V638.014H226.682V641.518H235.111ZM225.514 656.803V650.277H228.357V654.518H241.561V656.803H225.514ZM238.057 651.547V634.307H240.9V651.547H238.057ZM268.652 635.246V643.219H262.254V645.631H271.318V647.916H250.396V645.631H259.41V643.219H253.037V635.246H268.652ZM252.707 652.08V649.846H268.754V657.26H265.936V652.08H252.707ZM255.779 640.984H265.859V637.455H255.779V640.984ZM281.297 638.242C281.297 641.048 283.15 643.854 286.705 645.047L285.283 647.23C282.719 646.393 280.903 644.653 279.9 642.495C278.897 644.895 276.993 646.824 274.264 647.738L272.816 645.504C276.473 644.298 278.428 641.251 278.428 638.268V637.963H273.654V635.703H286.045V637.963H281.297V638.242ZM276.447 651.344V649.084H292.088V657.26H289.27V651.344H276.447ZM285.359 642.305V639.994H289.27V634.307H292.088V647.992H289.27V642.305H285.359ZM314.102 657.107H312.096V634.484H314.102V657.107ZM302.092 636.236C303.209 636.245 304.203 636.575 305.075 637.227C305.947 637.87 306.628 638.784 307.119 639.969C307.61 641.154 307.855 642.533 307.855 644.107C307.855 645.682 307.61 647.061 307.119 648.246C306.628 649.431 305.947 650.345 305.075 650.988C304.203 651.632 303.209 651.953 302.092 651.953C300.975 651.953 299.976 651.632 299.096 650.988C298.224 650.345 297.543 649.431 297.052 648.246C296.569 647.061 296.328 645.682 296.328 644.107C296.328 642.533 296.569 641.154 297.052 639.969C297.543 638.784 298.224 637.87 299.096 637.227C299.967 636.575 300.966 636.245 302.092 636.236ZM302.092 638.014C301.339 638.022 300.67 638.28 300.086 638.788C299.51 639.287 299.062 639.998 298.74 640.921C298.419 641.835 298.258 642.897 298.258 644.107C298.258 645.318 298.419 646.384 298.74 647.307C299.062 648.221 299.515 648.927 300.099 649.427C300.683 649.926 301.347 650.176 302.092 650.176C302.837 650.176 303.501 649.926 304.085 649.427C304.669 648.927 305.122 648.221 305.443 647.307C305.765 646.384 305.926 645.318 305.926 644.107C305.926 642.897 305.765 641.835 305.443 640.921C305.122 639.998 304.669 639.287 304.085 638.788C303.509 638.28 302.845 638.022 302.092 638.014ZM335.43 643.473H339.213V645.148H335.43V657.107H333.449V634.484H335.43V643.473ZM329.107 644.666H320.881V649.947C323.124 649.947 325.032 649.892 326.606 649.782C328.189 649.672 329.793 649.465 331.418 649.16L331.621 650.811C329.937 651.124 328.278 651.34 326.645 651.458C325.011 651.568 323.031 651.632 320.703 651.648H318.9V643.016H327.127V638.242H318.85V636.592H329.107V644.666ZM358.688 642.939H343.225V635.322H345.205V641.34H358.688V642.939ZM361.074 647.637H340.406V646.012H361.074V647.637ZM358.814 656.498H343.098V649.947H345.078V654.848H358.814V656.498ZM388.141 647.713H386.135V641.822H381.564V640.146H386.135V634.484H388.141V647.713ZM388.141 656.752H373.389V648.83H388.141V656.752ZM375.369 655.127H386.186V650.43H375.369V655.127ZM377.273 638.496C377.273 639.461 377.506 640.4 377.972 641.314C378.437 642.229 379.093 643.045 379.939 643.765C380.786 644.476 381.751 645.021 382.834 645.402L381.793 646.977C380.532 646.52 379.423 645.842 378.467 644.945C377.519 644.04 376.799 642.999 376.309 641.822C375.818 643.126 375.073 644.272 374.074 645.263C373.076 646.253 371.908 646.993 370.57 647.484L369.529 645.91C370.63 645.512 371.616 644.937 372.487 644.184C373.359 643.422 374.04 642.55 374.531 641.568C375.022 640.578 375.268 639.554 375.268 638.496V637.607H370.164V635.957H382.326V637.607H377.273V638.496ZM411.246 657.057H409.316V634.484H411.246V657.057ZM406.701 655.914H404.797V644.945H401.89C401.822 646.401 401.581 647.666 401.166 648.741C400.751 649.808 400.188 650.633 399.478 651.217C398.767 651.792 397.95 652.08 397.027 652.08C396.054 652.08 395.199 651.763 394.463 651.128C393.735 650.485 393.172 649.571 392.774 648.386C392.377 647.201 392.178 645.817 392.178 644.234C392.178 642.652 392.377 641.268 392.774 640.083C393.172 638.898 393.735 637.988 394.463 637.354C395.199 636.71 396.054 636.389 397.027 636.389C397.933 636.389 398.737 636.668 399.439 637.227C400.142 637.785 400.701 638.585 401.115 639.626C401.538 640.667 401.792 641.89 401.877 643.295H404.797V634.967H406.701V655.914ZM397.027 638.268C396.418 638.268 395.889 638.509 395.44 638.991C394.992 639.474 394.645 640.168 394.399 641.073C394.162 641.97 394.048 643.024 394.057 644.234C394.048 645.445 394.162 646.498 394.399 647.396C394.645 648.293 394.992 648.982 395.44 649.465C395.897 649.947 396.426 650.184 397.027 650.176C397.628 650.184 398.153 649.947 398.602 649.465C399.059 648.982 399.41 648.293 399.655 647.396C399.901 646.498 400.023 645.445 400.023 644.234C400.023 643.016 399.901 641.958 399.655 641.061C399.41 640.163 399.063 639.474 398.614 638.991C398.166 638.509 397.637 638.268 397.027 638.268ZM422.316 640.553C422.316 641.89 422.579 643.21 423.104 644.514C423.628 645.817 424.339 646.977 425.236 647.992C426.133 648.999 427.124 649.753 428.207 650.252L427.014 651.877C425.736 651.217 424.593 650.248 423.586 648.97C422.579 647.692 421.826 646.249 421.326 644.641C420.818 646.342 420.061 647.869 419.054 649.224C418.055 650.578 416.917 651.598 415.639 652.283L414.344 650.684C415.436 650.15 416.434 649.351 417.34 648.284C418.245 647.209 418.961 645.995 419.485 644.641C420.019 643.278 420.285 641.915 420.285 640.553V636.439H422.316V640.553ZM433.082 657.107H431.102V643.828H425.744V642.203H431.102V634.484H433.082V657.107ZM460.834 643.422H464.617V645.098H460.834V657.107H458.854V634.484H460.834V643.422ZM454.893 638.344H446.336V649.77C448.443 649.77 450.284 649.71 451.858 649.592C453.433 649.473 455.036 649.262 456.67 648.957L456.924 650.684C455.257 650.988 453.619 651.191 452.011 651.293C450.403 651.395 448.443 651.445 446.133 651.445H444.355V636.693H454.893V638.344ZM486.479 648.652H465.811V647.002H486.479V648.652ZM484.295 656.574H468.553V650.43H470.559V654.898H484.295V656.574ZM483.812 640.832H470.482V643.346H484.295V644.92H468.502V639.334H481.807V636.871H468.426V635.271H483.812V640.832ZM513.545 651.141H511.539V642.432H506.816C506.673 643.346 506.334 644.158 505.801 644.869C505.268 645.572 504.586 646.122 503.757 646.52C502.936 646.909 502.035 647.104 501.053 647.104C499.936 647.104 498.933 646.867 498.044 646.393C497.155 645.919 496.457 645.258 495.949 644.412C495.441 643.557 495.188 642.592 495.188 641.518C495.188 640.443 495.441 639.482 495.949 638.636C496.457 637.789 497.155 637.133 498.044 636.668C498.933 636.194 499.936 635.957 501.053 635.957C502.06 635.957 502.978 636.16 503.808 636.566C504.646 636.964 505.331 637.531 505.864 638.268C506.397 638.995 506.723 639.833 506.842 640.781H511.539V634.51H513.545V651.141ZM514.18 656.574H499.047V649.439H501.053V654.898H514.18V656.574ZM501.053 637.709C500.308 637.717 499.631 637.887 499.021 638.217C498.421 638.538 497.947 638.987 497.6 639.562C497.261 640.138 497.092 640.79 497.092 641.518C497.092 642.254 497.261 642.914 497.6 643.498C497.947 644.074 498.421 644.531 499.021 644.869C499.631 645.199 500.308 645.368 501.053 645.377C501.781 645.368 502.441 645.199 503.033 644.869C503.634 644.531 504.104 644.069 504.442 643.485C504.789 642.901 504.963 642.245 504.963 641.518C504.963 640.79 504.789 640.138 504.442 639.562C504.104 638.987 503.634 638.538 503.033 638.217C502.441 637.887 501.781 637.717 501.053 637.709ZM523.371 636.236C524.387 636.245 525.297 636.528 526.101 637.087C526.913 637.646 527.569 638.441 528.068 639.474C528.568 640.506 528.868 641.721 528.97 643.117H534.035V634.484H536.016V657.107H534.035V644.768H528.995C528.919 646.223 528.635 647.493 528.145 648.576C527.654 649.66 526.993 650.493 526.164 651.077C525.343 651.661 524.412 651.953 523.371 651.953C522.271 651.953 521.289 651.632 520.426 650.988C519.571 650.345 518.902 649.431 518.42 648.246C517.946 647.061 517.709 645.682 517.709 644.107C517.709 642.533 517.946 641.154 518.42 639.969C518.902 638.784 519.571 637.87 520.426 637.227C521.281 636.575 522.262 636.245 523.371 636.236ZM523.371 638.014C522.635 638.022 521.979 638.28 521.403 638.788C520.836 639.287 520.396 639.998 520.083 640.921C519.77 641.835 519.613 642.897 519.613 644.107C519.613 645.318 519.77 646.384 520.083 647.307C520.396 648.221 520.836 648.927 521.403 649.427C521.979 649.926 522.635 650.176 523.371 650.176C524.099 650.176 524.746 649.926 525.313 649.427C525.889 648.927 526.333 648.221 526.646 647.307C526.968 646.384 527.129 645.318 527.129 644.107C527.129 642.897 526.968 641.835 526.646 640.921C526.333 639.998 525.893 639.287 525.326 638.788C524.759 638.28 524.107 638.022 523.371 638.014ZM546.578 635.957C547.729 635.965 548.757 636.194 549.663 636.643C550.577 637.091 551.292 637.717 551.809 638.521C552.325 639.317 552.587 640.231 552.596 641.264C552.587 642.195 552.371 643.033 551.948 643.777C551.525 644.522 550.937 645.132 550.184 645.605C549.439 646.071 548.576 646.363 547.594 646.481V650.328C549.997 650.21 552.062 650.04 553.789 649.82L553.916 651.318C551.995 651.64 549.968 651.86 547.835 651.979C545.702 652.097 543.489 652.156 541.195 652.156H539.824L539.494 650.48C542.169 650.464 544.2 650.434 545.588 650.392V646.481C544.589 646.363 543.709 646.071 542.947 645.605C542.186 645.14 541.593 644.535 541.17 643.79C540.755 643.037 540.552 642.195 540.561 641.264C540.552 640.231 540.802 639.317 541.31 638.521C541.826 637.717 542.541 637.091 543.455 636.643C544.369 636.194 545.41 635.965 546.578 635.957ZM546.578 637.684C545.799 637.684 545.097 637.836 544.471 638.141C543.853 638.445 543.37 638.868 543.023 639.41C542.676 639.952 542.507 640.57 542.516 641.264C542.507 641.958 542.676 642.576 543.023 643.117C543.37 643.659 543.853 644.082 544.471 644.387C545.097 644.691 545.799 644.844 546.578 644.844C547.348 644.844 548.038 644.691 548.647 644.387C549.265 644.082 549.748 643.659 550.095 643.117C550.45 642.576 550.632 641.958 550.641 641.264C550.632 640.57 550.45 639.952 550.095 639.41C549.748 638.868 549.265 638.445 548.647 638.141C548.038 637.836 547.348 637.684 546.578 637.684ZM557.217 643.803H560.898V645.529H557.217V657.057H555.236V634.484H557.217V643.803ZM576.285 641.848C576.285 643.033 576.526 644.213 577.009 645.39C577.491 646.558 578.16 647.611 579.015 648.551C579.878 649.49 580.847 650.218 581.922 650.734L580.754 652.283C579.518 651.682 578.426 650.802 577.479 649.643C576.539 648.475 575.832 647.159 575.358 645.694C574.868 647.26 574.123 648.665 573.124 649.909C572.134 651.145 570.995 652.072 569.709 652.689L568.566 651.141C569.658 650.633 570.64 649.892 571.512 648.919C572.392 647.946 573.082 646.845 573.581 645.618C574.089 644.382 574.347 643.126 574.355 641.848V640.045H569.176V638.42H574.33V634.916H576.336V638.42H581.414V640.045H576.285V641.848ZM586.238 643.752H590.021V645.453H586.238V657.057H584.258V634.484H586.238V643.752ZM609.928 646.291H607.947V643.396H602.615V645.377H592.383V635.551H594.363V638.801H600.66V635.551H602.615V637.734H607.947V634.484H609.928V646.291ZM609.928 652.689H597.334V655.152H610.791V656.752H595.354V651.166H607.947V648.982H595.303V647.383H609.928V652.689ZM600.66 643.752V640.375H594.363V643.752H600.66ZM607.947 641.822V639.283H602.615V641.822H607.947ZM631.23 644.107H634.836V645.783H631.23V657.057H629.225V634.484H631.23V644.107ZM613.432 651.039C616.089 651.039 618.163 651.014 619.652 650.963V648.462C618.781 648.36 618.015 648.132 617.354 647.776C616.703 647.412 616.199 646.943 615.844 646.367C615.497 645.783 615.327 645.123 615.336 644.387C615.327 643.549 615.543 642.817 615.983 642.19C616.432 641.556 617.058 641.065 617.862 640.718C618.675 640.371 619.61 640.197 620.668 640.197C621.709 640.197 622.632 640.371 623.436 640.718C624.248 641.065 624.879 641.556 625.327 642.19C625.784 642.817 626.017 643.549 626.025 644.387C626.017 645.123 625.831 645.783 625.467 646.367C625.103 646.943 624.591 647.412 623.931 647.776C623.279 648.14 622.521 648.373 621.658 648.475V650.887C624.062 650.768 626.127 650.582 627.854 650.328L627.98 651.852C625.797 652.224 623.554 652.465 621.252 652.575C618.95 652.685 616.453 652.74 613.762 652.74L613.432 651.039ZM627.447 638.877H613.838V637.252H619.652V634.535H621.658V637.252H627.447V638.877ZM620.668 641.746C619.982 641.746 619.377 641.856 618.853 642.076C618.328 642.296 617.917 642.609 617.621 643.016C617.333 643.413 617.189 643.87 617.189 644.387C617.189 644.903 617.333 645.36 617.621 645.758C617.909 646.147 618.315 646.448 618.84 646.659C619.373 646.862 619.982 646.96 620.668 646.951C621.345 646.96 621.946 646.862 622.471 646.659C622.995 646.448 623.402 646.147 623.689 645.758C623.977 645.36 624.121 644.903 624.121 644.387C624.121 643.87 623.977 643.413 623.689 643.016C623.402 642.609 622.995 642.296 622.471 642.076C621.946 641.856 621.345 641.746 620.668 641.746ZM654.818 647.484H652.812V634.51H654.818V647.484ZM636.258 645.275C638.771 645.275 640.93 645.246 642.732 645.187V642.762H638.314V635.627H649.029V637.277H640.32V641.162H649.232V642.762H644.738V645.11C646.964 645 649.029 644.818 650.934 644.564L651.061 646.012C648.86 646.384 646.566 646.63 644.18 646.748C641.793 646.867 639.254 646.926 636.562 646.926L636.258 645.275ZM641.92 650.912H652.863V648.5H654.818V656.752H639.939V648.5H641.92V650.912ZM652.863 655.127V652.461H641.92V655.127H652.863ZM677.264 657.057H675.283V634.484H677.264V657.057ZM662.08 649.516C665.897 649.499 669.494 649.135 672.871 648.424L673.15 650.125C671.229 650.523 669.359 650.811 667.539 650.988C665.719 651.158 663.857 651.242 661.953 651.242H660.125V636.719H662.08V649.516ZM698.592 643.422H702.375V645.098H698.592V657.107H696.611V634.484H698.592V643.422ZM692.65 638.344H684.094V649.77C686.201 649.77 688.042 649.71 689.616 649.592C691.19 649.473 692.794 649.262 694.428 648.957L694.682 650.684C693.014 650.988 691.377 651.191 689.769 651.293C688.16 651.395 686.201 651.445 683.891 651.445H682.113V636.693H692.65V638.344ZM705.98 655.152C705.684 655.152 705.409 655.08 705.155 654.937C704.91 654.784 704.711 654.581 704.559 654.327C704.415 654.073 704.347 653.798 704.355 653.502C704.347 653.214 704.415 652.948 704.559 652.702C704.711 652.448 704.91 652.249 705.155 652.105C705.409 651.953 705.684 651.877 705.98 651.877C706.268 651.877 706.535 651.953 706.78 652.105C707.034 652.249 707.233 652.448 707.377 652.702C707.529 652.948 707.605 653.214 707.605 653.502C707.605 653.798 707.529 654.073 707.377 654.327C707.233 654.581 707.034 654.784 706.78 654.937C706.535 655.08 706.268 655.152 705.98 655.152Z" fill="#2C2C2C"/>
<defs>
<linearGradient id="paint0_linear_553_6635" x1="24.9851" y1="80.7088" x2="722.984" y2="154.095" gradientUnits="userSpaceOnUse">
<stop stop-color="#FF577C"/>
<stop offset="1" stop-color="#66B8FB"/>
</linearGradient>
</defs>
</svg>
