<svg width="716" height="270" viewBox="0 0 716 270" fill="none" xmlns="http://www.w3.org/2000/svg">
<path d="M1.88672 27V12.1523H4.15625V14.4219H4.32031C4.86719 12.918 6.39844 11.9062 8.14844 11.9062C8.50391 11.9062 9.10547 11.9336 9.37891 11.9609V14.3398C9.21484 14.2852 8.55859 14.1758 7.95703 14.1758C5.82422 14.1758 4.23828 15.6523 4.23828 17.6484V27H1.88672ZM17.2539 27.3008C13.207 27.3008 10.4727 24.2656 10.4727 19.6445C10.4727 15.0234 13.207 11.9609 17.2539 11.9609C21.2734 11.9609 23.9805 15.0234 23.9805 19.6445C23.9805 24.2656 21.2734 27.3008 17.2539 27.3008ZM17.2539 25.2227C20.2344 25.2227 21.6289 22.5977 21.6289 19.6445C21.6289 16.6914 20.2344 14.0391 17.2539 14.0391C14.2188 14.0391 12.8242 16.6914 12.8242 19.6445C12.8242 22.5977 14.2188 25.2227 17.2539 25.2227ZM27.3711 27V7.20312H29.7227V14.5039H29.9141C30.4336 13.7109 31.3086 11.9609 34.207 11.9609C37.9258 11.9609 40.5508 14.9141 40.5508 19.6172C40.5508 24.3203 37.9258 27.3008 34.2344 27.3008C31.3906 27.3008 30.4336 25.5508 29.9141 24.7305H29.6406V27H27.3711ZM29.668 19.5625C29.668 22.8984 31.1719 25.1953 33.8789 25.1953C36.6953 25.1953 38.1719 22.7344 38.1719 19.5625C38.1719 16.4727 36.75 14.0664 33.8789 14.0664C31.1445 14.0664 29.668 16.2812 29.668 19.5625ZM49.6836 27.3008C45.6367 27.3008 42.9023 24.2656 42.9023 19.6445C42.9023 15.0234 45.6367 11.9609 49.6836 11.9609C53.7031 11.9609 56.4102 15.0234 56.4102 19.6445C56.4102 24.2656 53.7031 27.3008 49.6836 27.3008ZM49.6836 25.2227C52.6641 25.2227 54.0586 22.5977 54.0586 19.6445C54.0586 16.6914 52.6641 14.0391 49.6836 14.0391C46.6484 14.0391 45.2539 16.6914 45.2539 19.6445C45.2539 22.5977 46.6484 25.2227 49.6836 25.2227ZM65.9805 12.1523V14.1211H62.8633V22.7344C62.8633 24.6484 63.793 24.9492 64.8047 24.9492C65.2422 24.9492 65.8438 24.9219 66.1992 24.8945V27.082C65.8438 27.1367 65.2422 27.1914 64.5586 27.1914C62.5898 27.1914 60.4844 25.9609 60.4844 23.3359V14.1211H58.2422V12.1523H60.4844V8.59766H62.8633V12.1523H65.9805ZM74.9219 27.3008C70.875 27.3008 68.1406 24.2656 68.1406 19.6445C68.1406 15.0234 70.875 11.9609 74.9219 11.9609C78.9414 11.9609 81.6484 15.0234 81.6484 19.6445C81.6484 24.2656 78.9414 27.3008 74.9219 27.3008ZM74.9219 25.2227C77.9023 25.2227 79.2969 22.5977 79.2969 19.6445C79.2969 16.6914 77.9023 14.0391 74.9219 14.0391C71.8867 14.0391 70.4922 16.6914 70.4922 19.6445C70.4922 22.5977 71.8867 25.2227 74.9219 25.2227Z" fill="#8D8D8D"/>
<path d="M3.17969 62.8906H8.9375L18.7773 86.9961H19.1641L29.0039 62.8906H34.7617V94H30.25V71.5273H29.9492L20.8398 93.957H17.1016L7.94922 71.4844H7.69141V94H3.17969V62.8906ZM39.6602 87.4258C39.6602 82.0977 44.1719 80.7227 48.3828 80.4219C49.9297 80.3145 53.4316 80.1211 54.5273 80.0781L54.4844 78.2305C54.4844 75.6094 52.8945 74.0625 49.7578 74.0625C47.0508 74.0625 45.418 75.3086 44.9453 77.0273H40.3906C40.8203 73.1602 44.4297 70.3672 49.9297 70.3672C53.625 70.3672 59.082 71.7422 59.082 78.4883V94H54.6133V90.8203H54.4414C53.5391 92.582 51.3906 94.5156 47.5234 94.5156C43.0977 94.5156 39.6602 91.9805 39.6602 87.4258ZM44.1289 87.4688C44.1289 89.7031 45.9766 90.8633 48.5547 90.8633C52.293 90.8633 54.5273 88.3711 54.5273 85.5781V83.4297L49.0273 83.8164C46.0195 84.0312 44.1289 85.1484 44.1289 87.4688ZM64.625 94V62.8906H69.2227V80.5078H69.6094L78.8477 70.668H84.3477L74.9375 80.6797L84.9922 94H79.3633L71.457 83.5156L69.2227 85.707V94H64.625ZM97.0234 94.4727C90.1484 94.4727 85.9375 89.7461 85.9375 82.4844C85.9375 75.3086 90.2344 70.3672 96.7227 70.3672C102.051 70.3672 107.078 73.6758 107.078 82.0977V83.7305H90.4922C90.6211 88.1562 93.2207 90.6914 97.0664 90.6914C99.6875 90.6914 101.363 89.5742 102.137 88.1562H106.777C105.746 91.9375 102.137 94.4727 97.0234 94.4727ZM90.5352 80.293H102.566C102.566 76.7266 100.289 74.1484 96.7656 74.1484C93.0918 74.1484 90.707 76.9844 90.5352 80.293ZM122.375 94V70.668H126.973V94H122.375ZM124.695 67.0586C123.105 67.0586 121.773 65.8555 121.773 64.3516C121.773 62.8477 123.105 61.6445 124.695 61.6445C126.242 61.6445 127.574 62.8477 127.574 64.3516C127.574 65.8555 126.242 67.0586 124.695 67.0586ZM143.473 70.668V74.3203H138.703V87.125C138.703 89.7461 140.035 90.2188 141.496 90.2617C142.141 90.2617 143.172 90.1758 143.816 90.1328V94.1289C143.172 94.2148 142.184 94.3008 140.938 94.3008C137.328 94.3008 134.105 92.3242 134.148 88.0703V74.3203H130.711V70.668H134.148V65.082H138.703V70.668H143.473ZM169.812 70.668V74.3203H164.785V94H160.188V74.3203H156.578V70.668H160.188V67.9609C160.188 63.793 162.852 61.4297 167.148 61.4297C168.266 61.4297 169.383 61.5586 170.285 61.7305V65.5547C169.426 65.4258 168.781 65.3828 168.352 65.3828C165.902 65.3828 164.785 66.3711 164.785 68.6484V70.668H169.812ZM188.805 84.2891V70.668H193.359V94H188.891V89.9609H188.633C187.559 92.4531 185.152 94.3008 181.672 94.3008C177.16 94.3008 173.98 91.293 173.98 85.4922V70.668H178.578V84.9336C178.578 88.1133 180.512 90.1328 183.305 90.1328C185.84 90.1328 188.805 88.2852 188.805 84.2891ZM203.543 80.1641V94H198.945V70.668H203.371V74.4922H203.629C204.746 72 207.023 70.3672 210.504 70.3672C215.316 70.3672 218.453 73.375 218.453 79.1758V94H213.898V79.7344C213.898 76.3398 212.051 74.3203 208.957 74.3203C205.82 74.3203 203.543 76.4258 203.543 80.1641ZM239.809 94L232.977 70.668H237.703L242.258 87.7695H242.516L247.07 70.668H251.797L256.309 87.6836H256.566L261.078 70.668H265.805L258.973 94H254.289L249.562 77.1992H249.219L244.535 94H239.809ZM269.586 94V70.668H274.184V94H269.586ZM271.906 67.0586C270.316 67.0586 268.984 65.8555 268.984 64.3516C268.984 62.8477 270.316 61.6445 271.906 61.6445C273.453 61.6445 274.785 62.8477 274.785 64.3516C274.785 65.8555 273.453 67.0586 271.906 67.0586ZM290.684 70.668V74.3203H285.914V87.125C285.914 89.7461 287.246 90.2188 288.707 90.2617C289.352 90.2617 290.383 90.1758 291.027 90.1328V94.1289C290.383 94.2148 289.395 94.3008 288.148 94.3008C284.539 94.3008 281.316 92.3242 281.359 88.0703V74.3203H277.922V70.668H281.359V65.082H285.914V70.668H290.684ZM300.266 80.1641V94H295.668V62.8906H300.18V74.4922H300.48C301.598 71.957 303.746 70.3672 307.398 70.3672C312.211 70.3672 315.391 73.332 315.391 79.1758V94H310.793V79.7344C310.793 76.2969 308.945 74.3203 305.852 74.3203C302.629 74.3203 300.266 76.4258 300.266 80.1641ZM331.676 94V70.668H336.102V74.4922H336.359C337.348 71.8711 339.625 70.3672 342.719 70.3672C345.812 70.3672 348.004 71.9141 348.992 74.4922H349.25C350.367 71.957 352.859 70.3672 356.254 70.3672C360.465 70.3672 363.473 73.0312 363.473 78.3594V94H358.875V78.7891C358.875 75.6523 356.898 74.3203 354.492 74.3203C351.527 74.3203 349.852 76.3398 349.852 79.1328V94H345.297V78.5312C345.297 75.9961 343.535 74.3203 341.043 74.3203C338.465 74.3203 336.273 76.4688 336.273 79.6055V94H331.676ZM370.992 102.766C370.047 102.766 369.145 102.723 368.543 102.637V98.8125C369.059 98.8555 369.961 98.8984 370.605 98.8984C372.023 98.8984 373.227 98.7695 374.301 95.8477L374.859 94.3008L366.309 70.668H371.207L377.094 88.7578H377.352L383.238 70.668H388.18L378.555 97.0938C377.223 100.789 374.816 102.766 370.992 102.766ZM413.789 70.668V74.3203H408.762V94H404.164V74.3203H400.555V70.668H404.164V67.9609C404.164 63.793 406.828 61.4297 411.125 61.4297C412.242 61.4297 413.359 61.5586 414.262 61.7305V65.5547C413.402 65.4258 412.758 65.3828 412.328 65.3828C409.879 65.3828 408.762 66.3711 408.762 68.6484V70.668H413.789ZM416.152 87.4258C416.152 82.0977 420.664 80.7227 424.875 80.4219C426.422 80.3145 429.924 80.1211 431.02 80.0781L430.977 78.2305C430.977 75.6094 429.387 74.0625 426.25 74.0625C423.543 74.0625 421.91 75.3086 421.438 77.0273H416.883C417.312 73.1602 420.922 70.3672 426.422 70.3672C430.117 70.3672 435.574 71.7422 435.574 78.4883V94H431.105V90.8203H430.934C430.031 92.582 427.883 94.5156 424.016 94.5156C419.59 94.5156 416.152 91.9805 416.152 87.4258ZM420.621 87.4688C420.621 89.7031 422.469 90.8633 425.047 90.8633C428.785 90.8633 431.02 88.3711 431.02 85.5781V83.4297L425.52 83.8164C422.512 84.0312 420.621 85.1484 420.621 87.4688ZM460.281 70.668L451.816 94H446.875L438.41 70.668H443.352L449.238 88.5859H449.453L455.34 70.668H460.281ZM473.086 94.4727C466.469 94.4727 462.172 89.6602 462.172 82.4414C462.172 75.1797 466.469 70.3672 473.086 70.3672C479.66 70.3672 483.957 75.1797 483.957 82.4414C483.957 89.6602 479.66 94.4727 473.086 94.4727ZM473.086 90.6484C477.297 90.6484 479.316 86.9102 479.316 82.4414C479.316 77.9727 477.297 74.1484 473.086 74.1484C468.789 74.1484 466.77 77.9727 466.77 82.4414C466.77 86.9102 468.789 90.6484 473.086 90.6484ZM488.469 94V70.668H492.895V74.3633H493.152C494.012 71.8711 496.332 70.3242 499.082 70.3242C499.641 70.3242 500.543 70.3672 501.016 70.4102V74.793C500.629 74.707 499.555 74.5352 498.609 74.5352C495.43 74.5352 493.066 76.7266 493.066 79.7773V94H488.469ZM504.453 94V70.668H509.051V94H504.453ZM506.773 67.0586C505.184 67.0586 503.852 65.8555 503.852 64.3516C503.852 62.8477 505.184 61.6445 506.773 61.6445C508.32 61.6445 509.652 62.8477 509.652 64.3516C509.652 65.8555 508.32 67.0586 506.773 67.0586ZM525.551 70.668V74.3203H520.781V87.125C520.781 89.7461 522.113 90.2188 523.574 90.2617C524.219 90.2617 525.25 90.1758 525.895 90.1328V94.1289C525.25 94.2148 524.262 94.3008 523.016 94.3008C519.406 94.3008 516.184 92.3242 516.227 88.0703V74.3203H512.789V70.668H516.227V65.082H520.781V70.668H525.551ZM539.816 94.4727C532.941 94.4727 528.73 89.7461 528.73 82.4844C528.73 75.3086 533.027 70.3672 539.516 70.3672C544.844 70.3672 549.871 73.6758 549.871 82.0977V83.7305H533.285C533.414 88.1562 536.014 90.6914 539.859 90.6914C542.48 90.6914 544.156 89.5742 544.93 88.1562H549.57C548.539 91.9375 544.93 94.4727 539.816 94.4727ZM533.328 80.293H545.359C545.359 76.7266 543.082 74.1484 539.559 74.1484C535.885 74.1484 533.5 76.9844 533.328 80.293ZM585.191 70.668L576.727 94H571.785L563.32 70.668H568.262L574.148 88.5859H574.363L580.25 70.668H585.191ZM588.93 94V70.668H593.527V94H588.93ZM591.25 67.0586C589.66 67.0586 588.328 65.8555 588.328 64.3516C588.328 62.8477 589.66 61.6445 591.25 61.6445C592.797 61.6445 594.129 62.8477 594.129 64.3516C594.129 65.8555 592.797 67.0586 591.25 67.0586ZM607.836 94.4727C602.207 94.4727 598.082 89.918 598.082 82.3984C598.082 74.793 602.25 70.3672 607.879 70.3672C612.219 70.3672 613.809 72.9883 614.625 74.4492H614.84V62.8906H619.438V94H614.969V90.3477H614.625C613.766 91.8945 612.09 94.4727 607.836 94.4727ZM608.867 90.5625C612.777 90.5625 614.969 87.2109 614.969 82.3125C614.969 77.457 612.82 74.2773 608.867 74.2773C604.785 74.2773 602.766 77.7148 602.766 82.3125C602.766 86.9961 604.871 90.5625 608.867 90.5625ZM635.465 94.4727C628.59 94.4727 624.379 89.7461 624.379 82.4844C624.379 75.3086 628.676 70.3672 635.164 70.3672C640.492 70.3672 645.52 73.6758 645.52 82.0977V83.7305H628.934C629.062 88.1562 631.662 90.6914 635.508 90.6914C638.129 90.6914 639.805 89.5742 640.578 88.1562H645.219C644.188 91.9375 640.578 94.4727 635.465 94.4727ZM628.977 80.293H641.008C641.008 76.7266 638.73 74.1484 635.207 74.1484C631.533 74.1484 629.148 76.9844 628.977 80.293ZM659.957 94.4727C653.34 94.4727 649.043 89.6602 649.043 82.4414C649.043 75.1797 653.34 70.3672 659.957 70.3672C666.531 70.3672 670.828 75.1797 670.828 82.4414C670.828 89.6602 666.531 94.4727 659.957 94.4727ZM659.957 90.6484C664.168 90.6484 666.188 86.9102 666.188 82.4414C666.188 77.9727 664.168 74.1484 659.957 74.1484C655.66 74.1484 653.641 77.9727 653.641 82.4414C653.641 86.9102 655.66 90.6484 659.957 90.6484ZM681.055 62.8906L680.668 85.0195H676.414L676.027 62.8906H681.055ZM678.562 94.3008C676.887 94.3008 675.469 92.9258 675.512 91.25C675.469 89.5742 676.887 88.1992 678.562 88.1992C680.195 88.1992 681.613 89.5742 681.613 91.25C681.613 92.9258 680.195 94.3008 678.562 94.3008Z" fill="black"/>
<path d="M1.88672 200.578V180.152H4.15625V182.504H4.42969C4.92188 181.711 5.85156 179.961 8.72266 179.961C12.4414 179.961 15.0391 182.914 15.0391 187.617C15.0391 192.32 12.4414 195.301 8.75 195.301C5.90625 195.301 4.92188 193.551 4.42969 192.73H4.23828V200.578H1.88672ZM4.18359 187.562C4.18359 190.898 5.6875 193.195 8.42188 193.195C11.2383 193.195 12.6875 190.734 12.6875 187.562C12.6875 184.473 11.2656 182.066 8.42188 182.066C5.63281 182.066 4.18359 184.281 4.18359 187.562ZM18.1016 195V180.152H20.3711V182.422H20.5352C21.082 180.918 22.6133 179.906 24.3633 179.906C24.7188 179.906 25.3203 179.934 25.5938 179.961V182.34C25.4297 182.285 24.7734 182.176 24.1719 182.176C22.0391 182.176 20.4531 183.652 20.4531 185.648V195H18.1016ZM33.6328 195.301C29.3398 195.301 26.6875 192.266 26.6875 187.699C26.6875 183.133 29.3672 179.961 33.4141 179.961C36.5312 179.961 39.8125 181.875 39.8125 187.371V188.355H29.0391C29.1484 191.5 30.9805 193.223 33.6328 193.223C35.4102 193.223 36.5312 192.457 37.0781 191.527H39.5938C38.8828 193.77 36.6953 195.301 33.6328 195.301ZM29.0664 186.359H37.4336C37.4336 183.871 35.8477 182.039 33.4141 182.039C30.8438 182.039 29.2031 184.062 29.0664 186.359ZM49.3555 180.152V182.121H46.2383V190.734C46.2383 192.648 47.168 192.949 48.1797 192.949C48.6172 192.949 49.2188 192.922 49.5742 192.895V195.082C49.2188 195.137 48.6172 195.191 47.9336 195.191C45.9648 195.191 43.8594 193.961 43.8594 191.336V182.121H41.6172V180.152H43.8594V176.598H46.2383V180.152H49.3555ZM58.4609 195.301C54.168 195.301 51.5156 192.266 51.5156 187.699C51.5156 183.133 54.1953 179.961 58.2422 179.961C61.3594 179.961 64.6406 181.875 64.6406 187.371V188.355H53.8672C53.9766 191.5 55.8086 193.223 58.4609 193.223C60.2383 193.223 61.3594 192.457 61.9062 191.527H64.4219C63.7109 193.77 61.5234 195.301 58.4609 195.301ZM53.8945 186.359H62.2617C62.2617 183.871 60.6758 182.039 58.2422 182.039C55.6719 182.039 54.0312 184.062 53.8945 186.359ZM70.0547 186.086V195H67.7031V180.152H69.9727V182.477H70.1641C70.875 180.973 72.2422 179.961 74.5117 179.961C77.5195 179.961 79.5156 181.793 79.5156 185.566V195H77.1641V185.73C77.1641 183.434 75.9062 182.066 73.8008 182.066C71.6406 182.066 70.0547 183.516 70.0547 186.086ZM88.8945 195.301C85.2031 195.301 82.5781 192.32 82.5781 187.617C82.5781 182.914 85.2031 179.961 88.9219 179.961C91.793 179.961 92.7227 181.711 93.2148 182.504H93.3789V175.203H95.7578V195H93.4609V192.73H93.2148C92.6953 193.551 91.7383 195.301 88.8945 195.301ZM89.2227 193.195C91.9297 193.195 93.4609 190.898 93.4609 187.562C93.4609 184.281 91.9844 182.066 89.2227 182.066C86.3789 182.066 84.957 184.473 84.957 187.562C84.957 190.734 86.4062 193.195 89.2227 193.195ZM99.1211 190.789C99.1211 187.371 102.129 186.605 104.699 186.414C105.643 186.346 108.049 186.223 108.719 186.195V184.992C108.719 183.105 107.598 182.012 105.355 182.012C103.469 182.012 102.348 182.887 102.02 184.008H99.5586C99.8594 181.629 102.184 179.961 105.465 179.961C107.406 179.961 111.043 180.535 111.043 185.211V195H108.719V192.977H108.609C108.117 193.988 106.75 195.355 104.18 195.355C101.363 195.355 99.1211 193.688 99.1211 190.789ZM101.473 190.898C101.473 192.457 102.785 193.25 104.59 193.25C107.242 193.25 108.719 191.473 108.719 189.613V188.109L104.973 188.383C102.84 188.52 101.473 189.285 101.473 190.898ZM114.816 195V180.152H117.086V182.422H117.25C117.797 180.918 119.328 179.906 121.078 179.906C121.434 179.906 122.035 179.934 122.309 179.961V182.34C122.145 182.285 121.488 182.176 120.887 182.176C118.754 182.176 117.168 183.652 117.168 185.648V195H114.816ZM129.719 195.301C126.027 195.301 123.402 192.32 123.402 187.617C123.402 182.914 126.027 179.961 129.746 179.961C132.617 179.961 133.547 181.711 134.039 182.504H134.203V175.203H136.582V195H134.285V192.73H134.039C133.52 193.551 132.562 195.301 129.719 195.301ZM130.047 193.195C132.754 193.195 134.285 190.898 134.285 187.562C134.285 184.281 132.809 182.066 130.047 182.066C127.203 182.066 125.781 184.473 125.781 187.562C125.781 190.734 127.23 193.195 130.047 193.195Z" fill="#8D8D8D"/>
<path d="M3.03516 260V230.305H7.54688V244.455H7.91602L20.3438 230.305H26.0039L14.0273 243.676L26.0449 260H20.5898L11.0332 246.752L7.54688 250.771V260H3.03516ZM54.0176 245.152C54.0176 254.627 48.3164 260.41 40.6465 260.41C32.8945 260.41 27.2344 254.627 27.2344 245.152C27.2344 235.637 32.8945 229.895 40.6465 229.895C48.3164 229.895 54.0176 235.637 54.0176 245.152ZM49.5469 245.152C49.5469 237.934 45.7324 234.037 40.6465 234.037C35.5195 234.037 31.7051 237.934 31.7051 245.152C31.7051 252.371 35.5195 256.268 40.6465 256.268C45.7324 256.268 49.5469 252.371 49.5469 245.152ZM83.0566 230.305V260H78.9141L63.8613 238.303H63.6152V260H59.1035V230.305H63.2871L78.3398 252.043H78.627V230.305H83.0566ZM114.926 245.152C114.926 254.627 109.225 260.41 101.555 260.41C93.8027 260.41 88.1426 254.627 88.1426 245.152C88.1426 235.637 93.8027 229.895 101.555 229.895C109.225 229.895 114.926 235.637 114.926 245.152ZM110.455 245.152C110.455 237.934 106.641 234.037 101.555 234.037C96.4277 234.037 92.6133 237.934 92.6133 245.152C92.6133 252.371 96.4277 256.268 101.555 256.268C106.641 256.268 110.455 252.371 110.455 245.152ZM125.467 260L117.223 230.305H121.98L127.764 253.273H128.01L134.039 230.305H138.715L144.744 253.273H144.99L150.773 230.305H155.531L147.287 260H142.734L136.5 237.811H136.254L130.02 260H125.467ZM168.574 229.074C174.234 229.074 178.459 232.643 178.459 237.811C178.459 242.363 175.178 245.665 170.543 246.383V252.207C173.804 252.063 177.064 251.817 180.1 251.428L180.387 254.34C172.635 255.693 164.062 255.734 157.705 255.693L157.09 252.494C159.94 252.474 163.222 252.453 166.646 252.371V246.383C161.889 245.706 158.648 242.384 158.689 237.811C158.648 232.643 162.791 229.074 168.574 229.074ZM168.574 232.355C165.047 232.396 162.463 234.529 162.463 237.811C162.463 241.092 165.047 243.266 168.574 243.225C172.061 243.266 174.604 241.092 174.645 237.811C174.604 234.529 172.061 232.396 168.574 232.355ZM186.211 226.736V241.666H191.871V244.947H186.211V263.486H182.314V226.736H186.211ZM232.969 226.736V236.252H238.301V239.574H232.969V248.885H229.072V226.736H232.969ZM232.969 250.812V263.035H209.508V250.812H232.969ZM213.322 253.889V259.877H229.113V253.889H213.322ZM226.037 230.469V233.586H204.135V230.469H213.158V226.449H217.055V230.469H226.037ZM215.086 235.186C220.377 235.186 223.986 237.811 223.986 241.748C223.986 245.727 220.377 248.311 215.086 248.352C209.713 248.311 206.145 245.727 206.145 241.748C206.145 237.811 209.713 235.186 215.086 235.186ZM215.086 238.18C211.969 238.139 209.877 239.533 209.918 241.748C209.877 244.045 211.969 245.398 215.086 245.398C218.203 245.398 220.295 244.045 220.336 241.748C220.295 239.533 218.203 238.139 215.086 238.18ZM249.498 231.084C249.457 239.328 248.432 247.818 243.305 255.037L240.27 253.314C244.556 247.572 245.848 241.215 246.135 234.283H241.131V231.084H249.498ZM257.66 231.084C257.66 234.181 257.599 237.564 257.209 240.969H261.516V227.68H265.207V261.682H261.516V244.127H256.758C255.917 248.7 254.379 253.232 251.549 257.252L248.514 255.488C253.271 249.11 254.133 241.379 254.297 234.283H250.605V231.084H257.66ZM272.18 226.736V263.486H268.447V226.736H272.18ZM305.32 226.736V241.625H311.227V244.865H305.32V263.486H301.465V226.736H305.32ZM298.266 232.479V235.678H276.486V232.479H285.551V227.229H289.447V232.479H298.266ZM287.52 238.385C292.77 238.385 296.625 241.912 296.666 246.916C296.625 251.961 292.77 255.447 287.52 255.488C282.229 255.447 278.373 251.961 278.373 246.916C278.373 241.912 282.229 238.385 287.52 238.385ZM287.52 241.584C284.402 241.584 282.064 243.758 282.105 246.916C282.064 250.115 284.402 252.248 287.52 252.207C290.637 252.248 292.934 250.115 292.934 246.916C292.934 243.758 290.637 241.584 287.52 241.584ZM342.727 237.482V240.6H317.42V228.049H321.275V237.482H342.727ZM346.582 245.234V248.352H312.949V245.234H346.582ZM342.973 259.426V262.625H317.133V251.838H321.029V259.426H342.973ZM369.182 249.541V253.273H386.039V249.541H389.895V263.035H365.285V249.541H369.182ZM369.182 259.877H386.039V256.268H369.182V259.877ZM389.895 226.777V247.859H385.998V226.777H389.895ZM359.584 242.609C366.516 242.65 375.662 242.65 383.66 241.584L383.906 244.373C380.748 244.906 377.487 245.255 374.268 245.439V250.566H370.412V245.645C366.7 245.809 363.173 245.809 360.076 245.809L359.584 242.609ZM373.98 229.361C373.98 232.93 377.385 235.965 382.84 237.113L381.117 240.025C376.852 239.103 373.652 236.949 372.053 234.037C370.453 237.175 367.254 239.574 362.865 240.641L361.102 237.605C366.639 236.375 370.002 233.135 370.002 229.361V227.639H373.98V229.361ZM425.578 230.264V233.873C425.578 238.426 425.578 243.512 424.184 251.018L420.246 250.607C421.682 243.512 421.682 238.303 421.682 233.873V233.422H399.369V230.264H425.578ZM429.352 255.283V258.523H395.842V255.283H408.598V242.322H412.453V255.283H429.352ZM472.172 226.736V240.846H476.766V244.127H472.172V263.486H468.316V226.736H472.172ZM446.25 230.1V239.287H450.146V230.1H453.387V254.709H443.01V230.1H446.25ZM446.25 251.469H450.146V242.404H446.25V251.469ZM458.432 230.1V239.287H462.246V230.1H465.486V254.709H455.191V230.1H458.432ZM458.432 251.469H462.246V242.404H458.432V251.469ZM512.285 246.916V250.074H478.652V246.916H512.285ZM508.84 259.549V262.707H483.041V252.699H486.938V259.549H508.84ZM508.061 227.844V237.277H486.814V240.887H508.799V243.881H482.959V234.447H504.164V230.92H482.877V227.844H508.061ZM554.121 226.777V238.59H559.453V241.83H554.121V254.258H550.225V226.777H554.121ZM547.189 231.043V234.201H525.287V231.043H534.311V226.736H538.207V231.043H547.189ZM536.238 235.965C541.529 235.965 545.139 238.713 545.139 242.896C545.139 247.08 541.529 249.787 536.238 249.787C530.906 249.787 527.297 247.08 527.297 242.896C527.297 238.713 530.906 235.965 536.238 235.965ZM536.238 238.959C533.121 238.959 531.029 240.477 531.07 242.896C531.029 245.275 533.121 246.752 536.238 246.752C539.355 246.752 541.447 245.275 541.488 242.896C541.447 240.477 539.355 238.959 536.238 238.959ZM555.68 259.549V262.707H530.824V252.084H534.721V259.549H555.68ZM590.912 228.459V231.207C590.912 233.914 590.912 237.154 590.092 241.42H595.178V244.578H580.248V250.854H591.076V263.486H587.18V253.971H564.99V250.854H576.352V244.578H561.545V241.42H586.154C587.016 237.318 587.057 234.242 587.057 231.617H565.77V228.459H590.912ZM607.811 229.484C612.794 229.484 616.444 233.709 617.039 240.518H624.627V226.736H628.482V263.568H624.627V243.676H617.08C616.649 250.833 612.917 255.283 607.811 255.283C602.314 255.283 598.459 250.279 598.5 242.363C598.459 234.488 602.314 229.484 607.811 229.484ZM607.811 232.971C604.488 232.971 602.191 236.58 602.191 242.363C602.191 248.188 604.488 251.797 607.811 251.797C611.133 251.797 613.43 248.188 613.43 242.363C613.43 236.58 611.133 232.971 607.811 232.971ZM666.34 230.469V233.586H644.438V230.469H653.461V226.572H657.357V230.469H666.34ZM655.389 235.227C660.68 235.268 664.289 237.893 664.289 241.912C664.289 245.932 660.68 248.598 655.389 248.598C650.057 248.598 646.447 245.932 646.447 241.912C646.447 237.893 650.057 235.268 655.389 235.227ZM655.389 238.221C652.271 238.221 650.18 239.656 650.221 241.912C650.18 244.209 652.271 245.562 655.389 245.562C658.506 245.562 660.598 244.209 660.639 241.912C660.598 239.656 658.506 238.221 655.389 238.221ZM673.271 226.736V236.703H678.604V239.943H673.271V249.705H669.375V226.736H673.271ZM673.271 251.592V263.486H669.375V254.75H648.99V251.592H673.271ZM688.693 248.762V252.658H705.961V248.762H709.857V263.035H684.838V248.762H688.693ZM688.693 259.918H705.961V255.693H688.693V259.918ZM714.205 243.225V246.465H680.695V243.225H714.205ZM699.439 228.705C699.439 232.93 705.305 237.031 712.359 237.893L710.965 240.969C704.997 240.128 699.809 237.318 697.471 233.422C695.071 237.339 689.862 240.128 683.977 240.969L682.5 237.893C689.637 236.99 695.461 233.053 695.461 228.705V227.146H699.439V228.705Z" fill="black"/>
</svg>
