<svg width="832" height="787" viewBox="0 0 832 787" fill="none" xmlns="http://www.w3.org/2000/svg">
<rect width="468" height="428" fill="#FF577C"/>
<path d="M26.9629 56V34.7891H34.9316C39.7949 34.7891 42.3877 37.748 42.4023 41.8203C42.3877 45.8779 39.7656 48.8223 34.873 48.8223H30.7715V56H26.9629ZM30.7715 45.6875H34.3457C37.2168 45.6729 38.5059 44.0615 38.5059 41.8203C38.5059 39.5498 37.2168 37.9824 34.3457 37.9824H30.7715V45.6875ZM45.3027 56V40.0918H48.9355V42.7285H49.1113C49.6826 40.8975 51.2061 39.8574 53.0371 39.8574C53.4473 39.8574 54.0332 39.9014 54.3848 39.9453V43.4023C54.0479 43.2852 53.2715 43.1826 52.6562 43.168C50.5762 43.1826 49.0527 44.6182 49.0527 46.625V56H45.3027ZM56.6113 56V40.0918H60.3613V56H56.6113ZM56.3477 35.7852C56.3477 34.6719 57.3291 33.7637 58.5156 33.7637C59.7021 33.7637 60.6836 34.6719 60.6836 35.7852C60.6836 36.9131 59.7021 37.8213 58.5156 37.8359C57.3291 37.8213 56.3477 36.9131 56.3477 35.7852ZM63.9355 56V40.0918H67.5098V42.7871H67.7148C68.374 40.9707 69.9707 39.8867 72.0801 39.8867C74.2334 39.8867 75.7861 40.9854 76.3867 42.7871H76.5625C77.251 41.0293 79.0234 39.8867 81.3379 39.8867C84.2529 39.8867 86.3037 41.7617 86.2891 45.3066V56H82.5684V45.8926C82.5684 43.915 81.3672 43.0215 79.8438 43.0215C78.0127 43.0215 76.9434 44.2666 76.9434 46.0684V56H73.3105V45.7461C73.2959 44.0908 72.2119 43.0215 70.6152 43.0215C69.0039 43.0215 67.6855 44.3545 67.6855 46.332V56H63.9355ZM89.1309 51.5176C89.1309 47.9434 92.1045 46.9033 95.0488 46.7129C96.1621 46.625 98.4326 46.5225 99.1357 46.4932L99.1211 45.2188C99.1211 43.6367 98.1104 42.7285 96.25 42.7285C94.5801 42.7285 93.5547 43.4902 93.2617 44.6328H89.6582C89.9219 41.9229 92.3535 39.8867 96.3379 39.8867C99.3555 39.8867 102.842 41.1318 102.842 45.3652V56H99.2676V53.8027H99.1504C98.4473 55.1504 96.9678 56.3223 94.4629 56.3223C91.4307 56.3223 89.1309 54.667 89.1309 51.5176ZM92.7344 51.4883C92.7344 52.8652 93.8623 53.5684 95.4297 53.5684C97.7002 53.5684 99.1504 52.0742 99.1504 50.2871L99.1357 48.9834C98.4619 49.0127 96.3818 49.1445 95.6348 49.2031C93.8623 49.3496 92.7344 50.0967 92.7344 51.4883ZM106.357 56V40.0918H109.99V42.7285H110.166C110.737 40.8975 112.261 39.8574 114.092 39.8574C114.502 39.8574 115.088 39.9014 115.439 39.9453V43.4023C115.103 43.2852 114.326 43.1826 113.711 43.168C111.631 43.1826 110.107 44.6182 110.107 46.625V56H106.357ZM120.42 61.9766C119.673 61.9619 118.97 61.9473 118.486 61.8887V58.9004C118.94 58.9443 119.57 58.9443 120.068 58.959C120.977 58.9443 121.738 58.8857 122.383 57.1719L122.705 56.3223L116.904 40.0918H120.859L124.551 52.1035H124.727L128.418 40.0918H132.373L125.986 57.9336C125.078 60.4678 123.408 61.9619 120.42 61.9766Z" fill="white"/>
<path d="M35.4004 301.789H38.623V316.818C38.6084 320.905 36.0596 323.293 32.1484 323.293C28.5449 323.293 25.8496 321.271 25.8496 317.668H29.043C29.0723 319.44 30.376 320.539 32.2363 320.539C34.2578 320.539 35.3857 319.265 35.4004 316.818V301.789ZM49.4043 323.322C44.8926 323.322 41.9482 320.041 41.9629 315.119C41.9482 310.168 44.8926 306.887 49.4043 306.887C53.8867 306.887 56.8164 310.168 56.8164 315.119C56.8164 320.041 53.8867 323.322 49.4043 323.322ZM45.0977 315.119C45.0977 318.151 46.4893 320.715 49.4043 320.715C52.2754 320.715 53.6523 318.151 53.6523 315.119C53.6523 312.072 52.2754 309.479 49.4043 309.465C46.4893 309.479 45.0977 312.072 45.0977 315.119ZM61.2695 328.977C60.625 328.962 59.9951 328.947 59.5996 328.889V326.281C59.9512 326.311 60.5664 326.325 61.0059 326.34C61.9727 326.325 62.7783 326.267 63.5254 324.26L63.9062 323.205L58.0762 307.092H61.416L65.4297 319.426H65.6055L69.6191 307.092H72.9883L66.4258 325.109C65.5029 327.629 63.8916 328.962 61.2695 328.977ZM83.125 307.092V309.582H79.6973V323H76.5625V309.582H74.1016V307.092H76.5625V305.246C76.5771 302.404 78.3936 300.793 81.3086 300.793C82.0557 300.793 82.832 300.881 83.4473 300.998V303.605C82.8613 303.518 82.4072 303.488 82.1289 303.488C80.4736 303.488 79.6973 304.162 79.6973 305.715V307.092H83.125ZM96.0742 316.379V307.092H99.1797V323H96.1328V320.246H95.957C95.2246 321.945 93.5986 323.205 91.2109 323.205C88.1348 323.205 85.9668 321.14 85.9668 317.199V307.092H89.1016V316.818C89.1016 318.986 90.4199 320.363 92.3242 320.363C94.0674 320.363 96.0742 319.089 96.0742 316.379ZM106.123 301.789V323H102.988V301.789H106.123ZM117.52 323V301.789H125.078C130.015 301.789 132.432 304.748 132.432 308.674C132.432 312.585 130 315.559 125.078 315.559H120.742V323H117.52ZM120.742 312.805H124.756C127.876 312.819 129.18 311.062 129.18 308.674C129.18 306.271 127.876 304.558 124.756 304.543H120.742V312.805ZM135.566 323V307.092H138.701V323H135.566ZM135.156 302.785C135.171 301.76 136.064 300.939 137.148 300.939C138.218 300.939 139.111 301.76 139.111 302.785C139.111 303.811 138.218 304.646 137.148 304.631C136.064 304.646 135.171 303.811 135.156 302.785ZM145.645 313.566V323H142.51V307.092H145.527V309.699H145.703C146.45 307.985 148.018 306.887 150.391 306.887C153.657 306.887 155.825 308.952 155.811 312.893V323H152.705V313.273C152.69 310.959 151.445 309.582 149.336 309.582C147.183 309.582 145.645 311.032 145.645 313.566ZM159.619 323V301.789H162.754V313.801H163.018L169.316 307.092H173.066L166.636 313.918L173.506 323H169.668L164.263 315.852L162.754 317.346V323H159.619Z" fill="white"/>
<path d="M26.7344 366.031H37.2578V368.258H29.3125V373.391H36.5078V375.594H29.3125V383H26.7344V366.031ZM40.1406 366.031H50.6641V368.258H42.7188V373.391H49.9141V375.594H42.7188V383H40.1406V366.031ZM59.0781 383.234C58.0234 383.234 57.0664 383.035 56.207 382.637C55.3477 382.23 54.6641 381.676 54.1562 380.973C53.6484 380.262 53.375 379.461 53.3359 378.57H55.8438C55.8906 379.047 56.0625 379.477 56.3594 379.859C56.6562 380.242 57.043 380.543 57.5195 380.762C57.9961 380.973 58.5156 381.078 59.0781 381.078C59.7578 381.078 60.3633 380.926 60.8945 380.621C61.4336 380.316 61.8555 379.898 62.1602 379.367C62.4648 378.828 62.6172 378.227 62.6172 377.562C62.6172 376.883 62.4609 376.273 62.1484 375.734C61.8359 375.188 61.4023 374.762 60.8477 374.457C60.293 374.145 59.6641 373.984 58.9609 373.977C57.5312 373.977 56.5391 374.477 55.9844 375.477H53.5469L54.6484 366.031H64.2578V368.234H56.7812L56.2188 372.992H56.3828C56.7422 372.648 57.2031 372.371 57.7656 372.16C58.3359 371.949 58.9375 371.844 59.5703 371.844C60.6172 371.844 61.5625 372.086 62.4062 372.57C63.2578 373.055 63.9219 373.727 64.3984 374.586C64.8828 375.445 65.125 376.414 65.125 377.492C65.125 378.594 64.8672 379.582 64.3516 380.457C63.8359 381.332 63.1172 382.016 62.1953 382.508C61.2812 382.992 60.2422 383.234 59.0781 383.234ZM76.0234 368.375V368.234H67.2812V366.031H78.6953V368.328L71.1484 383H68.4531L76.0234 368.375ZM89.9219 368.375V368.234H81.1797V366.031H92.5938V368.328L85.0469 383H82.3516L89.9219 368.375ZM106.914 371.562C106.773 370.852 106.496 370.242 106.082 369.734C105.668 369.219 105.152 368.828 104.535 368.562C103.926 368.297 103.258 368.164 102.531 368.164C101.547 368.164 100.668 368.414 99.8945 368.914C99.1211 369.406 98.5156 370.129 98.0781 371.082C97.6406 372.035 97.4219 373.18 97.4219 374.516C97.4219 375.852 97.6406 377 98.0781 377.961C98.5234 378.914 99.1289 379.637 99.8945 380.129C100.668 380.621 101.547 380.867 102.531 380.867C103.25 380.867 103.914 380.738 104.523 380.48C105.133 380.215 105.645 379.832 106.059 379.332C106.48 378.824 106.766 378.219 106.914 377.516L109.516 377.539C109.336 378.648 108.926 379.637 108.285 380.504C107.652 381.363 106.836 382.035 105.836 382.52C104.844 382.996 103.734 383.234 102.508 383.234C101.031 383.234 99.7148 382.883 98.5586 382.18C97.4023 381.477 96.4961 380.469 95.8398 379.156C95.1914 377.836 94.8672 376.289 94.8672 374.516C94.8672 372.742 95.1953 371.199 95.8516 369.887C96.5078 368.566 97.4141 367.555 98.5703 366.852C99.7266 366.148 101.039 365.797 102.508 365.797C103.703 365.797 104.797 366.027 105.789 366.488C106.781 366.941 107.602 367.602 108.25 368.469C108.898 369.336 109.32 370.367 109.516 371.562H106.914Z" fill="white"/>
<rect y="428" width="271" height="359" fill="#FF7D9A"/>
<path d="M34.7344 746V729.031H45.2578V731.258H37.3125V736.391H44.5078V738.594H37.3125V746H34.7344ZM48.1406 746V729.031H58.6641V731.258H50.7188V736.391H57.9141V738.594H50.7188V746H48.1406ZM61.8984 746L69.4688 731.375V731.234H60.7266V729.031H72.1406V731.328L64.5938 746H61.8984ZM80.4844 746H74.9766V729.031H80.6484C85.6406 729.031 88.6406 732.219 88.6406 737.492C88.6406 742.789 85.6406 746 80.4844 746ZM77.5547 743.75H80.3438C84.1875 743.75 86.0859 741.5 86.0859 737.492C86.0859 733.508 84.1875 731.281 80.4844 731.281H77.5547V743.75ZM97.1484 728.797C100.266 728.82 103.547 730.695 103.547 736.906C103.547 742.859 100.992 746.234 96.9141 746.234C93.7969 746.234 91.5938 744.312 91.1953 741.547H93.75C94.1016 742.977 95.2031 743.984 96.9141 743.984C99.5391 743.984 101.062 741.688 101.086 737.82H100.875C99.9609 739.25 98.3672 740.117 96.5391 740.117C93.4922 740.117 91.0547 737.797 91.0547 734.539C91.0547 731.305 93.4688 728.773 97.1484 728.797ZM97.1484 730.953C95.0859 730.953 93.5625 732.547 93.5625 734.492C93.5625 736.461 95.0391 738.008 97.1016 738.008C99.1406 738.008 100.734 736.344 100.734 734.469C100.734 732.641 99.2344 730.953 97.1484 730.953ZM107.953 746H105.211L111.305 729.031H114.281L120.398 746H117.656L116.109 741.523H109.5L107.953 746ZM110.25 739.367H115.359L112.852 732.125H112.734L110.25 739.367Z" fill="white"/>
<rect x="271" y="428" width="273" height="359" fill="#FFB3C4"/>
<path d="M297.734 746V729.031H308.258V731.258H300.312V736.391H307.508V738.594H300.312V746H297.734ZM311.141 746V729.031H321.664V731.258H313.719V736.391H320.914V738.594H313.719V746H311.141ZM324.547 746V729.031H330.758C334.379 729.031 336.125 730.965 336.125 733.484C336.125 735.605 334.824 736.672 333.266 737.07V737.234C334.953 737.328 336.781 738.805 336.781 741.43C336.781 744.031 335 746 331.039 746H324.547ZM327.125 743.797H330.805C333.242 743.785 334.227 742.719 334.227 741.312C334.227 739.684 332.938 738.383 330.898 738.383H327.125V743.797ZM327.125 736.367H330.547C332.258 736.355 333.594 735.324 333.594 733.695C333.594 732.289 332.621 731.234 330.594 731.234H327.125V736.367ZM345.336 746.234C341.82 746.234 339.324 744.348 339.219 741.57H341.844C341.938 743.059 343.414 744.008 345.312 744.008C347.363 744.008 348.852 742.895 348.852 741.242C348.852 739.566 347.457 738.371 345.031 738.359H343.578V736.25H345.031C346.965 736.262 348.312 735.184 348.312 733.555C348.312 732.008 347.152 730.953 345.359 730.953C343.66 730.953 342.137 731.902 342.078 733.438H339.594C339.664 730.672 342.219 728.797 345.383 728.797C348.723 728.797 350.82 730.906 350.797 733.414C350.82 735.348 349.625 736.73 347.797 737.188V737.305C350.117 737.633 351.465 739.191 351.453 741.336C351.465 744.16 348.852 746.234 345.336 746.234ZM366.008 734.562C365.598 732.371 363.781 731.152 361.625 731.164C358.695 731.152 356.527 733.402 356.516 737.516C356.527 741.652 358.707 743.879 361.625 743.867C363.758 743.879 365.562 742.684 366.008 740.516L368.609 740.539C368.07 743.891 365.34 746.234 361.602 746.234C357.184 746.234 353.961 742.941 353.961 737.516C353.961 732.09 357.207 728.797 361.602 728.797C365.188 728.797 368.035 730.918 368.609 734.562H366.008ZM370.789 742.695V740.609L378.289 729.031H381.477V740.516H383.797V742.695H381.477V746H379.039V742.695H370.789ZM373.508 740.516H379.039V732.102H378.852L373.508 740.375V740.516Z" fill="white"/>
<rect x="544" y="428" width="288" height="359" fill="#F1F1F1"/>
<path d="M578.734 746V729.031H589.258V731.258H581.312V736.391H588.508V738.594H581.312V746H578.734ZM598.352 729.031V746H595.75V731.609H595.656L591.602 734.258V731.797L595.82 729.031H598.352ZM602.898 746V729.031H613.422V731.258H605.477V736.391H612.672V738.594H605.477V746H602.898ZM622.516 729.031V746H619.914V731.609H619.82L615.766 734.258V731.797L619.984 729.031H622.516ZM627.062 746V729.031H637.586V731.258H629.641V736.391H636.836V738.594H629.641V746H627.062ZM646.68 729.031V746H644.078V731.609H643.984L639.93 734.258V731.797L644.148 729.031H646.68Z" fill="#858585"/>
<rect x="468" width="364" height="428" fill="#73ADFF"/>
<path d="M509.523 308.703C509.011 305.964 506.74 304.44 504.045 304.455C500.383 304.44 497.673 307.253 497.658 312.395C497.673 317.565 500.397 320.349 504.045 320.334C506.711 320.349 508.967 318.854 509.523 316.145L512.775 316.174C512.102 320.363 508.688 323.293 504.016 323.293C498.493 323.293 494.465 319.177 494.465 312.395C494.465 305.612 498.522 301.496 504.016 301.496C508.498 301.496 512.058 304.147 512.775 308.703H509.523ZM515.266 318.518C515.251 314.885 518.342 313.947 521.213 313.742C522.268 313.684 524.655 313.552 525.388 313.522L525.373 312.248C525.388 310.446 524.274 309.406 522.15 309.406C520.305 309.406 519.191 310.256 518.869 311.428H515.764C516.042 308.791 518.503 306.887 522.268 306.887C524.802 306.887 528.493 307.81 528.508 312.424V323H525.461V320.832H525.344C524.729 322.019 523.264 323.352 520.627 323.352C517.609 323.352 515.251 321.623 515.266 318.518ZM518.312 318.547C518.312 320.07 519.572 320.847 521.33 320.861C523.879 320.847 525.402 319.147 525.402 317.258L525.388 315.808C524.67 315.852 522.399 316.013 521.652 316.057C519.602 316.203 518.312 316.979 518.312 318.547ZM535.422 301.789V323H532.287V301.789H535.422ZM539.23 323V307.092H542.248V309.699H542.424C543.098 307.927 544.665 306.887 546.76 306.887C548.884 306.887 550.363 307.927 551.037 309.699H551.213C551.96 307.985 553.688 306.887 555.988 306.887C558.859 306.887 560.896 308.688 560.91 312.336V323H557.775V312.629C557.775 310.476 556.428 309.582 554.787 309.582C552.78 309.582 551.623 310.959 551.623 312.863V323H548.518V312.453C548.518 310.71 547.331 309.582 545.617 309.582C543.859 309.582 542.365 311.047 542.365 313.186V323H539.23ZM572.277 323V301.789H580.041C584.567 301.789 586.75 304.206 586.75 307.355C586.75 310.007 585.124 311.34 583.176 311.838V312.043C585.285 312.16 587.57 314.006 587.57 317.287C587.57 320.539 585.344 323 580.393 323H572.277ZM575.5 320.246H580.1C583.146 320.231 584.377 318.898 584.377 317.141C584.377 315.104 582.766 313.479 580.217 313.479H575.5V320.246ZM575.5 310.959H579.777C581.916 310.944 583.586 309.655 583.586 307.619C583.586 305.861 582.37 304.543 579.836 304.543H575.5V310.959ZM593.898 301.789V323H590.764V301.789H593.898ZM607.814 316.379V307.092H610.92V323H607.873V320.246H607.697C606.965 321.945 605.339 323.205 602.951 323.205C599.875 323.205 597.707 321.14 597.707 317.199V307.092H600.842V316.818C600.842 318.986 602.16 320.363 604.064 320.363C605.808 320.363 607.814 319.089 607.814 316.379ZM621.584 323.322C616.896 323.322 614.011 320.085 614.025 315.148C614.011 310.256 616.94 306.887 621.379 306.887C624.997 306.887 628.439 309.128 628.439 314.885V315.998H617.131C617.219 319.03 619.006 320.744 621.613 320.744C623.386 320.744 624.543 319.982 625.07 319.016H628.234C627.531 321.594 625.085 323.322 621.584 323.322ZM617.146 313.654H625.363C625.363 311.237 623.796 309.45 621.408 309.465C618.903 309.45 617.277 311.413 617.146 313.654Z" fill="white"/>
<path d="M500.641 376.234C497.5 376.211 494.219 374.348 494.219 368.078C494.23 362.172 496.785 358.797 500.852 358.797C503.98 358.797 506.148 360.742 506.547 363.438H503.992C503.652 362.055 502.562 361.059 500.852 361.047C498.227 361.059 496.703 363.332 496.703 367.164H496.891C497.816 365.723 499.41 364.879 501.25 364.867C504.273 364.879 506.711 367.199 506.711 370.445C506.711 373.738 504.285 376.258 500.641 376.234ZM497.008 370.516C497.02 372.402 498.531 374.066 500.617 374.078C502.668 374.066 504.203 372.473 504.203 370.492C504.203 368.547 502.727 366.965 500.688 366.977C498.613 366.965 497.031 368.629 497.008 370.516ZM515.594 376.234C512.453 376.211 509.172 374.348 509.172 368.078C509.184 362.172 511.738 358.797 515.805 358.797C518.934 358.797 521.102 360.742 521.5 363.438H518.945C518.605 362.055 517.516 361.059 515.805 361.047C513.18 361.059 511.656 363.332 511.656 367.164H511.844C512.77 365.723 514.363 364.879 516.203 364.867C519.227 364.879 521.664 367.199 521.664 370.445C521.664 373.738 519.238 376.258 515.594 376.234ZM511.961 370.516C511.973 372.402 513.484 374.066 515.57 374.078C517.621 374.066 519.156 372.473 519.156 370.492C519.156 368.547 517.68 366.965 515.641 366.977C513.566 366.965 511.984 368.629 511.961 370.516ZM524.641 376V359.031H530.852C534.473 359.031 536.219 360.965 536.219 363.484C536.219 365.605 534.918 366.672 533.359 367.07V367.234C535.047 367.328 536.875 368.805 536.875 371.43C536.875 374.031 535.094 376 531.133 376H524.641ZM527.219 373.797H530.898C533.336 373.785 534.32 372.719 534.32 371.312C534.32 369.684 533.031 368.383 530.992 368.383H527.219V373.797ZM527.219 366.367H530.641C532.352 366.355 533.688 365.324 533.688 363.695C533.688 362.289 532.715 361.234 530.688 361.234H527.219V366.367ZM545.336 376.234C541.645 376.234 539.078 374.242 539.102 371.477C539.078 369.297 540.637 367.516 542.641 367.211V367.117C540.895 366.719 539.734 365.172 539.734 363.32C539.734 360.707 542.09 358.797 545.336 358.797C548.535 358.797 550.902 360.707 550.914 363.32C550.902 365.172 549.719 366.719 548.008 367.117V367.211C549.988 367.516 551.559 369.297 551.57 371.477C551.559 374.242 548.969 376.234 545.336 376.234ZM541.727 371.289C541.691 372.953 543.098 374.102 545.336 374.102C547.539 374.102 548.945 372.953 548.945 371.289C548.945 369.543 547.422 368.266 545.336 368.266C543.227 368.266 541.691 369.543 541.727 371.289ZM542.242 363.555C542.254 365.137 543.52 366.238 545.336 366.227C547.105 366.238 548.395 365.148 548.383 363.555C548.395 361.973 547.152 360.895 545.336 360.906C543.473 360.895 542.254 361.973 542.242 363.555ZM554.477 376V359.031H565V361.258H557.055V366.391H564.25V368.594H557.055V376H554.477ZM567.883 376V359.031H574.094C577.715 359.031 579.461 360.965 579.461 363.484C579.461 365.605 578.16 366.672 576.602 367.07V367.234C578.289 367.328 580.117 368.805 580.117 371.43C580.117 374.031 578.336 376 574.375 376H567.883ZM570.461 373.797H574.141C576.578 373.785 577.562 372.719 577.562 371.312C577.562 369.684 576.273 368.383 574.234 368.383H570.461V373.797ZM570.461 366.367H573.883C575.594 366.355 576.93 365.324 576.93 363.695C576.93 362.289 575.957 361.234 573.93 361.234H570.461V366.367Z" fill="white"/>
<path d="M506.506 40.6191C506.315 38.7881 504.777 37.7334 502.492 37.748C500.075 37.7334 498.64 38.9053 498.625 40.502C498.61 42.2891 500.5 43.0215 502.258 43.4316L504.25 43.959C507.414 44.6914 510.461 46.3613 510.461 50.0527C510.461 53.7734 507.517 56.3223 502.434 56.3223C497.497 56.3223 494.362 53.9492 494.201 49.7598H497.951C498.127 51.9717 499.987 53.0557 502.404 53.0703C504.909 53.0557 506.638 51.8398 506.652 50.0234C506.638 48.3535 505.114 47.6504 502.814 47.0645L500.412 46.4492C496.926 45.541 494.758 43.7832 494.758 40.7363C494.758 36.9863 498.083 34.4961 502.551 34.4961C507.048 34.4961 510.109 37.0303 510.168 40.6191H506.506ZM523.615 49.3203V40.0918H527.336V56H523.732V53.1875H523.557C522.824 54.96 521.154 56.2051 518.781 56.2051C515.632 56.2051 513.464 54.0371 513.449 50.2285V40.0918H517.199V49.6426C517.199 51.6641 518.4 52.9531 520.217 52.9531C521.857 52.9531 523.615 51.752 523.615 49.3203ZM531.086 56V34.7891H534.836V42.6992H534.982C535.554 41.5713 536.711 39.8867 539.523 39.8867C543.2 39.8867 546.101 42.7578 546.115 48.0605C546.101 53.29 543.288 56.2783 539.553 56.293C536.799 56.2783 535.568 54.6523 534.982 53.4805H534.748V56H531.086ZM534.748 48.0312C534.748 51.1367 536.11 53.2168 538.498 53.2168C540.988 53.2168 542.292 51.0342 542.307 48.0312C542.292 45.0723 541.018 42.9482 538.498 42.9336C536.081 42.9482 534.748 44.9404 534.748 48.0312Z" fill="white"/>
</svg>
