<svg width="694" height="198" viewBox="0 0 694 198" fill="none" xmlns="http://www.w3.org/2000/svg">
<path d="M1.5 150C1.5 67.9857 67.9857 1.5 150 1.5H595C648.848 1.5 692.5 45.1522 692.5 99C692.5 152.848 648.848 196.5 595 196.5H10C5.30559 196.5 1.5 192.694 1.5 188V150Z" fill="white"/>
<path d="M1.5 150C1.5 67.9857 67.9857 1.5 150 1.5H595C648.848 1.5 692.5 45.1522 692.5 99C692.5 152.848 648.848 196.5 595 196.5H10C5.30559 196.5 1.5 192.694 1.5 188V150Z" stroke="#FF577C" stroke-width="3"/>
<path d="M103.014 74.5293L106.979 59.0938H109.057L108.824 63.0723L104.586 79H102.426L103.014 74.5293ZM100.047 59.0938L103.26 74.4062L103.547 79H101.25L96.6426 59.0938H100.047ZM113.555 74.3652L116.727 59.0938H120.145L115.537 79H113.24L113.555 74.3652ZM109.863 59.0938L113.787 74.5703L114.361 79H112.201L108.031 63.0723L107.812 59.0938H109.863ZM130.234 76.0332V68.9785C130.234 68.4499 130.139 67.9941 129.947 67.6113C129.756 67.2285 129.464 66.9323 129.072 66.7227C128.689 66.513 128.206 66.4082 127.623 66.4082C127.085 66.4082 126.62 66.4993 126.229 66.6816C125.837 66.8639 125.531 67.11 125.312 67.4199C125.094 67.7298 124.984 68.0807 124.984 68.4727H121.703C121.703 67.8893 121.844 67.3242 122.127 66.7773C122.41 66.2305 122.82 65.7428 123.357 65.3145C123.895 64.8861 124.538 64.5488 125.285 64.3027C126.033 64.0566 126.871 63.9336 127.801 63.9336C128.913 63.9336 129.897 64.1204 130.754 64.4941C131.62 64.8678 132.299 65.4329 132.791 66.1895C133.292 66.9368 133.543 67.8757 133.543 69.0059V75.582C133.543 76.2565 133.589 76.8626 133.68 77.4004C133.78 77.929 133.921 78.3893 134.104 78.7812V79H130.727C130.572 78.6445 130.449 78.1934 130.357 77.6465C130.275 77.0905 130.234 76.5527 130.234 76.0332ZM130.713 70.0039L130.74 72.041H128.375C127.764 72.041 127.227 72.1003 126.762 72.2188C126.297 72.3281 125.91 72.4922 125.6 72.7109C125.29 72.9297 125.057 73.194 124.902 73.5039C124.747 73.8138 124.67 74.1647 124.67 74.5566C124.67 74.9486 124.761 75.3086 124.943 75.6367C125.126 75.9557 125.39 76.2064 125.736 76.3887C126.092 76.571 126.52 76.6621 127.021 76.6621C127.696 76.6621 128.284 76.5254 128.785 76.252C129.296 75.9694 129.697 75.6276 129.988 75.2266C130.28 74.8164 130.435 74.429 130.453 74.0645L131.52 75.5273C131.41 75.901 131.223 76.3021 130.959 76.7305C130.695 77.1589 130.348 77.569 129.92 77.9609C129.501 78.3438 128.995 78.6582 128.402 78.9043C127.819 79.1504 127.145 79.2734 126.379 79.2734C125.413 79.2734 124.551 79.082 123.795 78.6992C123.038 78.3073 122.446 77.7832 122.018 77.127C121.589 76.4616 121.375 75.7096 121.375 74.8711C121.375 74.0872 121.521 73.3945 121.812 72.793C122.113 72.1823 122.551 71.6719 123.125 71.2617C123.708 70.8516 124.419 70.5417 125.258 70.332C126.096 70.1133 127.053 70.0039 128.129 70.0039H130.713ZM145.287 74.9941C145.287 74.666 145.205 74.3698 145.041 74.1055C144.877 73.832 144.562 73.5859 144.098 73.3672C143.642 73.1484 142.967 72.9479 142.074 72.7656C141.29 72.5924 140.57 72.3874 139.914 72.1504C139.267 71.9043 138.711 71.6081 138.246 71.2617C137.781 70.9154 137.421 70.5052 137.166 70.0312C136.911 69.5573 136.783 69.0104 136.783 68.3906C136.783 67.7891 136.915 67.2194 137.18 66.6816C137.444 66.1439 137.822 65.6699 138.314 65.2598C138.807 64.8496 139.404 64.526 140.105 64.2891C140.816 64.0521 141.609 63.9336 142.484 63.9336C143.724 63.9336 144.786 64.1432 145.67 64.5625C146.563 64.9727 147.247 65.5332 147.721 66.2441C148.195 66.946 148.432 67.7389 148.432 68.623H145.137C145.137 68.2311 145.036 67.8665 144.836 67.5293C144.645 67.1829 144.353 66.9049 143.961 66.6953C143.569 66.4766 143.077 66.3672 142.484 66.3672C141.919 66.3672 141.45 66.4583 141.076 66.6406C140.712 66.8138 140.438 67.0417 140.256 67.3242C140.083 67.6068 139.996 67.9167 139.996 68.2539C139.996 68.5 140.042 68.7233 140.133 68.9238C140.233 69.1152 140.397 69.293 140.625 69.457C140.853 69.612 141.163 69.7578 141.555 69.8945C141.956 70.0312 142.457 70.1634 143.059 70.291C144.189 70.528 145.16 70.8333 145.971 71.207C146.791 71.5716 147.42 72.0456 147.857 72.6289C148.295 73.2031 148.514 73.9323 148.514 74.8164C148.514 75.4727 148.372 76.0742 148.09 76.6211C147.816 77.1589 147.415 77.6283 146.887 78.0293C146.358 78.4212 145.725 78.7266 144.986 78.9453C144.257 79.1641 143.437 79.2734 142.525 79.2734C141.186 79.2734 140.051 79.0365 139.121 78.5625C138.191 78.0794 137.485 77.4642 137.002 76.7168C136.528 75.9603 136.291 75.1764 136.291 74.3652H139.477C139.513 74.9759 139.682 75.4635 139.982 75.8281C140.292 76.1836 140.675 76.4434 141.131 76.6074C141.596 76.7624 142.074 76.8398 142.566 76.8398C143.159 76.8398 143.656 76.7624 144.057 76.6074C144.458 76.4434 144.763 76.2246 144.973 75.9512C145.182 75.6686 145.287 75.3496 145.287 74.9941ZM165.152 64.207V66.6133H156.812V64.207H165.152ZM159.219 60.584H162.514V74.9121C162.514 75.3678 162.577 75.7188 162.705 75.9648C162.842 76.2018 163.029 76.3613 163.266 76.4434C163.503 76.5254 163.781 76.5664 164.1 76.5664C164.327 76.5664 164.546 76.5527 164.756 76.5254C164.965 76.498 165.134 76.4707 165.262 76.4434L165.275 78.959C165.002 79.041 164.683 79.1139 164.318 79.1777C163.963 79.2415 163.553 79.2734 163.088 79.2734C162.331 79.2734 161.661 79.1413 161.078 78.877C160.495 78.6035 160.039 78.1615 159.711 77.5508C159.383 76.9401 159.219 76.1289 159.219 75.1172V60.584ZM170.949 58V79H167.668V58H170.949ZM170.375 71.0566L169.309 71.043C169.318 70.0221 169.459 69.0788 169.732 68.2129C170.015 67.347 170.407 66.5951 170.908 65.957C171.419 65.3099 172.029 64.8132 172.74 64.4668C173.451 64.1113 174.24 63.9336 175.105 63.9336C175.835 63.9336 176.491 64.0339 177.074 64.2344C177.667 64.4349 178.177 64.7585 178.605 65.2051C179.034 65.6426 179.357 66.2168 179.576 66.9277C179.804 67.6296 179.918 68.4863 179.918 69.498V79H176.609V69.4707C176.609 68.7598 176.505 68.1947 176.295 67.7754C176.094 67.3561 175.798 67.0553 175.406 66.873C175.014 66.6816 174.536 66.5859 173.971 66.5859C173.378 66.5859 172.854 66.7044 172.398 66.9414C171.952 67.1784 171.578 67.502 171.277 67.9121C170.977 68.3223 170.749 68.7962 170.594 69.334C170.448 69.8717 170.375 70.446 170.375 71.0566ZM186.781 64.207V79H183.473V64.207H186.781ZM183.254 60.3242C183.254 59.8229 183.418 59.4082 183.746 59.0801C184.083 58.7428 184.548 58.5742 185.141 58.5742C185.724 58.5742 186.184 58.7428 186.521 59.0801C186.859 59.4082 187.027 59.8229 187.027 60.3242C187.027 60.8164 186.859 61.2266 186.521 61.5547C186.184 61.8828 185.724 62.0469 185.141 62.0469C184.548 62.0469 184.083 61.8828 183.746 61.5547C183.418 61.2266 183.254 60.8164 183.254 60.3242ZM198.689 74.9941C198.689 74.666 198.607 74.3698 198.443 74.1055C198.279 73.832 197.965 73.5859 197.5 73.3672C197.044 73.1484 196.37 72.9479 195.477 72.7656C194.693 72.5924 193.973 72.3874 193.316 72.1504C192.669 71.9043 192.113 71.6081 191.648 71.2617C191.184 70.9154 190.824 70.5052 190.568 70.0312C190.313 69.5573 190.186 69.0104 190.186 68.3906C190.186 67.7891 190.318 67.2194 190.582 66.6816C190.846 66.1439 191.225 65.6699 191.717 65.2598C192.209 64.8496 192.806 64.526 193.508 64.2891C194.219 64.0521 195.012 63.9336 195.887 63.9336C197.126 63.9336 198.188 64.1432 199.072 64.5625C199.965 64.9727 200.649 65.5332 201.123 66.2441C201.597 66.946 201.834 67.7389 201.834 68.623H198.539C198.539 68.2311 198.439 67.8665 198.238 67.5293C198.047 67.1829 197.755 66.9049 197.363 66.6953C196.971 66.4766 196.479 66.3672 195.887 66.3672C195.322 66.3672 194.852 66.4583 194.479 66.6406C194.114 66.8138 193.84 67.0417 193.658 67.3242C193.485 67.6068 193.398 67.9167 193.398 68.2539C193.398 68.5 193.444 68.7233 193.535 68.9238C193.635 69.1152 193.799 69.293 194.027 69.457C194.255 69.612 194.565 69.7578 194.957 69.8945C195.358 70.0312 195.859 70.1634 196.461 70.291C197.591 70.528 198.562 70.8333 199.373 71.207C200.193 71.5716 200.822 72.0456 201.26 72.6289C201.697 73.2031 201.916 73.9323 201.916 74.8164C201.916 75.4727 201.775 76.0742 201.492 76.6211C201.219 77.1589 200.818 77.6283 200.289 78.0293C199.76 78.4212 199.127 78.7266 198.389 78.9453C197.66 79.1641 196.839 79.2734 195.928 79.2734C194.588 79.2734 193.453 79.0365 192.523 78.5625C191.594 78.0794 190.887 77.4642 190.404 76.7168C189.93 75.9603 189.693 75.1764 189.693 74.3652H192.879C192.915 74.9759 193.084 75.4635 193.385 75.8281C193.695 76.1836 194.077 76.4434 194.533 76.6074C194.998 76.7624 195.477 76.8398 195.969 76.8398C196.561 76.8398 197.058 76.7624 197.459 76.6074C197.86 76.4434 198.165 76.2246 198.375 75.9512C198.585 75.6686 198.689 75.3496 198.689 74.9941ZM216.586 76.3887L220.209 64.207H223.627L218.486 79H216.354L216.586 76.3887ZM213.811 64.207L217.502 76.4434L217.68 79H215.547L210.379 64.207H213.811ZM229.191 64.207V79H225.883V64.207H229.191ZM225.664 60.3242C225.664 59.8229 225.828 59.4082 226.156 59.0801C226.493 58.7428 226.958 58.5742 227.551 58.5742C228.134 58.5742 228.594 58.7428 228.932 59.0801C229.269 59.4082 229.438 59.8229 229.438 60.3242C229.438 60.8164 229.269 61.2266 228.932 61.5547C228.594 61.8828 228.134 62.0469 227.551 62.0469C226.958 62.0469 226.493 61.8828 226.156 61.5547C225.828 61.2266 225.664 60.8164 225.664 60.3242ZM241.824 75.9375V58H245.133V79H242.139L241.824 75.9375ZM232.199 71.7676V71.4805C232.199 70.3594 232.331 69.3385 232.596 68.418C232.86 67.4883 233.243 66.6908 233.744 66.0254C234.245 65.3509 234.856 64.8359 235.576 64.4805C236.296 64.1159 237.107 63.9336 238.01 63.9336C238.903 63.9336 239.687 64.1068 240.361 64.4531C241.036 64.7995 241.61 65.2962 242.084 65.9434C242.558 66.5814 242.936 67.347 243.219 68.2402C243.501 69.1243 243.702 70.1087 243.82 71.1934V72.1094C243.702 73.1667 243.501 74.1328 243.219 75.0078C242.936 75.8828 242.558 76.6393 242.084 77.2773C241.61 77.9154 241.031 78.4076 240.348 78.7539C239.673 79.1003 238.885 79.2734 237.982 79.2734C237.089 79.2734 236.283 79.0866 235.562 78.7129C234.852 78.3392 234.245 77.8151 233.744 77.1406C233.243 76.4661 232.86 75.6732 232.596 74.7617C232.331 73.8411 232.199 72.8431 232.199 71.7676ZM235.494 71.4805V71.7676C235.494 72.4421 235.553 73.071 235.672 73.6543C235.799 74.2376 235.995 74.7526 236.26 75.1992C236.524 75.6367 236.866 75.9831 237.285 76.2383C237.714 76.4844 238.224 76.6074 238.816 76.6074C239.564 76.6074 240.179 76.4434 240.662 76.1152C241.145 75.7871 241.523 75.3451 241.797 74.7891C242.079 74.224 242.271 73.5951 242.371 72.9023V70.4277C242.316 69.89 242.202 69.3887 242.029 68.9238C241.865 68.459 241.642 68.0534 241.359 67.707C241.077 67.3516 240.726 67.0781 240.307 66.8867C239.896 66.6862 239.409 66.5859 238.844 66.5859C238.242 66.5859 237.732 66.7135 237.312 66.9688C236.893 67.224 236.547 67.5749 236.273 68.0215C236.009 68.4681 235.813 68.9876 235.686 69.5801C235.558 70.1725 235.494 70.806 235.494 71.4805ZM255.1 79.2734C254.006 79.2734 253.017 79.0957 252.133 78.7402C251.258 78.3757 250.51 77.8698 249.891 77.2227C249.28 76.5755 248.811 75.8145 248.482 74.9395C248.154 74.0645 247.99 73.1211 247.99 72.1094V71.5625C247.99 70.4049 248.159 69.3568 248.496 68.418C248.833 67.4792 249.303 66.6771 249.904 66.0117C250.506 65.3372 251.217 64.8223 252.037 64.4668C252.857 64.1113 253.746 63.9336 254.703 63.9336C255.76 63.9336 256.686 64.1113 257.479 64.4668C258.271 64.8223 258.928 65.3236 259.447 65.9707C259.976 66.6087 260.368 67.3698 260.623 68.2539C260.887 69.138 261.02 70.1133 261.02 71.1797V72.5879H249.59V70.2227H257.766V69.9629C257.747 69.3704 257.629 68.8145 257.41 68.2949C257.201 67.7754 256.877 67.3561 256.439 67.0371C256.002 66.7181 255.419 66.5586 254.689 66.5586C254.143 66.5586 253.655 66.6771 253.227 66.9141C252.807 67.1419 252.456 67.4746 252.174 67.9121C251.891 68.3496 251.673 68.8783 251.518 69.498C251.372 70.1087 251.299 70.7969 251.299 71.5625V72.1094C251.299 72.7565 251.385 73.3581 251.559 73.9141C251.741 74.4609 252.005 74.9395 252.352 75.3496C252.698 75.7598 253.117 76.0833 253.609 76.3203C254.102 76.5482 254.662 76.6621 255.291 76.6621C256.084 76.6621 256.79 76.5026 257.41 76.1836C258.03 75.8646 258.568 75.4134 259.023 74.8301L260.76 76.5117C260.441 76.9766 260.026 77.4232 259.516 77.8516C259.005 78.2708 258.381 78.6126 257.643 78.877C256.913 79.1413 256.066 79.2734 255.1 79.2734ZM262.961 71.7676V71.4531C262.961 70.3867 263.116 69.3978 263.426 68.4863C263.736 67.5658 264.182 66.7682 264.766 66.0938C265.358 65.4102 266.078 64.8815 266.926 64.5078C267.783 64.125 268.749 63.9336 269.824 63.9336C270.909 63.9336 271.875 64.125 272.723 64.5078C273.579 64.8815 274.304 65.4102 274.896 66.0938C275.489 66.7682 275.94 67.5658 276.25 68.4863C276.56 69.3978 276.715 70.3867 276.715 71.4531V71.7676C276.715 72.834 276.56 73.8229 276.25 74.7344C275.94 75.6458 275.489 76.4434 274.896 77.127C274.304 77.8014 273.584 78.3301 272.736 78.7129C271.889 79.0866 270.927 79.2734 269.852 79.2734C268.767 79.2734 267.796 79.0866 266.939 78.7129C266.092 78.3301 265.372 77.8014 264.779 77.127C264.187 76.4434 263.736 75.6458 263.426 74.7344C263.116 73.8229 262.961 72.834 262.961 71.7676ZM266.256 71.4531V71.7676C266.256 72.4329 266.324 73.0618 266.461 73.6543C266.598 74.2467 266.812 74.7663 267.104 75.2129C267.395 75.6595 267.769 76.0104 268.225 76.2656C268.68 76.5208 269.223 76.6484 269.852 76.6484C270.462 76.6484 270.991 76.5208 271.438 76.2656C271.893 76.0104 272.267 75.6595 272.559 75.2129C272.85 74.7663 273.064 74.2467 273.201 73.6543C273.347 73.0618 273.42 72.4329 273.42 71.7676V71.4531C273.42 70.7969 273.347 70.1771 273.201 69.5938C273.064 69.0013 272.846 68.4772 272.545 68.0215C272.253 67.5658 271.88 67.2103 271.424 66.9551C270.977 66.6908 270.444 66.5586 269.824 66.5586C269.204 66.5586 268.667 66.6908 268.211 66.9551C267.764 67.2103 267.395 67.5658 267.104 68.0215C266.812 68.4772 266.598 69.0013 266.461 69.5938C266.324 70.1771 266.256 70.7969 266.256 71.4531ZM289.703 58V79H286.422V58H289.703ZM289.129 71.0566L288.062 71.043C288.072 70.0221 288.213 69.0788 288.486 68.2129C288.769 67.347 289.161 66.5951 289.662 65.957C290.173 65.3099 290.783 64.8132 291.494 64.4668C292.205 64.1113 292.993 63.9336 293.859 63.9336C294.589 63.9336 295.245 64.0339 295.828 64.2344C296.421 64.4349 296.931 64.7585 297.359 65.2051C297.788 65.6426 298.111 66.2168 298.33 66.9277C298.558 67.6296 298.672 68.4863 298.672 69.498V79H295.363V69.4707C295.363 68.7598 295.258 68.1947 295.049 67.7754C294.848 67.3561 294.552 67.0553 294.16 66.873C293.768 66.6816 293.29 66.5859 292.725 66.5859C292.132 66.5859 291.608 66.7044 291.152 66.9414C290.706 67.1784 290.332 67.502 290.031 67.9121C289.73 68.3223 289.503 68.7962 289.348 69.334C289.202 69.8717 289.129 70.446 289.129 71.0566ZM308.529 79.2734C307.436 79.2734 306.447 79.0957 305.562 78.7402C304.688 78.3757 303.94 77.8698 303.32 77.2227C302.71 76.5755 302.24 75.8145 301.912 74.9395C301.584 74.0645 301.42 73.1211 301.42 72.1094V71.5625C301.42 70.4049 301.589 69.3568 301.926 68.418C302.263 67.4792 302.732 66.6771 303.334 66.0117C303.936 65.3372 304.646 64.8223 305.467 64.4668C306.287 64.1113 307.176 63.9336 308.133 63.9336C309.19 63.9336 310.115 64.1113 310.908 64.4668C311.701 64.8223 312.357 65.3236 312.877 65.9707C313.406 66.6087 313.798 67.3698 314.053 68.2539C314.317 69.138 314.449 70.1133 314.449 71.1797V72.5879H303.02V70.2227H311.195V69.9629C311.177 69.3704 311.059 68.8145 310.84 68.2949C310.63 67.7754 310.307 67.3561 309.869 67.0371C309.432 66.7181 308.848 66.5586 308.119 66.5586C307.572 66.5586 307.085 66.6771 306.656 66.9141C306.237 67.1419 305.886 67.4746 305.604 67.9121C305.321 68.3496 305.102 68.8783 304.947 69.498C304.801 70.1087 304.729 70.7969 304.729 71.5625V72.1094C304.729 72.7565 304.815 73.3581 304.988 73.9141C305.171 74.4609 305.435 74.9395 305.781 75.3496C306.128 75.7598 306.547 76.0833 307.039 76.3203C307.531 76.5482 308.092 76.6621 308.721 76.6621C309.514 76.6621 310.22 76.5026 310.84 76.1836C311.46 75.8646 311.997 75.4134 312.453 74.8301L314.189 76.5117C313.87 76.9766 313.456 77.4232 312.945 77.8516C312.435 78.2708 311.811 78.6126 311.072 78.877C310.343 79.1413 309.495 79.2734 308.529 79.2734ZM320.547 58V79H317.238V58H320.547ZM327.465 67.0508V84.6875H324.17V64.207H327.205L327.465 67.0508ZM337.104 71.4668V71.7539C337.104 72.8294 336.976 73.8275 336.721 74.748C336.475 75.6595 336.105 76.457 335.613 77.1406C335.13 77.8151 334.533 78.3392 333.822 78.7129C333.111 79.0866 332.291 79.2734 331.361 79.2734C330.441 79.2734 329.634 79.1048 328.941 78.7676C328.258 78.4212 327.679 77.9336 327.205 77.3047C326.731 76.6758 326.348 75.9375 326.057 75.0898C325.774 74.2331 325.574 73.2943 325.455 72.2734V71.166C325.574 70.0814 325.774 69.097 326.057 68.2129C326.348 67.3288 326.731 66.5677 327.205 65.9297C327.679 65.2917 328.258 64.7995 328.941 64.4531C329.625 64.1068 330.423 63.9336 331.334 63.9336C332.264 63.9336 333.089 64.1159 333.809 64.4805C334.529 64.8359 335.135 65.3464 335.627 66.0117C336.119 66.668 336.488 67.4609 336.734 68.3906C336.98 69.3112 337.104 70.3366 337.104 71.4668ZM333.809 71.7539V71.4668C333.809 70.7832 333.745 70.1497 333.617 69.5664C333.49 68.974 333.289 68.4544 333.016 68.0078C332.742 67.5612 332.391 67.2148 331.963 66.9688C331.544 66.7135 331.038 66.5859 330.445 66.5859C329.862 66.5859 329.361 66.6862 328.941 66.8867C328.522 67.0781 328.171 67.347 327.889 67.6934C327.606 68.0397 327.387 68.4453 327.232 68.9102C327.077 69.3659 326.968 69.8626 326.904 70.4004V73.0527C327.014 73.709 327.201 74.3105 327.465 74.8574C327.729 75.4043 328.103 75.8418 328.586 76.1699C329.078 76.4889 329.707 76.6484 330.473 76.6484C331.065 76.6484 331.571 76.5208 331.99 76.2656C332.41 76.0104 332.751 75.6595 333.016 75.2129C333.289 74.7572 333.49 74.2331 333.617 73.6406C333.745 73.0482 333.809 72.4193 333.809 71.7539ZM344.363 79H341.068V62.7852C341.068 61.6823 341.273 60.7572 341.684 60.0098C342.103 59.2533 342.7 58.6836 343.475 58.3008C344.249 57.9089 345.165 57.7129 346.223 57.7129C346.551 57.7129 346.874 57.7357 347.193 57.7812C347.512 57.8177 347.822 57.877 348.123 57.959L348.041 60.502C347.859 60.4564 347.658 60.4245 347.439 60.4062C347.23 60.388 347.002 60.3789 346.756 60.3789C346.255 60.3789 345.822 60.4746 345.457 60.666C345.102 60.8483 344.828 61.1172 344.637 61.4727C344.454 61.8281 344.363 62.2656 344.363 62.7852V79ZM347.412 64.207V66.6133H338.799V64.207H347.412ZM358.705 75.5137V64.207H362.014V79H358.896L358.705 75.5137ZM359.17 72.4375L360.277 72.4102C360.277 73.4036 360.168 74.3197 359.949 75.1582C359.73 75.9876 359.393 76.7122 358.938 77.332C358.482 77.9427 357.898 78.4212 357.188 78.7676C356.477 79.1048 355.624 79.2734 354.631 79.2734C353.911 79.2734 353.25 79.1686 352.648 78.959C352.047 78.7493 351.527 78.4258 351.09 77.9883C350.661 77.5508 350.329 76.9811 350.092 76.2793C349.855 75.5775 349.736 74.7389 349.736 73.7637V64.207H353.031V73.791C353.031 74.3288 353.095 74.7799 353.223 75.1445C353.35 75.5 353.523 75.7871 353.742 76.0059C353.961 76.2246 354.216 76.3796 354.508 76.4707C354.799 76.5618 355.109 76.6074 355.438 76.6074C356.376 76.6074 357.115 76.4251 357.652 76.0605C358.199 75.6868 358.587 75.1855 358.814 74.5566C359.051 73.9277 359.17 73.2214 359.17 72.4375ZM368.918 58V79H365.609V58H368.918ZM383.957 79H380.662V62.7852C380.662 61.6823 380.867 60.7572 381.277 60.0098C381.697 59.2533 382.294 58.6836 383.068 58.3008C383.843 57.9089 384.759 57.7129 385.816 57.7129C386.145 57.7129 386.468 57.7357 386.787 57.7812C387.106 57.8177 387.416 57.877 387.717 57.959L387.635 60.502C387.452 60.4564 387.252 60.4245 387.033 60.4062C386.824 60.388 386.596 60.3789 386.35 60.3789C385.848 60.3789 385.415 60.4746 385.051 60.666C384.695 60.8483 384.422 61.1172 384.23 61.4727C384.048 61.8281 383.957 62.2656 383.957 62.7852V79ZM387.006 64.207V66.6133H378.393V64.207H387.006ZM388.77 71.7676V71.4531C388.77 70.3867 388.924 69.3978 389.234 68.4863C389.544 67.5658 389.991 66.7682 390.574 66.0938C391.167 65.4102 391.887 64.8815 392.734 64.5078C393.591 64.125 394.557 63.9336 395.633 63.9336C396.717 63.9336 397.684 64.125 398.531 64.5078C399.388 64.8815 400.113 65.4102 400.705 66.0938C401.298 66.7682 401.749 67.5658 402.059 68.4863C402.368 69.3978 402.523 70.3867 402.523 71.4531V71.7676C402.523 72.834 402.368 73.8229 402.059 74.7344C401.749 75.6458 401.298 76.4434 400.705 77.127C400.113 77.8014 399.393 78.3301 398.545 78.7129C397.697 79.0866 396.736 79.2734 395.66 79.2734C394.576 79.2734 393.605 79.0866 392.748 78.7129C391.9 78.3301 391.18 77.8014 390.588 77.127C389.995 76.4434 389.544 75.6458 389.234 74.7344C388.924 73.8229 388.77 72.834 388.77 71.7676ZM392.064 71.4531V71.7676C392.064 72.4329 392.133 73.0618 392.27 73.6543C392.406 74.2467 392.62 74.7663 392.912 75.2129C393.204 75.6595 393.577 76.0104 394.033 76.2656C394.489 76.5208 395.031 76.6484 395.66 76.6484C396.271 76.6484 396.799 76.5208 397.246 76.2656C397.702 76.0104 398.076 75.6595 398.367 75.2129C398.659 74.7663 398.873 74.2467 399.01 73.6543C399.156 73.0618 399.229 72.4329 399.229 71.7676V71.4531C399.229 70.7969 399.156 70.1771 399.01 69.5938C398.873 69.0013 398.654 68.4772 398.354 68.0215C398.062 67.5658 397.688 67.2103 397.232 66.9551C396.786 66.6908 396.253 66.5586 395.633 66.5586C395.013 66.5586 394.475 66.6908 394.02 66.9551C393.573 67.2103 393.204 67.5658 392.912 68.0215C392.62 68.4772 392.406 69.0013 392.27 69.5938C392.133 70.1771 392.064 70.7969 392.064 71.4531ZM408.594 67.0234V79H405.299V64.207H408.443L408.594 67.0234ZM413.119 64.1113L413.092 67.1738C412.891 67.1374 412.673 67.11 412.436 67.0918C412.208 67.0736 411.98 67.0645 411.752 67.0645C411.187 67.0645 410.69 67.1465 410.262 67.3105C409.833 67.4655 409.473 67.6934 409.182 67.9941C408.899 68.2858 408.68 68.6413 408.525 69.0605C408.37 69.4798 408.279 69.9492 408.252 70.4688L407.5 70.5234C407.5 69.5938 407.591 68.7324 407.773 67.9395C407.956 67.1465 408.229 66.4492 408.594 65.8477C408.967 65.2461 409.432 64.7767 409.988 64.4395C410.553 64.1022 411.205 63.9336 411.943 63.9336C412.144 63.9336 412.358 63.9518 412.586 63.9883C412.823 64.0247 413.001 64.0658 413.119 64.1113ZM426.449 77.3867L430.469 64.207H433.996L428.062 81.2559C427.926 81.6204 427.748 82.0169 427.529 82.4453C427.311 82.8737 427.023 83.2793 426.668 83.6621C426.322 84.054 425.889 84.3685 425.369 84.6055C424.85 84.8516 424.221 84.9746 423.482 84.9746C423.191 84.9746 422.908 84.9473 422.635 84.8926C422.37 84.847 422.12 84.7969 421.883 84.7422L421.869 82.2266C421.96 82.2357 422.07 82.2448 422.197 82.2539C422.334 82.263 422.443 82.2676 422.525 82.2676C423.072 82.2676 423.528 82.1992 423.893 82.0625C424.257 81.9349 424.553 81.7253 424.781 81.4336C425.018 81.1419 425.219 80.75 425.383 80.2578L426.449 77.3867ZM424.18 64.207L427.693 75.2812L428.281 78.7539L425.998 79.3418L420.625 64.207H424.18ZM435.035 71.7676V71.4531C435.035 70.3867 435.19 69.3978 435.5 68.4863C435.81 67.5658 436.257 66.7682 436.84 66.0938C437.432 65.4102 438.152 64.8815 439 64.5078C439.857 64.125 440.823 63.9336 441.898 63.9336C442.983 63.9336 443.949 64.125 444.797 64.5078C445.654 64.8815 446.378 65.4102 446.971 66.0938C447.563 66.7682 448.014 67.5658 448.324 68.4863C448.634 69.3978 448.789 70.3867 448.789 71.4531V71.7676C448.789 72.834 448.634 73.8229 448.324 74.7344C448.014 75.6458 447.563 76.4434 446.971 77.127C446.378 77.8014 445.658 78.3301 444.811 78.7129C443.963 79.0866 443.001 79.2734 441.926 79.2734C440.841 79.2734 439.87 79.0866 439.014 78.7129C438.166 78.3301 437.446 77.8014 436.854 77.127C436.261 76.4434 435.81 75.6458 435.5 74.7344C435.19 73.8229 435.035 72.834 435.035 71.7676ZM438.33 71.4531V71.7676C438.33 72.4329 438.398 73.0618 438.535 73.6543C438.672 74.2467 438.886 74.7663 439.178 75.2129C439.469 75.6595 439.843 76.0104 440.299 76.2656C440.755 76.5208 441.297 76.6484 441.926 76.6484C442.536 76.6484 443.065 76.5208 443.512 76.2656C443.967 76.0104 444.341 75.6595 444.633 75.2129C444.924 74.7663 445.139 74.2467 445.275 73.6543C445.421 73.0618 445.494 72.4329 445.494 71.7676V71.4531C445.494 70.7969 445.421 70.1771 445.275 69.5938C445.139 69.0013 444.92 68.4772 444.619 68.0215C444.327 67.5658 443.954 67.2103 443.498 66.9551C443.051 66.6908 442.518 66.5586 441.898 66.5586C441.279 66.5586 440.741 66.6908 440.285 66.9551C439.839 67.2103 439.469 67.5658 439.178 68.0215C438.886 68.4772 438.672 69.0013 438.535 69.5938C438.398 70.1771 438.33 70.7969 438.33 71.4531ZM460.451 75.5137V64.207H463.76V79H460.643L460.451 75.5137ZM460.916 72.4375L462.023 72.4102C462.023 73.4036 461.914 74.3197 461.695 75.1582C461.477 75.9876 461.139 76.7122 460.684 77.332C460.228 77.9427 459.645 78.4212 458.934 78.7676C458.223 79.1048 457.37 79.2734 456.377 79.2734C455.657 79.2734 454.996 79.1686 454.395 78.959C453.793 78.7493 453.273 78.4258 452.836 77.9883C452.408 77.5508 452.075 76.9811 451.838 76.2793C451.601 75.5775 451.482 74.7389 451.482 73.7637V64.207H454.777V73.791C454.777 74.3288 454.841 74.7799 454.969 75.1445C455.096 75.5 455.27 75.7871 455.488 76.0059C455.707 76.2246 455.962 76.3796 456.254 76.4707C456.546 76.5618 456.855 76.6074 457.184 76.6074C458.122 76.6074 458.861 76.4251 459.398 76.0605C459.945 75.6868 460.333 75.1855 460.561 74.5566C460.798 73.9277 460.916 73.2214 460.916 72.4375ZM470.445 67.0234V79H467.15V64.207H470.295L470.445 67.0234ZM474.971 64.1113L474.943 67.1738C474.743 67.1374 474.524 67.11 474.287 67.0918C474.059 67.0736 473.831 67.0645 473.604 67.0645C473.038 67.0645 472.542 67.1465 472.113 67.3105C471.685 67.4655 471.325 67.6934 471.033 67.9941C470.751 68.2858 470.532 68.6413 470.377 69.0605C470.222 69.4798 470.131 69.9492 470.104 70.4688L469.352 70.5234C469.352 69.5938 469.443 68.7324 469.625 67.9395C469.807 67.1465 470.081 66.4492 470.445 65.8477C470.819 65.2461 471.284 64.7767 471.84 64.4395C472.405 64.1022 473.057 63.9336 473.795 63.9336C473.995 63.9336 474.21 63.9518 474.438 63.9883C474.674 64.0247 474.852 64.0658 474.971 64.1113ZM487.535 58V79H484.227V58H487.535ZM497.666 79.2734C496.572 79.2734 495.583 79.0957 494.699 78.7402C493.824 78.3757 493.077 77.8698 492.457 77.2227C491.846 76.5755 491.377 75.8145 491.049 74.9395C490.721 74.0645 490.557 73.1211 490.557 72.1094V71.5625C490.557 70.4049 490.725 69.3568 491.062 68.418C491.4 67.4792 491.869 66.6771 492.471 66.0117C493.072 65.3372 493.783 64.8223 494.604 64.4668C495.424 64.1113 496.312 63.9336 497.27 63.9336C498.327 63.9336 499.252 64.1113 500.045 64.4668C500.838 64.8223 501.494 65.3236 502.014 65.9707C502.542 66.6087 502.934 67.3698 503.189 68.2539C503.454 69.138 503.586 70.1133 503.586 71.1797V72.5879H492.156V70.2227H500.332V69.9629C500.314 69.3704 500.195 68.8145 499.977 68.2949C499.767 67.7754 499.443 67.3561 499.006 67.0371C498.568 66.7181 497.985 66.5586 497.256 66.5586C496.709 66.5586 496.221 66.6771 495.793 66.9141C495.374 67.1419 495.023 67.4746 494.74 67.9121C494.458 68.3496 494.239 68.8783 494.084 69.498C493.938 70.1087 493.865 70.7969 493.865 71.5625V72.1094C493.865 72.7565 493.952 73.3581 494.125 73.9141C494.307 74.4609 494.572 74.9395 494.918 75.3496C495.264 75.7598 495.684 76.0833 496.176 76.3203C496.668 76.5482 497.229 76.6621 497.857 76.6621C498.65 76.6621 499.357 76.5026 499.977 76.1836C500.596 75.8646 501.134 75.4134 501.59 74.8301L503.326 76.5117C503.007 76.9766 502.592 77.4232 502.082 77.8516C501.572 78.2708 500.947 78.6126 500.209 78.877C499.48 79.1413 498.632 79.2734 497.666 79.2734ZM514.496 76.0332V68.9785C514.496 68.4499 514.4 67.9941 514.209 67.6113C514.018 67.2285 513.726 66.9323 513.334 66.7227C512.951 66.513 512.468 66.4082 511.885 66.4082C511.347 66.4082 510.882 66.4993 510.49 66.6816C510.098 66.8639 509.793 67.11 509.574 67.4199C509.355 67.7298 509.246 68.0807 509.246 68.4727H505.965C505.965 67.8893 506.106 67.3242 506.389 66.7773C506.671 66.2305 507.081 65.7428 507.619 65.3145C508.157 64.8861 508.799 64.5488 509.547 64.3027C510.294 64.0566 511.133 63.9336 512.062 63.9336C513.174 63.9336 514.159 64.1204 515.016 64.4941C515.882 64.8678 516.561 65.4329 517.053 66.1895C517.554 66.9368 517.805 67.8757 517.805 69.0059V75.582C517.805 76.2565 517.85 76.8626 517.941 77.4004C518.042 77.929 518.183 78.3893 518.365 78.7812V79H514.988C514.833 78.6445 514.71 78.1934 514.619 77.6465C514.537 77.0905 514.496 76.5527 514.496 76.0332ZM514.975 70.0039L515.002 72.041H512.637C512.026 72.041 511.488 72.1003 511.023 72.2188C510.559 72.3281 510.171 72.4922 509.861 72.7109C509.551 72.9297 509.319 73.194 509.164 73.5039C509.009 73.8138 508.932 74.1647 508.932 74.5566C508.932 74.9486 509.023 75.3086 509.205 75.6367C509.387 75.9557 509.652 76.2064 509.998 76.3887C510.354 76.571 510.782 76.6621 511.283 76.6621C511.958 76.6621 512.546 76.5254 513.047 76.252C513.557 75.9694 513.958 75.6276 514.25 75.2266C514.542 74.8164 514.697 74.429 514.715 74.0645L515.781 75.5273C515.672 75.901 515.485 76.3021 515.221 76.7305C514.956 77.1589 514.61 77.569 514.182 77.9609C513.762 78.3438 513.257 78.6582 512.664 78.9043C512.081 79.1504 511.406 79.2734 510.641 79.2734C509.674 79.2734 508.813 79.082 508.057 78.6992C507.3 78.3073 506.708 77.7832 506.279 77.127C505.851 76.4616 505.637 75.7096 505.637 74.8711C505.637 74.0872 505.783 73.3945 506.074 72.793C506.375 72.1823 506.812 71.6719 507.387 71.2617C507.97 70.8516 508.681 70.5417 509.52 70.332C510.358 70.1133 511.315 70.0039 512.391 70.0039H514.975ZM524.559 67.0234V79H521.264V64.207H524.408L524.559 67.0234ZM529.084 64.1113L529.057 67.1738C528.856 67.1374 528.637 67.11 528.4 67.0918C528.173 67.0736 527.945 67.0645 527.717 67.0645C527.152 67.0645 526.655 67.1465 526.227 67.3105C525.798 67.4655 525.438 67.6934 525.146 67.9941C524.864 68.2858 524.645 68.6413 524.49 69.0605C524.335 69.4798 524.244 69.9492 524.217 70.4688L523.465 70.5234C523.465 69.5938 523.556 68.7324 523.738 67.9395C523.921 67.1465 524.194 66.4492 524.559 65.8477C524.932 65.2461 525.397 64.7767 525.953 64.4395C526.518 64.1022 527.17 63.9336 527.908 63.9336C528.109 63.9336 528.323 63.9518 528.551 63.9883C528.788 64.0247 528.965 64.0658 529.084 64.1113ZM534.416 67.3652V79H531.121V64.207H534.225L534.416 67.3652ZM533.828 71.0566L532.762 71.043C532.771 69.9948 532.917 69.0332 533.199 68.1582C533.491 67.2832 533.892 66.5312 534.402 65.9023C534.922 65.2734 535.542 64.7904 536.262 64.4531C536.982 64.1068 537.784 63.9336 538.668 63.9336C539.379 63.9336 540.021 64.0339 540.596 64.2344C541.179 64.4258 541.676 64.7402 542.086 65.1777C542.505 65.6152 542.824 66.1849 543.043 66.8867C543.262 67.5794 543.371 68.4316 543.371 69.4434V79H540.062V69.4297C540.062 68.7188 539.958 68.1582 539.748 67.748C539.548 67.3288 539.251 67.0326 538.859 66.8594C538.477 66.6771 537.998 66.5859 537.424 66.5859C536.859 66.5859 536.353 66.7044 535.906 66.9414C535.46 67.1784 535.081 67.502 534.771 67.9121C534.471 68.3223 534.238 68.7962 534.074 69.334C533.91 69.8717 533.828 70.446 533.828 71.0566ZM550.262 64.207V79H546.953V64.207H550.262ZM546.734 60.3242C546.734 59.8229 546.898 59.4082 547.227 59.0801C547.564 58.7428 548.029 58.5742 548.621 58.5742C549.204 58.5742 549.665 58.7428 550.002 59.0801C550.339 59.4082 550.508 59.8229 550.508 60.3242C550.508 60.8164 550.339 61.2266 550.002 61.5547C549.665 61.8828 549.204 62.0469 548.621 62.0469C548.029 62.0469 547.564 61.8828 547.227 61.5547C546.898 61.2266 546.734 60.8164 546.734 60.3242ZM557.139 67.3652V79H553.844V64.207H556.947L557.139 67.3652ZM556.551 71.0566L555.484 71.043C555.493 69.9948 555.639 69.0332 555.922 68.1582C556.214 67.2832 556.615 66.5312 557.125 65.9023C557.645 65.2734 558.264 64.7904 558.984 64.4531C559.704 64.1068 560.507 63.9336 561.391 63.9336C562.102 63.9336 562.744 64.0339 563.318 64.2344C563.902 64.4258 564.398 64.7402 564.809 65.1777C565.228 65.6152 565.547 66.1849 565.766 66.8867C565.984 67.5794 566.094 68.4316 566.094 69.4434V79H562.785V69.4297C562.785 68.7188 562.68 68.1582 562.471 67.748C562.27 67.3288 561.974 67.0326 561.582 66.8594C561.199 66.6771 560.721 66.5859 560.146 66.5859C559.581 66.5859 559.076 66.7044 558.629 66.9414C558.182 67.1784 557.804 67.502 557.494 67.9121C557.193 68.3223 556.961 68.7962 556.797 69.334C556.633 69.8717 556.551 70.446 556.551 71.0566ZM578.932 64.207H581.926V78.5898C581.926 79.9206 581.643 81.0508 581.078 81.9805C580.513 82.9102 579.725 83.6165 578.713 84.0996C577.701 84.5918 576.53 84.8379 575.199 84.8379C574.634 84.8379 574.005 84.7559 573.312 84.5918C572.629 84.4277 571.964 84.1634 571.316 83.7988C570.678 83.4434 570.145 82.974 569.717 82.3906L571.262 80.4492C571.79 81.0781 572.374 81.5384 573.012 81.8301C573.65 82.1217 574.32 82.2676 575.021 82.2676C575.778 82.2676 576.421 82.1263 576.949 81.8438C577.487 81.5703 577.902 81.1647 578.193 80.627C578.485 80.0892 578.631 79.4329 578.631 78.6582V67.5566L578.932 64.207ZM568.883 71.7676V71.4805C568.883 70.3594 569.02 69.3385 569.293 68.418C569.566 67.4883 569.958 66.6908 570.469 66.0254C570.979 65.3509 571.599 64.8359 572.328 64.4805C573.057 64.1159 573.882 63.9336 574.803 63.9336C575.76 63.9336 576.576 64.1068 577.25 64.4531C577.934 64.7995 578.503 65.2962 578.959 65.9434C579.415 66.5814 579.77 67.347 580.025 68.2402C580.29 69.1243 580.486 70.1087 580.613 71.1934V72.1094C580.495 73.1667 580.294 74.1328 580.012 75.0078C579.729 75.8828 579.355 76.6393 578.891 77.2773C578.426 77.9154 577.852 78.4076 577.168 78.7539C576.493 79.1003 575.696 79.2734 574.775 79.2734C573.873 79.2734 573.057 79.0866 572.328 78.7129C571.608 78.3392 570.988 77.8151 570.469 77.1406C569.958 76.4661 569.566 75.6732 569.293 74.7617C569.02 73.8411 568.883 72.8431 568.883 71.7676ZM572.178 71.4805V71.7676C572.178 72.4421 572.242 73.071 572.369 73.6543C572.506 74.2376 572.711 74.7526 572.984 75.1992C573.267 75.6367 573.622 75.9831 574.051 76.2383C574.488 76.4844 575.003 76.6074 575.596 76.6074C576.37 76.6074 577.004 76.4434 577.496 76.1152C577.997 75.7871 578.38 75.3451 578.645 74.7891C578.918 74.224 579.109 73.5951 579.219 72.9023V70.4277C579.164 69.89 579.05 69.3887 578.877 68.9238C578.713 68.459 578.49 68.0534 578.207 67.707C577.924 67.3516 577.569 67.0781 577.141 66.8867C576.712 66.6862 576.206 66.5859 575.623 66.5859C575.031 66.5859 574.516 66.7135 574.078 66.9688C573.641 67.224 573.281 67.5749 572.998 68.0215C572.725 68.4681 572.52 68.9876 572.383 69.5801C572.246 70.1725 572.178 70.806 572.178 71.4805ZM591.51 73.1348H588.461C588.47 72.2871 588.543 71.5762 588.68 71.002C588.816 70.4186 589.044 69.89 589.363 69.416C589.691 68.9421 590.124 68.4408 590.662 67.9121C591.081 67.5111 591.46 67.1328 591.797 66.7773C592.134 66.4128 592.403 66.0299 592.604 65.6289C592.804 65.2188 592.904 64.7493 592.904 64.2207C592.904 63.6465 592.809 63.1589 592.617 62.7578C592.426 62.3568 592.143 62.0514 591.77 61.8418C591.405 61.6322 590.949 61.5273 590.402 61.5273C589.947 61.5273 589.518 61.6185 589.117 61.8008C588.716 61.974 588.393 62.2474 588.146 62.6211C587.9 62.9857 587.768 63.4688 587.75 64.0703H584.455C584.473 62.9219 584.747 61.9557 585.275 61.1719C585.804 60.388 586.515 59.8001 587.408 59.4082C588.301 59.0163 589.299 58.8203 590.402 58.8203C591.624 58.8203 592.667 59.0299 593.533 59.4492C594.399 59.8594 595.06 60.4609 595.516 61.2539C595.98 62.0378 596.213 62.9857 596.213 64.0977C596.213 64.8997 596.053 65.6289 595.734 66.2852C595.415 66.9323 595.001 67.5384 594.49 68.1035C593.98 68.6595 593.428 69.2155 592.836 69.7715C592.326 70.2363 591.979 70.7422 591.797 71.2891C591.615 71.8268 591.519 72.4421 591.51 73.1348ZM588.188 77.4004C588.188 76.9082 588.356 76.4935 588.693 76.1562C589.031 75.8099 589.491 75.6367 590.074 75.6367C590.658 75.6367 591.118 75.8099 591.455 76.1562C591.792 76.4935 591.961 76.9082 591.961 77.4004C591.961 77.8926 591.792 78.3118 591.455 78.6582C591.118 78.9954 590.658 79.1641 590.074 79.1641C589.491 79.1641 589.031 78.9954 588.693 78.6582C588.356 78.3118 588.188 77.8926 588.188 77.4004Z" fill="black"/>
<path d="M250.94 105.927C251.239 105.006 252.542 105.006 252.842 105.927L256.156 116.129C256.29 116.541 256.674 116.82 257.107 116.82H267.834C268.803 116.82 269.206 118.059 268.422 118.629L259.744 124.934C259.393 125.188 259.247 125.64 259.381 126.052L262.695 136.253C262.995 137.175 261.94 137.941 261.156 137.371L252.478 131.066C252.128 130.812 251.653 130.812 251.303 131.066L242.625 137.371C241.841 137.941 240.787 137.175 241.086 136.253L244.401 126.052C244.535 125.64 244.388 125.188 244.037 124.934L235.359 118.629C234.576 118.059 234.978 116.82 235.947 116.82H246.674C247.107 116.82 247.491 116.541 247.625 116.129L250.94 105.927Z" fill="#FF577C"/>
<path d="M296.493 106C296.788 105.07 298.104 105.07 298.399 106L301.615 116.122C301.747 116.538 302.133 116.82 302.568 116.82H313.022C313.985 116.82 314.392 118.048 313.619 118.622L305.123 124.935C304.78 125.19 304.637 125.634 304.766 126.041L308.002 136.226C308.296 137.151 307.232 137.911 306.453 137.332L298.043 131.082C297.689 130.819 297.204 130.819 296.85 131.082L288.44 137.332C287.66 137.911 286.596 137.151 286.89 136.226L290.126 126.041C290.255 125.634 290.112 125.19 289.77 124.935L281.274 118.622C280.501 118.048 280.907 116.82 281.87 116.82H292.324C292.76 116.82 293.145 116.538 293.277 116.122L296.493 106Z" fill="#FF577C"/>
<path d="M342.049 105.927C342.348 105.006 343.652 105.006 343.951 105.927L347.266 116.129C347.4 116.541 347.784 116.82 348.217 116.82H358.943C359.912 116.82 360.315 118.059 359.531 118.629L350.853 124.934C350.503 125.188 350.356 125.64 350.49 126.052L353.805 136.253C354.104 137.175 353.05 137.941 352.266 137.371L343.588 131.066C343.237 130.812 342.763 130.812 342.412 131.066L333.734 137.371C332.95 137.941 331.896 137.175 332.195 136.253L335.51 126.052C335.644 125.64 335.497 125.188 335.147 124.934L326.469 118.629C325.685 118.059 326.088 116.82 327.057 116.82H337.783C338.216 116.82 338.6 116.541 338.734 116.129L342.049 105.927Z" fill="#FF577C"/>
<path d="M387.602 106C387.898 105.07 389.213 105.07 389.509 106L392.725 116.122C392.856 116.538 393.242 116.82 393.678 116.82H404.132C405.095 116.82 405.501 118.048 404.728 118.622L396.232 124.935C395.89 125.19 395.746 125.634 395.876 126.041L399.111 136.226C399.405 137.151 398.341 137.911 397.562 137.332L389.152 131.082C388.798 130.819 388.313 130.819 387.959 131.082L379.549 137.332C378.77 137.911 377.706 137.151 378 136.226L381.236 126.041C381.365 125.634 381.222 125.19 380.879 124.935L372.383 118.622C371.61 118.048 372.016 116.82 372.98 116.82H383.434C383.869 116.82 384.255 116.538 384.387 116.122L387.602 106Z" fill="#FF577C"/>
<path d="M433.162 105.927C433.462 105.006 434.765 105.006 435.064 105.927L438.379 116.129C438.513 116.541 438.897 116.82 439.33 116.82H450.057C451.025 116.82 451.428 118.059 450.645 118.629L441.966 124.934C441.616 125.188 441.469 125.64 441.603 126.052L444.918 136.253C445.217 137.175 444.163 137.941 443.379 137.371L434.701 131.066C434.351 130.812 433.876 130.812 433.525 131.066L424.847 137.371C424.064 137.941 423.009 137.175 423.309 136.253L426.623 126.052C426.757 125.64 426.611 125.188 426.26 124.934L417.582 118.629C416.798 118.059 417.201 116.82 418.17 116.82H428.896C429.33 116.82 429.714 116.541 429.848 116.129L433.162 105.927Z" fill="#B6B6B6"/>
</svg>
