<svg width="91" height="19" viewBox="0 0 91 19" fill="none" xmlns="http://www.w3.org/2000/svg">
<path d="M0.429688 1.03125H3.94531V8.55469H4.17969L10.3438 1.03125H14.5859L8.25781 8.625L14.6562 18H10.4375L5.72656 10.9922L3.94531 13.1484V18H0.429688V1.03125ZM30.9219 9.51562C30.9219 11.3125 30.5781 12.8711 29.8906 14.1914C29.2031 15.5039 28.2578 16.5078 27.0547 17.2031C25.8594 17.8906 24.5078 18.2344 23 18.2344C21.4844 18.2344 20.125 17.8867 18.9219 17.1914C17.7188 16.4961 16.7734 15.4922 16.0859 14.1797C15.3984 12.8594 15.0547 11.3047 15.0547 9.51562C15.0547 7.71875 15.3984 6.16406 16.0859 4.85156C16.7734 3.53125 17.7188 2.52734 18.9219 1.83984C20.125 1.14453 21.4844 0.796875 23 0.796875C24.5078 0.796875 25.8594 1.14453 27.0547 1.83984C28.2578 2.52734 29.2031 3.53125 29.8906 4.85156C30.5781 6.16406 30.9219 7.71875 30.9219 9.51562ZM27.3359 9.51562C27.3359 8.32031 27.1562 7.30469 26.7969 6.46875C26.4453 5.63281 25.9453 5 25.2969 4.57031C24.6484 4.13281 23.8828 3.91406 23 3.91406C22.1172 3.91406 21.3477 4.13281 20.6914 4.57031C20.043 5 19.5391 5.63672 19.1797 6.48047C18.8203 7.31641 18.6406 8.32812 18.6406 9.51562C18.6406 10.7031 18.8203 11.7188 19.1797 12.5625C19.5391 13.3984 20.043 14.0352 20.6914 14.4727C21.3477 14.9023 22.1172 15.1172 23 15.1172C23.8828 15.1172 24.6484 14.9023 25.2969 14.4727C25.9453 14.0352 26.4453 13.3984 26.7969 12.5625C27.1562 11.7266 27.3359 10.7109 27.3359 9.51562ZM47.6094 18H44.5625L37.1094 7.21875H36.9688V18H33.4531V1.03125H36.5469L43.9531 11.8125H44.1172V1.03125H47.6094V18ZM66.0078 9.51562C66.0078 11.3125 65.6641 12.8711 64.9766 14.1914C64.2891 15.5039 63.3438 16.5078 62.1406 17.2031C60.9453 17.8906 59.5938 18.2344 58.0859 18.2344C56.5703 18.2344 55.2109 17.8867 54.0078 17.1914C52.8047 16.4961 51.8594 15.4922 51.1719 14.1797C50.4844 12.8594 50.1406 11.3047 50.1406 9.51562C50.1406 7.71875 50.4844 6.16406 51.1719 4.85156C51.8594 3.53125 52.8047 2.52734 54.0078 1.83984C55.2109 1.14453 56.5703 0.796875 58.0859 0.796875C59.5938 0.796875 60.9453 1.14453 62.1406 1.83984C63.3438 2.52734 64.2891 3.53125 64.9766 4.85156C65.6641 6.16406 66.0078 7.71875 66.0078 9.51562ZM62.4219 9.51562C62.4219 8.32031 62.2422 7.30469 61.8828 6.46875C61.5312 5.63281 61.0312 5 60.3828 4.57031C59.7344 4.13281 58.9688 3.91406 58.0859 3.91406C57.2031 3.91406 56.4336 4.13281 55.7773 4.57031C55.1289 5 54.625 5.63672 54.2656 6.48047C53.9062 7.31641 53.7266 8.32812 53.7266 9.51562C53.7266 10.7031 53.9062 11.7188 54.2656 12.5625C54.625 13.3984 55.1289 14.0352 55.7773 14.4727C56.4336 14.9023 57.2031 15.1172 58.0859 15.1172C58.9688 15.1172 59.7344 14.9023 60.3828 14.4727C61.0312 14.0352 61.5312 13.3984 61.8828 12.5625C62.2422 11.7266 62.4219 10.7109 62.4219 9.51562ZM66.875 1.03125H70.7188L73.5781 12.8906H73.7188L76.8359 1.03125H80.1406L83.2578 12.9141H83.3984L86.2578 1.03125H90.1016L85.25 18H81.8047L78.5703 6.79688H78.4297L75.1719 18H71.7266L66.875 1.03125Z" fill="#FF7A97"/>
</svg>
