<svg width="1456" height="850" viewBox="0 0 1456 850" fill="none" xmlns="http://www.w3.org/2000/svg">
<line x1="1036" y1="224.416" x2="1036" y2="524.416" stroke="#FF577C"/>
<line x1="1326" y1="224.416" x2="1326" y2="704.416" stroke="#FF577C"/>
<line x1="136" y1="224.416" x2="136" y2="834.416" stroke="#FF577C"/>
<line x1="741" y1="29.416" x2="741" y2="354.416" stroke="#FF577C"/>
<line x1="132.5" y1="223.916" x2="1310.5" y2="223.916" stroke="#FF577C"/>
<rect x="616.5" y="1.41602" width="248" height="48" rx="24" fill="#FF577C"/>
<rect x="616.5" y="1.41602" width="248" height="48" rx="24" stroke="#FF577C" stroke-width="2"/>
<path d="M694.797 34.916V16.5332H697.082V25.623H697.311L705.486 16.5332H708.482L700.789 24.8359L708.482 34.916H705.689L699.367 26.4102L697.082 29V34.916H694.797ZM725.596 25.7246C725.596 31.5391 722.168 35.1699 717.471 35.1699C712.748 35.1699 709.346 31.5391 709.346 25.7246C709.346 19.9102 712.748 16.2793 717.471 16.2793C722.168 16.2793 725.596 19.9102 725.596 25.7246ZM723.387 25.7246C723.387 20.9766 720.797 18.4121 717.471 18.4121C714.145 18.4121 711.555 20.9766 711.555 25.7246C711.555 30.4727 714.145 33.0371 717.471 33.0371C720.797 33.0371 723.387 30.4727 723.387 25.7246ZM743.547 16.5332V34.916H741.363L731.41 20.5957H731.232V34.916H728.947V16.5332H731.156L741.109 30.8789H741.287V16.5332H743.547ZM763.148 25.7246C763.148 31.5391 759.721 35.1699 755.023 35.1699C750.301 35.1699 746.898 31.5391 746.898 25.7246C746.898 19.9102 750.301 16.2793 755.023 16.2793C759.721 16.2793 763.148 19.9102 763.148 25.7246ZM760.939 25.7246C760.939 20.9766 758.35 18.4121 755.023 18.4121C751.697 18.4121 749.107 20.9766 749.107 25.7246C749.107 30.4727 751.697 33.0371 755.023 33.0371C758.35 33.0371 760.939 30.4727 760.939 25.7246ZM769.877 34.916L764.85 16.5332H767.16L770.994 31.4121H771.172L775.057 16.5332H777.621L781.531 31.4121H781.684L785.518 16.5332H787.828L782.801 34.916H780.439L776.428 20.3672H776.275L772.238 34.916H769.877Z" fill="white"/>
<rect x="616.5" y="61.416" width="248" height="48" rx="24" fill="#FF577C"/>
<rect x="616.5" y="61.416" width="248" height="48" rx="24" stroke="#FF577C" stroke-width="2"/>
<path d="M679.093 92.5039V94.1797H658.425V92.5039H667.718V88.2383H661.015V81.2812H674.522V77.7266H660.964V76.0762H676.478V82.9062H662.995V86.5879H677.011V88.2383H669.673V92.5039H679.093ZM698.694 76.8125V79.0723C698.694 81.916 698.694 85.1406 697.856 90.041L695.825 89.8379C696.739 85.2168 696.739 81.8398 696.739 79.0723V78.4629H683.13V76.8125H698.694ZM701.462 91.9961V93.6465H680.896V91.9961H701.462ZM722.003 74.4258V90.9297H720.022V74.4258H722.003ZM722.714 94.8145V96.4902H707.429V89.2539H709.409V94.8145H722.714ZM709.815 76C713.192 76 715.731 78.2852 715.731 81.5352C715.731 84.8359 713.192 87.0957 709.815 87.0957C706.438 87.0957 703.899 84.8359 703.899 81.5352C703.899 78.2852 706.438 76 709.815 76ZM709.815 77.752C707.53 77.752 705.829 79.3262 705.854 81.5352C705.829 83.7949 707.53 85.3438 709.815 85.3438C712.05 85.3438 713.776 83.7949 713.776 81.5352C713.776 79.3262 712.05 77.752 709.815 77.752ZM733.226 75.6699L727.284 97.6836H725.304L731.22 75.6699H733.226ZM753.03 74.4004V96.9727H751.05V74.4004H753.03ZM734.647 90.9551C736.577 90.9424 738.786 90.9297 741.071 90.8535V88.3906C738.367 88.0986 736.603 86.5625 736.628 84.3027C736.603 81.7637 738.786 80.1133 742.036 80.1133C745.286 80.1133 747.495 81.7637 747.495 84.3027C747.495 86.5371 745.743 88.0732 743.077 88.3652V90.7773C745.261 90.6885 747.47 90.5234 749.552 90.2441L749.704 91.7676C744.677 92.5801 739.142 92.6562 734.952 92.6562L734.647 90.9551ZM748.968 77.1934V78.8184H735.13V77.1934H741.071V74.4258H743.077V77.1934H748.968ZM742.036 81.6621C739.954 81.6621 738.481 82.7285 738.481 84.3027C738.481 85.877 739.954 86.8926 742.036 86.8672C744.144 86.8926 745.591 85.877 745.591 84.3027C745.591 82.7285 744.144 81.6621 742.036 81.6621ZM775.603 74.4258V91.5645H773.597V89.2285H768.925V87.7812H773.597V74.4258H775.603ZM776.161 94.8145V96.4902H760.114V89.8887H762.12V94.8145H776.161ZM756.864 84.8867C761.079 84.8613 766.716 84.8359 771.565 84.2266L771.692 85.6738C769.674 85.9912 767.566 86.1943 765.497 86.3086V90.7773H763.491V86.4102C761.206 86.5117 759.035 86.5244 757.144 86.5117L756.864 84.8867ZM764.278 75.3398C767.579 75.3398 769.839 76.9141 769.864 79.2754C769.839 81.6875 767.579 83.1855 764.278 83.1855C760.952 83.1855 758.692 81.6875 758.692 79.2754C758.692 76.9141 760.952 75.3398 764.278 75.3398ZM764.278 76.8633C762.069 76.8379 760.571 77.8281 760.597 79.2754C760.571 80.748 762.069 81.7129 764.278 81.7129C766.411 81.7129 767.935 80.748 767.96 79.2754C767.935 77.8281 766.411 76.8379 764.278 76.8633ZM796.931 74.4004V83.5918H800.587V85.2676H796.931V96.9727H794.95V74.4004H796.931ZM791.091 76.8379C791.091 83.2363 788.095 89.0508 780.731 92.6816L779.614 91.1074C785.454 88.2002 788.628 83.8584 789.085 78.5137H780.655V76.8379H791.091ZM820.569 74.4004V86.5117H818.589V74.4004H820.569ZM807.925 87.6543V90.3965H818.589V87.6543H820.569V96.668H805.944V87.6543H807.925ZM807.925 95.043H818.589V91.9961H807.925V95.043ZM808.382 75.5176C811.81 75.4922 814.298 77.5996 814.298 80.6973C814.298 83.7695 811.81 85.877 808.382 85.877C804.954 85.877 802.466 83.7695 802.466 80.6973C802.466 77.5996 804.954 75.4922 808.382 75.5176ZM808.382 77.1934C806.071 77.168 804.396 78.6406 804.421 80.6973C804.396 82.7539 806.071 84.2266 808.382 84.2266C810.667 84.2266 812.343 82.7539 812.343 80.6973C812.343 78.6406 810.667 77.168 808.382 77.1934Z" fill="white"/>
<rect x="616.5" y="121.416" width="248" height="48" rx="24" fill="#FF577C"/>
<rect x="616.5" y="121.416" width="248" height="48" rx="24" stroke="#FF577C" stroke-width="2"/>
<path d="M663.808 140.469C663.808 144.455 666.448 148.543 669.647 150.117L668.429 151.717C665.94 150.409 663.858 147.743 662.868 144.607C661.853 147.946 659.72 150.79 657.181 152.148L655.911 150.549C659.212 148.924 661.827 144.582 661.853 140.469V136.355H663.808V140.469ZM673.71 134.4V143.566H677.493V145.293H673.71V156.973H671.729V134.4H673.71ZM699.278 145.572V147.223H678.712V145.572H683.815V142.398C682.013 141.7 680.997 140.545 680.997 139.021C680.997 136.355 684.044 134.832 688.995 134.832C693.896 134.832 696.968 136.355 696.968 139.021C696.968 140.532 695.965 141.688 694.175 142.373V145.572H699.278ZM688.995 148.949C693.845 148.949 696.739 150.346 696.765 152.936C696.739 155.5 693.845 156.922 688.995 156.922C684.095 156.922 681.2 155.5 681.2 152.936C681.2 150.346 684.095 148.949 688.995 148.949ZM688.995 150.473C685.364 150.498 683.206 151.387 683.231 152.936C683.206 154.459 685.364 155.373 688.995 155.373C692.575 155.373 694.759 154.459 694.759 152.936C694.759 151.387 692.575 150.498 688.995 150.473ZM688.995 136.406C685.313 136.406 683.028 137.396 683.054 139.021C683.028 140.672 685.313 141.637 688.995 141.637C692.651 141.637 694.937 140.672 694.937 139.021C694.937 137.396 692.651 136.406 688.995 136.406ZM685.796 145.572H692.194V142.932C691.242 143.097 690.176 143.186 688.995 143.186C687.814 143.186 686.748 143.097 685.796 142.932V145.572ZM708.825 141.332C708.8 144.963 711.415 148.949 714.69 150.498L713.548 152.072C711.009 150.841 708.863 148.149 707.86 145.09C706.819 148.416 704.547 151.336 702.021 152.631L700.802 151.057C704.052 149.482 706.845 145.191 706.87 141.332V138.387H701.614V136.736H713.903V138.387H708.825V141.332ZM718.651 134.4V143.541H722.435V145.242H718.651V156.973H716.671V134.4H718.651ZM748.892 134.4V147.857H746.886V141.941H742.341V140.291H746.886V134.4H748.892ZM741.401 148.568C746.099 148.568 748.968 150.092 748.968 152.758C748.968 155.424 746.099 156.947 741.401 156.973C736.704 156.947 733.835 155.424 733.835 152.758C733.835 150.092 736.704 148.568 741.401 148.568ZM741.401 150.117C737.948 150.117 735.79 151.107 735.815 152.758C735.79 154.383 737.948 155.373 741.401 155.373C744.854 155.373 746.987 154.383 746.987 152.758C746.987 151.107 744.854 150.117 741.401 150.117ZM738.024 138.539C738.024 141.484 740.284 144.277 743.585 145.42L742.544 147.02C740.005 146.105 738.037 144.214 737.085 141.865C736.095 144.519 734 146.639 731.321 147.654L730.28 146.055C733.632 144.836 736.019 141.789 736.019 138.564V137.727H730.915V136.051H743.077V137.727H738.024V138.539ZM773.317 152.428V154.078H752.649V152.428H761.942V147.553H755.087V136H757.093V140.088H768.823V136H770.778V147.553H763.897V152.428H773.317ZM757.093 145.928H768.823V141.713H757.093V145.928ZM800.282 134.4V146.512H798.302V134.4H800.282ZM787.638 147.654V150.396H798.302V147.654H800.282V156.668H785.657V147.654H787.638ZM787.638 155.043H798.302V151.996H787.638V155.043ZM788.095 135.518C791.522 135.492 794.011 137.6 794.011 140.697C794.011 143.77 791.522 145.877 788.095 145.877C784.667 145.877 782.179 143.77 782.179 140.697C782.179 137.6 784.667 135.492 788.095 135.518ZM788.095 137.193C785.784 137.168 784.108 138.641 784.134 140.697C784.108 142.754 785.784 144.227 788.095 144.227C790.38 144.227 792.056 142.754 792.056 140.697C792.056 138.641 790.38 137.168 788.095 137.193ZM814.831 135.797V142.119H807.062V145.623C811.302 145.623 813.485 145.56 816.151 145.064L816.354 146.715C813.536 147.172 811.251 147.248 806.681 147.248H805.081V140.596H812.851V137.396H805.03V135.797H814.831ZM822.829 134.426V148.289H820.823V144.1H816.329V142.449H820.823V139.402H816.329V137.777H820.823V134.426H822.829ZM822.829 149.508V157.023H820.823V151.133H807.62V149.508H822.829Z" fill="white"/>
<path d="M1.5 224.416C1.5 211.161 12.2452 200.416 25.5 200.416H245.5C258.755 200.416 269.5 211.161 269.5 224.416C269.5 237.671 258.755 248.416 245.5 248.416H25.5C12.2452 248.416 1.5 237.671 1.5 224.416Z" fill="white"/>
<path d="M1.5 224.416C1.5 211.161 12.2452 200.416 25.5 200.416H245.5C258.755 200.416 269.5 211.161 269.5 224.416C269.5 237.671 258.755 248.416 245.5 248.416H25.5C12.2452 248.416 1.5 237.671 1.5 224.416Z" stroke="#FF577C" stroke-width="2"/>
<path d="M134.51 224.801V226.426H113.943V224.801H119.656V221.83H121.637V224.801H126.867V221.83H128.822V224.801H134.51ZM125.217 228.559C125.217 231.555 128.797 233.738 132.91 234.322L132.123 235.871C128.683 235.3 125.534 233.713 124.201 231.25C122.868 233.713 119.72 235.3 116.279 235.871L115.518 234.322C119.605 233.738 123.186 231.555 123.186 228.559V227.873H125.217V228.559ZM125.217 214.695C125.217 217.59 129.305 220.002 133.291 220.51L132.555 222.059C129.089 221.538 125.648 219.824 124.227 217.285C122.792 219.824 119.364 221.538 115.898 222.059L115.137 220.51C119.174 219.977 123.211 217.615 123.211 214.695V213.629H125.217V214.695ZM156.98 224.801V226.426H136.414V224.801H145.682V222.186H138.42V220.535H141.822V215.787H138.344V214.137H155.025V215.787H151.547V220.535H154.949V222.186H147.662V224.801H156.98ZM154.467 228.609V235.668H138.928V228.609H154.467ZM140.908 230.158V234.043H152.512V230.158H140.908ZM143.803 220.535H149.566V215.787H143.803V220.535Z" fill="#FF577C"/>
<rect x="1.5" y="260.416" width="268" height="48" rx="24" fill="#ACACAC"/>
<rect x="1.5" y="260.416" width="268" height="48" rx="24" stroke="#ACACAC" stroke-width="2"/>
<path d="M113.956 280.129V282.795H123.351V284.445H102.683V282.795H112.001V280.129H113.956ZM121.446 274.111V275.686H114.312C114.477 277.996 118.26 279.685 122.183 280.002L121.522 281.5C117.765 281.145 114.223 279.685 113.017 277.311C111.785 279.685 108.243 281.145 104.46 281.5L103.8 280.002C107.697 279.685 111.48 277.996 111.696 275.686H104.587V274.111H121.446ZM121.396 287.441V289.016H104.638V287.441H112.001V285.309H113.981V287.441H121.396ZM112.991 290.133C117.333 290.133 119.821 291.148 119.821 293.104C119.821 295.084 117.333 296.1 112.991 296.1C108.599 296.1 106.187 295.084 106.187 293.104C106.187 291.148 108.599 290.133 112.991 290.133ZM112.991 291.529C109.944 291.555 108.192 292.062 108.192 293.104C108.192 294.145 109.944 294.729 112.991 294.703C116.063 294.729 117.765 294.145 117.79 293.104C117.765 292.062 116.063 291.555 112.991 291.529ZM131.222 275.152C134.548 275.178 136.909 278.225 136.935 283.023C136.909 287.822 134.548 290.869 131.222 290.869C127.87 290.869 125.534 287.822 125.534 283.023C125.534 278.225 127.87 275.178 131.222 275.152ZM131.222 276.93C128.987 276.955 127.413 279.342 127.413 283.023C127.413 286.705 128.987 289.092 131.222 289.092C133.481 289.092 135.005 286.705 135.005 283.023C135.005 279.342 133.481 276.955 131.222 276.93ZM142.647 273.4V282.414H146.431V284.141H142.647V295.973H140.667V273.4H142.647ZM168.317 291.402V293.078H147.649V291.402H152.778V285.309C150.849 284.306 149.681 282.681 149.681 280.637C149.681 277.133 153.108 274.848 157.933 274.822C162.757 274.848 166.185 277.133 166.185 280.637C166.185 282.643 165.055 284.255 163.188 285.258V291.402H168.317ZM157.933 276.473C154.226 276.447 151.61 278.123 151.61 280.637C151.61 283.15 154.226 284.852 157.933 284.852C161.614 284.852 164.255 283.15 164.255 280.637C164.255 278.123 161.614 276.447 157.933 276.473ZM154.733 291.402H161.183V286.02C160.205 286.286 159.113 286.426 157.933 286.426C156.777 286.426 155.698 286.299 154.733 286.045V291.402Z" fill="white"/>
<rect x="1.5" y="320.416" width="268" height="48" rx="24" fill="#ACACAC"/>
<rect x="1.5" y="320.416" width="268" height="48" rx="24" stroke="#ACACAC" stroke-width="2"/>
<path d="M123.617 335.381V337.031H116.939V343.785C119.948 343.798 122.157 343.684 124.734 343.15L124.912 344.801C122.094 345.334 119.783 345.436 116.432 345.436H114.984V335.381H123.617ZM133.113 333.4V348.33H131.209V340.992H128.035V346.375H126.182V333.832H128.035V339.316H131.209V333.4H133.113ZM126.562 348.178C126.562 351.199 130.371 353.713 134.332 354.322L133.469 355.871C130.117 355.262 126.931 353.484 125.572 350.92C124.201 353.484 121.002 355.262 117.676 355.871L116.812 354.322C120.748 353.713 124.557 351.199 124.582 348.178V347.314H126.562V348.178ZM154.365 334.391V335.838C154.365 337.374 154.365 339.304 153.857 341.855H157.082V343.455H136.414V341.855H151.852C152.359 339.342 152.385 337.488 152.385 336.016H139.029V334.391H154.365ZM154.441 345.74V351.428H140.908V354.094H155.025V355.719H138.902V349.854H152.461V347.34H138.877V345.74H154.441Z" fill="white"/>
<rect x="1.5" y="380.416" width="268" height="48" rx="24" fill="#ACACAC"/>
<rect x="1.5" y="380.416" width="268" height="48" rx="24" stroke="#ACACAC" stroke-width="2"/>
<path d="M113.956 396.727C113.956 400.586 118.374 404.039 122.31 404.775L121.396 406.451C117.993 405.664 114.4 403.239 112.94 399.9C111.48 403.227 107.9 405.651 104.485 406.451L103.571 404.775C107.481 404.014 111.874 400.611 111.874 396.727V395H113.956V396.727ZM123.376 411.25V412.9H102.708V411.25H123.376ZM143.181 395.711V398.504C143.181 401.83 143.181 404.902 142.241 409.473L140.235 409.295C140.73 407.124 140.984 405.245 141.124 403.48L127.337 404.242L127.058 402.592L141.2 402.008C141.238 400.814 141.238 399.659 141.251 398.504V397.387H127.667V395.711H143.181ZM145.745 411.123V412.799H125.179V411.123H145.745ZM166.819 393.426V405.918H164.915V400.408H161.741V405.689H159.888V393.832H161.741V398.809H164.915V393.426H166.819ZM153.921 406.959V409.549H164.864V406.959H166.819V415.668H151.94V406.959H153.921ZM153.921 414.043H164.864V411.174H153.921V414.043ZM157.196 394.771V400.561H150.62V403.557C153.591 403.519 155.863 403.404 158.542 402.846L158.771 404.496C155.851 405.055 153.438 405.182 150.163 405.182H148.69V399.037H155.292V396.396H148.64V394.771H157.196Z" fill="white"/>
<rect x="1.5" y="440.416" width="268" height="48" rx="24" fill="#ACACAC"/>
<rect x="1.5" y="440.416" width="268" height="48" rx="24" stroke="#ACACAC" stroke-width="2"/>
<path d="M123.414 456.041V461.932H126.842V453.883H128.746V474.83H126.842V463.582H123.414V469.904H114.781V456.041H123.414ZM116.66 457.641V468.305H121.535V457.641H116.66ZM133.291 453.4V475.973H131.361V453.4H133.291ZM157.082 471.402V473.078H136.414V471.402H145.707V465.893H138.852V455.305H154.518V465.893H147.662V471.402H157.082ZM140.807 456.904V464.293H152.588V456.904H140.807Z" fill="white"/>
<rect x="1.5" y="500.416" width="268" height="48" rx="24" fill="#ACACAC"/>
<rect x="1.5" y="500.416" width="268" height="48" rx="24" stroke="#ACACAC" stroke-width="2"/>
<path d="M106.847 513.426V526.248H104.866V513.426H106.847ZM106.847 527.543V535.668H92.1709V527.543H106.847ZM94.126 529.168V534.043H104.892V529.168H94.126ZM96.208 516.523C96.1826 519.723 98.6201 522.541 101.946 523.709L100.931 525.232C98.3154 524.331 96.2334 522.427 95.2178 519.951C94.2148 522.592 92.1074 524.674 89.4033 525.664L88.3877 524.09C91.8154 522.896 94.1768 519.85 94.1768 516.523V514.314H96.208V516.523ZM128.2 513.4V523.023H131.806V524.699H128.2V535.973H126.194V513.4H128.2ZM110.401 529.955C112.242 529.955 114.388 529.955 116.622 529.879V527.365C113.994 527.073 112.28 525.537 112.306 523.303C112.28 520.764 114.438 519.113 117.638 519.113C120.786 519.113 122.97 520.764 122.995 523.303C122.97 525.537 121.23 527.073 118.628 527.391V529.803C120.735 529.701 122.855 529.536 124.823 529.244L124.95 530.768C120.024 531.605 114.692 531.656 110.731 531.656L110.401 529.955ZM124.417 516.168V517.793H110.808V516.168H116.622V513.451H118.628V516.168H124.417ZM117.638 520.662C115.556 520.662 114.159 521.729 114.159 523.303C114.159 524.877 115.556 525.893 117.638 525.867C119.694 525.893 121.091 524.877 121.091 523.303C121.091 521.729 119.694 520.662 117.638 520.662ZM153.185 515.838V517.463H139.728V515.838H145.466V513.299H147.446V515.838H153.185ZM146.456 518.631C149.706 518.656 151.864 520.23 151.89 522.719C151.864 525.182 149.706 526.781 146.456 526.781C143.206 526.781 140.997 525.182 141.022 522.719C140.997 520.23 143.206 518.656 146.456 518.631ZM146.456 520.18C144.323 520.205 142.901 521.195 142.927 522.719C142.901 524.217 144.323 525.182 146.456 525.182C148.563 525.182 149.985 524.217 150.011 522.719C149.985 521.195 148.563 520.205 146.456 520.18ZM157.323 513.4V519.672H160.726V521.348H157.323V527.518H155.343V513.4H157.323ZM157.323 528.762V535.973H155.343V530.387H142.546V528.762H157.323ZM166.743 526.959V529.6H178.017V526.959H180.022V535.668H164.763V526.959H166.743ZM166.743 534.068H178.017V531.174H166.743V534.068ZM182.714 523.709V525.359H162.147V523.709H182.714ZM173.472 514.721C173.472 517.514 177.585 520.002 181.546 520.51L180.81 522.109C177.306 521.589 173.878 519.799 172.456 517.26C171.009 519.812 167.556 521.589 164.077 522.109L163.315 520.51C167.327 519.977 171.415 517.59 171.415 514.721V513.654H173.472V514.721Z" fill="white"/>
<path d="M1.5 584.416C1.5 571.161 12.2452 560.416 25.5 560.416H245.5C258.755 560.416 269.5 571.161 269.5 584.416C269.5 597.671 258.755 608.416 245.5 608.416H25.5C12.2452 608.416 1.5 597.671 1.5 584.416Z" fill="white"/>
<path d="M1.5 584.416C1.5 571.161 12.2452 560.416 25.5 560.416H245.5C258.755 560.416 269.5 571.161 269.5 584.416C269.5 597.671 258.755 608.416 245.5 608.416H25.5C12.2452 608.416 1.5 597.671 1.5 584.416Z" stroke="#FF577C" stroke-width="2"/>
<path d="M75.3369 590.006C75.3369 586.832 78.1299 586.121 80.5166 585.943C81.3926 585.88 83.627 585.766 84.249 585.74V584.623C84.249 582.871 83.208 581.855 81.126 581.855C79.374 581.855 78.333 582.668 78.0283 583.709H75.7432C76.0225 581.5 78.1807 579.951 81.2275 579.951C83.0303 579.951 86.4072 580.484 86.4072 584.826V593.916H84.249V592.037H84.1475C83.6904 592.977 82.4209 594.246 80.0342 594.246C77.4189 594.246 75.3369 592.697 75.3369 590.006ZM77.5205 590.107C77.5205 591.555 78.7393 592.291 80.415 592.291C82.8779 592.291 84.249 590.641 84.249 588.914V587.518L80.7705 587.771C78.79 587.898 77.5205 588.609 77.5205 590.107ZM89.9111 593.916V580.129H92.0947V593.916H89.9111ZM91.0029 577.844C90.165 577.844 89.4795 577.209 89.4795 576.396C89.4795 575.584 90.165 574.949 91.0029 574.949C91.8408 574.949 92.5518 575.584 92.5518 576.396C92.5518 577.209 91.8408 577.844 91.0029 577.844ZM120.558 573.4V595.973H118.653V584.141H115.327V594.805H113.499V573.908H115.327V582.49H118.653V573.4H120.558ZM110.554 576.168V577.818H104.079V588.686C107.189 588.673 109.348 588.559 111.849 588.051L112.026 589.727C109.31 590.285 106.999 590.387 103.546 590.387H102.099V576.168H110.554ZM141.251 573.4V583.023H144.856V584.699H141.251V595.973H139.245V573.4H141.251ZM123.452 589.955C125.293 589.955 127.438 589.955 129.673 589.879V587.365C127.045 587.073 125.331 585.537 125.356 583.303C125.331 580.764 127.489 579.113 130.688 579.113C133.837 579.113 136.021 580.764 136.046 583.303C136.021 585.537 134.281 587.073 131.679 587.391V589.803C133.786 589.701 135.906 589.536 137.874 589.244L138.001 590.768C133.075 591.605 127.743 591.656 123.782 591.656L123.452 589.955ZM137.468 576.168V577.793H123.858V576.168H129.673V573.451H131.679V576.168H137.468ZM130.688 580.662C128.606 580.662 127.21 581.729 127.21 583.303C127.21 584.877 128.606 585.893 130.688 585.867C132.745 585.893 134.142 584.877 134.142 583.303C134.142 581.729 132.745 580.662 130.688 580.662ZM171.44 573.426V590.107H169.435V584.014H163.595C162.554 585.347 160.878 586.146 158.948 586.146C155.571 586.146 153.083 583.811 153.083 580.51C153.083 577.209 155.571 574.873 158.948 574.848C160.865 574.86 162.503 575.647 163.569 576.955H169.435V573.426H171.44ZM172.075 593.814V595.49H156.942V588.355H158.948V593.814H172.075ZM158.948 576.625C156.638 576.65 154.987 578.25 154.987 580.51C154.987 582.77 156.638 584.369 158.948 584.369C161.157 584.369 162.858 582.77 162.858 580.51C162.858 578.25 161.157 576.65 158.948 576.625ZM164.483 578.605C164.674 579.189 164.788 579.824 164.788 580.51C164.788 581.17 164.674 581.792 164.483 582.363H169.435V578.605H164.483ZM179.794 586.959V589.6H191.067V586.959H193.073V595.668H177.813V586.959H179.794ZM179.794 594.068H191.067V591.174H179.794V594.068ZM195.765 583.709V585.359H175.198V583.709H195.765ZM186.522 574.721C186.522 577.514 190.636 580.002 194.597 580.51L193.86 582.109C190.356 581.589 186.929 579.799 185.507 577.26C184.06 579.812 180.606 581.589 177.128 582.109L176.366 580.51C180.378 579.977 184.466 577.59 184.466 574.721V573.654H186.522V574.721Z" fill="#FF577C"/>
<rect x="1.5" y="620.416" width="268" height="48" rx="24" fill="white"/>
<rect x="1.5" y="620.416" width="268" height="48" rx="24" stroke="#ACACAC" stroke-width="2"/>
<path d="M132.605 633.4V655.973H130.6V633.4H132.605ZM125.928 635.863C125.902 642.363 122.881 648.102 115.314 651.732L114.223 650.107C120.329 647.213 123.439 642.884 123.896 637.488H115.264V635.863H125.928ZM157.057 645.842V647.492H136.389V645.842H145.732V643.455H139.08V637.945H152.385V635.609H139.004V633.984H154.391V639.443H141.061V641.855H154.873V643.455H147.688V645.842H157.057ZM154.518 649.219V655.77H152.512V650.844H138.699V649.219H154.518Z" fill="#ADADAD"/>
<rect x="1.5" y="680.416" width="268" height="48" rx="24" fill="white"/>
<rect x="1.5" y="680.416" width="268" height="48" rx="24" stroke="#ACACAC" stroke-width="2"/>
<path d="M106.199 699.773C106.199 703.48 108.002 707.314 110.998 708.939L109.805 710.514C107.621 709.257 106.06 706.959 105.26 704.242C104.409 707.2 102.733 709.727 100.486 711.072L99.1914 709.6C102.34 707.797 104.27 703.76 104.27 699.9V695.533H106.199V699.773ZM118.793 693.4V715.973H116.863V704.141H113.766V714.83H111.836V693.883H113.766V702.49H116.863V693.4H118.793ZM147.738 693.4V715.973H145.834V704.141H142.508V714.805H140.68V693.908H142.508V702.49H145.834V693.4H147.738ZM137.734 696.168V697.818H131.26V708.686C134.37 708.673 136.528 708.559 139.029 708.051L139.207 709.727C136.49 710.285 134.18 710.387 130.727 710.387H129.279V696.168H137.734ZM168.432 693.4V703.023H172.037V704.699H168.432V715.973H166.426V693.4H168.432ZM150.633 709.955C152.474 709.955 154.619 709.955 156.854 709.879V707.365C154.226 707.073 152.512 705.537 152.537 703.303C152.512 700.764 154.67 699.113 157.869 699.113C161.018 699.113 163.201 700.764 163.227 703.303C163.201 705.537 161.462 707.073 158.859 707.391V709.803C160.967 709.701 163.087 709.536 165.055 709.244L165.182 710.768C160.256 711.605 154.924 711.656 150.963 711.656L150.633 709.955ZM164.648 696.168V697.793H151.039V696.168H156.854V693.451H158.859V696.168H164.648ZM157.869 700.662C155.787 700.662 154.391 701.729 154.391 703.303C154.391 704.877 155.787 705.893 157.869 705.867C159.926 705.893 161.322 704.877 161.322 703.303C161.322 701.729 159.926 700.662 157.869 700.662Z" fill="#ADADAD"/>
<rect x="1.5" y="740.416" width="268" height="48" rx="24" fill="white"/>
<rect x="1.5" y="740.416" width="268" height="48" rx="24" stroke="#ACACAC" stroke-width="2"/>
<path d="M47.0264 753.908C51.9268 753.908 54.999 755.482 54.999 758.199C54.999 760.865 51.9268 762.414 47.0264 762.414C42.126 762.414 39.0283 760.865 39.0283 758.199C39.0283 755.482 42.126 753.908 47.0264 753.908ZM47.0264 755.508C43.3701 755.508 41.0596 756.523 41.085 758.199C41.0596 759.85 43.3701 760.814 47.0264 760.84C50.6318 760.814 52.9678 759.85 52.9678 758.199C52.9678 756.523 50.6318 755.508 47.0264 755.508ZM54.7959 768.254V775.668H39.2568V768.254H54.7959ZM41.2373 769.854V774.043H52.8408V769.854H41.2373ZM57.3096 764.369V766.02H36.7432V764.369H57.3096ZM66.9834 756.955C66.958 760.18 69.2432 763.023 72.5693 764.141L71.4521 765.689C68.9639 764.75 67.0088 762.922 66.0439 760.535C65.0664 763.239 62.9971 765.347 60.2803 766.375L59.1885 764.75C62.667 763.531 64.9775 760.535 65.0029 757.031V754.695H66.9834V756.955ZM77.9268 753.4V766.781H75.9209V759.9H70.8936V758.25H75.9209V753.4H77.9268ZM70.4365 767.441C75.1338 767.441 78.0029 768.99 78.0029 771.707C78.0029 774.398 75.1338 775.922 70.4365 775.922C65.7393 775.922 62.8701 774.398 62.8701 771.707C62.8701 768.99 65.7393 767.441 70.4365 767.441ZM70.4365 769.016C66.9834 769.016 64.8252 770.031 64.8506 771.707C64.8252 773.332 66.9834 774.322 70.4365 774.322C73.8896 774.322 76.0225 773.332 76.0225 771.707C76.0225 770.031 73.8896 769.016 70.4365 769.016ZM99.9912 754.873V764.064H89.4033V754.873H99.9912ZM91.3584 756.498V762.49H98.0361V756.498H91.3584ZM106.821 753.4V766.375H104.866V753.4H106.821ZM100.702 769.473C100.702 771.682 104.308 773.865 108.192 774.348L107.507 775.896C104.104 775.439 101.007 773.84 99.6865 771.732C98.3154 773.878 95.1416 775.439 91.7393 775.896L91.0283 774.348C94.9131 773.916 98.6455 771.732 98.6455 769.473H91.9678V767.924H98.6709V765.715H100.651V767.924H107.405V769.473H100.702ZM126.88 755.025V756.65H120.177V759.596H125.94V761.195H120.177V764.369C123.439 764.356 125.471 764.242 127.896 763.76L128.099 765.41C125.483 765.918 123.351 765.994 119.694 765.994H118.272V755.025H126.88ZM136.376 768.432V775.973H134.421V770.082H121.065V768.432H136.376ZM136.376 753.426V767.365H134.472V753.426H136.376ZM131.983 753.908V767.213H130.054V761.018H127.007V759.342H130.054V753.908H131.983ZM150.925 756.727C150.925 760.586 155.343 764.039 159.278 764.775L158.364 766.451C154.962 765.664 151.369 763.239 149.909 759.9C148.449 763.227 144.869 765.651 141.454 766.451L140.54 764.775C144.45 764.014 148.843 760.611 148.843 756.727V755H150.925V756.727ZM160.345 771.25V772.9H139.677V771.25H160.345ZM180.429 765.613V767.238H164.813V755.355H180.175V757.031H166.845V760.383H179.692V761.982H166.845V765.613H180.429ZM182.815 771.377V773.027H162.147V771.377H182.815ZM209.78 753.4V765.512H207.8V753.4H209.78ZM197.136 766.654V769.396H207.8V766.654H209.78V775.668H195.155V766.654H197.136ZM197.136 774.043H207.8V770.996H197.136V774.043ZM197.593 754.518C201.021 754.492 203.509 756.6 203.509 759.697C203.509 762.77 201.021 764.877 197.593 764.877C194.165 764.877 191.677 762.77 191.677 759.697C191.677 756.6 194.165 754.492 197.593 754.518ZM197.593 756.193C195.282 756.168 193.606 757.641 193.632 759.697C193.606 761.754 195.282 763.227 197.593 763.227C199.878 763.227 201.554 761.754 201.554 759.697C201.554 757.641 199.878 756.168 197.593 756.193ZM224.329 754.797V761.119H216.56V764.623C220.8 764.623 222.983 764.56 225.649 764.064L225.853 765.715C223.034 766.172 220.749 766.248 216.179 766.248H214.579V759.596H222.349V756.396H214.528V754.797H224.329ZM232.327 753.426V767.289H230.321V763.1H225.827V761.449H230.321V758.402H225.827V756.777H230.321V753.426H232.327ZM232.327 768.508V776.023H230.321V770.133H217.118V768.508H232.327Z" fill="#ADADAD"/>
<rect x="1.5" y="800.416" width="268" height="48" rx="24" fill="white"/>
<rect x="1.5" y="800.416" width="268" height="48" rx="24" stroke="#ACACAC" stroke-width="2"/>
<path d="M106.821 813.4V825.131H104.866V813.4H106.821ZM106.847 826.223V831.605H94.1768V834.119H107.659V835.719H92.2217V830.107H104.866V827.797H92.1709V826.223H106.847ZM96.335 816.6C96.335 819.545 98.7471 822.109 102.149 823.125L101.159 824.674C98.4932 823.836 96.373 822.046 95.3701 819.723C94.3926 822.262 92.2344 824.242 89.4795 825.156L88.54 823.582C91.917 822.465 94.3291 819.697 94.3291 816.6V816.346H89.0479V814.695H101.54V816.346H96.335V816.6ZM131.323 824.953V826.604H122.132V831.225H120.151V826.604H110.655V824.953H131.323ZM128.632 814.518V822.363H113.347V814.518H128.632ZM115.302 816.092V820.764H126.651V816.092H115.302ZM129.013 833.814V835.49H113.296V828.99H115.302V833.814H129.013ZM160.243 827.061V828.736H150.925V836.023H148.97V828.736H139.677V827.061H160.243ZM150.95 817.869C150.95 820.688 154.886 823.15 158.923 823.709L158.187 825.309C154.695 824.775 151.407 823.023 149.985 820.561C148.538 823.049 145.199 824.775 141.708 825.309L140.972 823.709C144.983 823.15 148.97 820.713 148.97 817.869V817.844H141.683V816.219H148.97V813.4H150.925V816.219H158.263V817.844H150.95V817.869ZM169.841 818.809C169.841 821.805 172.228 824.445 175.579 825.486L174.589 827.086C171.974 826.235 169.917 824.445 168.901 822.135C167.924 824.61 165.88 826.527 163.214 827.467L162.224 825.918C165.55 824.801 167.886 821.982 167.886 818.809V818.072H162.782V816.447H167.886V813.553H169.892V816.447H174.944V818.072H169.841V818.809ZM180.86 813.426V830.285H178.854V822.033H174.157V820.383H178.854V813.426H180.86ZM181.495 833.814V835.49H166.362V828.762H168.368V833.814H181.495Z" fill="#ADADAD"/>
<rect x="326.5" y="200.416" width="258" height="48" rx="24" fill="white"/>
<rect x="326.5" y="200.416" width="258" height="48" rx="24" stroke="#FF577C" stroke-width="2"/>
<path d="M463.231 229.219V235.668H447.692V229.219H463.231ZM449.673 230.768V234.119H461.276V230.768H449.673ZM464.552 215.305V216.854H446.245V215.305H454.472V213.07H456.452V215.305H464.552ZM455.462 217.768C460.134 217.793 462.774 218.859 462.774 220.967C462.774 222.947 460.502 224.001 456.452 224.141V225.893H465.745V227.492H445.179V225.893H454.472V224.141C450.409 224.001 448.124 222.947 448.124 220.967C448.124 218.859 450.79 217.793 455.462 217.768ZM455.462 219.164C452.136 219.189 450.231 219.799 450.257 220.967C450.231 222.109 452.136 222.77 455.462 222.77C458.763 222.77 460.667 222.109 460.667 220.967C460.667 219.799 458.763 219.189 455.462 219.164Z" fill="#FF577C"/>
<rect x="326.5" y="260.416" width="258" height="48" rx="24" fill="white"/>
<rect x="326.5" y="260.416" width="258" height="48" rx="24" stroke="#ACACAC" stroke-width="2"/>
<path d="M445.598 274.873C445.572 280.535 441.535 284.598 435.035 286.451L434.197 284.877C439.593 283.354 443.033 280.357 443.465 276.523H435.365V274.873H445.598ZM452.656 273.426V286.299H450.65V280.916H445.648V279.24H450.65V273.426H452.656ZM452.656 287.264V295.668H438.006V287.264H452.656ZM439.936 288.863V294.043H450.676V288.863H439.936ZM463.143 277.818C463.143 280.383 464.869 282.973 467.764 284.115L466.697 285.664C464.564 284.775 463.003 283.125 462.203 281.119C461.365 283.315 459.74 285.232 457.531 286.223L456.439 284.674C459.41 283.354 461.238 280.383 461.238 277.818V274.797H463.143V277.818ZM475.584 273.426V287.061H473.68V280.992H470.684V286.934H468.805V273.832H470.684V279.316H473.68V273.426H475.584ZM475.584 288.305V295.973H473.629V289.955H460.375V288.305H475.584Z" fill="#A6A6A6"/>
<rect x="326.5" y="320.416" width="258" height="48" rx="24" fill="white"/>
<rect x="326.5" y="320.416" width="258" height="48" rx="24" stroke="#ACACAC" stroke-width="2"/>
<path d="M401.964 347.061V348.736H392.646V356.023H390.69V348.736H381.397V347.061H401.964ZM392.671 337.869C392.671 340.688 396.606 343.15 400.644 343.709L399.907 345.309C396.416 344.775 393.128 343.023 391.706 340.561C390.259 343.049 386.92 344.775 383.429 345.309L382.692 343.709C386.704 343.15 390.69 340.713 390.69 337.869V337.844H383.403V336.219H390.69V333.4H392.646V336.219H399.983V337.844H392.671V337.869ZM411.562 338.809C411.562 341.805 413.948 344.445 417.3 345.486L416.31 347.086C413.694 346.235 411.638 344.445 410.622 342.135C409.645 344.61 407.601 346.527 404.935 347.467L403.944 345.918C407.271 344.801 409.606 341.982 409.606 338.809V338.072H404.503V336.447H409.606V333.553H411.612V336.447H416.665V338.072H411.562V338.809ZM422.581 333.426V350.285H420.575V342.033H415.878V340.383H420.575V333.426H422.581ZM423.216 353.814V355.49H408.083V348.762H410.089V353.814H423.216ZM433.728 334.67L427.786 356.684H425.806L431.722 334.67H433.728ZM453.659 333.426V349.93H451.679V333.426H453.659ZM454.37 353.814V355.49H439.085V348.254H441.065V353.814H454.37ZM441.472 335C444.849 335 447.388 337.285 447.388 340.535C447.388 343.836 444.849 346.096 441.472 346.096C438.095 346.096 435.556 343.836 435.556 340.535C435.556 337.285 438.095 335 441.472 335ZM441.472 336.752C439.187 336.752 437.485 338.326 437.511 340.535C437.485 342.795 439.187 344.344 441.472 344.344C443.706 344.344 445.433 342.795 445.433 340.535C445.433 338.326 443.706 336.752 441.472 336.752ZM476.155 333.4V355.973H474.149V333.4H476.155ZM469.478 335.863C469.452 342.363 466.431 348.102 458.864 351.732L457.772 350.107C463.879 347.213 466.989 342.884 467.446 337.488H458.813V335.863H469.478ZM492.71 334.771C494.614 334.759 496.239 335.47 497.28 336.676H503.196V333.4H505.202V346.781H503.196V343.557H497.306C496.239 344.763 494.614 345.474 492.71 345.461C489.333 345.486 486.845 343.277 486.845 340.129C486.845 336.955 489.333 334.746 492.71 334.771ZM492.71 336.498C490.399 336.473 488.749 337.996 488.749 340.129C488.749 342.236 490.399 343.76 492.71 343.76C494.944 343.76 496.62 342.236 496.62 340.129C496.62 337.996 494.944 336.473 492.71 336.498ZM497.712 347.314C502.384 347.314 505.278 348.889 505.278 351.605C505.278 354.348 502.384 355.922 497.712 355.922C493.015 355.922 490.146 354.348 490.146 351.605C490.146 348.889 493.015 347.314 497.712 347.314ZM497.712 348.863C494.259 348.863 492.101 349.904 492.101 351.605C492.101 353.307 494.259 354.322 497.712 354.322C501.19 354.322 503.323 353.307 503.323 351.605C503.323 349.904 501.19 348.863 497.712 348.863ZM498.245 338.301C498.436 338.859 498.55 339.469 498.55 340.129C498.55 340.764 498.436 341.36 498.245 341.906H503.196V338.301H498.245ZM516.501 337.057C516.501 340.129 518.837 342.947 522.112 344.064L521.021 345.639C518.52 344.725 516.552 342.858 515.562 340.51C514.597 343.163 512.591 345.258 509.95 346.273L508.884 344.674C512.261 343.404 514.521 340.383 514.546 336.904V334.568H516.501V337.057ZM526.606 333.4V339.291H530.009V340.967H526.606V347.137H524.626V333.4H526.606ZM519.37 347.721C524.017 347.721 526.81 349.219 526.81 351.809C526.81 354.449 524.017 355.922 519.37 355.922C514.724 355.922 511.88 354.449 511.88 351.809C511.88 349.219 514.724 347.721 519.37 347.721ZM519.37 349.32C515.968 349.32 513.86 350.26 513.886 351.809C513.86 353.408 515.968 354.322 519.37 354.348C522.798 354.322 524.88 353.408 524.88 351.809C524.88 350.26 522.798 349.32 519.37 349.32Z" fill="#A6A6A6"/>
<rect x="326.5" y="380.416" width="258" height="48" rx="24" fill="white"/>
<rect x="326.5" y="380.416" width="258" height="48" rx="24" stroke="#ACACAC" stroke-width="2"/>
<path d="M430.109 393.426V406.248H428.129V393.426H430.109ZM430.109 407.543V415.668H415.434V407.543H430.109ZM417.389 409.168V414.043H428.154V409.168H417.389ZM419.471 396.523C419.445 399.723 421.883 402.541 425.209 403.709L424.193 405.232C421.578 404.331 419.496 402.427 418.48 399.951C417.478 402.592 415.37 404.674 412.666 405.664L411.65 404.09C415.078 402.896 417.439 399.85 417.439 396.523V394.314H419.471V396.523ZM451.463 393.4V403.023H455.068V404.699H451.463V415.973H449.457V393.4H451.463ZM433.664 409.955C435.505 409.955 437.65 409.955 439.885 409.879V407.365C437.257 407.073 435.543 405.537 435.568 403.303C435.543 400.764 437.701 399.113 440.9 399.113C444.049 399.113 446.232 400.764 446.258 403.303C446.232 405.537 444.493 407.073 441.891 407.391V409.803C443.998 409.701 446.118 409.536 448.086 409.244L448.213 410.768C443.287 411.605 437.955 411.656 433.994 411.656L433.664 409.955ZM447.68 396.168V397.793H434.07V396.168H439.885V393.451H441.891V396.168H447.68ZM440.9 400.662C438.818 400.662 437.422 401.729 437.422 403.303C437.422 404.877 438.818 405.893 440.9 405.867C442.957 405.893 444.354 404.877 444.354 403.303C444.354 401.729 442.957 400.662 440.9 400.662ZM462.635 394.771C464.539 394.759 466.164 395.47 467.205 396.676H473.121V393.4H475.127V406.781H473.121V403.557H467.23C466.164 404.763 464.539 405.474 462.635 405.461C459.258 405.486 456.77 403.277 456.77 400.129C456.77 396.955 459.258 394.746 462.635 394.771ZM462.635 396.498C460.324 396.473 458.674 397.996 458.674 400.129C458.674 402.236 460.324 403.76 462.635 403.76C464.869 403.76 466.545 402.236 466.545 400.129C466.545 397.996 464.869 396.473 462.635 396.498ZM467.637 407.314C472.309 407.314 475.203 408.889 475.203 411.605C475.203 414.348 472.309 415.922 467.637 415.922C462.939 415.922 460.07 414.348 460.07 411.605C460.07 408.889 462.939 407.314 467.637 407.314ZM467.637 408.863C464.184 408.863 462.025 409.904 462.025 411.605C462.025 413.307 464.184 414.322 467.637 414.322C471.115 414.322 473.248 413.307 473.248 411.605C473.248 409.904 471.115 408.863 467.637 408.863ZM468.17 398.301C468.36 398.859 468.475 399.469 468.475 400.129C468.475 400.764 468.36 401.36 468.17 401.906H473.121V398.301H468.17ZM486.426 397.057C486.426 400.129 488.762 402.947 492.037 404.064L490.945 405.639C488.444 404.725 486.477 402.858 485.486 400.51C484.521 403.163 482.516 405.258 479.875 406.273L478.809 404.674C482.186 403.404 484.445 400.383 484.471 396.904V394.568H486.426V397.057ZM496.531 393.4V399.291H499.934V400.967H496.531V407.137H494.551V393.4H496.531ZM489.295 407.721C493.941 407.721 496.734 409.219 496.734 411.809C496.734 414.449 493.941 415.922 489.295 415.922C484.648 415.922 481.805 414.449 481.805 411.809C481.805 409.219 484.648 407.721 489.295 407.721ZM489.295 409.32C485.893 409.32 483.785 410.26 483.811 411.809C483.785 413.408 485.893 414.322 489.295 414.348C492.723 414.322 494.805 413.408 494.805 411.809C494.805 410.26 492.723 409.32 489.295 409.32Z" fill="#A6A6A6"/>
<rect x="326.5" y="440.416" width="258" height="48" rx="24" fill="#ACACAC"/>
<rect x="326.5" y="440.416" width="258" height="48" rx="24" stroke="#ACACAC" stroke-width="2"/>
<path d="M452.605 453.4V475.973H450.6V453.4H452.605ZM445.928 455.863C445.902 462.363 442.881 468.102 435.314 471.732L434.223 470.107C440.329 467.213 443.439 462.884 443.896 457.488H435.264V455.863H445.928ZM477.057 465.842V467.492H456.389V465.842H465.732V463.455H459.08V457.945H472.385V455.609H459.004V453.984H474.391V459.443H461.061V461.855H474.873V463.455H467.688V465.842H477.057ZM474.518 469.219V475.77H472.512V470.844H458.699V469.219H474.518Z" fill="white"/>
<rect x="326.5" y="500.416" width="258" height="48" rx="24" fill="#ACACAC"/>
<rect x="326.5" y="500.416" width="258" height="48" rx="24" stroke="#ACACAC" stroke-width="2"/>
<path d="M426.199 519.773C426.199 523.48 428.002 527.314 430.998 528.939L429.805 530.514C427.621 529.257 426.06 526.959 425.26 524.242C424.409 527.2 422.733 529.727 420.486 531.072L419.191 529.6C422.34 527.797 424.27 523.76 424.27 519.9V515.533H426.199V519.773ZM438.793 513.4V535.973H436.863V524.141H433.766V534.83H431.836V513.883H433.766V522.49H436.863V513.4H438.793ZM467.738 513.4V535.973H465.834V524.141H462.508V534.805H460.68V513.908H462.508V522.49H465.834V513.4H467.738ZM457.734 516.168V517.818H451.26V528.686C454.37 528.673 456.528 528.559 459.029 528.051L459.207 529.727C456.49 530.285 454.18 530.387 450.727 530.387H449.279V516.168H457.734ZM488.432 513.4V523.023H492.037V524.699H488.432V535.973H486.426V513.4H488.432ZM470.633 529.955C472.474 529.955 474.619 529.955 476.854 529.879V527.365C474.226 527.073 472.512 525.537 472.537 523.303C472.512 520.764 474.67 519.113 477.869 519.113C481.018 519.113 483.201 520.764 483.227 523.303C483.201 525.537 481.462 527.073 478.859 527.391V529.803C480.967 529.701 483.087 529.536 485.055 529.244L485.182 530.768C480.256 531.605 474.924 531.656 470.963 531.656L470.633 529.955ZM484.648 516.168V517.793H471.039V516.168H476.854V513.451H478.859V516.168H484.648ZM477.869 520.662C475.787 520.662 474.391 521.729 474.391 523.303C474.391 524.877 475.787 525.893 477.869 525.867C479.926 525.893 481.322 524.877 481.322 523.303C481.322 521.729 479.926 520.662 477.869 520.662Z" fill="white"/>
<rect x="326.5" y="560.416" width="258" height="48" rx="24" fill="#ACACAC"/>
<rect x="326.5" y="560.416" width="258" height="48" rx="24" stroke="#ACACAC" stroke-width="2"/>
<path d="M444.227 573.908C449.127 573.908 452.199 575.482 452.199 578.199C452.199 580.865 449.127 582.414 444.227 582.414C439.326 582.414 436.229 580.865 436.229 578.199C436.229 575.482 439.326 573.908 444.227 573.908ZM444.227 575.508C440.57 575.508 438.26 576.523 438.285 578.199C438.26 579.85 440.57 580.814 444.227 580.84C447.832 580.814 450.168 579.85 450.168 578.199C450.168 576.523 447.832 575.508 444.227 575.508ZM451.996 588.254V595.668H436.457V588.254H451.996ZM438.438 589.854V594.043H450.041V589.854H438.438ZM454.51 584.369V586.02H433.943V584.369H454.51ZM464.184 576.955C464.158 580.18 466.443 583.023 469.77 584.141L468.652 585.689C466.164 584.75 464.209 582.922 463.244 580.535C462.267 583.239 460.197 585.347 457.48 586.375L456.389 584.75C459.867 583.531 462.178 580.535 462.203 577.031V574.695H464.184V576.955ZM475.127 573.4V586.781H473.121V579.9H468.094V578.25H473.121V573.4H475.127ZM467.637 587.441C472.334 587.441 475.203 588.99 475.203 591.707C475.203 594.398 472.334 595.922 467.637 595.922C462.939 595.922 460.07 594.398 460.07 591.707C460.07 588.99 462.939 587.441 467.637 587.441ZM467.637 589.016C464.184 589.016 462.025 590.031 462.051 591.707C462.025 593.332 464.184 594.322 467.637 594.322C471.09 594.322 473.223 593.332 473.223 591.707C473.223 590.031 471.09 589.016 467.637 589.016Z" fill="white"/>
<rect x="326.5" y="620.416" width="258" height="48" rx="24" fill="white"/>
<rect x="326.5" y="620.416" width="258" height="48" rx="24" stroke="#ACACAC" stroke-width="2"/>
<path d="M406.636 634.238C410.013 634.264 412.476 636.295 412.476 639.24C412.476 642.186 410.013 644.217 406.636 644.217C403.208 644.217 400.771 642.186 400.771 639.24C400.771 636.295 403.208 634.264 406.636 634.238ZM406.636 635.914C404.376 635.914 402.7 637.285 402.726 639.24C402.7 641.221 404.376 642.592 406.636 642.592C408.87 642.592 410.546 641.221 410.546 639.24C410.546 637.285 408.87 635.914 406.636 635.914ZM418.874 633.4V645.004H416.894V633.4H418.874ZM418.874 646.096V651.529H406.204V654.068H419.687V655.668H404.249V650.031H416.894V647.695H404.198V646.096H418.874ZM429.106 634.238C432.483 634.264 434.946 636.295 434.946 639.24C434.946 642.186 432.483 644.217 429.106 644.217C425.679 644.217 423.241 642.186 423.241 639.24C423.241 636.295 425.679 634.264 429.106 634.238ZM429.106 635.914C426.847 635.914 425.171 637.285 425.196 639.24C425.171 641.221 426.847 642.592 429.106 642.592C431.341 642.592 433.017 641.221 433.017 639.24C433.017 637.285 431.341 635.914 429.106 635.914ZM441.345 633.4V645.004H439.364V633.4H441.345ZM441.345 646.096V651.529H428.675V654.068H442.157V655.668H426.72V650.031H439.364V647.695H426.669V646.096H441.345ZM455.513 635.609V637.133C455.513 638.847 455.513 641.068 454.903 644.09C455.563 644.039 456.198 643.963 456.808 643.887L456.909 645.436C455.31 645.702 453.507 645.88 451.704 645.994V654.119H449.8V646.121C448.099 646.197 446.486 646.235 445.153 646.248L444.874 644.521C447.083 644.509 450.117 644.445 452.974 644.242C453.228 643.087 453.38 642.059 453.481 641.119L446.067 641.754L445.788 640.104L453.608 639.646C453.659 638.758 453.659 637.971 453.659 637.26H446.448V635.609H455.513ZM464.399 633.4V655.973H462.495V633.4H464.399ZM460.083 633.908V654.703H458.204V649.473H453.913V647.898H458.204V633.908H460.083ZM478.897 636.727C478.897 640.586 483.315 644.039 487.251 644.775L486.337 646.451C482.935 645.664 479.342 643.239 477.882 639.9C476.422 643.227 472.842 645.651 469.427 646.451L468.513 644.775C472.423 644.014 476.815 640.611 476.815 636.727V635H478.897V636.727ZM488.317 651.25V652.9H467.649V651.25H488.317ZM508.401 645.613V647.238H492.786V635.355H508.147V637.031H494.817V640.383H507.665V641.982H494.817V645.613H508.401ZM510.788 651.377V653.027H490.12V651.377H510.788Z" fill="#A6A6A6"/>
<rect x="326.5" y="680.416" width="258" height="48" rx="24" fill="white"/>
<rect x="326.5" y="680.416" width="258" height="48" rx="24" stroke="#ACACAC" stroke-width="2"/>
<path d="M451.59 693.4V698.301H454.992V699.977H451.59V704.902H449.609V693.4H451.59ZM451.59 705.969V711.479H439.199V714.068H452.428V715.668H437.244V709.955H449.609V707.568H437.193V705.969H451.59ZM440.24 694.238C443.643 694.264 446.105 696.295 446.105 699.24C446.105 702.211 443.643 704.268 440.24 704.268C436.863 704.268 434.35 702.211 434.375 699.24C434.35 696.295 436.863 694.264 440.24 694.238ZM440.24 695.914C437.98 695.889 436.305 697.285 436.33 699.24C436.305 701.221 437.98 702.643 440.24 702.643C442.5 702.643 444.15 701.221 444.15 699.24C444.15 697.285 442.5 695.889 440.24 695.914ZM475.051 693.426V706.807H473.07V693.426H475.051ZM467.865 694.797V700.916H459.537V704.039C463.574 704.064 466.596 703.938 470.252 703.328L470.48 705.004C466.697 705.588 463.6 705.715 459.436 705.715H457.607V699.342H465.885V696.396H457.557V694.797H467.865ZM475.051 708.025V715.668H460.375V708.025H475.051ZM462.33 709.65V714.043H473.096V709.65H462.33Z" fill="#A6A6A6"/>
<rect x="616.5" y="200.416" width="258" height="48" rx="24" fill="white"/>
<rect x="616.5" y="200.416" width="258" height="48" rx="24" stroke="#FF577C" stroke-width="2"/>
<path d="M737.451 215.838V217.463H723.994V215.838H729.732V213.299H731.713V215.838H737.451ZM730.723 218.631C733.973 218.656 736.131 220.23 736.156 222.719C736.131 225.182 733.973 226.781 730.723 226.781C727.473 226.781 725.264 225.182 725.289 222.719C725.264 220.23 727.473 218.656 730.723 218.631ZM730.723 220.18C728.59 220.205 727.168 221.195 727.193 222.719C727.168 224.217 728.59 225.182 730.723 225.182C732.83 225.182 734.252 224.217 734.277 222.719C734.252 221.195 732.83 220.205 730.723 220.18ZM741.59 213.4V219.672H744.992V221.348H741.59V227.518H739.609V213.4H741.59ZM741.59 228.762V235.973H739.609V230.387H726.812V228.762H741.59ZM751.01 226.959V229.6H762.283V226.959H764.289V235.668H749.029V226.959H751.01ZM751.01 234.068H762.283V231.174H751.01V234.068ZM766.98 223.709V225.359H746.414V223.709H766.98ZM757.738 214.721C757.738 217.514 761.852 220.002 765.812 220.51L765.076 222.109C761.572 221.589 758.145 219.799 756.723 217.26C755.275 219.812 751.822 221.589 748.344 222.109L747.582 220.51C751.594 219.977 755.682 217.59 755.682 214.721V213.654H757.738V214.721Z" fill="#FF577C"/>
<rect x="616.5" y="260.416" width="258" height="48" rx="24" fill="white"/>
<rect x="616.5" y="260.416" width="258" height="48" rx="24" stroke="#ACACAC" stroke-width="2"/>
<path d="M679.903 273.4V295.973H677.897V273.4H679.903ZM673.226 275.863C673.2 282.363 670.179 288.102 662.612 291.732L661.521 290.107C667.627 287.213 670.737 282.884 671.194 277.488H662.562V275.863H673.226ZM704.38 291.453V293.129H683.712V291.453H693.03V286.273H694.985V291.453H704.38ZM702.399 277.006V278.656H695.036C695.049 282.198 698.807 284.801 703.136 285.512L702.374 287.086C698.756 286.438 695.442 284.623 694.021 281.805C692.586 284.623 689.272 286.438 685.642 287.086L684.854 285.512C689.209 284.801 692.992 282.198 693.005 278.656H685.642V277.006H693.03V273.883H694.985V277.006H702.399ZM730.354 273.426V280.865H733.757V282.541H730.354V290.336H728.374V273.426H730.354ZM726.216 276.193V277.818H712.759V276.193H718.497V273.426H720.478V276.193H726.216ZM719.487 279.062C722.712 279.062 724.896 280.713 724.921 283.277C724.896 285.816 722.712 287.441 719.487 287.441C716.237 287.441 714.028 285.816 714.054 283.277C714.028 280.713 716.237 279.062 719.487 279.062ZM719.487 280.637C717.354 280.637 715.933 281.678 715.958 283.277C715.933 284.877 717.354 285.893 719.487 285.867C721.595 285.893 723.017 284.877 723.042 283.277C723.017 281.678 721.595 280.637 719.487 280.637ZM731.396 293.814V295.49H716.237V288.99H718.192V293.814H731.396ZM753.13 274.518V276.143C753.13 277.831 753.13 279.85 752.571 282.566H755.847V284.191H746.452V288.355H753.282V295.973H751.276V290.006H737.312V288.355H744.472V284.191H735.179V282.566H750.565C751.149 279.799 751.149 277.831 751.149 276.143H737.794V274.518H753.13ZM763.718 275.152C766.79 275.178 768.999 277.806 769.329 282.033H774.382V273.4H776.362V296.023H774.382V283.684H769.354C769.113 288.102 766.866 290.869 763.718 290.869C760.392 290.869 758.056 287.822 758.056 283.023C758.056 278.225 760.392 275.178 763.718 275.152ZM763.718 276.93C761.483 276.955 759.96 279.342 759.96 283.023C759.96 286.705 761.483 289.092 763.718 289.092C765.927 289.092 767.476 286.705 767.476 283.023C767.476 279.342 765.927 276.955 763.718 276.93ZM800.153 275.838V277.463H786.696V275.838H792.435V273.299H794.415V275.838H800.153ZM793.425 278.631C796.675 278.656 798.833 280.23 798.858 282.719C798.833 285.182 796.675 286.781 793.425 286.781C790.175 286.781 787.966 285.182 787.991 282.719C787.966 280.23 790.175 278.656 793.425 278.631ZM793.425 280.18C791.292 280.205 789.87 281.195 789.896 282.719C789.87 284.217 791.292 285.182 793.425 285.182C795.532 285.182 796.954 284.217 796.979 282.719C796.954 281.195 795.532 280.205 793.425 280.18ZM804.292 273.4V279.672H807.694V281.348H804.292V287.518H802.312V273.4H804.292ZM804.292 288.762V295.973H802.312V290.387H789.515V288.762H804.292ZM813.712 286.959V289.6H824.985V286.959H826.991V295.668H811.731V286.959H813.712ZM813.712 294.068H824.985V291.174H813.712V294.068ZM829.683 283.709V285.359H809.116V283.709H829.683ZM820.44 274.721C820.44 277.514 824.554 280.002 828.515 280.51L827.778 282.109C824.274 281.589 820.847 279.799 819.425 277.26C817.978 279.812 814.524 281.589 811.046 282.109L810.284 280.51C814.296 279.977 818.384 277.59 818.384 274.721V273.654H820.44V274.721Z" fill="#A6A6A6"/>
<rect x="616.5" y="320.416" width="258" height="48" rx="24" fill="white"/>
<rect x="616.5" y="320.416" width="258" height="48" rx="24" stroke="#ACACAC" stroke-width="2"/>
<path d="M690.072 335.051V343.938C693.284 343.95 696.623 343.747 700.305 342.973L700.533 344.623C696.699 345.436 693.271 345.639 689.869 345.639H688.066V335.051H690.072ZM704.621 333.426V340.129H708.023V341.855H704.621V349.727H702.641V333.426H704.621ZM705.434 353.814V355.49H690.58V348.127H692.561V353.814H705.434ZM728.057 333.4V356.023H726.051V333.4H728.057ZM716.047 335.152C719.398 335.178 721.811 338.225 721.811 343.023C721.811 347.822 719.398 350.869 716.047 350.869C712.67 350.869 710.283 347.822 710.283 343.023C710.283 338.225 712.67 335.178 716.047 335.152ZM716.047 336.93C713.787 336.955 712.213 339.342 712.213 343.023C712.213 346.705 713.787 349.092 716.047 349.092C718.307 349.092 719.881 346.705 719.881 343.023C719.881 339.342 718.307 336.955 716.047 336.93ZM750.146 343.988V345.613H743.164V351.453H752.584V353.129H731.916V351.453H741.209V345.613H734.557V335.254H749.918V336.879H736.562V343.988H750.146ZM779.625 333.4V345.08H777.619V339.215H772.592V337.564H777.619V333.4H779.625ZM779.625 346.223V351.605H767.006V354.068H780.463V355.668H765.051V350.082H777.645V347.822H765V346.223H779.625ZM768.605 336.27C768.58 339.24 770.916 341.932 774.217 343.023L773.15 344.572C770.649 343.684 768.656 341.906 767.666 339.621C766.701 342.198 764.657 344.166 761.979 345.131L760.887 343.531C764.289 342.414 766.625 339.57 766.65 336.27V334.137H768.605V336.27ZM802.096 333.4V346.857H800.09V340.941H795.545V339.291H800.09V333.4H802.096ZM794.605 347.568C799.303 347.568 802.172 349.092 802.172 351.758C802.172 354.424 799.303 355.947 794.605 355.973C789.908 355.947 787.039 354.424 787.039 351.758C787.039 349.092 789.908 347.568 794.605 347.568ZM794.605 349.117C791.152 349.117 788.994 350.107 789.02 351.758C788.994 353.383 791.152 354.373 794.605 354.373C798.059 354.373 800.191 353.383 800.191 351.758C800.191 350.107 798.059 349.117 794.605 349.117ZM791.229 337.539C791.229 340.484 793.488 343.277 796.789 344.42L795.748 346.02C793.209 345.105 791.241 343.214 790.289 340.865C789.299 343.519 787.204 345.639 784.525 346.654L783.484 345.055C786.836 343.836 789.223 340.789 789.223 337.564V336.727H784.119V335.051H796.281V336.727H791.229V337.539Z" fill="#A6A6A6"/>
<path d="M906.5 224.416C906.5 211.161 917.245 200.416 930.5 200.416H1140.5C1153.75 200.416 1164.5 211.161 1164.5 224.416C1164.5 237.671 1153.75 248.416 1140.5 248.416H930.5C917.245 248.416 906.5 237.671 906.5 224.416Z" fill="white"/>
<path d="M906.5 224.416C906.5 211.161 917.245 200.416 930.5 200.416H1140.5C1153.75 200.416 1164.5 211.161 1164.5 224.416C1164.5 237.671 1153.75 248.416 1140.5 248.416H930.5C917.245 248.416 906.5 237.671 906.5 224.416Z" stroke="#FF577C" stroke-width="2"/>
<path d="M1026.61 215.127V216.777H1024.3V223.988C1025.36 223.925 1026.37 223.836 1027.35 223.709L1027.45 225.232C1023.06 225.918 1017.9 225.969 1014.25 225.969L1013.99 224.293L1016.91 224.268V216.777H1014.63V215.127H1026.61ZM1032.66 213.4V227.34H1030.65V223.15H1026.84V221.5H1030.65V219.113H1026.84V217.463H1030.65V213.4H1032.66ZM1025.17 227.822C1029.89 227.822 1032.73 229.295 1032.73 231.859C1032.73 234.449 1029.89 235.922 1025.17 235.922C1020.44 235.922 1017.6 234.449 1017.6 231.859C1017.6 229.295 1020.44 227.822 1025.17 227.822ZM1025.17 229.371C1021.69 229.371 1019.55 230.311 1019.58 231.859C1019.55 233.434 1021.69 234.348 1025.17 234.348C1028.64 234.348 1030.75 233.434 1030.75 231.859C1030.75 230.311 1028.64 229.371 1025.17 229.371ZM1018.84 224.242C1020 224.217 1021.19 224.179 1022.37 224.115V216.777H1018.84V224.242ZM1053.88 213.4V222.592H1057.54V224.268H1053.88V235.973H1051.9V213.4H1053.88ZM1048.04 215.838C1048.04 222.236 1045.05 228.051 1037.68 231.682L1036.57 230.107C1042.41 227.2 1045.58 222.858 1046.04 217.514H1037.61V215.838H1048.04Z" fill="#FF577C"/>
<rect x="906.5" y="260.416" width="258" height="48" rx="24" fill="white"/>
<rect x="906.5" y="260.416" width="258" height="48" rx="24" stroke="#ACACAC" stroke-width="2"/>
<path d="M1001.72 275.838V277.463H988.261V275.838H993.999V273.299H995.979V275.838H1001.72ZM994.989 278.631C998.239 278.656 1000.4 280.23 1000.42 282.719C1000.4 285.182 998.239 286.781 994.989 286.781C991.739 286.781 989.53 285.182 989.556 282.719C989.53 280.23 991.739 278.656 994.989 278.631ZM994.989 280.18C992.856 280.205 991.435 281.195 991.46 282.719C991.435 284.217 992.856 285.182 994.989 285.182C997.097 285.182 998.519 284.217 998.544 282.719C998.519 281.195 997.097 280.205 994.989 280.18ZM1005.86 273.4V279.672H1009.26V281.348H1005.86V287.518H1003.88V273.4H1005.86ZM1005.86 288.762V295.973H1003.88V290.387H991.079V288.762H1005.86ZM1015.28 286.959V289.6H1026.55V286.959H1028.56V295.668H1013.3V286.959H1015.28ZM1015.28 294.068H1026.55V291.174H1015.28V294.068ZM1031.25 283.709V285.359H1010.68V283.709H1031.25ZM1022 274.721C1022 277.514 1026.12 280.002 1030.08 280.51L1029.34 282.109C1025.84 281.589 1022.41 279.799 1020.99 277.26C1019.54 279.812 1016.09 281.589 1012.61 282.109L1011.85 280.51C1015.86 279.977 1019.95 277.59 1019.95 274.721V273.654H1022V274.721ZM1058.34 273.4V295.973H1056.33V273.4H1058.34ZM1051.66 275.863C1051.64 282.363 1048.61 288.102 1041.05 291.732L1039.96 290.107C1046.06 287.213 1049.17 282.884 1049.63 277.488H1041V275.863H1051.66ZM1082.79 285.842V287.492H1062.12V285.842H1071.47V283.455H1064.81V277.945H1078.12V275.609H1064.74V273.984H1080.12V279.443H1066.79V281.855H1080.61V283.455H1073.42V285.842H1082.79ZM1080.25 289.219V295.77H1078.25V290.844H1064.43V289.219H1080.25Z" fill="#A6A6A6"/>
<rect x="906.5" y="320.416" width="258" height="48" rx="24" fill="white"/>
<rect x="906.5" y="320.416" width="258" height="48" rx="24" stroke="#ACACAC" stroke-width="2"/>
<path d="M1034.51 343.455V345.004H1025.19V347.111H1031.87V351.986H1018.46V354.195H1032.55V355.719H1016.48V350.564H1029.91V348.609H1016.43V347.111H1023.24V345.004H1013.97V343.455H1034.51ZM1025.19 333.273V335.381H1032.43V336.955H1025.34C1025.71 339.202 1029.24 340.624 1033.39 340.891L1032.78 342.414C1029.01 342.097 1025.61 340.929 1024.23 338.783C1022.84 340.929 1019.44 342.097 1015.64 342.414L1015.06 340.891C1019.19 340.624 1022.72 339.202 1023.11 336.955H1016.08V335.381H1023.24V333.273H1025.19ZM1044.11 337.031C1044.11 340.154 1046.42 343.023 1049.69 344.141L1048.6 345.74C1046.09 344.813 1044.13 342.884 1043.17 340.484C1042.22 343.15 1040.18 345.232 1037.53 346.273L1036.44 344.623C1039.87 343.404 1042.13 340.434 1042.15 336.955V334.568H1044.11V337.031ZM1055.13 348V355.973H1053.12V349.6H1039.94V348H1055.13ZM1055.13 333.4V346.756H1053.12V339.824H1048.09V338.148H1053.12V333.4H1055.13Z" fill="#A6A6A6"/>
<rect x="906.5" y="380.416" width="258" height="48" rx="24" fill="white"/>
<rect x="906.5" y="380.416" width="258" height="48" rx="24" stroke="#ACACAC" stroke-width="2"/>
<path d="M1034.51 405.08V406.73H1013.94V405.08H1023.24V402.363H1016.69V393.934H1018.67V396.549H1029.84V393.934H1031.82V402.363H1025.22V405.08H1034.51ZM1031.97 408.965V415.973H1029.96V410.564H1016.23V408.965H1031.97ZM1018.67 400.764H1029.84V398.072H1018.67V400.764ZM1041.01 406.959V409.6H1052.28V406.959H1054.29V415.668H1039.03V406.959H1041.01ZM1041.01 414.068H1052.28V411.174H1041.01V414.068ZM1056.98 403.709V405.359H1036.41V403.709H1056.98ZM1047.74 394.721C1047.74 397.514 1051.85 400.002 1055.81 400.51L1055.08 402.109C1051.57 401.589 1048.14 399.799 1046.72 397.26C1045.28 399.812 1041.82 401.589 1038.34 402.109L1037.58 400.51C1041.59 399.977 1045.68 397.59 1045.68 394.721V393.654H1047.74V394.721Z" fill="#A6A6A6"/>
<rect x="906.5" y="440.416" width="258" height="48" rx="24" fill="white"/>
<rect x="906.5" y="440.416" width="258" height="48" rx="24" stroke="#ACACAC" stroke-width="2"/>
<path d="M980.11 453.4V464.953H978.104V462.592H972.087V461.018H978.104V458.301H972.417C970.995 461.868 967.491 464.268 962.489 465.461L961.778 463.811C967.313 462.528 970.538 459.824 970.919 456.193H962.921V454.543H973.103C973.103 455.292 973.026 456.016 972.899 456.701H978.104V453.4H980.11ZM980.11 465.969V471.479H967.517V474.119H980.872V475.77H965.536V469.955H978.104V467.594H965.485V465.969H980.11ZM996.386 455.914V457.082C996.36 458.859 996.36 461.855 995.726 466.045L993.72 465.867C994.329 462.084 994.38 459.342 994.38 457.539H984.909V455.914H996.386ZM990.47 462.363V469.219C992.971 469.13 995.535 468.965 997.884 468.686L997.985 470.184C993.237 470.92 987.931 471.021 983.894 470.996L983.64 469.346C985.125 469.333 986.775 469.32 988.515 469.27V462.363H990.47ZM1001.29 453.4V462.846H1004.94V464.572H1001.29V475.973H999.306V453.4H1001.29ZM1033.51 465.359V466.984H1024.32V471.402H1022.33V466.984H1012.84V465.359H1033.51ZM1031.2 473.814V475.49H1015.48V469.32H1017.46V473.814H1031.2ZM1017.59 454.137V457.031H1028.76V454.137H1030.74V463.15H1015.61V454.137H1017.59ZM1017.59 461.525H1028.76V458.555H1017.59V461.525ZM1043.03 457.031C1043.03 460.154 1045.34 463.023 1048.61 464.141L1047.52 465.74C1045.01 464.813 1043.05 462.884 1042.09 460.484C1041.14 463.15 1039.11 465.232 1036.45 466.273L1035.36 464.623C1038.79 463.404 1041.05 460.434 1041.07 456.955V454.568H1043.03V457.031ZM1054.05 468V475.973H1052.04V469.6H1038.86V468H1054.05ZM1054.05 453.4V466.756H1052.04V459.824H1047.01V458.148H1052.04V453.4H1054.05ZM1065.19 454.67L1059.25 476.684H1057.27L1063.19 454.67H1065.19ZM1079.16 455.127V456.777H1076.85V463.988C1077.9 463.925 1078.92 463.836 1079.9 463.709L1080 465.232C1075.6 465.918 1070.45 465.969 1066.79 465.969L1066.54 464.293L1069.46 464.268V456.777H1067.17V455.127H1079.16ZM1085.2 453.4V467.34H1083.2V463.15H1079.39V461.5H1083.2V459.113H1079.39V457.463H1083.2V453.4H1085.2ZM1077.71 467.822C1082.43 467.822 1085.28 469.295 1085.28 471.859C1085.28 474.449 1082.43 475.922 1077.71 475.922C1072.99 475.922 1070.15 474.449 1070.15 471.859C1070.15 469.295 1072.99 467.822 1077.71 467.822ZM1077.71 469.371C1074.23 469.371 1072.1 470.311 1072.13 471.859C1072.1 473.434 1074.23 474.348 1077.71 474.348C1081.19 474.348 1083.3 473.434 1083.3 471.859C1083.3 470.311 1081.19 469.371 1077.71 469.371ZM1071.39 464.242C1072.54 464.217 1073.74 464.179 1074.92 464.115V456.777H1071.39V464.242ZM1106.43 453.4V462.592H1110.08V464.268H1106.43V475.973H1104.45V453.4H1106.43ZM1100.59 455.838C1100.59 462.236 1097.59 468.051 1090.23 471.682L1089.11 470.107C1094.95 467.2 1098.13 462.858 1098.58 457.514H1090.15V455.838H1100.59Z" fill="#A6A6A6"/>
<rect x="906.5" y="500.416" width="258" height="49" rx="24.5" fill="white"/>
<rect x="906.5" y="500.416" width="258" height="49" rx="24.5" stroke="#ACACAC" stroke-width="2"/>
<path d="M955.697 516.338V517.963H942.24V516.338H947.979V513.799H949.959V516.338H955.697ZM948.969 519.131C952.219 519.156 954.377 520.73 954.402 523.219C954.377 525.682 952.219 527.281 948.969 527.281C945.719 527.281 943.51 525.682 943.535 523.219C943.51 520.73 945.719 519.156 948.969 519.131ZM948.969 520.68C946.836 520.705 945.414 521.695 945.439 523.219C945.414 524.717 946.836 525.682 948.969 525.682C951.076 525.682 952.498 524.717 952.523 523.219C952.498 521.695 951.076 520.705 948.969 520.68ZM959.836 513.9V520.172H963.238V521.848H959.836V528.018H957.855V513.9H959.836ZM959.836 529.262V536.473H957.855V530.887H945.059V529.262H959.836ZM969.256 527.459V530.1H980.529V527.459H982.535V536.168H967.275V527.459H969.256ZM969.256 534.568H980.529V531.674H969.256V534.568ZM985.227 524.209V525.859H964.66V524.209H985.227ZM975.984 515.221C975.984 518.014 980.098 520.502 984.059 521.01L983.322 522.609C979.818 522.089 976.391 520.299 974.969 517.76C973.521 520.312 970.068 522.089 966.59 522.609L965.828 521.01C969.84 520.477 973.928 518.09 973.928 515.221V514.154H975.984V515.221ZM1008.21 517.455V519.131H1004.78V522.203H1008.21V523.904H1004.78V527.586H1002.8V513.926H1004.78V517.455H1008.21ZM998.328 515.322V521.416H990.102V524.564C994.113 524.564 997.021 524.425 1000.54 523.828L1000.74 525.504C997.109 526.113 994.088 526.24 989.898 526.24H988.146V519.842H996.373V516.973H988.096V515.322H998.328ZM997.541 528.246C1002.14 528.246 1004.98 529.77 1004.98 532.359C1004.98 534.949 1002.14 536.422 997.541 536.422C992.869 536.422 990.051 534.949 990.051 532.359C990.051 529.77 992.869 528.246 997.541 528.246ZM997.541 529.82C994.088 529.82 991.98 530.76 992.006 532.359C991.98 533.934 994.088 534.873 997.541 534.873C1000.97 534.873 1003.05 533.934 1003.05 532.359C1003.05 530.76 1000.97 529.82 997.541 529.82ZM1016.99 515.17L1011.05 537.184H1009.07L1014.98 515.17H1016.99ZM1036.24 514.865V522.482H1029.56V525.377H1038.85V527.002H1018.29V525.377H1027.58V522.482H1020.95V514.865H1036.24ZM1022.91 516.465V520.883H1034.26V516.465H1022.91ZM1036.31 529.363V536.473H1034.31V530.963H1020.57V529.363H1036.31ZM1061.42 532.055V533.705H1040.76V532.055H1046.52V526.672H1042.63V525.021H1046.16V517.658H1042.58V516.008H1059.44V517.658H1055.86V525.021H1059.39V526.672H1055.51V532.055H1061.42ZM1048.14 525.021H1053.91V517.658H1048.14V525.021ZM1048.53 532.055H1053.53V526.672H1048.53V532.055ZM1074.3 515.221V516.846H1066.22V522.787C1070.64 522.812 1073.31 522.647 1076.4 522.025L1076.66 523.625C1073.43 524.311 1070.67 524.438 1066.02 524.412H1064.27V515.221H1074.3ZM1080.87 513.9V518.699H1084.28V520.35H1080.87V525.301H1078.89V513.9H1080.87ZM1080.87 526.418V531.979H1068.48V534.543H1081.71V536.168H1066.53V530.404H1078.89V528.043H1066.48V526.418H1080.87ZM1093.47 517.455C1093.44 520.68 1095.73 523.523 1099.05 524.641L1097.94 526.189C1095.45 525.25 1093.49 523.422 1092.53 521.035C1091.55 523.739 1089.48 525.847 1086.76 526.875L1085.67 525.25C1089.15 524.031 1091.46 521.035 1091.49 517.531V515.195H1093.47V517.455ZM1104.41 513.9V527.281H1102.4V520.4H1097.38V518.75H1102.4V513.9H1104.41ZM1096.92 527.941C1101.62 527.941 1104.49 529.49 1104.49 532.207C1104.49 534.898 1101.62 536.422 1096.92 536.422C1092.22 536.422 1089.35 534.898 1089.35 532.207C1089.35 529.49 1092.22 527.941 1096.92 527.941ZM1096.92 529.516C1093.47 529.516 1091.31 530.531 1091.33 532.207C1091.31 533.832 1093.47 534.822 1096.92 534.822C1100.37 534.822 1102.51 533.832 1102.51 532.207C1102.51 530.531 1100.37 529.516 1096.92 529.516ZM1128.81 524.209V525.758H1123.22V527.814H1126.22V532.613H1112.66V534.771H1126.96V536.219H1110.66V531.217H1124.24V529.287H1110.63V527.814H1113.75V525.758H1108.14V524.209H1128.81ZM1126.14 514.586V519.232H1112.81V521.162H1126.55V522.609H1110.83V517.887H1124.14V516.008H1110.76V514.586H1126.14ZM1115.71 527.814H1121.24V525.758H1115.71V527.814Z" fill="#A6A6A6"/>
<rect x="1196.5" y="200.416" width="258" height="48" rx="24" fill="white"/>
<rect x="1196.5" y="200.416" width="258" height="48" rx="24" stroke="#FF577C" stroke-width="2"/>
<path d="M1313.38 231.377V233.078H1292.71V231.377H1313.38ZM1311.4 215.686V217.336H1307.82V225.232H1311.34V226.857H1294.59V225.232H1298.12V217.336H1294.54V215.686H1311.4ZM1300.1 225.232H1305.86V217.336H1300.1V225.232ZM1335.85 231.504V233.18H1315.18V231.504H1324.47V227.238H1317.77V220.281H1331.28V216.727H1317.72V215.076H1333.23V221.906H1319.75V225.588H1333.76V227.238H1326.43V231.504H1335.85ZM1356.31 213.4V225.131H1354.31V213.4H1356.31ZM1356.31 226.223V231.605H1343.57V234.094H1357.17V235.719H1341.61V230.107H1354.33V227.822H1341.53V226.223H1356.31ZM1350.88 214.949V216.549H1348.59V222.312C1349.76 222.249 1350.92 222.135 1352 222.008L1352.1 223.48C1347.58 224.141 1342.27 224.318 1338.28 224.318L1338.03 222.668L1340.92 222.643V216.549H1338.67V214.949H1350.88ZM1342.85 222.592C1344.1 222.566 1345.38 222.528 1346.66 222.439V216.549H1342.85V222.592Z" fill="#FF577C"/>
<rect x="1196.5" y="260.416" width="258" height="48" rx="24" fill="white"/>
<rect x="1196.5" y="260.416" width="258" height="48" rx="24" stroke="#ACACAC" stroke-width="2"/>
<path d="M1287.64 291.377V293.078H1266.97V291.377H1287.64ZM1285.66 275.686V277.336H1282.08V285.232H1285.61V286.857H1268.85V285.232H1272.38V277.336H1268.8V275.686H1285.66ZM1274.36 285.232H1280.13V277.336H1274.36V285.232ZM1310.11 291.504V293.18H1289.45V291.504H1298.74V287.238H1292.04V280.281H1305.54V276.727H1291.98V275.076H1307.5V281.906H1294.02V285.588H1308.03V287.238H1300.69V291.504H1310.11ZM1330.58 273.4V285.131H1328.57V273.4H1330.58ZM1330.58 286.223V291.605H1317.83V294.094H1331.44V295.719H1315.88V290.107H1328.6V287.822H1315.8V286.223H1330.58ZM1325.14 274.949V276.549H1322.86V282.312C1324.03 282.249 1325.18 282.135 1326.26 282.008L1326.36 283.48C1321.84 284.141 1316.54 284.318 1312.55 284.318L1312.3 282.668L1315.19 282.643V276.549H1312.93V274.949H1325.14ZM1317.12 282.592C1318.37 282.566 1319.65 282.528 1320.93 282.439V276.549H1317.12V282.592ZM1359.62 273.4V290.209H1357.62V283.658H1353.76V281.982H1357.62V279.367H1353.76V277.717H1357.62V273.4H1359.62ZM1353.58 275.254V276.879H1351.27V284.775C1352.33 284.712 1353.34 284.636 1354.32 284.521L1354.42 286.02C1350.03 286.705 1344.87 286.781 1341.22 286.781L1340.96 285.08L1343.88 285.055V276.879H1341.6V275.254H1353.58ZM1360.23 293.814V295.49H1345.08V288.812H1347.08V293.814H1360.23ZM1345.81 285.004C1346.97 284.991 1348.16 284.953 1349.34 284.902V276.879H1345.81V285.004ZM1371.51 277.133C1371.51 280.078 1373.97 282.693 1377.32 283.709L1376.31 285.283C1373.67 284.445 1371.55 282.63 1370.52 280.307C1369.53 282.795 1367.39 284.737 1364.7 285.664L1363.66 284.09C1367.06 283.023 1369.5 280.23 1369.5 277.133V276.549H1364.22V274.924H1376.71V276.549H1371.51V277.133ZM1382.02 273.4V285.613H1380.04V273.4H1382.02ZM1369.38 286.73V289.473H1380.04V286.73H1382.02V295.668H1367.39V286.73H1369.38ZM1369.38 294.043H1380.04V291.072H1369.38V294.043Z" fill="#A6A6A6"/>
<rect x="1196.5" y="320.416" width="258" height="48" rx="24" fill="white"/>
<rect x="1196.5" y="320.416" width="258" height="48" rx="24" stroke="#ACACAC" stroke-width="2"/>
<path d="M1272.27 345.309V349.447C1274.44 349.358 1276.66 349.168 1278.74 348.863L1278.9 350.336C1273.74 351.275 1268.18 351.301 1264.12 351.301L1263.84 349.65C1265.73 349.638 1267.96 349.625 1270.31 349.549V345.309H1272.27ZM1277.58 336.371V338.021H1272.27C1272.32 340.941 1274.74 343.315 1278.08 344.268L1277.14 345.842C1274.43 345.029 1272.31 343.29 1271.3 340.992C1270.31 343.417 1268.21 345.22 1265.49 346.045L1264.52 344.521C1267.86 343.544 1270.21 341.068 1270.26 338.021H1265.08V336.371H1270.31V333.578H1272.27V336.371H1277.58ZM1282.22 333.4V356.023H1280.24V333.4H1282.22ZM1304.13 334.771V336.523C1304.13 338.415 1304.13 340.713 1303.55 343.785H1306.85V345.461H1286.18V343.785H1301.54C1302.15 340.662 1302.15 338.453 1302.15 336.523V336.396H1288.8V334.771H1304.13ZM1304.82 353.789V355.465H1288.92V348H1290.91V353.789H1304.82ZM1319.9 334.314V337.184H1331.07V334.314H1333.05V343.328H1326.45V345.74H1335.75V347.391H1315.18V345.74H1324.47V343.328H1317.92V334.314H1319.9ZM1319.9 341.729H1331.07V338.758H1319.9V341.729ZM1333.46 353.814V355.49H1317.84V349.193H1319.85V353.814H1333.46ZM1350.4 334.771C1352.3 334.759 1353.92 335.47 1354.97 336.676H1360.88V333.4H1362.89V346.781H1360.88V343.557H1354.99C1353.92 344.763 1352.3 345.474 1350.4 345.461C1347.02 345.486 1344.53 343.277 1344.53 340.129C1344.53 336.955 1347.02 334.746 1350.4 334.771ZM1350.4 336.498C1348.08 336.473 1346.43 337.996 1346.43 340.129C1346.43 342.236 1348.08 343.76 1350.4 343.76C1352.63 343.76 1354.31 342.236 1354.31 340.129C1354.31 337.996 1352.63 336.473 1350.4 336.498ZM1355.4 347.314C1360.07 347.314 1362.96 348.889 1362.96 351.605C1362.96 354.348 1360.07 355.922 1355.4 355.922C1350.7 355.922 1347.83 354.348 1347.83 351.605C1347.83 348.889 1350.7 347.314 1355.4 347.314ZM1355.4 348.863C1351.94 348.863 1349.79 349.904 1349.79 351.605C1349.79 353.307 1351.94 354.322 1355.4 354.322C1358.88 354.322 1361.01 353.307 1361.01 351.605C1361.01 349.904 1358.88 348.863 1355.4 348.863ZM1355.93 338.301C1356.12 338.859 1356.24 339.469 1356.24 340.129C1356.24 340.764 1356.12 341.36 1355.93 341.906H1360.88V338.301H1355.93ZM1374.19 337.057C1374.19 340.129 1376.52 342.947 1379.8 344.064L1378.71 345.639C1376.21 344.725 1374.24 342.858 1373.25 340.51C1372.28 343.163 1370.28 345.258 1367.64 346.273L1366.57 344.674C1369.95 343.404 1372.21 340.383 1372.23 336.904V334.568H1374.19V337.057ZM1384.29 333.4V339.291H1387.69V340.967H1384.29V347.137H1382.31V333.4H1384.29ZM1377.06 347.721C1381.7 347.721 1384.5 349.219 1384.5 351.809C1384.5 354.449 1381.7 355.922 1377.06 355.922C1372.41 355.922 1369.57 354.449 1369.57 351.809C1369.57 349.219 1372.41 347.721 1377.06 347.721ZM1377.06 349.32C1373.65 349.32 1371.55 350.26 1371.57 351.809C1371.55 353.408 1373.65 354.322 1377.06 354.348C1380.48 354.322 1382.57 353.408 1382.57 351.809C1382.57 350.26 1380.48 349.32 1377.06 349.32Z" fill="#A6A6A6"/>
<rect x="1196.5" y="380.416" width="258" height="48" rx="24" fill="white"/>
<rect x="1196.5" y="380.416" width="258" height="48" rx="24" stroke="#ACACAC" stroke-width="2"/>
<path d="M1310.16 394.467C1313.2 394.441 1315.5 396.206 1315.93 398.809H1320.65V393.4H1322.66V405.512H1320.65V400.459H1315.95C1315.55 403.125 1313.22 404.902 1310.16 404.902C1306.74 404.902 1304.3 402.77 1304.3 399.672C1304.3 396.6 1306.74 394.441 1310.16 394.467ZM1310.16 396.168C1307.85 396.143 1306.2 397.59 1306.2 399.672C1306.2 401.729 1307.85 403.227 1310.16 403.227C1312.45 403.227 1314.07 401.729 1314.07 399.672C1314.07 397.59 1312.45 396.143 1310.16 396.168ZM1310.11 406.654V409.523H1320.65V406.654H1322.66V415.668H1308.11V406.654H1310.11ZM1310.11 414.043H1320.65V411.123H1310.11V414.043ZM1334.26 397.564C1334.26 400.51 1336.52 403.303 1339.82 404.445L1338.78 406.02C1336.23 405.105 1334.26 403.214 1333.29 400.891C1332.32 403.493 1330.24 405.575 1327.56 406.553L1326.52 404.979C1329.84 403.785 1332.25 400.764 1332.25 397.59V396.6H1327.15V394.975H1339.31V396.6H1334.26V397.564ZM1345.13 408.127V415.973H1343.12V409.777H1329.94V408.127H1345.13ZM1345.13 393.4V406.934H1343.12V400.992H1338.6V399.316H1343.12V393.4H1345.13Z" fill="#A6A6A6"/>
<rect x="1196.5" y="440.416" width="258" height="48" rx="24" fill="white"/>
<rect x="1196.5" y="440.416" width="258" height="48" rx="24" stroke="#ACACAC" stroke-width="2"/>
<path d="M1303.96 456.727C1303.96 460.586 1308.37 464.039 1312.31 464.775L1311.4 466.451C1307.99 465.664 1304.4 463.239 1302.94 459.9C1301.48 463.227 1297.9 465.651 1294.49 466.451L1293.57 464.775C1297.48 464.014 1301.87 460.611 1301.87 456.727V455H1303.96V456.727ZM1313.38 471.25V472.9H1292.71V471.25H1313.38ZM1333.18 455.711V458.504C1333.18 461.83 1333.18 464.902 1332.24 469.473L1330.24 469.295C1330.73 467.124 1330.98 465.245 1331.12 463.48L1317.34 464.242L1317.06 462.592L1331.2 462.008C1331.24 460.814 1331.24 459.659 1331.25 458.504V457.387H1317.67V455.711H1333.18ZM1335.75 471.123V472.799H1315.18V471.123H1335.75ZM1356.82 453.426V465.918H1354.92V460.408H1351.74V465.689H1349.89V453.832H1351.74V458.809H1354.92V453.426H1356.82ZM1343.92 466.959V469.549H1354.86V466.959H1356.82V475.668H1341.94V466.959H1343.92ZM1343.92 474.043H1354.86V471.174H1343.92V474.043ZM1347.2 454.771V460.561H1340.62V463.557C1343.59 463.519 1345.86 463.404 1348.54 462.846L1348.77 464.496C1345.85 465.055 1343.44 465.182 1340.16 465.182H1338.69V459.037H1345.29V456.396H1338.64V454.771H1347.2Z" fill="#A6A6A6"/>
<rect x="1196.5" y="500.416" width="258" height="48" rx="24" fill="white"/>
<rect x="1196.5" y="500.416" width="258" height="48" rx="24" stroke="#ACACAC" stroke-width="2"/>
<path d="M1313.62 515.381V517.031H1306.94V523.785C1309.95 523.798 1312.16 523.684 1314.73 523.15L1314.91 524.801C1312.09 525.334 1309.78 525.436 1306.43 525.436H1304.98V515.381H1313.62ZM1323.11 513.4V528.33H1321.21V520.992H1318.04V526.375H1316.18V513.832H1318.04V519.316H1321.21V513.4H1323.11ZM1316.56 528.178C1316.56 531.199 1320.37 533.713 1324.33 534.322L1323.47 535.871C1320.12 535.262 1316.93 533.484 1315.57 530.92C1314.2 533.484 1311 535.262 1307.68 535.871L1306.81 534.322C1310.75 533.713 1314.56 531.199 1314.58 528.178V527.314H1316.56V528.178ZM1344.37 514.391V515.838C1344.37 517.374 1344.37 519.304 1343.86 521.855H1347.08V523.455H1326.41V521.855H1341.85C1342.36 519.342 1342.38 517.488 1342.38 516.016H1329.03V514.391H1344.37ZM1344.44 525.74V531.428H1330.91V534.094H1345.03V535.719H1328.9V529.854H1342.46V527.34H1328.88V525.74H1344.44Z" fill="#A6A6A6"/>
<rect x="1196.5" y="560.416" width="258" height="48" rx="24" fill="white"/>
<rect x="1196.5" y="560.416" width="258" height="48" rx="24" stroke="#ACACAC" stroke-width="2"/>
<path d="M1303.96 580.129V582.795H1313.35V584.445H1292.68V582.795H1302V580.129H1303.96ZM1311.45 574.111V575.686H1304.31C1304.48 577.996 1308.26 579.685 1312.18 580.002L1311.52 581.5C1307.76 581.145 1304.22 579.685 1303.02 577.311C1301.79 579.685 1298.24 581.145 1294.46 581.5L1293.8 580.002C1297.7 579.685 1301.48 577.996 1301.7 575.686H1294.59V574.111H1311.45ZM1311.4 587.441V589.016H1294.64V587.441H1302V585.309H1303.98V587.441H1311.4ZM1302.99 590.133C1307.33 590.133 1309.82 591.148 1309.82 593.104C1309.82 595.084 1307.33 596.1 1302.99 596.1C1298.6 596.1 1296.19 595.084 1296.19 593.104C1296.19 591.148 1298.6 590.133 1302.99 590.133ZM1302.99 591.529C1299.94 591.555 1298.19 592.062 1298.19 593.104C1298.19 594.145 1299.94 594.729 1302.99 594.703C1306.06 594.729 1307.76 594.145 1307.79 593.104C1307.76 592.062 1306.06 591.555 1302.99 591.529ZM1321.22 575.152C1324.55 575.178 1326.91 578.225 1326.93 583.023C1326.91 587.822 1324.55 590.869 1321.22 590.869C1317.87 590.869 1315.53 587.822 1315.53 583.023C1315.53 578.225 1317.87 575.178 1321.22 575.152ZM1321.22 576.93C1318.99 576.955 1317.41 579.342 1317.41 583.023C1317.41 586.705 1318.99 589.092 1321.22 589.092C1323.48 589.092 1325 586.705 1325 583.023C1325 579.342 1323.48 576.955 1321.22 576.93ZM1332.65 573.4V582.414H1336.43V584.141H1332.65V595.973H1330.67V573.4H1332.65ZM1358.32 591.402V593.078H1337.65V591.402H1342.78V585.309C1340.85 584.306 1339.68 582.681 1339.68 580.637C1339.68 577.133 1343.11 574.848 1347.93 574.822C1352.76 574.848 1356.18 577.133 1356.18 580.637C1356.18 582.643 1355.05 584.255 1353.19 585.258V591.402H1358.32ZM1347.93 576.473C1344.23 576.447 1341.61 578.123 1341.61 580.637C1341.61 583.15 1344.23 584.852 1347.93 584.852C1351.61 584.852 1354.25 583.15 1354.25 580.637C1354.25 578.123 1351.61 576.447 1347.93 576.473ZM1344.73 591.402H1351.18V586.02C1350.21 586.286 1349.11 586.426 1347.93 586.426C1346.78 586.426 1345.7 586.299 1344.73 586.045V591.402Z" fill="#A6A6A6"/>
<rect x="1196.5" y="620.416" width="258" height="48" rx="24" fill="white"/>
<rect x="1196.5" y="620.416" width="258" height="48" rx="24" stroke="#ACACAC" stroke-width="2"/>
<path d="M1299.09 633.4V641.322H1302.47V642.998H1299.09V651.072H1297.09V633.4H1299.09ZM1299.91 653.814V655.49H1284.75V649.879H1286.75V653.814H1299.91ZM1281.37 646.832C1283.16 646.832 1285.28 646.819 1287.49 646.73V645.004C1284.86 644.763 1283.17 643.506 1283.17 641.602C1283.17 639.418 1285.28 638.123 1288.46 638.123C1291.65 638.123 1293.74 639.418 1293.76 641.602C1293.74 643.493 1292.09 644.75 1289.47 645.004V646.629C1291.59 646.527 1293.72 646.324 1295.69 646.02L1295.87 647.441C1291.02 648.355 1285.56 648.432 1281.6 648.457L1281.37 646.832ZM1295.01 635.635V637.133H1281.93V635.635H1287.49V633.35H1289.47V635.635H1295.01ZM1288.46 639.545C1286.37 639.545 1285.08 640.332 1285.08 641.602C1285.08 642.846 1286.37 643.633 1288.46 643.633C1290.54 643.633 1291.86 642.846 1291.86 641.602C1291.86 640.332 1290.54 639.545 1288.46 639.545ZM1322.66 633.426V646.984H1320.65V643.938H1314.66V642.287H1320.65V639.24H1314.89C1313.4 642.871 1309.91 645.499 1305.09 646.934L1304.25 645.359C1309.71 643.734 1313.1 640.688 1313.52 636.777H1305.39V635.102H1315.67C1315.67 635.99 1315.57 636.841 1315.39 637.641H1320.65V633.426H1322.66ZM1315.27 647.213C1319.84 647.213 1322.78 648.838 1322.78 651.529C1322.78 654.246 1319.84 655.871 1315.27 655.871C1310.65 655.871 1307.73 654.246 1307.73 651.529C1307.73 648.838 1310.65 647.213 1315.27 647.213ZM1315.27 648.812C1311.87 648.787 1309.68 649.828 1309.68 651.529C1309.68 653.23 1311.87 654.246 1315.27 654.246C1318.62 654.246 1320.78 653.23 1320.8 651.529C1320.78 649.828 1318.62 648.787 1315.27 648.812ZM1345.13 633.4V645.08H1343.12V639.215H1338.09V637.564H1343.12V633.4H1345.13ZM1345.13 646.223V651.605H1332.51V654.068H1345.96V655.668H1330.55V650.082H1343.15V647.822H1330.5V646.223H1345.13ZM1334.11 636.27C1334.08 639.24 1336.42 641.932 1339.72 643.023L1338.65 644.572C1336.15 643.684 1334.16 641.906 1333.17 639.621C1332.2 642.198 1330.16 644.166 1327.48 645.131L1326.39 643.531C1329.79 642.414 1332.13 639.57 1332.15 636.27V634.137H1334.11V636.27ZM1367.6 633.4V646.857H1365.59V640.941H1361.05V639.291H1365.59V633.4H1367.6ZM1360.11 647.568C1364.8 647.568 1367.67 649.092 1367.67 651.758C1367.67 654.424 1364.8 655.947 1360.11 655.973C1355.41 655.947 1352.54 654.424 1352.54 651.758C1352.54 649.092 1355.41 647.568 1360.11 647.568ZM1360.11 649.117C1356.65 649.117 1354.5 650.107 1354.52 651.758C1354.5 653.383 1356.65 654.373 1360.11 654.373C1363.56 654.373 1365.69 653.383 1365.69 651.758C1365.69 650.107 1363.56 649.117 1360.11 649.117ZM1356.73 637.539C1356.73 640.484 1358.99 643.277 1362.29 644.42L1361.25 646.02C1358.71 645.105 1356.74 643.214 1355.79 640.865C1354.8 643.519 1352.71 645.639 1350.03 646.654L1348.99 645.055C1352.34 643.836 1354.72 640.789 1354.72 637.564V636.727H1349.62V635.051H1361.78V636.727H1356.73V637.539Z" fill="#A6A6A6"/>
<rect x="1196.5" y="680.416" width="258" height="48" rx="24" fill="white"/>
<rect x="1196.5" y="680.416" width="258" height="48" rx="24" stroke="#ACACAC" stroke-width="2"/>
<path d="M1294.98 695.838V697.463H1281.52V695.838H1287.26V693.299H1289.24V695.838H1294.98ZM1288.25 698.631C1291.5 698.656 1293.66 700.23 1293.69 702.719C1293.66 705.182 1291.5 706.781 1288.25 706.781C1285 706.781 1282.79 705.182 1282.82 702.719C1282.79 700.23 1285 698.656 1288.25 698.631ZM1288.25 700.18C1286.12 700.205 1284.7 701.195 1284.72 702.719C1284.7 704.217 1286.12 705.182 1288.25 705.182C1290.36 705.182 1291.78 704.217 1291.81 702.719C1291.78 701.195 1290.36 700.205 1288.25 700.18ZM1299.12 693.4V699.672H1302.52V701.348H1299.12V707.518H1297.14V693.4H1299.12ZM1299.12 708.762V715.973H1297.14V710.387H1284.34V708.762H1299.12ZM1308.54 706.959V709.6H1319.81V706.959H1321.82V715.668H1306.56V706.959H1308.54ZM1308.54 714.068H1319.81V711.174H1308.54V714.068ZM1324.51 703.709V705.359H1303.94V703.709H1324.51ZM1315.27 694.721C1315.27 697.514 1319.38 700.002 1323.34 700.51L1322.61 702.109C1319.1 701.589 1315.67 699.799 1314.25 697.26C1312.8 699.812 1309.35 701.589 1305.87 702.109L1305.11 700.51C1309.12 699.977 1313.21 697.59 1313.21 694.721V693.654H1315.27V694.721ZM1335.88 696.041V701.932H1339.31V693.883H1341.22V714.83H1339.31V703.582H1335.88V709.904H1327.25V696.041H1335.88ZM1329.13 697.641V708.305H1334.01V697.641H1329.13ZM1345.76 693.4V715.973H1343.83V693.4H1345.76ZM1369.55 711.402V713.078H1348.88V711.402H1358.18V705.893H1351.32V695.305H1366.99V705.893H1360.13V711.402H1369.55ZM1353.28 696.904V704.293H1365.06V696.904H1353.28Z" fill="#A6A6A6"/>
</svg>
