<svg width="504" height="412" viewBox="0 0 504 412" fill="none" xmlns="http://www.w3.org/2000/svg">
<path d="M112.457 215.974L115.598 215.977L115.596 217.524L112.455 217.521L112.448 224.716L110.62 224.714L110.636 209.105L112.464 209.107L112.457 215.974ZM108.64 213.158L96.2177 213.145L96.2193 211.645L101.516 211.65L101.519 209.096L103.347 209.097L103.344 211.652L108.641 211.658L108.64 213.158ZM102.427 214.3C103.412 214.301 104.279 214.462 105.029 214.783C105.786 215.104 106.375 215.558 106.797 216.144C107.218 216.73 107.432 217.414 107.439 218.195C107.43 218.969 107.215 219.644 106.792 220.222C106.37 220.8 105.78 221.248 105.022 221.568C104.271 221.88 103.404 222.035 102.42 222.034C101.427 222.033 100.549 221.876 99.7833 221.563C99.0258 221.241 98.4364 220.792 98.0151 220.213C97.6017 219.635 97.3992 218.959 97.4078 218.185C97.4008 217.404 97.6047 216.721 98.0193 216.135C98.4418 215.549 99.0321 215.097 99.7903 214.777C100.556 214.458 101.435 214.299 102.427 214.3ZM102.426 215.753C101.778 215.752 101.203 215.853 100.703 216.056C100.211 216.251 99.8275 216.535 99.5537 216.91C99.2877 217.277 99.1583 217.703 99.1657 218.187C99.1573 218.671 99.2858 219.097 99.5511 219.465C99.8241 219.824 100.207 220.102 100.699 220.298C101.198 220.494 101.773 220.588 102.421 220.581C103.062 220.589 103.628 220.496 104.121 220.301C104.621 220.107 105.008 219.83 105.282 219.471C105.555 219.104 105.696 218.678 105.705 218.194C105.697 217.709 105.557 217.283 105.284 216.916C105.011 216.541 104.625 216.255 104.125 216.059C103.633 215.856 103.067 215.753 102.426 215.753ZM113.404 229.475L99.4119 229.461L99.4181 223.461L101.223 223.463L101.218 227.916L113.406 227.928L113.404 229.475ZM133.485 211.636C133.484 212.722 133.452 213.707 133.388 214.589C133.333 215.464 133.191 216.456 132.963 217.565L135.987 217.569L135.985 219.069L127.313 219.06L127.309 222.903L133.614 222.91L133.607 229.941L131.755 229.939L131.761 224.431L118.87 224.418L118.872 222.895L125.481 222.901L125.485 219.058L116.907 219.049L116.909 217.549L131.112 217.564C131.347 216.439 131.497 215.439 131.56 214.564C131.623 213.689 131.656 212.713 131.657 211.634L119.329 211.622L119.33 210.122L133.486 210.136L133.485 211.636ZM161.474 229.97L159.716 229.968L159.727 219.046L156.657 219.043L156.647 228.887L154.959 228.885L154.979 209.596L156.667 209.598L156.659 217.519L159.729 217.523L159.737 209.132L161.495 209.134L161.474 229.97ZM152.257 213.202L146.28 213.196L146.27 223.228C147.809 223.221 149.114 223.18 150.184 223.103C151.262 223.018 152.348 222.867 153.442 222.649L153.605 224.196C152.417 224.437 151.245 224.6 150.089 224.685C148.94 224.762 147.503 224.799 145.776 224.797L144.44 224.796L144.454 211.671L152.258 211.679L152.257 213.202ZM183.398 220.43L174.796 220.421L174.794 222.647C176.778 222.735 178.317 223.096 179.41 223.73C180.511 224.356 181.065 225.216 181.071 226.31C181.063 227.076 180.773 227.728 180.202 228.266C179.631 228.813 178.811 229.226 177.74 229.506C176.669 229.794 175.388 229.937 173.896 229.936C172.396 229.934 171.107 229.788 170.029 229.498C168.951 229.216 168.127 228.801 167.558 228.253C166.988 227.714 166.703 227.061 166.704 226.295C166.705 225.202 167.253 224.343 168.348 223.719C169.442 223.087 170.989 222.729 172.989 222.646L172.992 220.419L164.413 220.41L164.415 218.887L183.399 218.906L183.398 220.43ZM173.902 224.053C172.785 224.059 171.828 224.152 171.03 224.331C170.233 224.51 169.624 224.767 169.202 225.103C168.779 225.43 168.572 225.829 168.579 226.297C168.571 226.758 168.778 227.153 169.199 227.482C169.621 227.81 170.23 228.061 171.026 228.233C171.831 228.414 172.788 228.505 173.897 228.506C174.991 228.507 175.936 228.418 176.733 228.239C177.538 228.068 178.152 227.819 178.574 227.491C179.004 227.163 179.219 226.769 179.22 226.308C179.22 225.847 179.006 225.449 178.577 225.112C178.155 224.776 177.546 224.517 176.749 224.337C175.953 224.156 175.003 224.062 173.902 224.053ZM181.719 211.639L175.11 211.632C175.148 212.39 175.507 213.093 176.186 213.743C176.865 214.384 177.751 214.92 178.844 215.351C179.938 215.774 181.105 216.052 182.347 216.186L181.666 217.639C180.51 217.497 179.413 217.238 178.374 216.862C177.335 216.478 176.426 215.989 175.645 215.394C174.864 214.8 174.287 214.127 173.913 213.377C173.545 214.127 172.97 214.798 172.188 215.391C171.406 215.984 170.496 216.471 169.456 216.853C168.417 217.227 167.315 217.484 166.151 217.623L165.496 216.169C166.715 216.038 167.867 215.761 168.954 215.341C170.048 214.912 170.935 214.374 171.616 213.726C172.304 213.078 172.672 212.38 172.719 211.63L166.157 211.623L166.158 210.123L181.721 210.139L181.719 211.639ZM204.209 221.365L195.725 221.356L195.721 225.622L193.892 225.62L193.897 221.355L185.131 221.346L185.133 219.822L204.211 219.842L204.209 221.365ZM201.729 217.449L187.62 217.434L187.627 210.192L201.736 210.206L201.729 217.449ZM189.426 215.959L199.902 215.97L199.907 211.658L189.43 211.647L189.426 215.959ZM202.068 229.566L187.56 229.551L187.566 223.551L189.418 223.553L189.413 228.006L202.07 228.019L202.068 229.566ZM222.072 218.079L225.4 218.082L225.399 219.629L222.07 219.626L222.06 230.032L220.208 230.03L220.23 209.194L222.081 209.196L222.072 218.079ZM205.636 224.46C208.089 224.463 210.003 224.441 211.378 224.396L211.38 222.087C210.576 221.993 209.869 221.781 209.26 221.452C208.659 221.116 208.194 220.682 207.867 220.15C207.547 219.611 207.391 219.001 207.4 218.322C207.393 217.548 207.593 216.873 208 216.295C208.414 215.709 208.993 215.257 209.735 214.937C210.486 214.618 211.349 214.458 212.326 214.459C213.287 214.46 214.138 214.621 214.88 214.943C215.63 215.264 216.211 215.717 216.625 216.304C217.046 216.882 217.26 217.558 217.267 218.332C217.259 219.011 217.086 219.621 216.75 220.159C216.413 220.69 215.94 221.123 215.33 221.459C214.728 221.794 214.029 222.008 213.232 222.101L213.23 224.328C215.449 224.22 217.355 224.051 218.949 223.818L219.065 225.224C217.049 225.566 214.978 225.786 212.853 225.886C210.728 225.985 208.423 226.034 205.939 226.031L205.636 224.46ZM218.585 213.247L206.022 213.234L206.024 211.734L211.391 211.74L211.394 209.232L213.245 209.234L213.243 211.742L218.586 211.747L218.585 213.247ZM212.324 215.889C211.692 215.888 211.133 215.989 210.648 216.192C210.164 216.395 209.784 216.683 209.511 217.058C209.245 217.425 209.111 217.847 209.111 218.323C209.11 218.8 209.243 219.222 209.508 219.589C209.773 219.949 210.148 220.227 210.632 220.423C211.124 220.611 211.687 220.701 212.319 220.694C212.944 220.702 213.499 220.613 213.984 220.426C214.468 220.231 214.844 219.954 215.11 219.595C215.376 219.228 215.509 218.806 215.509 218.33C215.51 217.853 215.377 217.431 215.112 217.064C214.847 216.689 214.472 216.399 213.988 216.196C213.504 215.992 212.949 215.89 212.324 215.889ZM227.928 221.671C227.956 217.405 229.084 213.664 231.314 210.448L233.096 210.45C232.556 211.23 232.051 212.241 231.581 213.483C231.111 214.725 230.73 216.064 230.44 217.501C230.157 218.939 230.015 220.329 230.014 221.673C230.012 223.017 230.152 224.411 230.431 225.857C230.719 227.303 231.096 228.647 231.564 229.889C232.031 231.132 232.534 232.144 233.072 232.926L231.291 232.924C230.191 231.322 229.357 229.59 228.789 227.73C228.22 225.87 227.933 223.85 227.928 221.671ZM244.323 209.688C245.831 209.689 247.135 209.847 248.236 210.16C249.346 210.474 250.197 210.928 250.79 211.522C251.383 212.117 251.679 212.828 251.678 213.656C251.677 214.469 251.38 215.168 250.785 215.753C250.191 216.33 249.339 216.775 248.229 217.086C247.127 217.39 245.823 217.541 244.315 217.539C242.807 217.538 241.499 217.384 240.39 217.078C239.28 216.764 238.425 216.318 237.824 215.74C237.231 215.153 236.935 214.453 236.936 213.641C236.937 212.813 237.234 212.102 237.829 211.509C238.431 210.916 239.287 210.464 240.397 210.152C241.506 209.841 242.815 209.686 244.323 209.688ZM244.321 211.164C243.204 211.163 242.231 211.264 241.403 211.466C240.575 211.66 239.938 211.945 239.492 212.319C239.046 212.694 238.827 213.135 238.834 213.643C238.826 214.143 239.041 214.577 239.478 214.944C239.923 215.304 240.559 215.582 241.387 215.778C242.215 215.975 243.191 216.077 244.316 216.086C245.426 216.079 246.391 215.979 247.211 215.784C248.039 215.59 248.676 215.313 249.122 214.954C249.576 214.588 249.803 214.154 249.803 213.654C249.804 213.146 249.578 212.705 249.125 212.329C248.68 211.954 248.044 211.668 247.216 211.472C246.388 211.268 245.423 211.165 244.321 211.164ZM251.474 229.781L237.13 229.766L237.137 222.922L251.481 222.937L251.474 229.781ZM238.96 228.268L249.671 228.279L249.675 224.412L238.964 224.401L238.96 228.268ZM253.804 220.877L234.819 220.858L234.821 219.334L253.805 219.354L253.804 220.877ZM261.431 210.502C262.471 210.495 263.404 210.699 264.232 211.114C265.067 211.529 265.719 212.112 266.187 212.862C266.663 213.613 266.904 214.461 266.911 215.406C266.902 216.367 266.659 217.222 266.182 217.972C265.712 218.721 265.063 219.307 264.234 219.728C263.406 220.141 262.468 220.347 261.421 220.346C260.374 220.345 259.433 220.137 258.598 219.722C257.77 219.299 257.122 218.712 256.654 217.962C256.186 217.212 255.957 216.356 255.965 215.395C255.959 214.45 256.19 213.606 256.659 212.864C257.129 212.115 257.778 211.533 258.607 211.12C259.443 210.699 260.385 210.493 261.431 210.502ZM261.43 212.072C260.735 212.072 260.105 212.212 259.543 212.492C258.988 212.773 258.55 213.167 258.229 213.675C257.916 214.174 257.763 214.748 257.77 215.397C257.762 216.053 257.913 216.639 258.225 217.155C258.545 217.663 258.982 218.058 259.537 218.34C260.099 218.622 260.728 218.759 261.423 218.752C262.126 218.761 262.755 218.625 263.31 218.344C263.873 218.063 264.311 217.669 264.624 217.162C264.945 216.646 265.105 216.061 265.106 215.404C265.107 214.756 264.947 214.181 264.627 213.681C264.315 213.173 263.878 212.778 263.316 212.496C262.762 212.214 262.133 212.073 261.43 212.072ZM271.857 214.638L274.998 214.641L274.996 216.188L271.855 216.185L271.85 221.528L270.022 221.527L270.034 209.245L271.862 209.247L271.857 214.638ZM271.841 230.13L270.013 230.128L270.019 224.105L258.207 224.093L258.208 222.593L271.849 222.607L271.841 230.13ZM277.885 232.996L276.151 232.994L277.446 226.62L279.72 226.622L277.885 232.996ZM294.22 210.536C295.088 210.529 295.884 210.682 296.611 210.995C297.345 211.301 297.954 211.735 298.437 212.298L303.898 212.304L303.901 209.28L305.753 209.282L305.74 221.634L303.889 221.632L303.892 218.655L298.443 218.649C297.95 219.211 297.336 219.648 296.601 219.96C295.875 220.264 295.078 220.412 294.21 220.403C293.179 220.41 292.254 220.206 291.434 219.791C290.614 219.368 289.97 218.781 289.502 218.031C289.034 217.28 288.8 216.429 288.801 215.476C288.802 214.515 289.038 213.659 289.507 212.91C289.977 212.152 290.622 211.567 291.443 211.154C292.263 210.733 293.189 210.527 294.22 210.536ZM294.219 212.13C293.516 212.121 292.887 212.261 292.332 212.549C291.777 212.83 291.343 213.228 291.03 213.743C290.717 214.251 290.56 214.829 290.559 215.477C290.559 216.118 290.714 216.692 291.026 217.2C291.338 217.709 291.771 218.107 292.326 218.397C292.88 218.687 293.509 218.832 294.212 218.833C294.892 218.833 295.505 218.689 296.052 218.401C296.607 218.112 297.041 217.714 297.354 217.207C297.667 216.699 297.824 216.125 297.825 215.485C297.825 214.836 297.67 214.258 297.358 213.75C297.046 213.234 296.613 212.835 296.058 212.553C295.512 212.264 294.899 212.122 294.219 212.13ZM298.826 222.119C300.263 222.12 301.505 222.278 302.552 222.591C303.598 222.905 304.403 223.359 304.965 223.953C305.526 224.547 305.807 225.259 305.806 226.087C305.805 226.923 305.523 227.637 304.96 228.23C304.397 228.831 303.592 229.288 302.545 229.599C301.497 229.91 300.255 230.065 298.818 230.064C297.372 230.062 296.126 229.905 295.08 229.591C294.033 229.278 293.229 228.82 292.667 228.218C292.113 227.623 291.836 226.908 291.837 226.072C291.838 225.244 292.116 224.534 292.672 223.94C293.235 223.347 294.04 222.895 295.087 222.584C296.142 222.272 297.388 222.117 298.826 222.119ZM298.824 223.548C297.77 223.547 296.852 223.648 296.07 223.85C295.289 224.052 294.687 224.345 294.265 224.727C293.85 225.11 293.643 225.559 293.642 226.074C293.642 226.59 293.848 227.039 294.262 227.423C294.683 227.798 295.284 228.084 296.066 228.28C296.847 228.484 297.764 228.586 298.819 228.587C299.882 228.588 300.8 228.488 301.573 228.286C302.355 228.091 302.953 227.806 303.367 227.432C303.789 227.049 304.001 226.6 304.001 226.085C304.002 225.561 303.791 225.112 303.37 224.737C302.956 224.353 302.359 224.06 301.578 223.856C300.805 223.652 299.887 223.549 298.824 223.548ZM299.315 213.799C299.51 214.338 299.607 214.901 299.606 215.487C299.605 216.041 299.511 216.588 299.323 217.127L303.893 217.132L303.897 213.804L299.315 213.799ZM325.385 218.185L328.713 218.188L328.711 219.735L325.383 219.732L325.372 230.138L323.521 230.136L323.542 209.3L325.394 209.302L325.385 218.185ZM308.948 224.567C311.401 224.569 313.315 224.548 314.691 224.502L314.693 222.194C313.888 222.099 313.181 221.887 312.572 221.559C311.971 221.222 311.507 220.788 311.179 220.256C310.86 219.717 310.704 219.107 310.712 218.428C310.705 217.654 310.905 216.979 311.312 216.401C311.727 215.815 312.305 215.363 313.048 215.043C313.798 214.724 314.662 214.565 315.638 214.566C316.599 214.567 317.451 214.728 318.192 215.049C318.942 215.37 319.524 215.823 319.937 216.41C320.358 216.988 320.573 217.664 320.58 218.438C320.571 219.118 320.399 219.727 320.062 220.265C319.726 220.796 319.252 221.229 318.643 221.565C318.041 221.9 317.341 222.114 316.544 222.207L316.542 224.434C318.761 224.327 320.667 224.157 322.261 223.924L322.377 225.33C320.361 225.672 318.291 225.893 316.166 225.992C314.04 226.091 311.736 226.14 309.251 226.137L308.948 224.567ZM321.897 213.353L309.335 213.34L309.336 211.84L314.704 211.846L314.706 209.338L316.558 209.34L316.555 211.848L321.899 211.853L321.897 213.353ZM315.637 215.995C315.004 215.995 314.445 216.096 313.961 216.298C313.476 216.501 313.097 216.79 312.823 217.164C312.557 217.531 312.424 217.953 312.423 218.429C312.423 218.906 312.555 219.328 312.82 219.695C313.086 220.055 313.46 220.333 313.945 220.529C314.437 220.717 314.999 220.807 315.632 220.8C316.257 220.808 316.812 220.719 317.296 220.532C317.781 220.337 318.156 220.06 318.422 219.701C318.688 219.334 318.821 218.913 318.822 218.436C318.822 217.959 318.69 217.537 318.425 217.17C318.159 216.795 317.785 216.505 317.301 216.302C316.816 216.098 316.262 215.996 315.637 215.995ZM331.533 233.051L329.799 233.049L331.095 226.675L333.368 226.678L331.533 233.051ZM358.944 220.891L344.554 220.877L344.564 211.267L358.743 211.282L358.742 212.805L346.39 212.792L346.383 219.355L358.946 219.368L358.944 220.891ZM361.188 227.339L342.11 227.319L342.111 225.772L361.189 225.792L361.188 227.339ZM378.987 217.654L382.479 217.658L382.477 219.205L378.985 219.201L378.974 230.24L377.146 230.238L377.167 209.355L378.995 209.357L378.987 217.654ZM373.15 218.75L365.556 218.742L365.551 223.617C367.621 223.619 369.383 223.57 370.836 223.47C372.297 223.37 373.778 223.18 375.278 222.9L375.464 224.424C373.909 224.711 372.378 224.909 370.87 225.017C369.362 225.117 367.534 225.174 365.385 225.187L363.721 225.185L363.729 217.217L371.323 217.224L371.328 212.818L363.687 212.81L363.689 211.287L373.157 211.297L373.15 218.75ZM394.073 224.912L384.464 224.902L384.477 211.472L394.087 211.482L394.073 224.912ZM386.246 223.404L392.246 223.41L392.257 212.957L386.257 212.951L386.246 223.404ZM399.729 217.699L403.221 217.702L403.219 219.296L399.727 219.293L399.716 230.214L397.888 230.213L397.909 209.377L399.737 209.379L399.729 217.699ZM405.924 233.127L404.19 233.125L405.485 226.752L407.759 226.754L405.924 233.127ZM148.22 263.956L146.439 263.954L146.45 253.079L143.614 253.076L143.604 262.873L141.846 262.871L141.866 243.582L143.624 243.584L143.616 251.53L146.452 251.532L146.46 243.118L148.242 243.12L148.22 263.956ZM140.315 247.284L138.511 247.282L138.501 256.95C139.368 256.888 140.11 256.815 140.728 256.73L140.82 258.089C138.28 258.555 134.796 258.786 130.366 258.782L130.133 257.211L132.407 257.202L132.417 247.276L130.589 247.274L130.59 245.75L140.317 245.76L140.315 247.284ZM134.118 257.168C135.024 257.146 135.915 257.111 136.79 257.065L136.8 247.28L134.128 247.278L134.118 257.168ZM158.245 246.998C158.244 247.998 158.458 248.971 158.887 249.916C159.316 250.862 159.916 251.702 160.689 252.438C161.462 253.165 162.348 253.728 163.348 254.128L162.315 255.557C161.175 255.079 160.171 254.386 159.305 253.479C158.447 252.572 157.799 251.525 157.363 250.337C156.917 251.617 156.24 252.746 155.332 253.721C154.433 254.689 153.377 255.422 152.166 255.921L151.16 254.444C152.184 254.046 153.094 253.469 153.892 252.712C154.69 251.955 155.312 251.081 155.758 250.089C156.204 249.097 156.432 248.066 156.441 246.996L156.444 244.324L158.248 244.326L158.245 246.998ZM168.382 258.727L166.53 258.725L166.537 252.045L162.248 252.041L162.25 250.541L166.539 250.545L166.542 247.78L162.252 247.775L162.254 246.252L166.543 246.256L166.546 243.162L168.398 243.164L168.382 258.727ZM168.846 263.532L154.9 263.518L154.907 257.096L156.759 257.098L156.754 261.973L168.847 261.985L168.846 263.532ZM173.436 266.888L171.702 266.886L172.997 260.513L175.271 260.515L173.436 266.888ZM193.522 243.635C195.03 243.637 196.335 243.795 197.436 244.108C198.545 244.422 199.396 244.876 199.989 245.47C200.582 246.065 200.879 246.776 200.878 247.604C200.877 248.416 200.579 249.115 199.985 249.701C199.391 250.278 198.539 250.723 197.429 251.034C196.327 251.338 195.022 251.489 193.514 251.487C192.006 251.485 190.698 251.332 189.589 251.026C188.48 250.712 187.625 250.266 187.024 249.687C186.431 249.101 186.135 248.401 186.135 247.589C186.136 246.761 186.434 246.05 187.028 245.457C187.63 244.864 188.486 244.412 189.596 244.1C190.706 243.789 192.015 243.634 193.522 243.635ZM193.521 245.112C192.404 245.111 191.431 245.211 190.603 245.414C189.774 245.608 189.137 245.893 188.692 246.267C188.246 246.642 188.027 247.083 188.034 247.591C188.026 248.091 188.24 248.525 188.677 248.892C189.122 249.252 189.759 249.53 190.586 249.726C191.414 249.922 192.391 250.025 193.516 250.034C194.625 250.027 195.59 249.927 196.411 249.732C197.239 249.538 197.876 249.261 198.322 248.902C198.775 248.535 199.002 248.102 199.003 247.602C199.003 247.094 198.777 246.653 198.324 246.277C197.879 245.902 197.243 245.616 196.415 245.42C195.587 245.216 194.622 245.113 193.521 245.112ZM200.674 263.729L186.33 263.714L186.337 256.87L200.681 256.885L200.674 263.729ZM188.16 262.216L198.87 262.227L198.874 258.36L188.164 258.349L188.16 262.216ZM203.003 254.825L184.019 254.805L184.02 253.282L203.005 253.301L203.003 254.825ZM212.153 246.209C212.144 247.209 212.361 248.163 212.806 249.069C213.25 249.976 213.871 250.774 214.667 251.462C215.471 252.15 216.388 252.675 217.419 253.035L216.48 254.487C215.27 254.048 214.208 253.395 213.295 252.527C212.381 251.659 211.691 250.646 211.223 249.49C210.769 250.723 210.076 251.809 209.146 252.745C208.223 253.674 207.152 254.376 205.933 254.851L204.973 253.397C206.005 253.015 206.92 252.462 207.717 251.736C208.523 251.002 209.148 250.155 209.595 249.195C210.049 248.234 210.276 247.239 210.278 246.207L210.28 244.215L212.155 244.217L212.153 246.209ZM221.955 264.032L220.126 264.03L220.132 258.311L207.945 258.299L207.946 256.775L221.962 256.79L221.955 264.032ZM221.963 255.758L220.135 255.757L220.148 243.194L221.976 243.196L221.963 255.758ZM230.705 255.674C230.695 257.853 230.404 259.873 229.832 261.731C229.26 263.59 228.422 265.32 227.319 266.92L225.538 266.918C226.077 266.138 226.582 265.126 227.052 263.885C227.522 262.643 227.899 261.3 228.182 259.855C228.472 258.41 228.618 257.015 228.619 255.672C228.621 254.328 228.478 252.937 228.19 251.499C227.91 250.061 227.537 248.721 227.069 247.479C226.602 246.236 226.099 245.224 225.561 244.442L227.342 244.444C229.565 247.665 230.686 251.408 230.705 255.674ZM252.738 254.36L233.66 254.341L233.661 252.888L252.739 252.907L252.738 254.36ZM250.341 260.452L237.825 260.439L237.823 262.431L251.019 262.445L251.017 263.78L235.97 263.765L235.975 259.171L248.514 259.184L248.516 257.403L235.954 257.39L235.955 256.007L250.346 256.022L250.341 260.452ZM250.283 248.17L237.979 248.158L237.977 249.986L250.656 249.999L250.655 251.335L236.147 251.32L236.152 246.89L248.433 246.903L248.435 245.192L236.083 245.179L236.085 243.843L250.288 243.858L250.283 248.17ZM277.665 264.089L275.814 264.087L275.835 243.251L277.687 243.253L277.665 264.089ZM271.52 245.52C271.502 248.669 270.702 251.496 269.121 254.002C267.54 256.501 265.07 258.553 261.709 260.159L260.702 258.658C263.485 257.34 265.615 255.702 267.094 253.742C268.58 251.783 269.43 249.542 269.644 247.018L261.675 247.01L261.677 245.51L271.52 245.52ZM297.485 249.602L300.626 249.605L300.624 251.152L297.483 251.149L297.476 258.602L295.648 258.6L295.663 243.295L297.492 243.297L297.485 249.602ZM298.432 263.665L284.439 263.651L284.446 257.088L286.251 257.09L286.246 262.106L298.433 262.118L298.432 263.665ZM283.893 248.299L289.963 248.305L289.967 244.789L291.795 244.791L291.784 255.08L282.081 255.07L282.092 244.781L283.896 244.783L283.893 248.299ZM289.958 253.578L289.961 249.758L283.891 249.752L283.887 253.572L289.958 253.578ZM311.435 244.647C312.881 244.649 314.181 244.888 315.337 245.366C316.493 245.844 317.398 246.517 318.054 247.384C318.717 248.252 319.048 249.249 319.047 250.374C319.046 251.507 318.713 252.51 318.048 253.384C317.39 254.251 316.484 254.922 315.327 255.397C314.17 255.865 312.869 256.094 311.424 256.085C309.978 256.091 308.678 255.859 307.522 255.389C306.366 254.912 305.457 254.239 304.794 253.371C304.138 252.495 303.811 251.491 303.812 250.358C303.814 249.233 304.143 248.237 304.8 247.371C305.465 246.504 306.376 245.833 307.532 245.358C308.689 244.883 309.99 244.646 311.435 244.647ZM311.434 246.147C310.325 246.138 309.32 246.313 308.422 246.671C307.531 247.03 306.831 247.533 306.322 248.181C305.814 248.821 305.563 249.547 305.57 250.36C305.562 251.188 305.811 251.923 306.318 252.564C306.825 253.205 307.524 253.702 308.414 254.054C309.312 254.407 310.316 254.584 311.425 254.585C312.527 254.586 313.519 254.411 314.402 254.06C315.293 253.71 315.993 253.214 316.502 252.574C317.01 251.934 317.265 251.2 317.266 250.372C317.266 249.559 317.013 248.833 316.506 248.191C315.999 247.543 315.3 247.038 314.41 246.678C313.527 246.317 312.535 246.141 311.434 246.147ZM321.004 261.368L301.926 261.348L301.928 259.802L321.006 259.821L321.004 261.368ZM341.746 261.577L322.668 261.557L322.67 260.01L331.248 260.019L331.252 256.082L325.064 256.075L325.071 249.653L337.54 249.666L337.543 246.385L325.027 246.372L325.029 244.849L339.349 244.863L339.343 251.168L326.898 251.155L326.894 254.554L339.832 254.567L339.83 256.09L333.057 256.083L333.052 260.021L341.748 260.03L341.746 261.577ZM365.734 250.234L368.875 250.237L368.873 251.784L365.733 251.781L365.725 258.976L363.897 258.975L363.913 243.365L365.741 243.367L365.734 250.234ZM361.917 247.418L349.495 247.405L349.497 245.905L354.794 245.91L354.796 243.356L356.624 243.358L356.622 245.912L361.919 245.918L361.917 247.418ZM355.705 248.56C356.689 248.561 357.556 248.722 358.306 249.043C359.063 249.364 359.653 249.818 360.074 250.404C360.495 250.991 360.71 251.674 360.717 252.456C360.708 253.229 360.492 253.905 360.07 254.482C359.647 255.06 359.057 255.509 358.299 255.828C357.549 256.14 356.681 256.295 355.697 256.294C354.705 256.293 353.826 256.136 353.061 255.823C352.303 255.502 351.714 255.052 351.293 254.473C350.879 253.895 350.677 253.219 350.685 252.445C350.678 251.664 350.882 250.981 351.297 250.395C351.719 249.81 352.31 249.357 353.068 249.038C353.834 248.718 354.713 248.559 355.705 248.56ZM355.703 250.013C355.055 250.012 354.481 250.113 353.98 250.316C353.488 250.511 353.105 250.795 352.831 251.17C352.565 251.537 352.436 251.963 352.443 252.447C352.435 252.932 352.563 253.357 352.829 253.725C353.102 254.085 353.484 254.362 353.976 254.558C354.476 254.754 355.05 254.848 355.698 254.841C356.339 254.85 356.906 254.756 357.398 254.562C357.898 254.367 358.285 254.09 358.559 253.731C358.833 253.364 358.974 252.938 358.982 252.454C358.975 251.969 358.835 251.544 358.562 251.176C358.289 250.801 357.902 250.515 357.402 250.319C356.91 250.116 356.344 250.014 355.703 250.013ZM366.682 263.735L352.689 263.721L352.695 257.721L354.5 257.723L354.496 262.176L366.683 262.188L366.682 263.735ZM183.245 289.18L164.261 289.16L164.262 287.66L169.536 287.666L169.539 284.923L171.367 284.925L171.364 287.667L176.192 287.672L176.195 284.93L177.999 284.932L177.997 287.674L183.247 287.68L183.245 289.18ZM174.665 291.14C174.664 292.03 174.984 292.847 175.623 293.59C176.271 294.333 177.134 294.955 178.211 295.456C179.289 295.949 180.472 296.286 181.761 296.467L181.033 297.896C179.377 297.621 177.893 297.112 176.581 296.368C175.27 295.632 174.318 294.717 173.725 293.623C173.13 294.716 172.176 295.629 170.863 296.362C169.549 297.103 168.065 297.609 166.408 297.881L165.706 296.451C166.988 296.272 168.168 295.938 169.246 295.446C170.325 294.948 171.185 294.327 171.827 293.586C172.468 292.844 172.789 292.028 172.79 291.138L172.791 290.505L174.666 290.507L174.665 291.14ZM174.678 278.343C174.677 279.202 175.032 280.015 175.742 280.781C176.46 281.54 177.393 282.181 178.541 282.706C179.689 283.223 180.884 283.56 182.126 283.718L181.445 285.147C180.359 284.981 179.308 284.699 178.293 284.3C177.286 283.9 176.384 283.395 175.588 282.785C174.791 282.175 174.183 281.491 173.762 280.732C173.331 281.49 172.717 282.173 171.92 282.781C171.13 283.39 170.227 283.893 169.211 284.29C168.203 284.688 167.156 284.968 166.07 285.131L165.368 283.7C166.626 283.538 167.829 283.199 168.978 282.684C170.127 282.17 171.054 281.534 171.758 280.777C172.469 280.02 172.826 279.208 172.827 278.341L172.828 277.356L174.679 277.358L174.678 278.343ZM203.987 289.201L185.003 289.181L185.004 287.681L193.559 287.69L193.562 285.276L186.859 285.269L186.86 283.746L190.001 283.749L190.005 279.366L186.794 279.363L186.796 277.839L202.194 277.855L202.193 279.379L198.982 279.375L198.977 283.758L202.118 283.761L202.116 285.285L195.39 285.278L195.387 287.692L203.989 287.701L203.987 289.201ZM201.658 297.73L187.314 297.715L187.321 291.199L201.665 291.214L201.658 297.73ZM189.144 296.217L199.855 296.228L199.859 292.642L189.148 292.631L189.144 296.217ZM197.149 283.756L197.154 279.374L191.833 279.368L191.829 283.751L197.149 283.756ZM228.395 279.968C228.394 281.288 228.361 282.456 228.298 283.472C228.234 284.48 228.077 285.616 227.826 286.882L225.998 286.716C226.225 285.646 226.387 284.548 226.482 283.423L213.79 284.008L213.533 282.437L226.565 282.029C226.581 281.544 226.59 280.857 226.591 279.966L226.591 279.732L214.052 279.719L214.053 278.219L228.397 278.234L228.395 279.968ZM230.752 289.791L211.791 289.771L211.793 288.271L219.527 288.279L219.53 285.209L221.382 285.211L221.379 288.281L230.754 288.291L230.752 289.791ZM228.869 297.711L214.197 297.696L214.204 291.555L216.055 291.557L216.05 296.198L228.871 296.211L228.869 297.711ZM250.202 292.858L248.444 292.856L248.461 277.247L250.218 277.248L250.202 292.858ZM246.148 292.315L244.367 292.313L244.375 284.649L241.562 284.646L241.564 283.169L244.376 283.172L244.382 277.664L246.163 277.666L246.148 292.315ZM250.83 297.616L236.604 297.602L236.61 291.109L238.485 291.111L238.48 296.057L250.832 296.069L250.83 297.616ZM241.449 280.474L235.262 280.467L235.259 283.35L240.579 283.356L240.578 284.809L235.257 284.803L235.254 287.85C236.887 287.844 238.219 287.806 239.251 287.737C240.282 287.66 241.325 287.513 242.38 287.295L242.566 288.795C241.409 289.028 240.272 289.183 239.155 289.26C238.046 289.337 236.597 289.375 234.807 289.373L233.495 289.372L233.506 278.942L241.451 278.95L241.449 280.474ZM272.325 295.412L253.247 295.392L253.248 293.845L272.326 293.865L272.325 295.412ZM263.713 282.114C263.712 283.223 264.047 284.251 264.718 285.197C265.389 286.135 266.287 286.925 267.411 287.567C268.543 288.201 269.777 288.636 271.113 288.871L270.361 290.371C268.651 290.025 267.112 289.402 265.746 288.503C264.387 287.603 263.392 286.492 262.761 285.171C262.127 286.491 261.126 287.599 259.758 288.496C258.397 289.394 256.861 290.013 255.15 290.355L254.425 288.854C255.761 288.621 256.992 288.189 258.118 287.557C259.251 286.918 260.155 286.13 260.827 285.193C261.5 284.248 261.837 283.221 261.838 282.112L255.041 282.105L255.043 280.605L261.863 280.612L261.866 277.753L263.671 277.754L263.668 280.614L270.512 280.621L270.51 282.121L263.713 282.114ZM293.051 288.402L273.973 288.382L273.974 286.929L293.052 286.949L293.051 288.402ZM290.654 294.493L278.138 294.48L278.136 296.472L291.331 296.486L291.33 297.822L276.283 297.806L276.288 293.213L288.827 293.226L288.829 291.444L276.266 291.431L276.268 290.049L290.658 290.063L290.654 294.493ZM290.596 282.212L278.291 282.199L278.29 284.027L290.969 284.04L290.968 285.376L276.46 285.361L276.465 280.932L288.746 280.944L288.748 279.233L276.396 279.221L276.397 277.885L290.601 277.899L290.596 282.212ZM318.564 298.131L316.806 298.129L316.828 277.293L318.586 277.295L318.564 298.131ZM314.346 297.049L312.612 297.047L312.623 286.313L309.108 286.309L309.109 284.809L312.625 284.813L312.632 277.805L314.366 277.806L314.346 297.049ZM306.884 283.236C306.883 284.447 307.057 285.631 307.408 286.788C307.758 287.936 308.273 288.976 308.951 289.906C309.63 290.829 310.438 291.56 311.375 292.1L310.249 293.459C309.241 292.856 308.379 292.023 307.661 290.96C306.944 289.889 306.398 288.677 306.024 287.325C305.64 288.786 305.072 290.094 304.321 291.249C303.578 292.405 302.694 293.302 301.67 293.942L300.5 292.558C301.445 291.996 302.267 291.228 302.963 290.252C303.659 289.276 304.188 288.183 304.548 286.972C304.917 285.754 305.102 284.508 305.103 283.234L305.105 281.266L301.097 281.262L301.099 279.738L310.708 279.748L310.706 281.271L306.886 281.268L306.884 283.236ZM330.924 290.48C332.416 290.481 333.709 290.635 334.802 290.941C335.903 291.239 336.75 291.677 337.344 292.256C337.937 292.827 338.233 293.511 338.232 294.308C338.231 295.097 337.934 295.776 337.339 296.346C336.745 296.915 335.897 297.348 334.795 297.644C333.693 297.947 332.4 298.098 330.916 298.097C329.431 298.095 328.142 297.942 327.049 297.636C325.956 297.338 325.112 296.903 324.519 296.333C323.926 295.762 323.63 295.082 323.631 294.293C323.631 293.496 323.929 292.812 324.523 292.243C325.118 291.665 325.962 291.229 327.056 290.933C328.15 290.629 329.439 290.478 330.924 290.48ZM330.922 291.886C329.821 291.893 328.856 291.993 328.027 292.188C327.199 292.382 326.562 292.663 326.116 293.029C325.671 293.388 325.451 293.81 325.459 294.294C325.45 294.771 325.669 295.189 326.114 295.549C326.559 295.901 327.195 296.171 328.023 296.36C328.851 296.548 329.816 296.643 330.917 296.644C332.019 296.645 332.98 296.552 333.8 296.366C334.629 296.179 335.266 295.91 335.711 295.559C336.165 295.2 336.396 294.782 336.404 294.306C336.397 293.821 336.167 293.399 335.714 293.039C335.269 292.672 334.633 292.39 333.805 292.194C332.984 291.997 332.024 291.895 330.922 291.886ZM338.083 280.151C338.081 281.276 338.045 282.241 337.974 283.046C337.911 283.842 337.75 284.721 337.491 285.682L335.687 285.469C335.937 284.508 336.095 283.649 336.158 282.891C336.221 282.134 336.253 281.22 336.254 280.149L336.255 279.891L323.786 279.879L323.788 278.379L338.084 278.393L338.083 280.151ZM340.488 288.544L321.527 288.525L321.529 287.025L329.38 287.033L329.384 283.002L331.189 283.003L331.185 287.035L340.49 287.044L340.488 288.544Z" fill="#474747"/>
<rect x="2" y="2" width="500" height="408" rx="50" stroke="url(#paint0_linear_815_6114)" stroke-width="3"/>
<path d="M181.75 72.4268L181.74 82.2705L186.184 82.2751L186.181 84.9753L181.737 84.9707L181.727 95.3271L178.48 95.3238L178.503 72.4234L181.75 72.4268ZM175.97 75.9755L175.968 78.6073L157.716 78.5886L157.718 75.9568L165.238 75.9645L165.242 72.3756L168.489 72.379L168.485 75.9678L175.97 75.9755ZM166.84 80.0677C171.249 80.0722 174.255 82.3654 174.251 85.8517C174.248 89.338 171.237 91.5908 166.828 91.5862C162.385 91.5817 159.379 89.3227 159.383 85.8364C159.387 82.3501 162.397 80.0631 166.84 80.0677ZM166.838 82.5628C164.24 82.5601 162.495 83.823 162.528 85.8396C162.491 87.822 164.233 89.0543 166.831 89.0569C169.429 89.0596 171.173 87.8309 171.209 85.8486C171.177 83.8319 169.435 82.5655 166.838 82.5628ZM183.021 99.7376L183.018 102.369L162.306 102.348L162.315 93.4957L165.562 93.499L165.555 99.7197L183.021 99.7376ZM212.408 73.8596L212.406 76.1497C212.403 78.4055 212.401 81.1057 211.713 84.6597L215.952 84.664L215.949 87.2959L203.508 87.2831L203.502 92.5126L212.526 92.5219L212.515 103.049L209.268 103.046L209.276 95.1162L190.785 95.0972L190.787 92.4995L200.255 92.5093L200.26 87.2798L187.922 87.2671L187.924 84.6353L208.432 84.6563C209.153 81.2391 209.19 78.6757 209.192 76.4882L191.453 76.4699L191.456 73.8381L212.408 73.8596ZM253.015 72.4658L252.984 103.091L249.873 103.088L249.889 87.2624L245.925 87.2583L245.91 101.511L242.936 101.508L242.966 73.0707L245.939 73.0738L245.927 84.5923L249.892 84.5964L249.905 72.4626L253.015 72.4658ZM239.237 76.143L239.234 78.7749L230.997 78.7664L230.982 92.951C234.742 92.9207 237.579 92.7527 240.861 92.1408L241.097 94.8071C237.405 95.5552 234.261 95.6887 229.783 95.7183L227.732 95.7162L227.752 76.1312L239.237 76.143ZM284.89 86.6831L284.887 89.3149L272.514 89.3022L272.511 92.2417C278.134 92.5551 281.464 94.4555 281.461 97.6513C281.457 101.138 277.49 103.082 270.894 103.041C264.229 103.068 260.266 101.116 260.269 97.6295C260.273 94.4337 263.607 92.5402 269.298 92.2384L269.301 89.2989L256.963 89.2863L256.965 86.6544L284.89 86.6831ZM270.902 94.701C266.22 94.6962 263.553 95.753 263.551 97.6329C263.549 99.4786 266.214 100.575 270.896 100.546C275.511 100.585 278.212 99.4936 278.214 97.6479C278.216 95.7681 275.517 94.7057 270.902 94.701ZM282.408 73.8973L282.405 76.495L273.109 76.4855C273.567 79.4425 277.871 81.9591 283.459 82.5117L282.294 85.074C276.997 84.4533 272.607 82.21 270.953 78.9442C269.24 82.2066 264.863 84.4409 259.565 85.0506L258.439 82.486C263.943 81.9448 268.269 79.437 268.734 76.481L259.539 76.4715L259.542 73.8739L282.408 73.8973ZM315.206 88.0131L315.203 90.6449L303.035 90.6324L303.029 96.5797L299.816 96.5764L299.823 90.6291L287.176 90.6161L287.179 87.9843L315.206 88.0131ZM311.597 73.9615L311.586 84.8306L290.771 84.8093L290.782 73.9401L311.597 73.9615ZM293.958 76.5069L293.952 82.2491L308.376 82.2639L308.382 76.5217L293.958 76.5069ZM312.084 99.8702L312.081 102.502L290.65 102.48L290.659 93.6617L293.906 93.665L293.9 99.8515L312.084 99.8702ZM341.472 72.5567L341.459 85.374L346.073 85.3788L346.07 88.1131L341.456 88.1084L341.441 103.182L338.193 103.178L338.225 72.5533L341.472 72.5567ZM317.079 94.8168C319.489 94.8192 322.291 94.8221 325.214 94.7226L325.217 91.6122C321.765 91.1302 319.512 89.0429 319.549 86.0693C319.518 82.6171 322.494 80.3301 326.869 80.3346C331.21 80.3391 334.216 82.6322 334.246 86.0844C334.209 89.058 331.917 91.1577 328.464 91.6497L328.461 94.5892C331.178 94.4894 333.913 94.2701 336.46 93.9138L336.662 96.3066C330.03 97.4961 322.853 97.5229 317.589 97.5175L317.079 94.8168ZM336.034 76.1741L336.031 78.7718L317.677 78.7529L317.679 76.1553L325.233 76.163L325.237 72.6083L328.484 72.6117L328.48 76.1664L336.034 76.1741ZM326.867 82.8639C324.303 82.8613 322.593 84.1242 322.591 86.0724C322.589 88.0207 324.297 89.2187 326.86 89.2213C329.424 89.224 331.134 88.0294 331.136 86.0812C331.138 84.133 329.43 82.8666 326.867 82.8639ZM200.677 130.656L200.675 133.288L172.75 133.259L172.753 130.628L180.306 130.635L180.31 126.807L183.523 126.81L183.519 130.639L189.911 130.645L189.915 126.817L193.128 126.82L193.124 130.648L200.677 130.656ZM188.333 135.873C188.329 139.633 192.599 142.611 198.545 143.369L197.346 145.897C192.511 145.157 188.497 143.068 186.654 139.939C184.788 143.064 180.787 145.145 175.95 145.875L174.756 143.344C180.704 142.599 184.98 139.629 185.018 135.87L185.018 135.083L188.334 135.087L188.333 135.873ZM188.352 117.006C188.349 120.766 193.165 124.018 199.077 124.707L197.878 127.201C192.974 126.495 188.636 124.269 186.674 120.969C184.722 124.248 180.43 126.483 175.525 127.178L174.297 124.682C180.245 123.936 185.033 120.728 185.071 117.002L185.073 115.704L188.354 115.707L188.352 117.006ZM230.926 130.687L230.924 133.285L202.999 133.256L203.002 130.659L215.306 130.671L215.31 127.493L205.705 127.483L205.708 124.851L210.049 124.855L210.055 119.011L205.577 119.006L205.58 116.374L228.309 116.397L228.306 119.029L223.863 119.025L223.857 124.869L228.164 124.874L228.161 127.506L218.557 127.496L218.553 130.675L230.926 130.687ZM227.503 135.947L227.493 145.689L206.336 145.667L206.346 135.926L227.503 135.947ZM209.556 138.458L209.551 143.038L224.351 143.054L224.356 138.473L209.556 138.458ZM213.261 124.859L220.61 124.866L220.616 119.021L213.267 119.014L213.261 124.859ZM266.351 116.847L266.348 119.547C266.345 122.452 266.342 125.528 265.483 129.697L262.27 129.421C262.614 127.763 262.838 126.294 262.959 124.91L244.74 125.745L244.299 123.011L263.098 122.517C263.133 121.475 263.134 120.501 263.135 119.544L263.135 119.475L245.088 119.457L245.091 116.825L266.351 116.847ZM269.685 131.582L269.683 134.179L241.826 134.151L241.829 131.553L252.869 131.564L252.873 127.258L256.154 127.261L256.15 131.568L269.685 131.582ZM266.973 142.995L266.971 145.627L245.267 145.604L245.276 136.513L248.523 136.516L248.516 142.976L266.973 142.995ZM298.173 115.546L298.15 138.447L295.074 138.444L295.097 115.543L298.173 115.546ZM292.157 116.121L292.135 137.689L289.059 137.685L289.07 126.714L285.276 126.71L285.279 124.078L289.073 124.082L289.081 116.118L292.157 116.121ZM299.034 142.857L299.031 145.489L277.977 145.467L277.986 135.897L281.268 135.9L281.261 142.839L299.034 142.857ZM285.08 117.96L285.077 120.592L276.532 120.583L276.529 124.411L283.877 124.418L283.875 126.948L276.526 126.94L276.522 130.939C280.555 130.926 283.238 130.826 286.366 130.197L286.671 132.795C283.15 133.475 280.245 133.609 275.391 133.604L273.409 133.602L273.425 117.948L285.08 117.96ZM330.312 139.676L330.309 142.342L302.282 142.313L302.284 139.647L330.312 139.676ZM327.734 120.259L327.731 122.891L317.922 122.881C318.054 127.478 322.544 131.277 328.815 132.292L327.514 134.888C322.439 133.977 318.238 131.375 316.276 127.63C314.273 131.371 310.066 133.964 305.024 134.865L303.762 132.266C309.966 131.264 314.465 127.475 314.64 122.878L304.831 122.868L304.834 120.236L314.677 120.246L314.682 116.179L317.894 116.182L317.89 120.249L327.734 120.259Z" fill="#FF4870"/>
<defs>
<linearGradient id="paint0_linear_815_6114" x1="30.6426" y1="16.1523" x2="521.831" y2="352.792" gradientUnits="userSpaceOnUse">
<stop stop-color="#FF577C"/>
<stop offset="1" stop-color="#66B8FB"/>
</linearGradient>
</defs>
</svg>
