<svg width="504" height="412" viewBox="0 0 504 412" fill="none" xmlns="http://www.w3.org/2000/svg">
<path d="M153.938 74.3649L153.924 87.5582L139.603 87.5435L139.617 74.3502L153.938 74.3649ZM141.367 100.294C146.615 99.5478 150.531 96.9713 151.03 93.9811L142.604 93.9724L142.607 91.3747L162.944 91.3956L162.941 93.9933L154.55 93.9847C155.009 96.9075 158.988 99.5605 164.199 100.352L163 102.846C158.353 102.123 154.527 99.9832 152.753 97.0761C151.006 99.9967 147.21 102.095 142.561 102.791L141.367 100.294ZM142.784 84.9491L150.748 84.9573L150.757 76.9593L142.793 76.9511L142.784 84.9491ZM159.22 89.6828L159.238 72.3196L162.485 72.3229L162.478 79.4323L166.921 79.4368L166.918 82.137L162.475 82.1325L162.467 89.6862L159.22 89.6828ZM196.581 87.3628L196.578 89.9605L184.205 89.9478L184.202 92.9556L193.157 92.9648L193.147 102.603L171.99 102.582L172 92.943L180.989 92.9523L180.992 89.9445L168.653 89.9318L168.656 87.3341L196.581 87.3628ZM170.13 83.3024C176.266 82.8302 180.438 80.6641 180.8 77.7079L171.469 77.6983L171.471 75.1349L181.007 75.1447L181.01 72.2394L184.223 72.2427L184.22 75.148L193.791 75.1578L193.788 77.7213L184.406 77.7116C184.744 80.6685 188.963 82.8433 195.081 83.3281L194.122 85.7538C188.79 85.2869 184.502 83.5735 182.608 80.7518C180.691 83.5696 176.4 85.2742 171.119 85.7302L170.13 83.3024ZM175.206 99.9532L190.005 99.9684L190.01 95.5592L175.21 95.544L175.206 99.9532ZM216.178 75.5909L216.175 78.1886L198.949 78.1709L198.951 75.5732L206.129 75.5806L206.133 72.0943L209.346 72.0976L209.342 75.5839L216.178 75.5909ZM200.65 85.282C200.654 81.8641 203.527 79.5941 207.697 79.5813C211.816 79.6026 214.753 81.8785 214.767 85.2965C214.746 88.7145 211.804 90.9673 207.686 90.9631C203.516 90.9588 200.647 88.7 200.65 85.282ZM203.692 85.2852C203.673 87.2676 205.261 88.5167 207.688 88.5021C210.081 88.5217 211.723 87.2758 211.759 85.2934C211.727 83.311 210.087 82.0446 207.695 82.0422C205.268 82.0397 203.677 83.3027 203.692 85.2852ZM203.851 97.6584C203.837 94.3258 207.77 92.3987 214.247 92.4054C220.655 92.412 224.601 94.3472 224.598 97.6797C224.594 101.012 220.644 102.956 214.236 102.933C207.759 102.943 203.83 100.991 203.851 97.6584ZM207.234 97.6618C207.215 99.4392 209.829 100.467 214.238 100.438C218.562 100.476 221.144 99.4535 221.145 97.6761C221.147 95.8817 218.568 94.9049 214.244 94.9005C209.835 94.896 207.219 95.8674 207.234 97.6618ZM216.233 88.1691L216.236 85.5373L221.192 85.5424L221.196 82.1586L216.274 82.1535L216.276 79.5217L221.198 79.5268L221.206 72.3832L224.453 72.3865L224.432 92.1082L221.185 92.1049L221.189 88.1742L216.233 88.1691ZM263.11 72.4604L263.092 89.7895L259.845 89.7862L259.863 72.4571L263.11 72.4604ZM237.837 86.5165C242.623 84.915 245.516 80.8506 245.537 76.5781L245.54 73.6045L248.856 73.6079L248.853 76.5815C248.831 80.7173 251.784 84.4459 256.431 86.0229L254.822 88.5164C251.268 87.3335 248.588 84.9211 247.207 81.7752C245.836 85.1405 243.116 87.8037 239.44 89.0816L237.837 86.5165ZM242.947 102.655L242.959 91.4095L263.09 91.4302L263.079 102.675L242.947 102.655ZM246.163 100.026L259.903 100.04L259.909 94.0245L246.169 94.0104L246.163 100.026ZM291.958 72.4559L291.944 85.2733L296.559 85.278L296.556 88.0124L291.942 88.0076L291.926 103.081L288.679 103.078L288.71 72.4526L291.958 72.4559ZM267.565 94.716C269.974 94.7185 272.777 94.7214 275.699 94.6389L275.703 91.5286C272.251 91.0123 269.997 88.925 270.034 85.9685C270.004 82.5164 272.997 80.2465 277.355 80.2339C281.696 80.2554 284.718 82.5315 284.732 85.9836C284.712 88.9402 282.419 91.0399 278.95 91.5319L278.947 94.5226C281.664 94.3887 284.399 94.1693 286.945 93.8131L287.148 96.2058C280.516 97.3782 273.355 97.4392 268.074 97.4167L267.565 94.716ZM268.162 78.6522L268.165 76.0545L275.718 76.0623L275.722 72.5076L278.969 72.5109L278.966 76.0656L286.519 76.0734L286.517 78.671L268.162 78.6522ZM273.076 85.9717C273.074 87.9199 274.782 89.135 277.346 89.1206C279.909 89.1403 281.602 87.9287 281.621 85.9804C281.606 84.0151 279.916 82.7658 277.352 82.7632C274.789 82.7605 273.078 84.0063 273.076 85.9717ZM325.04 75.6002L325.038 78.1979L306.786 78.1791L306.788 75.5815L314.308 75.5892L314.311 72.3421L317.558 72.3455L317.555 75.5925L325.04 75.6002ZM308.453 85.1193C308.44 81.7697 311.484 79.5853 315.91 79.5557C320.319 79.5944 323.325 81.785 323.321 85.1346C323.318 88.5013 320.308 90.7028 315.899 90.6983C311.473 90.6937 308.433 88.486 308.453 85.1193ZM310.561 95.8197L310.564 93.1879L330.799 93.2087L330.788 103.121L327.541 103.117L327.549 95.8372L310.561 95.8197ZM311.598 85.1226C311.562 87.0195 313.304 88.1663 315.901 88.169C318.499 88.1716 320.243 87.0284 320.28 85.1315C320.247 83.2516 318.505 82.0706 315.908 82.0508C313.31 82.0652 311.566 83.2426 311.598 85.1226ZM327.553 91.6331L327.573 72.4925L330.82 72.4958L330.811 80.8015L335.255 80.806L335.252 83.5062L330.809 83.5017L330.8 91.6364L327.553 91.6331ZM343.653 90.8635L343.649 94.1106L358.039 94.1253L358.042 90.8783L361.289 90.8816L361.277 102.776L340.427 102.755L340.44 90.8602L343.653 90.8635ZM336.989 88.9426L336.992 86.2424L364.917 86.2711L364.914 88.9713L336.989 88.9426ZM338.501 81.8006C344.432 81.0376 349.289 77.7785 349.309 74.1554L349.311 72.8566L352.626 72.86L352.625 74.1588C352.638 77.6794 357.522 81.1024 363.384 81.8261L362.219 84.3884C357.263 83.6997 352.942 81.3369 350.98 78.0707C348.994 81.3499 344.651 83.6868 339.729 84.3653L338.501 81.8006ZM343.643 100.16L358.033 100.175L358.036 96.6546L343.647 96.6399L343.643 100.16ZM213.488 115.375L213.457 146L210.175 145.997L210.207 115.372L213.488 115.375ZM188.309 137.771C196.448 133.9 200.435 128.384 201.075 121.241L189.796 121.23L189.798 118.632L204.359 118.647C204.35 127.619 200.531 135.374 190.015 140.405L188.309 137.771ZM243.011 123.677L243.008 126.309L221.988 126.287L221.998 115.931L225.211 115.934L225.203 123.659L243.011 123.677ZM218.256 132.197L218.259 129.531L246.218 129.559L246.215 132.225L218.256 132.197ZM221.563 140.266C221.567 136.695 225.551 134.682 232.199 134.706C238.795 134.696 242.741 136.716 242.755 140.288C242.734 143.877 238.784 145.89 232.187 145.883C225.539 145.876 221.559 143.855 221.563 140.266ZM224.844 140.27C224.825 142.235 227.507 143.366 232.19 143.388C236.804 143.375 239.505 142.25 239.507 140.285C239.51 138.302 236.81 137.257 232.196 137.235C227.514 137.248 224.829 138.287 224.844 140.27ZM283.351 115.447L283.32 146.072L280.21 146.069L280.241 115.444L283.351 115.447ZM256.6 137.602C260.944 134.992 263.154 129.423 263.177 123.971L263.179 121.51L257.539 121.505L257.542 118.873L271.556 118.887L271.553 121.519L266.289 121.514L266.287 123.974C266.282 129.204 268.395 134.453 272.699 136.935L270.749 139.326C267.828 137.58 265.832 134.45 264.759 130.758C263.661 134.755 261.573 138.171 258.58 140.031L256.6 137.602ZM269.29 128.934L269.292 126.268L274.043 126.272L274.054 116.087L277.13 116.09L277.101 144.528L274.025 144.524L274.041 128.938L269.29 128.934ZM301.105 134.708C307.736 134.715 311.921 136.822 311.934 140.393C311.913 143.948 307.724 146.046 301.093 146.022C294.531 146.032 290.329 143.926 290.333 140.371C290.336 136.799 294.543 134.702 301.105 134.708ZM287.333 132.165L287.336 129.533L298.513 129.545L298.519 123.803L301.697 123.806L301.691 129.548L315.192 129.562L315.19 132.194L287.333 132.165ZM290.593 119.556L290.596 116.958L311.719 116.98L311.716 119.544C311.731 121.987 311.728 124.517 310.853 127.677L307.675 127.332C308.499 124.206 308.501 121.95 308.503 119.574L290.593 119.556ZM293.58 140.375C293.543 142.357 296.465 143.505 301.096 143.527C305.779 143.515 308.685 142.373 308.721 140.39C308.689 138.374 305.785 137.191 301.103 137.169C296.471 137.182 293.548 138.358 293.58 140.375Z" fill="#FF4870"/>
<path d="M100.64 211.819L100.64 212.1C100.623 213.139 100.583 214.1 100.52 214.983C100.456 215.866 100.314 216.865 100.095 217.982L98.2432 217.84C98.463 216.739 98.6086 215.762 98.6798 214.911C98.7588 214.059 98.8065 213.176 98.8231 212.262L90.2567 212.254L90.2583 210.707L100.641 210.717L100.64 211.819ZM95.2646 219.806C97.9522 219.699 100.241 219.514 102.132 219.25L102.248 220.61C100.302 220.944 98.228 221.168 96.0248 221.283C93.8294 221.39 91.5363 221.442 89.1457 221.44L88.9598 219.916L89.2176 219.917L93.4364 219.862L93.4411 215.327L95.2692 215.329L95.2646 219.806ZM105.417 215.902L108.464 215.905L108.462 217.475L105.415 217.472L105.408 224.785L103.533 224.783L103.549 209.103L105.424 209.105L105.417 215.902ZM106.083 229.496L92.1609 229.482L92.1672 223.365L94.0187 223.367L94.014 227.937L106.084 227.949L106.083 229.496ZM127.021 220.987L125.193 220.985L125.205 209.149L127.033 209.151L127.021 220.987ZM127.012 229.682L113.465 229.668L113.473 222.168L127.02 222.182L127.012 229.682ZM115.272 228.17L125.209 228.18L125.214 223.68L115.276 223.67L115.272 228.17ZM117.21 212C117.201 212.961 117.423 213.883 117.875 214.766C118.327 215.65 118.956 216.428 119.76 217.1C120.564 217.765 121.477 218.278 122.5 218.638L121.561 220.044C120.351 219.628 119.285 218.998 118.364 218.154C117.451 217.301 116.76 216.308 116.293 215.175C115.831 216.393 115.13 217.463 114.192 218.384C113.253 219.297 112.163 219.979 110.92 220.431L109.984 218.977C111.031 218.611 111.958 218.077 112.763 217.374C113.576 216.664 114.206 215.845 114.652 214.915C115.107 213.978 115.334 213.006 115.335 211.998L115.337 209.959L117.212 209.961L117.21 212ZM143.636 223.137C143.635 224.097 143.888 225.023 144.395 225.915C144.91 226.806 145.643 227.521 146.596 228.061C147.229 227.664 147.777 227.188 148.238 226.633C148.7 226.071 149.048 225.49 149.283 224.888C149.518 224.279 149.636 223.697 149.636 223.143L149.637 221.994L151.442 221.996L151.441 223.145C151.44 223.863 151.607 224.567 151.943 225.254C152.286 225.934 152.777 226.548 153.417 227.096C154.057 227.635 154.811 228.054 155.678 228.352L154.762 229.71C153.739 229.35 152.865 228.826 152.139 228.137C151.413 227.449 150.867 226.66 150.501 225.769C150.156 226.659 149.659 227.467 149.01 228.193C148.361 228.919 147.575 229.476 146.653 229.866C145.677 229.49 144.857 228.946 144.193 228.235C143.538 227.531 143.047 226.722 142.719 225.807C142.336 226.674 141.788 227.447 141.076 228.126C140.365 228.805 139.52 229.328 138.544 229.694L137.607 228.333C138.459 228.014 139.202 227.577 139.835 227.023C140.477 226.461 140.969 225.841 141.314 225.161C141.666 224.482 141.846 223.807 141.855 223.135L141.856 221.986L143.637 221.988L143.636 223.137ZM153.787 221.084L151.959 221.083L151.971 209.176L153.799 209.178L153.787 221.084ZM142.548 210.385C143.595 210.386 144.532 210.594 145.36 211.009C146.187 211.416 146.835 211.991 147.303 212.734C147.771 213.469 148.005 214.313 148.004 215.266C148.003 216.203 147.767 217.039 147.298 217.773C146.828 218.507 146.179 219.077 145.351 219.482C144.522 219.887 143.585 220.09 142.538 220.088C141.491 220.087 140.554 219.883 139.726 219.476C138.898 219.069 138.25 218.498 137.782 217.763C137.314 217.028 137.081 216.192 137.082 215.255C137.083 214.302 137.318 213.458 137.787 212.724C138.257 211.983 138.906 211.409 139.735 211.004C140.563 210.59 141.501 210.384 142.548 210.385ZM142.546 211.956C141.843 211.947 141.21 212.083 140.647 212.364C140.092 212.645 139.658 213.039 139.345 213.546C139.032 214.046 138.879 214.616 138.886 215.257C138.878 215.889 139.03 216.456 139.342 216.956C139.654 217.457 140.087 217.848 140.641 218.13C141.204 218.411 141.836 218.557 142.539 218.565C143.235 218.558 143.86 218.414 144.415 218.133C144.97 217.853 145.404 217.463 145.717 216.963C146.038 216.463 146.198 215.897 146.199 215.264C146.2 214.624 146.04 214.053 145.72 213.553C145.408 213.045 144.975 212.65 144.421 212.368C143.866 212.086 143.241 211.949 142.546 211.956ZM174.182 216.98L159.908 216.966L159.915 209.934L161.744 209.936L161.738 215.491L174.183 215.504L174.182 216.98ZM176.38 221.319L157.302 221.299L157.304 219.799L176.382 219.819L176.38 221.319ZM174.286 229.496L159.778 229.481L159.784 223.434L161.612 223.436L161.608 227.96L174.287 227.973L174.286 229.496ZM203.145 221.745L194.661 221.736L194.657 225.814L192.829 225.812L192.833 221.734L184.067 221.725L184.069 220.225L203.147 220.245L203.145 221.745ZM201.005 229.594L186.497 229.579L186.503 223.884L188.331 223.886L188.326 228.034L201.006 228.047L201.005 229.594ZM188.46 212.542L198.772 212.553L198.775 209.881L200.603 209.883L200.594 218.203L186.626 218.188L186.634 209.868L188.462 209.87L188.46 212.542ZM198.768 216.701L198.771 213.959L188.458 213.948L188.455 216.69L198.768 216.701ZM210.422 210.83C211.446 210.839 212.352 211.145 213.14 211.747C213.936 212.342 214.557 213.186 215.001 214.28C215.453 215.374 215.682 216.648 215.688 218.101C215.679 219.554 215.447 220.827 214.993 221.921C214.546 223.014 213.925 223.857 213.127 224.45C212.33 225.043 211.423 225.339 210.407 225.338C209.384 225.337 208.474 225.039 207.678 224.444C206.882 223.85 206.261 223.006 205.817 221.911C205.381 220.817 205.163 219.543 205.165 218.09C205.166 216.637 205.386 215.364 205.825 214.271C206.271 213.177 206.893 212.334 207.691 211.741C208.488 211.141 209.399 210.837 210.422 210.83ZM210.421 212.471C209.733 212.478 209.123 212.715 208.592 213.184C208.06 213.644 207.645 214.3 207.348 215.151C207.05 215.995 206.9 216.975 206.899 218.092C206.898 219.209 207.045 220.194 207.341 221.046C207.637 221.89 208.051 222.543 208.582 223.004C209.12 223.465 209.729 223.697 210.409 223.697C211.097 223.698 211.702 223.468 212.226 223.008C212.758 222.547 213.169 221.895 213.459 221.052C213.756 220.201 213.906 219.216 213.907 218.099C213.908 216.982 213.761 216.002 213.465 215.157C213.177 214.306 212.767 213.649 212.236 213.187C211.713 212.718 211.108 212.479 210.421 212.471ZM224.339 216.048L220.964 216.044L220.959 220.685L224.334 220.688L224.332 222.235L220.957 222.232L220.949 230.06L219.121 230.058L219.143 209.222L220.971 209.224L220.965 214.474L224.34 214.477L224.339 216.048ZM232.407 210.759C233.493 210.76 234.457 210.968 235.301 211.383C236.152 211.798 236.815 212.377 237.291 213.119C237.767 213.862 238.004 214.71 238.003 215.663C238.002 216.616 237.763 217.464 237.286 218.205C236.809 218.947 236.144 219.525 235.292 219.938C234.448 220.351 233.483 220.557 232.397 220.556C231.311 220.555 230.338 220.347 229.479 219.932C228.628 219.517 227.961 218.938 227.477 218.195C227.001 217.453 226.768 216.605 226.777 215.652C226.77 214.698 227.005 213.851 227.482 213.109C227.968 212.368 228.636 211.79 229.488 211.377C230.348 210.964 231.321 210.758 232.407 210.759ZM232.405 212.376C231.671 212.375 231.01 212.515 230.424 212.796C229.846 213.069 229.392 213.455 229.064 213.955C228.735 214.447 228.574 215.013 228.581 215.653C228.573 216.294 228.733 216.865 229.06 217.365C229.388 217.857 229.84 218.245 230.418 218.526C231.004 218.8 231.664 218.938 232.398 218.939C233.125 218.939 233.777 218.803 234.356 218.53C234.934 218.25 235.384 217.864 235.705 217.372C236.033 216.872 236.198 216.302 236.199 215.661C236.199 215.021 236.036 214.454 235.708 213.962C235.388 213.461 234.94 213.074 234.362 212.8C233.784 212.518 233.132 212.377 232.405 212.376ZM242.652 230.129L240.824 230.127L240.846 209.244L242.674 209.246L242.652 230.129ZM225.69 223.947C228.393 223.95 230.85 223.91 233.061 223.826C235.28 223.742 237.409 223.553 239.449 223.258L239.588 224.618C237.494 225.006 235.357 225.254 233.177 225.361C231.005 225.468 228.595 225.521 225.946 225.518L225.69 223.947ZM271.326 221.299L252.341 221.279L252.343 219.779L257.616 219.785L257.619 217.043L259.447 217.045L259.444 219.787L264.272 219.792L264.275 217.049L266.08 217.051L266.077 219.794L271.327 219.799L271.326 221.299ZM262.745 223.259C262.745 224.149 263.064 224.966 263.704 225.709C264.352 226.452 265.214 227.074 266.292 227.575C267.369 228.068 268.553 228.405 269.842 228.586L269.114 230.015C267.458 229.74 265.974 229.231 264.662 228.487C263.35 227.752 262.398 226.837 261.805 225.742C261.211 226.835 260.257 227.748 258.943 228.482C257.63 229.222 256.145 229.729 254.489 230L253.787 228.57C255.068 228.392 256.248 228.057 257.327 227.566C258.406 227.067 259.266 226.447 259.907 225.705C260.548 224.964 260.87 224.148 260.87 223.257L260.871 222.624L262.746 222.626L262.745 223.259ZM262.759 210.462C262.758 211.321 263.112 212.134 263.823 212.901C264.541 213.659 265.473 214.301 266.621 214.825C267.769 215.342 268.964 215.679 270.206 215.837L269.525 217.266C268.439 217.101 267.389 216.818 266.374 216.419C265.366 216.019 264.464 215.515 263.668 214.904C262.872 214.294 262.263 213.61 261.842 212.852C261.412 213.609 260.798 214.292 260 214.901C259.21 215.509 258.308 216.012 257.292 216.41C256.283 216.807 255.236 217.087 254.15 217.25L253.448 215.82C254.706 215.657 255.91 215.318 257.059 214.804C258.208 214.289 259.134 213.654 259.838 212.896C260.55 212.139 260.906 211.327 260.907 210.46L260.908 209.476L262.76 209.478L262.759 210.462ZM292.068 221.32L273.083 221.301L273.085 219.801L281.64 219.81L281.642 217.395L274.939 217.389L274.941 215.865L278.081 215.868L278.086 211.486L274.875 211.482L274.876 209.959L290.275 209.975L290.273 211.498L287.062 211.495L287.058 215.878L290.198 215.881L290.197 217.404L283.47 217.397L283.468 219.811L292.069 219.82L292.068 221.32ZM289.739 229.849L275.395 229.834L275.402 223.319L289.745 223.333L289.739 229.849ZM277.225 228.336L287.936 228.347L287.939 224.761L277.228 224.75L277.225 228.336ZM285.23 215.876L285.234 211.493L279.914 211.487L279.909 215.87L285.23 215.876ZM316.476 212.087C316.474 213.408 316.442 214.576 316.378 215.591C316.315 216.599 316.157 217.736 315.906 219.001L314.078 218.835C314.306 217.765 314.467 216.667 314.562 215.543L301.87 216.127L301.614 214.557L314.646 214.148C314.662 213.664 314.67 212.976 314.671 212.086L314.671 211.851L302.132 211.838L302.134 210.338L316.478 210.353L316.476 212.087ZM318.833 221.91L299.872 221.891L299.873 220.391L307.608 220.399L307.611 217.328L309.463 217.33L309.459 220.401L318.834 220.41L318.833 221.91ZM316.95 229.83L302.278 229.815L302.284 223.674L304.136 223.676L304.131 228.317L316.951 228.33L316.95 229.83ZM338.283 224.977L336.525 224.975L336.541 209.366L338.299 209.368L338.283 224.977ZM334.229 224.434L332.447 224.432L332.455 216.768L329.643 216.765L329.644 215.289L332.457 215.291L332.462 209.784L334.244 209.785L334.229 224.434ZM338.911 229.736L324.684 229.721L324.691 223.229L326.566 223.231L326.561 228.176L338.912 228.189L338.911 229.736ZM329.53 212.593L323.342 212.587L323.339 215.47L328.66 215.475L328.658 216.928L323.338 216.923L323.335 219.97C324.968 219.963 326.3 219.926 327.331 219.856C328.362 219.779 329.406 219.632 330.46 219.414L330.646 220.915C329.49 221.148 328.353 221.303 327.236 221.38C326.126 221.457 324.677 221.494 322.888 221.493L321.575 221.491L321.586 211.061L329.531 211.07L329.53 212.593ZM360.405 227.531L341.327 227.511L341.329 225.965L360.407 225.984L360.405 227.531ZM351.794 214.233C351.793 215.343 352.128 216.37 352.799 217.316C353.469 218.254 354.367 219.044 355.491 219.686C356.624 220.32 357.857 220.755 359.193 220.991L358.442 222.49C356.731 222.144 355.193 221.522 353.826 220.622C352.468 219.722 351.473 218.612 350.841 217.291C350.207 218.61 349.206 219.719 347.838 220.616C346.478 221.513 344.942 222.132 343.231 222.474L342.506 220.974C343.842 220.741 345.073 220.308 346.198 219.677C347.332 219.037 348.235 218.249 348.908 217.312C349.581 216.368 349.918 215.341 349.919 214.231L343.122 214.224L343.124 212.724L349.944 212.731L349.947 209.872L351.751 209.874L351.749 212.733L358.592 212.74L358.591 214.24L351.794 214.233ZM381.131 220.521L362.053 220.501L362.055 219.048L381.133 219.068L381.131 220.521ZM378.734 226.612L366.219 226.6L366.217 228.592L379.412 228.605L379.411 229.941L364.364 229.926L364.368 225.332L376.907 225.345L376.909 223.564L364.347 223.551L364.348 222.168L378.739 222.183L378.734 226.612ZM378.677 214.331L366.372 214.318L366.37 216.147L379.05 216.16L379.048 217.496L364.541 217.481L364.545 213.051L376.826 213.064L376.828 211.353L364.477 211.34L364.478 210.004L378.681 210.019L378.677 214.331ZM399.467 212.946L391.756 212.938L391.745 223.555C393.73 223.557 395.398 223.512 396.749 223.42C398.109 223.328 399.48 223.149 400.863 222.885L401.096 224.409C399.619 224.689 398.174 224.878 396.759 224.979C395.345 225.079 393.587 225.128 391.486 225.125L389.892 225.124L389.906 211.389L399.469 211.399L399.467 212.946ZM406.129 230.297L404.277 230.295L404.289 218.529L398.219 218.523L398.221 217L404.291 217.006L404.299 209.412L406.15 209.414L406.129 230.297ZM79.4658 244.508C79.4562 246.235 79.0405 247.789 78.2188 249.171C77.4049 250.545 76.2513 251.712 74.7581 252.671C73.265 253.631 71.4947 254.367 69.4473 254.881L68.6754 253.38C70.4102 252.968 71.9147 252.407 73.1888 251.697C74.4708 250.98 75.4756 250.141 76.2031 249.181C76.9385 248.22 77.3654 247.17 77.4837 246.029L69.7611 246.022L69.7626 244.498L79.4658 244.508ZM85.4789 254.522L83.6273 254.52L83.6391 243.106L85.4906 243.108L85.4789 254.522ZM85.8512 257.171L82.9215 257.168L82.9164 262.09L86.0805 262.093L86.079 263.593L71.618 263.578L71.6196 262.078L74.7133 262.081L74.7184 257.159L71.8121 257.156L71.8137 255.68L85.8527 255.694L85.8512 257.171ZM81.1118 262.088L81.1168 257.166L76.5465 257.161L76.5415 262.083L81.1118 262.088ZM106.211 263.989L104.36 263.987L104.381 243.104L106.233 243.106L106.211 263.989ZM95.1452 244.712C96.1765 244.721 97.0941 245.026 97.8982 245.629C98.7023 246.223 99.3303 247.068 99.7823 248.162C100.234 249.256 100.46 250.53 100.458 251.983C100.457 253.436 100.229 254.709 99.7745 255.802C99.3202 256.896 98.6905 257.739 97.8852 258.332C97.0799 258.925 96.1616 259.221 95.1303 259.22C94.0991 259.218 93.1775 258.921 92.3656 258.326C91.5616 257.731 90.9335 256.887 90.4815 255.793C90.0373 254.699 89.816 253.425 89.8175 251.972C89.819 250.519 90.0429 249.246 90.4894 248.152C90.9436 247.059 91.5734 246.216 92.3787 245.623C93.184 245.022 94.1062 244.718 95.1452 244.712ZM95.1436 246.352C94.4482 246.359 93.8308 246.597 93.2913 247.065C92.7595 247.526 92.3448 248.181 92.0471 249.033C91.7493 249.876 91.5999 250.857 91.5987 251.974C91.5976 253.091 91.745 254.075 92.041 254.927C92.337 255.771 92.7543 256.424 93.2929 256.886C93.8315 257.347 94.4445 257.578 95.132 257.579C95.8195 257.58 96.433 257.35 96.9726 256.889C97.5121 256.429 97.9308 255.777 98.2285 254.934C98.5262 254.082 98.6757 253.098 98.6768 251.981C98.678 250.864 98.5306 249.883 98.2345 249.039C97.9385 248.187 97.5213 247.531 96.9827 247.069C96.4519 246.6 95.8389 246.361 95.1436 246.352ZM128.284 246.879L115.862 246.866L115.863 245.366L121.16 245.371L121.163 243.027L122.991 243.029L122.988 245.373L128.285 245.379L128.284 246.879ZM122.072 247.95C123.064 247.959 123.935 248.12 124.684 248.433C125.442 248.739 126.027 249.177 126.441 249.748C126.862 250.311 127.076 250.971 127.083 251.729C127.075 252.479 126.859 253.139 126.437 253.709C126.022 254.271 125.436 254.708 124.678 255.019C123.927 255.323 123.056 255.475 122.064 255.474C121.072 255.473 120.193 255.319 119.428 255.014C118.67 254.701 118.081 254.263 117.659 253.7C117.246 253.129 117.044 252.469 117.052 251.719C117.045 250.961 117.249 250.301 117.664 249.739C118.086 249.169 118.676 248.732 119.434 248.428C120.2 248.116 121.079 247.957 122.072 247.95ZM122.07 249.38C121.422 249.387 120.847 249.488 120.347 249.683C119.855 249.878 119.472 250.151 119.198 250.502C118.932 250.853 118.803 251.259 118.81 251.72C118.802 252.174 118.93 252.572 119.195 252.916C119.469 253.26 119.851 253.526 120.343 253.714C120.843 253.902 121.417 253.997 122.065 253.997C122.706 253.998 123.273 253.905 123.765 253.718C124.265 253.531 124.652 253.265 124.926 252.922C125.2 252.579 125.341 252.18 125.349 251.727C125.342 251.266 125.201 250.86 124.928 250.508C124.655 250.156 124.269 249.882 123.769 249.686C123.277 249.491 122.711 249.388 122.07 249.38ZM132.102 248.922L135.242 248.925L135.241 250.472L132.1 250.468L132.094 256.164L130.266 256.162L130.28 243.131L132.108 243.132L132.102 248.922ZM132.086 263.968L130.258 263.967L130.264 258.81L118.451 258.798L118.453 257.298L132.093 257.312L132.086 263.968ZM140.788 258.095L151.194 258.105L151.197 255.668L153.048 255.67L153.04 263.709L138.954 263.694L138.962 255.655L140.79 255.657L140.788 258.095ZM151.19 262.23L151.193 259.558L140.786 259.548L140.784 262.22L151.19 262.23ZM155.534 254.196L136.55 254.176L136.551 252.653L155.536 252.672L155.534 254.196ZM147.013 244.367C147.012 245.195 147.371 245.992 148.088 246.758C148.806 247.517 149.739 248.162 150.887 248.695C152.043 249.219 153.234 249.56 154.46 249.718L153.779 251.194C152.693 251.029 151.639 250.742 150.616 250.335C149.601 249.92 148.695 249.403 147.899 248.785C147.103 248.167 146.49 247.479 146.061 246.721C145.631 247.478 145.013 248.165 144.207 248.782C143.41 249.398 142.503 249.913 141.487 250.326C140.471 250.731 139.42 251.015 138.334 251.178L137.632 249.701C138.882 249.538 140.082 249.199 141.231 248.685C142.388 248.163 143.322 247.527 144.034 246.778C144.753 246.02 145.114 245.216 145.114 244.365L145.115 243.38L147.014 243.382L147.013 244.367ZM173.587 248.167L176.751 248.171L176.75 249.694L173.585 249.691L173.58 254.636L171.752 254.634L171.764 243.103L173.592 243.105L173.587 248.167ZM173.575 260.331L162.137 260.32L162.135 262.359L174.346 262.371L174.344 263.777L160.329 263.763L160.334 258.958L171.748 258.97L171.75 257.095L160.289 257.083L160.29 255.701L173.579 255.714L173.575 260.331ZM169.768 246.546L157.347 246.533L157.348 245.057L162.645 245.062L162.647 242.953L164.475 242.955L164.473 245.064L169.77 245.07L169.768 246.546ZM163.556 247.477C164.556 247.478 165.431 247.62 166.181 247.902C166.939 248.176 167.524 248.571 167.938 249.087C168.351 249.603 168.562 250.209 168.569 250.904C168.56 251.6 168.349 252.205 167.934 252.72C167.519 253.235 166.933 253.633 166.175 253.914C165.425 254.186 164.549 254.322 163.549 254.321C162.542 254.32 161.655 254.182 160.89 253.908C160.132 253.626 159.547 253.227 159.133 252.711C158.727 252.195 158.529 251.589 158.537 250.894C158.53 250.199 158.73 249.593 159.137 249.078C159.551 248.563 160.138 248.169 160.896 247.896C161.662 247.616 162.549 247.476 163.556 247.477ZM163.555 248.837C162.907 248.836 162.332 248.921 161.832 249.093C161.34 249.264 160.957 249.506 160.683 249.818C160.417 250.13 160.288 250.49 160.295 250.896C160.287 251.31 160.415 251.673 160.681 251.986C160.954 252.291 161.336 252.526 161.828 252.69C162.321 252.855 162.895 252.938 163.551 252.938C164.543 252.939 165.336 252.76 165.93 252.402C166.524 252.035 166.826 251.535 166.834 250.903C166.827 250.488 166.687 250.129 166.413 249.824C166.14 249.511 165.758 249.269 165.266 249.096C164.774 248.924 164.204 248.837 163.555 248.837ZM194.52 245.142C194.519 246.079 194.881 246.978 195.607 247.838C196.34 248.698 197.293 249.422 198.464 250.009C199.635 250.596 200.85 250.977 202.107 251.15L201.356 252.649C200.262 252.468 199.204 252.155 198.181 251.708C197.158 251.254 196.245 250.691 195.441 250.018C194.637 249.337 194.016 248.583 193.58 247.754C193.149 248.582 192.527 249.335 191.714 250.014C190.909 250.685 189.994 251.247 188.97 251.699C187.946 252.143 186.887 252.454 185.793 252.633L185.045 251.132C186.311 250.962 187.526 250.588 188.691 250.011C189.855 249.426 190.801 248.708 191.529 247.858C192.256 246.999 192.62 246.093 192.621 245.14L192.623 243.945L194.521 243.947L194.52 245.142ZM203.039 256.494L194.414 256.486L194.407 264.032L192.602 264.031L192.61 256.484L184.055 256.475L184.057 254.928L203.041 254.948L203.039 256.494ZM217.875 257.213C217.874 258.174 218.127 259.1 218.634 259.991C219.148 260.882 219.882 261.598 220.834 262.138C221.468 261.74 222.015 261.264 222.477 260.71C222.938 260.148 223.286 259.566 223.521 258.965C223.756 258.356 223.874 257.774 223.875 257.219L223.876 256.071L225.681 256.072L225.679 257.221C225.679 257.94 225.846 258.643 226.181 259.331C226.524 260.011 227.016 260.625 227.656 261.172C228.296 261.712 229.049 262.131 229.916 262.428L229.001 263.787C227.978 263.426 227.103 262.902 226.377 262.214C225.651 261.525 225.105 260.736 224.739 259.845C224.394 260.735 223.898 261.543 223.248 262.269C222.599 262.995 221.813 263.553 220.891 263.942C219.915 263.566 219.095 263.023 218.432 262.311C217.776 261.607 217.285 260.798 216.958 259.884C216.574 260.751 216.026 261.523 215.315 262.202C214.603 262.881 213.759 263.404 212.782 263.77L211.846 262.41C212.698 262.09 213.44 261.654 214.074 261.1C214.715 260.538 215.208 259.917 215.552 259.238C215.905 258.558 216.085 257.883 216.093 257.211L216.095 256.063L217.876 256.064L217.875 257.213ZM228.025 255.161L226.197 255.159L226.209 243.253L228.037 243.254L228.025 255.161ZM216.786 244.462C217.833 244.463 218.77 244.671 219.598 245.086C220.426 245.493 221.074 246.068 221.542 246.81C222.01 247.545 222.243 248.389 222.242 249.342C222.241 250.28 222.006 251.115 221.536 251.849C221.067 252.583 220.418 253.153 219.589 253.558C218.761 253.964 217.823 254.166 216.776 254.165C215.729 254.164 214.792 253.96 213.964 253.553C213.137 253.145 212.489 252.574 212.021 251.84C211.553 251.105 211.319 250.269 211.32 249.331C211.321 248.378 211.556 247.534 212.026 246.801C212.495 246.059 213.145 245.485 213.973 245.08C214.802 244.667 215.739 244.461 216.786 244.462ZM216.785 246.032C216.081 246.023 215.449 246.16 214.886 246.44C214.331 246.721 213.897 247.115 213.584 247.622C213.271 248.122 213.118 248.692 213.125 249.333C213.116 249.966 213.268 250.532 213.58 251.033C213.892 251.533 214.325 251.924 214.88 252.206C215.442 252.488 216.075 252.633 216.778 252.641C217.473 252.634 218.098 252.49 218.653 252.21C219.208 251.929 219.642 251.539 219.955 251.039C220.276 250.539 220.437 249.973 220.437 249.34C220.438 248.7 220.279 248.129 219.959 247.629C219.647 247.121 219.214 246.726 218.659 246.444C218.105 246.162 217.48 246.025 216.785 246.032ZM248.393 254.525L241.948 254.519L241.942 259.909L250.638 259.918L250.636 261.465L231.558 261.446L231.559 259.899L240.138 259.908L240.143 254.517L234.002 254.511L234.012 244.948L248.192 244.963L248.19 246.463L235.862 246.45L235.856 253.013L248.395 253.025L248.393 254.525ZM271.36 256.283L252.282 256.264L252.283 254.74L260.908 254.749L260.911 252.546L254.77 252.54L254.775 247.454L267.057 247.466L267.059 245.31L254.707 245.297L254.709 243.797L268.912 243.812L268.907 248.851L256.602 248.838L256.6 251.065L269.35 251.078L269.348 252.555L262.715 252.548L262.713 254.751L271.362 254.76L271.36 256.283ZM269.008 263.922L267.157 263.92L267.162 259.373L254.412 259.36L254.413 257.86L269.015 257.875L269.008 263.922ZM296.275 255.161L294.447 255.159L294.459 243.323L296.287 243.325L296.275 255.161ZM296.266 263.856L282.719 263.842L282.727 256.342L296.274 256.356L296.266 263.856ZM284.526 262.344L294.463 262.354L294.468 257.854L284.53 257.844L284.526 262.344ZM286.464 246.174C286.455 247.135 286.677 248.057 287.129 248.94C287.581 249.823 288.21 250.601 289.014 251.274C289.818 251.939 290.731 252.452 291.754 252.812L290.815 254.217C289.605 253.802 288.539 253.172 287.618 252.327C286.705 251.475 286.014 250.482 285.547 249.349C285.085 250.567 284.384 251.637 283.446 252.557C282.507 253.471 281.417 254.153 280.174 254.605L279.238 253.151C280.285 252.785 281.212 252.251 282.017 251.548C282.83 250.838 283.46 250.018 283.906 249.089C284.361 248.152 284.588 247.18 284.589 246.172L284.591 244.133L286.466 244.135L286.464 246.174ZM315.989 252.204L319.317 252.208L319.316 253.754L315.988 253.751L315.977 264.157L314.125 264.155L314.147 243.319L315.998 243.321L315.989 252.204ZM299.553 258.586C302.006 258.588 303.92 258.567 305.295 258.521L305.298 256.213C304.493 256.118 303.786 255.907 303.177 255.578C302.576 255.241 302.112 254.807 301.784 254.276C301.464 253.736 301.309 253.127 301.317 252.447C301.31 251.673 301.51 250.998 301.917 250.42C302.331 249.835 302.91 249.382 303.653 249.063C304.403 248.743 305.266 248.584 306.243 248.585C307.204 248.586 308.055 248.747 308.797 249.068C309.547 249.389 310.128 249.843 310.542 250.429C310.963 251.008 311.177 251.684 311.184 252.457C311.176 253.137 311.003 253.746 310.667 254.285C310.33 254.816 309.857 255.249 309.247 255.584C308.646 255.919 307.946 256.133 307.149 256.226L307.147 258.453C309.366 258.346 311.272 258.176 312.866 257.943L312.982 259.35C310.966 259.691 308.895 259.912 306.77 260.011C304.645 260.111 302.34 260.159 299.856 260.156L299.553 258.586ZM312.502 247.372L299.94 247.36L299.941 245.86L305.308 245.865L305.311 243.357L307.162 243.359L307.16 245.867L312.504 245.872L312.502 247.372ZM306.241 250.014C305.609 250.014 305.05 250.115 304.565 250.317C304.081 250.52 303.702 250.809 303.428 251.183C303.162 251.55 303.029 251.972 303.028 252.449C303.028 252.925 303.16 253.347 303.425 253.715C303.69 254.074 304.065 254.352 304.549 254.548C305.041 254.736 305.604 254.826 306.237 254.819C306.862 254.828 307.416 254.738 307.901 254.551C308.385 254.357 308.761 254.08 309.027 253.72C309.293 253.354 309.426 252.932 309.426 252.455C309.427 251.979 309.295 251.557 309.029 251.189C308.764 250.814 308.389 250.525 307.905 250.321C307.421 250.117 306.866 250.015 306.241 250.014ZM339.057 247.095L326.635 247.082L326.637 245.582L331.934 245.588L331.936 243.244L333.764 243.246L333.762 245.59L339.059 245.595L339.057 247.095ZM332.845 248.167C333.837 248.176 334.708 248.337 335.458 248.65C336.215 248.955 336.801 249.394 337.214 249.964C337.635 250.527 337.85 251.188 337.857 251.945C337.848 252.695 337.633 253.355 337.21 253.925C336.795 254.487 336.209 254.924 335.451 255.236C334.701 255.54 333.829 255.691 332.837 255.69C331.845 255.689 330.966 255.536 330.201 255.231C329.443 254.917 328.854 254.479 328.433 253.916C328.019 253.345 327.817 252.685 327.825 251.935C327.818 251.177 328.022 250.517 328.437 249.955C328.859 249.385 329.45 248.948 330.208 248.645C330.974 248.333 331.853 248.174 332.845 248.167ZM332.843 249.597C332.195 249.604 331.621 249.705 331.12 249.899C330.628 250.094 330.245 250.367 329.971 250.719C329.705 251.07 329.576 251.476 329.583 251.937C329.575 252.39 329.703 252.789 329.969 253.133C330.242 253.477 330.624 253.743 331.116 253.931C331.616 254.119 332.19 254.213 332.839 254.214C333.479 254.214 334.046 254.121 334.538 253.934C335.038 253.747 335.425 253.482 335.699 253.139C335.973 252.795 336.114 252.397 336.122 251.944C336.115 251.483 335.975 251.076 335.702 250.724C335.429 250.373 335.042 250.099 334.542 249.903C334.05 249.707 333.484 249.605 332.843 249.597ZM342.875 249.138L346.016 249.141L346.014 250.688L342.874 250.685L342.868 256.38L341.04 256.378L341.053 243.347L342.881 243.349L342.875 249.138ZM342.86 264.185L341.032 264.183L341.037 259.027L329.224 259.015L329.226 257.515L342.867 257.529L342.86 264.185ZM351.561 258.311L361.967 258.322L361.97 255.884L363.821 255.886L363.813 263.925L349.727 263.911L349.735 255.872L351.564 255.874L351.561 258.311ZM361.963 262.447L361.966 259.775L351.56 259.764L351.557 262.436L361.963 262.447ZM366.307 254.412L347.323 254.393L347.324 252.869L366.309 252.889L366.307 254.412ZM357.786 244.583C357.785 245.411 358.144 246.208 358.862 246.975C359.58 247.733 360.513 248.379 361.661 248.911C362.816 249.436 364.007 249.777 365.234 249.934L364.553 251.41C363.467 251.245 362.412 250.959 361.389 250.552C360.374 250.137 359.468 249.62 358.672 249.002C357.876 248.384 357.263 247.696 356.834 246.938C356.404 247.695 355.786 248.382 354.981 248.998C354.183 249.615 353.277 250.129 352.26 250.542C351.244 250.947 350.193 251.232 349.107 251.394L348.406 249.917C349.656 249.754 350.855 249.416 352.004 248.901C353.161 248.379 354.095 247.743 354.807 246.994C355.527 246.237 355.887 245.433 355.888 244.581L355.889 243.597L357.787 243.599L357.786 244.583ZM391.36 255.938L389.509 255.936L389.512 253.123L383.98 253.118L383.982 251.594L389.513 251.6L389.516 248.788L384.184 248.782C383.511 250.438 382.4 251.866 380.852 253.068C379.304 254.269 377.4 255.205 375.142 255.874L374.37 254.42C376.05 253.922 377.508 253.287 378.743 252.515C379.978 251.735 380.952 250.837 381.664 249.822C382.376 248.808 382.795 247.703 382.921 246.507L375.433 246.5L375.434 244.953L384.926 244.963C384.926 245.767 384.835 246.548 384.654 247.306L389.518 247.311L389.522 243.42L391.373 243.422L391.36 255.938ZM384.54 256.142C385.938 256.143 387.161 256.305 388.207 256.626C389.254 256.947 390.058 257.409 390.62 258.011C391.19 258.606 391.474 259.313 391.473 260.133C391.472 260.961 391.187 261.676 390.616 262.277C390.053 262.878 389.247 263.338 388.2 263.657C387.153 263.977 385.93 264.135 384.532 264.134C383.118 264.133 381.887 263.971 380.841 263.65C379.794 263.328 378.986 262.867 378.416 262.264C377.855 261.662 377.574 260.947 377.575 260.119C377.576 259.299 377.858 258.592 378.421 257.999C378.992 257.398 379.801 256.938 380.848 256.618C381.895 256.299 383.126 256.14 384.54 256.142ZM384.538 257.618C383.499 257.609 382.589 257.706 381.808 257.909C381.034 258.103 380.436 258.391 380.014 258.774C379.591 259.156 379.38 259.605 379.38 260.121C379.379 260.637 379.589 261.086 380.011 261.469C380.432 261.845 381.03 262.13 381.803 262.326C382.576 262.53 383.486 262.633 384.533 262.634C385.564 262.635 386.463 262.534 387.229 262.332C387.995 262.138 388.585 261.853 388.999 261.478C389.422 261.096 389.637 260.647 389.645 260.131C389.638 259.616 389.424 259.166 389.002 258.783C388.581 258.4 387.987 258.11 387.222 257.914C386.456 257.71 385.562 257.612 384.538 257.618ZM413.901 261.68L394.823 261.66L394.825 260.113L403.403 260.122L403.407 256.185L397.22 256.178L397.226 249.756L409.695 249.769L409.698 246.488L397.183 246.475L397.184 244.952L411.505 244.966L411.498 251.271L399.053 251.258L399.049 254.657L411.987 254.67L411.985 256.193L405.212 256.186L405.208 260.124L413.903 260.133L413.901 261.68ZM434.627 254.576L415.549 254.556L415.551 253.103L434.629 253.123L434.627 254.576ZM432.231 260.667L419.715 260.655L419.713 262.647L432.908 262.66L432.907 263.996L417.86 263.981L417.865 259.387L430.404 259.4L430.406 257.619L417.843 257.606L417.845 256.223L432.235 256.238L432.231 260.667ZM432.173 248.386L419.868 248.373L419.866 250.202L432.546 250.215L432.545 251.55L418.037 251.536L418.041 247.106L430.323 247.119L430.324 245.408L417.973 245.395L417.974 244.059L432.177 244.074L432.173 248.386ZM111.001 289.673L91.9936 289.654L91.9951 288.154L100.573 288.163L100.575 286.1L94.5285 286.094L94.5371 277.703L108.647 277.718L108.645 279.218L96.3872 279.205L96.3852 281.15L108.08 281.163L108.079 282.569L96.3837 282.557L96.3816 284.619L108.757 284.632L108.755 286.109L102.404 286.102L102.401 288.164L111.003 288.173L111.001 289.673ZM101.508 291.234C103.797 291.221 105.562 291.504 106.804 292.083C108.045 292.655 108.669 293.483 108.676 294.569C108.667 295.655 108.041 296.479 106.799 297.04C105.564 297.609 103.798 297.892 101.501 297.89C99.1805 297.888 97.3995 297.601 96.1579 297.029C94.9241 296.465 94.3078 295.641 94.3089 294.555C94.31 293.469 94.9319 292.641 96.1747 292.072C97.4175 291.495 99.1951 291.216 101.508 291.234ZM101.506 292.617C99.7874 292.615 98.4631 292.782 97.533 293.117C96.603 293.452 96.1455 293.932 96.1604 294.557C96.152 295.189 96.6046 295.67 97.5183 295.999C98.4399 296.321 99.7679 296.474 101.502 296.46C103.213 296.478 104.526 296.327 105.44 296.007C106.362 295.68 106.824 295.2 106.825 294.567C106.825 293.942 106.361 293.462 105.431 293.125C104.51 292.788 103.202 292.618 101.506 292.617ZM123.173 282.233L112.72 282.222L112.722 280.722L117.057 280.726L117.061 277.75L118.889 277.752L118.886 280.728L123.175 280.733L123.173 282.233ZM117.945 283.634C118.812 283.634 119.586 283.838 120.265 284.245C120.952 284.644 121.486 285.204 121.869 285.923C122.258 286.642 122.457 287.459 122.464 288.373C122.455 289.294 122.255 290.118 121.863 290.845C121.48 291.563 120.944 292.129 120.256 292.542C119.576 292.948 118.803 293.15 117.935 293.149C117.076 293.148 116.307 292.944 115.627 292.537C114.948 292.123 114.417 291.552 114.035 290.825C113.653 290.098 113.463 289.277 113.464 288.363C113.465 287.457 113.657 286.645 114.04 285.926C114.424 285.2 114.956 284.638 115.636 284.241C116.316 283.835 117.086 283.633 117.945 283.634ZM117.944 285.18C117.404 285.188 116.916 285.332 116.478 285.613C116.048 285.886 115.712 286.264 115.469 286.748C115.227 287.225 115.105 287.763 115.104 288.365C115.104 288.974 115.224 289.521 115.466 290.006C115.715 290.491 116.055 290.87 116.484 291.144C116.914 291.41 117.398 291.539 117.937 291.532C118.484 291.54 118.976 291.412 119.414 291.147C119.852 290.874 120.196 290.495 120.446 290.011C120.697 289.527 120.822 288.98 120.823 288.371C120.824 287.769 120.699 287.23 120.45 286.753C120.2 286.269 119.857 285.889 119.42 285.616C118.982 285.334 118.49 285.189 117.944 285.18ZM130.493 297.967L128.735 297.965L128.746 287.442L125.98 287.439L125.971 296.931L124.236 296.929L124.256 277.64L125.99 277.642L125.982 285.915L128.747 285.918L128.756 277.129L130.514 277.131L130.493 297.967ZM157.305 297.994L155.501 297.992L155.512 287.094L152.629 287.091L152.619 296.958L150.861 296.956L150.881 277.714L152.639 277.716L152.631 285.568L155.513 285.571L155.522 277.157L157.327 277.158L157.305 297.994ZM148.511 279.868C148.493 282.767 147.877 285.375 146.664 287.694C145.458 290.006 143.444 291.941 140.622 293.501L139.546 292.21C143.978 289.746 146.364 286.139 146.705 281.39L140.354 281.383L140.355 279.86L148.511 279.868ZM177.467 292.437L175.639 292.435L175.655 277.201L177.483 277.203L177.467 292.437ZM178.118 297.57L164.009 297.556L164.016 290.876L165.844 290.878L165.839 296.011L178.12 296.024L178.118 297.57ZM166.232 278.644C167.263 278.645 168.192 278.865 169.02 279.303C169.855 279.734 170.507 280.34 170.975 281.122C171.451 281.896 171.688 282.775 171.687 283.759C171.686 284.759 171.447 285.649 170.97 286.43C170.5 287.203 169.847 287.808 169.011 288.245C168.182 288.673 167.252 288.887 166.221 288.886C165.19 288.885 164.256 288.669 163.421 288.239C162.593 287.801 161.941 287.194 161.466 286.42C160.998 285.639 160.764 284.748 160.765 283.748C160.766 282.764 161.002 281.885 161.471 281.112C161.949 280.331 162.601 279.726 163.43 279.297C164.266 278.861 165.2 278.643 166.232 278.644ZM166.23 280.261C165.535 280.261 164.905 280.408 164.343 280.705C163.788 281.001 163.35 281.415 163.029 281.946C162.716 282.476 162.563 283.078 162.57 283.75C162.562 284.429 162.713 285.039 163.025 285.578C163.345 286.11 163.782 286.524 164.336 286.822C164.899 287.119 165.527 287.268 166.223 287.269C166.902 287.27 167.52 287.122 168.075 286.826C168.637 286.529 169.079 286.116 169.4 285.585C169.721 285.046 169.882 284.437 169.883 283.757C169.883 283.093 169.724 282.495 169.404 281.964C169.084 281.432 168.643 281.018 168.081 280.72C167.527 280.415 166.91 280.262 166.23 280.261ZM197.558 287.536L187.926 287.526L187.935 278.62L197.567 278.629L197.558 287.536ZM189.732 286.028L195.779 286.034L195.785 280.128L189.738 280.121L189.732 286.028ZM203.329 282.221L206.47 282.225L206.468 283.771L203.328 283.768L203.322 289.112L201.494 289.11L201.506 277.204L203.335 277.206L203.329 282.221ZM203.695 291.831L197.777 291.825C197.846 292.544 198.197 293.232 198.829 293.889C199.461 294.545 200.277 295.109 201.277 295.579C202.284 296.041 203.354 296.362 204.487 296.543L203.805 297.972C202.251 297.712 200.841 297.219 199.576 296.491C198.312 295.763 197.387 294.887 196.802 293.863C196.223 294.894 195.304 295.768 194.045 296.485C192.794 297.203 191.392 297.686 189.837 297.934L189.135 296.527C190.291 296.349 191.366 296.029 192.359 295.569C193.359 295.109 194.172 294.556 194.798 293.908C195.431 293.252 195.784 292.557 195.855 291.823L189.96 291.817L189.962 290.317L203.696 290.331L203.695 291.831ZM226.76 289.042L218.158 289.033L218.156 291.33L224.437 291.337L224.431 297.782L210.087 297.767L210.094 291.322L216.351 291.328L216.354 289.032L207.776 289.023L207.777 287.523L226.761 287.542L226.76 289.042ZM218.168 279.19L224.848 279.197L224.847 280.673L218.284 280.666C218.322 281.416 218.673 282.093 219.337 282.695C220.008 283.289 220.894 283.778 221.995 284.162C223.097 284.538 224.311 284.79 225.639 284.916L225.099 286.298C223.279 286.109 221.67 285.705 220.272 285.086C218.882 284.468 217.883 283.658 217.274 282.657C216.656 283.657 215.647 284.464 214.248 285.08C212.857 285.696 211.255 286.097 209.442 286.282L208.881 284.899C210.217 284.775 211.436 284.526 212.538 284.153C213.64 283.771 214.524 283.284 215.188 282.691C215.861 282.09 216.221 281.414 216.269 280.664L209.753 280.658L209.754 279.181L216.364 279.188L216.366 277.102L218.171 277.104L218.168 279.19ZM211.917 296.269L222.627 296.28L222.631 292.811L211.92 292.8L211.917 296.269ZM240.338 281.087L228.549 281.075L228.551 279.575L233.613 279.581L233.616 277.073L235.444 277.075L235.442 279.582L240.34 279.587L240.338 281.087ZM234.501 282.16C235.423 282.161 236.243 282.322 236.962 282.643C237.688 282.964 238.25 283.413 238.648 283.992C239.054 284.57 239.256 285.243 239.255 286.008C239.254 286.774 239.051 287.449 238.644 288.035C238.245 288.62 237.682 289.073 236.955 289.393C236.236 289.712 235.415 289.871 234.493 289.87C233.564 289.87 232.74 289.709 232.021 289.387C231.311 289.066 230.756 288.617 230.359 288.038C229.969 287.452 229.778 286.772 229.786 285.998C229.779 285.233 229.972 284.561 230.363 283.983C230.762 283.398 231.317 282.949 232.028 282.637C232.747 282.318 233.572 282.159 234.501 282.16ZM234.5 283.542C233.906 283.55 233.383 283.658 232.929 283.869C232.476 284.072 232.124 284.36 231.874 284.735C231.623 285.102 231.498 285.524 231.497 286C231.497 286.485 231.621 286.914 231.871 287.29C232.121 287.657 232.472 287.943 232.925 288.146C233.378 288.342 233.901 288.44 234.495 288.441C235.089 288.441 235.616 288.344 236.077 288.149C236.538 287.947 236.894 287.662 237.145 287.295C237.403 286.92 237.536 286.491 237.544 286.006C237.537 285.53 237.405 285.108 237.147 284.74C236.89 284.365 236.531 284.076 236.07 283.872C235.617 283.661 235.094 283.551 234.5 283.542ZM245.789 290.726L243.938 290.724L243.941 287.841L240.308 287.837L240.31 286.314L243.942 286.318L243.945 283.786L240.336 283.783L240.337 282.259L243.947 282.263L243.952 277.247L245.803 277.249L245.789 290.726ZM238.922 290.93C240.367 290.931 241.613 291.073 242.66 291.355C243.706 291.63 244.507 292.037 245.061 292.577C245.623 293.108 245.904 293.749 245.903 294.499C245.902 295.234 245.62 295.866 245.057 296.397C244.502 296.928 243.697 297.333 242.642 297.613C241.595 297.893 240.352 298.033 238.915 298.031C237.462 298.03 236.208 297.888 235.153 297.606C234.107 297.323 233.303 296.916 232.741 296.384C232.187 295.853 231.91 295.219 231.911 294.485C231.911 293.735 232.189 293.095 232.745 292.564C233.308 292.026 234.113 291.62 235.16 291.348C236.207 291.068 237.461 290.928 238.922 290.93ZM238.921 292.359C237.866 292.358 236.956 292.443 236.19 292.614C235.424 292.778 234.834 293.019 234.42 293.339C234.013 293.659 233.809 294.042 233.809 294.487C233.809 294.924 234.011 295.304 234.417 295.624C234.831 295.937 235.421 296.176 236.186 296.341C236.959 296.514 237.869 296.601 238.916 296.602C239.947 296.603 240.842 296.518 241.6 296.347C242.358 296.183 242.94 295.946 243.347 295.634C243.753 295.314 243.957 294.935 243.957 294.497C243.958 294.052 243.755 293.669 243.349 293.348C242.943 293.028 242.362 292.785 241.604 292.62C240.854 292.447 239.96 292.36 238.921 292.359ZM267.76 281.022L255.339 281.009L255.34 279.509L260.637 279.515L260.639 277.171L262.467 277.173L262.465 279.516L267.762 279.522L267.76 281.022ZM261.548 282.094C262.541 282.102 263.411 282.263 264.161 282.577C264.919 282.882 265.504 283.32 265.918 283.891C266.339 284.454 266.553 285.114 266.56 285.872C266.551 286.622 266.336 287.282 265.914 287.852C265.499 288.414 264.912 288.851 264.154 289.163C263.404 289.467 262.533 289.618 261.541 289.617C260.548 289.616 259.67 289.463 258.904 289.157C258.147 288.844 257.557 288.406 257.136 287.843C256.723 287.272 256.52 286.612 256.529 285.862C256.522 285.104 256.726 284.444 257.14 283.882C257.563 283.312 258.153 282.875 258.911 282.571C259.677 282.26 260.556 282.1 261.548 282.094ZM261.547 283.523C260.898 283.53 260.324 283.631 259.824 283.826C259.332 284.021 258.948 284.294 258.675 284.645C258.409 284.997 258.279 285.403 258.287 285.864C258.278 286.317 258.407 286.715 258.672 287.059C258.945 287.403 259.328 287.669 259.82 287.857C260.32 288.045 260.894 288.14 261.542 288.14C262.183 288.141 262.749 288.048 263.242 287.861C263.742 287.674 264.129 287.409 264.403 287.065C264.676 286.722 264.817 286.324 264.826 285.87C264.818 285.409 264.678 285.003 264.405 284.651C264.132 284.299 263.746 284.026 263.246 283.83C262.754 283.634 262.187 283.532 261.547 283.523ZM271.579 283.065L274.719 283.068L274.718 284.615L271.577 284.612L271.571 290.307L269.743 290.305L269.756 277.274L271.585 277.276L271.579 283.065ZM271.563 298.112L269.735 298.11L269.74 292.954L257.928 292.941L257.929 291.441L271.57 291.455L271.563 298.112ZM280.264 292.238L290.671 292.249L290.673 289.811L292.525 289.813L292.517 297.852L278.431 297.838L278.439 289.798L280.267 289.8L280.264 292.238ZM290.666 296.374L290.669 293.702L280.263 293.691L280.26 296.363L290.666 296.374ZM295.011 288.339L276.026 288.319L276.028 286.796L295.012 286.815L295.011 288.339ZM286.49 278.51C286.489 279.338 286.847 280.135 287.565 280.902C288.283 281.66 289.216 282.306 290.364 282.838C291.52 283.363 292.711 283.704 293.937 283.861L293.256 285.337C292.17 285.172 291.116 284.886 290.093 284.478C289.078 284.063 288.172 283.547 287.376 282.929C286.579 282.311 285.967 281.623 285.538 280.864C285.107 281.622 284.49 282.309 283.684 282.925C282.887 283.541 281.98 284.056 280.964 284.469C279.948 284.874 278.897 285.158 277.811 285.321L277.109 283.844C278.359 283.681 279.559 283.343 280.708 282.828C281.865 282.306 282.799 281.67 283.51 280.921C284.23 280.164 284.59 279.359 284.591 278.508L284.592 277.524L286.491 277.525L286.49 278.51ZM320.064 289.865L318.212 289.863L318.215 287.05L312.684 287.045L312.685 285.521L318.217 285.527L318.22 282.714L312.888 282.709C312.214 284.364 311.103 285.793 309.555 286.994C308.007 288.196 306.104 289.132 303.845 289.801L303.073 288.347C304.753 287.849 306.211 287.214 307.446 286.442C308.681 285.662 309.655 284.764 310.367 283.749C311.079 282.734 311.498 281.629 311.624 280.434L304.136 280.426L304.138 278.88L313.63 278.889C313.629 279.694 313.538 280.475 313.358 281.233L318.221 281.238L318.225 277.347L320.077 277.349L320.064 289.865ZM313.243 290.069C314.642 290.07 315.864 290.231 316.911 290.553C317.957 290.874 318.762 291.336 319.323 291.938C319.893 292.532 320.178 293.24 320.177 294.06C320.176 294.888 319.89 295.603 319.319 296.204C318.756 296.805 317.951 297.265 316.904 297.584C315.856 297.903 314.634 298.062 313.235 298.061C311.821 298.059 310.591 297.898 309.544 297.577C308.498 297.255 307.69 296.793 307.12 296.191C306.558 295.589 306.277 294.874 306.278 294.046C306.279 293.225 306.561 292.519 307.124 291.926C307.695 291.325 308.504 290.864 309.551 290.545C310.599 290.226 311.829 290.067 313.243 290.069ZM313.242 291.545C312.203 291.536 311.292 291.633 310.511 291.835C309.737 292.03 309.139 292.318 308.717 292.701C308.295 293.083 308.083 293.532 308.083 294.048C308.082 294.563 308.293 295.013 308.714 295.396C309.136 295.771 309.733 296.057 310.506 296.253C311.28 296.457 312.19 296.56 313.237 296.561C314.268 296.562 315.166 296.461 315.932 296.259C316.698 296.064 317.288 295.78 317.703 295.405C318.125 295.023 318.34 294.574 318.349 294.058C318.341 293.543 318.127 293.093 317.705 292.71C317.284 292.327 316.69 292.037 315.925 291.841C315.16 291.637 314.265 291.538 313.242 291.545ZM340.806 289.98L338.954 289.978L338.959 285.22L335.42 285.216L335.422 283.693L338.961 283.697L338.967 277.345L340.819 277.347L340.806 289.98ZM340.798 297.902L327.181 297.888L327.188 291.091L340.805 291.105L340.798 297.902ZM329.01 296.389L338.995 296.4L338.999 292.579L329.014 292.569L329.01 296.389ZM335.729 281.045L323.565 281.032L323.567 279.532L328.746 279.538L328.749 277.147L330.553 277.149L330.551 279.539L335.731 279.545L335.729 281.045ZM329.634 282.117C330.572 282.118 331.404 282.275 332.13 282.588C332.864 282.901 333.438 283.339 333.851 283.902C334.265 284.465 334.475 285.106 334.482 285.825C334.473 286.567 334.262 287.219 333.847 287.781C333.44 288.343 332.87 288.78 332.135 289.092C331.4 289.396 330.564 289.547 329.627 289.546C328.689 289.545 327.853 289.392 327.119 289.087C326.393 288.773 325.823 288.335 325.41 287.772C325.004 287.21 324.802 286.557 324.802 285.815C324.803 285.096 325.007 284.456 325.414 283.894C325.828 283.332 326.399 282.895 327.126 282.583C327.861 282.271 328.697 282.116 329.634 282.117ZM329.633 283.546C329.039 283.546 328.508 283.643 328.039 283.838C327.578 284.025 327.214 284.294 326.948 284.645C326.69 284.989 326.561 285.379 326.56 285.817C326.56 286.27 326.688 286.672 326.946 287.024C327.203 287.368 327.562 287.638 328.023 287.834C328.491 288.03 329.027 288.132 329.628 288.14C330.23 288.133 330.761 288.032 331.222 287.837C331.691 287.642 332.055 287.373 332.313 287.03C332.571 286.678 332.7 286.276 332.701 285.823C332.701 285.385 332.569 284.995 332.304 284.651C332.046 284.299 331.683 284.029 331.215 283.841C330.754 283.645 330.227 283.547 329.633 283.546ZM353.779 277.735C355.326 277.737 356.65 277.879 357.752 278.161C358.853 278.436 359.692 278.843 360.27 279.383C360.847 279.914 361.136 280.563 361.135 281.329C361.134 282.501 360.492 283.398 359.21 284.022C357.929 284.646 356.116 284.964 353.772 284.977C352.225 284.968 350.897 284.822 349.788 284.54C348.687 284.257 347.843 283.846 347.258 283.307C346.68 282.759 346.392 282.095 346.393 281.314C346.394 280.548 346.683 279.9 347.262 279.369C347.849 278.831 348.693 278.425 349.795 278.153C350.904 277.873 352.233 277.734 353.779 277.735ZM353.778 279.118C352.63 279.117 351.645 279.206 350.825 279.385C350.004 279.556 349.379 279.809 348.949 280.144C348.519 280.472 348.307 280.862 348.315 281.316C348.306 282.034 348.778 282.589 349.731 282.981C350.684 283.373 352.031 283.569 353.773 283.571C355.508 283.573 356.856 283.379 357.817 282.989C358.778 282.6 359.259 282.046 359.26 281.327C359.261 280.874 359.042 280.483 358.605 280.154C358.168 279.826 357.539 279.571 356.719 279.391C355.899 279.21 354.919 279.119 353.778 279.118ZM363.261 287.893L344.277 287.874L344.278 286.374L363.263 286.393L363.261 287.893ZM360.817 294.36L348.442 294.347L348.44 296.503L361.448 296.517L361.446 297.97L346.61 297.954L346.615 292.986L359.014 292.998L359.016 291.1L346.57 291.087L346.572 289.681L360.822 289.696L360.817 294.36ZM388.844 298.232L387.086 298.23L387.108 277.394L388.866 277.396L388.844 298.232ZM384.627 297.15L382.892 297.148L382.903 286.414L379.388 286.41L379.389 284.91L382.905 284.914L382.912 277.906L384.646 277.908L384.627 297.15ZM377.164 283.337C377.163 284.548 377.338 285.732 377.688 286.889C378.038 288.037 378.553 289.077 379.232 290.007C379.91 290.93 380.718 291.661 381.655 292.201L380.529 293.56C379.522 292.957 378.659 292.124 377.942 291.061C377.224 289.99 376.678 288.778 376.305 287.426C375.92 288.887 375.353 290.195 374.601 291.35C373.858 292.506 372.974 293.403 371.95 294.043L370.78 292.659C371.726 292.097 372.547 291.329 373.243 290.353C373.939 289.377 374.468 288.284 374.828 287.073C375.197 285.855 375.382 284.609 375.383 283.336L375.385 281.367L371.377 281.363L371.379 279.839L380.988 279.849L380.987 281.373L377.166 281.369L377.164 283.337ZM401.204 290.581C402.696 290.582 403.989 290.736 405.082 291.042C406.183 291.34 407.031 291.778 407.624 292.357C408.217 292.928 408.513 293.612 408.512 294.409C408.511 295.198 408.214 295.877 407.62 296.447C407.025 297.016 406.177 297.449 405.075 297.745C403.973 298.049 402.68 298.2 401.196 298.198C399.712 298.196 398.423 298.043 397.329 297.737C396.236 297.439 395.392 297.005 394.799 296.434C394.206 295.863 393.91 295.183 393.911 294.394C393.912 293.597 394.209 292.913 394.803 292.344C395.398 291.766 396.242 291.33 397.336 291.034C398.43 290.73 399.719 290.579 401.204 290.581ZM401.202 291.987C400.101 291.994 399.136 292.094 398.307 292.289C397.479 292.483 396.842 292.764 396.396 293.131C395.951 293.489 395.732 293.911 395.739 294.396C395.731 294.872 395.949 295.29 396.394 295.65C396.839 296.002 397.475 296.272 398.303 296.461C399.131 296.649 400.096 296.744 401.197 296.745C402.299 296.746 403.26 296.653 404.081 296.467C404.909 296.28 405.546 296.011 405.991 295.66C406.445 295.301 406.676 294.883 406.684 294.407C406.677 293.922 406.447 293.5 405.994 293.14C405.549 292.773 404.913 292.491 404.085 292.295C403.265 292.099 402.304 291.996 401.202 291.987ZM408.363 280.252C408.362 281.377 408.325 282.342 408.254 283.147C408.191 283.943 408.03 284.822 407.771 285.783L405.967 285.57C406.218 284.609 406.375 283.75 406.438 282.992C406.501 282.235 406.534 281.321 406.535 280.25L406.535 279.993L394.066 279.98L394.068 278.48L408.365 278.494L408.363 280.252ZM410.768 288.645L391.807 288.626L391.809 287.126L399.66 287.134L399.665 283.103L401.469 283.105L401.465 287.136L410.77 287.145L410.768 288.645Z" fill="#474747"/>
<rect x="2" y="2" width="500" height="408" rx="50" stroke="url(#paint0_linear_601_5144)" stroke-width="3"/>
<defs>
<linearGradient id="paint0_linear_601_5144" x1="30.6426" y1="16.1523" x2="521.831" y2="352.792" gradientUnits="userSpaceOnUse">
<stop stop-color="#FF577C"/>
<stop offset="1" stop-color="#66B8FB"/>
</linearGradient>
</defs>
</svg>
