<svg width="504" height="412" viewBox="0 0 504 412" fill="none" xmlns="http://www.w3.org/2000/svg">
<path d="M81.4982 228.001L87.7266 211.039L89.9531 211.041L96.1466 228.016L93.9201 228.014L92.2258 223.231L85.4054 223.224L83.7013 228.004L81.4982 228.001ZM91.5831 221.379L88.8956 213.782L88.755 213.782L86.0519 221.373L91.5831 221.379ZM100.553 228.021L98.4435 228.019L98.4609 211.05L100.57 211.052L100.553 228.021ZM127.106 229.947L125.348 229.945L125.359 219.023L122.289 219.02L122.279 228.864L120.591 228.862L120.611 209.573L122.298 209.575L122.29 217.496L125.361 217.5L125.369 209.109L127.127 209.111L127.106 229.947ZM117.888 213.179L111.912 213.173L111.902 223.205C113.441 223.198 114.745 223.157 115.816 223.08C116.894 222.995 117.98 222.844 119.074 222.626L119.237 224.173C118.049 224.414 116.877 224.577 115.72 224.662C114.572 224.739 113.134 224.776 111.408 224.774L110.072 224.773L110.085 211.648L117.89 211.656L117.888 213.179ZM146.219 218.013L149.548 218.017L149.546 219.564L146.218 219.56L146.207 229.966L144.356 229.964L144.377 209.129L146.229 209.13L146.219 218.013ZM129.783 224.395C132.236 224.397 134.15 224.376 135.525 224.33L135.528 222.022C134.723 221.927 134.016 221.716 133.407 221.387C132.806 221.05 132.342 220.616 132.014 220.085C131.694 219.545 131.539 218.936 131.547 218.256C131.54 217.483 131.74 216.807 132.147 216.229C132.562 215.644 133.14 215.191 133.883 214.872C134.633 214.552 135.497 214.393 136.473 214.394C137.434 214.395 138.285 214.556 139.027 214.877C139.777 215.198 140.359 215.652 140.772 216.238C141.193 216.817 141.407 217.493 141.414 218.266C141.406 218.946 141.233 219.555 140.897 220.094C140.56 220.625 140.087 221.058 139.478 221.393C138.876 221.728 138.176 221.942 137.379 222.035L137.377 224.262C139.596 224.155 141.502 223.985 143.096 223.752L143.212 225.159C141.196 225.5 139.126 225.721 137 225.82C134.875 225.92 132.571 225.968 130.086 225.965L129.783 224.395ZM142.732 213.182L130.17 213.169L130.171 211.669L135.538 211.674L135.541 209.166L137.393 209.168L137.39 211.676L142.734 211.682L142.732 213.182ZM136.472 215.824C135.839 215.823 135.28 215.924 134.796 216.127C134.311 216.329 133.932 216.618 133.658 216.993C133.392 217.359 133.259 217.781 133.258 218.258C133.258 218.734 133.39 219.156 133.655 219.524C133.921 219.883 134.295 220.161 134.78 220.357C135.272 220.545 135.834 220.635 136.467 220.628C137.092 220.637 137.647 220.547 138.131 220.36C138.616 220.166 138.991 219.889 139.257 219.53C139.523 219.163 139.656 218.741 139.657 218.264C139.657 217.788 139.525 217.366 139.26 216.998C138.994 216.623 138.62 216.334 138.135 216.13C137.651 215.926 137.097 215.824 136.472 215.824ZM164.152 214.75C164.151 215.985 164.392 217.204 164.875 218.407C165.358 219.611 166.014 220.682 166.841 221.62C167.668 222.551 168.581 223.247 169.581 223.709L168.478 225.208C167.299 224.597 166.245 223.702 165.316 222.521C164.388 221.34 163.694 220.008 163.235 218.523C162.764 220.093 162.064 221.502 161.133 222.751C160.209 224 159.158 224.941 157.977 225.572L156.783 224.094C157.792 223.603 158.714 222.866 159.551 221.882C160.388 220.891 161.05 219.771 161.535 218.521C162.029 217.264 162.276 216.006 162.277 214.748L162.281 210.952L164.156 210.954L164.152 214.75ZM174.074 230.042L172.246 230.04L172.259 217.782L167.313 217.777L167.315 216.277L172.26 216.282L172.268 209.157L174.096 209.159L174.074 230.042ZM194.723 230.063L192.871 230.061L192.893 209.178L194.744 209.18L194.723 230.063ZM180.604 216.455L186.815 216.461L186.82 210.953L188.625 210.955L188.611 225.018L178.767 225.008L178.781 210.945L180.61 210.947L180.604 216.455ZM186.808 223.469L186.813 217.938L180.602 217.931L180.597 223.463L186.808 223.469ZM208.686 212.265C208.685 213.398 209.063 214.496 209.82 215.559C210.584 216.615 211.564 217.514 212.758 218.257C213.953 218.993 215.163 219.475 216.39 219.703L215.544 221.249C214.482 220.997 213.436 220.59 212.405 220.027C211.374 219.463 210.449 218.767 209.63 217.938C208.81 217.109 208.182 216.198 207.746 215.205C207.307 216.189 206.677 217.095 205.856 217.922C205.035 218.749 204.109 219.448 203.077 220.017C202.053 220.578 201.005 220.984 199.935 221.232L199.093 219.685C200.32 219.444 201.527 218.961 202.715 218.235C203.904 217.502 204.873 216.609 205.624 215.555C206.383 214.501 206.763 213.404 206.764 212.263L206.766 210.669L208.688 210.671L208.686 212.265ZM217.366 227.204L198.288 227.184L198.29 225.66L217.368 225.68L217.366 227.204ZM238.108 227.483L219.03 227.463L219.032 225.916L227.61 225.925L227.614 221.987L221.426 221.981L221.433 215.559L233.902 215.572L233.905 212.291L221.389 212.278L221.391 210.755L235.711 210.769L235.705 217.074L223.26 217.061L223.256 220.46L236.194 220.473L236.192 221.996L229.419 221.989L229.414 225.927L238.11 225.936L238.108 227.483ZM257.366 211.963L257.366 212.245C257.349 213.284 257.309 214.245 257.246 215.127C257.182 216.01 257.041 217.01 256.821 218.127L254.97 217.984C255.189 216.883 255.335 215.907 255.406 215.055C255.485 214.204 255.533 213.321 255.549 212.407L246.983 212.398L246.985 210.851L257.367 210.862L257.366 211.963ZM251.991 219.95C254.679 219.843 256.968 219.658 258.859 219.395L258.974 220.754C257.029 221.088 254.954 221.312 252.751 221.427C250.556 221.534 248.263 221.587 245.872 221.584L245.686 220.061L245.944 220.061L250.163 220.007L250.167 215.472L251.996 215.473L251.991 219.95ZM262.143 216.046L265.19 216.05L265.189 217.62L262.142 217.617L262.134 224.929L260.259 224.927L260.275 209.248L262.15 209.25L262.143 216.046ZM262.809 229.641L248.887 229.627L248.894 223.509L250.745 223.511L250.74 228.082L262.811 228.094L262.809 229.641ZM283.748 221.131L281.919 221.129L281.932 209.293L283.76 209.295L283.748 221.131ZM283.739 229.826L270.192 229.812L270.199 222.312L283.746 222.326L283.739 229.826ZM271.998 228.314L281.935 228.325L281.94 223.825L272.003 223.814L271.998 228.314ZM273.936 212.144C273.928 213.105 274.149 214.027 274.602 214.911C275.054 215.794 275.682 216.572 276.486 217.245C277.29 217.91 278.203 218.422 279.227 218.783L278.288 220.188C277.077 219.773 276.011 219.143 275.09 218.298C274.177 217.445 273.487 216.453 273.019 215.319C272.557 216.538 271.857 217.607 270.918 218.528C269.98 219.441 268.889 220.124 267.647 220.575L266.711 219.121C267.758 218.755 268.684 218.221 269.49 217.519C270.303 216.809 270.933 215.989 271.379 215.06C271.833 214.123 272.06 213.15 272.061 212.143L272.064 210.103L273.939 210.105L273.936 212.144ZM294.277 214.884C294.276 216.079 294.517 217.275 295 218.471C295.483 219.659 296.135 220.722 296.954 221.66C297.781 222.599 298.683 223.31 299.659 223.796L298.532 225.271C297.385 224.669 296.354 223.785 295.441 222.62C294.536 221.455 293.854 220.149 293.395 218.703C292.932 220.242 292.235 221.632 291.304 222.873C290.373 224.107 289.322 225.035 288.149 225.659L286.979 224.181C287.987 223.69 288.906 222.953 289.735 221.969C290.572 220.978 291.233 219.861 291.719 218.62C292.212 217.37 292.464 216.124 292.473 214.882L292.477 211.085L294.281 211.087L294.277 214.884ZM303.415 217.753L306.907 217.756L306.906 219.35L303.413 219.347L303.402 230.128L301.574 230.126L301.596 209.29L303.424 209.292L303.415 217.753ZM327.084 220.449L308.006 220.429L308.008 218.976L327.086 218.996L327.084 220.449ZM324.687 226.54L312.172 226.527L312.17 228.52L325.365 228.533L325.364 229.869L310.317 229.854L310.321 225.26L322.86 225.273L322.862 223.492L310.3 223.479L310.301 222.096L324.692 222.111L324.687 226.54ZM324.63 214.259L312.325 214.246L312.323 216.074L325.003 216.088L325.001 217.423L310.494 217.409L310.498 212.979L322.779 212.991L322.781 211.281L310.43 211.268L310.431 209.932L324.634 209.947L324.63 214.259ZM353.778 221.906L334.77 221.887L334.772 220.387L343.35 220.395L343.352 218.333L337.305 218.327L337.314 209.936L351.423 209.951L351.422 211.451L339.164 211.438L339.162 213.383L350.857 213.395L350.856 214.802L339.16 214.79L339.158 216.852L351.533 216.865L351.532 218.341L345.18 218.335L345.178 220.397L353.78 220.406L353.778 221.906ZM344.284 223.467C346.573 223.453 348.339 223.736 349.58 224.316C350.822 224.887 351.446 225.716 351.453 226.802C351.444 227.888 350.818 228.712 349.575 229.273C348.34 229.842 346.574 230.125 344.277 230.123C341.957 230.121 340.176 229.834 338.935 229.262C337.701 228.698 337.084 227.873 337.086 226.787C337.087 225.701 337.709 224.874 338.951 224.305C340.194 223.728 341.972 223.449 344.284 223.467ZM344.283 224.85C342.564 224.848 341.24 225.014 340.31 225.349C339.38 225.684 338.922 226.164 338.937 226.789C338.929 227.422 339.381 227.903 340.295 228.232C341.217 228.553 342.544 228.707 344.279 228.693C345.99 228.711 347.302 228.56 348.217 228.24C349.139 227.913 349.6 227.433 349.601 226.8C349.602 226.175 349.137 225.694 348.208 225.357C347.287 225.021 345.978 224.851 344.283 224.85ZM365.95 214.466L355.497 214.455L355.498 212.955L359.834 212.959L359.837 209.983L361.665 209.985L361.662 212.961L365.951 212.966L365.95 214.466ZM360.722 215.866C361.589 215.867 362.362 216.071 363.041 216.478C363.729 216.877 364.263 217.436 364.645 218.156C365.035 218.875 365.233 219.691 365.24 220.605C365.232 221.527 365.031 222.351 364.64 223.077C364.257 223.796 363.721 224.362 363.033 224.775C362.353 225.181 361.579 225.383 360.712 225.382C359.853 225.381 359.083 225.177 358.404 224.77C357.725 224.356 357.194 223.785 356.812 223.058C356.43 222.331 356.239 221.51 356.24 220.596C356.241 219.69 356.433 218.878 356.817 218.159C357.201 217.433 357.732 216.871 358.413 216.473C359.093 216.068 359.862 215.866 360.722 215.866ZM360.72 217.413C360.181 217.421 359.693 217.565 359.255 217.845C358.825 218.118 358.489 218.497 358.246 218.981C358.003 219.457 357.882 219.996 357.881 220.598C357.88 221.207 358.001 221.754 358.243 222.239C358.492 222.723 358.831 223.103 359.261 223.377C359.69 223.643 360.175 223.772 360.714 223.765C361.26 223.773 361.753 223.645 362.191 223.38C362.628 223.107 362.973 222.728 363.223 222.244C363.474 221.76 363.599 221.213 363.6 220.604C363.6 220.002 363.476 219.463 363.226 218.986C362.977 218.502 362.633 218.122 362.196 217.848C361.759 217.567 361.267 217.422 360.72 217.413ZM373.27 230.2L371.512 230.198L371.523 219.674L368.757 219.672L368.747 229.164L367.013 229.162L367.033 209.873L368.767 209.875L368.758 218.148L371.524 218.151L371.533 209.362L373.291 209.364L373.27 230.2ZM399.483 220.195L397.678 220.193L397.689 209.389L399.494 209.391L399.483 220.195ZM399.5 226.242L387.805 226.23L387.803 228.48L400.248 228.493L400.246 229.993L385.996 229.978L386.002 224.799L397.674 224.811L397.676 222.725L385.957 222.713L385.958 221.236L399.505 221.25L399.5 226.242ZM389.695 211.584C389.686 212.552 389.908 213.475 390.36 214.35C390.812 215.225 391.44 215.996 392.244 216.66C393.056 217.318 393.978 217.815 395.008 218.152L394.093 219.58C392.867 219.165 391.789 218.539 390.86 217.702C389.939 216.857 389.245 215.872 388.778 214.747C388.308 215.957 387.603 217.019 386.665 217.932C385.727 218.845 384.64 219.524 383.405 219.968L382.446 218.514C383.485 218.148 384.411 217.617 385.225 216.923C386.038 216.221 386.671 215.409 387.126 214.487C387.587 213.558 387.819 212.59 387.82 211.582L387.822 209.988L389.697 209.99L389.695 211.584ZM420.848 230.248L419.09 230.247L419.111 209.411L420.869 209.413L420.848 230.248ZM416.63 229.166L414.896 229.164L414.907 218.43L411.391 218.426L411.393 216.926L414.908 216.93L414.915 209.922L416.65 209.924L416.63 229.166ZM409.168 215.354C409.166 216.565 409.341 217.748 409.691 218.905C410.042 220.054 410.556 221.093 411.235 222.024C411.914 222.946 412.722 223.678 413.659 224.218L412.532 225.576C411.525 224.973 410.662 224.14 409.945 223.077C409.227 222.006 408.682 220.795 408.308 219.443C407.924 220.903 407.356 222.211 406.605 223.367C405.861 224.522 404.978 225.42 403.953 226.059L402.783 224.675C403.729 224.114 404.55 223.345 405.246 222.369C405.943 221.393 406.471 220.3 406.832 219.09C407.2 217.871 407.385 216.625 407.386 215.352L407.388 213.383L403.381 213.379L403.382 211.856L412.992 211.865L412.99 213.389L409.17 213.385L409.168 215.354ZM125.023 261.226L105.945 261.206L105.946 259.683L114.477 259.692L114.483 254.582L116.287 254.584L116.282 259.693L125.024 259.702L125.023 261.226ZM116.343 246.123C116.342 247.233 116.723 248.299 117.488 249.324C118.26 250.348 119.244 251.216 120.438 251.928C121.641 252.633 122.859 253.091 124.093 253.303L123.271 254.826C122.194 254.606 121.135 254.226 120.097 253.686C119.058 253.146 118.122 252.473 117.286 251.667C116.459 250.862 115.827 249.974 115.391 249.005C114.952 249.973 114.318 250.859 113.49 251.663C112.661 252.467 111.726 253.138 110.687 253.676C109.655 254.214 108.6 254.592 107.521 254.809L106.703 253.285C107.937 253.075 109.149 252.62 110.337 251.918C111.533 251.208 112.51 250.346 113.269 249.331C114.036 248.308 114.42 247.238 114.421 246.121L114.423 244.527L116.345 244.529L116.343 246.123ZM145.677 255.692L126.669 255.673L126.671 254.173L135.249 254.182L135.251 252.119L129.204 252.113L129.213 243.722L143.322 243.737L143.32 245.237L131.063 245.224L131.061 247.17L142.756 247.182L142.754 248.588L131.059 248.576L131.057 250.638L143.432 250.651L143.43 252.128L137.079 252.121L137.077 254.184L145.678 254.192L145.677 255.692ZM136.183 257.253C138.472 257.24 140.237 257.523 141.479 258.102C142.721 258.674 143.345 259.502 143.351 260.588C143.343 261.674 142.717 262.498 141.474 263.059C140.239 263.628 138.473 263.912 136.176 263.909C133.856 263.907 132.075 263.62 130.833 263.048C129.6 262.484 128.983 261.66 128.984 260.574C128.985 259.488 129.607 258.66 130.85 258.091C132.093 257.514 133.871 257.235 136.183 257.253ZM136.182 258.636C134.463 258.634 133.138 258.801 132.208 259.136C131.278 259.471 130.821 259.951 130.836 260.576C130.827 261.208 131.28 261.689 132.194 262.018C133.115 262.34 134.443 262.493 136.178 262.48C137.889 262.497 139.201 262.346 140.116 262.027C141.038 261.699 141.499 261.219 141.5 260.587C141.501 259.962 141.036 259.481 140.107 259.144C139.185 258.807 137.877 258.638 136.182 258.636ZM170.292 250.515L156.065 250.5L156.072 243.562L157.9 243.564L157.895 248.978L170.293 248.991L170.292 250.515ZM172.467 254.478L153.459 254.458L153.461 252.935L172.469 252.954L172.467 254.478ZM162.95 256.343C164.442 256.344 165.723 256.494 166.793 256.792C167.863 257.082 168.683 257.513 169.252 258.084C169.822 258.647 170.111 259.327 170.118 260.124C170.109 260.921 169.819 261.6 169.248 262.162C168.677 262.732 167.857 263.16 166.786 263.448C165.715 263.744 164.434 263.891 162.942 263.89C161.442 263.888 160.153 263.739 159.075 263.441C157.997 263.15 157.174 262.72 156.604 262.149C156.034 261.586 155.75 260.906 155.75 260.109C155.751 259.312 156.037 258.633 156.608 258.071C157.179 257.501 158.004 257.072 159.082 256.784C160.16 256.489 161.45 256.341 162.95 256.343ZM162.948 257.796C161.261 257.81 159.948 258.016 159.01 258.413C158.08 258.811 157.618 259.377 157.625 260.111C157.617 260.595 157.824 261.013 158.245 261.365C158.667 261.717 159.276 261.988 160.073 262.176C160.877 262.364 161.834 262.459 162.943 262.46C164.037 262.461 164.982 262.368 165.78 262.182C166.584 261.995 167.198 261.726 167.62 261.375C168.05 261.024 168.266 260.606 168.266 260.122C168.267 259.387 167.799 258.821 166.862 258.421C165.924 258.022 164.62 257.813 162.948 257.796ZM184.096 250.294L176.925 250.287L176.921 253.521C179.038 253.524 180.675 253.494 181.831 253.433C182.988 253.371 184.148 253.232 185.312 253.014L185.498 254.538C184.256 254.74 183.014 254.871 181.771 254.933C180.537 254.994 178.803 255.023 176.568 255.021L175.092 255.019L175.098 248.879L182.27 248.886L182.273 245.933L175.054 245.926L175.056 244.449L184.102 244.458L184.096 250.294ZM191.473 255.997L189.622 255.995L189.626 252.128L185.477 252.124L185.479 250.6L189.627 250.605L189.63 247.792L185.482 247.788L185.483 246.288L189.632 246.292L189.635 243.198L191.487 243.2L191.473 255.997ZM191.465 264.06L189.614 264.058L189.619 258.62L177.432 258.608L177.433 257.108L191.472 257.122L191.465 264.06ZM204.447 243.565C205.994 243.567 207.318 243.709 208.419 243.991C209.521 244.266 210.36 244.673 210.938 245.213C211.515 245.744 211.804 246.393 211.803 247.159C211.802 248.331 211.16 249.228 209.878 249.852C208.596 250.476 206.783 250.794 204.44 250.807C202.893 250.798 201.565 250.652 200.456 250.37C199.354 250.087 198.511 249.676 197.926 249.137C197.348 248.589 197.06 247.925 197.061 247.144C197.061 246.378 197.351 245.73 197.93 245.199C198.516 244.661 199.36 244.255 200.462 243.983C201.572 243.703 202.9 243.564 204.447 243.565ZM204.446 244.948C203.297 244.947 202.313 245.036 201.492 245.215C200.672 245.386 200.047 245.639 199.617 245.974C199.186 246.302 198.975 246.692 198.982 247.146C198.974 247.864 199.446 248.419 200.399 248.811C201.351 249.203 202.699 249.399 204.441 249.401C206.175 249.403 207.523 249.209 208.485 248.819C209.446 248.43 209.927 247.876 209.928 247.157C209.928 246.704 209.71 246.313 209.273 245.984C208.836 245.656 208.207 245.401 207.387 245.221C206.567 245.04 205.586 244.949 204.446 244.948ZM213.929 253.723L194.945 253.704L194.946 252.204L213.93 252.223L213.929 253.723ZM211.485 260.19L199.11 260.177L199.108 262.333L212.115 262.347L212.114 263.8L197.278 263.784L197.283 258.816L209.681 258.828L209.683 256.93L197.238 256.917L197.24 255.511L211.49 255.526L211.485 260.19ZM238.004 248.662L241.145 248.665L241.143 250.189L238.003 250.186L237.997 255.74L236.169 255.738L236.182 243.223L238.01 243.225L238.004 248.662ZM232.337 244.766C232.335 246.508 231.939 248.101 231.148 249.546C230.357 250.99 229.227 252.239 227.757 253.292C226.288 254.338 224.537 255.156 222.505 255.748L221.733 254.247C223.405 253.764 224.867 253.133 226.118 252.353C227.369 251.565 228.354 250.656 229.074 249.626C229.801 248.595 230.228 247.482 230.354 246.287L222.655 246.279L222.657 244.756L232.337 244.766ZM231.411 255.968C232.802 255.969 234.008 256.135 235.032 256.464C236.062 256.785 236.851 257.247 237.397 257.849C237.951 258.451 238.228 259.162 238.227 259.983C238.226 260.819 237.948 261.541 237.393 262.15C236.845 262.751 236.056 263.211 235.024 263.53C234.001 263.85 232.793 264.008 231.403 264.007C230.02 264.006 228.813 263.844 227.782 263.523C226.759 263.201 225.966 262.74 225.405 262.138C224.851 261.528 224.578 260.805 224.587 259.969C224.58 259.148 224.854 258.438 225.409 257.837C225.972 257.236 226.769 256.776 227.801 256.456C228.833 256.129 230.036 255.967 231.411 255.968ZM231.409 257.445C230.402 257.436 229.519 257.532 228.761 257.735C228.01 257.937 227.428 258.233 227.014 258.624C226.607 259.006 226.407 259.455 226.415 259.971C226.406 260.486 226.605 260.94 227.011 261.331C227.417 261.714 227.998 262.007 228.756 262.211C229.514 262.423 230.396 262.529 231.404 262.53C232.42 262.531 233.307 262.427 234.065 262.217C234.823 262.014 235.409 261.722 235.823 261.34C236.238 260.949 236.445 260.497 236.446 259.981C236.446 259.465 236.24 259.016 235.826 258.633C235.413 258.242 234.827 257.944 234.069 257.74C233.312 257.536 232.425 257.438 231.409 257.445ZM258.626 252.129L261.954 252.132L261.952 253.679L258.624 253.676L258.614 264.082L256.762 264.08L256.783 243.244L258.635 243.246L258.626 252.129ZM242.19 258.51C244.643 258.513 246.557 258.491 247.932 258.446L247.934 256.137C247.13 256.043 246.423 255.831 245.814 255.502C245.213 255.166 244.748 254.732 244.421 254.2C244.101 253.661 243.945 253.051 243.954 252.371C243.947 251.598 244.147 250.922 244.553 250.345C244.968 249.759 245.547 249.307 246.289 248.987C247.04 248.668 247.903 248.508 248.88 248.509C249.84 248.51 250.692 248.671 251.434 248.992C252.183 249.314 252.765 249.767 253.178 250.354C253.6 250.932 253.814 251.608 253.821 252.382C253.812 253.061 253.64 253.67 253.303 254.209C252.967 254.74 252.494 255.173 251.884 255.509C251.282 255.844 250.583 256.058 249.786 256.151L249.783 258.377C252.002 258.27 253.909 258.1 255.503 257.868L255.619 259.274C253.603 259.616 251.532 259.836 249.407 259.936C247.282 260.035 244.977 260.083 242.493 260.081L242.19 258.51ZM255.139 247.297L242.576 247.284L242.578 245.784L247.945 245.79L247.947 243.282L249.799 243.284L249.796 245.792L255.14 245.797L255.139 247.297ZM248.878 249.939C248.245 249.938 247.687 250.039 247.202 250.242C246.717 250.445 246.338 250.733 246.064 251.108C245.798 251.475 245.665 251.897 245.665 252.373C245.664 252.85 245.797 253.272 246.062 253.639C246.327 253.999 246.702 254.277 247.186 254.472C247.678 254.66 248.24 254.751 248.873 254.744C249.498 254.752 250.053 254.663 250.537 254.476C251.022 254.281 251.397 254.004 251.663 253.645C251.929 253.278 252.063 252.856 252.063 252.38C252.064 251.903 251.931 251.481 251.666 251.114C251.401 250.738 251.026 250.449 250.542 250.245C250.058 250.042 249.503 249.94 248.878 249.939ZM279.321 251.869L282.814 251.872L282.812 253.396L279.32 253.392L279.309 264.103L277.481 264.101L277.502 243.265L279.33 243.267L279.321 251.869ZM275.482 248.138L263.083 248.125L263.085 246.602L268.452 246.608L268.455 243.514L270.283 243.516L270.28 246.609L275.483 246.615L275.482 248.138ZM269.386 249.866C270.363 249.867 271.237 250.071 272.01 250.478C272.783 250.885 273.388 251.452 273.825 252.179C274.262 252.907 274.484 253.731 274.49 254.653C274.482 255.575 274.258 256.399 273.82 257.125C273.382 257.851 272.776 258.417 272.002 258.822C271.228 259.228 270.353 259.43 269.376 259.429C268.392 259.428 267.509 259.224 266.728 258.817C265.955 258.41 265.35 257.843 264.914 257.116C264.477 256.389 264.263 255.564 264.272 254.642C264.265 253.72 264.481 252.896 264.919 252.17C265.357 251.444 265.963 250.878 266.737 250.473C267.519 250.068 268.402 249.865 269.386 249.866ZM269.384 251.413C268.744 251.413 268.166 251.553 267.65 251.833C267.141 252.106 266.743 252.489 266.453 252.981C266.164 253.472 266.022 254.027 266.03 254.644C266.021 255.269 266.161 255.828 266.45 256.32C266.738 256.805 267.136 257.184 267.644 257.458C268.159 257.732 268.737 257.866 269.378 257.859C270.011 257.867 270.581 257.735 271.089 257.462C271.597 257.189 271.996 256.81 272.286 256.326C272.575 255.834 272.724 255.276 272.733 254.651C272.725 254.034 272.578 253.479 272.289 252.987C272 252.494 271.602 252.111 271.095 251.837C270.587 251.555 270.017 251.414 269.384 251.413ZM300.654 247.484L300.654 247.742C300.636 249.461 300.58 251.004 300.485 252.371C300.398 253.73 300.193 255.304 299.871 257.093L297.996 256.88C298.247 255.646 298.428 254.482 298.539 253.388C298.657 252.295 298.728 251.322 298.753 250.471C298.785 249.619 298.801 248.623 298.803 247.482L298.803 246.92L285.959 246.907L285.961 245.383L300.656 245.398L300.654 247.484ZM302.913 261.174L283.929 261.155L283.931 259.631L291.384 259.639L291.391 252.186L293.196 252.188L293.188 259.641L302.915 259.651L302.913 261.174ZM317.761 249.705C317.752 250.799 317.985 251.912 318.461 253.046C318.944 254.171 319.599 255.191 320.426 256.106C321.254 257.013 322.167 257.702 323.167 258.172L322.11 259.624C320.947 259.06 319.897 258.199 318.961 257.042C318.032 255.885 317.33 254.595 316.855 253.173C316.542 254.188 316.111 255.153 315.563 256.066C315.015 256.98 314.39 257.788 313.686 258.49C312.982 259.185 312.243 259.731 311.469 260.128L310.346 258.674C311.338 258.199 312.261 257.477 313.114 256.509C313.974 255.541 314.659 254.456 315.168 253.253C315.685 252.051 315.947 250.867 315.956 249.703L315.959 246.984L311.108 246.98L311.109 245.456L322.453 245.468L322.451 246.991L317.764 246.986L317.761 249.705ZM326.829 251.753L330.322 251.757L330.32 253.327L326.828 253.324L326.817 264.152L324.989 264.15L325.01 243.314L326.838 243.316L326.829 251.753ZM350.496 256.747L345.457 256.741L345.449 264.171L343.598 264.169L343.606 256.739L338.262 256.734L338.254 264.164L336.356 264.162L336.363 256.732L331.418 256.727L331.42 255.204L350.498 255.223L350.496 256.747ZM340.923 244.174C342.376 244.176 343.657 244.365 344.766 244.741C345.875 245.109 346.734 245.637 347.343 246.325C347.951 247.013 348.255 247.815 348.254 248.729C348.253 249.643 347.944 250.439 347.326 251.118C346.716 251.797 345.856 252.32 344.746 252.686C343.644 253.052 342.367 253.23 340.914 253.221C339.461 253.227 338.18 253.046 337.071 252.678C335.969 252.31 335.111 251.785 334.494 251.105C333.885 250.425 333.582 249.628 333.583 248.714C333.583 247.799 333.889 246.999 334.499 246.312C335.109 245.625 335.969 245.099 337.079 244.733C338.189 244.359 339.47 244.173 340.923 244.174ZM340.922 245.674C339.843 245.673 338.89 245.797 338.062 246.046C337.241 246.295 336.604 246.65 336.151 247.111C335.697 247.571 335.474 248.106 335.481 248.715C335.473 249.325 335.695 249.86 336.147 250.322C336.6 250.775 337.236 251.127 338.056 251.378C338.884 251.621 339.837 251.743 340.915 251.745C341.986 251.746 342.935 251.625 343.763 251.384C344.592 251.135 345.233 250.784 345.686 250.331C346.148 249.871 346.379 249.336 346.379 248.727C346.38 248.117 346.15 247.582 345.69 247.121C345.237 246.659 344.597 246.303 343.769 246.052C342.941 245.801 341.992 245.675 340.922 245.674ZM371.24 255.549L352.161 255.529L352.163 254.029L360.788 254.038L360.79 252.023L354.649 252.016L354.654 247.165L366.936 247.177L366.938 245.256L354.586 245.243L354.588 243.79L368.791 243.804L368.786 248.562L356.481 248.55L356.479 250.565L369.229 250.578L369.228 252.031L362.595 252.025L362.593 254.04L371.241 254.049L371.24 255.549ZM356.565 258.628L366.971 258.638L366.973 256.599L368.778 256.601L368.77 263.914L354.708 263.899L354.715 256.587L356.567 256.589L356.565 258.628ZM366.967 262.435L366.969 260.092L356.563 260.081L356.561 262.425L366.967 262.435ZM390.754 264.218L388.996 264.216L389.018 243.38L390.776 243.382L390.754 264.218ZM386.372 263.158L384.615 263.157L384.625 253.43L380.207 253.425C378.876 255.971 376.815 258.063 374.024 259.7L372.948 258.363C375.176 257.053 376.88 255.485 378.062 253.658C379.251 251.823 379.933 249.792 380.107 247.566L373.849 247.56L373.851 246.036L381.937 246.044C381.919 248.169 381.569 250.13 380.888 251.926L384.626 251.93L384.634 243.938L386.392 243.94L386.372 263.158ZM98.4563 283.972L101.597 283.975L101.595 285.522L98.4547 285.519L98.4474 292.714L96.6192 292.712L96.6353 277.103L98.4634 277.105L98.4563 283.972ZM94.6389 281.156L82.217 281.143L82.2186 279.643L87.5155 279.648L87.5181 277.094L89.3462 277.095L89.3436 279.65L94.6405 279.656L94.6389 281.156ZM88.4268 282.298C89.4112 282.299 90.2782 282.46 91.0279 282.781C91.7853 283.102 92.3747 283.556 92.796 284.142C93.2173 284.728 93.4314 285.412 93.4384 286.193C93.4298 286.967 93.2143 287.642 92.7918 288.22C92.3693 288.798 91.779 289.246 91.0209 289.566C90.2706 289.878 89.4032 290.033 88.4189 290.032C87.4267 290.031 86.5479 289.874 85.7826 289.561C85.0251 289.239 84.4357 288.79 84.0145 288.211C83.601 287.633 83.3986 286.957 83.4072 286.183C83.4002 285.402 83.604 284.718 84.0187 284.133C84.4411 283.547 85.0314 283.095 85.7896 282.775C86.5555 282.456 87.4346 282.297 88.4268 282.298ZM88.4253 283.751C87.7769 283.75 87.2025 283.851 86.7023 284.054C86.2099 284.249 85.8268 284.533 85.553 284.908C85.287 285.275 85.1577 285.701 85.165 286.185C85.1567 286.669 85.2851 287.095 85.5504 287.463C85.8235 287.822 86.206 288.1 86.698 288.296C87.1978 288.492 87.7719 288.586 88.4203 288.579C89.061 288.587 89.6275 288.494 90.1199 288.299C90.6201 288.105 91.0071 287.828 91.2809 287.469C91.5547 287.102 91.6957 286.676 91.704 286.192C91.6967 285.707 91.5565 285.281 91.2835 284.914C91.0104 284.539 90.624 284.253 90.1242 284.057C89.6322 283.854 89.0659 283.751 88.4253 283.751ZM99.4034 297.473L85.4112 297.459L85.4174 291.459L87.2221 291.46L87.2175 295.914L99.405 295.926L99.4034 297.473ZM119.484 279.634C119.483 280.72 119.451 281.705 119.387 282.587C119.332 283.462 119.19 284.454 118.963 285.563L121.986 285.567L121.984 287.067L113.313 287.058L113.309 290.901L119.613 290.908L119.606 297.939L117.754 297.937L117.76 292.429L104.87 292.416L104.871 290.893L111.48 290.899L111.484 287.056L102.906 287.047L102.908 285.547L117.111 285.561C117.346 284.437 117.496 283.437 117.559 282.562C117.623 281.687 117.655 280.71 117.656 279.632L105.328 279.62L105.33 278.12L119.486 278.134L119.484 279.634ZM129.259 278.73C130.196 278.739 131.036 279.002 131.777 279.518C132.527 280.034 133.132 280.769 133.591 281.723C134.051 282.677 134.328 283.798 134.42 285.087L139.096 285.092L139.104 277.123L140.932 277.125L140.911 298.008L139.083 298.006L139.094 286.615L134.442 286.611C134.37 287.954 134.107 289.126 133.653 290.125C133.199 291.125 132.589 291.894 131.823 292.432C131.064 292.97 130.205 293.239 129.244 293.238C128.228 293.237 127.322 292.939 126.526 292.345C125.737 291.75 125.121 290.906 124.677 289.811C124.241 288.717 124.023 287.444 124.025 285.99C124.026 284.537 124.246 283.264 124.685 282.171C125.131 281.078 125.749 280.234 126.539 279.641C127.329 279.041 128.235 278.737 129.259 278.73ZM129.257 280.371C128.577 280.378 127.972 280.616 127.44 281.084C126.916 281.544 126.509 282.2 126.219 283.051C125.929 283.895 125.784 284.875 125.782 285.992C125.781 287.109 125.925 288.094 126.213 288.946C126.501 289.79 126.907 290.443 127.43 290.904C127.96 291.366 128.566 291.597 129.245 291.597C129.917 291.598 130.515 291.368 131.039 290.908C131.571 290.447 131.982 289.796 132.272 288.952C132.569 288.101 132.719 287.117 132.72 285.999C132.721 284.882 132.574 283.902 132.278 283.058C131.989 282.206 131.584 281.549 131.061 281.088C130.538 280.618 129.937 280.379 129.257 280.371ZM168.215 297.989L166.458 297.987L166.469 287.065L163.399 287.062L163.388 296.906L161.701 296.904L161.721 277.615L163.408 277.617L163.4 285.539L166.47 285.542L166.479 277.151L168.237 277.153L168.215 297.989ZM158.998 281.222L153.022 281.216L153.011 291.247C154.55 291.241 155.855 291.199 156.926 291.122C158.004 291.037 159.09 290.886 160.184 290.668L160.346 292.215C159.159 292.456 157.987 292.619 156.83 292.704C155.682 292.781 154.244 292.818 152.518 292.817L151.182 292.815L151.195 279.69L159 279.698L158.998 281.222ZM187.329 286.056L190.657 286.059L190.656 287.606L187.328 287.602L187.317 298.009L185.465 298.007L185.487 277.171L187.338 277.173L187.329 286.056ZM170.893 292.437C173.346 292.44 175.26 292.418 176.635 292.373L176.638 290.064C175.833 289.969 175.126 289.758 174.517 289.429C173.916 289.093 173.452 288.658 173.124 288.127C172.804 287.587 172.649 286.978 172.657 286.298C172.65 285.525 172.85 284.849 173.257 284.272C173.672 283.686 174.25 283.233 174.993 282.914C175.743 282.594 176.606 282.435 177.583 282.436C178.544 282.437 179.395 282.598 180.137 282.919C180.887 283.24 181.468 283.694 181.882 284.28C182.303 284.859 182.517 285.535 182.524 286.308C182.516 286.988 182.343 287.597 182.007 288.136C181.67 288.667 181.197 289.1 180.587 289.435C179.986 289.771 179.286 289.985 178.489 290.078L178.487 292.304C180.706 292.197 182.612 292.027 184.206 291.794L184.322 293.201C182.306 293.543 180.235 293.763 178.11 293.862C175.985 293.962 173.68 294.01 171.196 294.008L170.893 292.437ZM183.842 281.224L171.28 281.211L171.281 279.711L176.648 279.716L176.651 277.209L178.502 277.21L178.5 279.718L183.844 279.724L183.842 281.224ZM177.581 283.866C176.949 283.865 176.39 283.966 175.905 284.169C175.421 284.371 175.042 284.66 174.768 285.035C174.502 285.402 174.369 285.823 174.368 286.3C174.368 286.777 174.5 287.199 174.765 287.566C175.03 287.926 175.405 288.203 175.889 288.399C176.381 288.587 176.944 288.678 177.577 288.67C178.202 288.679 178.756 288.59 179.241 288.403C179.725 288.208 180.101 287.931 180.367 287.572C180.633 287.205 180.766 286.783 180.766 286.307C180.767 285.83 180.635 285.408 180.369 285.041C180.104 284.665 179.729 284.376 179.245 284.172C178.761 283.969 178.206 283.866 177.581 283.866ZM210.952 288.33L191.874 288.31L191.875 286.857L210.953 286.877L210.952 288.33ZM208.555 294.421L196.039 294.408L196.037 296.4L209.233 296.414L209.231 297.75L194.184 297.734L194.189 293.141L206.728 293.154L206.73 291.372L194.168 291.359L194.169 289.977L208.56 289.991L208.555 294.421ZM208.497 282.14L196.193 282.127L196.191 283.955L208.87 283.968L208.869 285.304L194.361 285.289L194.366 280.86L206.647 280.872L206.649 279.161L194.297 279.149L194.299 277.813L208.502 277.827L208.497 282.14ZM235.932 292.644L234.08 292.643L234.086 287.018L228.695 287.012C228.21 287.629 227.593 288.112 226.842 288.463C226.1 288.806 225.287 288.977 224.404 288.976C223.373 288.975 222.448 288.752 221.628 288.306C220.808 287.859 220.164 287.242 219.696 286.452C219.228 285.662 218.995 284.768 218.996 283.768C218.997 282.768 219.232 281.873 219.702 281.085C220.171 280.288 220.816 279.668 221.637 279.224C222.458 278.779 223.384 278.553 224.415 278.547C225.29 278.555 226.095 278.732 226.829 279.077C227.563 279.413 228.175 279.887 228.667 280.496L234.093 280.502L234.096 277.244L235.948 277.246L235.932 292.644ZM236.513 297.614L222.544 297.599L222.551 291.014L224.402 291.015L224.397 296.055L236.514 296.067L236.513 297.614ZM224.413 280.187C223.71 280.194 223.081 280.354 222.526 280.666C221.971 280.97 221.537 281.391 221.224 281.93C220.911 282.469 220.754 283.082 220.753 283.77C220.753 284.457 220.908 285.07 221.22 285.61C221.532 286.149 221.965 286.572 222.52 286.877C223.074 287.182 223.703 287.335 224.406 287.336C225.078 287.336 225.687 287.185 226.235 286.881C226.79 286.577 227.224 286.155 227.537 285.616C227.858 285.07 228.018 284.457 228.019 283.777C228.02 283.097 227.86 282.488 227.541 281.948C227.229 281.401 226.795 280.975 226.241 280.67C225.694 280.357 225.085 280.196 224.413 280.187ZM229.509 282.021C229.704 282.583 229.801 283.169 229.8 283.779C229.8 284.357 229.705 284.927 229.517 285.489L234.088 285.494L234.091 282.025L229.509 282.021ZM243.643 292.184L254.05 292.194L254.052 289.757L255.904 289.759L255.895 297.798L241.809 297.783L241.818 289.744L243.646 289.746L243.643 292.184ZM254.045 296.319L254.048 293.647L243.642 293.637L243.639 296.309L254.045 296.319ZM258.389 288.285L239.405 288.265L239.407 286.742L258.391 286.761L258.389 288.285ZM249.868 278.456C249.867 279.284 250.226 280.081 250.944 280.847C251.662 281.606 252.595 282.251 253.743 282.784C254.899 283.309 256.09 283.65 257.316 283.807L256.635 285.283C255.549 285.118 254.495 284.832 253.472 284.424C252.456 284.009 251.551 283.493 250.754 282.875C249.958 282.257 249.346 281.568 248.917 280.81C248.486 281.568 247.868 282.254 247.063 282.871C246.265 283.487 245.359 284.002 244.343 284.415C243.327 284.82 242.276 285.104 241.189 285.267L240.488 283.79C241.738 283.627 242.938 283.288 244.087 282.774C245.243 282.252 246.178 281.616 246.889 280.867C247.609 280.11 247.969 279.305 247.97 278.454L247.971 277.469L249.869 277.471L249.868 278.456ZM276.443 282.256L279.607 282.26L279.605 283.783L276.441 283.78L276.436 288.725L274.608 288.723L274.62 277.192L276.448 277.194L276.443 282.256ZM276.43 294.42L264.993 294.409L264.99 296.448L277.201 296.46L277.2 297.867L263.184 297.852L263.189 293.047L274.603 293.059L274.605 291.184L263.144 291.172L263.146 289.79L276.435 289.803L276.43 294.42ZM272.624 280.635L260.202 280.623L260.204 279.146L265.5 279.151L265.503 277.042L267.331 277.044L267.329 279.153L272.625 279.159L272.624 280.635ZM266.412 281.566C267.412 281.567 268.287 281.709 269.037 281.991C269.794 282.265 270.38 282.66 270.793 283.176C271.207 283.692 271.417 284.298 271.424 284.993C271.416 285.689 271.204 286.294 270.789 286.809C270.375 287.324 269.789 287.722 269.03 288.003C268.28 288.275 267.405 288.411 266.405 288.41C265.397 288.409 264.511 288.272 263.745 287.997C262.988 287.715 262.402 287.316 261.989 286.8C261.583 286.284 261.384 285.678 261.393 284.983C261.386 284.288 261.586 283.683 261.992 283.167C262.407 282.652 262.993 282.258 263.751 281.986C264.517 281.705 265.404 281.565 266.412 281.566ZM266.411 282.926C265.762 282.925 265.188 283.01 264.688 283.182C264.195 283.353 263.812 283.595 263.539 283.907C263.273 284.219 263.143 284.579 263.151 284.985C263.142 285.399 263.271 285.762 263.536 286.075C263.809 286.38 264.192 286.615 264.684 286.779C265.176 286.944 265.75 287.027 266.406 287.027C267.399 287.028 268.192 286.85 268.786 286.491C269.38 286.124 269.681 285.624 269.69 284.992C269.682 284.578 269.542 284.218 269.269 283.913C268.996 283.6 268.613 283.358 268.121 283.185C267.629 283.013 267.059 282.926 266.411 282.926ZM297.375 279.231C297.374 280.169 297.737 281.067 298.462 281.927C299.196 282.788 300.148 283.511 301.32 284.098C302.491 284.686 303.705 285.066 304.963 285.239L304.211 286.738C303.118 286.557 302.06 286.244 301.037 285.797C300.014 285.343 299.1 284.78 298.296 284.107C297.492 283.426 296.872 282.672 296.435 281.843C296.005 282.671 295.383 283.424 294.57 284.103C293.764 284.774 292.85 285.336 291.826 285.788C290.802 286.232 289.743 286.544 288.649 286.722L287.9 285.221C289.166 285.051 290.381 284.677 291.546 284.1C292.711 283.515 293.657 282.798 294.384 281.947C295.112 281.088 295.476 280.182 295.477 279.229L295.478 278.034L297.377 278.036L297.375 279.231ZM305.895 290.584L297.27 290.575L297.262 298.122L295.458 298.12L295.465 290.573L286.911 290.564L286.912 289.017L305.897 289.037L305.895 290.584ZM320.73 291.302C320.729 292.263 320.982 293.189 321.489 294.08C322.004 294.971 322.737 295.687 323.69 296.227C324.323 295.829 324.871 295.353 325.332 294.799C325.794 294.237 326.142 293.655 326.377 293.054C326.612 292.445 326.73 291.863 326.73 291.308L326.731 290.16L328.536 290.161L328.535 291.31C328.534 292.029 328.701 292.732 329.037 293.42C329.38 294.1 329.871 294.714 330.511 295.261C331.151 295.801 331.905 296.22 332.772 296.517L331.856 297.876C330.833 297.515 329.959 296.991 329.233 296.303C328.507 295.615 327.961 294.825 327.595 293.934C327.25 294.824 326.753 295.632 326.104 296.358C325.455 297.084 324.669 297.642 323.747 298.032C322.771 297.656 321.951 297.112 321.287 296.4C320.632 295.696 320.141 294.887 319.813 293.973C319.43 294.84 318.882 295.613 318.17 296.291C317.459 296.97 316.614 297.493 315.637 297.859L314.701 296.499C315.553 296.179 316.296 295.743 316.929 295.189C317.57 294.627 318.063 294.006 318.408 293.327C318.76 292.648 318.94 291.972 318.949 291.3L318.95 290.152L320.731 290.153L320.73 291.302ZM330.881 289.25L329.053 289.248L329.065 277.342L330.893 277.344L330.881 289.25ZM319.642 278.551C320.689 278.552 321.626 278.76 322.454 279.175C323.281 279.582 323.929 280.157 324.397 280.899C324.865 281.634 325.099 282.478 325.098 283.431C325.097 284.369 324.861 285.205 324.392 285.938C323.922 286.672 323.273 287.242 322.445 287.647C321.616 288.053 320.679 288.255 319.632 288.254C318.585 288.253 317.648 288.049 316.82 287.642C315.992 287.235 315.344 286.664 314.876 285.929C314.408 285.194 314.175 284.358 314.176 283.42C314.177 282.467 314.412 281.624 314.881 280.89C315.351 280.148 316 279.574 316.829 279.169C317.657 278.756 318.595 278.55 319.642 278.551ZM319.64 280.121C318.937 280.113 318.304 280.249 317.741 280.529C317.186 280.81 316.752 281.204 316.439 281.712C316.126 282.211 315.973 282.781 315.98 283.422C315.972 284.055 316.124 284.621 316.436 285.122C316.748 285.622 317.181 286.013 317.735 286.295C318.298 286.577 318.93 286.722 319.633 286.73C320.329 286.723 320.954 286.579 321.509 286.299C322.064 286.018 322.498 285.628 322.811 285.128C323.132 284.629 323.292 284.062 323.293 283.43C323.294 282.789 323.134 282.218 322.814 281.718C322.502 281.21 322.069 280.815 321.515 280.533C320.96 280.251 320.335 280.114 319.64 280.121ZM351.249 288.615L344.803 288.608L344.798 293.999L353.493 294.007L353.491 295.554L334.413 295.535L334.415 293.988L342.993 293.997L342.999 288.606L336.858 288.6L336.868 279.037L351.047 279.052L351.046 280.552L338.718 280.539L338.711 287.102L351.25 287.115L351.249 288.615ZM374.216 290.372L355.137 290.353L355.139 288.829L363.764 288.838L363.766 286.635L357.626 286.629L357.631 281.543L369.912 281.556L369.914 279.399L357.563 279.387L357.564 277.887L371.767 277.901L371.762 282.94L359.458 282.928L359.455 285.154L372.205 285.167L372.204 286.644L365.571 286.637L365.569 288.84L374.217 288.849L374.216 290.372ZM371.864 298.011L370.012 298.009L370.017 293.462L357.267 293.449L357.269 291.949L371.87 291.964L371.864 298.011ZM389.386 283.779C389.385 284.927 389.638 286.072 390.145 287.213C390.651 288.346 391.334 289.359 392.192 290.25C393.059 291.134 394.003 291.799 395.026 292.245L393.993 293.697C392.767 293.134 391.663 292.285 390.68 291.151C389.696 290.009 388.963 288.724 388.48 287.293C387.994 288.824 387.259 290.21 386.273 291.451C385.295 292.685 384.212 293.602 383.024 294.202L381.924 292.748C382.909 292.272 383.828 291.554 384.68 290.594C385.541 289.634 386.229 288.553 386.746 287.35C387.263 286.14 387.526 284.949 387.535 283.777L387.538 281.058L382.616 281.053L382.617 279.53L394.359 279.542L394.358 281.065L389.389 281.06L389.386 283.779ZM399.098 298.226L397.247 298.224L397.268 277.388L399.119 277.39L399.098 298.226ZM419.845 293.255L417.994 293.253L417.996 291.097L413.684 291.093L413.685 289.757L417.997 289.761L418.01 277.433L419.862 277.435L419.845 293.255ZM420.356 297.803L405.544 297.787L405.55 291.694L407.402 291.696L407.397 296.243L420.358 296.256L420.356 297.803ZM402.555 287.073C405.414 287.061 407.899 287.02 410.008 286.952C412.125 286.884 414.165 286.726 416.126 286.478L416.242 287.814C414.523 288.086 412.616 288.283 410.522 288.406L410.518 292.519L408.666 292.517L408.671 288.498C407.116 288.551 405.538 288.577 403.936 288.575L402.811 288.574L402.555 287.073ZM409.408 278.268C410.415 278.269 411.306 278.422 412.079 278.728C412.86 279.025 413.465 279.452 413.894 280.007C414.331 280.554 414.553 281.187 414.56 281.906C414.552 282.64 414.328 283.281 413.89 283.827C413.46 284.366 412.854 284.783 412.073 285.079C411.299 285.368 410.408 285.511 409.4 285.51C408.385 285.509 407.486 285.364 406.705 285.074C405.924 284.776 405.319 284.358 404.89 283.818C404.461 283.271 404.247 282.63 404.248 281.896C404.248 281.177 404.464 280.544 404.894 279.998C405.324 279.443 405.93 279.018 406.712 278.722C407.493 278.418 408.392 278.267 409.408 278.268ZM409.406 279.674C408.734 279.666 408.141 279.755 407.625 279.942C407.109 280.129 406.706 280.394 406.417 280.738C406.135 281.073 405.998 281.46 406.005 281.897C405.997 282.343 406.134 282.737 406.414 283.081C406.695 283.418 407.094 283.68 407.609 283.868C408.132 284.056 408.73 284.15 409.402 284.151C410.05 284.151 410.632 284.058 411.148 283.871C411.664 283.684 412.066 283.423 412.356 283.087C412.645 282.744 412.794 282.35 412.802 281.904C412.795 281.467 412.643 281.08 412.347 280.744C412.058 280.4 411.656 280.134 411.14 279.946C410.633 279.758 410.055 279.667 409.406 279.674Z" fill="#474747"/>
<path d="M190.366 74.6995L190.364 76.4085C190.328 78.4592 190.324 81.5012 189.568 85.4653L186.356 85.1544C187.026 81.7713 187.131 79.2934 187.167 77.3623L174.914 77.3497L174.916 74.6837L190.366 74.6995ZM173.057 88.0802C174.937 88.0821 177.073 88.0672 179.312 88.0183L179.319 81.5583L182.531 81.5616L182.525 87.919C185.806 87.7857 189.19 87.5499 192.267 87.1087L192.47 89.4673C186.077 90.5887 178.762 90.7008 173.362 90.7123L173.057 88.0802ZM177.691 102.338L177.7 93.2803L180.947 93.2836L180.941 99.7094L198.509 99.7274L198.506 102.359L177.691 102.338ZM194.207 95.3822L194.23 72.3793L197.546 72.3827L197.536 82.1239L201.74 82.1282L201.737 84.8626L197.533 84.8583L197.522 95.3856L194.207 95.3822ZM228.957 72.4491L228.939 89.7782L225.692 89.7749L225.71 72.4458L228.957 72.4491ZM203.684 86.5052C208.47 84.9037 211.363 80.8393 211.384 76.5668L211.387 73.5932L214.703 73.5966L214.7 76.5702C214.678 80.7059 217.631 84.4346 222.278 86.0116L220.669 88.5051C217.115 87.3222 214.435 84.9098 213.054 81.7638C211.683 85.1291 208.963 87.7924 205.287 89.0703L203.684 86.5052ZM208.794 102.643L208.806 91.3982L228.937 91.4188L228.926 102.664L208.794 102.643ZM212.01 100.015L225.75 100.029L225.756 94.0132L212.016 93.9991L212.01 100.015ZM244.432 80.2238C244.393 85.6413 247.548 91.1987 252.109 93.4251L250.09 96.0206C246.759 94.2741 244.182 90.8534 242.836 86.7676C241.465 91.107 238.778 94.7786 235.289 96.5865L233.276 93.9526C237.978 91.7016 241.162 85.8259 241.185 80.2205L241.191 74.991L244.438 74.9943L244.432 80.2238ZM254.389 103.066L254.421 72.4411L257.668 72.4444L257.655 84.6466L262.577 84.6516L262.574 87.4202L257.652 87.4151L257.636 103.069L254.389 103.066ZM298.068 72.4859L298.037 103.111L294.755 103.108L294.787 72.4826L298.068 72.4859ZM272.889 94.882C281.028 91.0109 285.015 85.495 285.655 78.3521L274.376 78.3405L274.378 75.7429L288.939 75.7578C288.93 84.73 285.111 92.4848 274.595 97.5155L272.889 94.882ZM326.916 72.5498L326.907 81.5732L331.35 81.5777L331.347 84.3121L326.904 84.3076L326.893 95.04L323.646 95.0366L323.669 72.5464L326.916 72.5498ZM304.032 89.9579L304.047 74.7138L307.226 74.717L307.221 79.6047L315.253 79.613L315.258 74.7253L318.471 74.7286L318.455 89.9727L304.032 89.9579ZM307.213 87.3635L315.245 87.3718L315.251 82.1764L307.218 82.1682L307.213 87.3635ZM307.471 102.471L307.481 92.7984L310.728 92.8017L310.721 99.8427L328.187 99.8606L328.184 102.492L307.471 102.471ZM136.992 143.04L132.993 143.036L141.905 118.299L146.246 118.304L155.142 143.059L151.143 143.055L148.893 136.524L139.255 136.514L136.992 143.04ZM140.335 133.371L147.803 133.378L144.157 122.813L143.986 122.813L140.335 133.371ZM162.071 118.32L162.046 143.066L158.286 143.062L158.312 118.316L162.071 118.32ZM200.526 115.386L200.495 146.011L197.385 146.008L197.401 130.182L193.436 130.178L193.421 144.431L190.448 144.428L190.477 115.991L193.451 115.994L193.439 127.512L197.404 127.516L197.416 115.383L200.526 115.386ZM175.244 138.636L175.264 119.051L186.748 119.063L186.746 121.695L178.508 121.686L178.494 135.871C182.253 135.858 185.091 135.69 188.372 135.061L188.609 137.727C184.934 138.492 181.755 138.609 177.295 138.638L175.244 138.636ZM228.485 115.414L228.472 128.232L233.087 128.237L233.084 130.971L228.469 130.966L228.454 146.039L225.207 146.036L225.238 115.411L228.485 115.414ZM204.092 137.675C206.502 137.677 209.305 137.68 212.227 137.597L212.231 134.487C208.779 133.971 206.525 131.884 206.562 128.927C206.532 125.475 209.525 123.205 213.883 123.192C218.224 123.214 221.246 125.49 221.26 128.942C221.24 131.899 218.947 133.998 215.478 134.49L215.475 137.481C218.192 137.347 220.927 137.128 223.473 136.772L223.676 139.164C217.044 140.337 209.883 140.398 204.602 140.375L204.092 137.675ZM204.69 121.611L204.693 119.013L212.246 119.021L212.25 115.466L215.497 115.469L215.493 119.024L223.047 119.032L223.045 121.63L204.69 121.611ZM209.604 128.93C209.602 130.878 211.31 132.094 213.874 132.079C216.437 132.099 218.13 130.887 218.149 128.939C218.134 126.974 216.444 125.724 213.88 125.722C211.317 125.719 209.606 126.965 209.604 128.93ZM268.817 115.49L268.794 138.049L265.547 138.045L265.555 130.081L257.95 130.074C256.513 131.798 254.29 132.838 251.744 132.836C247.13 132.831 243.698 129.598 243.72 125.103C243.707 120.574 247.146 117.348 251.76 117.318C254.289 117.338 256.493 118.383 257.926 120.093L265.566 120.101L265.57 115.487L268.817 115.49ZM246.83 125.106C246.81 127.994 248.876 129.979 251.747 129.965C254.498 129.985 256.602 128.004 256.605 125.116C256.608 122.228 254.508 120.243 251.757 120.224C248.886 120.238 246.816 122.218 246.83 125.106ZM248.894 145.411L248.904 135.67L252.151 135.673L252.144 142.783L269.61 142.8L269.607 145.432L248.894 145.411ZM259.359 122.726C259.598 123.479 259.717 124.265 259.716 125.119C259.715 125.94 259.594 126.726 259.372 127.443L265.558 127.45L265.563 122.733L259.359 122.726ZM280.18 133.822L280.177 137.069L294.567 137.084L294.57 133.837L297.817 133.84L297.805 145.735L276.955 145.713L276.968 133.819L280.18 133.822ZM273.517 131.901L273.52 129.201L301.445 129.23L301.442 131.93L273.517 131.901ZM275.029 124.759C280.96 123.996 285.816 120.737 285.837 117.114L285.839 115.815L289.154 115.819L289.153 117.117C289.166 120.638 294.05 124.061 299.911 124.785L298.747 127.347C293.791 126.658 289.47 124.295 287.508 121.029C285.522 124.309 281.179 126.645 276.256 127.324L275.029 124.759ZM280.171 143.119L294.561 143.134L294.564 139.613L280.175 139.598L280.171 143.119ZM337.792 115.527L337.761 146.152L334.479 146.148L334.511 115.523L337.792 115.527ZM312.613 137.923C320.752 134.052 324.739 128.536 325.379 121.393L314.099 121.381L314.102 118.784L328.663 118.799C328.653 127.771 324.834 135.526 314.319 140.556L312.613 137.923ZM367.315 123.829L367.312 126.46L346.292 126.439L346.302 116.082L349.515 116.086L349.507 123.81L367.315 123.829ZM342.56 132.348L342.563 129.682L370.522 129.711L370.519 132.377L342.56 132.348ZM345.867 140.418C345.871 136.846 349.855 134.834 356.503 134.858C363.099 134.847 367.045 136.868 367.058 140.44C367.038 144.029 363.088 146.041 356.491 146.034C349.843 146.027 345.863 144.007 345.867 140.418ZM349.148 140.421C349.129 142.387 351.811 143.517 356.494 143.539C361.108 143.527 363.809 142.402 363.811 140.436C363.813 138.454 361.114 137.409 356.5 137.387C351.817 137.399 349.133 138.439 349.148 140.421Z" fill="#FF4870"/>
<rect x="2" y="2" width="500" height="408" rx="50" stroke="url(#paint0_linear_601_5145)" stroke-width="3"/>
<defs>
<linearGradient id="paint0_linear_601_5145" x1="30.6426" y1="16.1523" x2="521.831" y2="352.792" gradientUnits="userSpaceOnUse">
<stop stop-color="#FF577C"/>
<stop offset="1" stop-color="#66B8FB"/>
</linearGradient>
</defs>
</svg>
