<svg width="640" height="124" viewBox="0 0 640 124" fill="none" xmlns="http://www.w3.org/2000/svg">
<path d="M0.123047 122.18V1.98438H21.7051V57.2676H23.3652L70.3477 1.98438H96.7441L50.2598 55.9395L97.2422 122.18H71.1777L35.1523 70.5488L21.7051 86.3203V122.18H0.123047ZM214.695 62.082C214.695 100.93 191.121 123.84 159.578 123.84C128.035 123.84 104.461 100.764 104.461 62.082C104.461 23.2344 128.035 0.324219 159.578 0.324219C191.121 0.324219 214.695 23.2344 214.695 62.082ZM192.947 62.082C192.947 34.6895 179.168 19.748 159.578 19.748C139.988 19.748 126.209 34.6895 126.209 62.082C126.209 89.4746 139.988 104.416 159.578 104.416C179.168 104.416 192.947 89.4746 192.947 62.082ZM336.132 1.98438V122.18H316.874L259.931 40.002H258.935V122.18H237.353V1.98438H256.943L313.554 84.1621H314.716V1.98438H336.132ZM469.024 62.082C469.024 100.93 445.45 123.84 413.907 123.84C382.364 123.84 358.79 100.764 358.79 62.082C358.79 23.2344 382.364 0.324219 413.907 0.324219C445.45 0.324219 469.024 23.2344 469.024 62.082ZM447.276 62.082C447.276 34.6895 433.497 19.748 413.907 19.748C394.317 19.748 380.538 34.6895 380.538 62.082C380.538 89.4746 394.317 104.416 413.907 104.416C433.497 104.416 447.276 89.4746 447.276 62.082ZM514.094 122.18L480.227 1.98438H503.469L525.217 90.4707H526.379L549.455 1.98438H570.705L593.948 90.6367H594.944L616.692 1.98438H639.934L606.067 122.18H584.651L560.579 37.6777H559.748L535.51 122.18H514.094Z" fill="url(#paint0_linear_469_5743)"/>
<defs>
<linearGradient id="paint0_linear_469_5743" x1="-11" y1="23.6172" x2="642.881" y2="121.681" gradientUnits="userSpaceOnUse">
<stop stop-color="#FF577C"/>
<stop offset="1" stop-color="#66B8FB"/>
</linearGradient>
</defs>
</svg>
