<svg width="324" height="110" viewBox="0 0 324 110" fill="none" xmlns="http://www.w3.org/2000/svg">
<rect width="324" height="110" rx="55" fill="#FF577C"/>
<path d="M125.652 57.9277H88.4766V33.1035H125.107V37.0391H93.1992V53.9922H125.652V57.9277ZM131.465 74.5781H82.1797V70.582H131.465V74.5781ZM178.66 49.5117H187.681V53.5078H178.66V82.0254H173.937V28.0781H178.66V49.5117ZM163.584 52.3574L143.967 52.3574V64.9512C149.315 64.9512 153.866 64.82 157.62 64.5576C161.394 64.2952 165.219 63.8008 169.094 63.0742L169.578 67.0098C165.562 67.7565 161.606 68.2712 157.711 68.5537C153.816 68.8161 149.093 68.9674 143.543 69.0078H139.244V48.4219H158.861V37.0391H139.123V33.1035L163.584 33.1035V52.3574ZM218.892 68.2207H194.068V33.5273H218.892V68.2207ZM198.669 64.3457H214.169V37.3418H198.669V64.3457ZM233.484 49.5723L242.505 49.5723V53.6895H233.484V81.9043H228.761V28.0781H233.484V49.5723Z" fill="white"/>
</svg>
