<svg width="269" height="110" viewBox="0 0 269 110" fill="none" xmlns="http://www.w3.org/2000/svg">
<path d="M55 1.57021H214C243.508 1.57021 267.43 25.4915 267.43 55C267.43 84.5085 243.508 108.43 214 108.43H55C25.4915 108.43 1.57021 84.5085 1.57021 55C1.57021 25.4915 25.4915 1.57021 55 1.57021Z" stroke="url(#paint0_linear_469_5759)" stroke-width="3.14041"/>
<path d="M128.316 81.9043H123.715V53.8105H116.389V79.1191H111.848V29.2891H116.389V49.8145H123.715V28.0781H128.316V81.9043ZM107.852 38.8555H103.189V63.8311C105.43 63.6696 107.347 63.4779 108.941 63.2559L109.184 66.7676C102.624 67.9785 93.623 68.584 82.1797 68.584L81.5742 64.5273L87.4473 64.4971V38.8555H82.7246V34.9199H107.852V38.8555ZM91.8672 64.4062C94.2083 64.3457 96.5091 64.2549 98.7695 64.1338V38.8555H91.8672V64.4062ZM155.41 38.0684C155.41 40.6517 155.965 43.1644 157.075 45.6064C158.185 48.0485 159.739 50.2181 161.737 52.1152C163.735 53.9922 166.026 55.4453 168.609 56.4746L165.945 60.168C162.998 58.9368 160.405 57.1507 158.165 54.8096C155.945 52.4684 154.27 49.764 153.139 46.6963C151.989 50.0062 150.243 52.9225 147.902 55.4453C145.581 57.9479 142.857 59.8451 139.728 61.1367L137.125 57.3223C139.769 56.293 142.12 54.7995 144.178 52.8418C146.237 50.8841 147.842 48.6237 148.992 46.0605C150.142 43.4974 150.728 40.8333 150.748 38.0684V31.166H155.41V38.0684ZM181.627 68.3418H176.844V51.0859H165.763V47.2109H176.844V40.0664H165.763V36.1309H176.844V28.1387H181.627V68.3418ZM182.838 80.7539H146.812V64.1641H151.595V76.7578H182.838V80.7539Z" fill="#FF577C"/>
<defs>
<linearGradient id="paint0_linear_469_5759" x1="8.13552" y1="12.3157" x2="244.549" y2="68.5411" gradientUnits="userSpaceOnUse">
<stop stop-color="#FF577C"/>
<stop offset="1" stop-color="#66B8FB"/>
</linearGradient>
</defs>
</svg>
