<svg width="269" height="111" viewBox="0 0 269 111" fill="none" xmlns="http://www.w3.org/2000/svg">
<path d="M55 2.07021H214C243.508 2.07021 267.43 25.9915 267.43 55.5C267.43 85.0085 243.508 108.93 214 108.93H55C25.4915 108.93 1.57021 85.0085 1.57021 55.5C1.57021 25.9915 25.4915 2.07021 55 2.07021Z" stroke="url(#paint0_linear_469_5764)" stroke-width="3.14041"/>
<path d="M106.701 29.7891C110.596 29.7891 113.967 30.1927 116.812 31C119.678 31.8073 121.878 32.9779 123.412 34.5117C124.946 36.0456 125.713 37.8822 125.713 40.0215C125.713 42.1204 124.946 43.9268 123.412 45.4404C121.878 46.9339 119.678 48.0843 116.812 48.8916C113.967 49.6787 110.596 50.0723 106.701 50.0723C102.806 50.0723 99.4255 49.6787 96.5596 48.8916C93.6937 48.0843 91.4837 46.9339 89.9297 45.4404C88.3958 43.9268 87.6289 42.1204 87.6289 40.0215C87.6289 37.8822 88.3958 36.0456 89.9297 34.5117C91.4837 32.9779 93.6937 31.8073 96.5596 31C99.4255 30.1927 102.806 29.7891 106.701 29.7891ZM106.701 33.6035C103.815 33.6035 101.302 33.8659 99.1631 34.3906C97.0238 34.8952 95.3789 35.6318 94.2285 36.6006C93.0781 37.5693 92.513 38.7096 92.5332 40.0215C92.513 41.3132 93.068 42.4333 94.1982 43.3818C95.3486 44.3102 96.9935 45.0267 99.1328 45.5312C101.272 46.0358 103.795 46.2982 106.701 46.3184C109.567 46.2982 112.06 46.0358 114.179 45.5312C116.318 45.0267 117.963 44.3102 119.113 43.3818C120.284 42.4333 120.869 41.3132 120.869 40.0215C120.869 38.7096 120.284 37.5693 119.113 36.6006C117.963 35.6318 116.318 34.8952 114.179 34.3906C112.039 33.8659 109.547 33.6035 106.701 33.6035ZM125.229 81.6777H88.1738V63.998H125.229V81.6777ZM92.8965 77.8027H120.566V67.8125H92.8965V77.8027ZM131.223 58.6699H82.1797V54.7344H131.223V58.6699ZM152.14 31.8477C154.825 31.8275 157.236 32.3522 159.376 33.4219C161.535 34.4915 163.22 35.9951 164.431 37.9326C165.663 39.8701 166.288 42.0599 166.308 44.502C166.288 46.9844 165.663 49.1943 164.431 51.1318C163.22 53.0693 161.545 54.583 159.406 55.6729C157.267 56.7425 154.845 57.2773 152.14 57.2773C149.436 57.2773 147.004 56.7425 144.844 55.6729C142.705 54.583 141.03 53.0693 139.819 51.1318C138.608 49.1943 138.013 46.9844 138.033 44.502C138.013 42.0599 138.608 39.8802 139.819 37.9629C141.03 36.0254 142.705 34.5218 144.844 33.4521C147.004 32.3623 149.436 31.8275 152.14 31.8477ZM152.14 35.9043C150.344 35.9043 148.719 36.2676 147.266 36.9941C145.833 37.7207 144.703 38.7399 143.876 40.0518C143.068 41.3434 142.675 42.8268 142.695 44.502C142.675 46.1973 143.068 47.7109 143.876 49.043C144.703 50.3548 145.833 51.374 147.266 52.1006C148.719 52.8271 150.344 53.1803 152.14 53.1602C153.957 53.1803 155.581 52.8271 157.014 52.1006C158.468 51.374 159.598 50.3548 160.405 49.043C161.233 47.7109 161.646 46.1973 161.646 44.502C161.646 42.8268 161.233 41.3434 160.405 40.0518C159.598 38.7399 158.468 37.7207 157.014 36.9941C155.581 36.2676 153.957 35.9043 152.14 35.9043ZM179.084 42.5039H187.197V46.5H179.084V60.3047H174.361V28.5781H179.084V42.5039ZM179.084 82.5254H174.361V66.9648H143.845V63.0898H179.084V82.5254Z" fill="#FF577C"/>
<defs>
<linearGradient id="paint0_linear_469_5764" x1="8.13552" y1="12.8157" x2="244.549" y2="69.0411" gradientUnits="userSpaceOnUse">
<stop stop-color="#FF577C"/>
<stop offset="1" stop-color="#66B8FB"/>
</linearGradient>
</defs>
</svg>
