<svg width="269" height="111" viewBox="0 0 269 111" fill="none" xmlns="http://www.w3.org/2000/svg">
<rect y="0.5" width="269" height="110" rx="55" fill="#FF577C"/>
<path d="M97.0137 31.8477C99.2539 31.8275 101.312 32.221 103.189 33.0283C105.087 33.8154 106.661 34.9355 107.912 36.3887H122.02V28.5781H126.803V60.4863H122.02V52.7969H107.942C106.671 54.25 105.087 55.3802 103.189 56.1875C101.312 56.9746 99.2539 57.3581 97.0137 57.3379C94.3496 57.3581 91.958 56.8333 89.8389 55.7637C87.7197 54.6738 86.0547 53.1602 84.8438 51.2227C83.6328 49.2852 83.0273 47.0853 83.0273 44.623C83.0273 42.1406 83.6328 39.9307 84.8438 37.9932C86.0547 36.0355 87.7197 34.5218 89.8389 33.4521C91.958 32.3623 94.3496 31.8275 97.0137 31.8477ZM97.0137 35.9648C95.1973 35.9447 93.5726 36.3079 92.1396 37.0547C90.7067 37.7812 89.5866 38.8105 88.7793 40.1426C87.972 41.4544 87.5684 42.9479 87.5684 44.623C87.5684 46.278 87.972 47.7614 88.7793 49.0732C89.5866 50.3851 90.7067 51.4144 92.1396 52.1611C93.5726 52.9079 95.1973 53.2812 97.0137 53.2812C98.7695 53.2812 100.354 52.9079 101.767 52.1611C103.2 51.4144 104.32 50.3851 105.127 49.0732C105.934 47.7614 106.338 46.278 106.338 44.623C106.338 42.9479 105.934 41.4544 105.127 40.1426C104.32 38.8105 103.2 37.7812 101.767 37.0547C100.354 36.3079 98.7695 35.9447 97.0137 35.9648ZM108.941 61.7578C112.655 61.7578 115.864 62.1615 118.568 62.9688C121.273 63.776 123.352 64.9466 124.805 66.4805C126.258 68.0143 126.984 69.8509 126.984 71.9902C126.984 74.1497 126.258 75.9964 124.805 77.5303C123.352 79.0843 121.273 80.265 118.568 81.0723C115.864 81.8796 112.655 82.2832 108.941 82.2832C105.208 82.2832 101.989 81.8796 99.2842 81.0723C96.5798 80.265 94.501 79.0843 93.0479 77.5303C91.6149 75.9964 90.8984 74.1497 90.8984 71.9902C90.8984 69.8509 91.6149 68.0143 93.0479 66.4805C94.501 64.9466 96.5798 63.776 99.2842 62.9688C102.009 62.1615 105.228 61.7578 108.941 61.7578ZM108.941 65.4512C106.217 65.4512 103.845 65.7135 101.827 66.2383C99.8089 66.763 98.2549 67.5199 97.165 68.5088C96.0954 69.4977 95.5605 70.6582 95.5605 71.9902C95.5605 73.3223 96.0954 74.4827 97.165 75.4717C98.2549 76.4404 99.8089 77.1771 101.827 77.6816C103.845 78.2064 106.217 78.4688 108.941 78.4688C111.686 78.4688 114.058 78.2064 116.056 77.6816C118.074 77.1771 119.618 76.4404 120.688 75.4717C121.777 74.4827 122.322 73.3223 122.322 71.9902C122.322 70.638 121.777 69.4775 120.688 68.5088C119.618 67.5199 118.074 66.763 116.056 66.2383C114.058 65.7135 111.686 65.4512 108.941 65.4512ZM110.183 40.2637C110.687 41.6562 110.939 43.1094 110.939 44.623C110.939 46.056 110.697 47.4688 110.213 48.8613H122.02V40.2637H110.183ZM178.781 51.5254H187.379V55.5215H178.781V82.4043H173.998V28.5781H178.781V51.5254ZM136.338 68.0547C142.675 68.0547 147.62 67.9941 151.172 67.873V61.9092C149.093 61.667 147.266 61.1221 145.692 60.2744C144.138 59.4066 142.937 58.2865 142.09 56.9141C141.262 55.5215 140.858 53.9473 140.879 52.1914C140.858 50.1934 141.373 48.4476 142.423 46.9541C143.492 45.4404 144.986 44.2699 146.903 43.4424C148.841 42.6149 151.071 42.2012 153.594 42.2012C156.076 42.2012 158.276 42.6149 160.193 43.4424C162.131 44.2699 163.634 45.4404 164.704 46.9541C165.794 48.4476 166.349 50.1934 166.369 52.1914C166.349 53.9473 165.905 55.5215 165.037 56.9141C164.169 58.2865 162.948 59.4066 161.374 60.2744C159.82 61.1423 158.013 61.6973 155.955 61.9395V67.6914C161.687 67.4089 166.611 66.9648 170.728 66.3594L171.031 69.9922C165.824 70.8802 160.476 71.4554 154.986 71.7178C149.497 71.9801 143.543 72.1113 137.125 72.1113L136.338 68.0547ZM169.76 39.0527H137.306V35.1777H151.172V28.6992H155.955V35.1777H169.76V39.0527ZM153.594 45.8945C151.959 45.8945 150.516 46.1569 149.264 46.6816C148.013 47.2064 147.034 47.9531 146.328 48.9219C145.642 49.8704 145.299 50.9603 145.299 52.1914C145.299 53.4225 145.642 54.5124 146.328 55.4609C147.014 56.3893 147.983 57.1058 149.234 57.6104C150.506 58.0947 151.959 58.3268 153.594 58.3066C155.208 58.3268 156.641 58.0947 157.892 57.6104C159.144 57.1058 160.112 56.3893 160.799 55.4609C161.485 54.5124 161.828 53.4225 161.828 52.1914C161.828 50.9603 161.485 49.8704 160.799 48.9219C160.112 47.9531 159.144 47.2064 157.892 46.6816C156.641 46.1569 155.208 45.8945 153.594 45.8945Z" fill="white"/>
</svg>
