<svg width="269" height="110" viewBox="0 0 269 110" fill="none" xmlns="http://www.w3.org/2000/svg">
<rect x="1.57021" y="1.57021" width="265.86" height="106.86" rx="53.4298" stroke="url(#paint0_linear_469_5762)" stroke-width="3.14041"/>
<path d="M106.701 29.2891C110.596 29.2891 113.967 29.6927 116.812 30.5C119.678 31.3073 121.878 32.4779 123.412 34.0117C124.946 35.5456 125.713 37.3822 125.713 39.5215C125.713 41.6204 124.946 43.4268 123.412 44.9404C121.878 46.4339 119.678 47.5843 116.812 48.3916C113.967 49.1787 110.596 49.5723 106.701 49.5723C102.806 49.5723 99.4255 49.1787 96.5596 48.3916C93.6937 47.5843 91.4837 46.4339 89.9297 44.9404C88.3958 43.4268 87.6289 41.6204 87.6289 39.5215C87.6289 37.3822 88.3958 35.5456 89.9297 34.0117C91.4837 32.4779 93.6937 31.3073 96.5596 30.5C99.4255 29.6927 102.806 29.2891 106.701 29.2891ZM106.701 33.1035C103.815 33.1035 101.302 33.3659 99.1631 33.8906C97.0238 34.3952 95.3789 35.1318 94.2285 36.1006C93.0781 37.0693 92.513 38.2096 92.5332 39.5215C92.513 40.8131 93.068 41.9333 94.1982 42.8818C95.3486 43.8102 96.9935 44.5267 99.1328 45.0312C101.272 45.5358 103.795 45.7982 106.701 45.8184C109.567 45.7982 112.06 45.5358 114.179 45.0312C116.318 44.5267 117.963 43.8102 119.113 42.8818C120.284 41.9333 120.869 40.8131 120.869 39.5215C120.869 38.2096 120.284 37.0693 119.113 36.1006C117.963 35.1318 116.318 34.3952 114.179 33.8906C112.039 33.3659 109.547 33.1035 106.701 33.1035ZM125.229 81.1777H88.1738V63.498H125.229V81.1777ZM92.8965 77.3027H120.566V67.3125H92.8965V77.3027ZM131.223 58.1699H82.1797V54.2344H131.223V58.1699ZM156.076 35.8887C156.056 38.472 156.621 40.9342 157.771 43.2754C158.922 45.6165 160.526 47.6751 162.585 49.4512C164.663 51.2272 167.035 52.5794 169.699 53.5078L167.277 57.2617C164.149 56.1315 161.404 54.4463 159.043 52.2061C156.681 49.9658 154.895 47.3522 153.684 44.3652C152.514 47.554 150.728 50.3594 148.326 52.7812C145.944 55.1829 143.179 56.9993 140.031 58.2305L137.549 54.4766C140.213 53.4876 142.574 52.0547 144.633 50.1777C146.711 48.2806 148.326 46.0908 149.476 43.6084C150.647 41.126 151.232 38.5527 151.232 35.8887V30.7422H156.076V35.8887ZM181.445 81.9043H176.722V67.1309H145.238V63.1953H181.445V81.9043ZM181.445 60.5312H176.722V28.0781H181.445V60.5312Z" fill="#FF577C"/>
<defs>
<linearGradient id="paint0_linear_469_5762" x1="8.13552" y1="12.3157" x2="244.549" y2="68.5411" gradientUnits="userSpaceOnUse">
<stop stop-color="#FF577C"/>
<stop offset="1" stop-color="#66B8FB"/>
</linearGradient>
</defs>
</svg>
