<svg width="1921" height="21547" viewBox="0 0 1921 21547" fill="none" xmlns="http://www.w3.org/2000/svg">
<rect x="1" width="1920" height="21547" fill="url(#paint0_linear_1008_5525)"/>
<rect x="0.5" y="3909" width="1920" height="2776" fill="url(#paint1_linear_1008_5525)"/>
<path d="M310.049 12439.9C310.348 12439 311.652 12439 311.951 12439.9L324.583 12478.8C324.717 12479.2 325.101 12479.5 325.534 12479.5H366.412C367.381 12479.5 367.784 12480.7 367 12481.3L333.929 12505.3C333.578 12505.6 333.432 12506 333.566 12506.5L346.198 12545.3C346.497 12546.2 345.443 12547 344.659 12546.4L311.588 12522.4C311.237 12522.2 310.763 12522.2 310.412 12522.4L277.341 12546.4C276.557 12547 275.503 12546.2 275.802 12545.3L288.434 12506.5C288.568 12506 288.422 12505.6 288.071 12505.3L255 12481.3C254.216 12480.7 254.619 12479.5 255.588 12479.5H296.466C296.899 12479.5 297.283 12479.2 297.417 12478.8L310.049 12439.9Z" fill="#FFEFC3" fill-opacity="0.8"/>
<path d="M1496.55 16254.9C1496.85 16254 1498.15 16254 1498.45 16254.9L1507.6 16283.1C1507.74 16283.5 1508.12 16283.8 1508.55 16283.8H1538.17C1539.14 16283.8 1539.54 16285 1538.76 16285.6L1514.8 16303C1514.45 16303.3 1514.3 16303.7 1514.43 16304.1L1523.59 16332.3C1523.89 16333.2 1522.83 16334 1522.05 16333.4L1498.09 16316C1497.74 16315.7 1497.26 16315.7 1496.91 16316L1472.95 16333.4C1472.17 16334 1471.11 16333.2 1471.41 16332.3L1480.57 16304.1C1480.7 16303.7 1480.55 16303.3 1480.2 16303L1456.24 16285.6C1455.46 16285 1455.86 16283.8 1456.83 16283.8H1486.45C1486.88 16283.8 1487.26 16283.5 1487.4 16283.1L1496.55 16254.9Z" fill="#FF7B9F" fill-opacity="0.15"/>
<circle cx="22" cy="22" r="22" transform="matrix(-1 0 0 1 1664.5 16024)" fill="#FF7B9F" fill-opacity="0.2"/>
<circle cx="182.5" cy="12333" r="14" fill="#FFCDDB" fill-opacity="0.5"/>
<circle cx="1738.5" cy="11587" r="14" fill="#FFCDDB" fill-opacity="0.5"/>
<path d="M1788.85 11359L1795.25 11402.9L1839.19 11409.3L1795.25 11415.8L1788.85 11459.7L1782.44 11415.8L1738.5 11409.3L1782.44 11402.9L1788.85 11359Z" fill="#FFAAC2" fill-opacity="0.3"/>
<path d="M1613 14279L1602.88 14348.4L1533.5 14358.5L1602.88 14368.6L1613 14438L1623.12 14368.6L1692.5 14358.5L1623.12 14348.4L1613 14279Z" fill="#FFC1D2" fill-opacity="0.5"/>
<path d="M267 18348L256.881 18417.4L187.5 18427.5L256.881 18437.6L267 18507L277.119 18437.6L346.5 18427.5L277.119 18417.4L267 18348Z" fill="#FFC1D2" fill-opacity="0.5"/>
<path d="M355.5 18550L351.809 18575.3L326.5 18579L351.809 18582.7L355.5 18608L359.191 18582.7L384.5 18579L359.191 18575.3L355.5 18550Z" fill="#FFC1D2" fill-opacity="0.5"/>
<path d="M1603.52 6683.91C1603.85 6681.62 1607.15 6681.62 1607.48 6683.91L1628.33 6830.41C1628.45 6831.29 1629.14 6831.98 1630.01 6832.11L1773.27 6853.52C1775.54 6853.86 1775.54 6857.14 1773.27 6857.48L1630.01 6878.89C1629.14 6879.02 1628.45 6879.71 1628.33 6880.59L1607.48 7027.09C1607.15 7029.38 1603.85 7029.38 1603.52 7027.09L1582.67 6880.59C1582.55 6879.71 1581.86 6879.02 1580.99 6878.89L1437.73 6857.48C1435.46 6857.14 1435.46 6853.86 1437.73 6853.52L1580.99 6832.11C1581.86 6831.98 1582.55 6831.29 1582.67 6830.41L1603.52 6683.91Z" fill="#FFE6ED"/>
<path d="M968.442 9623.11C965.054 9629.46 955.946 9629.46 952.558 9623.11L821.198 9376.73C818.002 9370.74 822.346 9363.5 829.14 9363.5L1091.86 9363.5C1098.65 9363.5 1103 9370.74 1099.8 9376.73L968.442 9623.11Z" fill="#73ADFF"/>
<path d="M0.5 7052H623C1026.04 7052 1227.56 7052 1386.52 7117.84C1598.47 7205.64 1766.86 7374.03 1854.66 7585.98C1920.5 7744.94 1920.5 7946.46 1920.5 8349.5V9525H0.5V7052Z" fill="url(#paint2_linear_1008_5525)"/>
<path fill-rule="evenodd" clip-rule="evenodd" d="M1719.87 1853.38L1697.5 1853.38L1697.5 1850.38L1719.87 1850.38L1719.87 1828L1722.87 1828L1722.87 1850.38L1745.25 1850.38L1745.25 1853.38L1722.87 1853.38L1722.87 1875.75L1719.87 1875.75L1719.87 1853.38Z" fill="#FFB2C3" fill-opacity="0.3"/>
<ellipse cx="1558.5" cy="1679" rx="14" ry="14" transform="rotate(90 1558.5 1679)" stroke="#FF7A97" stroke-opacity="0.3" stroke-width="3"/>
<path d="M148 8229L152.391 8259.11L182.5 8263.5L152.391 8267.89L148 8298L143.609 8267.89L113.5 8263.5L143.609 8259.11L148 8229Z" fill="white" fill-opacity="0.2"/>
<path d="M148 8229L152.391 8259.11L182.5 8263.5L152.391 8267.89L148 8298L143.609 8267.89L113.5 8263.5L143.609 8259.11L148 8229Z" fill="white" fill-opacity="0.2"/>
<circle cx="1773.5" cy="8573" r="10" fill="white" fill-opacity="0.2"/>
<path d="M1325.48 6603.02L1312.94 6516.99C1311.94 6510.15 1302.06 6510.15 1301.06 6516.99L1288.52 6603.02L1202.49 6615.56C1195.65 6616.56 1195.65 6626.44 1202.49 6627.44L1288.52 6639.98L1301.06 6726.01C1302.06 6732.85 1311.94 6732.85 1312.94 6726.01L1325.48 6639.98L1411.51 6627.44C1418.35 6626.44 1418.35 6616.56 1411.51 6615.56L1325.48 6603.02Z" stroke="#FFE6ED" stroke-width="8"/>
<defs>
<linearGradient id="paint0_linear_1008_5525" x1="961" y1="0" x2="961" y2="21547" gradientUnits="userSpaceOnUse">
<stop stop-color="white" stop-opacity="0.2"/>
<stop offset="0.05" stop-color="#EBE7E7"/>
<stop offset="0.48" stop-color="#EBE7E7"/>
</linearGradient>
<linearGradient id="paint1_linear_1008_5525" x1="960.5" y1="3909" x2="960.5" y2="6685" gradientUnits="userSpaceOnUse">
<stop stop-color="white" stop-opacity="0"/>
<stop offset="0.144" stop-color="white" stop-opacity="0.71"/>
<stop offset="0.344" stop-color="white"/>
<stop offset="0.684" stop-color="white"/>
<stop offset="0.924" stop-color="white" stop-opacity="0.71"/>
<stop offset="1" stop-color="white" stop-opacity="0"/>
</linearGradient>
<linearGradient id="paint2_linear_1008_5525" x1="960.5" y1="7052" x2="960.5" y2="9525" gradientUnits="userSpaceOnUse">
<stop stop-color="#FF698A"/>
<stop offset="0.275" stop-color="#D97CAA"/>
<stop offset="1" stop-color="#73ADFF"/>
</linearGradient>
</defs>
</svg>
