<svg width="1922" height="19719" viewBox="0 0 1922 19719" fill="none" xmlns="http://www.w3.org/2000/svg">
<rect width="1920" height="19719" fill="url(#paint0_linear_711_5366)" fill-opacity="0.8"/>
<rect x="2" y="4354" width="1920" height="2515" fill="url(#paint1_linear_711_5366)"/>
<path d="M309.549 12694.9C309.848 12694 311.152 12694 311.451 12694.9L324.083 12733.8C324.217 12734.2 324.601 12734.5 325.034 12734.5H365.912C366.881 12734.5 367.284 12735.7 366.5 12736.3L333.429 12760.3C333.078 12760.6 332.932 12761 333.066 12761.5L345.698 12800.3C345.997 12801.2 344.943 12802 344.159 12801.4L311.088 12777.4C310.737 12777.2 310.263 12777.2 309.912 12777.4L276.841 12801.4C276.057 12802 275.003 12801.2 275.302 12800.3L287.934 12761.5C288.068 12761 287.922 12760.6 287.571 12760.3L254.5 12736.3C253.716 12735.7 254.119 12734.5 255.088 12734.5H295.966C296.399 12734.5 296.783 12734.2 296.917 12733.8L309.549 12694.9Z" fill="#FFE59E" fill-opacity="0.6"/>
<path d="M1496.05 16509.9C1496.35 16509 1497.65 16509 1497.95 16509.9L1507.1 16538.1C1507.24 16538.5 1507.62 16538.8 1508.05 16538.8H1537.67C1538.64 16538.8 1539.04 16540 1538.26 16540.6L1514.3 16558C1513.95 16558.3 1513.8 16558.7 1513.93 16559.1L1523.09 16587.3C1523.39 16588.2 1522.33 16589 1521.55 16588.4L1497.59 16571C1497.24 16570.7 1496.76 16570.7 1496.41 16571L1472.45 16588.4C1471.67 16589 1470.61 16588.2 1470.91 16587.3L1480.07 16559.1C1480.2 16558.7 1480.05 16558.3 1479.7 16558L1455.74 16540.6C1454.96 16540 1455.36 16538.8 1456.33 16538.8H1485.95C1486.38 16538.8 1486.76 16538.5 1486.9 16538.1L1496.05 16509.9Z" fill="#FF7B9F" fill-opacity="0.15"/>
<circle cx="1658" cy="13011" r="13.5" stroke="#FF7B9F" stroke-opacity="0.6"/>
<circle cx="22" cy="22" r="21.5" transform="matrix(-1 0 0 1 1486 14840)" stroke="#FF7B9F" stroke-opacity="0.3"/>
<circle cx="15.5" cy="15.5" r="15" transform="matrix(-1 0 0 1 1360 16385)" stroke="#FF7B9F" stroke-opacity="0.3"/>
<circle cx="22" cy="22" r="22" transform="matrix(-1 0 0 1 1626 16218)" fill="#FF7B9F" fill-opacity="0.2"/>
<circle cx="182" cy="12588" r="14" fill="#FFCDDB" fill-opacity="0.5"/>
<circle cx="1738" cy="11842" r="14" fill="#FFCDDB" fill-opacity="0.5"/>
<path d="M1788.35 11614L1794.75 11657.9L1838.69 11664.3L1794.75 11670.8L1788.35 11714.7L1781.94 11670.8L1738 11664.3L1781.94 11657.9L1788.35 11614Z" fill="#FFAAC2" fill-opacity="0.3"/>
<path d="M1557.26 13166L1557.31 13166.4L1557.68 13166.4L1598.23 13172.3L1557.68 13178.3L1557.31 13178.3L1557.26 13178.7L1551.35 13219.2L1545.43 13178.7L1545.38 13178.3L1545.01 13178.3L1504.46 13172.3L1545.01 13166.4L1545.38 13166.4L1545.43 13166L1551.35 13125.5L1557.26 13166Z" stroke="#FF7B9F" stroke-opacity="0.5"/>
<path d="M1612.5 14534L1602.38 14603.4L1533 14613.5L1602.38 14623.6L1612.5 14693L1622.62 14623.6L1692 14613.5L1622.62 14603.4L1612.5 14534Z" fill="#FFC1D2" fill-opacity="0.5"/>
<path d="M266.5 18603L256.381 18672.4L187 18682.5L256.381 18692.6L266.5 18762L276.619 18692.6L346 18682.5L276.619 18672.4L266.5 18603Z" fill="#FFC1D2" fill-opacity="0.5"/>
<path d="M355 18805L351.309 18830.3L326 18834L351.309 18837.7L355 18863L358.691 18837.7L384 18834L358.691 18830.3L355 18805Z" fill="#FFC1D2" fill-opacity="0.5"/>
<path d="M140 17032L136.309 17057.3L111 17061L136.309 17064.7L140 17090L143.691 17064.7L169 17061L143.691 17057.3L140 17032Z" fill="#FFC1D2" fill-opacity="0.5"/>
<path d="M1647 18274L1643.31 18299.3L1618 18303L1643.31 18306.7L1647 18332L1650.69 18306.7L1676 18303L1650.69 18299.3L1647 18274Z" fill="#FFC1D2" fill-opacity="0.3"/>
<path d="M1609.02 6785.91C1609.35 6783.62 1612.65 6783.62 1612.98 6785.91L1633.83 6932.41C1633.95 6933.29 1634.64 6933.98 1635.51 6934.11L1778.77 6955.52C1781.04 6955.86 1781.04 6959.14 1778.77 6959.48L1635.51 6980.89C1634.64 6981.02 1633.95 6981.71 1633.83 6982.59L1612.98 7129.09C1612.65 7131.38 1609.35 7131.38 1609.02 7129.09L1588.17 6982.59C1588.05 6981.71 1587.36 6981.02 1586.49 6980.89L1443.23 6959.48C1440.96 6959.14 1440.96 6955.86 1443.23 6955.52L1586.49 6934.11C1587.36 6933.98 1588.05 6933.29 1588.17 6932.41L1609.02 6785.91Z" fill="#FFE6ED"/>
<path d="M1318.44 6626.99C1317.44 6620.15 1307.56 6620.15 1306.56 6626.99L1294.02 6713.02L1207.99 6725.56C1201.15 6726.56 1201.15 6736.44 1207.99 6737.44L1294.02 6749.98L1306.56 6836.01C1307.56 6842.85 1317.44 6842.85 1318.44 6836.01L1330.98 6749.98L1417.01 6737.44C1423.85 6736.44 1423.85 6726.56 1417.01 6725.56L1330.98 6713.02L1318.44 6626.99Z" stroke="#FFE6ED" stroke-width="8"/>
<path fill-rule="evenodd" clip-rule="evenodd" d="M1719.37 2038.38L1697 2038.38L1697 2035.38L1719.37 2035.38L1719.37 2013L1722.37 2013L1722.37 2035.38L1744.75 2035.38L1744.75 2038.38L1722.37 2038.38L1722.37 2060.75L1719.37 2060.75L1719.37 2038.38Z" fill="#FFB2C3" fill-opacity="0.3"/>
<ellipse cx="1558" cy="1864" rx="14" ry="14" transform="rotate(90 1558 1864)" stroke="#FF7A97" stroke-opacity="0.3" stroke-width="3"/>
<defs>
<linearGradient id="paint0_linear_711_5366" x1="960" y1="0" x2="960" y2="19719" gradientUnits="userSpaceOnUse">
<stop stop-color="white" stop-opacity="0.2"/>
<stop offset="0.0271627" stop-color="#F2F0F0"/>
<stop offset="0.48" stop-color="#F2F0F0"/>
</linearGradient>
<linearGradient id="paint1_linear_711_5366" x1="962" y1="4354" x2="962" y2="6869" gradientUnits="userSpaceOnUse">
<stop offset="0.78" stop-color="white"/>
<stop offset="1" stop-color="white" stop-opacity="0"/>
</linearGradient>
</defs>
</svg>
