<svg width="1921" height="20787" viewBox="0 0 1921 20787" fill="none" xmlns="http://www.w3.org/2000/svg">
<rect y="1025.45" width="1920" height="19761" fill="url(#paint0_linear_1008_5523)"/>
<rect x="0.5" y="2246" width="1920" height="2776" fill="url(#paint1_linear_1008_5523)"/>
<path d="M310.049 10776.9C310.348 10776 311.652 10776 311.951 10776.9L324.583 10815.8C324.717 10816.2 325.101 10816.5 325.534 10816.5H366.412C367.381 10816.5 367.784 10817.7 367 10818.3L333.929 10842.3C333.578 10842.6 333.432 10843 333.566 10843.5L346.198 10882.3C346.497 10883.2 345.443 10884 344.659 10883.4L311.588 10859.4C311.237 10859.2 310.763 10859.2 310.412 10859.4L277.341 10883.4C276.557 10884 275.503 10883.2 275.802 10882.3L288.434 10843.5C288.568 10843 288.422 10842.6 288.071 10842.3L255 10818.3C254.216 10817.7 254.619 10816.5 255.588 10816.5H296.466C296.899 10816.5 297.283 10816.2 297.417 10815.8L310.049 10776.9Z" fill="#FFEFC3" fill-opacity="0.8"/>
<path d="M1496.55 14591.9C1496.85 14591 1498.15 14591 1498.45 14591.9L1507.6 14620.1C1507.74 14620.5 1508.12 14620.8 1508.55 14620.8H1538.17C1539.14 14620.8 1539.54 14622 1538.76 14622.6L1514.8 14640C1514.45 14640.3 1514.3 14640.7 1514.43 14641.1L1523.59 14669.3C1523.89 14670.2 1522.83 14671 1522.05 14670.4L1498.09 14653C1497.74 14652.7 1497.26 14652.7 1496.91 14653L1472.95 14670.4C1472.17 14671 1471.11 14670.2 1471.41 14669.3L1480.57 14641.1C1480.7 14640.7 1480.55 14640.3 1480.2 14640L1456.24 14622.6C1455.46 14622 1455.86 14620.8 1456.83 14620.8H1486.45C1486.88 14620.8 1487.26 14620.5 1487.4 14620.1L1496.55 14591.9Z" fill="#FF7B9F" fill-opacity="0.15"/>
<circle cx="22" cy="22" r="22" transform="matrix(-1 0 0 1 1664.5 14361)" fill="#FF7B9F" fill-opacity="0.2"/>
<circle cx="182.5" cy="10670" r="14" fill="#FFCDDB" fill-opacity="0.5"/>
<circle cx="1738.5" cy="9924" r="14" fill="#FFCDDB" fill-opacity="0.5"/>
<path d="M1788.85 9696L1795.25 9739.94L1839.19 9746.35L1795.25 9752.75L1788.85 9796.69L1782.44 9752.75L1738.5 9746.35L1782.44 9739.94L1788.85 9696Z" fill="#FFAAC2" fill-opacity="0.3"/>
<path d="M1613 12616L1602.88 12685.4L1533.5 12695.5L1602.88 12705.6L1613 12775L1623.12 12705.6L1692.5 12695.5L1623.12 12685.4L1613 12616Z" fill="#FFC1D2" fill-opacity="0.5"/>
<path d="M267 16685L256.881 16754.4L187.5 16764.5L256.881 16774.6L267 16844L277.119 16774.6L346.5 16764.5L277.119 16754.4L267 16685Z" fill="#FFC1D2" fill-opacity="0.5"/>
<path d="M355.5 16887L351.809 16912.3L326.5 16916L351.809 16919.7L355.5 16945L359.191 16919.7L384.5 16916L359.191 16912.3L355.5 16887Z" fill="#FFC1D2" fill-opacity="0.5"/>
<path d="M1603.52 5020.91C1603.85 5018.62 1607.15 5018.62 1607.48 5020.91L1628.33 5167.41C1628.45 5168.29 1629.14 5168.98 1630.01 5169.11L1773.27 5190.52C1775.54 5190.86 1775.54 5194.14 1773.27 5194.48L1630.01 5215.89C1629.14 5216.02 1628.45 5216.71 1628.33 5217.59L1607.48 5364.09C1607.15 5366.38 1603.85 5366.38 1603.52 5364.09L1582.67 5217.59C1582.55 5216.71 1581.86 5216.02 1580.99 5215.89L1437.73 5194.48C1435.46 5194.14 1435.46 5190.86 1437.73 5190.52L1580.99 5169.11C1581.86 5168.98 1582.55 5168.29 1582.67 5167.41L1603.52 5020.91Z" fill="#FFE6ED"/>
<path d="M968.442 7960.11C965.054 7966.46 955.946 7966.46 952.558 7960.11L821.198 7713.73C818.002 7707.74 822.346 7700.5 829.14 7700.5L1091.86 7700.5C1098.65 7700.5 1103 7707.74 1099.8 7713.73L968.442 7960.11Z" fill="#73ADFF"/>
<path d="M0.5 5389H623C1026.04 5389 1227.56 5389 1386.52 5454.84C1598.47 5542.64 1766.86 5711.03 1854.66 5922.98C1920.5 6081.94 1920.5 6283.46 1920.5 6686.5V7862H0.5V5389Z" fill="url(#paint2_linear_1008_5523)"/>
<path fill-rule="evenodd" clip-rule="evenodd" d="M1719.87 190.378L1697.5 190.378L1697.5 187.378L1719.87 187.378L1719.87 164.999L1722.87 164.999L1722.87 187.378L1745.25 187.378L1745.25 190.378L1722.87 190.378L1722.87 212.746L1719.87 212.746L1719.87 190.378Z" fill="#FFB2C3" fill-opacity="0.3"/>
<ellipse cx="1558.5" cy="16" rx="14" ry="14" transform="rotate(90 1558.5 16)" stroke="#FF7A97" stroke-opacity="0.3" stroke-width="3"/>
<path d="M148 6566L152.391 6596.11L182.5 6600.5L152.391 6604.89L148 6635L143.609 6604.89L113.5 6600.5L143.609 6596.11L148 6566Z" fill="white" fill-opacity="0.2"/>
<path d="M148 6566L152.391 6596.11L182.5 6600.5L152.391 6604.89L148 6635L143.609 6604.89L113.5 6600.5L143.609 6596.11L148 6566Z" fill="white" fill-opacity="0.2"/>
<circle cx="1773.5" cy="6910" r="10" fill="white" fill-opacity="0.2"/>
<path d="M1325.48 4940.02L1312.94 4853.99C1311.94 4847.15 1302.06 4847.15 1301.06 4853.99L1288.52 4940.02L1202.49 4952.56C1195.65 4953.56 1195.65 4963.44 1202.49 4964.44L1288.52 4976.98L1301.06 5063.01C1302.06 5069.85 1311.94 5069.85 1312.94 5063.01L1325.48 4976.98L1411.51 4964.44C1418.35 4963.44 1418.35 4953.56 1411.51 4952.56L1325.48 4940.02Z" stroke="#FFE6ED" stroke-width="8"/>
<defs>
<linearGradient id="paint0_linear_1008_5523" x1="960" y1="1025.45" x2="960" y2="20786.4" gradientUnits="userSpaceOnUse">
<stop stop-color="white" stop-opacity="0.2"/>
<stop offset="0.05" stop-color="#EBE7E7"/>
<stop offset="0.48" stop-color="#EBE7E7"/>
</linearGradient>
<linearGradient id="paint1_linear_1008_5523" x1="960.5" y1="2246" x2="960.5" y2="5022" gradientUnits="userSpaceOnUse">
<stop stop-color="white" stop-opacity="0"/>
<stop offset="0.144" stop-color="white" stop-opacity="0.71"/>
<stop offset="0.344" stop-color="white"/>
<stop offset="0.684" stop-color="white"/>
<stop offset="0.924" stop-color="white" stop-opacity="0.71"/>
<stop offset="1" stop-color="white" stop-opacity="0"/>
</linearGradient>
<linearGradient id="paint2_linear_1008_5523" x1="960.5" y1="5389" x2="960.5" y2="7862" gradientUnits="userSpaceOnUse">
<stop stop-color="#FF698A"/>
<stop offset="0.275" stop-color="#D97CAA"/>
<stop offset="1" stop-color="#73ADFF"/>
</linearGradient>
</defs>
</svg>
