<svg width="1960" height="19759" viewBox="0 0 1960 19759" fill="none" xmlns="http://www.w3.org/2000/svg">
<g filter="url(#filter0_d_711_5366)">
<rect x="20" y="16" width="1920" height="19719" fill="url(#paint0_linear_711_5366)" fill-opacity="0.8" shape-rendering="crispEdges"/>
</g>
<rect x="22" y="4370" width="1920" height="2515" fill="url(#paint1_linear_711_5366)"/>
<path d="M329.549 12710.9C329.848 12710 331.152 12710 331.451 12710.9L344.083 12749.8C344.217 12750.2 344.601 12750.5 345.034 12750.5H385.912C386.881 12750.5 387.284 12751.7 386.5 12752.3L353.429 12776.3C353.078 12776.6 352.932 12777 353.066 12777.5L365.698 12816.3C365.997 12817.2 364.943 12818 364.159 12817.4L331.088 12793.4C330.737 12793.2 330.263 12793.2 329.912 12793.4L296.841 12817.4C296.057 12818 295.003 12817.2 295.302 12816.3L307.934 12777.5C308.068 12777 307.922 12776.6 307.571 12776.3L274.5 12752.3C273.716 12751.7 274.119 12750.5 275.088 12750.5H315.966C316.399 12750.5 316.783 12750.2 316.917 12749.8L329.549 12710.9Z" fill="#FFE59E" fill-opacity="0.6"/>
<path d="M1516.05 16525.9C1516.35 16525 1517.65 16525 1517.95 16525.9L1527.1 16554.1C1527.24 16554.5 1527.62 16554.8 1528.05 16554.8H1557.67C1558.64 16554.8 1559.04 16556 1558.26 16556.6L1534.3 16574C1533.95 16574.3 1533.8 16574.7 1533.93 16575.1L1543.09 16603.3C1543.39 16604.2 1542.33 16605 1541.55 16604.4L1517.59 16587C1517.24 16586.7 1516.76 16586.7 1516.41 16587L1492.45 16604.4C1491.67 16605 1490.61 16604.2 1490.91 16603.3L1500.07 16575.1C1500.2 16574.7 1500.05 16574.3 1499.7 16574L1475.74 16556.6C1474.96 16556 1475.36 16554.8 1476.33 16554.8H1505.95C1506.38 16554.8 1506.76 16554.5 1506.9 16554.1L1516.05 16525.9Z" fill="#FF7B9F" fill-opacity="0.15"/>
<circle cx="1678" cy="13027" r="13.5" stroke="#FF7B9F" stroke-opacity="0.6"/>
<circle cx="22" cy="22" r="21.5" transform="matrix(-1 0 0 1 1506 14856)" stroke="#FF7B9F" stroke-opacity="0.3"/>
<circle cx="15.5" cy="15.5" r="15" transform="matrix(-1 0 0 1 1380 16401)" stroke="#FF7B9F" stroke-opacity="0.3"/>
<circle cx="22" cy="22" r="22" transform="matrix(-1 0 0 1 1646 16234)" fill="#FF7B9F" fill-opacity="0.2"/>
<circle cx="202" cy="12604" r="14" fill="#FFCDDB" fill-opacity="0.5"/>
<circle cx="1758" cy="11858" r="14" fill="#FFCDDB" fill-opacity="0.5"/>
<path d="M1808.35 11630L1814.75 11673.9L1858.69 11680.3L1814.75 11686.8L1808.35 11730.7L1801.94 11686.8L1758 11680.3L1801.94 11673.9L1808.35 11630Z" fill="#FFAAC2" fill-opacity="0.3"/>
<path d="M1577.26 13182L1577.31 13182.4L1577.68 13182.4L1618.23 13188.3L1577.68 13194.3L1577.31 13194.3L1577.26 13194.7L1571.35 13235.2L1565.43 13194.7L1565.38 13194.3L1565.01 13194.3L1524.46 13188.3L1565.01 13182.4L1565.38 13182.4L1565.43 13182L1571.35 13141.5L1577.26 13182Z" stroke="#FF7B9F" stroke-opacity="0.5"/>
<path d="M1632.5 14550L1622.38 14619.4L1553 14629.5L1622.38 14639.6L1632.5 14709L1642.62 14639.6L1712 14629.5L1642.62 14619.4L1632.5 14550Z" fill="#FFC1D2" fill-opacity="0.5"/>
<path d="M286.5 18619L276.381 18688.4L207 18698.5L276.381 18708.6L286.5 18778L296.619 18708.6L366 18698.5L296.619 18688.4L286.5 18619Z" fill="#FFC1D2" fill-opacity="0.5"/>
<path d="M375 18821L371.309 18846.3L346 18850L371.309 18853.7L375 18879L378.691 18853.7L404 18850L378.691 18846.3L375 18821Z" fill="#FFC1D2" fill-opacity="0.5"/>
<path d="M160 17048L156.309 17073.3L131 17077L156.309 17080.7L160 17106L163.691 17080.7L189 17077L163.691 17073.3L160 17048Z" fill="#FFC1D2" fill-opacity="0.5"/>
<path d="M1667 18290L1663.31 18315.3L1638 18319L1663.31 18322.7L1667 18348L1670.69 18322.7L1696 18319L1670.69 18315.3L1667 18290Z" fill="#FFC1D2" fill-opacity="0.3"/>
<path d="M1629.02 6801.91C1629.35 6799.62 1632.65 6799.62 1632.98 6801.91L1653.83 6948.41C1653.95 6949.29 1654.64 6949.98 1655.51 6950.11L1798.77 6971.52C1801.04 6971.86 1801.04 6975.14 1798.77 6975.48L1655.51 6996.89C1654.64 6997.02 1653.95 6997.71 1653.83 6998.59L1632.98 7145.09C1632.65 7147.38 1629.35 7147.38 1629.02 7145.09L1608.17 6998.59C1608.05 6997.71 1607.36 6997.02 1606.49 6996.89L1463.23 6975.48C1460.96 6975.14 1460.96 6971.86 1463.23 6971.52L1606.49 6950.11C1607.36 6949.98 1608.05 6949.29 1608.17 6948.41L1629.02 6801.91Z" fill="#FFE6ED"/>
<path d="M1350.98 6729.02L1338.44 6642.99C1337.44 6636.15 1327.56 6636.15 1326.56 6642.99L1314.02 6729.02L1227.99 6741.56C1221.15 6742.56 1221.15 6752.44 1227.99 6753.44L1314.02 6765.98L1326.56 6852.01C1327.56 6858.85 1337.44 6858.85 1338.44 6852.01L1350.98 6765.98L1437.01 6753.44C1443.85 6752.44 1443.85 6742.56 1437.01 6741.56L1350.98 6729.02Z" stroke="#FFE6ED" stroke-width="8"/>
<path fill-rule="evenodd" clip-rule="evenodd" d="M1739.37 2054.38L1717 2054.38L1717 2051.38L1739.37 2051.38L1739.37 2029L1742.37 2029L1742.37 2051.38L1764.75 2051.38L1764.75 2054.38L1742.37 2054.38L1742.37 2076.75L1739.37 2076.75L1739.37 2054.38Z" fill="#FFB2C3" fill-opacity="0.3"/>
<ellipse cx="1578" cy="1880" rx="14" ry="14" transform="rotate(90 1578 1880)" stroke="#FF7A97" stroke-opacity="0.3" stroke-width="3"/>
<defs>
<filter id="filter0_d_711_5366" x="0" y="0" width="1960" height="19759" filterUnits="userSpaceOnUse" color-interpolation-filters="sRGB">
<feFlood flood-opacity="0" result="BackgroundImageFix"/>
<feColorMatrix in="SourceAlpha" type="matrix" values="0 0 0 0 0 0 0 0 0 0 0 0 0 0 0 0 0 0 127 0" result="hardAlpha"/>
<feOffset dy="4"/>
<feGaussianBlur stdDeviation="10"/>
<feComposite in2="hardAlpha" operator="out"/>
<feColorMatrix type="matrix" values="0 0 0 0 0 0 0 0 0 0 0 0 0 0 0 0 0 0 0.25 0"/>
<feBlend mode="normal" in2="BackgroundImageFix" result="effect1_dropShadow_711_5366"/>
<feBlend mode="normal" in="SourceGraphic" in2="effect1_dropShadow_711_5366" result="shape"/>
</filter>
<linearGradient id="paint0_linear_711_5366" x1="980" y1="16" x2="980" y2="19735" gradientUnits="userSpaceOnUse">
<stop stop-color="white" stop-opacity="0.2"/>
<stop offset="0.0271627" stop-color="#F2F0F0"/>
<stop offset="0.48" stop-color="#F2F0F0"/>
</linearGradient>
<linearGradient id="paint1_linear_711_5366" x1="982" y1="4370" x2="982" y2="6885" gradientUnits="userSpaceOnUse">
<stop offset="0.78" stop-color="white"/>
<stop offset="1" stop-color="white" stop-opacity="0"/>
</linearGradient>
</defs>
</svg>
