<svg width="311" height="16" viewBox="0 0 311 16" fill="none" xmlns="http://www.w3.org/2000/svg">
<path d="M73.4192 8H74.9192V9.5H73.4192V8ZM73.4192 7.9999H71.9192V6.4999H73.4192V7.9999ZM295 7.9999C295 3.58162 298.582 -0.0001 303 -0.0001C307.418 -0.0001 311 3.58162 311 7.9999C311 12.4182 307.418 15.9999 303 15.9999C298.582 15.9999 295 12.4182 295 7.9999ZM0 6.5H4.5887V9.5H0V6.5ZM13.7661 6.5H22.9435V9.5H13.7661V6.5ZM32.1209 6.5H41.2983V9.5H32.1209V6.5ZM50.4757 6.5H59.6531V9.5H50.4757V6.5ZM68.8305 6.5H73.4192V9.5H68.8305V6.5ZM71.9192 8V7.99998H74.9192V8H71.9192ZM71.9192 7.99993V7.9999H74.9192V7.99993H71.9192ZM73.4192 6.4999H78.637V9.4999H73.4192V6.4999ZM89.0725 6.4999H99.508V9.4999H89.0725V6.4999ZM109.943 6.4999H120.379V9.4999H109.943V6.4999ZM130.814 6.4999H141.25V9.4999H130.814V6.4999ZM151.685 6.4999H162.121V9.4999H151.685V6.4999ZM172.556 6.4999H182.992V9.4999H172.556V6.4999ZM193.427 6.4999H203.863V9.4999H193.427V6.4999ZM214.298 6.4999H224.734V9.4999H214.298V6.4999ZM235.169 6.4999H245.605V9.4999H235.169V6.4999ZM256.04 6.4999H266.476V9.4999H256.04V6.4999ZM276.911 6.4999H287.347V9.4999H276.911V6.4999ZM297.782 6.4999H303V9.4999H297.782V6.4999Z" fill="white"/>
</svg>
