<svg width="784" height="663" viewBox="0 0 784 663" fill="none" xmlns="http://www.w3.org/2000/svg">
<rect x="2" y="2" width="780" height="585" rx="50" stroke="url(#paint0_linear_601_5142)" stroke-width="3"/>
<path d="M140.713 59.4336V66.7461H144.014V68.752H140.713V76.4453H138.301V59.4336H140.713ZM136.422 62.0742V64.0293H122.863V62.0742H128.449V59.4082H130.861V62.0742H136.422ZM129.643 65.1211C132.918 65.1211 135.152 66.8223 135.152 69.4121C135.152 72.002 132.918 73.6777 129.643 73.6777C126.342 73.6777 124.107 72.002 124.107 69.4121C124.107 66.8223 126.342 65.1211 129.643 65.1211ZM129.643 66.9746C127.713 66.9746 126.418 67.9141 126.443 69.4121C126.418 70.8848 127.713 71.7988 129.643 71.7988C131.572 71.7988 132.867 70.8848 132.893 69.4121C132.867 67.9141 131.572 66.9746 129.643 66.9746ZM141.678 79.7207V81.6758H126.291V75.0996H128.703V79.7207H141.678ZM163.488 60.4746V62.1758C163.488 63.8516 163.488 65.8574 162.98 68.498H166.129V70.4531H156.887V74.3379H163.59V82.1582H161.178V76.2676H147.441V74.3379H154.475V70.4531H145.309V68.498H160.543C161.076 65.959 161.102 64.0547 161.102 62.4297H147.924V60.4746H163.488ZM173.949 61.1094C177.034 61.1094 179.294 63.7246 179.662 67.9395H184.359V59.4082H186.746V82.209H184.359V69.8945H179.688C179.421 74.3252 177.11 77.0801 173.949 77.0801C170.547 77.0801 168.16 73.9824 168.186 69.082C168.16 64.207 170.547 61.1094 173.949 61.1094ZM173.949 63.2676C171.893 63.2676 170.471 65.502 170.471 69.082C170.471 72.6875 171.893 74.9219 173.949 74.9219C176.006 74.9219 177.428 72.6875 177.428 69.082C177.428 65.502 176.006 63.2676 173.949 63.2676ZM210.182 61.7188V63.6484H196.623V61.7188H202.209V59.3066H204.621V61.7188H210.182ZM203.402 64.6641C206.678 64.6895 208.912 66.3145 208.912 68.8027C208.912 71.291 206.678 72.9414 203.402 72.9414C200.102 72.9414 197.867 71.291 197.867 68.8027C197.867 66.3145 200.102 64.6895 203.402 64.6641ZM203.402 66.5176C201.473 66.5176 200.178 67.4062 200.203 68.8027C200.178 70.2246 201.473 71.0625 203.402 71.0625C205.332 71.0625 206.627 70.2246 206.652 68.8027C206.627 67.4062 205.332 66.5176 203.402 66.5176ZM214.473 59.4082V65.5781H217.773V67.584H214.473V73.627H212.061V59.4082H214.473ZM214.473 74.7949V82.1582H212.061V76.75H199.441V74.7949H214.473ZM224.02 73.043V75.4551H234.709V73.043H237.121V81.8789H221.633V73.043H224.02ZM224.02 79.9492H234.709V77.334H224.02V79.9492ZM239.812 69.6152V71.6211H219.068V69.6152H239.812ZM230.672 60.627C230.672 63.2422 234.303 65.7812 238.67 66.3145L237.807 68.2188C234.112 67.6982 230.9 65.959 229.453 63.5469C227.968 65.9717 224.743 67.6982 221.1 68.2188L220.186 66.3145C224.604 65.7559 228.209 63.3184 228.209 60.627V59.6621H230.672V60.627ZM261.115 59.4082V82.1582H258.805V59.4082H261.115ZM256.494 59.8398V81.041H254.184V70.0723H251.619C251.416 74.5156 249.512 77.2832 246.693 77.2578C243.723 77.2832 241.793 74.1602 241.793 69.2344C241.793 64.3086 243.723 61.2109 246.693 61.2363C249.461 61.2109 251.34 63.8389 251.619 68.1172H254.184V59.8398H256.494ZM246.693 63.4961C245.043 63.4961 244.027 65.6035 244.027 69.2344C244.027 72.8652 245.043 74.9727 246.693 74.9727C248.369 74.9727 249.41 72.8652 249.41 69.2344C249.41 65.6035 248.369 63.4961 246.693 63.4961ZM272.211 65.1973C272.211 69.3613 274.547 73.5 278.025 75.0742L276.553 77.0039C273.963 75.709 272.021 73.1318 271.018 70.0215C270.015 73.2969 268.021 76.0645 265.406 77.4355L263.883 75.4805C267.412 73.8047 269.773 69.4121 269.773 65.1973V61.3125H272.211V65.1973ZM282.977 59.4082V82.209H280.59V68.9297H275.512V66.9746H280.59V59.4082H282.977ZM313.572 69.9453V71.9004H304.381V74.084C308.558 74.3125 311.033 75.7217 311.033 78.0957C311.033 80.6855 308.088 82.1328 303.188 82.1074C298.236 82.1328 295.291 80.6855 295.291 78.0957C295.291 75.7217 297.767 74.3125 301.994 74.084V71.9004H292.828V69.9453H313.572ZM303.188 75.9121C299.709 75.9121 297.729 76.6992 297.729 78.0957C297.729 79.4668 299.709 80.2793 303.188 80.2539C306.615 80.2793 308.621 79.4668 308.621 78.0957C308.621 76.6992 306.615 75.9121 303.188 75.9121ZM311.719 60.4492V62.3789H304.812C305.155 64.5752 308.354 66.4414 312.506 66.8477L311.643 68.752C307.707 68.2949 304.444 66.6318 303.213 64.207C301.943 66.6318 298.693 68.2949 294.758 68.752L293.92 66.8477C298.008 66.4414 301.22 64.5752 301.562 62.3789H294.732V60.4492H311.719ZM336.119 77.3086V79.3145H315.299V77.3086H320.275V71.3672C318.409 70.3389 317.279 68.7012 317.279 66.6699C317.279 63.0898 320.783 60.7285 325.658 60.7285C330.559 60.7285 334.062 63.0898 334.062 66.6699C334.062 68.6758 332.971 70.2881 331.143 71.3164V77.3086H336.119ZM325.658 62.6582C322.078 62.6582 319.615 64.207 319.615 66.6699C319.615 69.1074 322.078 70.707 325.658 70.707C329.213 70.707 331.727 69.1074 331.727 66.6699C331.727 64.207 329.213 62.6582 325.658 62.6582ZM322.662 77.3086H328.705V72.2305C327.778 72.4717 326.75 72.5859 325.658 72.5859C324.592 72.5859 323.576 72.4717 322.662 72.2559V77.3086ZM355.492 59.4082V68.625H359.148V70.6309H355.492V82.1582H353.105V59.4082H355.492ZM351.125 62.9629V64.9434H337.643V62.9629H343.254V59.7129H345.666V62.9629H351.125ZM344.473 66.6191C347.723 66.6191 350.109 68.8027 350.135 71.9004C350.109 75.0234 347.723 77.1816 344.473 77.207C341.197 77.1816 338.811 75.0234 338.811 71.9004C338.811 68.8027 341.197 66.6191 344.473 66.6191ZM344.473 68.5996C342.543 68.5996 341.096 69.9453 341.121 71.9004C341.096 73.8809 342.543 75.2012 344.473 75.1758C346.402 75.2012 347.824 73.8809 347.824 71.9004C347.824 69.9453 346.402 68.5996 344.473 68.5996ZM377.963 59.4082V68.2188H381.619V70.1992H377.963V82.209H375.551V59.4082H377.963ZM371.844 61.5918V63.5469H363.617V74.541C367.438 74.5283 370.308 74.3633 373.545 73.7793L373.85 75.8105C370.295 76.4453 367.273 76.5723 363.033 76.5469H361.205V61.5918H371.844ZM390.531 60.7539L384.615 82.7676H382.203L388.119 60.7539H390.531ZM397.895 61.1094C400.979 61.1094 403.239 63.7246 403.607 67.9395H408.305V59.4082H410.691V82.209H408.305V69.8945H403.633C403.366 74.3252 401.056 77.0801 397.895 77.0801C394.492 77.0801 392.105 73.9824 392.131 69.082C392.105 64.207 394.492 61.1094 397.895 61.1094ZM397.895 63.2676C395.838 63.2676 394.416 65.502 394.416 69.082C394.416 72.6875 395.838 74.9219 397.895 74.9219C399.951 74.9219 401.373 72.6875 401.373 69.082C401.373 65.502 399.951 63.2676 397.895 63.2676ZM433.162 59.4336V72.1289H430.75V68.625H426.484V66.6699H430.75V64.1816H426.484V62.2266H430.75V59.4336H433.162ZM425.037 60.3984V66.7461H417.521V69.5391C421.457 69.5137 423.603 69.4629 426.23 69.0059L426.434 70.9863C423.615 71.4434 421.279 71.5195 416.785 71.5195H415.135V64.918H422.625V62.3535H415.109V60.3984H425.037ZM420.568 73.043V75.4805H430.775V73.043H433.162V81.8789H418.156V73.043H420.568ZM420.568 79.9238H430.775V77.3848H420.568V79.9238ZM454.389 59.4082V68.2188H458.045V70.1992H454.389V82.209H451.977V59.4082H454.389ZM448.27 61.5918V63.5469H440.043V74.541C443.864 74.5283 446.733 74.3633 449.971 73.7793L450.275 75.8105C446.721 76.4453 443.699 76.5723 439.459 76.5469H437.631V61.5918H448.27ZM477.545 61.5918V63.8262C477.545 66.6445 477.545 69.793 476.682 74.4395L474.244 74.1855C475.133 69.793 475.133 66.5684 475.133 63.8262V63.5469H461.32V61.5918H477.545ZM479.881 77.0801V79.0859H459.137V77.0801H467.033V69.0566H469.42V77.0801H479.881ZM494.912 63.7754C494.912 66.2637 496.512 68.7773 499.457 69.8945L498.188 71.748C496.067 70.9355 494.582 69.3867 493.77 67.5078C492.932 69.6279 491.37 71.4688 489.174 72.4082L487.854 70.5293C490.926 69.1836 492.576 66.3145 492.576 63.7754V60.8301H494.912V63.7754ZM507.354 59.4336V73.4238H505.068V67.3301H502.402V72.7129H500.168V59.8398H502.402V65.3496H505.068V59.4336H507.354ZM499.736 73.8555C504.484 73.8555 507.455 75.4043 507.48 77.9941C507.455 80.584 504.484 82.1328 499.736 82.1074C494.988 82.1328 492.018 80.584 492.043 77.9941C492.018 75.4043 494.988 73.8555 499.736 73.8555ZM499.736 75.709C496.436 75.709 494.404 76.5469 494.43 77.9941C494.404 79.4414 496.436 80.2793 499.736 80.2539C503.037 80.2793 505.043 79.4414 505.068 77.9941C505.043 76.5469 503.037 75.709 499.736 75.709ZM528.301 59.4082V65.0195H531.602V67.0508H528.301V72.7129H525.889V59.4082H528.301ZM522.004 60.8047C522.004 66.6699 518.043 70.7578 511.289 72.5098L510.299 70.6562C515.758 69.2344 518.995 66.3525 519.414 62.7598H511.391V60.8047H522.004ZM528.301 73.7031V82.1582H525.889V75.6582H513.27V73.7031H528.301ZM550.619 59.4082V68.625H554.275V70.6309H550.619V82.1582H548.232V59.4082H550.619ZM546.252 62.9629V64.9434H532.77V62.9629H538.381V59.7129H540.793V62.9629H546.252ZM539.6 66.6191C542.85 66.6191 545.236 68.8027 545.262 71.9004C545.236 75.0234 542.85 77.1816 539.6 77.207C536.324 77.1816 533.938 75.0234 533.938 71.9004C533.938 68.8027 536.324 66.6191 539.6 66.6191ZM539.6 68.5996C537.67 68.5996 536.223 69.9453 536.248 71.9004C536.223 73.8809 537.67 75.2012 539.6 75.1758C541.529 75.2012 542.951 73.8809 542.951 71.9004C542.951 69.9453 541.529 68.5996 539.6 68.5996ZM573.775 66.0605V67.9902H558.109V60.2207H560.496V66.0605H573.775ZM576.162 70.8594V72.7891H555.342V70.8594H576.162ZM573.928 79.6445V81.625H557.932V74.9473H560.344V79.6445H573.928ZM604.98 72.7891V74.6934H595.688V82.1582H593.326V74.6934H584.16V72.7891H604.98ZM589.137 60.3223V63.293H599.953V60.3223H602.365V70.1992H586.75V60.3223H589.137ZM589.137 68.2695H599.953V65.2227H589.137V68.2695ZM627.451 71.3164V73.2461H618.412V77.4355H616.025V73.2461H606.631V71.3164H627.451ZM625.141 79.7207V81.6758H609.221V75.4551H611.607V79.7207H625.141ZM611.76 60.1191V62.8867H622.297V60.1191H624.709V69.3105H609.373V60.1191H611.76ZM611.76 67.3809H622.297V64.6895H611.76V67.3809ZM649.871 71.291V73.2207H629.127V71.291H649.871ZM647.535 79.7207V81.6758H631.742V75.0742H634.18V79.7207H647.535ZM639.486 60.1699C644.412 60.1445 647.611 61.8711 647.611 64.7148C647.611 67.584 644.412 69.3105 639.486 69.3359C634.535 69.3105 631.361 67.584 631.361 64.7148C631.361 61.8711 634.535 60.1445 639.486 60.1699ZM639.486 62.0996C636.008 62.0996 633.824 63.0898 633.85 64.7148C633.824 66.3906 636.008 67.3555 639.486 67.3555C642.965 67.3555 645.123 66.3906 645.123 64.7148C645.123 63.0898 642.965 62.0996 639.486 62.0996ZM129.008 99.1094C132.093 99.1094 134.353 101.725 134.721 105.939H139.418V97.4082H141.805V120.209H139.418V107.895H134.746C134.479 112.325 132.169 115.08 129.008 115.08C125.605 115.08 123.219 111.982 123.244 107.082C123.219 102.207 125.605 99.1094 129.008 99.1094ZM129.008 101.268C126.951 101.268 125.529 103.502 125.529 107.082C125.529 110.688 126.951 112.922 129.008 112.922C131.064 112.922 132.486 110.688 132.486 107.082C132.486 103.502 131.064 101.268 129.008 101.268ZM165.088 117.721V119.676H149.041V112.541H151.453V117.721H165.088ZM164.479 97.4336V113.938H162.117V105.559H158.258V103.604H162.117V97.4336H164.479ZM151.682 99.2363V101.191H148.203V108.453C149.346 108.415 150.564 108.301 151.91 107.996L152.113 109.977C150.107 110.408 148.508 110.408 146.883 110.408H145.867V99.2363H151.682ZM159.248 99.2363V101.191H155.287V108.453C157.141 108.44 158.474 108.326 159.984 107.971L160.238 109.926C158.283 110.357 156.709 110.408 154.068 110.408H152.9V99.2363H159.248ZM193.094 97.4336V112.719H190.682V105.686H186.035V103.705H190.682V97.4336H193.094ZM185.883 99.1855C185.883 105.127 182.201 109.291 175.523 111.398L174.457 109.494C179.802 107.882 182.849 104.937 183.318 101.141H175.625V99.1855H185.883ZM186.797 111.779C186.797 114.852 190.021 117.391 194.287 118.127L193.297 120.031C189.844 119.422 186.962 117.683 185.604 115.182C184.207 117.695 181.287 119.435 177.809 120.082L176.869 118.152C181.16 117.467 184.385 114.877 184.41 111.779V110.84H186.797V111.779ZM215.463 97.4082V109.621H213.051V97.4082H215.463ZM202.945 110.713V113.277H213.076V110.713H215.463V119.879H200.584V110.713H202.945ZM202.945 117.898H213.076V115.182H202.945V117.898ZM203.123 98.4492C206.602 98.4492 209.166 100.607 209.166 103.73C209.166 106.854 206.602 109.012 203.123 108.986C199.645 109.012 197.055 106.854 197.055 103.73C197.055 100.607 199.645 98.4492 203.123 98.4492ZM203.123 100.48C200.965 100.455 199.416 101.801 199.416 103.73C199.416 105.686 200.965 107.006 203.123 107.006C205.256 107.006 206.805 105.686 206.805 103.73C206.805 101.801 205.256 100.455 203.123 100.48ZM237.959 97.4082V120.158H235.547V97.4082H237.959ZM222.852 99.6172V112.287C226.165 112.262 229.656 111.995 233.312 111.246L233.643 113.277C229.605 114.09 225.949 114.369 222.369 114.369H220.465V99.6172H222.852ZM259.617 97.4082V106.65H262.918V108.631H259.617V120.158H257.205V97.4082H259.617ZM248.395 99.8457C248.395 105.533 247.354 110.713 243.24 115.105L241.336 113.76C244.662 110.307 245.868 106.384 246.109 101.826H242.148V99.8457H248.395ZM254.666 99.8457C254.666 105.609 253.955 111.652 249.766 116.604L247.836 115.283C251.213 111.335 252.229 106.688 252.406 101.826H249.131V99.8457H254.666ZM267.742 112.541C267.768 109.215 268.758 108.199 270.434 107.158C271.5 106.498 272.312 105.584 272.312 104.238C272.312 102.639 271.094 101.648 269.57 101.648C268.199 101.648 266.879 102.486 266.752 104.365H264.01C264.111 101.141 266.549 99.3633 269.57 99.3633C272.871 99.3633 275.08 101.344 275.08 104.238C275.08 106.27 274.115 107.641 272.49 108.631C270.967 109.545 270.383 110.484 270.332 112.541V112.693H267.742V112.541ZM269.139 118.178C268.148 118.178 267.311 117.365 267.336 116.375C267.311 115.385 268.148 114.572 269.139 114.572C270.104 114.572 270.941 115.385 270.941 116.375C270.941 117.365 270.104 118.178 269.139 118.178Z" fill="black"/>
<path d="M292.865 293.309V297.93H296.064V300.266H292.865V304.836H290.047V293.309H292.865ZM286.416 294.477V303.871H275.549V294.477H286.416ZM278.316 296.711V301.637H283.648V296.711H278.316ZM292.865 305.826V311.844H280.678V313.748H293.576V315.982H277.885V309.787H290.047V308.01H277.859V305.826H292.865ZM315.209 293.309V302.449H318.738V304.785H315.209V316.262H312.416V293.309H315.209ZM310.639 296.838V299.098H297.105V296.838H302.539V293.639H305.357V296.838H310.639ZM303.961 300.596C307.262 300.596 309.725 302.83 309.725 306.004C309.725 309.178 307.262 311.387 303.961 311.387C300.609 311.387 298.146 309.178 298.172 306.004C298.146 302.83 300.609 300.596 303.961 300.596ZM303.961 302.906C302.158 302.906 300.863 304.125 300.863 306.004C300.863 307.883 302.158 309.076 303.961 309.051C305.713 309.076 307.008 307.883 307.033 306.004C307.008 304.125 305.713 302.906 303.961 302.906ZM338.873 293.309V316.262H336.029V293.309H338.873ZM332.018 295.746C332.018 302.576 329.377 308.391 321.328 312.199L319.855 309.939C325.86 307.083 328.653 303.198 329.148 297.98H321.023V295.746H332.018ZM275.193 346.574V343.934L283.141 331.619H287.254V343.857H289.666V346.574H287.254V350.002H284.105V346.574H275.193ZM278.57 343.857H284.156V335.377H283.953L278.57 343.73V343.857ZM299.086 350.256C294.668 350.256 292.027 346.828 292.027 340.811C292.027 334.818 294.668 331.365 299.086 331.365C303.479 331.365 306.145 334.818 306.145 340.811C306.145 346.828 303.504 350.256 299.086 350.256ZM299.086 347.488C301.396 347.488 302.818 345.229 302.818 340.811C302.818 336.418 301.371 334.107 299.086 334.107C296.801 334.107 295.354 336.418 295.354 340.811C295.354 345.229 296.775 347.488 299.086 347.488ZM313.432 340.582C310.816 340.582 309.395 338.652 309.395 335.834C309.395 333.041 310.867 331.111 313.432 331.111C316.098 331.111 317.494 333.041 317.494 335.834C317.494 338.678 316.047 340.582 313.432 340.582ZM313.432 338.551C314.574 338.551 315.133 337.484 315.133 335.834C315.133 334.234 314.625 333.117 313.432 333.143C312.314 333.143 311.73 334.234 311.73 335.834C311.73 337.484 312.314 338.551 313.432 338.551ZM325.441 350.484C322.826 350.51 321.404 348.555 321.404 345.762C321.404 342.943 322.877 341.014 325.441 341.014C328.082 341.014 329.504 342.943 329.504 345.762C329.504 348.58 328.057 350.51 325.441 350.484ZM325.441 348.453C326.609 348.453 327.143 347.387 327.143 345.762C327.143 344.137 326.635 343.02 325.441 343.045C324.324 343.045 323.74 344.162 323.74 345.762C323.74 347.387 324.324 348.453 325.441 348.453ZM311.756 350.002L324.4 331.619H326.965L314.32 350.002H311.756Z" fill="white"/>
<path d="M483.098 278.467V280.717H487.65V278.467H489.021V285.27H481.744V278.467H483.098ZM483.098 284.145H487.65V281.789H483.098V284.145ZM493.293 277.799V281.191H495.648V282.352H493.293V285.885H491.922V277.799H493.293ZM493.293 286.623V290.402H484.715V292.125H493.873V293.25H483.361V289.348H491.922V287.73H483.326V286.623H493.293ZM503.752 278.15C507.145 278.15 509.271 279.24 509.271 281.121C509.271 282.967 507.145 284.039 503.752 284.039C500.359 284.039 498.215 282.967 498.215 281.121C498.215 279.24 500.359 278.15 503.752 278.15ZM503.752 279.258C501.221 279.258 499.621 279.961 499.639 281.121C499.621 282.264 501.221 282.932 503.752 282.949C506.248 282.932 507.865 282.264 507.865 281.121C507.865 279.961 506.248 279.258 503.752 279.258ZM509.131 288.082V293.215H498.373V288.082H509.131ZM499.744 289.189V292.09H507.777V289.189H499.744ZM510.871 285.393V286.535H496.633V285.393H510.871ZM482.72 317.178C480.188 317.178 478.378 315.824 478.29 313.803H479.89C479.978 315.016 481.19 315.771 482.702 315.771C484.372 315.771 485.603 314.857 485.603 313.539C485.603 312.15 484.495 311.166 482.509 311.166H481.472V309.777H482.509C484.056 309.777 485.128 308.916 485.128 307.598C485.128 306.332 484.196 305.471 482.755 305.471C481.401 305.471 480.153 306.227 480.083 307.475H478.554C478.642 305.453 480.505 304.1 482.772 304.1C485.198 304.1 486.675 305.682 486.657 307.51C486.675 308.951 485.831 310.023 484.495 310.393V310.48C486.147 310.744 487.167 311.922 487.149 313.539C487.167 315.631 485.251 317.178 482.72 317.178ZM493.829 317.178C491.298 317.178 489.487 315.824 489.399 313.803H490.999C491.087 315.016 492.3 315.771 493.812 315.771C495.481 315.771 496.712 314.857 496.712 313.539C496.712 312.15 495.604 311.166 493.618 311.166H492.581V309.777H493.618C495.165 309.777 496.237 308.916 496.237 307.598C496.237 306.332 495.306 305.471 493.864 305.471C492.511 305.471 491.263 306.227 491.192 307.475H489.663C489.751 305.453 491.614 304.1 493.882 304.1C496.308 304.1 497.784 305.682 497.767 307.51C497.784 308.951 496.94 310.023 495.604 310.393V310.48C497.257 310.744 498.276 311.922 498.259 313.539C498.276 315.631 496.36 317.178 493.829 317.178ZM503.233 310.182C501.581 310.182 500.685 308.951 500.685 307.123C500.685 305.33 501.616 304.082 503.233 304.082C504.903 304.082 505.782 305.33 505.782 307.123C505.782 308.951 504.868 310.182 503.233 310.182ZM503.233 309.092C504.095 309.092 504.499 308.318 504.499 307.123C504.499 305.945 504.13 305.154 503.233 305.172C502.39 305.172 501.968 305.945 501.968 307.123C501.968 308.318 502.39 309.092 503.233 309.092ZM511.003 317.178C509.351 317.195 508.437 315.947 508.454 314.137C508.437 312.326 509.386 311.078 511.003 311.078C512.655 311.078 513.534 312.326 513.534 314.137C513.534 315.947 512.62 317.195 511.003 317.178ZM511.003 316.088C511.847 316.088 512.251 315.314 512.251 314.137C512.251 312.941 511.882 312.15 511.003 312.168C510.159 312.186 509.72 312.941 509.72 314.137C509.72 315.314 510.142 316.088 511.003 316.088ZM501.933 317.002L510.687 304.275H512.11L503.356 317.002H501.933Z" fill="black"/>
<path d="M480.924 432.797V433.939H474.561V437.139H473.189V433.939H466.615V432.797H480.924ZM479.061 425.572V431.004H468.479V425.572H479.061ZM469.832 426.662V429.896H477.689V426.662H469.832ZM479.324 438.932V440.092H468.443V435.592H469.832V438.932H479.324ZM484.352 425.607V428.033H488.711V425.607H490.064V428.648H493.756V424.799H495.145V433.342H493.756V429.809H490.064V432.762H482.98V425.607H484.352ZM484.352 431.637H488.711V429.123H484.352V431.637ZM486.461 434.098V436.014H493.756V434.098H495.127V440.215H485.072V434.098H486.461ZM486.461 439.072H493.756V437.121H486.461V439.072ZM471.695 451.275V464.002H470.096V452.928H470.025L466.932 454.984V453.385L470.096 451.275H471.695ZM479.482 464.178C476.951 464.178 475.141 462.824 475.053 460.803H476.652C476.74 462.016 477.953 462.771 479.465 462.771C481.135 462.771 482.365 461.857 482.365 460.539C482.365 459.15 481.258 458.166 479.271 458.166H478.234V456.777H479.271C480.818 456.777 481.891 455.916 481.891 454.598C481.891 453.332 480.959 452.471 479.518 452.471C478.164 452.471 476.916 453.227 476.846 454.475H475.316C475.404 452.453 477.268 451.1 479.535 451.1C481.961 451.1 483.438 452.682 483.42 454.51C483.438 455.951 482.594 457.023 481.258 457.393V457.48C482.91 457.744 483.93 458.922 483.912 460.539C483.93 462.631 482.014 464.178 479.482 464.178ZM488.887 457.182C487.234 457.182 486.338 455.951 486.338 454.123C486.338 452.33 487.27 451.082 488.887 451.082C490.557 451.082 491.436 452.33 491.436 454.123C491.436 455.951 490.521 457.182 488.887 457.182ZM488.887 456.092C489.748 456.092 490.152 455.318 490.152 454.123C490.152 452.945 489.783 452.154 488.887 452.172C488.043 452.172 487.621 452.945 487.621 454.123C487.621 455.318 488.043 456.092 488.887 456.092ZM496.656 464.178C495.004 464.195 494.09 462.947 494.107 461.137C494.09 459.326 495.039 458.078 496.656 458.078C498.309 458.078 499.188 459.326 499.188 461.137C499.188 462.947 498.273 464.195 496.656 464.178ZM496.656 463.088C497.5 463.088 497.904 462.314 497.904 461.137C497.904 459.941 497.535 459.15 496.656 459.168C495.812 459.186 495.373 459.941 495.373 461.137C495.373 462.314 495.795 463.088 496.656 463.088ZM487.586 464.002L496.34 451.275H497.764L489.01 464.002H487.586Z" fill="black"/>
<path d="M400.787 472.068C400.787 473.545 401.587 475.461 403.213 476.551C404.795 475.496 405.604 473.615 405.604 472.068V470.064H406.992V472.068C406.975 473.984 408.117 475.971 410.174 476.832L409.4 477.887C407.871 477.201 406.816 475.918 406.289 474.406C405.779 475.927 404.769 477.333 403.195 478.062C401.604 477.324 400.576 475.856 400.084 474.318C399.53 475.821 398.467 477.184 396.973 477.887L396.234 476.832C398.221 475.918 399.398 473.809 399.416 472.068V470.064H400.787V472.068ZM410.367 481.174V482.316H396.076V481.174H410.367ZM424.553 468.799V484.426H423.164V468.799H424.553ZM419.93 470.504C419.912 475.004 417.82 478.977 412.582 481.49L411.826 480.365C416.054 478.361 418.207 475.364 418.523 471.629H412.547V470.504H419.93ZM403.345 508.178C401.13 508.143 398.704 506.842 398.704 502.131C398.704 497.631 400.55 495.1 403.538 495.1C405.771 495.1 407.335 496.471 407.669 498.475H406.104C405.806 497.35 404.962 496.506 403.538 496.506C401.446 496.506 400.198 498.299 400.198 501.357H400.356C401.095 500.303 402.255 499.67 403.626 499.67C405.894 499.67 407.774 501.428 407.774 503.889C407.774 506.279 406.017 508.195 403.345 508.178ZM403.345 506.789C404.997 506.789 406.228 505.488 406.245 503.906C406.228 502.342 405.05 501.059 403.38 501.059C401.71 501.059 400.427 502.412 400.409 503.924C400.409 505.418 401.64 506.789 403.345 506.789ZM412.644 501.182C410.991 501.182 410.095 499.951 410.095 498.123C410.095 496.33 411.026 495.082 412.644 495.082C414.313 495.082 415.192 496.33 415.192 498.123C415.192 499.951 414.278 501.182 412.644 501.182ZM412.644 500.092C413.505 500.092 413.909 499.318 413.909 498.123C413.909 496.945 413.54 496.154 412.644 496.172C411.8 496.172 411.378 496.945 411.378 498.123C411.378 499.318 411.8 500.092 412.644 500.092ZM420.413 508.178C418.761 508.195 417.847 506.947 417.864 505.137C417.847 503.326 418.796 502.078 420.413 502.078C422.065 502.078 422.944 503.326 422.944 505.137C422.944 506.947 422.03 508.195 420.413 508.178ZM420.413 507.088C421.257 507.088 421.661 506.314 421.661 505.137C421.661 503.941 421.292 503.15 420.413 503.168C419.569 503.186 419.13 503.941 419.13 505.137C419.13 506.314 419.552 507.088 420.413 507.088ZM411.343 508.002L420.097 495.275H421.521L412.767 508.002H411.343Z" fill="black"/>
<path d="M348.293 462.799V467.457H350.666V468.617H348.293V474.119H346.922V462.799H348.293ZM343.775 464.152V465.312H338.186V470.182C341.323 470.182 343.107 470.103 345.199 469.672L345.375 470.814C343.178 471.236 341.314 471.342 338.027 471.342H336.814V464.152H343.775ZM349.014 476.932V478.092H338.52V472.977H339.873V476.932H349.014ZM355.834 464.012C357.961 464.029 359.49 465.849 359.719 468.775H363.217V462.799H364.588V478.461H363.217V469.918H359.736C359.569 472.977 358.014 474.893 355.834 474.893C353.531 474.893 351.914 472.783 351.914 469.461C351.914 466.139 353.531 464.029 355.834 464.012ZM355.834 465.242C354.287 465.26 353.232 466.912 353.232 469.461C353.232 472.01 354.287 473.662 355.834 473.662C357.363 473.662 358.436 472.01 358.436 469.461C358.436 466.912 357.363 465.26 355.834 465.242ZM343.345 502.178C341.13 502.143 338.704 500.842 338.704 496.131C338.704 491.631 340.55 489.1 343.538 489.1C345.771 489.1 347.335 490.471 347.669 492.475H346.104C345.806 491.35 344.962 490.506 343.538 490.506C341.446 490.506 340.198 492.299 340.198 495.357H340.356C341.095 494.303 342.255 493.67 343.626 493.67C345.894 493.67 347.774 495.428 347.774 497.889C347.774 500.279 346.017 502.195 343.345 502.178ZM343.345 500.789C344.997 500.789 346.228 499.488 346.245 497.906C346.228 496.342 345.05 495.059 343.38 495.059C341.71 495.059 340.427 496.412 340.409 497.924C340.409 499.418 341.64 500.789 343.345 500.789ZM352.644 495.182C350.991 495.182 350.095 493.951 350.095 492.123C350.095 490.33 351.026 489.082 352.644 489.082C354.313 489.082 355.192 490.33 355.192 492.123C355.192 493.951 354.278 495.182 352.644 495.182ZM352.644 494.092C353.505 494.092 353.909 493.318 353.909 492.123C353.909 490.945 353.54 490.154 352.644 490.172C351.8 490.172 351.378 490.945 351.378 492.123C351.378 493.318 351.8 494.092 352.644 494.092ZM360.413 502.178C358.761 502.195 357.847 500.947 357.864 499.137C357.847 497.326 358.796 496.078 360.413 496.078C362.065 496.078 362.944 497.326 362.944 499.137C362.944 500.947 362.03 502.195 360.413 502.178ZM360.413 501.088C361.257 501.088 361.661 500.314 361.661 499.137C361.661 497.941 361.292 497.15 360.413 497.168C359.569 497.186 359.13 497.941 359.13 499.137C359.13 500.314 359.552 501.088 360.413 501.088ZM351.343 502.002L360.097 489.275H361.521L352.767 502.002H351.343Z" fill="black"/>
<path d="M387.687 169.16C419.499 167.806 451.108 174.847 479.336 189.579C507.564 204.31 531.418 226.211 548.501 253.082C565.583 279.953 575.292 310.846 576.652 342.658C578.012 374.47 570.975 406.08 556.248 434.311L395.407 350.407L387.687 169.16Z" fill="#A6D3FF"/>
<path d="M445.47 524.77C419.803 532.14 392.826 533.752 366.464 529.492L395.405 350.405L445.47 524.77Z" fill="#BEC6CE"/>
<path d="M366.683 529.527C341.454 525.481 317.365 516.152 295.993 502.15L395.408 350.405L366.683 529.527Z" fill="#FFC8D4"/>
<path d="M557.923 431.016C546.629 453.785 530.677 473.927 511.1 490.136C491.523 506.345 468.759 518.259 444.282 525.107L395.407 350.404L557.923 431.016Z" fill="#DFE9F4"/>
<path d="M291.309 510.164C257.566 488.072 231.683 455.865 217.37 418.158C203.056 380.451 201.048 339.181 211.632 300.263C222.216 261.344 244.849 226.776 276.287 201.511C307.725 176.246 346.355 161.583 386.639 159.622L395.923 350.381L291.309 510.164Z" fill="#FF577C"/>
<path d="M287.865 288.309V292.93H291.064V295.266H287.865V299.836H285.047V288.309H287.865ZM281.416 289.477V298.871H270.549V289.477H281.416ZM273.316 291.711V296.637H278.648V291.711H273.316ZM287.865 300.826V306.844H275.678V308.748H288.576V310.982H272.885V304.787H285.047V303.01H272.859V300.826H287.865ZM310.209 288.309V297.449H313.738V299.785H310.209V311.262H307.416V288.309H310.209ZM305.639 291.838V294.098H292.105V291.838H297.539V288.639H300.357V291.838H305.639ZM298.961 295.596C302.262 295.596 304.725 297.83 304.725 301.004C304.725 304.178 302.262 306.387 298.961 306.387C295.609 306.387 293.146 304.178 293.172 301.004C293.146 297.83 295.609 295.596 298.961 295.596ZM298.961 297.906C297.158 297.906 295.863 299.125 295.863 301.004C295.863 302.883 297.158 304.076 298.961 304.051C300.713 304.076 302.008 302.883 302.033 301.004C302.008 299.125 300.713 297.906 298.961 297.906ZM333.873 288.309V311.262H331.029V288.309H333.873ZM327.018 290.746C327.018 297.576 324.377 303.391 316.328 307.199L314.855 304.939C320.86 302.083 323.653 298.198 324.148 292.98H316.023V290.746H327.018ZM270.193 341.574V338.934L278.141 326.619H282.254V338.857H284.666V341.574H282.254V345.002H279.105V341.574H270.193ZM273.57 338.857H279.156V330.377H278.953L273.57 338.73V338.857ZM294.086 345.256C289.668 345.256 287.027 341.828 287.027 335.811C287.027 329.818 289.668 326.365 294.086 326.365C298.479 326.365 301.145 329.818 301.145 335.811C301.145 341.828 298.504 345.256 294.086 345.256ZM294.086 342.488C296.396 342.488 297.818 340.229 297.818 335.811C297.818 331.418 296.371 329.107 294.086 329.107C291.801 329.107 290.354 331.418 290.354 335.811C290.354 340.229 291.775 342.488 294.086 342.488ZM308.432 335.582C305.816 335.582 304.395 333.652 304.395 330.834C304.395 328.041 305.867 326.111 308.432 326.111C311.098 326.111 312.494 328.041 312.494 330.834C312.494 333.678 311.047 335.582 308.432 335.582ZM308.432 333.551C309.574 333.551 310.133 332.484 310.133 330.834C310.133 329.234 309.625 328.117 308.432 328.143C307.314 328.143 306.73 329.234 306.73 330.834C306.73 332.484 307.314 333.551 308.432 333.551ZM320.441 345.484C317.826 345.51 316.404 343.555 316.404 340.762C316.404 337.943 317.877 336.014 320.441 336.014C323.082 336.014 324.504 337.943 324.504 340.762C324.504 343.58 323.057 345.51 320.441 345.484ZM320.441 343.453C321.609 343.453 322.143 342.387 322.143 340.762C322.143 339.137 321.635 338.02 320.441 338.045C319.324 338.045 318.74 339.162 318.74 340.762C318.74 342.387 319.324 343.453 320.441 343.453ZM306.756 345.002L319.4 326.619H321.965L309.32 345.002H306.756Z" fill="white"/>
<path d="M485.664 262.963V265.463H490.723V262.963H492.246V270.521H484.16V262.963H485.664ZM485.664 269.271H490.723V266.654H485.664V269.271ZM496.992 262.221V265.99H499.609V267.279H496.992V271.205H495.469V262.221H496.992ZM496.992 272.025V276.225H487.461V278.139H497.637V279.389H485.957V275.053H495.469V273.256H485.918V272.025H496.992ZM508.613 262.611C512.383 262.611 514.746 263.822 514.746 265.912C514.746 267.963 512.383 269.154 508.613 269.154C504.844 269.154 502.461 267.963 502.461 265.912C502.461 263.822 504.844 262.611 508.613 262.611ZM508.613 263.842C505.801 263.842 504.023 264.623 504.043 265.912C504.023 267.182 505.801 267.924 508.613 267.943C511.387 267.924 513.184 267.182 513.184 265.912C513.184 264.623 511.387 263.842 508.613 263.842ZM514.59 273.646V279.35H502.637V273.646H514.59ZM504.16 274.877V278.1H513.086V274.877H504.16ZM516.523 270.658V271.928H500.703V270.658H516.523ZM485.244 306.197C482.432 306.197 480.42 304.693 480.322 302.447H482.1C482.197 303.795 483.545 304.635 485.225 304.635C487.08 304.635 488.447 303.619 488.447 302.154C488.447 300.611 487.217 299.518 485.01 299.518H483.857V297.975H485.01C486.729 297.975 487.92 297.018 487.92 295.553C487.92 294.146 486.885 293.189 485.283 293.189C483.779 293.189 482.393 294.029 482.314 295.416H480.615C480.713 293.17 482.783 291.666 485.303 291.666C487.998 291.666 489.639 293.424 489.619 295.455C489.639 297.057 488.701 298.248 487.217 298.658V298.756C489.053 299.049 490.186 300.357 490.166 302.154C490.186 304.479 488.057 306.197 485.244 306.197ZM497.588 306.197C494.775 306.197 492.764 304.693 492.666 302.447H494.443C494.541 303.795 495.889 304.635 497.568 304.635C499.424 304.635 500.791 303.619 500.791 302.154C500.791 300.611 499.561 299.518 497.354 299.518H496.201V297.975H497.354C499.072 297.975 500.264 297.018 500.264 295.553C500.264 294.146 499.229 293.189 497.627 293.189C496.123 293.189 494.736 294.029 494.658 295.416H492.959C493.057 293.17 495.127 291.666 497.646 291.666C500.342 291.666 501.982 293.424 501.963 295.455C501.982 297.057 501.045 298.248 499.561 298.658V298.756C501.396 299.049 502.529 300.357 502.51 302.154C502.529 304.479 500.4 306.197 497.588 306.197ZM508.037 298.424C506.201 298.424 505.205 297.057 505.205 295.025C505.205 293.033 506.24 291.646 508.037 291.646C509.893 291.646 510.869 293.033 510.869 295.025C510.869 297.057 509.854 298.424 508.037 298.424ZM508.037 297.213C508.994 297.213 509.443 296.354 509.443 295.025C509.443 293.717 509.033 292.838 508.037 292.857C507.1 292.857 506.631 293.717 506.631 295.025C506.631 296.354 507.1 297.213 508.037 297.213ZM516.67 306.197C514.834 306.217 513.818 304.83 513.838 302.818C513.818 300.807 514.873 299.42 516.67 299.42C518.506 299.42 519.482 300.807 519.482 302.818C519.482 304.83 518.467 306.217 516.67 306.197ZM516.67 304.986C517.607 304.986 518.057 304.127 518.057 302.818C518.057 301.49 517.646 300.611 516.67 300.631C515.732 300.65 515.244 301.49 515.244 302.818C515.244 304.127 515.713 304.986 516.67 304.986ZM506.592 306.002L516.318 291.861H517.9L508.174 306.002H506.592Z" fill="black"/>
<path d="M485.012 432.107V433.377H477.941V436.932H476.418V433.377H469.113V432.107H485.012ZM482.941 424.08V430.115H471.184V424.08H482.941ZM472.688 425.291V428.885H481.418V425.291H472.688ZM483.234 438.924V440.213H471.145V435.213H472.688V438.924H483.234ZM488.82 424.119V426.814H493.664V424.119H495.168V427.498H499.27V423.221H500.812V432.713H499.27V428.787H495.168V432.068H487.297V424.119H488.82ZM488.82 430.818H493.664V428.025H488.82V430.818ZM491.164 433.553V435.682H499.27V433.553H500.793V440.35H489.621V433.553H491.164ZM491.164 439.08H499.27V436.912H491.164V439.08ZM470.969 452.861V467.002H469.191V454.697H469.113L465.676 456.982V455.205L469.191 452.861H470.969ZM479.621 467.197C476.809 467.197 474.797 465.693 474.699 463.447H476.477C476.574 464.795 477.922 465.635 479.602 465.635C481.457 465.635 482.824 464.619 482.824 463.154C482.824 461.611 481.594 460.518 479.387 460.518H478.234V458.975H479.387C481.105 458.975 482.297 458.018 482.297 456.553C482.297 455.146 481.262 454.189 479.66 454.189C478.156 454.189 476.77 455.029 476.691 456.416H474.992C475.09 454.17 477.16 452.666 479.68 452.666C482.375 452.666 484.016 454.424 483.996 456.455C484.016 458.057 483.078 459.248 481.594 459.658V459.756C483.43 460.049 484.562 461.357 484.543 463.154C484.562 465.479 482.434 467.197 479.621 467.197ZM490.07 459.424C488.234 459.424 487.238 458.057 487.238 456.025C487.238 454.033 488.273 452.646 490.07 452.646C491.926 452.646 492.902 454.033 492.902 456.025C492.902 458.057 491.887 459.424 490.07 459.424ZM490.07 458.213C491.027 458.213 491.477 457.354 491.477 456.025C491.477 454.717 491.066 453.838 490.07 453.857C489.133 453.857 488.664 454.717 488.664 456.025C488.664 457.354 489.133 458.213 490.07 458.213ZM498.703 467.197C496.867 467.217 495.852 465.83 495.871 463.818C495.852 461.807 496.906 460.42 498.703 460.42C500.539 460.42 501.516 461.807 501.516 463.818C501.516 465.83 500.5 467.217 498.703 467.197ZM498.703 465.986C499.641 465.986 500.09 465.127 500.09 463.818C500.09 462.49 499.68 461.611 498.703 461.631C497.766 461.65 497.277 462.49 497.277 463.818C497.277 465.127 497.746 465.986 498.703 465.986ZM488.625 467.002L498.352 452.861H499.934L490.207 467.002H488.625Z" fill="black"/>
<path d="M398.367 454.854C398.367 456.494 399.256 458.623 401.062 459.834C402.82 458.662 403.719 456.572 403.719 454.854V452.627H405.262V454.854C405.242 456.982 406.512 459.189 408.797 460.146L407.938 461.318C406.238 460.557 405.066 459.131 404.48 457.451C403.914 459.141 402.791 460.703 401.043 461.514C399.275 460.693 398.133 459.062 397.586 457.354C396.971 459.023 395.789 460.537 394.129 461.318L393.309 460.146C395.516 459.131 396.824 456.787 396.844 454.854V452.627H398.367V454.854ZM409.012 464.971V466.24H393.133V464.971H409.012ZM424.773 451.221V468.584H423.23V451.221H424.773ZM419.637 453.115C419.617 458.115 417.293 462.529 411.473 465.322L410.633 464.072C415.33 461.846 417.723 458.516 418.074 454.365H411.434V453.115H419.637ZM403.738 495.197C401.277 495.158 398.582 493.713 398.582 488.479C398.582 483.479 400.633 480.666 403.953 480.666C406.434 480.666 408.172 482.189 408.543 484.416H406.805C406.473 483.166 405.535 482.229 403.953 482.229C401.629 482.229 400.242 484.221 400.242 487.619H400.418C401.238 486.447 402.527 485.744 404.051 485.744C406.57 485.744 408.66 487.697 408.66 490.432C408.66 493.088 406.707 495.217 403.738 495.197ZM403.738 493.654C405.574 493.654 406.941 492.209 406.961 490.451C406.941 488.713 405.633 487.287 403.777 487.287C401.922 487.287 400.496 488.791 400.477 490.471C400.477 492.131 401.844 493.654 403.738 493.654ZM414.07 487.424C412.234 487.424 411.238 486.057 411.238 484.025C411.238 482.033 412.273 480.646 414.07 480.646C415.926 480.646 416.902 482.033 416.902 484.025C416.902 486.057 415.887 487.424 414.07 487.424ZM414.07 486.213C415.027 486.213 415.477 485.354 415.477 484.025C415.477 482.717 415.066 481.838 414.07 481.857C413.133 481.857 412.664 482.717 412.664 484.025C412.664 485.354 413.133 486.213 414.07 486.213ZM422.703 495.197C420.867 495.217 419.852 493.83 419.871 491.818C419.852 489.807 420.906 488.42 422.703 488.42C424.539 488.42 425.516 489.807 425.516 491.818C425.516 493.83 424.5 495.217 422.703 495.197ZM422.703 493.986C423.641 493.986 424.09 493.127 424.09 491.818C424.09 490.49 423.68 489.611 422.703 489.631C421.766 489.65 421.277 490.49 421.277 491.818C421.277 493.127 421.746 493.986 422.703 493.986ZM412.625 495.002L422.352 480.861H423.934L414.207 495.002H412.625Z" fill="black"/>
<path d="M351.707 451.221V456.396H354.344V457.686H351.707V463.799H350.184V451.221H351.707ZM346.688 452.725V454.014H340.477V459.424C343.963 459.424 345.945 459.336 348.27 458.857L348.465 460.127C346.023 460.596 343.953 460.713 340.301 460.713H338.953V452.725H346.688ZM352.508 466.924V468.213H340.848V462.529H342.352V466.924H352.508ZM360.086 452.568C362.449 452.588 364.148 454.609 364.402 457.861H368.289V451.221H369.812V468.623H368.289V459.131H364.422C364.236 462.529 362.508 464.658 360.086 464.658C357.527 464.658 355.73 462.314 355.73 458.623C355.73 454.932 357.527 452.588 360.086 452.568ZM360.086 453.936C358.367 453.955 357.195 455.791 357.195 458.623C357.195 461.455 358.367 463.291 360.086 463.291C361.785 463.291 362.977 461.455 362.977 458.623C362.977 455.791 361.785 453.955 360.086 453.936ZM348.738 495.197C346.277 495.158 343.582 493.713 343.582 488.479C343.582 483.479 345.633 480.666 348.953 480.666C351.434 480.666 353.172 482.189 353.543 484.416H351.805C351.473 483.166 350.535 482.229 348.953 482.229C346.629 482.229 345.242 484.221 345.242 487.619H345.418C346.238 486.447 347.527 485.744 349.051 485.744C351.57 485.744 353.66 487.697 353.66 490.432C353.66 493.088 351.707 495.217 348.738 495.197ZM348.738 493.654C350.574 493.654 351.941 492.209 351.961 490.451C351.941 488.713 350.633 487.287 348.777 487.287C346.922 487.287 345.496 488.791 345.477 490.471C345.477 492.131 346.844 493.654 348.738 493.654ZM359.07 487.424C357.234 487.424 356.238 486.057 356.238 484.025C356.238 482.033 357.273 480.646 359.07 480.646C360.926 480.646 361.902 482.033 361.902 484.025C361.902 486.057 360.887 487.424 359.07 487.424ZM359.07 486.213C360.027 486.213 360.477 485.354 360.477 484.025C360.477 482.717 360.066 481.838 359.07 481.857C358.133 481.857 357.664 482.717 357.664 484.025C357.664 485.354 358.133 486.213 359.07 486.213ZM367.703 495.197C365.867 495.217 364.852 493.83 364.871 491.818C364.852 489.807 365.906 488.42 367.703 488.42C369.539 488.42 370.516 489.807 370.516 491.818C370.516 493.83 369.5 495.217 367.703 495.197ZM367.703 493.986C368.641 493.986 369.09 493.127 369.09 491.818C369.09 490.49 368.68 489.611 367.703 489.631C366.766 489.65 366.277 490.49 366.277 491.818C366.277 493.127 366.746 493.986 367.703 493.986ZM357.625 495.002L367.352 480.861H368.934L359.207 495.002H357.625Z" fill="black"/>
<circle cx="67" cy="74" r="22" fill="#FF577C"/>
<path d="M60.5234 83V80.6133L67.0234 74.3418C68.877 72.4883 69.8418 71.3965 69.8418 69.8477C69.8418 68.1465 68.4961 67.0547 66.6934 67.0547C64.7891 67.0547 63.5703 68.248 63.5957 70.1016H60.4473C60.4219 66.623 63.0371 64.3633 66.7188 64.3633C70.4766 64.3633 73.0156 66.5977 73.0156 69.6953C73.0156 71.7773 72 73.4531 68.3945 76.8555L65.1191 80.1055V80.2324H73.2949V83H60.5234Z" fill="white"/>
<defs>
<linearGradient id="paint0_linear_601_5142" x1="46.6825" y1="22.2919" x2="770.435" y2="561.972" gradientUnits="userSpaceOnUse">
<stop stop-color="#FF577C"/>
<stop offset="1" stop-color="#66B8FB"/>
</linearGradient>
</defs>
</svg>
