<svg width="784" height="589" viewBox="0 0 784 589" fill="none" xmlns="http://www.w3.org/2000/svg">
<path d="M299.818 357.445V373H297.863V359.465H297.777L293.996 361.979V360.023L297.863 357.445H299.818ZM309.336 373.215C306.242 373.215 304.029 371.561 303.922 369.09H305.877C305.984 370.572 307.467 371.496 309.314 371.496C311.355 371.496 312.859 370.379 312.859 368.768C312.859 367.07 311.506 365.867 309.078 365.867H307.811V364.17H309.078C310.969 364.17 312.279 363.117 312.279 361.506C312.279 359.959 311.141 358.906 309.379 358.906C307.725 358.906 306.199 359.83 306.113 361.355H304.244C304.352 358.885 306.629 357.23 309.4 357.23C312.365 357.23 314.17 359.164 314.148 361.398C314.17 363.16 313.139 364.471 311.506 364.922V365.029C313.525 365.352 314.771 366.791 314.75 368.768C314.771 371.324 312.43 373.215 309.336 373.215ZM318.381 373.129C317.629 373.129 316.984 372.506 317.006 371.732C316.984 370.98 317.629 370.357 318.381 370.357C319.133 370.357 319.756 370.98 319.756 371.732C319.756 372.506 319.133 373.129 318.381 373.129ZM327.426 373.215C324.332 373.215 322.119 371.561 322.012 369.09H323.967C324.074 370.572 325.557 371.496 327.404 371.496C329.445 371.496 330.949 370.379 330.949 368.768C330.949 367.07 329.596 365.867 327.168 365.867H325.9V364.17H327.168C329.059 364.17 330.369 363.117 330.369 361.506C330.369 359.959 329.23 358.906 327.469 358.906C325.814 358.906 324.289 359.83 324.203 361.355H322.334C322.441 358.885 324.719 357.23 327.49 357.23C330.455 357.23 332.26 359.164 332.238 361.398C332.26 363.16 331.229 364.471 329.596 364.922V365.029C331.615 365.352 332.861 366.791 332.84 368.768C332.861 371.324 330.52 373.215 327.426 373.215ZM338.92 364.664C336.9 364.664 335.805 363.16 335.805 360.926C335.805 358.734 336.943 357.209 338.92 357.209C340.961 357.209 342.035 358.734 342.035 360.926C342.035 363.16 340.918 364.664 338.92 364.664ZM338.92 363.332C339.973 363.332 340.467 362.387 340.467 360.926C340.467 359.486 340.016 358.52 338.92 358.541C337.889 358.541 337.373 359.486 337.373 360.926C337.373 362.387 337.889 363.332 338.92 363.332ZM348.416 373.215C346.396 373.236 345.279 371.711 345.301 369.498C345.279 367.285 346.439 365.76 348.416 365.76C350.436 365.76 351.51 367.285 351.51 369.498C351.51 371.711 350.393 373.236 348.416 373.215ZM348.416 371.883C349.447 371.883 349.941 370.938 349.941 369.498C349.941 368.037 349.49 367.07 348.416 367.092C347.385 367.113 346.848 368.037 346.848 369.498C346.848 370.938 347.363 371.883 348.416 371.883ZM337.33 373L348.029 357.445H349.77L339.07 373H337.33Z" fill="black" fill-opacity="0.7"/>
<path d="M284 417C284 408.599 284 404.399 285.635 401.19C287.073 398.368 289.368 396.073 292.19 394.635C295.399 393 299.599 393 308 393H338C346.401 393 350.601 393 353.81 394.635C356.632 396.073 358.927 398.368 360.365 401.19C362 404.399 362 408.599 362 417V479H284V417Z" fill="#DFDFDF"/>
<path d="M321.752 514.607V516.194H301.879V514.607H310.814V509.92H304.223V498.812H306.151V502.742H317.431V498.812H319.311V509.92H312.694V514.607H321.752ZM306.151 508.357H317.431V504.305H306.151V508.357ZM343.261 508.797V510.359H323.461V508.797H332.396V506.648H326.098V497.908H340.795V499.471H328.026V501.497H340.209V502.962H328.026V505.11H340.917V506.648H334.301V508.797H343.261ZM333.373 511.995C338.134 511.971 340.819 513.191 340.844 515.462C340.819 517.732 338.134 518.929 333.373 518.929C328.563 518.929 325.878 517.732 325.878 515.462C325.878 513.191 328.563 511.971 333.373 511.995ZM333.373 513.436C329.784 513.436 327.782 514.168 327.807 515.462C327.782 516.78 329.784 517.464 333.373 517.439C336.913 517.464 338.915 516.78 338.915 515.462C338.915 514.168 336.913 513.436 333.373 513.436Z" fill="black"/>
<path d="M161.818 357.445V373H159.863V359.465H159.777L155.996 361.979V360.023L159.863 357.445H161.818ZM171.336 373.215C168.242 373.215 166.029 371.561 165.922 369.09H167.877C167.984 370.572 169.467 371.496 171.314 371.496C173.355 371.496 174.859 370.379 174.859 368.768C174.859 367.07 173.506 365.867 171.078 365.867H169.811V364.17H171.078C172.969 364.17 174.279 363.117 174.279 361.506C174.279 359.959 173.141 358.906 171.379 358.906C169.725 358.906 168.199 359.83 168.113 361.355H166.244C166.352 358.885 168.629 357.23 171.4 357.23C174.365 357.23 176.17 359.164 176.148 361.398C176.17 363.16 175.139 364.471 173.506 364.922V365.029C175.525 365.352 176.771 366.791 176.75 368.768C176.771 371.324 174.43 373.215 171.336 373.215ZM180.381 373.129C179.629 373.129 178.984 372.506 179.006 371.732C178.984 370.98 179.629 370.357 180.381 370.357C181.133 370.357 181.756 370.98 181.756 371.732C181.756 372.506 181.133 373.129 180.381 373.129ZM189.426 373.215C186.332 373.215 184.119 371.561 184.012 369.09H185.967C186.074 370.572 187.557 371.496 189.404 371.496C191.445 371.496 192.949 370.379 192.949 368.768C192.949 367.07 191.596 365.867 189.168 365.867H187.9V364.17H189.168C191.059 364.17 192.369 363.117 192.369 361.506C192.369 359.959 191.23 358.906 189.469 358.906C187.814 358.906 186.289 359.83 186.203 361.355H184.334C184.441 358.885 186.719 357.23 189.49 357.23C192.455 357.23 194.26 359.164 194.238 361.398C194.26 363.16 193.229 364.471 191.596 364.922V365.029C193.615 365.352 194.861 366.791 194.84 368.768C194.861 371.324 192.52 373.215 189.426 373.215ZM200.92 364.664C198.9 364.664 197.805 363.16 197.805 360.926C197.805 358.734 198.943 357.209 200.92 357.209C202.961 357.209 204.035 358.734 204.035 360.926C204.035 363.16 202.918 364.664 200.92 364.664ZM200.92 363.332C201.973 363.332 202.467 362.387 202.467 360.926C202.467 359.486 202.016 358.52 200.92 358.541C199.889 358.541 199.373 359.486 199.373 360.926C199.373 362.387 199.889 363.332 200.92 363.332ZM210.416 373.215C208.396 373.236 207.279 371.711 207.301 369.498C207.279 367.285 208.439 365.76 210.416 365.76C212.436 365.76 213.51 367.285 213.51 369.498C213.51 371.711 212.393 373.236 210.416 373.215ZM210.416 371.883C211.447 371.883 211.941 370.938 211.941 369.498C211.941 368.037 211.49 367.07 210.416 367.092C209.385 367.113 208.848 368.037 208.848 369.498C208.848 370.938 209.363 371.883 210.416 371.883ZM199.33 373L210.029 357.445H211.77L201.07 373H199.33Z" fill="black" fill-opacity="0.7"/>
<path d="M146 417C146 408.599 146 404.399 147.635 401.19C149.073 398.368 151.368 396.073 154.19 394.635C157.399 393 161.599 393 170 393H200C208.401 393 212.601 393 215.81 394.635C218.632 396.073 220.927 398.368 222.365 401.19C224 404.399 224 408.599 224 417V479H146V417Z" fill="#DFDFDF"/>
<path d="M125.344 501.375C125.344 504.402 127.542 507.259 130.715 508.406L129.641 509.896C127.261 508.943 125.369 507.051 124.441 504.695C123.513 507.32 121.536 509.407 118.972 510.433L117.947 508.87C121.194 507.674 123.44 504.646 123.464 501.302V498.616H125.344V501.375ZM135.916 497.298V513.558H133.987V504.012H129.153V502.4H133.987V497.298H135.916ZM136.404 516.902V518.514H121.877V511.702H123.806V516.902H136.404ZM158.279 500.496V502.083H140.505V500.496H148.464V497.64H150.344V500.496H158.279ZM159.402 514.852V516.438H139.529V514.852H148.464V511.8C144.607 511.592 142.263 510.091 142.288 507.649C142.263 505.062 144.998 503.548 149.417 503.572C153.787 503.548 156.545 505.062 156.545 507.649C156.545 510.091 154.177 511.592 150.344 511.8V514.852H159.402ZM149.417 505.086C146.169 505.086 144.192 506.038 144.216 507.649C144.192 509.31 146.169 510.237 149.417 510.262C152.615 510.237 154.592 509.31 154.592 507.649C154.592 506.038 152.615 505.086 149.417 505.086ZM177.932 497.273V506.233H181.57V507.82H177.932V518.978H176.028V497.273H177.932ZM173.928 500.765V502.352H161.013V500.765H166.604V497.542H168.508V500.765H173.928ZM167.581 504.158C170.657 504.158 172.878 506.209 172.903 509.139C172.878 512.068 170.657 514.119 167.581 514.119C164.48 514.119 162.234 512.068 162.258 509.139C162.234 506.209 164.48 504.158 167.581 504.158ZM167.581 505.77C165.554 505.77 164.065 507.186 164.089 509.139C164.065 511.116 165.554 512.508 167.581 512.483C169.583 512.508 171.047 511.116 171.072 509.139C171.047 507.186 169.583 505.77 167.581 505.77ZM190.505 503.938C190.505 507.625 193.191 511.36 196.389 512.752L195.315 514.266C192.776 513.106 190.579 510.604 189.578 507.601C188.552 510.787 186.367 513.558 183.889 514.803L182.742 513.289C185.842 511.8 188.552 507.698 188.577 503.938V501.106H183.45V499.52H195.681V501.106H190.505V503.938ZM200.637 497.273V518.978H198.708V497.273H200.637ZM216.677 498.519C219.924 498.519 222.317 500.594 222.317 503.523C222.317 506.478 219.924 508.528 216.677 508.553C213.43 508.528 211.013 506.478 211.038 503.523C211.013 500.594 213.43 498.519 216.677 498.519ZM216.677 500.13C214.553 500.13 212.893 501.57 212.917 503.523C212.893 505.525 214.553 506.966 216.677 506.966C218.826 506.966 220.437 505.525 220.437 503.523C220.437 501.57 218.826 500.13 216.677 500.13ZM227.59 497.273V502.181H230.862V503.768H227.59V508.138H225.686V497.273H227.59ZM214.797 510.481V516.805C216.055 516.768 217.727 516.585 219.265 516.072L219.558 517.61C217.434 518.318 215.383 518.392 213.967 518.392H212.942V510.481H214.797ZM229.763 510.579V512.068H218.801V510.579H223.367V508.65H225.247V510.579H229.763ZM224.27 512.801C226.638 512.801 228.323 513.997 228.347 515.877C228.323 517.757 226.638 518.929 224.27 518.929C221.877 518.929 220.217 517.757 220.242 515.877C220.217 513.997 221.877 512.801 224.27 512.801ZM224.27 514.192C222.927 514.192 221.951 514.876 221.951 515.877C221.951 516.902 222.927 517.562 224.27 517.562C225.637 517.562 226.589 516.902 226.589 515.877C226.589 514.876 225.637 514.192 224.27 514.192ZM242.117 497.762C246.829 497.762 249.783 499.275 249.783 501.888C249.783 504.451 246.829 505.94 242.117 505.94C237.405 505.94 234.426 504.451 234.426 501.888C234.426 499.275 237.405 497.762 242.117 497.762ZM242.117 499.3C238.601 499.3 236.379 500.276 236.404 501.888C236.379 503.475 238.601 504.402 242.117 504.427C245.583 504.402 247.83 503.475 247.83 501.888C247.83 500.276 245.583 499.3 242.117 499.3ZM249.587 511.556V518.685H234.646V511.556H249.587ZM236.55 513.094V517.122H247.708V513.094H236.55ZM252.004 507.82V509.407H232.229V507.82H252.004Z" fill="black"/>
<path d="M423.147 203.704V201.165L430.789 189.324H434.744V201.092H437.063V203.704H434.744V207H431.717V203.704H423.147ZM426.395 201.092H431.766V192.938H431.57L426.395 200.97V201.092ZM446.219 207.244C442.776 207.22 439.31 205.169 439.334 198.65C439.334 192.596 442.093 189.08 446.414 189.08C449.832 189.08 452.176 191.229 452.566 194.085H449.417C449.1 192.742 448.025 191.839 446.414 191.839C443.851 191.839 442.41 194.109 442.41 197.82H442.581C443.484 196.307 445.193 195.403 447.122 195.403C450.296 195.403 452.737 197.796 452.737 201.141C452.737 204.656 450.125 207.269 446.219 207.244ZM446.219 204.681C448.196 204.681 449.661 203.143 449.661 201.214C449.661 199.334 448.221 197.82 446.268 197.82C444.29 197.82 442.776 199.383 442.752 201.238C442.776 203.094 444.217 204.681 446.219 204.681ZM456.619 207.195C455.569 207.195 454.715 206.341 454.715 205.291C454.715 204.266 455.569 203.411 456.619 203.411C457.62 203.411 458.499 204.266 458.499 205.291C458.499 206.341 457.62 207.195 456.619 207.195ZM461.575 207L469.241 192.107V191.985H460.354V189.324H472.537V192.034L464.871 207H461.575ZM479.446 197.942C476.932 197.942 475.564 196.087 475.564 193.377C475.564 190.691 476.98 188.836 479.446 188.836C482.01 188.836 483.353 190.691 483.353 193.377C483.353 196.111 481.961 197.942 479.446 197.942ZM479.446 195.989C480.545 195.989 481.082 194.964 481.082 193.377C481.082 191.839 480.594 190.765 479.446 190.789C478.372 190.789 477.811 191.839 477.811 193.377C477.811 194.964 478.372 195.989 479.446 195.989ZM490.994 207.464C488.479 207.488 487.112 205.608 487.112 202.923C487.112 200.213 488.528 198.357 490.994 198.357C493.533 198.357 494.9 200.213 494.9 202.923C494.9 205.633 493.509 207.488 490.994 207.464ZM490.994 205.511C492.117 205.511 492.63 204.485 492.63 202.923C492.63 201.36 492.142 200.286 490.994 200.311C489.92 200.311 489.358 201.385 489.358 202.923C489.358 204.485 489.92 205.511 490.994 205.511ZM477.835 207L489.993 189.324H492.459L480.301 207H477.835Z" fill="#FF3E69"/>
<path d="M422 251C422 242.599 422 238.399 423.635 235.19C425.073 232.368 427.368 230.073 430.19 228.635C433.399 227 437.599 227 446 227H473C481.401 227 485.601 227 488.81 228.635C491.632 230.073 493.927 232.368 495.365 235.19C497 238.399 497 242.599 497 251V479H422V251Z" fill="#FF577C"/>
<path d="M435.301 501.375C435.301 504.402 437.498 507.259 440.672 508.406L439.598 509.896C437.217 508.943 435.325 507.051 434.397 504.695C433.47 507.32 431.492 509.407 428.929 510.433L427.903 508.87C431.15 507.674 433.396 504.646 433.421 501.302V498.616H435.301V501.375ZM445.872 497.298V513.558H443.943V504.012H439.109V502.4H443.943V497.298H445.872ZM446.36 516.902V518.514H431.834V511.702H433.763V516.902H446.36ZM468.235 500.496V502.083H450.462V500.496H458.421V497.64H460.301V500.496H468.235ZM469.358 514.852V516.438H449.485V514.852H458.421V511.8C454.563 511.592 452.22 510.091 452.244 507.649C452.22 505.062 454.954 503.548 459.373 503.572C463.743 503.548 466.502 505.062 466.502 507.649C466.502 510.091 464.134 511.592 460.301 511.8V514.852H469.358ZM459.373 505.086C456.126 505.086 454.148 506.038 454.173 507.649C454.148 509.31 456.126 510.237 459.373 510.262C462.571 510.237 464.549 509.31 464.549 507.649C464.549 506.038 462.571 505.086 459.373 505.086ZM488.06 497.273V503.06H491.331V504.695H488.06V510.359H486.155V497.273H488.06ZM488.06 511.604V518.685H474.363V511.604H488.06ZM476.243 513.143V517.122H486.155V513.143H476.243ZM484.08 499.593V501.18H471.141V499.593H476.658V497.103H478.562V499.593H484.08ZM477.61 502.254C480.735 502.254 482.811 503.792 482.835 506.111C482.811 508.479 480.735 509.993 477.61 509.993C474.461 509.993 472.361 508.479 472.386 506.111C472.361 503.792 474.461 502.254 477.61 502.254ZM477.61 503.743C475.56 503.743 474.192 504.695 474.217 506.111C474.192 507.601 475.56 508.504 477.61 508.528C479.637 508.504 481.004 507.601 481.028 506.111C481.004 504.695 479.637 503.743 477.61 503.743Z" fill="black"/>
<path d="M570.965 309V306.705L577.215 300.675C578.997 298.893 579.925 297.843 579.925 296.354C579.925 294.718 578.631 293.668 576.897 293.668C575.066 293.668 573.895 294.815 573.919 296.598H570.892C570.867 293.253 573.382 291.08 576.922 291.08C580.535 291.08 582.977 293.229 582.977 296.207C582.977 298.209 582 299.82 578.533 303.092L575.384 306.217V306.339H583.245V309H570.965ZM592.547 309.244C588.299 309.244 585.76 305.948 585.76 300.162C585.76 294.4 588.299 291.08 592.547 291.08C596.771 291.08 599.334 294.4 599.334 300.162C599.334 305.948 596.795 309.244 592.547 309.244ZM592.547 306.583C594.769 306.583 596.136 304.41 596.136 300.162C596.136 295.938 594.744 293.717 592.547 293.717C590.35 293.717 588.958 295.938 588.958 300.162C588.958 304.41 590.325 306.583 592.547 306.583ZM606.341 299.942C603.826 299.942 602.459 298.087 602.459 295.377C602.459 292.691 603.875 290.836 606.341 290.836C608.904 290.836 610.247 292.691 610.247 295.377C610.247 298.111 608.855 299.942 606.341 299.942ZM606.341 297.989C607.439 297.989 607.977 296.964 607.977 295.377C607.977 293.839 607.488 292.765 606.341 292.789C605.267 292.789 604.705 293.839 604.705 295.377C604.705 296.964 605.267 297.989 606.341 297.989ZM617.889 309.464C615.374 309.488 614.007 307.608 614.007 304.923C614.007 302.213 615.423 300.357 617.889 300.357C620.428 300.357 621.795 302.213 621.795 304.923C621.795 307.633 620.403 309.488 617.889 309.464ZM617.889 307.511C619.012 307.511 619.524 306.485 619.524 304.923C619.524 303.36 619.036 302.286 617.889 302.311C616.814 302.311 616.253 303.385 616.253 304.923C616.253 306.485 616.814 307.511 617.889 307.511ZM604.729 309L616.888 291.324H619.354L607.195 309H604.729Z" fill="#FF3E69"/>
<path d="M557 353C557 344.599 557 340.399 558.635 337.19C560.073 334.368 562.368 332.073 565.19 330.635C568.399 329 572.599 329 581 329H613C621.401 329 625.601 329 628.81 330.635C631.632 332.073 633.927 334.368 635.365 337.19C637 340.399 637 344.599 637 353V479H557V353Z" fill="#FF577C"/>
<path d="M559.329 497.273V518.978H557.474V507.479H554.446V517.879H552.615V497.737H554.446V505.892H557.474V497.273H559.329ZM549.832 499.812V513.143H541.531V499.812H549.832ZM543.338 501.351V511.604H548.025V501.351H543.338ZM582.181 509.725V511.336H573.123V518.978H571.243V511.336H562.308V509.725H582.181ZM572.195 498.152C576.761 498.152 579.837 499.983 579.837 502.938C579.837 505.818 576.761 507.649 572.195 507.649C567.63 507.649 564.554 505.818 564.554 502.938C564.554 499.983 567.63 498.152 572.195 498.152ZM572.195 499.715C568.802 499.715 566.507 500.984 566.531 502.938C566.507 504.866 568.802 506.111 572.195 506.111C575.564 506.111 577.884 504.866 577.884 502.938C577.884 500.984 575.564 499.715 572.195 499.715ZM597.635 501.375C597.635 504.402 599.832 507.259 603.006 508.406L601.932 509.896C599.551 508.943 597.659 507.051 596.731 504.695C595.804 507.32 593.826 509.407 591.263 510.433L590.237 508.87C593.484 507.674 595.73 504.646 595.755 501.302V498.616H597.635V501.375ZM608.206 497.298V513.558H606.277V504.012H601.443V502.4H606.277V497.298H608.206ZM608.694 516.902V518.514H594.168V511.702H596.097V516.902H608.694ZM630.569 500.496V502.083H612.796V500.496H620.755V497.64H622.635V500.496H630.569ZM631.692 514.852V516.438H611.819V514.852H620.755V511.8C616.897 511.592 614.554 510.091 614.578 507.649C614.554 505.062 617.288 503.548 621.707 503.572C626.077 503.548 628.836 505.062 628.836 507.649C628.836 510.091 626.468 511.592 622.635 511.8V514.852H631.692ZM621.707 505.086C618.46 505.086 616.482 506.038 616.507 507.649C616.482 509.31 618.46 510.237 621.707 510.262C624.905 510.237 626.883 509.31 626.883 507.649C626.883 506.038 624.905 505.086 621.707 505.086ZM650.394 497.273V503.06H653.665V504.695H650.394V510.359H648.489V497.273H650.394ZM650.394 511.604V518.685H636.697V511.604H650.394ZM638.577 513.143V517.122H648.489V513.143H638.577ZM646.414 499.593V501.18H633.475V499.593H638.992V497.103H640.896V499.593H646.414ZM639.944 502.254C643.069 502.254 645.145 503.792 645.169 506.111C645.145 508.479 643.069 509.993 639.944 509.993C636.795 509.993 634.695 508.479 634.72 506.111C634.695 503.792 636.795 502.254 639.944 502.254ZM639.944 503.743C637.894 503.743 636.526 504.695 636.551 506.111C636.526 507.601 637.894 508.504 639.944 508.528C641.971 508.504 643.338 507.601 643.362 506.111C643.338 504.695 641.971 503.743 639.944 503.743Z" fill="black"/>
<rect x="2" y="2" width="780" height="585" rx="50" stroke="url(#paint0_linear_553_8599)" stroke-width="3"/>
<path d="M143.582 69.7324V71.6875H122.838V69.7324H128.449V66.8887H130.836V69.7324H135.584V66.8887H137.971V69.7324H143.582ZM134.416 73.6172C134.416 76.4102 137.59 78.6191 142.008 79.1777L141.119 81.0566C137.526 80.5107 134.543 78.9619 133.172 76.6387C131.788 78.9619 128.817 80.5107 125.225 81.0566L124.336 79.1777C128.754 78.6191 131.928 76.4102 131.953 73.6172V73.0332H134.416V73.6172ZM134.416 59.6016C134.416 62.3945 137.996 64.8066 142.389 65.3145L141.5 67.168C137.856 66.6475 134.632 64.9971 133.172 62.5469C131.725 64.9844 128.538 66.6475 124.895 67.168L123.98 65.3145C128.398 64.7559 131.953 62.3691 131.979 59.6016V58.6367H134.416V59.6016ZM166.053 69.7324V71.6621H145.309V69.7324H154.449V67.3711H147.314V65.416H150.539V61.0742H147.213V59.1191H164.098V61.0742H160.797V65.416H163.996V67.3711H156.861V69.7324H166.053ZM163.514 73.6426V80.8789H147.797V73.6426H163.514ZM150.184 75.5215V78.9238H161.178V75.5215H150.184ZM152.926 65.416H158.385V61.0742H152.926V65.416ZM171.867 77.248L169.836 84.2559H167.678L169.023 77.248H171.867ZM192.434 59.5V65.2637H184.309V67.7012C188.612 67.6885 191.367 67.5742 194.693 67.0664L194.922 68.8945C191.418 69.4785 188.498 69.6055 183.801 69.6055H181.947V63.5117H190.072V61.3535H181.871V59.5H192.434ZM199.645 71.2812V76.8672H187.152V79.0508H200.406V80.9297H184.766V75.0898H197.182V73.1602H184.689V71.2812H199.645ZM199.645 58.4082V70.3418H197.232V58.4082H199.645ZM214.803 61.6328C214.803 65.3398 218.764 68.8438 223.131 69.6309L222.014 71.6367C218.383 70.8496 215.031 68.4629 213.559 65.2637C212.061 68.4375 208.722 70.8242 205.078 71.6367L204.012 69.6309C208.328 68.8184 212.264 65.3398 212.264 61.6328V59.9062H214.803V61.6328ZM224.07 76.1562V78.1621H203.25V76.1562H224.07ZM245.297 58.4082V81.1582H242.986V58.4082H245.297ZM240.676 58.8398V80.041H238.365V69.0723H235.801C235.598 73.5156 233.693 76.2832 230.875 76.2578C227.904 76.2832 225.975 73.1602 225.975 68.2344C225.975 63.3086 227.904 60.2109 230.875 60.2363C233.643 60.2109 235.521 62.8389 235.801 67.1172H238.365V58.8398H240.676ZM230.875 62.4961C229.225 62.4961 228.209 64.6035 228.209 68.2344C228.209 71.8652 229.225 73.9727 230.875 73.9727C232.551 73.9727 233.592 71.8652 233.592 68.2344C233.592 64.6035 232.551 62.4961 230.875 62.4961ZM274.064 58.4082V81.1582H271.754V69.4023H268.809V79.9902H266.6V58.8652H268.809V67.4219H271.754V58.4082H274.064ZM263.832 61.1504V63.1055H257.713V73.6426C260.506 73.6172 262.613 73.4902 265.051 73.0332L265.229 75.0137C262.486 75.5723 260.15 75.6738 256.824 75.6992H255.301V61.1504H263.832ZM288.258 62.166V64.1211H276.959V62.166H281.428V59.0684H283.814V62.166H288.258ZM282.621 65.4922C285.516 65.4922 287.547 67.6504 287.572 70.7227C287.547 73.8203 285.516 76.0039 282.621 76.0039C279.777 76.0039 277.67 73.8203 277.695 70.7227C277.67 67.6504 279.777 65.4922 282.621 65.4922ZM282.621 67.498C280.971 67.498 279.828 68.8438 279.828 70.7227C279.828 72.6523 280.971 73.9473 282.621 73.9473C284.246 73.9473 285.439 72.6523 285.439 70.7227C285.439 68.8438 284.246 67.498 282.621 67.498ZM296.484 58.4082V81.1582H294.199V69.8594H291.584V80.0918H289.299V58.916H291.584V67.8789H294.199V58.4082H296.484ZM311.998 60.1094C315.083 60.1094 317.343 62.7246 317.711 66.9395H322.408V58.4082H324.795V81.209H322.408V68.8945H317.736C317.47 73.3252 315.159 76.0801 311.998 76.0801C308.596 76.0801 306.209 72.9824 306.234 68.082C306.209 63.207 308.596 60.1094 311.998 60.1094ZM311.998 62.2676C309.941 62.2676 308.52 64.502 308.52 68.082C308.52 71.6875 309.941 73.9219 311.998 73.9219C314.055 73.9219 315.477 71.6875 315.477 68.082C315.477 64.502 314.055 62.2676 311.998 62.2676ZM347.875 71.8652V73.7188H331.396V71.8652H338.455V69.8086H340.842V71.8652H347.875ZM339.598 74.6582C343.711 74.6836 346.148 75.8262 346.148 77.8828C346.148 80.0156 343.711 81.1328 339.598 81.1582C335.484 81.1328 333.047 80.0156 333.047 77.8828C333.047 75.8262 335.484 74.6836 339.598 74.6582ZM339.598 76.3594C337.059 76.3848 335.586 76.8926 335.586 77.8828C335.586 78.9238 337.059 79.457 339.598 79.457C342.111 79.457 343.559 78.9238 343.584 77.8828C343.559 76.8926 342.111 76.3848 339.598 76.3594ZM334.646 59.4746V61.3789H331.193V67.041C332.323 67.0029 333.555 66.8887 334.926 66.584L335.129 68.4883C333.047 68.9453 331.447 68.9707 329.873 68.9453H328.857V59.4746H334.646ZM342.213 59.4746V61.3789H338.227V67.041C340.105 67.0283 341.438 66.9141 342.975 66.5586L343.203 68.4883C341.273 68.9199 339.674 68.9707 337.008 68.9453H335.865V59.4746H342.213ZM347.469 58.4082V70.5195H345.107V64.9082H341.299V63.0293H345.107V58.4082H347.469ZM370.32 58.4082V81.1582H368.035V58.4082H370.32ZM365.521 58.9922V80.041H363.236V69.4785H358.793C357.435 72.1191 355.276 74.4297 352.064 76.3086L350.693 74.582C355.518 71.7129 357.841 67.8916 358.26 63.207H351.76V61.2266H360.646C360.634 63.4482 360.329 65.5684 359.631 67.5488H363.236V58.9922H365.521ZM386.545 62.7754C386.545 65.2637 388.145 67.7773 391.09 68.8945L389.82 70.748C387.7 69.9355 386.215 68.3867 385.402 66.5078C384.564 68.6279 383.003 70.4688 380.807 71.4082L379.486 69.5293C382.559 68.1836 384.209 65.3145 384.209 62.7754V59.8301H386.545V62.7754ZM398.986 58.4336V72.4238H396.701V66.3301H394.035V71.7129H391.801V58.8398H394.035V64.3496H396.701V58.4336H398.986ZM391.369 72.8555C396.117 72.8555 399.088 74.4043 399.113 76.9941C399.088 79.584 396.117 81.1328 391.369 81.1074C386.621 81.1328 383.65 79.584 383.676 76.9941C383.65 74.4043 386.621 72.8555 391.369 72.8555ZM391.369 74.709C388.068 74.709 386.037 75.5469 386.062 76.9941C386.037 78.4414 388.068 79.2793 391.369 79.2539C394.67 79.2793 396.676 78.4414 396.701 76.9941C396.676 75.5469 394.67 74.709 391.369 74.709ZM419.934 58.4082V64.0195H423.234V66.0508H419.934V71.7129H417.521V58.4082H419.934ZM413.637 59.8047C413.637 65.6699 409.676 69.7578 402.922 71.5098L401.932 69.6562C407.391 68.2344 410.628 65.3525 411.047 61.7598H403.023V59.8047H413.637ZM419.934 72.7031V81.1582H417.521V74.6582H404.902V72.7031H419.934ZM442.252 58.4082V67.625H445.908V69.6309H442.252V81.1582H439.865V58.4082H442.252ZM437.885 61.9629V63.9434H424.402V61.9629H430.014V58.7129H432.426V61.9629H437.885ZM431.232 65.6191C434.482 65.6191 436.869 67.8027 436.895 70.9004C436.869 74.0234 434.482 76.1816 431.232 76.207C427.957 76.1816 425.57 74.0234 425.57 70.9004C425.57 67.8027 427.957 65.6191 431.232 65.6191ZM431.232 67.5996C429.303 67.5996 427.855 68.9453 427.881 70.9004C427.855 72.8809 429.303 74.2012 431.232 74.1758C433.162 74.2012 434.584 72.8809 434.584 70.9004C434.584 68.9453 433.162 67.5996 431.232 67.5996ZM455.354 64.1973C455.328 68.3613 457.842 72.5254 461.371 74.0996L459.924 76.0039C457.309 74.7598 455.239 72.208 454.186 69.0977C453.119 72.4238 451.024 75.1787 448.295 76.5117L446.822 74.4805C450.402 72.8809 452.916 68.5391 452.916 64.1973V60.3125H455.354V64.1973ZM465.84 58.4082V81.209H463.428V58.4082H465.84ZM490.723 67.3457V69.3262H487.193V81.1328H484.781V58.4082H487.193V67.3457H490.723ZM472.721 60.6172V73.4141C475.895 73.4141 479.208 73.1475 482.826 72.3984L483.105 74.4297C479.221 75.2168 475.615 75.4199 472.213 75.4199H470.334V60.6172H472.721ZM512.762 76.3086V78.3145H491.941V76.3086H496.918V70.3672C495.052 69.3389 493.922 67.7012 493.922 65.6699C493.922 62.0898 497.426 59.7285 502.301 59.7285C507.201 59.7285 510.705 62.0898 510.705 65.6699C510.705 67.6758 509.613 69.2881 507.785 70.3164V76.3086H512.762ZM502.301 61.6582C498.721 61.6582 496.258 63.207 496.258 65.6699C496.258 68.1074 498.721 69.707 502.301 69.707C505.855 69.707 508.369 68.1074 508.369 65.6699C508.369 63.207 505.855 61.6582 502.301 61.6582ZM499.305 76.3086H505.348V71.2305C504.421 71.4717 503.393 71.5859 502.301 71.5859C501.234 71.5859 500.219 71.4717 499.305 71.2559V76.3086ZM518.145 73.541C518.17 70.2148 519.16 69.1992 520.836 68.1582C521.902 67.498 522.715 66.584 522.715 65.2383C522.715 63.6387 521.496 62.6484 519.973 62.6484C518.602 62.6484 517.281 63.4863 517.154 65.3652H514.412C514.514 62.1406 516.951 60.3633 519.973 60.3633C523.273 60.3633 525.482 62.3438 525.482 65.2383C525.482 67.2695 524.518 68.6406 522.893 69.6309C521.369 70.5449 520.785 71.4844 520.734 73.541V73.6934H518.145V73.541ZM519.541 79.1777C518.551 79.1777 517.713 78.3652 517.738 77.375C517.713 76.3848 518.551 75.5723 519.541 75.5723C520.506 75.5723 521.344 76.3848 521.344 77.375C521.344 78.3652 520.506 79.1777 519.541 79.1777Z" fill="black"/>
<circle cx="67" cy="71" r="22" fill="#FF577C"/>
<path d="M67.2012 80.2539C63.2656 80.2539 60.4727 78.1211 60.3965 75.0234H63.7227C63.8242 76.4961 65.2969 77.4609 67.2012 77.4609C69.2324 77.4609 70.6797 76.3438 70.6797 74.7188C70.6797 73.0684 69.2578 71.875 66.8711 71.875H65.2207V69.3359H66.8711C68.8262 69.3359 70.1973 68.2441 70.1719 66.6445C70.1973 65.0957 69.0293 64.0547 67.2266 64.0547C65.5 64.0547 64.002 65.0195 63.9512 66.5684H60.7773C60.8535 63.4707 63.6465 61.3633 67.252 61.3633C70.9844 61.3633 73.3965 63.6484 73.3711 66.4668C73.3965 68.5234 72.0254 70.0215 70.0195 70.4277V70.5801C72.6094 70.9355 74.082 72.5859 74.0566 74.8965C74.082 77.9941 71.1875 80.2539 67.2012 80.2539Z" fill="white"/>
<defs>
<linearGradient id="paint0_linear_553_8599" x1="46.6825" y1="22.2919" x2="770.435" y2="561.972" gradientUnits="userSpaceOnUse">
<stop stop-color="#FF577C"/>
<stop offset="1" stop-color="#66B8FB"/>
</linearGradient>
</defs>
</svg>
