<svg width="784" height="589" viewBox="0 0 784 589" fill="none" xmlns="http://www.w3.org/2000/svg">
<path d="M303.581 186.244C300.139 186.22 296.672 184.169 296.696 177.65C296.696 171.596 299.455 168.08 303.776 168.08C307.194 168.08 309.538 170.229 309.929 173.085H306.779C306.462 171.742 305.388 170.839 303.776 170.839C301.213 170.839 299.772 173.109 299.772 176.82H299.943C300.847 175.307 302.556 174.403 304.484 174.403C307.658 174.403 310.1 176.796 310.1 180.141C310.1 183.656 307.487 186.269 303.581 186.244ZM303.581 183.681C305.559 183.681 307.023 182.143 307.023 180.214C307.023 178.334 305.583 176.82 303.63 176.82C301.652 176.82 300.139 178.383 300.114 180.238C300.139 182.094 301.579 183.681 303.581 183.681ZM319.304 186.244C315.056 186.244 312.517 182.948 312.517 177.162C312.517 171.4 315.056 168.08 319.304 168.08C323.527 168.08 326.091 171.4 326.091 177.162C326.091 182.948 323.552 186.244 319.304 186.244ZM319.304 183.583C321.525 183.583 322.893 181.41 322.893 177.162C322.893 172.938 321.501 170.717 319.304 170.717C317.106 170.717 315.715 172.938 315.715 177.162C315.715 181.41 317.082 183.583 319.304 183.583ZM333.098 176.942C330.583 176.942 329.216 175.087 329.216 172.377C329.216 169.691 330.632 167.836 333.098 167.836C335.661 167.836 337.004 169.691 337.004 172.377C337.004 175.111 335.612 176.942 333.098 176.942ZM333.098 174.989C334.196 174.989 334.733 173.964 334.733 172.377C334.733 170.839 334.245 169.765 333.098 169.789C332.023 169.789 331.462 170.839 331.462 172.377C331.462 173.964 332.023 174.989 333.098 174.989ZM344.646 186.464C342.131 186.488 340.764 184.608 340.764 181.923C340.764 179.213 342.18 177.357 344.646 177.357C347.185 177.357 348.552 179.213 348.552 181.923C348.552 184.633 347.16 186.488 344.646 186.464ZM344.646 184.511C345.769 184.511 346.281 183.485 346.281 181.923C346.281 180.36 345.793 179.286 344.646 179.311C343.571 179.311 343.01 180.385 343.01 181.923C343.01 183.485 343.571 184.511 344.646 184.511ZM331.486 186L343.645 168.324H346.11L333.952 186H331.486Z" fill="#FF3E69"/>
<path d="M284 230C284 221.599 284 217.399 285.635 214.19C287.073 211.368 289.368 209.073 292.19 207.635C295.399 206 299.599 206 308 206H338C346.401 206 350.601 206 353.81 207.635C356.632 209.073 358.927 211.368 360.365 214.19C362 217.399 362 221.599 362 230V479H284V230Z" fill="#FF577C"/>
<path d="M304.764 517.244C301.248 517.244 298.733 515.364 298.611 512.557H300.833C300.955 514.241 302.64 515.291 304.739 515.291C307.059 515.291 308.768 514.021 308.768 512.19C308.768 510.262 307.229 508.895 304.471 508.895H303.03V506.966H304.471C306.619 506.966 308.108 505.77 308.108 503.938C308.108 502.181 306.814 500.984 304.812 500.984C302.933 500.984 301.199 502.034 301.102 503.768H298.978C299.1 500.96 301.688 499.08 304.837 499.08C308.206 499.08 310.257 501.277 310.232 503.816C310.257 505.818 309.085 507.308 307.229 507.82V507.942C309.524 508.309 310.94 509.944 310.916 512.19C310.94 515.096 308.279 517.244 304.764 517.244ZM319.876 517.244C315.945 517.244 313.699 513.948 313.699 508.162C313.699 502.425 315.994 499.08 319.876 499.08C323.758 499.08 326.053 502.425 326.053 508.162C326.053 513.948 323.782 517.244 319.876 517.244ZM319.876 515.291C322.415 515.291 323.904 512.728 323.904 508.162C323.904 503.597 322.415 500.984 319.876 500.984C317.337 500.984 315.823 503.597 315.823 508.162C315.823 512.728 317.312 515.291 319.876 515.291ZM348.05 508.772V510.335H339.212V514.583H337.308V510.335H328.177V508.772H348.05ZM345.828 516.902V518.514H330.716V512.581H332.62V516.902H345.828ZM332.742 497.981V500.765H343.484V497.981H345.389V506.648H330.838V497.981H332.742ZM332.742 505.086H343.484V502.229H332.742V505.086Z" fill="black"/>
<path d="M161.818 357.445V373H159.863V359.465H159.777L155.996 361.979V360.023L159.863 357.445H161.818ZM171.336 373.215C168.242 373.215 166.029 371.561 165.922 369.09H167.877C167.984 370.572 169.467 371.496 171.314 371.496C173.355 371.496 174.859 370.379 174.859 368.768C174.859 367.07 173.506 365.867 171.078 365.867H169.811V364.17H171.078C172.969 364.17 174.279 363.117 174.279 361.506C174.279 359.959 173.141 358.906 171.379 358.906C169.725 358.906 168.199 359.83 168.113 361.355H166.244C166.352 358.885 168.629 357.23 171.4 357.23C174.365 357.23 176.17 359.164 176.148 361.398C176.17 363.16 175.139 364.471 173.506 364.922V365.029C175.525 365.352 176.771 366.791 176.75 368.768C176.771 371.324 174.43 373.215 171.336 373.215ZM180.381 373.129C179.629 373.129 178.984 372.506 179.006 371.732C178.984 370.98 179.629 370.357 180.381 370.357C181.133 370.357 181.756 370.98 181.756 371.732C181.756 372.506 181.133 373.129 180.381 373.129ZM189.426 373.215C186.332 373.215 184.119 371.561 184.012 369.09H185.967C186.074 370.572 187.557 371.496 189.404 371.496C191.445 371.496 192.949 370.379 192.949 368.768C192.949 367.07 191.596 365.867 189.168 365.867H187.9V364.17H189.168C191.059 364.17 192.369 363.117 192.369 361.506C192.369 359.959 191.23 358.906 189.469 358.906C187.814 358.906 186.289 359.83 186.203 361.355H184.334C184.441 358.885 186.719 357.23 189.49 357.23C192.455 357.23 194.26 359.164 194.238 361.398C194.26 363.16 193.229 364.471 191.596 364.922V365.029C193.615 365.352 194.861 366.791 194.84 368.768C194.861 371.324 192.52 373.215 189.426 373.215ZM200.92 364.664C198.9 364.664 197.805 363.16 197.805 360.926C197.805 358.734 198.943 357.209 200.92 357.209C202.961 357.209 204.035 358.734 204.035 360.926C204.035 363.16 202.918 364.664 200.92 364.664ZM200.92 363.332C201.973 363.332 202.467 362.387 202.467 360.926C202.467 359.486 202.016 358.52 200.92 358.541C199.889 358.541 199.373 359.486 199.373 360.926C199.373 362.387 199.889 363.332 200.92 363.332ZM210.416 373.215C208.396 373.236 207.279 371.711 207.301 369.498C207.279 367.285 208.439 365.76 210.416 365.76C212.436 365.76 213.51 367.285 213.51 369.498C213.51 371.711 212.393 373.236 210.416 373.215ZM210.416 371.883C211.447 371.883 211.941 370.938 211.941 369.498C211.941 368.037 211.49 367.07 210.416 367.092C209.385 367.113 208.848 368.037 208.848 369.498C208.848 370.938 209.363 371.883 210.416 371.883ZM199.33 373L210.029 357.445H211.77L201.07 373H199.33Z" fill="black" fill-opacity="0.7"/>
<path d="M146 417C146 408.599 146 404.399 147.635 401.19C149.073 398.368 151.368 396.073 154.19 394.635C157.399 393 161.599 393 170 393H200C208.401 393 212.601 393 215.81 394.635C218.632 396.073 220.927 398.368 222.365 401.19C224 404.399 224 408.599 224 417V479H146V417Z" fill="#DFDFDF"/>
<path d="M169.18 499.324V517H166.958V501.619H166.86L162.563 504.476V502.254L166.958 499.324H169.18ZM179.678 517.244C175.747 517.244 173.501 513.948 173.501 508.162C173.501 502.425 175.796 499.08 179.678 499.08C183.56 499.08 185.854 502.425 185.854 508.162C185.854 513.948 183.584 517.244 179.678 517.244ZM179.678 515.291C182.217 515.291 183.706 512.728 183.706 508.162C183.706 503.597 182.217 500.984 179.678 500.984C177.139 500.984 175.625 503.597 175.625 508.162C175.625 512.728 177.114 515.291 179.678 515.291ZM207.852 508.772V510.335H199.014V514.583H197.109V510.335H187.979V508.772H207.852ZM205.63 516.902V518.514H190.518V512.581H192.422V516.902H205.63ZM192.544 497.981V500.765H203.286V497.981H205.19V506.648H190.64V497.981H192.544ZM192.544 505.086H203.286V502.229H192.544V505.086Z" fill="black"/>
<path d="M438.467 350L438.445 348.582L443.752 342.996C445.6 341.041 446.48 339.988 446.48 338.549C446.48 336.959 445.127 335.906 443.387 335.906C441.539 335.906 440.357 337.088 440.357 338.828H438.531C438.51 336.078 440.637 334.23 443.451 334.23C446.266 334.23 448.285 336.121 448.285 338.549C448.285 340.289 447.469 341.643 444.719 344.479L441.152 348.152V348.281H448.564V350H438.467ZM456.471 350.215C453.012 350.215 451.035 347.314 451.035 342.223C451.035 337.174 453.055 334.23 456.471 334.23C459.887 334.23 461.906 337.174 461.906 342.223C461.906 347.314 459.908 350.215 456.471 350.215ZM456.471 348.496C458.705 348.496 460.016 346.24 460.016 342.223C460.016 338.205 458.705 335.906 456.471 335.906C454.236 335.906 452.904 338.205 452.904 342.223C452.904 346.24 454.215 348.496 456.471 348.496ZM467.771 341.664C465.752 341.664 464.656 340.16 464.656 337.926C464.656 335.734 465.795 334.209 467.771 334.209C469.812 334.209 470.887 335.734 470.887 337.926C470.887 340.16 469.77 341.664 467.771 341.664ZM467.771 340.332C468.824 340.332 469.318 339.387 469.318 337.926C469.318 336.486 468.867 335.52 467.771 335.541C466.74 335.541 466.225 336.486 466.225 337.926C466.225 339.387 466.74 340.332 467.771 340.332ZM477.268 350.215C475.248 350.236 474.131 348.711 474.152 346.498C474.131 344.285 475.291 342.76 477.268 342.76C479.287 342.76 480.361 344.285 480.361 346.498C480.361 348.711 479.244 350.236 477.268 350.215ZM477.268 348.883C478.299 348.883 478.793 347.938 478.793 346.498C478.793 345.037 478.342 344.07 477.268 344.092C476.236 344.113 475.699 345.037 475.699 346.498C475.699 347.938 476.215 348.883 477.268 348.883ZM466.182 350L476.881 334.445H478.621L467.922 350H466.182Z" fill="black" fill-opacity="0.7"/>
<path d="M422 394C422 385.599 422 381.399 423.635 378.19C425.073 375.368 427.368 373.073 430.19 371.635C433.399 370 437.599 370 446 370H473C481.401 370 485.601 370 488.81 371.635C491.632 373.073 493.927 375.368 495.365 378.19C497 381.399 497 385.599 497 394V477H422V394Z" fill="#DFDFDF"/>
<path d="M439.91 497.324V515H437.688V499.619H437.591L433.294 502.476V500.254L437.688 497.324H439.91ZM451.556 501.108C451.531 505.063 454.241 509.067 457.439 510.508L456.268 512.021C453.802 510.813 451.666 508.262 450.628 505.161C449.615 508.445 447.479 511.179 444.939 512.461L443.719 510.85C446.941 509.36 449.627 505.234 449.651 501.108V497.153H451.556V501.108ZM461.736 495.273V517.026H459.808V495.273H461.736ZM482.415 495.273V501.89H485.687V503.501H482.415V511.167H480.486V495.273H482.415ZM476.556 496.958C476.556 502.549 472.552 506.699 466.302 508.652L465.472 507.114C470.672 505.491 474.065 502.39 474.48 498.569H466.375V496.958H476.556ZM483.416 514.902V516.514H468.816V509.556H470.721V514.902H483.416Z" fill="black"/>
<path d="M579.308 420.215C576.601 420.172 573.636 418.582 573.636 412.824C573.636 407.324 575.892 404.23 579.544 404.23C582.272 404.23 584.185 405.906 584.593 408.355H582.681C582.315 406.98 581.284 405.949 579.544 405.949C576.987 405.949 575.462 408.141 575.462 411.879H575.655C576.558 410.59 577.976 409.816 579.651 409.816C582.423 409.816 584.722 411.965 584.722 414.973C584.722 417.895 582.573 420.236 579.308 420.215ZM579.308 418.518C581.327 418.518 582.831 416.928 582.853 414.994C582.831 413.082 581.392 411.514 579.351 411.514C577.31 411.514 575.741 413.168 575.72 415.016C575.72 416.842 577.224 418.518 579.308 418.518ZM587.987 420.129C587.235 420.129 586.591 419.506 586.612 418.732C586.591 417.98 587.235 417.357 587.987 417.357C588.739 417.357 589.362 417.98 589.362 418.732C589.362 419.506 588.739 420.129 587.987 420.129ZM592.413 420L599.546 406.271V406.164H591.317V404.445H601.544V406.25L594.433 420H592.413ZM607.345 411.664C605.325 411.664 604.229 410.16 604.229 407.926C604.229 405.734 605.368 404.209 607.345 404.209C609.386 404.209 610.46 405.734 610.46 407.926C610.46 410.16 609.343 411.664 607.345 411.664ZM607.345 410.332C608.397 410.332 608.892 409.387 608.892 407.926C608.892 406.486 608.44 405.52 607.345 405.541C606.313 405.541 605.798 406.486 605.798 407.926C605.798 409.387 606.313 410.332 607.345 410.332ZM616.841 420.215C614.821 420.236 613.704 418.711 613.726 416.498C613.704 414.285 614.864 412.76 616.841 412.76C618.86 412.76 619.935 414.285 619.935 416.498C619.935 418.711 618.817 420.236 616.841 420.215ZM616.841 418.883C617.872 418.883 618.366 417.938 618.366 416.498C618.366 415.037 617.915 414.07 616.841 414.092C615.81 414.113 615.272 415.037 615.272 416.498C615.272 417.938 615.788 418.883 616.841 418.883ZM605.755 420L616.454 404.445H618.194L607.495 420H605.755Z" fill="black" fill-opacity="0.7"/>
<path d="M557 464C557 455.599 557 451.399 558.635 448.19C560.073 445.368 562.368 443.073 565.19 441.635C568.399 440 572.599 440 581 440H613C621.401 440 625.601 440 628.81 441.635C631.632 443.073 633.927 445.368 635.365 448.19C637 451.399 637 455.599 637 464V475H557V464Z" fill="#DFDFDF"/>
<path d="M575.442 513.244C571.927 513.244 569.412 511.364 569.29 508.557H571.512C571.634 510.241 573.318 511.291 575.418 511.291C577.737 511.291 579.446 510.021 579.446 508.19C579.446 506.262 577.908 504.895 575.149 504.895H573.709V502.966H575.149C577.298 502.966 578.787 501.77 578.787 499.938C578.787 498.181 577.493 496.984 575.491 496.984C573.611 496.984 571.878 498.034 571.78 499.768H569.656C569.778 496.96 572.366 495.08 575.516 495.08C578.885 495.08 580.936 497.277 580.911 499.816C580.936 501.818 579.764 503.308 577.908 503.82V503.942C580.203 504.309 581.619 505.944 581.595 508.19C581.619 511.096 578.958 513.244 575.442 513.244ZM591.702 499.108C591.678 503.063 594.388 507.067 597.586 508.508L596.414 510.021C593.948 508.813 591.812 506.262 590.774 503.161C589.761 506.445 587.625 509.179 585.086 510.461L583.865 508.85C587.088 507.36 589.773 503.234 589.798 499.108V495.153H591.702V499.108ZM601.883 493.273V515.026H599.954V493.273H601.883ZM622.562 493.273V499.89H625.833V501.501H622.562V509.167H620.633V493.273H622.562ZM616.702 494.958C616.702 500.549 612.698 504.699 606.448 506.652L605.618 505.114C610.818 503.491 614.212 500.39 614.627 496.569H606.521V494.958H616.702ZM623.562 512.902V514.514H608.963V507.556H610.867V512.902H623.562Z" fill="black"/>
<rect x="2" y="2" width="780" height="585" rx="50" stroke="url(#paint0_linear_553_8621)" stroke-width="3"/>
<path d="M140.561 56.4082V65.625H144.217V67.6309H140.561V79.1582H138.174V56.4082H140.561ZM136.193 59.9629V61.9434H122.711V59.9629H128.322V56.7129H130.734V59.9629H136.193ZM129.541 63.6191C132.791 63.6191 135.178 65.8027 135.203 68.9004C135.178 72.0234 132.791 74.1816 129.541 74.207C126.266 74.1816 123.879 72.0234 123.879 68.9004C123.879 65.8027 126.266 63.6191 129.541 63.6191ZM129.541 65.5996C127.611 65.5996 126.164 66.9453 126.189 68.9004C126.164 70.8809 127.611 72.2012 129.541 72.1758C131.471 72.2012 132.893 70.8809 132.893 68.9004C132.893 66.9453 131.471 65.5996 129.541 65.5996ZM163.641 57.2461V63.4414H150.234V66.0566H164.123V68.0117H147.822V61.5879H161.178V59.2012H147.746V57.2461H163.641ZM166.104 70.1699V72.0996H156.861V79.209H154.449V72.0996H145.283V70.1699H166.104ZM187.355 56.4082V79.1582H185.045V56.4082H187.355ZM182.734 56.8398V78.041H180.424V67.0723H177.859C177.656 71.5156 175.752 74.2832 172.934 74.2578C169.963 74.2832 168.033 71.1602 168.033 66.2344C168.033 61.3086 169.963 58.2109 172.934 58.2363C175.701 58.2109 177.58 60.8389 177.859 65.1172H180.424V56.8398H182.734ZM172.934 60.4961C171.283 60.4961 170.268 62.6035 170.268 66.2344C170.268 69.8652 171.283 71.9727 172.934 71.9727C174.609 71.9727 175.65 69.8652 175.65 66.2344C175.65 62.6035 174.609 60.4961 172.934 60.4961ZM214.473 56.4336V63.7461H217.773V65.752H214.473V73.4453H212.061V56.4336H214.473ZM210.182 59.0742V61.0293H196.623V59.0742H202.209V56.4082H204.621V59.0742H210.182ZM203.402 62.1211C206.678 62.1211 208.912 63.8223 208.912 66.4121C208.912 69.002 206.678 70.6777 203.402 70.6777C200.102 70.6777 197.867 69.002 197.867 66.4121C197.867 63.8223 200.102 62.1211 203.402 62.1211ZM203.402 63.9746C201.473 63.9746 200.178 64.9141 200.203 66.4121C200.178 67.8848 201.473 68.7988 203.402 68.7988C205.332 68.7988 206.627 67.8848 206.652 66.4121C206.627 64.9141 205.332 63.9746 203.402 63.9746ZM215.438 76.7207V78.6758H200.051V72.0996H202.463V76.7207H215.438ZM237.248 57.4746V59.1758C237.248 60.8516 237.248 62.8574 236.74 65.498H239.889V67.4531H230.646V71.3379H237.35V79.1582H234.938V73.2676H221.201V71.3379H228.234V67.4531H219.068V65.498H234.303C234.836 62.959 234.861 61.0547 234.861 59.4297H221.684V57.4746H237.248ZM247.709 58.1094C250.794 58.1094 253.054 60.7246 253.422 64.9395H258.119V56.4082H260.506V79.209H258.119V66.8945H253.447C253.181 71.3252 250.87 74.0801 247.709 74.0801C244.307 74.0801 241.92 70.9824 241.945 66.082C241.92 61.207 244.307 58.1094 247.709 58.1094ZM247.709 60.2676C245.652 60.2676 244.23 62.502 244.23 66.082C244.23 69.6875 245.652 71.9219 247.709 71.9219C249.766 71.9219 251.188 69.6875 251.188 66.082C251.188 62.502 249.766 60.2676 247.709 60.2676ZM265.381 69.9922C265.406 65.2188 266.752 61.2324 269.139 57.8301H271.627C269.875 60.3438 268.199 65.4727 268.199 69.9922C268.199 74.5371 269.875 79.6406 271.627 82.1797H269.139C266.752 78.7773 265.406 74.791 265.381 69.9922ZM292.523 66.7168V68.6465H284.297V58.4648H292.295V60.4199H286.709V66.7168H292.523ZM294.123 74.3594V76.3145H273.303V74.3594H282.443V69.7383H284.805V74.3594H294.123ZM282.875 58.4902V60.4453H277.441V66.666C279.333 66.6406 281.11 66.4883 283.078 66.0566L283.281 68.0625C280.844 68.5957 278.787 68.6465 276.375 68.6465H275.029V58.4902H282.875ZM314.182 63.0605V64.9902H298.516V57.2207H300.902V63.0605H314.182ZM316.568 67.8594V69.7891H295.748V67.8594H316.568ZM314.334 76.6445V78.625H298.338V71.9473H300.75V76.6445H314.334ZM343.508 56.4082V79.1582H341.07V56.4082H343.508ZM336.729 58.8457C336.729 65.498 333.885 71.2871 326.09 75.0195L324.82 73.0645C330.876 70.1826 333.821 66.082 334.291 60.7754H325.912V58.8457H336.729ZM358.742 58.4141V60.3945H350.465V64.7871H358.285V66.7168H350.465V71.8203C354.261 71.8076 357.066 71.6426 360.367 71.1094L360.596 73.0645C357.092 73.6484 354.045 73.7754 349.855 73.7754H348.027V58.4141H358.742ZM364.785 56.4082V65.3711H368.441V67.4023H364.785V79.1582H362.373V56.4082H364.785ZM394.848 56.4336V73.1406H392.436V64.6094H387.992C387.472 67.3516 385.123 69.2051 382.178 69.2051C378.75 69.2051 376.211 66.8438 376.211 63.5176C376.211 60.1914 378.75 57.8555 382.178 57.8555C385.199 57.8555 387.586 59.7852 388.043 62.6289H392.436V56.4336H394.848ZM395.457 76.7207V78.6758H380.07V71.4395H382.482V76.7207H395.457ZM382.178 59.9629C380.07 59.9629 378.521 61.3848 378.521 63.5176C378.521 65.6504 380.07 67.123 382.178 67.123C384.234 67.123 385.783 65.6504 385.783 63.5176C385.783 61.3848 384.234 59.9629 382.178 59.9629ZM404.521 58.1094C407.606 58.1094 409.866 60.7246 410.234 64.9395H414.932V56.4082H417.318V79.209H414.932V66.8945H410.26C409.993 71.3252 407.683 74.0801 404.521 74.0801C401.119 74.0801 398.732 70.9824 398.758 66.082C398.732 61.207 401.119 58.1094 404.521 58.1094ZM404.521 60.2676C402.465 60.2676 401.043 62.502 401.043 66.082C401.043 69.6875 402.465 71.9219 404.521 71.9219C406.578 71.9219 408 69.6875 408 66.082C408 62.502 406.578 60.2676 404.521 60.2676ZM427.068 69.9922C427.043 74.791 425.697 78.7773 423.311 82.1797H420.822C422.574 79.6406 424.25 74.5371 424.25 69.9922C424.25 65.4727 422.574 60.3438 420.822 57.8301H423.311C425.697 61.2324 427.043 65.2188 427.068 69.9922ZM450.047 58.7188V60.6484H436.488V58.7188H442.074V56.3066H444.486V58.7188H450.047ZM443.268 61.6641C446.543 61.6895 448.777 63.3145 448.777 65.8027C448.777 68.291 446.543 69.9414 443.268 69.9414C439.967 69.9414 437.732 68.291 437.732 65.8027C437.732 63.3145 439.967 61.6895 443.268 61.6641ZM443.268 63.5176C441.338 63.5176 440.043 64.4062 440.068 65.8027C440.043 67.2246 441.338 68.0625 443.268 68.0625C445.197 68.0625 446.492 67.2246 446.518 65.8027C446.492 64.4062 445.197 63.5176 443.268 63.5176ZM454.338 56.4082V62.5781H457.639V64.584H454.338V70.627H451.926V56.4082H454.338ZM454.338 71.7949V79.1582H451.926V73.75H439.307V71.7949H454.338ZM463.885 70.043V72.4551H474.574V70.043H476.986V78.8789H461.498V70.043H463.885ZM463.885 76.9492H474.574V74.334H463.885V76.9492ZM479.678 66.6152V68.6211H458.934V66.6152H479.678ZM470.537 57.627C470.537 60.2422 474.168 62.7812 478.535 63.3145L477.672 65.2188C473.978 64.6982 470.766 62.959 469.318 60.5469C467.833 62.9717 464.608 64.6982 460.965 65.2188L460.051 63.3145C464.469 62.7559 468.074 60.3184 468.074 57.627V56.6621H470.537V57.627ZM491.764 56.7891C496.893 56.7891 499.889 58.1602 499.889 60.6992C499.889 63.2383 496.893 64.6348 491.764 64.6348C486.635 64.6348 483.639 63.2383 483.639 60.6992C483.639 58.1602 486.635 56.7891 491.764 56.7891ZM491.764 58.5664C488.133 58.5664 486.127 59.3535 486.152 60.6992C486.127 62.0957 488.133 62.832 491.764 62.832C495.395 62.832 497.4 62.0957 497.4 60.6992C497.4 59.3535 495.395 58.5664 491.764 58.5664ZM502.148 66.0312V67.9609H481.404V66.0312H502.148ZM499.533 69.7129V75.0449H486.279V77.0762H500.168V78.9297H483.918V73.293H497.146V71.5156H483.893V69.7129H499.533ZM517.688 57.4492C521.115 57.4492 523.604 59.3535 523.604 62.1719C523.604 64.9648 521.115 66.8945 517.688 66.8691C514.26 66.8945 511.822 64.9648 511.822 62.1719C511.822 59.3535 514.26 57.4492 517.688 57.4492ZM517.688 59.4043C515.631 59.4043 514.133 60.4961 514.158 62.1719C514.133 63.8223 515.631 64.9141 517.688 64.8887C519.795 64.9141 521.293 63.8223 521.293 62.1719C521.293 60.4961 519.795 59.4043 517.688 59.4043ZM529.139 56.4336V79.1582H526.752V56.4336H529.139ZM510.197 68.6465C514.387 68.6465 520.201 68.5449 525.178 67.8086L525.355 69.6113C523.286 70.0049 521.128 70.2461 519.033 70.3984V78.4473H516.621V70.5254C514.412 70.627 512.33 70.6396 510.527 70.6523L510.197 68.6465ZM543.941 60.166V62.1211H532.643V60.166H537.111V57.0684H539.498V60.166H543.941ZM538.305 63.4922C541.199 63.4922 543.23 65.6504 543.256 68.7227C543.23 71.8203 541.199 74.0039 538.305 74.0039C535.461 74.0039 533.354 71.8203 533.379 68.7227C533.354 65.6504 535.461 63.4922 538.305 63.4922ZM538.305 65.498C536.654 65.498 535.512 66.8438 535.512 68.7227C535.512 70.6523 536.654 71.9473 538.305 71.9473C539.93 71.9473 541.123 70.6523 541.123 68.7227C541.123 66.8438 539.93 65.498 538.305 65.498ZM552.168 56.4082V79.1582H549.883V67.8594H547.268V78.0918H544.982V56.916H547.268V65.8789H549.883V56.4082H552.168ZM579.387 56.332V61.6641H582.713V63.6445H579.387V68.8496H576.975V56.332H579.387ZM579.387 69.916V75.1973H567.098V77.1016H580.174V78.9297H564.736V73.4961H577V71.7188H564.686V69.916H579.387ZM575.096 58.3379V60.2422H561.537V58.3379H567.123V56.2051H569.535V58.3379H575.096ZM568.316 61.1055C571.643 61.1055 573.826 62.5273 573.826 64.8379C573.826 67.1484 571.643 68.5449 568.316 68.5449C564.965 68.5449 562.781 67.1484 562.781 64.8379C562.781 62.5273 564.965 61.1055 568.316 61.1055ZM568.316 62.832C566.361 62.832 565.092 63.6191 565.117 64.8379C565.092 66.0566 566.361 66.793 568.316 66.793C570.271 66.793 571.541 66.0566 571.566 64.8379C571.541 63.6191 570.271 62.832 568.316 62.832ZM589.137 58.2363C592.133 58.2109 594.088 61.3086 594.088 66.2344C594.088 71.1602 592.133 74.2832 589.137 74.2578C586.166 74.2832 584.236 71.1602 584.236 66.2344C584.236 61.3086 586.166 58.2109 589.137 58.2363ZM589.137 60.4961C587.486 60.4961 586.471 62.6035 586.471 66.2344C586.471 69.8652 587.486 71.9727 589.137 71.9727C590.812 71.9727 591.854 69.8652 591.854 66.2344C591.854 62.6035 590.812 60.4961 589.137 60.4961ZM603.559 56.4082V79.1582H601.248V67.3008H598.43V78.041H596.145V56.8398H598.43V65.3203H601.248V56.4082H603.559ZM624.328 56.332V61.6641H627.654V63.6445H624.328V68.8496H621.916V56.332H624.328ZM624.328 69.916V75.1973H612.039V77.1016H625.115V78.9297H609.678V73.4961H621.941V71.7188H609.627V69.916H624.328ZM620.037 58.3379V60.2422H606.479V58.3379H612.064V56.2051H614.477V58.3379H620.037ZM613.258 61.1055C616.584 61.1055 618.768 62.5273 618.768 64.8379C618.768 67.1484 616.584 68.5449 613.258 68.5449C609.906 68.5449 607.723 67.1484 607.723 64.8379C607.723 62.5273 609.906 61.1055 613.258 61.1055ZM613.258 62.832C611.303 62.832 610.033 63.6191 610.059 64.8379C610.033 66.0566 611.303 66.793 613.258 66.793C615.213 66.793 616.482 66.0566 616.508 64.8379C616.482 63.6191 615.213 62.832 613.258 62.832ZM646.926 58.4141C646.9 61.4355 650.607 64.2793 655.076 64.8633L654.137 66.8438C650.417 66.2471 647.142 64.3174 645.682 61.6387C644.184 64.3301 640.921 66.2471 637.227 66.8438L636.262 64.8633C640.73 64.2793 644.387 61.4609 644.412 58.4141V57.1699H646.926V58.4141ZM656.016 69.0781V71.0586H646.773V79.1582H644.412V71.0586H635.271V69.0781H656.016ZM671.986 71.4395C671.986 73.3945 672.951 75.4639 675.008 76.6953C677.103 75.3623 678.131 73.1787 678.131 71.4395V70.3477H680.492V71.4395C680.492 73.8008 682.041 76.0859 685.012 77.0508L683.818 78.8281C681.571 78.0537 680.048 76.543 679.248 74.6641C678.524 76.5049 677.166 78.168 675.084 79.0312C672.9 78.2061 671.517 76.5938 670.818 74.7402C669.993 76.5303 668.495 78.041 666.35 78.8281L665.131 77.0508C668.051 76.0098 669.625 73.6484 669.65 71.4395V70.3477H671.986V71.4395ZM682.955 56.4336V69.3828H680.543V56.4336H682.955ZM670.615 57.6777C674.094 57.6777 676.658 59.8867 676.658 63.0605C676.658 66.209 674.094 68.3926 670.615 68.3926C667.137 68.3926 664.547 66.209 664.547 63.0605C664.547 59.8867 667.137 57.6777 670.615 57.6777ZM670.615 59.7344C668.457 59.709 666.908 61.0547 666.908 63.0605C666.908 65.041 668.457 66.3867 670.615 66.3867C672.748 66.3867 674.297 65.041 674.297 63.0605C674.297 61.0547 672.748 59.709 670.615 59.7344ZM704.969 63.0605V64.9902H689.303V57.2207H691.689V63.0605H704.969ZM707.355 67.8594V69.7891H686.535V67.8594H707.355ZM705.121 76.6445V78.625H689.125V71.9473H691.537V76.6445H705.121ZM131.191 100.197C131.166 104.361 133.68 108.525 137.209 110.1L135.762 112.004C133.146 110.76 131.077 108.208 130.023 105.098C128.957 108.424 126.862 111.179 124.133 112.512L122.66 110.48C126.24 108.881 128.754 104.539 128.754 100.197V96.3125H131.191V100.197ZM141.678 94.4082V117.209H139.266V94.4082H141.678ZM163.184 94.4082V101.137H166.484V103.143H163.184V110.938H160.746V94.4082H163.184ZM157.014 96.1348C157.014 102.102 152.951 106.443 146.299 108.449L145.283 106.52C150.603 104.92 153.916 101.898 154.398 98.1406H146.248V96.1348H157.014ZM164.123 114.721V116.676H148.736V109.236H151.174V114.721H164.123ZM188.523 106.291V108.221H167.779V106.291H188.523ZM186.188 114.721V116.676H170.395V110.074H172.832V114.721H186.188ZM178.139 95.1699C183.064 95.1445 186.264 96.8711 186.264 99.7148C186.264 102.584 183.064 104.311 178.139 104.336C173.188 104.311 170.014 102.584 170.014 99.7148C170.014 96.8711 173.188 95.1445 178.139 95.1699ZM178.139 97.0996C174.66 97.0996 172.477 98.0898 172.502 99.7148C172.477 101.391 174.66 102.355 178.139 102.355C181.617 102.355 183.775 101.391 183.775 99.7148C183.775 98.0898 181.617 97.0996 178.139 97.0996ZM215.691 96.0586V98.0137H213.508V104.895C214.473 104.818 215.399 104.729 216.301 104.615L216.402 106.443C212.035 107.129 206.932 107.205 203.275 107.205L202.971 105.199L205.738 105.174V98.0137H203.605V96.0586H215.691ZM221.912 94.4082V108.398H219.5V104.438H216.021V102.508H219.5V100.299H216.021V98.3691H219.5V94.4082H221.912ZM214.295 108.83C219.094 108.83 221.988 110.328 221.988 112.994C221.988 115.584 219.094 117.133 214.295 117.107C209.496 117.133 206.576 115.584 206.602 112.994C206.576 110.328 209.496 108.83 214.295 108.83ZM214.295 110.709C210.943 110.709 208.988 111.521 208.988 112.994C208.988 114.441 210.943 115.254 214.295 115.254C217.621 115.254 219.602 114.441 219.602 112.994C219.602 111.521 217.621 110.709 214.295 110.709ZM208.074 105.148C209.103 105.123 210.144 105.085 211.197 105.021V98.0137H208.074V105.148ZM243.596 95.6016V97.4043C243.596 99.2197 243.596 101.327 243.088 104.082H246.236V106.037H240.625V111.369H238.289V106.037H234.684V111.369H232.322V106.037H225.416V104.082H240.676C241.196 101.353 241.209 99.3213 241.209 97.5312H228.006V95.6016H243.596ZM244.205 114.721V116.676H227.854V109.465H230.266V114.721H244.205ZM256.037 98.4453C256.037 101.314 258.094 104.133 261.521 105.301L260.277 107.18C257.726 106.291 255.834 104.476 254.844 102.229C253.854 104.729 251.86 106.735 249.156 107.688L247.912 105.783C251.416 104.59 253.574 101.543 253.574 98.4707V97.8359H248.648V95.8809H260.912V97.8359H256.037V98.4453ZM266.854 109.16V117.158H264.441V111.115H251.441V109.16H266.854ZM266.854 94.4082V108.018H264.441V102.178H260.227V100.197H264.441V94.4082H266.854ZM280.717 95.7793C285.49 95.7793 289.121 98.293 289.121 102.127C289.121 105.961 285.49 108.5 280.717 108.475C275.943 108.5 272.338 105.961 272.338 102.127C272.338 98.293 275.943 95.7793 280.717 95.7793ZM280.717 97.7344C277.238 97.709 274.623 99.4863 274.648 102.127C274.623 104.793 277.238 106.494 280.717 106.494C284.195 106.494 286.785 104.793 286.785 102.127C286.785 99.4863 284.195 97.709 280.717 97.7344ZM291.178 112.207V114.213H270.357V112.207H291.178ZM313.648 112.41V114.441H292.828V112.41H301.994V108.424H295.367V101.188H308.723V97.9883H295.316V96.0078H311.109V103.117H297.754V106.443H311.643V108.424H304.381V112.41H313.648ZM340.588 94.4082V105.91H338.201V101.289H333.758C333.263 103.828 330.965 105.529 327.943 105.529C324.49 105.529 321.977 103.371 321.977 100.299C321.977 97.2773 324.49 95.1445 327.943 95.1445C330.965 95.1445 333.263 96.8203 333.758 99.3086H338.201V94.4082H340.588ZM327.943 97.125C325.811 97.0996 324.287 98.4199 324.287 100.299C324.287 102.254 325.811 103.549 327.943 103.549C330.025 103.549 331.549 102.254 331.549 100.299C331.549 98.4199 330.025 97.0996 327.943 97.125ZM340.588 107.104V112.766H328.172V114.949H341.4V116.879H325.76V110.963H338.201V108.982H325.709V107.104H340.588ZM355.619 96.668V111.445H344.98V96.668H355.619ZM347.342 98.5723V109.49H353.232V98.5723H347.342ZM361.84 94.4082V103.32H365.496V105.352H361.84V117.158H359.428V94.4082H361.84ZM387.84 103.346V105.326H384.311V117.133H381.898V94.4082H384.311V103.346H387.84ZM369.838 96.6172V109.414C373.012 109.414 376.325 109.147 379.943 108.398L380.223 110.43C376.338 111.217 372.732 111.42 369.33 111.42H367.451V96.6172H369.838ZM408.66 101.695V103.65H404.217V106.52C406.235 106.431 408.241 106.291 410.107 106.088L410.285 107.865C405.436 108.525 400.104 108.652 395.838 108.652L395.508 106.723C397.45 106.71 399.621 106.685 401.83 106.621V103.65H397.539V95.8555H408.457V97.8105H399.951V101.695H408.66ZM414.271 94.4082V111.471H411.859V94.4082H414.271ZM414.982 114.721V116.676H399.266V110.252H401.678V114.721H414.982ZM435.6 94.4082V103.219H439.256V105.199H435.6V117.209H433.188V94.4082H435.6ZM429.48 96.5918V98.5469H421.254V109.541C425.075 109.528 427.944 109.363 431.182 108.779L431.486 110.811C427.932 111.445 424.91 111.572 420.67 111.547H418.842V96.5918H429.48ZM458.756 96.5918V98.8262C458.756 101.645 458.756 104.793 457.893 109.439L455.455 109.186C456.344 104.793 456.344 101.568 456.344 98.8262V98.5469H442.531V96.5918H458.756ZM461.092 112.08V114.086H440.348V112.08H448.244V104.057H450.631V112.08H461.092ZM476.123 98.7754C476.123 101.264 477.723 103.777 480.668 104.895L479.398 106.748C477.278 105.936 475.793 104.387 474.98 102.508C474.143 104.628 472.581 106.469 470.385 107.408L469.064 105.529C472.137 104.184 473.787 101.314 473.787 98.7754V95.8301H476.123V98.7754ZM488.564 94.4336V108.424H486.279V102.33H483.613V107.713H481.379V94.8398H483.613V100.35H486.279V94.4336H488.564ZM480.947 108.855C485.695 108.855 488.666 110.404 488.691 112.994C488.666 115.584 485.695 117.133 480.947 117.107C476.199 117.133 473.229 115.584 473.254 112.994C473.229 110.404 476.199 108.855 480.947 108.855ZM480.947 110.709C477.646 110.709 475.615 111.547 475.641 112.994C475.615 114.441 477.646 115.279 480.947 115.254C484.248 115.279 486.254 114.441 486.279 112.994C486.254 111.547 484.248 110.709 480.947 110.709ZM509.512 94.4082V100.02H512.812V102.051H509.512V107.713H507.1V94.4082H509.512ZM503.215 95.8047C503.215 101.67 499.254 105.758 492.5 107.51L491.51 105.656C496.969 104.234 500.206 101.353 500.625 97.7598H492.602V95.8047H503.215ZM509.512 108.703V117.158H507.1V110.658H494.48V108.703H509.512ZM531.83 94.4082V103.625H535.486V105.631H531.83V117.158H529.443V94.4082H531.83ZM527.463 97.9629V99.9434H513.98V97.9629H519.592V94.7129H522.004V97.9629H527.463ZM520.811 101.619C524.061 101.619 526.447 103.803 526.473 106.9C526.447 110.023 524.061 112.182 520.811 112.207C517.535 112.182 515.148 110.023 515.148 106.9C515.148 103.803 517.535 101.619 520.811 101.619ZM520.811 103.6C518.881 103.6 517.434 104.945 517.459 106.9C517.434 108.881 518.881 110.201 520.811 110.176C522.74 110.201 524.162 108.881 524.162 106.9C524.162 104.945 522.74 103.6 520.811 103.6ZM544.855 97.2773C544.83 100.273 547.039 103.041 550.518 104.133L549.35 106.012C546.671 105.148 544.678 103.358 543.637 101.061C542.608 103.536 540.577 105.504 537.848 106.418L536.654 104.514C540.209 103.346 542.393 100.4 542.393 97.2773V95.1445H544.855V97.2773ZM555.443 94.4082V106.621H553.031V94.4082H555.443ZM542.926 107.713V110.277H553.057V107.713H555.443V116.879H540.564V107.713H542.926ZM542.926 114.898H553.057V112.182H542.926V114.898ZM577.939 94.4082V117.158H575.527V94.4082H577.939ZM562.832 96.6172V109.287C566.146 109.262 569.637 108.995 573.293 108.246L573.623 110.277C569.586 111.09 565.93 111.369 562.35 111.369H560.445V96.6172H562.832ZM599.598 94.4082V103.65H602.898V105.631H599.598V117.158H597.186V94.4082H599.598ZM588.375 96.8457C588.375 102.533 587.334 107.713 583.221 112.105L581.316 110.76C584.643 107.307 585.849 103.384 586.09 98.8262H582.129V96.8457H588.375ZM594.646 96.8457C594.646 102.609 593.936 108.652 589.746 113.604L587.816 112.283C591.193 108.335 592.209 103.688 592.387 98.8262H589.111V96.8457H594.646ZM607.723 109.541C607.748 106.215 608.738 105.199 610.414 104.158C611.48 103.498 612.293 102.584 612.293 101.238C612.293 99.6387 611.074 98.6484 609.551 98.6484C608.18 98.6484 606.859 99.4863 606.732 101.365H603.99C604.092 98.1406 606.529 96.3633 609.551 96.3633C612.852 96.3633 615.061 98.3438 615.061 101.238C615.061 103.27 614.096 104.641 612.471 105.631C610.947 106.545 610.363 107.484 610.312 109.541V109.693H607.723V109.541ZM609.119 115.178C608.129 115.178 607.291 114.365 607.316 113.375C607.291 112.385 608.129 111.572 609.119 111.572C610.084 111.572 610.922 112.385 610.922 113.375C610.922 114.365 610.084 115.178 609.119 115.178Z" fill="black"/>
<circle cx="67" cy="74" r="22" fill="#FF577C"/>
<path d="M60.1934 79.5723V76.9316L68.1406 64.6172H72.2539V76.8555H74.666V79.5723H72.2539V83H69.1055V79.5723H60.1934ZM63.5703 76.8555H69.1562V68.375H68.9531L63.5703 76.7285V76.8555Z" fill="white"/>
<defs>
<linearGradient id="paint0_linear_553_8621" x1="46.6825" y1="22.2919" x2="770.435" y2="561.972" gradientUnits="userSpaceOnUse">
<stop stop-color="#FF577C"/>
<stop offset="1" stop-color="#66B8FB"/>
</linearGradient>
</defs>
</svg>
