<svg width="784" height="589" viewBox="0 0 784 589" fill="none" xmlns="http://www.w3.org/2000/svg">
<rect x="2" y="2" width="780" height="585" rx="50" stroke="url(#paint0_linear_553_8547)" stroke-width="3"/>
<path d="M140.713 59.4336V66.7461H144.014V68.752H140.713V76.4453H138.301V59.4336H140.713ZM122.863 64.0293V62.0742H128.449V59.4082H130.861V62.0742H136.422V64.0293H122.863ZM124.107 69.4121C124.095 66.8096 126.342 65.1084 129.643 65.1211C132.905 65.1084 135.152 66.8096 135.152 69.4121C135.152 71.9893 132.905 73.665 129.643 73.6777C126.342 73.665 124.095 71.9893 124.107 69.4121ZM126.291 81.6758V75.0996H128.703V79.7207H141.678V81.6758H126.291ZM126.443 69.4121C126.418 70.8975 127.713 71.8115 129.643 71.7988C131.572 71.8115 132.867 70.8975 132.893 69.4121C132.867 67.9141 131.572 66.9873 129.643 66.9746C127.713 66.9873 126.418 67.9141 126.443 69.4121ZM163.488 60.4746V62.1758C163.501 63.8516 163.501 65.8574 162.968 68.498H166.129V70.4531H156.887V74.3379H163.59V82.1582H161.178V76.2676H147.441V74.3379H154.475V70.4531H145.309V68.498H160.543C161.076 65.9463 161.102 64.0547 161.102 62.4297H147.924V60.4746H163.488ZM173.949 61.1094C177.047 61.1221 179.294 63.7373 179.662 67.9395H184.359V59.4082H186.746V82.209H184.359V69.8945H179.688C179.421 74.3379 177.123 77.0928 173.949 77.0801C170.56 77.0928 168.16 73.9951 168.186 69.082C168.16 64.2197 170.56 61.1221 173.949 61.1094ZM170.471 69.082C170.483 72.7002 171.893 74.9219 173.949 74.9219C176.006 74.9219 177.415 72.7002 177.428 69.082C177.415 65.5146 176.006 63.2803 173.949 63.2676C171.893 63.2803 170.483 65.5146 170.471 69.082ZM191.621 72.9922C191.646 68.2061 193.005 64.2324 195.379 60.8301H197.867C196.115 63.3438 194.439 68.46 194.439 72.9922C194.439 77.5371 196.115 82.6533 197.867 85.1797H195.379C193.005 81.7646 191.646 77.791 191.621 72.9922ZM218.764 69.7168V71.6465H210.537V61.4648H218.535V63.4199H212.949V69.7168H218.764ZM199.543 79.3145V77.3594H208.684V72.7383H211.045V77.3594H220.363V79.3145H199.543ZM201.27 71.6465V61.4902H209.115V63.4453H203.682V69.666C205.573 69.6406 207.351 69.501 209.318 69.0566L209.521 71.0625C207.084 71.5957 205.027 71.6592 202.615 71.6465H201.27ZM240.422 66.0605V67.9902H224.756V60.2207H227.143V66.0605H240.422ZM221.988 72.7891V70.8594H242.809V72.7891H221.988ZM224.578 81.625V74.9473H226.99V79.6445H240.574V81.625H224.578ZM269.748 59.4082V82.1582H267.311V59.4082H269.748ZM251.061 76.0645C257.104 73.1826 260.062 69.082 260.531 63.7754H252.152V61.8457H262.969C262.969 68.5107 260.138 74.2744 252.33 78.0195L251.061 76.0645ZM284.982 61.4141V63.3945H276.705V67.7871H284.525V69.7168H276.705V74.8203C280.501 74.7949 283.319 74.6553 286.607 74.1094L286.836 76.0645C283.319 76.6484 280.298 76.7627 276.096 76.7754H274.268V61.4141H284.982ZM288.613 82.1582V59.4082H291.025V68.3711H294.682V70.4023H291.025V82.1582H288.613ZM321.088 59.4336V76.1406H318.676V67.6094H314.232C313.725 70.3389 311.363 72.2051 308.418 72.2051C304.99 72.2051 302.438 69.8311 302.451 66.5176C302.438 63.1914 304.99 60.8555 308.418 60.8555C311.439 60.8555 313.839 62.7852 314.271 65.6289H318.676V59.4336H321.088ZM304.762 66.5176C304.749 68.6504 306.323 70.1104 308.418 70.123C310.462 70.1104 312.023 68.6504 312.023 66.5176C312.023 64.3848 310.462 62.9756 308.418 62.9629C306.323 62.9756 304.749 64.3848 304.762 66.5176ZM306.311 81.6758V74.4395H308.723V79.7207H321.697V81.6758H306.311ZM330.762 61.1094C333.859 61.1221 336.106 63.7373 336.475 67.9395H341.172V59.4082H343.559V82.209H341.172V69.8945H336.5C336.233 74.3379 333.936 77.0928 330.762 77.0801C327.372 77.0928 324.973 73.9951 324.998 69.082C324.973 64.2197 327.372 61.1221 330.762 61.1094ZM327.283 69.082C327.296 72.7002 328.705 74.9219 330.762 74.9219C332.818 74.9219 334.228 72.7002 334.24 69.082C334.228 65.5146 332.818 63.2803 330.762 63.2676C328.705 63.2803 327.296 65.5146 327.283 69.082ZM353.309 72.9922C353.283 77.791 351.925 81.7646 349.551 85.1797H347.062C348.814 82.6533 350.49 77.5371 350.49 72.9922C350.49 68.46 348.814 63.3438 347.062 60.8301H349.551C351.925 64.2324 353.283 68.2061 353.309 72.9922ZM376.287 61.7188V63.6484H362.729V61.7188H368.314V59.3066H370.727V61.7188H376.287ZM363.973 68.8027C363.96 66.3145 366.22 64.6895 369.508 64.6641C372.783 64.6895 375.018 66.3145 375.018 68.8027C375.018 71.3037 372.783 72.9414 369.508 72.9414C366.22 72.9414 363.96 71.3037 363.973 68.8027ZM365.547 76.75V74.7949H380.578V82.1582H378.166V76.75H365.547ZM366.309 68.8027C366.283 70.2119 367.578 71.0625 369.508 71.0625C371.438 71.0625 372.732 70.2119 372.758 68.8027C372.732 67.4062 371.438 66.5303 369.508 66.5176C367.578 66.5303 366.283 67.4062 366.309 68.8027ZM378.166 73.627V59.4082H380.578V65.5781H383.879V67.584H380.578V73.627H378.166ZM390.125 73.043V75.4551H400.814V73.043H403.227V81.8789H387.738V73.043H390.125ZM385.174 71.6211V69.6152H405.918V71.6211H385.174ZM386.291 66.3145C390.696 65.7432 394.302 63.3184 394.314 60.627V59.6621H396.777V60.627C396.79 63.2422 400.421 65.7812 404.775 66.3145L403.912 68.2188C400.23 67.7109 397.019 65.959 395.559 63.5342C394.086 65.9717 390.861 67.7109 387.205 68.2188L386.291 66.3145ZM390.125 79.9492H400.814V77.334H390.125V79.9492ZM419.4 60.6777C422.447 60.6523 424.631 62.7852 424.631 65.8574C424.631 68.9043 422.447 71.0498 419.4 71.0371C416.341 71.0498 414.183 68.9043 414.195 65.8574C414.183 62.7852 416.341 60.6523 419.4 60.6777ZM416.354 65.8574C416.341 67.7617 417.636 69.0439 419.4 69.0566C421.152 69.0439 422.422 67.7617 422.447 65.8574C422.422 63.915 421.152 62.6201 419.4 62.6328C417.636 62.6201 416.341 63.915 416.354 65.8574ZM418.207 81.8789V72.7891H420.594V75.2773H431.029V72.7891H433.391V81.8789H418.207ZM420.594 79.9238H431.029V77.2324H420.594V79.9238ZM426.205 71.6465V59.8398H428.439V64.4863H431.105V59.4336H433.391V71.7988H431.105V66.4922H428.439V71.6465H426.205ZM456.039 59.4082V82.1582H453.729V59.4082H456.039ZM436.717 69.2344C436.717 64.3086 438.646 61.2236 441.617 61.2363C444.385 61.2236 446.251 63.8516 446.53 68.1172H449.107V59.8398H451.418V81.041H449.107V70.0723H446.543C446.327 74.5156 444.436 77.2705 441.617 77.2578C438.646 77.2705 436.717 74.1729 436.717 69.2344ZM438.951 69.2344C438.951 72.8525 439.979 74.9854 441.617 74.9727C443.293 74.9854 444.334 72.8525 444.334 69.2344C444.334 65.6035 443.293 63.4834 441.617 63.4961C439.979 63.4834 438.951 65.6035 438.951 69.2344ZM483.766 60.3984V61.5156C483.766 62.9629 483.766 65.2734 483.105 68.3203L480.744 68.041C481.29 65.5527 481.379 63.6992 481.417 62.3281H475.92V60.3984H483.766ZM465.307 72.0273V70.0723H474.904V65.6797H477.291V70.0723H486V72.0273H465.307ZM467.059 62.3281V60.3984H474.066V61.2363C474.041 62.5947 474.041 65.0449 472.949 68.3457L470.639 68.0156C471.438 65.4893 471.629 63.6357 471.68 62.3281H467.059ZM467.566 76.2168V74.2617H483.436V82.0312H480.973V76.2168H467.566ZM513.016 59.4082V71.1641H510.578V59.4082H513.016ZM494.48 68.5488C495.344 68.5488 496.283 68.5361 497.248 68.5234V62.8105H495.09V60.9062H507.455V62.8105H505.271V68.1934C506.376 68.1172 507.468 68.0156 508.496 67.8887L508.598 69.6406C504.053 70.3262 498.759 70.4912 494.76 70.4785L494.48 68.5488ZM497.908 74.1094V72.2051H513.016V77.8418H500.346V80H513.803V81.9297H497.984V76.0898H510.629V74.1094H497.908ZM499.559 68.4727C500.676 68.4346 501.818 68.3965 502.961 68.333V62.8105H499.559V68.4727ZM537.391 77.3086V79.3145H516.57V77.3086H521.547V71.3672C519.681 70.3389 518.538 68.7139 518.551 66.6699C518.538 63.0898 522.055 60.7412 526.93 60.7285C531.817 60.7412 535.334 63.0898 535.334 66.6699C535.334 68.6758 534.242 70.2881 532.414 71.3164V77.3086H537.391ZM520.887 66.6699C520.887 69.1074 523.362 70.6943 526.93 70.707C530.472 70.6943 532.985 69.1074 532.998 66.6699C532.985 64.2197 530.472 62.6582 526.93 62.6582C523.362 62.6582 520.887 64.2197 520.887 66.6699ZM523.934 77.3086H529.977V72.2559C529.05 72.4717 528.021 72.5859 526.93 72.5859C525.863 72.5859 524.848 72.4717 523.934 72.2559V77.3086ZM556.764 59.4082V68.625H560.42V70.6309H556.764V82.1582H554.377V59.4082H556.764ZM538.914 64.9434V62.9629H544.525V59.7129H546.938V62.9629H552.396V64.9434H538.914ZM540.082 71.9004C540.082 68.8027 542.469 66.6191 545.744 66.6191C549.007 66.6191 551.394 68.8027 551.406 71.9004C551.394 75.0234 549.007 77.1943 545.744 77.207C542.469 77.1943 540.082 75.0234 540.082 71.9004ZM542.393 71.9004C542.38 73.8809 543.802 75.2012 545.744 75.1758C547.674 75.2012 549.083 73.8809 549.096 71.9004C549.083 69.958 547.674 68.6123 545.744 68.5996C543.802 68.6123 542.38 69.958 542.393 71.9004ZM579.234 59.4082V68.2188H582.891V70.1992H579.234V82.209H576.822V59.4082H579.234ZM562.477 76.5469V61.5918H573.115V63.5469H564.889V74.541C568.71 74.5283 571.566 74.3633 574.816 73.7793L575.121 75.8105C571.554 76.4453 568.532 76.5596 564.305 76.5469H562.477ZM602.391 61.5918V63.8262C602.378 66.6318 602.378 69.7803 601.527 74.4395L599.09 74.1855C599.966 69.7803 599.966 66.5557 599.979 63.8262V63.5469H586.166V61.5918H602.391ZM583.982 79.0859V77.0801H591.879V69.0566H594.266V77.0801H604.727V79.0859H583.982ZM619.758 63.7754C619.758 66.2637 621.345 68.7773 624.303 69.8945L623.033 71.748C620.913 70.9355 619.428 69.3867 618.615 67.5205C617.777 69.6279 616.229 71.4561 614.02 72.4082L612.699 70.5293C615.771 69.1963 617.422 66.3018 617.422 63.7754V60.8301H619.758V63.7754ZM616.889 77.9941C616.863 75.4043 619.821 73.8682 624.582 73.8555C629.33 73.8682 632.313 75.4043 632.326 77.9941C632.313 80.584 629.33 82.1201 624.582 82.1074C619.821 82.1201 616.863 80.584 616.889 77.9941ZM619.275 77.9941C619.25 79.4414 621.269 80.2793 624.582 80.2539C627.883 80.2793 629.901 79.4414 629.914 77.9941C629.901 76.5342 627.883 75.6963 624.582 75.709C621.269 75.6963 619.25 76.5342 619.275 77.9941ZM625.014 72.7129V59.8398H627.248V65.3496H629.914V59.4336H632.199V73.4238H629.914V67.3301H627.248V72.7129H625.014ZM653.146 59.4082V65.0195H656.447V67.0508H653.146V72.7129H650.734V59.4082H653.146ZM635.145 70.6562C640.604 69.2217 643.841 66.3398 644.26 62.7598H636.236V60.8047H646.85C646.837 66.6572 642.889 70.7705 636.135 72.5098L635.145 70.6562ZM638.115 75.6582V73.7031H653.146V82.1582H650.734V75.6582H638.115ZM140.561 97.4082V106.625H144.217V108.631H140.561V120.158H138.174V97.4082H140.561ZM122.711 102.943V100.963H128.322V97.7129H130.734V100.963H136.193V102.943H122.711ZM123.879 109.9C123.879 106.803 126.266 104.619 129.541 104.619C132.804 104.619 135.19 106.803 135.203 109.9C135.19 113.023 132.804 115.194 129.541 115.207C126.266 115.194 123.879 113.023 123.879 109.9ZM126.189 109.9C126.177 111.881 127.599 113.201 129.541 113.176C131.471 113.201 132.88 111.881 132.893 109.9C132.88 107.958 131.471 106.612 129.541 106.6C127.599 106.612 126.177 107.958 126.189 109.9ZM163.717 104.061V105.99H148.051V98.2207H150.438V104.061H163.717ZM145.283 110.789V108.859H166.104V110.789H145.283ZM147.873 119.625V112.947H150.285V117.645H163.869V119.625H147.873ZM193.043 97.4082V120.158H190.605V97.4082H193.043ZM174.355 114.064C180.398 111.183 183.356 107.082 183.826 101.775H175.447V99.8457H186.264C186.264 106.511 183.433 112.274 175.625 116.02L174.355 114.064ZM214.98 103.553V105.508H199.365V97.8145H201.752V103.553H214.98ZM196.598 109.9V107.92H217.367V109.9H196.598ZM199.061 115.893C199.061 113.239 202.019 111.741 206.957 111.754C211.857 111.741 214.79 113.239 214.803 115.893C214.79 118.559 211.857 120.057 206.957 120.057C202.019 120.057 199.061 118.559 199.061 115.893ZM201.498 115.893C201.485 117.353 203.479 118.19 206.957 118.203C210.385 118.19 212.391 117.353 212.391 115.893C212.391 114.42 210.385 113.646 206.957 113.633C203.479 113.646 201.485 114.42 201.498 115.893ZM237.908 97.4082V120.209H235.496V97.4082H237.908ZM219.855 107.082C219.855 102.22 222.306 99.1221 225.746 99.1094C229.123 99.1221 231.611 102.22 231.611 107.082C231.611 111.995 229.123 115.093 225.746 115.08C222.306 115.093 219.855 111.995 219.855 107.082ZM222.191 107.082C222.179 110.7 223.626 112.922 225.746 112.922C227.828 112.922 229.275 110.7 229.275 107.082C229.275 103.515 227.828 101.28 225.746 101.268C223.626 101.28 222.179 103.515 222.191 107.082ZM262.791 106.346V108.326H259.262V120.133H256.85V97.4082H259.262V106.346H262.791ZM242.402 114.42V99.6172H244.789V112.414C247.963 112.401 251.276 112.135 254.895 111.398L255.174 113.43C251.276 114.204 247.696 114.433 244.281 114.42H242.402ZM288.588 98.4238V100.43C288.588 102.575 288.588 104.86 287.953 107.971L285.566 107.768C285.82 106.536 285.985 105.444 286.074 104.429L272.541 105.051L272.211 103.02L286.176 102.639C286.201 101.864 286.201 101.141 286.201 100.43V100.379H272.795V98.4238H288.588ZM270.383 111.297V109.367H278.584V106.168H281.021V109.367H291.076V111.297H270.383ZM272.947 119.803V113.049H275.359V117.848H289.07V119.803H272.947ZM312.227 97.4336V114.445H309.941V97.4336H312.227ZM293.844 110.865V99.2363H302.502V101.191H296.154V104.035H301.613V105.914H296.154V108.885C299.163 108.872 301.131 108.796 303.467 108.326L303.695 110.256C301.08 110.751 298.909 110.853 295.316 110.865H293.844ZM297.246 119.676V112.566H299.684V117.721H312.887V119.676H297.246ZM302.654 105.736V103.781H305.473V97.8652H307.758V113.887H305.473V105.736H302.654ZM336.119 115.334V117.314H315.299V115.334H336.119ZM316.391 109.85C320.999 109.101 324.351 106.27 324.465 102.867H317.178V100.912H324.49V97.8906H326.877V100.912H334.189V102.867H326.902C327.017 106.27 330.343 109.101 335.002 109.85L334.037 111.779C330.267 111.094 327.144 109.177 325.671 106.396C324.211 109.177 321.088 111.094 317.33 111.779L316.391 109.85ZM358.564 107.844V109.697H337.744V107.844H358.564ZM340.207 113.023V111.297H356V116.299H342.645V118.178H356.711V119.879H340.232V114.699H353.613V113.023H340.207ZM340.359 99.6934V97.9922H355.949V102.918H342.797V104.645H356.33V106.346H340.41V101.318H353.537V99.6934H340.359ZM384.463 97.4082V102.156H387.764V104.162H384.463V108.91H382.051V97.4082H384.463ZM366.943 103.273C366.918 100.265 369.47 98.208 372.91 98.1953C376.363 98.208 378.877 100.265 378.877 103.273C378.877 106.257 376.363 108.352 372.91 108.352C369.47 108.352 366.918 106.257 366.943 103.273ZM369.279 103.273C369.267 105.127 370.815 106.422 372.91 106.422C375.005 106.422 376.541 105.127 376.541 103.273C376.541 101.42 375.005 100.163 372.91 100.176C370.815 100.163 369.267 101.42 369.279 103.273ZM369.762 111.83V109.951H384.463V115.715H372.174V117.949H385.25V119.879H369.812V113.912H382.076V111.83H369.762ZM408 97.4082V120.209H405.613V110.688H401.17V108.682H405.613V104.467H401.297V102.486H405.613V97.4082H408ZM389.846 101.369V99.4141H399.926V107.717H392.309V112.947C395.521 112.935 398.237 112.782 401.475 112.312L401.678 114.293C398.123 114.852 395.216 114.953 391.623 114.953H389.896V105.812H397.564V101.369H389.846ZM432.273 110.23V112.186H423.031V120.133H420.67V112.186H411.529V110.23H432.273ZM412.697 106.6C416.938 106.016 420.467 103.489 420.543 100.684H413.459V98.7539H430.318V100.684H423.285C423.323 103.489 426.827 106.016 431.131 106.6L430.242 108.504C426.51 107.92 423.285 106.079 421.901 103.489C420.505 106.079 417.293 107.92 413.611 108.504L412.697 106.6ZM440.932 103.629C440.932 107.26 442.455 111.132 445.502 112.998L444.156 114.852C442.023 113.569 440.589 111.297 439.802 108.669C438.977 111.551 437.402 114.014 435.193 115.359L433.695 113.557C436.907 111.627 438.608 107.603 438.596 103.73V99.4902H440.932V103.629ZM443.039 107.412V105.406H446.568V97.8398H448.854V119.041H446.568V107.412H443.039ZM451.266 120.158V97.4082H453.576V120.158H451.266ZM477.291 115.309V117.314H456.471V115.309H461.447V109.367C459.581 108.339 458.438 106.714 458.451 104.67C458.438 101.09 461.955 98.7412 466.83 98.7285C471.718 98.7412 475.234 101.09 475.234 104.67C475.234 106.676 474.143 108.288 472.314 109.316V115.309H477.291ZM460.787 104.67C460.787 107.107 463.263 108.694 466.83 108.707C470.372 108.694 472.886 107.107 472.898 104.67C472.886 102.22 470.372 100.658 466.83 100.658C463.263 100.658 460.787 102.22 460.787 104.67ZM463.834 115.309H469.877V110.256C468.95 110.472 467.922 110.586 466.83 110.586C465.764 110.586 464.748 110.472 463.834 110.256V115.309ZM481.531 118.178C480.541 118.165 479.716 117.365 479.729 116.375C479.716 115.385 480.541 114.572 481.531 114.572C482.509 114.572 483.321 115.385 483.334 116.375C483.321 117.365 482.509 118.165 481.531 118.178Z" fill="black"/>
<path d="M125.773 181.883V184.742H131.281V181.883H133.484V191.047H123.594V181.883H125.773ZM125.773 189.266H131.281V186.453H125.773V189.266ZM139.273 180.992V185.398H142.32V187.203H139.273V191.797H137.047V180.992H139.273ZM139.273 192.711V198.008H127.93V200H140V201.781H125.75V196.367H137.07V194.469H125.703V192.711H139.273ZM153.078 181.438C157.695 181.438 160.578 182.938 160.578 185.469C160.578 187.953 157.695 189.43 153.078 189.43C148.484 189.43 145.578 187.953 145.578 185.469C145.578 182.938 148.484 181.438 153.078 181.438ZM153.078 183.195C149.844 183.195 147.852 184.016 147.875 185.469C147.852 186.875 149.844 187.672 153.078 187.695C156.289 187.672 158.281 186.875 158.281 185.469C158.281 184.016 156.289 183.195 153.078 183.195ZM160.32 194.727V201.734H145.812V194.727H160.32ZM148.016 196.508V199.93H158.164V196.508H148.016ZM162.664 191.047V192.852H143.516V191.047H162.664ZM187.625 181.016V196.484H185.398V191.023H180.195C179.199 192.207 177.676 192.922 175.93 192.922C172.766 192.922 170.422 190.719 170.422 187.625C170.422 184.508 172.766 182.305 175.93 182.281C177.664 182.293 179.176 183.008 180.172 184.18H185.398V181.016H187.625ZM188.188 199.742V201.547H173.984V194.867H176.211V199.742H188.188ZM175.93 184.273C173.961 184.273 172.555 185.633 172.555 187.625C172.555 189.617 173.961 190.953 175.93 190.953C177.828 190.953 179.258 189.617 179.258 187.625C179.258 185.633 177.828 184.273 175.93 184.273ZM181.156 185.984C181.297 186.488 181.391 187.039 181.391 187.625C181.391 188.188 181.309 188.727 181.156 189.219H185.398V185.984H181.156ZM195.43 193.578V195.805H205.297V193.578H207.523V201.734H193.227V193.578H195.43ZM195.43 199.953H205.297V197.539H195.43V199.953ZM210.008 190.414V192.266H190.859V190.414H210.008ZM201.57 182.117C201.57 184.531 204.922 186.875 208.953 187.367L208.156 189.125C204.746 188.645 201.781 187.039 200.445 184.812C199.074 187.051 196.098 188.645 192.734 189.125L191.891 187.367C195.969 186.852 199.297 184.602 199.297 182.117V181.227H201.57V182.117ZM218.82 182.234L213.359 202.555H211.133L216.594 182.234H218.82ZM242.844 183.008V185.258C242.82 187.906 242.82 190.672 242.07 194.68L239.891 194.445C240.617 190.648 240.617 187.836 240.617 185.258V184.812H227.75V183.008H242.844ZM244.93 197.305V199.156H225.781V197.305H230.305V190.508H232.531V197.305H235.555V190.508H237.734V197.305H244.93ZM264.031 180.992V193.484H261.805V188.164H257.891V186.336H261.805V180.992H264.031ZM257 194.07C261.406 194.07 264.102 195.523 264.102 198.031C264.102 200.539 261.406 201.969 257 201.992C252.594 201.969 249.875 200.539 249.898 198.031C249.875 195.523 252.594 194.07 257 194.07ZM257 195.805C253.93 195.805 252.102 196.602 252.102 198.031C252.102 199.438 253.93 200.258 257 200.234C260.07 200.258 261.898 199.438 261.898 198.031C261.898 196.602 260.07 195.805 257 195.805ZM254.047 184.695C254.047 187.367 255.945 189.945 259.109 191.023L257.961 192.781C255.605 191.961 253.871 190.285 252.969 188.211C252.043 190.566 250.203 192.453 247.695 193.367L246.523 191.586C249.781 190.461 251.773 187.625 251.773 184.719V184.25H247.227V182.445H258.547V184.25H254.047V184.695Z" fill="black"/>
<rect x="122" y="216.5" width="404" height="25" rx="12.5" fill="#FF577C"/>
<path d="M563.67 240L563.641 236.807L571.258 229.805C573.25 227.9 574.305 226.729 574.305 225.059C574.305 223.184 572.869 222.012 570.936 222.012C568.943 222.012 567.654 223.271 567.654 225.293H563.465C563.436 221.133 566.512 218.496 570.994 218.496C575.535 218.496 578.553 221.074 578.553 224.766C578.553 227.168 577.381 229.16 573.016 233.115L569.793 236.25V236.367H578.846V240H563.67ZM590.184 240.293C585.789 240.264 581.629 237.656 581.629 229.893C581.629 222.744 585.057 218.496 590.359 218.496C594.637 218.496 597.537 221.191 597.977 224.678H593.641C593.289 223.184 592.059 222.275 590.359 222.275C587.488 222.275 585.965 224.883 585.936 229.043H586.141C587.107 227.168 589.217 226.055 591.561 226.055C595.369 226.055 598.211 228.926 598.211 232.91C598.211 237.217 594.959 240.322 590.184 240.293ZM590.154 236.807C592.322 236.807 593.934 235.166 593.934 233.027C593.934 230.918 592.381 229.248 590.213 229.248C588.045 229.248 586.404 230.947 586.375 233.027C586.404 235.107 587.986 236.807 590.154 236.807ZM602.957 240.264C601.58 240.264 600.467 239.15 600.496 237.803C600.467 236.455 601.58 235.371 602.957 235.371C604.246 235.371 605.389 236.455 605.389 237.803C605.389 239.15 604.246 240.264 602.957 240.264ZM616.17 240.293C611.775 240.264 607.615 237.656 607.615 229.893C607.615 222.744 611.043 218.496 616.346 218.496C620.623 218.496 623.523 221.191 623.963 224.678H619.627C619.275 223.184 618.045 222.275 616.346 222.275C613.475 222.275 611.951 224.883 611.922 229.043H612.127C613.094 227.168 615.203 226.055 617.547 226.055C621.355 226.055 624.197 228.926 624.197 232.91C624.197 237.217 620.945 240.322 616.17 240.293ZM616.141 236.807C618.309 236.807 619.92 235.166 619.92 233.027C619.92 230.918 618.367 229.248 616.199 229.248C614.031 229.248 612.391 230.947 612.361 233.027C612.391 235.107 613.973 236.807 616.141 236.807ZM632.811 229.395C629.646 229.395 627.918 227.08 627.918 223.74C627.918 220.371 629.705 218.057 632.811 218.057C636.004 218.057 637.674 220.371 637.703 223.74C637.674 227.109 635.945 229.395 632.811 229.395ZM632.811 226.787C634.07 226.787 634.686 225.557 634.715 223.74C634.686 221.924 634.129 220.664 632.811 220.664C631.551 220.664 630.906 221.953 630.906 223.74C630.906 225.557 631.58 226.787 632.811 226.787ZM647.107 240.703C643.973 240.703 642.244 238.389 642.244 235.049C642.244 231.68 644.031 229.365 647.107 229.365C650.301 229.365 652 231.68 652.029 235.049C652 238.418 650.271 240.703 647.107 240.703ZM647.107 238.096C648.396 238.096 649.012 236.895 649.041 235.049C649.012 233.232 648.455 231.973 647.107 232.002C645.877 232.002 645.232 233.262 645.232 235.049C645.232 236.895 645.906 238.096 647.107 238.096ZM630.965 240L645.555 218.789H648.836L634.246 240H630.965Z" fill="#FF3E69"/>
<path d="M137.705 279.787H140.584V281.205H137.705V285.373H136.029V275.641H137.705V279.787ZM132.42 284.363H123.59V276.736H132.42V284.363ZM125.244 283.01H130.787V278.111H125.244V283.01ZM137.705 290.938H127.221V293.129H138.414V294.482H125.566V289.648H136.029V287.629H125.523V286.275H137.705V290.938ZM156.568 283.525H159.77V284.922H156.568V294.74H154.893V275.641H156.568V283.525ZM153.045 280.109H141.68V278.713H146.6V275.877H148.275V278.713H153.045V280.109ZM147.459 281.699C148.354 281.699 149.156 281.885 149.865 282.258C150.574 282.63 151.129 283.149 151.53 283.815C151.931 284.481 152.135 285.237 152.143 286.082C152.135 286.927 151.931 287.683 151.53 288.349C151.129 289.015 150.574 289.534 149.865 289.906C149.156 290.279 148.354 290.465 147.459 290.465C146.557 290.465 145.747 290.279 145.031 289.906C144.322 289.534 143.767 289.015 143.366 288.349C142.965 287.683 142.768 286.927 142.775 286.082C142.768 285.237 142.965 284.481 143.366 283.815C143.767 283.149 144.322 282.63 145.031 282.258C145.747 281.885 146.557 281.699 147.459 281.699ZM147.459 283.117C146.872 283.117 146.342 283.246 145.869 283.504C145.404 283.755 145.038 284.105 144.773 284.557C144.508 285.008 144.38 285.516 144.387 286.082C144.38 286.655 144.508 287.167 144.773 287.618C145.038 288.062 145.404 288.41 145.869 288.66C146.342 288.911 146.872 289.033 147.459 289.025C148.039 289.033 148.562 288.911 149.027 288.66C149.493 288.41 149.858 288.062 150.123 287.618C150.388 287.167 150.524 286.655 150.531 286.082C150.524 285.516 150.388 285.008 150.123 284.557C149.858 284.105 149.493 283.755 149.027 283.504C148.562 283.246 148.039 283.117 147.459 283.117ZM176.592 294.74H174.895V275.641H176.592V294.74ZM170.941 277.725C170.927 280.611 170.197 283.203 168.75 285.502C167.303 287.794 165.04 289.677 161.961 291.152L161.037 289.777C163.587 288.567 165.538 287.063 166.892 285.266C168.252 283.468 169.029 281.413 169.223 279.1H161.918V277.725H170.941ZM201.17 289.777H199.473V284.621H194.531C194.087 285.187 193.521 285.631 192.834 285.953C192.154 286.268 191.409 286.426 190.6 286.426C189.654 286.426 188.806 286.222 188.054 285.813C187.302 285.405 186.711 284.84 186.281 284.116C185.852 283.393 185.637 282.573 185.637 281.656C185.637 280.74 185.852 279.92 186.281 279.196C186.711 278.466 187.302 277.896 188.054 277.488C188.806 277.08 189.654 276.872 190.6 276.865C191.402 276.872 192.139 277.034 192.812 277.349C193.486 277.657 194.048 278.09 194.499 278.648H199.473V275.662H201.17V289.777ZM201.707 294.332H188.902V288.295H190.6V292.914H201.707V294.332ZM190.6 278.369C189.955 278.376 189.379 278.523 188.87 278.81C188.362 279.089 187.964 279.476 187.678 279.97C187.391 280.464 187.248 281.026 187.248 281.656C187.248 282.286 187.391 282.849 187.678 283.343C187.964 283.837 188.362 284.224 188.87 284.503C189.379 284.782 189.955 284.922 190.6 284.922C191.215 284.922 191.774 284.782 192.275 284.503C192.784 284.224 193.181 283.837 193.468 283.343C193.761 282.841 193.908 282.279 193.908 281.656C193.908 281.033 193.761 280.475 193.468 279.98C193.181 279.479 192.784 279.089 192.275 278.81C191.774 278.523 191.215 278.376 190.6 278.369ZM195.272 280.045C195.451 280.561 195.541 281.098 195.541 281.656C195.541 282.186 195.455 282.709 195.283 283.225H199.473V280.045H195.272ZM208.238 289.348H217.777V287.113H219.475V294.482H206.562V287.113H208.238V289.348ZM217.777 293.129V290.68H208.238V293.129H217.777ZM221.752 285.76H204.35V284.363H221.752V285.76ZM213.932 276.758C213.932 277.517 214.261 278.247 214.92 278.949C215.579 279.644 216.435 280.235 217.487 280.722C218.547 281.201 219.639 281.513 220.764 281.656L220.141 283.01C219.145 282.859 218.178 282.598 217.24 282.226C216.309 281.846 215.479 281.373 214.748 280.808C214.018 280.242 213.455 279.612 213.062 278.917C212.668 279.612 212.102 280.242 211.364 280.808C210.634 281.373 209.803 281.846 208.872 282.226C207.941 282.598 206.978 282.859 205.982 283.01L205.338 281.656C206.484 281.506 207.583 281.194 208.636 280.722C209.696 280.242 210.551 279.658 211.203 278.971C211.862 278.276 212.191 277.538 212.191 276.758V275.855H213.932V276.758Z" fill="black" fill-opacity="0.5"/>
<rect x="122" y="306.5" width="216" height="25" rx="12.5" fill="#DFDFDF"/>
<path d="M359.701 326.324L365.973 319.723C366.802 318.851 367.433 318.148 367.864 317.615C368.304 317.074 368.634 316.553 368.854 316.054C369.083 315.546 369.197 315.017 369.197 314.467C369.197 313.857 369.036 313.316 368.715 312.842C368.393 312.368 367.953 312 367.395 311.737C366.844 311.475 366.227 311.344 365.541 311.344C364.822 311.344 364.191 311.488 363.649 311.775C363.108 312.063 362.689 312.469 362.393 312.994C362.105 313.519 361.961 314.12 361.961 314.797H359.803C359.794 313.73 360.04 312.787 360.539 311.966C361.047 311.145 361.745 310.506 362.634 310.049C363.522 309.592 364.517 309.363 365.617 309.363C366.709 309.363 367.687 309.588 368.55 310.036C369.422 310.485 370.103 311.098 370.594 311.877C371.085 312.656 371.33 313.519 371.33 314.467C371.33 315.169 371.203 315.842 370.949 316.485C370.695 317.12 370.268 317.827 369.667 318.605C369.075 319.376 368.224 320.332 367.115 321.475L362.9 325.816V325.969H371.66V328H359.727L359.701 326.324ZM381.004 328.254C379.65 328.254 378.49 327.886 377.525 327.149C376.569 326.413 375.837 325.338 375.329 323.925C374.83 322.511 374.58 320.806 374.58 318.809C374.58 316.837 374.834 315.144 375.342 313.73C375.85 312.309 376.586 311.225 377.551 310.48C378.516 309.736 379.667 309.363 381.004 309.363C382.341 309.363 383.492 309.736 384.457 310.48C385.422 311.225 386.158 312.309 386.666 313.73C387.174 315.144 387.428 316.837 387.428 318.809C387.428 320.806 387.174 322.511 386.666 323.925C386.167 325.338 385.435 326.413 384.47 327.149C383.505 327.886 382.35 328.254 381.004 328.254ZM381.004 326.223C381.884 326.223 382.637 325.935 383.264 325.359C383.89 324.784 384.368 323.942 384.698 322.833C385.028 321.724 385.193 320.383 385.193 318.809C385.193 317.234 385.028 315.889 384.698 314.771C384.368 313.654 383.89 312.804 383.264 312.22C382.637 311.636 381.884 311.344 381.004 311.344C380.124 311.344 379.366 311.636 378.731 312.22C378.105 312.804 377.623 313.654 377.284 314.771C376.954 315.889 376.789 317.234 376.789 318.809C376.789 320.383 376.954 321.724 377.284 322.833C377.614 323.942 378.092 324.784 378.719 325.359C379.354 325.935 380.115 326.223 381.004 326.223ZM394.359 318.148C393.581 318.148 392.912 317.966 392.354 317.603C391.803 317.239 391.384 316.727 391.097 316.066C390.817 315.398 390.678 314.619 390.678 313.73C390.678 312.867 390.822 312.105 391.109 311.445C391.406 310.777 391.829 310.26 392.379 309.896C392.938 309.524 393.598 309.338 394.359 309.338C395.146 309.338 395.815 309.524 396.365 309.896C396.915 310.26 397.33 310.772 397.609 311.433C397.897 312.093 398.041 312.859 398.041 313.73C398.041 314.611 397.897 315.385 397.609 316.054C397.322 316.714 396.898 317.23 396.34 317.603C395.79 317.966 395.13 318.148 394.359 318.148ZM394.359 316.574C394.969 316.574 395.426 316.325 395.73 315.825C396.035 315.317 396.188 314.619 396.188 313.73C396.188 312.842 396.039 312.148 395.743 311.648C395.447 311.149 394.986 310.904 394.359 310.912C393.767 310.912 393.314 311.166 393.001 311.674C392.688 312.173 392.531 312.859 392.531 313.73C392.531 314.611 392.688 315.305 393.001 315.812C393.314 316.32 393.767 316.574 394.359 316.574ZM405.582 328.254C404.803 328.262 404.135 328.085 403.576 327.721C403.018 327.357 402.594 326.845 402.307 326.185C402.027 325.516 401.892 324.742 401.9 323.861C401.892 322.99 402.032 322.219 402.319 321.551C402.616 320.882 403.043 320.366 403.602 320.002C404.16 319.63 404.82 319.443 405.582 319.443C406.361 319.443 407.025 319.63 407.575 320.002C408.125 320.366 408.54 320.882 408.819 321.551C409.099 322.211 409.238 322.981 409.238 323.861C409.238 324.733 409.094 325.503 408.807 326.172C408.519 326.84 408.1 327.357 407.55 327.721C407 328.085 406.344 328.262 405.582 328.254ZM405.582 326.68C406.174 326.68 406.623 326.43 406.928 325.931C407.232 325.431 407.385 324.742 407.385 323.861C407.385 322.973 407.241 322.279 406.953 321.779C406.665 321.271 406.225 321.018 405.633 321.018C405.023 321.018 404.554 321.271 404.224 321.779C403.894 322.279 403.729 322.973 403.729 323.861C403.729 324.733 403.885 325.423 404.198 325.931C404.511 326.43 404.973 326.68 405.582 326.68ZM405.125 309.617H407.182L394.537 328H392.48L405.125 309.617Z" fill="black" fill-opacity="0.5"/>
<path d="M138.521 372.824H136.867V362.641H138.521V372.824ZM131.539 378.045H126.855V380.172C128.216 380.165 129.326 380.132 130.186 380.075C131.052 380.025 131.947 379.921 132.871 379.764L133.043 381.053C132.048 381.239 131.091 381.357 130.175 381.407C129.258 381.457 127.994 381.482 126.383 381.482H125.223V376.799H129.906V374.951H125.201V373.641H131.539V378.045ZM138.521 381.59H136.867V375.037H132.398V373.641H138.521V381.59ZM128.188 363.521C129.133 363.521 129.978 363.704 130.723 364.069C131.475 364.427 132.062 364.932 132.484 365.584C132.914 366.236 133.129 366.973 133.129 367.797C133.129 368.628 132.914 369.369 132.484 370.021C132.062 370.672 131.475 371.181 130.723 371.546C129.978 371.911 129.133 372.094 128.188 372.094C127.228 372.094 126.372 371.911 125.62 371.546C124.868 371.181 124.281 370.672 123.858 370.021C123.436 369.369 123.225 368.628 123.225 367.797C123.225 366.966 123.436 366.229 123.858 365.584C124.281 364.932 124.868 364.427 125.62 364.069C126.379 363.704 127.235 363.521 128.188 363.521ZM128.188 364.939C127.557 364.932 126.988 365.05 126.479 365.294C125.978 365.537 125.584 365.878 125.298 366.314C125.011 366.751 124.872 367.245 124.879 367.797C124.872 368.355 125.011 368.857 125.298 369.301C125.584 369.738 125.978 370.081 126.479 370.332C126.988 370.576 127.557 370.697 128.188 370.697C128.811 370.697 129.373 370.576 129.874 370.332C130.382 370.081 130.78 369.738 131.066 369.301C131.353 368.857 131.496 368.355 131.496 367.797C131.496 367.245 131.353 366.751 131.066 366.314C130.78 365.878 130.382 365.537 129.874 365.294C129.373 365.05 128.811 364.932 128.188 364.939ZM157.578 381.74H155.881V362.641H157.578V381.74ZM151.928 364.725C151.913 367.611 151.183 370.203 149.736 372.502C148.29 374.794 146.027 376.677 142.947 378.152L142.023 376.777C144.573 375.567 146.524 374.063 147.878 372.266C149.239 370.468 150.016 368.413 150.209 366.1H142.904V364.725H151.928ZM176.291 371.664H167.332V363.887H176.291V371.664ZM168.986 370.332H174.637V365.262H168.986V370.332ZM182.07 373.619H180.416V362.641H182.07V373.619ZM176.893 376.24C176.893 376.849 177.19 377.447 177.784 378.034C178.379 378.614 179.163 379.116 180.137 379.538C181.111 379.953 182.142 380.229 183.23 380.365L182.65 381.676C181.698 381.547 180.785 381.318 179.911 380.988C179.037 380.659 178.264 380.251 177.591 379.764C176.918 379.277 176.395 378.743 176.022 378.163C175.643 378.75 175.109 379.287 174.422 379.774C173.742 380.261 172.957 380.666 172.069 380.988C171.188 381.318 170.268 381.547 169.309 381.676L168.707 380.365C169.796 380.243 170.838 379.975 171.833 379.56C172.828 379.144 173.631 378.643 174.239 378.056C174.848 377.461 175.152 376.856 175.152 376.24H169.502V374.93H175.174V373.061H176.85V374.93H182.564V376.24H176.893ZM196.615 366.637C196.615 367.26 196.726 367.911 196.948 368.592C197.17 369.272 197.503 369.924 197.947 370.547C198.398 371.17 198.939 371.696 199.569 372.126C200.192 371.711 200.726 371.199 201.17 370.59C201.614 369.974 201.947 369.322 202.169 368.635C202.391 367.947 202.502 367.281 202.502 366.637V364.188H204.199V366.637C204.192 367.424 204.339 368.201 204.64 368.968C204.948 369.727 205.395 370.414 205.982 371.03C206.57 371.639 207.271 372.115 208.088 372.459L207.143 373.748C206.233 373.34 205.452 372.767 204.801 372.029C204.156 371.292 203.669 370.447 203.34 369.494C203.01 370.475 202.527 371.36 201.89 372.147C201.252 372.928 200.475 373.533 199.559 373.963C198.635 373.533 197.851 372.914 197.206 372.104C196.562 371.295 196.075 370.393 195.745 369.397C195.401 370.35 194.904 371.209 194.252 371.976C193.6 372.742 192.834 373.333 191.953 373.748L191.051 372.459C191.831 372.101 192.515 371.603 193.103 370.966C193.69 370.321 194.141 369.619 194.456 368.86C194.771 368.101 194.932 367.36 194.939 366.637V364.188H196.615V366.637ZM208.324 379.162H190.857V377.766H208.324V379.162ZM225.662 381.74H223.965V362.641H225.662V381.74ZM220.012 364.725C219.997 367.611 219.267 370.203 217.82 372.502C216.374 374.794 214.111 376.677 211.031 378.152L210.107 376.777C212.657 375.567 214.608 374.063 215.962 372.266C217.323 370.468 218.1 368.413 218.293 366.1H210.988V364.725H220.012Z" fill="black" fill-opacity="0.5"/>
<rect x="122" y="393.5" width="108" height="25" rx="12.5" fill="#DFDFDF"/>
<path d="M258.227 415H255.916V399.004H255.814L251.346 401.975V399.664L255.916 396.617H258.227V415ZM269.475 415.254C268.264 415.254 267.181 415.051 266.225 414.645C265.277 414.238 264.523 413.667 263.965 412.931C263.415 412.194 263.118 411.344 263.076 410.379H265.387C265.429 410.946 265.632 411.445 265.996 411.877C266.368 412.309 266.855 412.643 267.456 412.88C268.057 413.108 268.721 413.223 269.449 413.223C270.245 413.223 270.96 413.087 271.595 412.816C272.238 412.537 272.737 412.156 273.093 411.674C273.457 411.183 273.639 410.624 273.639 409.998C273.639 409.321 273.461 408.724 273.105 408.208C272.758 407.692 272.251 407.29 271.582 407.002C270.913 406.714 270.109 406.57 269.17 406.57H267.672V404.564H269.17C269.906 404.564 270.562 404.433 271.138 404.171C271.713 403.909 272.158 403.54 272.471 403.066C272.792 402.592 272.953 402.042 272.953 401.416C272.953 400.815 272.809 400.282 272.521 399.816C272.242 399.351 271.844 398.991 271.328 398.737C270.812 398.475 270.211 398.344 269.525 398.344C268.865 398.344 268.247 398.462 267.672 398.699C267.096 398.936 266.627 399.275 266.263 399.715C265.899 400.146 265.7 400.654 265.666 401.238H263.457C263.499 400.29 263.796 399.448 264.346 398.712C264.896 397.967 265.628 397.392 266.542 396.985C267.456 396.571 268.459 396.363 269.551 396.363C270.685 396.363 271.675 396.588 272.521 397.036C273.376 397.476 274.032 398.073 274.489 398.826C274.946 399.579 275.171 400.4 275.162 401.289C275.171 402.322 274.896 403.206 274.337 403.942C273.778 404.679 273.012 405.182 272.039 405.453V405.58C272.826 405.707 273.507 405.974 274.083 406.38C274.667 406.778 275.111 407.29 275.416 407.916C275.729 408.534 275.882 409.228 275.873 409.998C275.882 410.988 275.606 411.885 275.048 412.689C274.489 413.485 273.719 414.111 272.737 414.568C271.764 415.025 270.676 415.254 269.475 415.254ZM283.059 405.148C282.28 405.148 281.611 404.966 281.053 404.603C280.503 404.239 280.084 403.727 279.796 403.066C279.517 402.398 279.377 401.619 279.377 400.73C279.377 399.867 279.521 399.105 279.809 398.445C280.105 397.777 280.528 397.26 281.078 396.896C281.637 396.524 282.297 396.338 283.059 396.338C283.846 396.338 284.514 396.524 285.064 396.896C285.615 397.26 286.029 397.772 286.309 398.433C286.596 399.093 286.74 399.859 286.74 400.73C286.74 401.611 286.596 402.385 286.309 403.054C286.021 403.714 285.598 404.23 285.039 404.603C284.489 404.966 283.829 405.148 283.059 405.148ZM283.059 403.574C283.668 403.574 284.125 403.325 284.43 402.825C284.734 402.317 284.887 401.619 284.887 400.73C284.887 399.842 284.739 399.148 284.442 398.648C284.146 398.149 283.685 397.904 283.059 397.912C282.466 397.912 282.013 398.166 281.7 398.674C281.387 399.173 281.23 399.859 281.23 400.73C281.23 401.611 281.387 402.305 281.7 402.812C282.013 403.32 282.466 403.574 283.059 403.574ZM294.281 415.254C293.503 415.262 292.834 415.085 292.275 414.721C291.717 414.357 291.294 413.845 291.006 413.185C290.727 412.516 290.591 411.742 290.6 410.861C290.591 409.99 290.731 409.219 291.019 408.551C291.315 407.882 291.742 407.366 292.301 407.002C292.859 406.63 293.52 406.443 294.281 406.443C295.06 406.443 295.724 406.63 296.274 407.002C296.825 407.366 297.239 407.882 297.519 408.551C297.798 409.211 297.938 409.981 297.938 410.861C297.938 411.733 297.794 412.503 297.506 413.172C297.218 413.84 296.799 414.357 296.249 414.721C295.699 415.085 295.043 415.262 294.281 415.254ZM294.281 413.68C294.874 413.68 295.322 413.43 295.627 412.931C295.932 412.431 296.084 411.742 296.084 410.861C296.084 409.973 295.94 409.279 295.652 408.779C295.365 408.271 294.924 408.018 294.332 408.018C293.723 408.018 293.253 408.271 292.923 408.779C292.593 409.279 292.428 409.973 292.428 410.861C292.428 411.733 292.584 412.423 292.897 412.931C293.211 413.43 293.672 413.68 294.281 413.68ZM293.824 396.617H295.881L283.236 415H281.18L293.824 396.617Z" fill="black" fill-opacity="0.5"/>
<path d="M137.834 453.594C137.834 454.689 137.82 455.646 137.791 456.462C137.77 457.278 137.709 458.231 137.608 459.319C137.508 460.408 137.347 461.593 137.125 462.875L135.406 462.703C135.643 461.493 135.818 460.354 135.933 459.287C136.047 458.213 136.115 457.268 136.137 456.451C136.165 455.628 136.18 454.675 136.18 453.594V453.078H124.664V451.682H137.834V453.594ZM140.176 465.926H122.773V464.529H140.176V465.926ZM153.561 450.887C154.556 450.894 155.44 451.087 156.214 451.467C156.994 451.839 157.603 452.366 158.04 453.046C158.477 453.726 158.695 454.503 158.695 455.377C158.695 456.165 158.516 456.877 158.158 457.515C157.8 458.145 157.295 458.657 156.644 459.051C155.992 459.445 155.243 459.692 154.398 459.792V463.047C156.533 462.939 158.409 462.76 160.027 462.51L160.156 463.756C158.237 464.114 156.278 464.343 154.28 464.443C152.289 464.544 150.08 464.594 147.652 464.594L147.416 463.176C149.665 463.176 151.426 463.154 152.701 463.111V459.792C151.849 459.692 151.097 459.445 150.445 459.051C149.794 458.65 149.289 458.134 148.931 457.504C148.573 456.874 148.397 456.165 148.404 455.377C148.397 454.503 148.612 453.73 149.049 453.057C149.493 452.376 150.105 451.846 150.886 451.467C151.674 451.087 152.565 450.894 153.561 450.887ZM153.561 452.369C152.887 452.369 152.282 452.498 151.745 452.756C151.215 453.007 150.8 453.361 150.499 453.819C150.198 454.271 150.051 454.79 150.059 455.377C150.051 455.964 150.198 456.487 150.499 456.945C150.8 457.404 151.215 457.762 151.745 458.02C152.282 458.27 152.887 458.392 153.561 458.385C154.227 458.392 154.825 458.27 155.354 458.02C155.884 457.762 156.296 457.404 156.59 456.945C156.891 456.487 157.041 455.964 157.041 455.377C157.041 454.79 156.891 454.271 156.59 453.819C156.296 453.361 155.884 453.007 155.354 452.756C154.825 452.498 154.227 452.369 153.561 452.369ZM162.971 468.783H161.295V449.641H162.971V468.783Z" fill="black" fill-opacity="0.5"/>
<rect x="122" y="480.5" width="232" height="25" rx="12.5" fill="#DFDFDF"/>
<path d="M375.701 500.324L381.973 493.723C382.802 492.851 383.433 492.148 383.864 491.615C384.304 491.074 384.634 490.553 384.854 490.054C385.083 489.546 385.197 489.017 385.197 488.467C385.197 487.857 385.036 487.316 384.715 486.842C384.393 486.368 383.953 486 383.395 485.737C382.844 485.475 382.227 485.344 381.541 485.344C380.822 485.344 380.191 485.488 379.649 485.775C379.108 486.063 378.689 486.469 378.393 486.994C378.105 487.519 377.961 488.12 377.961 488.797H375.803C375.794 487.73 376.04 486.787 376.539 485.966C377.047 485.145 377.745 484.506 378.634 484.049C379.522 483.592 380.517 483.363 381.617 483.363C382.709 483.363 383.687 483.588 384.55 484.036C385.422 484.485 386.103 485.098 386.594 485.877C387.085 486.656 387.33 487.519 387.33 488.467C387.33 489.169 387.203 489.842 386.949 490.485C386.695 491.12 386.268 491.827 385.667 492.605C385.075 493.376 384.224 494.332 383.115 495.475L378.9 499.816V499.969H387.66V502H375.727L375.701 500.324ZM397.334 502.254C396.124 502.254 395.04 502.051 394.084 501.645C393.136 501.238 392.383 500.667 391.824 499.931C391.274 499.194 390.978 498.344 390.936 497.379H393.246C393.288 497.946 393.492 498.445 393.855 498.877C394.228 499.309 394.715 499.643 395.315 499.88C395.916 500.108 396.581 500.223 397.309 500.223C398.104 500.223 398.819 500.087 399.454 499.816C400.097 499.537 400.597 499.156 400.952 498.674C401.316 498.183 401.498 497.624 401.498 496.998C401.498 496.321 401.32 495.724 400.965 495.208C400.618 494.692 400.11 494.29 399.441 494.002C398.773 493.714 397.969 493.57 397.029 493.57H395.531V491.564H397.029C397.766 491.564 398.422 491.433 398.997 491.171C399.573 490.909 400.017 490.54 400.33 490.066C400.652 489.592 400.812 489.042 400.812 488.416C400.812 487.815 400.669 487.282 400.381 486.816C400.102 486.351 399.704 485.991 399.188 485.737C398.671 485.475 398.07 485.344 397.385 485.344C396.725 485.344 396.107 485.462 395.531 485.699C394.956 485.936 394.486 486.275 394.122 486.715C393.758 487.146 393.559 487.654 393.525 488.238H391.316C391.359 487.29 391.655 486.448 392.205 485.712C392.755 484.967 393.487 484.392 394.401 483.985C395.315 483.571 396.318 483.363 397.41 483.363C398.544 483.363 399.535 483.588 400.381 484.036C401.236 484.476 401.892 485.073 402.349 485.826C402.806 486.579 403.03 487.4 403.021 488.289C403.03 489.322 402.755 490.206 402.196 490.942C401.638 491.679 400.872 492.182 399.898 492.453V492.58C400.686 492.707 401.367 492.974 401.942 493.38C402.526 493.778 402.971 494.29 403.275 494.916C403.589 495.534 403.741 496.228 403.732 496.998C403.741 497.988 403.466 498.885 402.907 499.689C402.349 500.485 401.578 501.111 400.597 501.568C399.623 502.025 398.536 502.254 397.334 502.254ZM408.023 502.152C407.727 502.152 407.452 502.08 407.198 501.937C406.953 501.784 406.754 501.581 406.602 501.327C406.458 501.073 406.39 500.798 406.398 500.502C406.39 500.214 406.458 499.948 406.602 499.702C406.754 499.448 406.953 499.249 407.198 499.105C407.452 498.953 407.727 498.877 408.023 498.877C408.311 498.877 408.578 498.953 408.823 499.105C409.077 499.249 409.276 499.448 409.42 499.702C409.572 499.948 409.648 500.214 409.648 500.502C409.648 500.798 409.572 501.073 409.42 501.327C409.276 501.581 409.077 501.784 408.823 501.937C408.578 502.08 408.311 502.152 408.023 502.152ZM412.594 496.363L420.871 483.617H423.689V496.236H426.254V498.242H423.689V502H421.506V498.242H412.594V496.363ZM421.506 496.236V486.512H421.277L415.057 496.084V496.236H421.506ZM433.16 492.148C432.382 492.148 431.713 491.966 431.154 491.603C430.604 491.239 430.185 490.727 429.897 490.066C429.618 489.398 429.479 488.619 429.479 487.73C429.479 486.867 429.622 486.105 429.91 485.445C430.206 484.777 430.63 484.26 431.18 483.896C431.738 483.524 432.398 483.338 433.16 483.338C433.947 483.338 434.616 483.524 435.166 483.896C435.716 484.26 436.131 484.772 436.41 485.433C436.698 486.093 436.842 486.859 436.842 487.73C436.842 488.611 436.698 489.385 436.41 490.054C436.122 490.714 435.699 491.23 435.141 491.603C434.59 491.966 433.93 492.148 433.16 492.148ZM433.16 490.574C433.77 490.574 434.227 490.325 434.531 489.825C434.836 489.317 434.988 488.619 434.988 487.73C434.988 486.842 434.84 486.148 434.544 485.648C434.248 485.149 433.786 484.904 433.16 484.912C432.568 484.912 432.115 485.166 431.802 485.674C431.489 486.173 431.332 486.859 431.332 487.73C431.332 488.611 431.489 489.305 431.802 489.812C432.115 490.32 432.568 490.574 433.16 490.574ZM444.383 502.254C443.604 502.262 442.936 502.085 442.377 501.721C441.818 501.357 441.395 500.845 441.107 500.185C440.828 499.516 440.693 498.742 440.701 497.861C440.693 496.99 440.832 496.219 441.12 495.551C441.416 494.882 441.844 494.366 442.402 494.002C442.961 493.63 443.621 493.443 444.383 493.443C445.161 493.443 445.826 493.63 446.376 494.002C446.926 494.366 447.341 494.882 447.62 495.551C447.899 496.211 448.039 496.981 448.039 497.861C448.039 498.733 447.895 499.503 447.607 500.172C447.32 500.84 446.901 501.357 446.351 501.721C445.8 502.085 445.145 502.262 444.383 502.254ZM444.383 500.68C444.975 500.68 445.424 500.43 445.729 499.931C446.033 499.431 446.186 498.742 446.186 497.861C446.186 496.973 446.042 496.279 445.754 495.779C445.466 495.271 445.026 495.018 444.434 495.018C443.824 495.018 443.354 495.271 443.024 495.779C442.694 496.279 442.529 496.973 442.529 497.861C442.529 498.733 442.686 499.423 442.999 499.931C443.312 500.43 443.773 500.68 444.383 500.68ZM443.926 483.617H445.982L433.338 502H431.281L443.926 483.617Z" fill="black" fill-opacity="0.5"/>
<circle cx="67" cy="74" r="22" fill="#FF577C"/>
<path d="M69.9883 64.6172V83H66.6621V67.8418H66.5605L62.2695 70.584V67.5625L66.8145 64.6172H69.9883Z" fill="white"/>
<defs>
<linearGradient id="paint0_linear_553_8547" x1="46.6825" y1="22.2919" x2="770.435" y2="561.972" gradientUnits="userSpaceOnUse">
<stop stop-color="#FF577C"/>
<stop offset="1" stop-color="#66B8FB"/>
</linearGradient>
</defs>
</svg>
