<svg width="950" height="207" viewBox="0 0 950 207" fill="none" xmlns="http://www.w3.org/2000/svg">
<path d="M1.5 100C1.5 45.5999 45.6 1.5 100 1.5H850C904.4 1.5 948.5 45.6 948.5 100V107C948.5 161.4 904.4 205.5 850 205.5H4.99999C3.067 205.5 1.5 203.933 1.5 202V100Z" stroke="url(#paint0_linear_553_8419)" stroke-width="3"/>
<path d="M213.117 69.4844H211.266V64.0234H207.07V62.5H211.266V57.0625H213.117V69.4844ZM206.203 70.1406C207.648 70.1406 208.895 70.293 209.941 70.5977C210.988 70.9023 211.789 71.3438 212.344 71.9219C212.906 72.5 213.188 73.1953 213.188 74.0078C213.188 74.8203 212.906 75.5156 212.344 76.0938C211.789 76.6797 210.988 77.125 209.941 77.4297C208.895 77.7344 207.648 77.8906 206.203 77.8984C204.758 77.8906 203.512 77.7344 202.465 77.4297C201.418 77.125 200.613 76.6797 200.051 76.0938C199.496 75.5156 199.219 74.8203 199.219 74.0078C199.219 73.1953 199.496 72.5 200.051 71.9219C200.613 71.3438 201.418 70.9023 202.465 70.5977C203.512 70.293 204.758 70.1406 206.203 70.1406ZM206.203 71.5703C205.148 71.5703 204.23 71.668 203.449 71.8633C202.668 72.0586 202.07 72.3398 201.656 72.707C201.242 73.0742 201.039 73.5078 201.047 74.0078C201.039 74.5 201.242 74.9297 201.656 75.2969C202.07 75.6562 202.668 75.9336 203.449 76.1289C204.23 76.3242 205.148 76.4219 206.203 76.4219C207.258 76.4219 208.172 76.3242 208.945 76.1289C209.727 75.9336 210.324 75.6562 210.738 75.2969C211.152 74.9297 211.359 74.5 211.359 74.0078C211.359 73.5078 211.152 73.0742 210.738 72.707C210.324 72.3398 209.727 72.0586 208.945 71.8633C208.172 71.668 207.258 71.5703 206.203 71.5703ZM203.086 60.8828C203.086 61.7812 203.301 62.6523 203.73 63.4961C204.16 64.332 204.762 65.0781 205.535 65.7344C206.316 66.3828 207.211 66.8828 208.219 67.2344L207.258 68.7109C206.094 68.2891 205.07 67.6641 204.188 66.8359C203.312 66.0078 202.652 65.0508 202.207 63.9648C201.754 65.1836 201.062 66.2617 200.133 67.1992C199.211 68.1289 198.133 68.8281 196.898 69.2969L195.938 67.8203C196.961 67.4453 197.875 66.9062 198.68 66.2031C199.484 65.4922 200.109 64.6758 200.555 63.7539C201.008 62.832 201.234 61.8828 201.234 60.9062V60.1328H196.523V58.5859H207.75V60.1328H203.086V60.8828ZM232.875 61.5859H236.016V63.1328H232.875V67.6797H231.047V57.0625H232.875V61.5859ZM227.109 66.5781H217.477V58.2578H227.109V66.5781ZM219.281 65.1016H225.328V59.7578H219.281V65.1016ZM232.875 73.75H221.438V76.1406H233.648V77.6172H219.633V72.3438H231.047V70.1406H219.586V68.6641H232.875V73.75ZM253.734 65.7344H262.406V67.2578H243.328V65.7344H251.93V63.2734H253.734V65.7344ZM260.648 59.1719H254.051C254.105 59.8594 254.477 60.4883 255.164 61.0586C255.859 61.6289 256.754 62.0977 257.848 62.4648C258.941 62.8242 260.102 63.0547 261.328 63.1562L260.719 64.5391C259.539 64.4297 258.418 64.207 257.355 63.8711C256.301 63.5352 255.379 63.0977 254.59 62.5586C253.801 62.0117 253.223 61.3828 252.855 60.6719C252.488 61.3828 251.91 62.0117 251.121 62.5586C250.332 63.0977 249.406 63.5352 248.344 63.8711C247.281 64.207 246.156 64.4297 244.969 64.5391L244.359 63.1562C245.578 63.0547 246.734 62.8242 247.828 62.4648C248.922 62.0977 249.812 61.6289 250.5 61.0586C251.195 60.4883 251.574 59.8594 251.637 59.1719H245.086V57.7188H260.648V59.1719ZM260.602 71.4766H245.133V70.0234H251.93V68.0547H253.758V70.0234H260.602V71.4766ZM252.844 72.5078C254.867 72.5078 256.422 72.7422 257.508 73.2109C258.602 73.6719 259.148 74.3516 259.148 75.25C259.148 76.1562 258.602 76.8438 257.508 77.3125C256.422 77.7812 254.867 78.0156 252.844 78.0156C250.805 78.0156 249.246 77.7812 248.168 77.3125C247.098 76.8438 246.562 76.1562 246.562 75.25C246.562 74.3516 247.098 73.6719 248.168 73.2109C249.246 72.7422 250.805 72.5078 252.844 72.5078ZM252.844 73.7969C251.414 73.8125 250.316 73.9414 249.551 74.1836C248.793 74.418 248.414 74.7734 248.414 75.25C248.414 75.7266 248.801 76.0938 249.574 76.3516C250.348 76.6172 251.438 76.7422 252.844 76.7266C254.258 76.7344 255.344 76.6094 256.102 76.3516C256.867 76.1016 257.258 75.7344 257.273 75.25C257.266 74.7734 256.883 74.418 256.125 74.1836C255.375 73.9414 254.281 73.8125 252.844 73.7969ZM283.078 69.5547H264.094V68.0547H283.078V69.5547ZM280.969 77.4531H266.555V71.3828H268.406V75.9062H280.969V77.4531ZM273.586 57.8125C275.07 57.8047 276.367 57.9648 277.477 58.293C278.586 58.6211 279.441 59.0977 280.043 59.7227C280.645 60.3398 280.945 61.0781 280.945 61.9375C280.945 62.7969 280.645 63.5391 280.043 64.1641C279.441 64.7812 278.586 65.2578 277.477 65.5938C276.367 65.9219 275.07 66.0859 273.586 66.0859C272.086 66.0859 270.781 65.9219 269.672 65.5938C268.562 65.2578 267.707 64.7812 267.105 64.1641C266.504 63.5391 266.203 62.7969 266.203 61.9375C266.203 61.0781 266.504 60.3398 267.105 59.7227C267.707 59.0977 268.562 58.6211 269.672 58.293C270.781 57.9648 272.086 57.8047 273.586 57.8125ZM273.586 59.2891C272.477 59.2891 271.508 59.3984 270.68 59.6172C269.852 59.8281 269.211 60.1328 268.758 60.5312C268.312 60.9297 268.094 61.3984 268.102 61.9375C268.094 62.4766 268.312 62.9453 268.758 63.3438C269.211 63.7422 269.852 64.0508 270.68 64.2695C271.508 64.4805 272.477 64.5859 273.586 64.5859C274.688 64.5859 275.652 64.4805 276.48 64.2695C277.309 64.0508 277.945 63.7422 278.391 63.3438C278.844 62.9453 279.07 62.4766 279.07 61.9375C279.07 61.3984 278.844 60.9297 278.391 60.5312C277.945 60.1328 277.309 59.8281 276.48 59.6172C275.652 59.3984 274.688 59.2891 273.586 59.2891ZM296.438 58.6797C297.461 58.6875 298.367 58.9922 299.156 59.5938C299.953 60.1875 300.574 61.0312 301.02 62.125C301.473 63.2188 301.703 64.4922 301.711 65.9453C301.703 67.3984 301.473 68.6719 301.02 69.7656C300.574 70.8594 299.953 71.7031 299.156 72.2969C298.359 72.8906 297.453 73.1875 296.438 73.1875C295.414 73.1875 294.504 72.8906 293.707 72.2969C292.91 71.7031 292.289 70.8594 291.844 69.7656C291.406 68.6719 291.188 67.3984 291.188 65.9453C291.188 64.4922 291.406 63.2188 291.844 62.125C292.289 61.0312 292.91 60.1875 293.707 59.5938C294.504 58.9922 295.414 58.6875 296.438 58.6797ZM296.438 60.3203C295.75 60.3281 295.141 60.5664 294.609 61.0352C294.078 61.4961 293.664 62.1523 293.367 63.0039C293.07 63.8477 292.922 64.8281 292.922 65.9453C292.922 67.0625 293.07 68.0469 293.367 68.8984C293.664 69.7422 294.078 70.3945 294.609 70.8555C295.148 71.3164 295.758 71.5469 296.438 71.5469C297.125 71.5469 297.73 71.3164 298.254 70.8555C298.785 70.3945 299.195 69.7422 299.484 68.8984C299.781 68.0469 299.93 67.0625 299.93 65.9453C299.93 64.8281 299.781 63.8477 299.484 63.0039C299.195 62.1523 298.785 61.4961 298.254 61.0352C297.73 60.5664 297.125 60.3281 296.438 60.3203ZM306.984 65.3828H310.477V66.9766H306.984V77.8984H305.156V57.0625H306.984V65.3828ZM328.781 77.9453H326.93V57.0625H328.781V77.9453ZM317.695 58.6797C318.727 58.6875 319.645 58.9922 320.449 59.5938C321.254 60.1875 321.883 61.0312 322.336 62.125C322.789 63.2188 323.016 64.4922 323.016 65.9453C323.016 67.3984 322.789 68.6719 322.336 69.7656C321.883 70.8594 321.254 71.7031 320.449 72.2969C319.645 72.8906 318.727 73.1875 317.695 73.1875C316.664 73.1875 315.742 72.8906 314.93 72.2969C314.125 71.7031 313.496 70.8594 313.043 69.7656C312.598 68.6719 312.375 67.3984 312.375 65.9453C312.375 64.4922 312.598 63.2188 313.043 62.125C313.496 61.0312 314.125 60.1875 314.93 59.5938C315.734 58.9922 316.656 58.6875 317.695 58.6797ZM317.695 60.3203C317 60.3281 316.383 60.5664 315.844 61.0352C315.312 61.4961 314.898 62.1523 314.602 63.0039C314.305 63.8477 314.156 64.8281 314.156 65.9453C314.156 67.0625 314.305 68.0469 314.602 68.8984C314.898 69.7422 315.316 70.3945 315.855 70.8555C316.395 71.3164 317.008 71.5469 317.695 71.5469C318.383 71.5469 318.996 71.3164 319.535 70.8555C320.074 70.3945 320.492 69.7422 320.789 68.8984C321.086 68.0469 321.234 67.0625 321.234 65.9453C321.234 64.8281 321.086 63.8477 320.789 63.0039C320.492 62.1523 320.074 61.4961 319.535 61.0352C319.004 60.5664 318.391 60.3281 317.695 60.3203ZM349.523 77.9453H347.672V57.0625H349.523V77.9453ZM343.617 60.6016H335.555V71.1719C337.695 71.1719 339.496 71.125 340.957 71.0312C342.426 70.9375 343.906 70.7578 345.398 70.4922L345.586 72.0391C344.055 72.3125 342.543 72.5 341.051 72.6016C339.559 72.6953 337.672 72.75 335.391 72.7656H333.703V59.0547H343.617V60.6016ZM358.688 58.6797C359.625 58.6875 360.465 58.9492 361.207 59.4648C361.957 59.9805 362.562 60.7148 363.023 61.668C363.484 62.6211 363.762 63.7422 363.855 65.0312H368.531V57.0625H370.359V77.9453H368.531V66.5547H363.879C363.809 67.8984 363.547 69.0703 363.094 70.0703C362.641 71.0703 362.031 71.8398 361.266 72.3789C360.508 72.918 359.648 73.1875 358.688 73.1875C357.672 73.1875 356.766 72.8906 355.969 72.2969C355.18 71.7031 354.562 70.8594 354.117 69.7656C353.68 68.6719 353.461 67.3984 353.461 65.9453C353.461 64.4922 353.68 63.2188 354.117 62.125C354.562 61.0312 355.18 60.1875 355.969 59.5938C356.758 58.9922 357.664 58.6875 358.688 58.6797ZM358.688 60.3203C358.008 60.3281 357.402 60.5664 356.871 61.0352C356.348 61.4961 355.941 62.1523 355.652 63.0039C355.363 63.8477 355.219 64.8281 355.219 65.9453C355.219 67.0625 355.363 68.0469 355.652 68.8984C355.941 69.7422 356.348 70.3945 356.871 70.8555C357.402 71.3164 358.008 71.5469 358.688 71.5469C359.359 71.5469 359.957 71.3164 360.48 70.8555C361.012 70.3945 361.422 69.7422 361.711 68.8984C362.008 68.0469 362.156 67.0625 362.156 65.9453C362.156 64.8281 362.008 63.8477 361.711 63.0039C361.422 62.1523 361.016 61.4961 360.492 61.0352C359.969 60.5664 359.367 60.3281 358.688 60.3203ZM391.031 72.3203H389.203V57.0859H391.031V72.3203ZM391.688 77.4531H377.578V70.7734H379.406V75.9062H391.688V77.4531ZM379.781 58.5391C380.812 58.5391 381.742 58.7578 382.57 59.1953C383.406 59.625 384.059 60.2305 384.527 61.0117C385.004 61.7852 385.242 62.6641 385.242 63.6484C385.242 64.6484 385.004 65.5391 384.527 66.3203C384.059 67.0938 383.406 67.6992 382.57 68.1367C381.742 68.5664 380.812 68.7812 379.781 68.7812C378.75 68.7812 377.816 68.5664 376.98 68.1367C376.152 67.6992 375.5 67.0938 375.023 66.3203C374.555 65.5391 374.32 64.6484 374.32 63.6484C374.32 62.6641 374.555 61.7852 375.023 61.0117C375.5 60.2305 376.152 59.625 376.98 59.1953C377.816 58.7578 378.75 58.5391 379.781 58.5391ZM379.781 60.1562C379.086 60.1562 378.457 60.3047 377.895 60.6016C377.34 60.8984 376.902 61.3125 376.582 61.8438C376.27 62.375 376.117 62.9766 376.125 63.6484C376.117 64.3281 376.27 64.9375 376.582 65.4766C376.902 66.0078 377.34 66.4219 377.895 66.7188C378.457 67.0156 379.086 67.1641 379.781 67.1641C380.461 67.1641 381.078 67.0156 381.633 66.7188C382.195 66.4219 382.637 66.0078 382.957 65.4766C383.277 64.9375 383.438 64.3281 383.438 63.6484C383.438 62.9844 383.277 62.3867 382.957 61.8555C382.637 61.3242 382.195 60.9102 381.633 60.6133C381.078 60.3086 380.461 60.1562 379.781 60.1562ZM417.867 71.1953H416.016V64.4922H411.445V62.9453H416.016V57.0859H417.867V71.1953ZM411.352 58.7266C411.344 60.4844 410.961 62.0859 410.203 63.5312C409.445 64.9688 408.352 66.2188 406.922 67.2812C405.492 68.3438 403.773 69.1953 401.766 69.8359L400.945 68.3594C402.602 67.8516 404.039 67.1992 405.258 66.4023C406.477 65.5977 407.438 64.6758 408.141 63.6367C408.844 62.5898 409.258 61.4531 409.383 60.2266H401.977V58.7266H411.352ZM412.008 70.3281C412.008 71.3047 412.328 72.207 412.969 73.0352C413.609 73.8633 414.465 74.5586 415.535 75.1211C416.605 75.6836 417.766 76.0781 419.016 76.3047L418.242 77.7812C416.641 77.4688 415.199 76.9102 413.918 76.1055C412.645 75.3086 411.707 74.3203 411.105 73.1406C410.496 74.3281 409.543 75.3242 408.246 76.1289C406.949 76.9414 405.492 77.5078 403.875 77.8281L403.125 76.375C404.375 76.1641 405.539 75.7734 406.617 75.2031C407.695 74.625 408.559 73.9141 409.207 73.0703C409.863 72.2266 410.195 71.3125 410.203 70.3281V69.3672H412.008V70.3281ZM443.648 61.9375H446.789V63.4609H443.648V68.2188H441.82V57.0625H443.648V61.9375ZM438.047 58.5391C438.039 60.25 437.645 61.7812 436.863 63.1328C436.082 64.4766 434.957 65.6094 433.488 66.5312C432.027 67.4531 430.266 68.1484 428.203 68.6172L427.43 67.1172C429.172 66.7344 430.668 66.1992 431.918 65.5117C433.168 64.8242 434.137 64.0156 434.824 63.0859C435.512 62.1562 435.906 61.1406 436.008 60.0391H428.32V58.5391H438.047ZM443.742 70.5625H432.305V72.625H443.508V74.0312H432.305V76.1875H444.234V77.6172H430.453V69.1562H443.742V70.5625ZM453.68 58.6797C454.703 58.6875 455.609 58.9922 456.398 59.5938C457.195 60.1875 457.816 61.0312 458.262 62.125C458.715 63.2188 458.945 64.4922 458.953 65.9453C458.945 67.3984 458.715 68.6719 458.262 69.7656C457.816 70.8594 457.195 71.7031 456.398 72.2969C455.602 72.8906 454.695 73.1875 453.68 73.1875C452.656 73.1875 451.746 72.8906 450.949 72.2969C450.152 71.7031 449.531 70.8594 449.086 69.7656C448.648 68.6719 448.43 67.3984 448.43 65.9453C448.43 64.4922 448.648 63.2188 449.086 62.125C449.531 61.0312 450.152 60.1875 450.949 59.5938C451.746 58.9922 452.656 58.6875 453.68 58.6797ZM453.68 60.3203C452.992 60.3281 452.383 60.5664 451.852 61.0352C451.32 61.4961 450.906 62.1523 450.609 63.0039C450.312 63.8477 450.164 64.8281 450.164 65.9453C450.164 67.0625 450.312 68.0469 450.609 68.8984C450.906 69.7422 451.32 70.3945 451.852 70.8555C452.391 71.3164 453 71.5469 453.68 71.5469C454.367 71.5469 454.973 71.3164 455.496 70.8555C456.027 70.3945 456.438 69.7422 456.727 68.8984C457.023 68.0469 457.172 67.0625 457.172 65.9453C457.172 64.8281 457.023 63.8477 456.727 63.0039C456.438 62.1523 456.027 61.4961 455.496 61.0352C454.973 60.5664 454.367 60.3281 453.68 60.3203ZM464.227 65.3828H467.719V66.9766H464.227V77.8984H462.398V57.0625H464.227V65.3828ZM487.922 75.2266H468.844V73.6797H473.578V68.0547C472.672 67.5859 471.969 66.9844 471.469 66.25C470.969 65.5078 470.719 64.6719 470.719 63.7422C470.719 62.6797 471.043 61.7461 471.691 60.9414C472.34 60.1289 473.238 59.5 474.387 59.0547C475.543 58.6094 476.859 58.3828 478.336 58.375C479.812 58.3828 481.125 58.6094 482.273 59.0547C483.43 59.5 484.332 60.1289 484.98 60.9414C485.629 61.7461 485.953 62.6797 485.953 63.7422C485.953 64.6562 485.711 65.4805 485.227 66.2148C484.742 66.9414 484.062 67.5391 483.188 68.0078V73.6797H487.922V75.2266ZM478.336 59.8984C477.203 59.8906 476.195 60.0469 475.312 60.3672C474.43 60.6875 473.738 61.1406 473.238 61.7266C472.746 62.3047 472.5 62.9766 472.5 63.7422C472.5 64.5078 472.746 65.1875 473.238 65.7812C473.738 66.3672 474.43 66.8242 475.312 67.1523C476.195 67.4727 477.203 67.6328 478.336 67.6328C479.461 67.6328 480.465 67.4688 481.348 67.1406C482.23 66.8125 482.922 66.3555 483.422 65.7695C483.922 65.1836 484.172 64.5078 484.172 63.7422C484.172 62.9766 483.922 62.3047 483.422 61.7266C482.922 61.1406 482.23 60.6875 481.348 60.3672C480.465 60.0469 479.461 59.8906 478.336 59.8984ZM481.336 73.6797V68.7227C480.406 68.9648 479.406 69.0859 478.336 69.0859C477.258 69.0859 476.273 68.9688 475.383 68.7344V73.6797H481.336ZM492.797 71.2188H490.828L490.664 59.0312H492.961L492.797 71.2188ZM491.812 76.1406C491.539 76.1406 491.285 76.0742 491.051 75.9414C490.824 75.8008 490.641 75.6133 490.5 75.3789C490.367 75.1445 490.305 74.8906 490.312 74.6172C490.305 74.3516 490.367 74.1055 490.5 73.8789C490.641 73.6445 490.824 73.4609 491.051 73.3281C491.285 73.1875 491.539 73.1172 491.812 73.1172C492.078 73.1172 492.324 73.1875 492.551 73.3281C492.785 73.4609 492.969 73.6445 493.102 73.8789C493.242 74.1055 493.312 74.3516 493.312 74.6172C493.312 74.8906 493.242 75.1445 493.102 75.3789C492.969 75.6133 492.785 75.8008 492.551 75.9414C492.324 76.0742 492.078 76.1406 491.812 76.1406ZM513.469 60.1797H511.336V66.8477C512.445 66.7695 513.383 66.6797 514.148 66.5781L514.242 67.9844C512.445 68.2656 510.539 68.4492 508.523 68.5352C506.508 68.6211 504.352 68.6641 502.055 68.6641L501.82 67.1172L504.516 67.1055V60.1797H502.406V58.6562H513.469V60.1797ZM519.047 69.9297H517.195V66.0625H513.68V64.5391H517.195V62.3359H513.68V60.8125H517.195V57.0625H519.047V69.9297ZM512.133 70.375C513.578 70.375 514.824 70.5234 515.871 70.8203C516.918 71.1094 517.719 71.5352 518.273 72.0977C518.836 72.6523 519.117 73.3203 519.117 74.1016C519.117 74.8906 518.84 75.5664 518.285 76.1289C517.73 76.6914 516.93 77.1172 515.883 77.4062C514.836 77.7031 513.586 77.8516 512.133 77.8516C510.68 77.8516 509.43 77.7031 508.383 77.4062C507.336 77.1172 506.535 76.6914 505.98 76.1289C505.426 75.5664 505.148 74.8906 505.148 74.1016C505.148 73.3203 505.426 72.6523 505.98 72.0977C506.543 71.5352 507.348 71.1094 508.395 70.8203C509.441 70.5234 510.688 70.375 512.133 70.375ZM512.133 71.8047C511.07 71.8047 510.148 71.8984 509.367 72.0859C508.594 72.2656 508 72.5312 507.586 72.8828C507.172 73.2266 506.969 73.6328 506.977 74.1016C506.969 74.5781 507.172 74.9922 507.586 75.3438C508 75.6875 508.594 75.9492 509.367 76.1289C510.141 76.3086 511.062 76.3984 512.133 76.3984C513.195 76.3984 514.113 76.3086 514.887 76.1289C515.668 75.9492 516.262 75.6875 516.668 75.3438C517.082 74.9922 517.289 74.5781 517.289 74.1016C517.289 73.625 517.082 73.2148 516.668 72.8711C516.254 72.5273 515.66 72.2656 514.887 72.0859C514.113 71.8984 513.195 71.8047 512.133 71.8047ZM506.297 67.0703C507.516 67.0469 508.602 67.0078 509.555 66.9531V60.1797H506.297V67.0703ZM541.594 75.1797H522.516V73.6562H531.047V68.5469H532.852V73.6562H541.594V75.1797ZM532.898 60.0859C532.898 61.1953 533.281 62.2617 534.047 63.2852C534.82 64.3086 535.805 65.1758 537 65.8867C538.203 66.5898 539.422 67.0469 540.656 67.2578L539.836 68.7812C538.758 68.5625 537.699 68.1836 536.66 67.6445C535.621 67.1055 534.684 66.4336 533.848 65.6289C533.02 64.8242 532.387 63.9375 531.949 62.9688C531.512 63.9375 530.879 64.8242 530.051 65.6289C529.223 66.4336 528.289 67.1055 527.25 67.6445C526.219 68.1836 525.164 68.5625 524.086 68.7812L523.266 67.2578C524.5 67.0469 525.711 66.5898 526.898 65.8867C528.094 65.1758 529.07 64.3125 529.828 63.2969C530.594 62.2734 530.977 61.2031 530.977 60.0859V58.4922H532.898V60.0859ZM565.57 63.9531H568.711V65.5H565.57V72.6953H563.742V57.0859H565.57V63.9531ZM561.75 61.1406H549.328V59.6406H554.625V57.0859H556.453V59.6406H561.75V61.1406ZM555.539 62.2891C556.523 62.2891 557.391 62.4492 558.141 62.7695C558.898 63.0898 559.488 63.543 559.91 64.1289C560.332 64.7148 560.547 65.3984 560.555 66.1797C560.547 66.9531 560.332 67.6289 559.91 68.207C559.488 68.7852 558.898 69.2344 558.141 69.5547C557.391 69.8672 556.523 70.0234 555.539 70.0234C554.547 70.0234 553.668 69.8672 552.902 69.5547C552.145 69.2344 551.555 68.7852 551.133 68.207C550.719 67.6289 550.516 66.9531 550.523 66.1797C550.516 65.3984 550.719 64.7148 551.133 64.1289C551.555 63.543 552.145 63.0898 552.902 62.7695C553.668 62.4492 554.547 62.2891 555.539 62.2891ZM555.539 63.7422C554.891 63.7422 554.316 63.8438 553.816 64.0469C553.324 64.2422 552.941 64.5273 552.668 64.9023C552.402 65.2695 552.273 65.6953 552.281 66.1797C552.273 66.6641 552.402 67.0898 552.668 67.457C552.941 67.8164 553.324 68.0938 553.816 68.2891C554.316 68.4844 554.891 68.5781 555.539 68.5703C556.18 68.5781 556.746 68.4844 557.238 68.2891C557.738 68.0938 558.125 67.8164 558.398 67.457C558.672 67.0898 558.812 66.6641 558.82 66.1797C558.812 65.6953 558.672 65.2695 558.398 64.9023C558.125 64.5273 557.738 64.2422 557.238 64.0469C556.746 63.8438 556.18 63.7422 555.539 63.7422ZM566.531 77.4531H552.539V71.4531H554.344V75.9062H566.531V77.4531ZM586.594 59.5938C586.594 60.6797 586.562 61.6641 586.5 62.5469C586.445 63.4219 586.305 64.4141 586.078 65.5234H589.102V67.0234H580.43V70.8672H586.734V77.8984H584.883V72.3906H571.992V70.8672H578.602V67.0234H570.023V65.5234H584.227C584.461 64.3984 584.609 63.3984 584.672 62.5234C584.734 61.6484 584.766 60.6719 584.766 59.5938H572.438V58.0938H586.594V59.5938ZM615.844 69.25H607.359V73.5156H605.531V69.25H596.766V67.7266H615.844V69.25ZM613.359 65.3359H599.25V58.0938H613.359V65.3359ZM601.055 63.8594H611.531V59.5469H601.055V63.8594ZM613.711 77.4531H599.203V71.4531H601.055V75.9062H613.711V77.4531ZM633.703 65.9453H637.031V67.4922H633.703V77.8984H631.852V57.0625H633.703V65.9453ZM617.273 72.3438C619.727 72.3438 621.641 72.3203 623.016 72.2734V69.9648C622.211 69.8711 621.504 69.6602 620.895 69.332C620.293 68.9961 619.828 68.5625 619.5 68.0312C619.18 67.4922 619.023 66.8828 619.031 66.2031C619.023 65.4297 619.223 64.7539 619.629 64.1758C620.043 63.5898 620.621 63.1367 621.363 62.8164C622.113 62.4961 622.977 62.3359 623.953 62.3359C624.914 62.3359 625.766 62.4961 626.508 62.8164C627.258 63.1367 627.84 63.5898 628.254 64.1758C628.676 64.7539 628.891 65.4297 628.898 66.2031C628.891 66.8828 628.719 67.4922 628.383 68.0312C628.047 68.5625 627.574 68.9961 626.965 69.332C626.363 69.668 625.664 69.8828 624.867 69.9766V72.2031C627.086 72.0938 628.992 71.9219 630.586 71.6875L630.703 73.0938C628.688 73.4375 626.617 73.6602 624.492 73.7617C622.367 73.8633 620.062 73.9141 617.578 73.9141L617.273 72.3438ZM630.211 61.1172H617.648V59.6172H623.016V57.1094H624.867V59.6172H630.211V61.1172ZM623.953 63.7656C623.32 63.7656 622.762 63.8672 622.277 64.0703C621.793 64.2734 621.414 64.5625 621.141 64.9375C620.875 65.3047 620.742 65.7266 620.742 66.2031C620.742 66.6797 620.875 67.1016 621.141 67.4688C621.406 67.8281 621.781 68.1055 622.266 68.3008C622.758 68.4883 623.32 68.5781 623.953 68.5703C624.578 68.5781 625.133 68.4883 625.617 68.3008C626.102 68.1055 626.477 67.8281 626.742 67.4688C627.008 67.1016 627.141 66.6797 627.141 66.2031C627.141 65.7266 627.008 65.3047 626.742 64.9375C626.477 64.5625 626.102 64.2734 625.617 64.0703C625.133 63.8672 624.578 63.7656 623.953 63.7656ZM656.133 77.8984H654.352V57.0625H656.133V77.8984ZM651.938 76.8438H650.18V66.7188H647.496C647.434 68.0625 647.211 69.2305 646.828 70.2227C646.445 71.207 645.926 71.9688 645.27 72.5078C644.613 73.0391 643.859 73.3047 643.008 73.3047C642.109 73.3047 641.32 73.0117 640.641 72.4258C639.969 71.832 639.449 70.9883 639.082 69.8945C638.715 68.8008 638.531 67.5234 638.531 66.0625C638.531 64.6016 638.715 63.3242 639.082 62.2305C639.449 61.1367 639.969 60.2969 640.641 59.7109C641.32 59.1172 642.109 58.8203 643.008 58.8203C643.844 58.8203 644.586 59.0781 645.234 59.5938C645.883 60.1094 646.398 60.8477 646.781 61.8086C647.172 62.7695 647.406 63.8984 647.484 65.1953H650.18V57.5078H651.938V76.8438ZM643.008 60.5547C642.445 60.5547 641.957 60.7773 641.543 61.2227C641.129 61.668 640.809 62.3086 640.582 63.1445C640.363 63.9727 640.258 64.9453 640.266 66.0625C640.258 67.1797 640.363 68.1523 640.582 68.9805C640.809 69.8086 641.129 70.4453 641.543 70.8906C641.965 71.3359 642.453 71.5547 643.008 71.5469C643.562 71.5547 644.047 71.3359 644.461 70.8906C644.883 70.4453 645.207 69.8086 645.434 68.9805C645.66 68.1523 645.773 67.1797 645.773 66.0625C645.773 64.9375 645.66 63.9609 645.434 63.1328C645.207 62.3047 644.887 61.668 644.473 61.2227C644.059 60.7773 643.57 60.5547 643.008 60.5547ZM676.594 59.7812V60.0625C676.578 61.1016 676.539 62.0625 676.477 62.9453C676.414 63.8281 676.273 64.8281 676.055 65.9453L674.203 65.8047C674.422 64.7031 674.566 63.7266 674.637 62.875C674.715 62.0234 674.762 61.1406 674.777 60.2266H666.211V58.6797H676.594V59.7812ZM671.227 67.7734C673.914 67.6641 676.203 67.4766 678.094 67.2109L678.211 68.5703C676.266 68.9062 674.191 69.1328 671.988 69.25C669.793 69.3594 667.5 69.4141 665.109 69.4141L664.922 67.8906H665.18L669.398 67.832V63.2969H671.227V67.7734ZM681.375 63.8594H684.422V65.4297H681.375V72.7422H679.5V57.0625H681.375V63.8594ZM682.055 77.4531H668.133V71.3359H669.984V75.9062H682.055V77.4531ZM702.984 68.9219H701.156V57.0859H702.984V68.9219ZM702.984 77.6172H689.438V70.1172H702.984V77.6172ZM691.242 76.1172H701.18V71.6172H691.242V76.1172ZM693.164 59.9453C693.156 60.9062 693.379 61.8281 693.832 62.7109C694.285 63.5938 694.914 64.3711 695.719 65.043C696.523 65.707 697.438 66.2188 698.461 66.5781L697.523 67.9844C696.312 67.5703 695.246 66.9414 694.324 66.0977C693.41 65.2461 692.719 64.2539 692.25 63.1211C691.789 64.3398 691.09 65.4102 690.152 66.332C689.215 67.2461 688.125 67.9297 686.883 68.3828L685.945 66.9297C686.992 66.5625 687.918 66.0273 688.723 65.3242C689.535 64.6133 690.164 63.793 690.609 62.8633C691.062 61.9258 691.289 60.9531 691.289 59.9453V57.9062H693.164V59.9453ZM723.703 77.9453H721.852V57.0625H723.703V77.9453ZM712.617 58.6797C713.648 58.6875 714.566 58.9922 715.371 59.5938C716.176 60.1875 716.805 61.0312 717.258 62.125C717.711 63.2188 717.938 64.4922 717.938 65.9453C717.938 67.3984 717.711 68.6719 717.258 69.7656C716.805 70.8594 716.176 71.7031 715.371 72.2969C714.566 72.8906 713.648 73.1875 712.617 73.1875C711.586 73.1875 710.664 72.8906 709.852 72.2969C709.047 71.7031 708.418 70.8594 707.965 69.7656C707.52 68.6719 707.297 67.3984 707.297 65.9453C707.297 64.4922 707.52 63.2188 707.965 62.125C708.418 61.0312 709.047 60.1875 709.852 59.5938C710.656 58.9922 711.578 58.6875 712.617 58.6797ZM712.617 60.3203C711.922 60.3281 711.305 60.5664 710.766 61.0352C710.234 61.4961 709.82 62.1523 709.523 63.0039C709.227 63.8477 709.078 64.8281 709.078 65.9453C709.078 67.0625 709.227 68.0469 709.523 68.8984C709.82 69.7422 710.238 70.3945 710.777 70.8555C711.316 71.3164 711.93 71.5469 712.617 71.5469C713.305 71.5469 713.918 71.3164 714.457 70.8555C714.996 70.3945 715.414 69.7422 715.711 68.8984C716.008 68.0469 716.156 67.0625 716.156 65.9453C716.156 64.8281 716.008 63.8477 715.711 63.0039C715.414 62.1523 714.996 61.4961 714.457 61.0352C713.926 60.5664 713.312 60.3281 712.617 60.3203ZM202.898 105.055C202.898 106.016 203.152 106.941 203.66 107.832C204.176 108.723 204.91 109.438 205.863 109.977C206.496 109.578 207.043 109.102 207.504 108.547C207.965 107.984 208.312 107.402 208.547 106.801C208.781 106.191 208.898 105.609 208.898 105.055V103.906H210.703V105.055C210.703 105.773 210.871 106.477 211.207 107.164C211.551 107.844 212.043 108.457 212.684 109.004C213.324 109.543 214.078 109.961 214.945 110.258L214.031 111.617C213.008 111.258 212.133 110.734 211.406 110.047C210.68 109.359 210.133 108.57 209.766 107.68C209.422 108.57 208.926 109.379 208.277 110.105C207.629 110.832 206.844 111.391 205.922 111.781C204.945 111.406 204.125 110.863 203.461 110.152C202.805 109.449 202.312 108.641 201.984 107.727C201.602 108.594 201.055 109.367 200.344 110.047C199.633 110.727 198.789 111.25 197.812 111.617L196.875 110.258C197.727 109.938 198.469 109.5 199.102 108.945C199.742 108.383 200.234 107.762 200.578 107.082C200.93 106.402 201.109 105.727 201.117 105.055V103.906H202.898V105.055ZM213.047 102.992H211.219V91.0859H213.047V102.992ZM201.797 92.3047C202.844 92.3047 203.781 92.5117 204.609 92.9258C205.438 93.332 206.086 93.9062 206.555 94.6484C207.023 95.3828 207.258 96.2266 207.258 97.1797C207.258 98.1172 207.023 98.9531 206.555 99.6875C206.086 100.422 205.438 100.992 204.609 101.398C203.781 101.805 202.844 102.008 201.797 102.008C200.75 102.008 199.812 101.805 198.984 101.398C198.156 100.992 197.508 100.422 197.039 99.6875C196.57 98.9531 196.336 98.1172 196.336 97.1797C196.336 96.2266 196.57 95.3828 197.039 94.6484C197.508 93.9062 198.156 93.332 198.984 92.9258C199.812 92.5117 200.75 92.3047 201.797 92.3047ZM201.797 93.875C201.094 93.8672 200.461 94.0039 199.898 94.2852C199.344 94.5664 198.91 94.9609 198.598 95.4688C198.285 95.9688 198.133 96.5391 198.141 97.1797C198.133 97.8125 198.285 98.3789 198.598 98.8789C198.91 99.3789 199.344 99.7695 199.898 100.051C200.461 100.332 201.094 100.477 201.797 100.484C202.492 100.477 203.117 100.332 203.672 100.051C204.227 99.7695 204.66 99.3789 204.973 98.8789C205.293 98.3789 205.453 97.8125 205.453 97.1797C205.453 96.5391 205.293 95.9688 204.973 95.4688C204.66 94.9609 204.227 94.5664 203.672 94.2852C203.117 94.0039 202.492 93.8672 201.797 93.875ZM222.188 92.6797C223.125 92.6875 223.965 92.9492 224.707 93.4648C225.457 93.9805 226.062 94.7148 226.523 95.668C226.984 96.6211 227.262 97.7422 227.355 99.0312H232.031V91.0625H233.859V111.945H232.031V100.555H227.379C227.309 101.898 227.047 103.07 226.594 104.07C226.141 105.07 225.531 105.84 224.766 106.379C224.008 106.918 223.148 107.188 222.188 107.188C221.172 107.188 220.266 106.891 219.469 106.297C218.68 105.703 218.062 104.859 217.617 103.766C217.18 102.672 216.961 101.398 216.961 99.9453C216.961 98.4922 217.18 97.2188 217.617 96.125C218.062 95.0312 218.68 94.1875 219.469 93.5938C220.258 92.9922 221.164 92.6875 222.188 92.6797ZM222.188 94.3203C221.508 94.3281 220.902 94.5664 220.371 95.0352C219.848 95.4961 219.441 96.1523 219.152 97.0039C218.863 97.8477 218.719 98.8281 218.719 99.9453C218.719 101.062 218.863 102.047 219.152 102.898C219.441 103.742 219.848 104.395 220.371 104.855C220.902 105.316 221.508 105.547 222.188 105.547C222.859 105.547 223.457 105.316 223.98 104.855C224.512 104.395 224.922 103.742 225.211 102.898C225.508 102.047 225.656 101.062 225.656 99.9453C225.656 98.8281 225.508 97.8477 225.211 97.0039C224.922 96.1523 224.516 95.4961 223.992 95.0352C223.469 94.5664 222.867 94.3281 222.188 94.3203ZM244.664 96.6641C244.664 97.8984 244.906 99.1172 245.391 100.32C245.875 101.523 246.531 102.594 247.359 103.531C248.188 104.461 249.102 105.156 250.102 105.617L249 107.117C247.82 106.508 246.766 105.613 245.836 104.434C244.906 103.254 244.211 101.922 243.75 100.438C243.281 102.008 242.582 103.418 241.652 104.668C240.73 105.918 239.68 106.859 238.5 107.492L237.305 106.016C238.312 105.523 239.234 104.785 240.07 103.801C240.906 102.809 241.566 101.688 242.051 100.438C242.543 99.1797 242.789 97.9219 242.789 96.6641V92.8672H244.664V96.6641ZM254.602 111.945H252.773V99.6875H247.828V98.1875H252.773V91.0625H254.602V111.945ZM281.297 104.188H279.469V91.0625H281.297V104.188ZM270.727 101.176C273.406 101.082 275.758 100.898 277.781 100.625L277.898 101.984C275.984 102.273 273.98 102.473 271.887 102.582C269.793 102.684 267.633 102.734 265.406 102.734H264.398L264.141 101.258C266.188 101.258 267.773 101.246 268.898 101.223V97.2969H270.727V101.176ZM275.906 93.7812C275.906 94.8203 275.875 95.7617 275.812 96.6055C275.758 97.4414 275.617 98.3828 275.391 99.4297L273.633 99.2188C273.844 98.2109 273.977 97.3125 274.031 96.5234C274.094 95.7344 274.125 94.8594 274.125 93.8984H265.664V92.375H275.906V93.7812ZM274.383 104.375C275.82 104.375 277.066 104.523 278.121 104.82C279.176 105.117 279.984 105.547 280.547 106.109C281.109 106.664 281.391 107.328 281.391 108.102C281.391 108.898 281.109 109.578 280.547 110.141C279.984 110.703 279.176 111.129 278.121 111.418C277.074 111.707 275.828 111.852 274.383 111.852C272.914 111.852 271.652 111.707 270.598 111.418C269.543 111.129 268.734 110.703 268.172 110.141C267.609 109.578 267.328 108.898 267.328 108.102C267.328 107.328 267.609 106.664 268.172 106.109C268.734 105.547 269.543 105.117 270.598 104.82C271.66 104.523 272.922 104.375 274.383 104.375ZM274.383 105.828C273.328 105.828 272.41 105.922 271.629 106.109C270.855 106.289 270.258 106.551 269.836 106.895C269.422 107.238 269.219 107.641 269.227 108.102C269.219 108.578 269.422 108.992 269.836 109.344C270.25 109.688 270.844 109.949 271.617 110.129C272.398 110.309 273.32 110.398 274.383 110.398C275.438 110.398 276.348 110.309 277.113 110.129C277.887 109.949 278.48 109.688 278.895 109.344C279.309 108.992 279.516 108.578 279.516 108.102C279.516 107.633 279.309 107.23 278.895 106.895C278.48 106.551 277.887 106.289 277.113 106.109C276.34 105.922 275.43 105.828 274.383 105.828ZM291.891 95.0234C291.891 95.9219 292.102 96.7812 292.523 97.6016C292.953 98.4141 293.551 99.1328 294.316 99.7578C295.09 100.375 295.984 100.852 297 101.188L296.133 102.641C294.945 102.25 293.906 101.66 293.016 100.871C292.133 100.082 291.465 99.1562 291.012 98.0938C290.566 99.2891 289.883 100.336 288.961 101.234C288.039 102.125 286.953 102.797 285.703 103.25L284.766 101.773C285.797 101.422 286.715 100.906 287.52 100.227C288.324 99.5469 288.949 98.7578 289.395 97.8594C289.848 96.9531 290.078 96.0078 290.086 95.0234V94.1328H285.328V92.6094H296.578V94.1328H291.891V95.0234ZM301.125 96.3828H304.266V97.9297H301.125V103.648H299.297V91.0625H301.125V96.3828ZM294.445 104.211C295.867 104.211 297.094 104.363 298.125 104.668C299.156 104.965 299.945 105.398 300.492 105.969C301.039 106.539 301.312 107.219 301.312 108.008C301.312 108.812 301.039 109.504 300.492 110.082C299.945 110.66 299.156 111.098 298.125 111.395C297.094 111.699 295.867 111.852 294.445 111.852C293.023 111.852 291.793 111.699 290.754 111.395C289.715 111.098 288.918 110.66 288.363 110.082C287.809 109.504 287.531 108.812 287.531 108.008C287.531 107.219 287.809 106.539 288.363 105.969C288.918 105.398 289.715 104.965 290.754 104.668C291.793 104.363 293.023 104.211 294.445 104.211ZM294.445 105.688C293.406 105.688 292.504 105.781 291.738 105.969C290.973 106.148 290.387 106.414 289.98 106.766C289.574 107.117 289.375 107.531 289.383 108.008C289.375 108.5 289.574 108.926 289.98 109.285C290.387 109.637 290.969 109.906 291.727 110.094C292.492 110.281 293.398 110.375 294.445 110.375C295.5 110.375 296.406 110.281 297.164 110.094C297.93 109.906 298.516 109.637 298.922 109.285C299.328 108.926 299.531 108.5 299.531 108.008C299.531 107.523 299.328 107.109 298.922 106.766C298.516 106.414 297.93 106.148 297.164 105.969C296.398 105.781 295.492 105.688 294.445 105.688ZM322.758 111.898H320.906V91.0625H322.758V111.898ZM318.656 95.9609H306.047V94.4609H311.414V91.2734H313.266V94.4609H318.656V95.9609ZM312.398 97.6719C313.391 97.6719 314.277 97.875 315.059 98.2812C315.84 98.6875 316.449 99.2539 316.887 99.9805C317.332 100.707 317.555 101.531 317.555 102.453C317.555 103.375 317.332 104.199 316.887 104.926C316.449 105.652 315.84 106.219 315.059 106.625C314.277 107.031 313.391 107.234 312.398 107.234C311.398 107.234 310.504 107.031 309.715 106.625C308.926 106.219 308.309 105.652 307.863 104.926C307.426 104.199 307.211 103.375 307.219 102.453C307.211 101.531 307.426 100.707 307.863 99.9805C308.309 99.2539 308.926 98.6875 309.715 98.2812C310.504 97.875 311.398 97.6719 312.398 97.6719ZM312.398 99.2188C311.742 99.2188 311.152 99.3594 310.629 99.6406C310.105 99.9141 309.695 100.297 309.398 100.789C309.102 101.281 308.953 101.836 308.953 102.453C308.953 103.078 309.102 103.637 309.398 104.129C309.695 104.613 310.105 104.992 310.629 105.266C311.152 105.539 311.742 105.672 312.398 105.664C313.047 105.672 313.629 105.539 314.145 105.266C314.66 104.992 315.062 104.613 315.352 104.129C315.648 103.637 315.797 103.078 315.797 102.453C315.797 101.836 315.648 101.281 315.352 100.789C315.062 100.297 314.66 99.9141 314.145 99.6406C313.629 99.3594 313.047 99.2188 312.398 99.2188ZM350.25 111.898H348.469V101.07H345.633V110.844H343.875V91.5078H345.633V99.5H348.469V91.0625H350.25V111.898ZM338.508 96.7578C338.508 98.0391 338.68 99.25 339.023 100.391C339.375 101.523 339.891 102.527 340.57 103.402C341.25 104.27 342.078 104.953 343.055 105.453L341.953 106.883C340.914 106.32 340.031 105.547 339.305 104.562C338.586 103.57 338.039 102.422 337.664 101.117C337.305 102.594 336.754 103.883 336.012 104.984C335.277 106.086 334.367 106.953 333.281 107.586L332.133 106.18C333.117 105.641 333.953 104.902 334.641 103.965C335.328 103.027 335.848 101.945 336.199 100.719C336.551 99.4922 336.727 98.1719 336.727 96.7578V95.0938H332.625V93.5469H342.375V95.0938H338.508V96.7578ZM363.938 106.672H354.305V93.125H363.938V106.672ZM356.109 105.172H362.133V94.6016H356.109V105.172ZM370.266 111.945H368.414V91.0625H370.266V111.945ZM380.883 105.055C380.883 106.016 381.137 106.941 381.645 107.832C382.16 108.723 382.895 109.438 383.848 109.977C384.48 109.578 385.027 109.102 385.488 108.547C385.949 107.984 386.297 107.402 386.531 106.801C386.766 106.191 386.883 105.609 386.883 105.055V103.906H388.688V105.055C388.688 105.773 388.855 106.477 389.191 107.164C389.535 107.844 390.027 108.457 390.668 109.004C391.309 109.543 392.062 109.961 392.93 110.258L392.016 111.617C390.992 111.258 390.117 110.734 389.391 110.047C388.664 109.359 388.117 108.57 387.75 107.68C387.406 108.57 386.91 109.379 386.262 110.105C385.613 110.832 384.828 111.391 383.906 111.781C382.93 111.406 382.109 110.863 381.445 110.152C380.789 109.449 380.297 108.641 379.969 107.727C379.586 108.594 379.039 109.367 378.328 110.047C377.617 110.727 376.773 111.25 375.797 111.617L374.859 110.258C375.711 109.938 376.453 109.5 377.086 108.945C377.727 108.383 378.219 107.762 378.562 107.082C378.914 106.402 379.094 105.727 379.102 105.055V103.906H380.883V105.055ZM391.031 102.992H389.203V91.0859H391.031V102.992ZM379.781 92.3047C380.828 92.3047 381.766 92.5117 382.594 92.9258C383.422 93.332 384.07 93.9062 384.539 94.6484C385.008 95.3828 385.242 96.2266 385.242 97.1797C385.242 98.1172 385.008 98.9531 384.539 99.6875C384.07 100.422 383.422 100.992 382.594 101.398C381.766 101.805 380.828 102.008 379.781 102.008C378.734 102.008 377.797 101.805 376.969 101.398C376.141 100.992 375.492 100.422 375.023 99.6875C374.555 98.9531 374.32 98.1172 374.32 97.1797C374.32 96.2266 374.555 95.3828 375.023 94.6484C375.492 93.9062 376.141 93.332 376.969 92.9258C377.797 92.5117 378.734 92.3047 379.781 92.3047ZM379.781 93.875C379.078 93.8672 378.445 94.0039 377.883 94.2852C377.328 94.5664 376.895 94.9609 376.582 95.4688C376.27 95.9688 376.117 96.5391 376.125 97.1797C376.117 97.8125 376.27 98.3789 376.582 98.8789C376.895 99.3789 377.328 99.7695 377.883 100.051C378.445 100.332 379.078 100.477 379.781 100.484C380.477 100.477 381.102 100.332 381.656 100.051C382.211 99.7695 382.645 99.3789 382.957 98.8789C383.277 98.3789 383.438 97.8125 383.438 97.1797C383.438 96.5391 383.277 95.9688 382.957 95.4688C382.645 94.9609 382.211 94.5664 381.656 94.2852C381.102 94.0039 380.477 93.8672 379.781 93.875ZM404.062 91.4375C405.609 91.4375 406.934 91.5781 408.035 91.8594C409.137 92.1328 409.977 92.5391 410.555 93.0781C411.133 93.6094 411.422 94.2578 411.422 95.0234C411.422 96.1953 410.781 97.0938 409.5 97.7188C408.219 98.3438 406.406 98.6641 404.062 98.6797C402.516 98.6719 401.188 98.5273 400.078 98.2461C398.977 97.9648 398.133 97.5547 397.547 97.0156C396.969 96.4688 396.68 95.8047 396.68 95.0234C396.68 94.2578 396.969 93.6094 397.547 93.0781C398.133 92.5391 398.977 92.1328 400.078 91.8594C401.188 91.5781 402.516 91.4375 404.062 91.4375ZM404.062 92.8203C402.914 92.8203 401.93 92.9102 401.109 93.0898C400.289 93.2617 399.664 93.5156 399.234 93.8516C398.805 94.1797 398.594 94.5703 398.602 95.0234C398.594 95.7422 399.066 96.2969 400.02 96.6875C400.973 97.0781 402.32 97.2734 404.062 97.2734C405.797 97.2734 407.145 97.0781 408.105 96.6875C409.066 96.2969 409.547 95.7422 409.547 95.0234C409.547 94.5703 409.328 94.1797 408.891 93.8516C408.453 93.5234 407.824 93.2695 407.004 93.0898C406.184 92.9102 405.203 92.8203 404.062 92.8203ZM413.555 101.586H394.57V100.086H413.555V101.586ZM411.117 108.055H398.742V110.211H411.75V111.664H396.914V106.695H409.312V104.797H396.867V103.391H411.117V108.055ZM438.609 105.195H436.758V98.4922H432.188V96.9453H436.758V91.0859H438.609V105.195ZM432.094 92.7266C432.086 94.4844 431.703 96.0859 430.945 97.5312C430.188 98.9688 429.094 100.219 427.664 101.281C426.234 102.344 424.516 103.195 422.508 103.836L421.688 102.359C423.344 101.852 424.781 101.199 426 100.402C427.219 99.5977 428.18 98.6758 428.883 97.6367C429.586 96.5898 430 95.4531 430.125 94.2266H422.719V92.7266H432.094ZM432.75 104.328C432.75 105.305 433.07 106.207 433.711 107.035C434.352 107.863 435.207 108.559 436.277 109.121C437.348 109.684 438.508 110.078 439.758 110.305L438.984 111.781C437.383 111.469 435.941 110.91 434.66 110.105C433.387 109.309 432.449 108.32 431.848 107.141C431.238 108.328 430.285 109.324 428.988 110.129C427.691 110.941 426.234 111.508 424.617 111.828L423.867 110.375C425.117 110.164 426.281 109.773 427.359 109.203C428.438 108.625 429.301 107.914 429.949 107.07C430.605 106.227 430.938 105.312 430.945 104.328V103.367H432.75V104.328ZM464.391 95.9375H467.531V97.4609H464.391V102.219H462.562V91.0625H464.391V95.9375ZM458.789 92.5391C458.781 94.25 458.387 95.7812 457.605 97.1328C456.824 98.4766 455.699 99.6094 454.23 100.531C452.77 101.453 451.008 102.148 448.945 102.617L448.172 101.117C449.914 100.734 451.41 100.199 452.66 99.5117C453.91 98.8242 454.879 98.0156 455.566 97.0859C456.254 96.1562 456.648 95.1406 456.75 94.0391H449.062V92.5391H458.789ZM464.484 104.562H453.047V106.625H464.25V108.031H453.047V110.188H464.977V111.617H451.195V103.156H464.484V104.562ZM474.422 92.6797C475.445 92.6875 476.352 92.9922 477.141 93.5938C477.938 94.1875 478.559 95.0312 479.004 96.125C479.457 97.2188 479.688 98.4922 479.695 99.9453C479.688 101.398 479.457 102.672 479.004 103.766C478.559 104.859 477.938 105.703 477.141 106.297C476.344 106.891 475.438 107.188 474.422 107.188C473.398 107.188 472.488 106.891 471.691 106.297C470.895 105.703 470.273 104.859 469.828 103.766C469.391 102.672 469.172 101.398 469.172 99.9453C469.172 98.4922 469.391 97.2188 469.828 96.125C470.273 95.0312 470.895 94.1875 471.691 93.5938C472.488 92.9922 473.398 92.6875 474.422 92.6797ZM474.422 94.3203C473.734 94.3281 473.125 94.5664 472.594 95.0352C472.062 95.4961 471.648 96.1523 471.352 97.0039C471.055 97.8477 470.906 98.8281 470.906 99.9453C470.906 101.062 471.055 102.047 471.352 102.898C471.648 103.742 472.062 104.395 472.594 104.855C473.133 105.316 473.742 105.547 474.422 105.547C475.109 105.547 475.715 105.316 476.238 104.855C476.77 104.395 477.18 103.742 477.469 102.898C477.766 102.047 477.914 101.062 477.914 99.9453C477.914 98.8281 477.766 97.8477 477.469 97.0039C477.18 96.1523 476.77 95.4961 476.238 95.0352C475.715 94.5664 475.109 94.3281 474.422 94.3203ZM484.969 99.3828H488.461V100.977H484.969V111.898H483.141V91.0625H484.969V99.3828ZM508.664 109.227H489.586V107.68H494.32V102.055C493.414 101.586 492.711 100.984 492.211 100.25C491.711 99.5078 491.461 98.6719 491.461 97.7422C491.461 96.6797 491.785 95.7461 492.434 94.9414C493.082 94.1289 493.98 93.5 495.129 93.0547C496.285 92.6094 497.602 92.3828 499.078 92.375C500.555 92.3828 501.867 92.6094 503.016 93.0547C504.172 93.5 505.074 94.1289 505.723 94.9414C506.371 95.7461 506.695 96.6797 506.695 97.7422C506.695 98.6562 506.453 99.4805 505.969 100.215C505.484 100.941 504.805 101.539 503.93 102.008V107.68H508.664V109.227ZM499.078 93.8984C497.945 93.8906 496.938 94.0469 496.055 94.3672C495.172 94.6875 494.48 95.1406 493.98 95.7266C493.488 96.3047 493.242 96.9766 493.242 97.7422C493.242 98.5078 493.488 99.1875 493.98 99.7812C494.48 100.367 495.172 100.824 496.055 101.152C496.938 101.473 497.945 101.633 499.078 101.633C500.203 101.633 501.207 101.469 502.09 101.141C502.973 100.812 503.664 100.355 504.164 99.7695C504.664 99.1836 504.914 98.5078 504.914 97.7422C504.914 96.9766 504.664 96.3047 504.164 95.7266C503.664 95.1406 502.973 94.6875 502.09 94.3672C501.207 94.0469 500.203 93.8906 499.078 93.8984ZM502.078 107.68V102.723C501.148 102.965 500.148 103.086 499.078 103.086C498 103.086 497.016 102.969 496.125 102.734V107.68H502.078ZM512.531 110.141C512.258 110.141 512.004 110.074 511.77 109.941C511.543 109.801 511.359 109.613 511.219 109.379C511.086 109.145 511.023 108.891 511.031 108.617C511.023 108.352 511.086 108.105 511.219 107.879C511.359 107.645 511.543 107.461 511.77 107.328C512.004 107.188 512.258 107.117 512.531 107.117C512.797 107.117 513.043 107.188 513.27 107.328C513.504 107.461 513.688 107.645 513.82 107.879C513.961 108.105 514.031 108.352 514.031 108.617C514.031 108.891 513.961 109.145 513.82 109.379C513.688 109.613 513.504 109.801 513.27 109.941C513.043 110.074 512.797 110.141 512.531 110.141Z" fill="#2C2C2C"/>
<path d="M199.864 140.296C200.589 140.296 201.229 140.435 201.784 140.712C202.349 140.979 202.792 141.352 203.112 141.832C203.432 142.312 203.592 142.872 203.592 143.512C203.592 144.141 203.432 144.701 203.112 145.192C202.792 145.672 202.349 146.045 201.784 146.312C201.229 146.579 200.589 146.712 199.864 146.712C199.149 146.712 198.509 146.579 197.944 146.312C197.379 146.045 196.931 145.672 196.6 145.192C196.28 144.701 196.12 144.141 196.12 143.512C196.12 142.872 196.28 142.312 196.6 141.832C196.931 141.352 197.379 140.979 197.944 140.712C198.509 140.435 199.149 140.296 199.864 140.296ZM199.864 141.4C199.395 141.4 198.973 141.491 198.6 141.672C198.237 141.843 197.949 142.088 197.736 142.408C197.523 142.728 197.416 143.096 197.416 143.512C197.416 143.928 197.523 144.296 197.736 144.616C197.949 144.925 198.237 145.171 198.6 145.352C198.973 145.533 199.395 145.624 199.864 145.624C200.333 145.624 200.749 145.533 201.112 145.352C201.485 145.171 201.779 144.925 201.992 144.616C202.205 144.296 202.312 143.928 202.312 143.512C202.312 143.096 202.205 142.728 201.992 142.408C201.779 142.088 201.485 141.843 201.112 141.672C200.749 141.491 200.333 141.4 199.864 141.4ZM206.328 139.768H207.656V147.176H206.328V139.768ZM198.296 147.896H207.656V151.4H199.624V153.576H198.344V150.408H206.344V148.952H198.296V147.896ZM198.344 152.984H208.152V154.056H198.344V152.984ZM212.247 140.344H213.559V142.152H220.567V140.344H221.879V146.136H212.247V140.344ZM213.559 143.208V145.064H220.567V143.208H213.559ZM210.519 147.672H223.591V148.76H210.519V147.672ZM216.391 145.496H217.719V148.152H216.391V145.496ZM212.199 152.84H222.135V153.928H212.199V152.84ZM212.199 149.912H213.527V153.208H212.199V149.912ZM229.094 140.888C229.798 140.888 230.422 141.096 230.966 141.512C231.51 141.917 231.931 142.499 232.23 143.256C232.539 144.013 232.694 144.904 232.694 145.928C232.694 146.952 232.539 147.843 232.23 148.6C231.931 149.357 231.51 149.944 230.966 150.36C230.422 150.776 229.798 150.984 229.094 150.984C228.4 150.984 227.776 150.776 227.222 150.36C226.678 149.944 226.251 149.357 225.942 148.6C225.643 147.843 225.493 146.952 225.493 145.928C225.493 144.904 225.643 144.013 225.942 143.256C226.251 142.499 226.678 141.917 227.222 141.512C227.776 141.096 228.4 140.888 229.094 140.888ZM229.094 142.072C228.635 142.072 228.23 142.232 227.878 142.552C227.526 142.861 227.248 143.309 227.046 143.896C226.854 144.472 226.758 145.149 226.758 145.928C226.758 146.707 226.854 147.389 227.046 147.976C227.248 148.552 227.526 149 227.878 149.32C228.23 149.64 228.635 149.8 229.094 149.8C229.563 149.8 229.974 149.64 230.326 149.32C230.678 149 230.95 148.552 231.142 147.976C231.344 147.389 231.446 146.707 231.446 145.928C231.446 145.149 231.344 144.472 231.142 143.896C230.95 143.309 230.678 142.861 230.326 142.552C229.974 142.232 229.563 142.072 229.094 142.072ZM235.83 139.768H237.142V154.264H235.83V139.768ZM232.262 145.288H236.422V146.36H232.262V145.288ZM247.992 141.016H249.08V143.608C249.08 144.408 248.979 145.192 248.776 145.96C248.584 146.728 248.307 147.448 247.944 148.12C247.582 148.792 247.155 149.389 246.664 149.912C246.174 150.435 245.64 150.851 245.064 151.16L244.248 150.088C244.782 149.821 245.272 149.464 245.72 149.016C246.179 148.557 246.579 148.035 246.92 147.448C247.262 146.861 247.523 146.243 247.704 145.592C247.896 144.931 247.992 144.269 247.992 143.608V141.016ZM248.232 141.016H249.304V143.608C249.304 144.248 249.395 144.883 249.576 145.512C249.768 146.141 250.035 146.733 250.376 147.288C250.718 147.843 251.107 148.339 251.544 148.776C251.992 149.213 252.472 149.56 252.984 149.816L252.168 150.872C251.603 150.584 251.08 150.189 250.6 149.688C250.131 149.187 249.715 148.616 249.352 147.976C249 147.325 248.723 146.632 248.52 145.896C248.328 145.149 248.232 144.387 248.232 143.608V141.016ZM254.248 139.768H255.576V154.248H254.248V139.768ZM255.272 145.624H257.944V146.76H255.272V145.624ZM262.391 144.68H263.719V147.4H262.391V144.68ZM267.703 144.68H269.015V147.4H267.703V144.68ZM259.175 146.92H272.247V147.992H259.175V146.92ZM265.703 149.096C267.25 149.096 268.46 149.315 269.335 149.752C270.21 150.189 270.647 150.819 270.647 151.64C270.647 152.472 270.21 153.107 269.335 153.544C268.46 153.992 267.25 154.216 265.703 154.216C264.156 154.216 262.94 153.992 262.055 153.544C261.18 153.107 260.743 152.472 260.743 151.64C260.743 150.819 261.18 150.189 262.055 149.752C262.94 149.315 264.156 149.096 265.703 149.096ZM265.703 150.12C264.946 150.12 264.295 150.179 263.751 150.296C263.218 150.413 262.807 150.589 262.519 150.824C262.231 151.048 262.087 151.32 262.087 151.64C262.087 151.981 262.231 152.269 262.519 152.504C262.807 152.728 263.218 152.899 263.751 153.016C264.295 153.133 264.946 153.192 265.703 153.192C266.46 153.192 267.106 153.133 267.639 153.016C268.183 152.899 268.599 152.728 268.887 152.504C269.175 152.269 269.319 151.981 269.319 151.64C269.319 151.32 269.175 151.048 268.887 150.824C268.599 150.589 268.183 150.413 267.639 150.296C267.106 150.179 266.46 150.12 265.703 150.12ZM265.703 140.04C266.748 140.04 267.65 140.147 268.407 140.36C269.175 140.573 269.762 140.883 270.167 141.288C270.583 141.683 270.791 142.163 270.791 142.728C270.791 143.283 270.583 143.763 270.167 144.168C269.762 144.573 269.175 144.883 268.407 145.096C267.65 145.299 266.748 145.4 265.703 145.4C264.658 145.4 263.751 145.299 262.983 145.096C262.226 144.883 261.639 144.573 261.223 144.168C260.818 143.763 260.615 143.283 260.615 142.728C260.615 142.163 260.818 141.683 261.223 141.288C261.639 140.883 262.226 140.573 262.983 140.36C263.751 140.147 264.658 140.04 265.703 140.04ZM265.703 141.08C264.946 141.08 264.284 141.144 263.719 141.272C263.164 141.4 262.732 141.587 262.423 141.832C262.124 142.077 261.975 142.376 261.975 142.728C261.975 143.069 262.124 143.368 262.423 143.624C262.732 143.869 263.164 144.056 263.719 144.184C264.284 144.312 264.946 144.376 265.703 144.376C266.482 144.376 267.148 144.312 267.703 144.184C268.258 144.056 268.684 143.869 268.983 143.624C269.282 143.368 269.431 143.069 269.431 142.728C269.431 142.376 269.282 142.077 268.983 141.832C268.684 141.587 268.258 141.4 267.703 141.272C267.148 141.144 266.482 141.08 265.703 141.08ZM277.462 141.848H278.534V144.184C278.534 144.941 278.427 145.693 278.214 146.44C278 147.176 277.702 147.875 277.318 148.536C276.944 149.187 276.512 149.768 276.022 150.28C275.531 150.781 275.003 151.176 274.438 151.464L273.654 150.408C274.176 150.152 274.662 149.805 275.11 149.368C275.568 148.92 275.974 148.413 276.326 147.848C276.678 147.272 276.955 146.675 277.158 146.056C277.36 145.427 277.462 144.803 277.462 144.184V141.848ZM277.718 141.848H278.774V144.184C278.774 144.76 278.864 145.341 279.046 145.928C279.238 146.515 279.504 147.075 279.846 147.608C280.187 148.141 280.582 148.621 281.03 149.048C281.488 149.464 281.974 149.8 282.486 150.056L281.734 151.112C281.168 150.824 280.64 150.44 280.15 149.96C279.659 149.469 279.232 148.915 278.87 148.296C278.507 147.677 278.224 147.016 278.022 146.312C277.819 145.608 277.718 144.899 277.718 144.184V141.848ZM274.166 141.256H281.974V142.36H274.166V141.256ZM283.686 139.768H285.014V154.248H283.686V139.768ZM284.71 145.608H287.382V146.728H284.71V145.608ZM290.017 153.091C289.737 153.091 289.496 152.991 289.295 152.79C289.095 152.589 288.994 152.348 288.994 152.068C288.994 151.788 289.095 151.547 289.295 151.347C289.496 151.146 289.737 151.045 290.017 151.045C290.297 151.045 290.538 151.146 290.739 151.347C290.939 151.547 291.04 151.788 291.04 152.068C291.04 152.254 290.992 152.424 290.898 152.58C290.807 152.735 290.684 152.86 290.528 152.955C290.377 153.045 290.206 153.091 290.017 153.091ZM297.923 153V151.977L301.764 147.773C302.215 147.28 302.586 146.852 302.878 146.489C303.17 146.121 303.385 145.777 303.526 145.455C303.67 145.129 303.741 144.788 303.741 144.432C303.741 144.023 303.643 143.669 303.446 143.369C303.253 143.07 302.988 142.839 302.651 142.676C302.313 142.513 301.935 142.432 301.514 142.432C301.067 142.432 300.677 142.525 300.344 142.71C300.014 142.892 299.759 143.148 299.577 143.477C299.399 143.807 299.31 144.193 299.31 144.636H297.969C297.969 143.955 298.126 143.356 298.44 142.841C298.755 142.326 299.183 141.924 299.724 141.636C300.27 141.348 300.882 141.205 301.56 141.205C302.241 141.205 302.846 141.348 303.372 141.636C303.899 141.924 304.312 142.312 304.611 142.801C304.91 143.29 305.06 143.833 305.06 144.432C305.06 144.86 304.982 145.278 304.827 145.688C304.675 146.093 304.41 146.545 304.031 147.045C303.656 147.542 303.135 148.148 302.469 148.864L299.855 151.659V151.75H305.264V153H297.923ZM311.406 153.159C310.55 153.159 309.821 152.926 309.219 152.46C308.616 151.991 308.156 151.311 307.838 150.42C307.52 149.527 307.361 148.447 307.361 147.182C307.361 145.924 307.52 144.85 307.838 143.96C308.16 143.066 308.622 142.384 309.224 141.915C309.83 141.441 310.558 141.205 311.406 141.205C312.255 141.205 312.98 141.441 313.582 141.915C314.188 142.384 314.651 143.066 314.969 143.96C315.291 144.85 315.452 145.924 315.452 147.182C315.452 148.447 315.293 149.527 314.974 150.42C314.656 151.311 314.196 151.991 313.594 152.46C312.991 152.926 312.262 153.159 311.406 153.159ZM311.406 151.909C312.255 151.909 312.914 151.5 313.384 150.682C313.853 149.864 314.088 148.697 314.088 147.182C314.088 146.174 313.98 145.316 313.764 144.608C313.552 143.9 313.245 143.36 312.844 142.989C312.446 142.617 311.967 142.432 311.406 142.432C310.565 142.432 309.908 142.847 309.435 143.676C308.961 144.502 308.724 145.67 308.724 147.182C308.724 148.189 308.83 149.045 309.043 149.75C309.255 150.455 309.56 150.991 309.957 151.358C310.359 151.725 310.842 151.909 311.406 151.909ZM322.902 144.952H325.686V146.056H322.902V144.952ZM320.214 141.128H321.254V143.896C321.254 144.643 321.174 145.379 321.014 146.104C320.865 146.829 320.641 147.512 320.342 148.152C320.054 148.792 319.702 149.368 319.286 149.88C318.87 150.392 318.401 150.808 317.878 151.128L317.046 150.136C317.537 149.837 317.98 149.464 318.374 149.016C318.769 148.568 319.1 148.067 319.366 147.512C319.644 146.947 319.852 146.36 319.99 145.752C320.14 145.133 320.214 144.515 320.214 143.896V141.128ZM320.47 141.128H321.494V143.848C321.494 144.424 321.558 145.005 321.686 145.592C321.825 146.168 322.017 146.723 322.262 147.256C322.518 147.779 322.833 148.259 323.206 148.696C323.58 149.133 324.001 149.496 324.47 149.784L323.718 150.808C323.196 150.488 322.732 150.083 322.326 149.592C321.921 149.091 321.58 148.531 321.302 147.912C321.025 147.283 320.817 146.621 320.678 145.928C320.54 145.235 320.47 144.541 320.47 143.848V141.128ZM328.23 139.768H329.51V154.248H328.23V139.768ZM325.286 140.072H326.534V153.512H325.286V140.072ZM332.83 147.182C332.83 145.75 333.015 144.434 333.386 143.233C333.761 142.028 334.295 140.92 334.989 139.909H336.17C335.898 140.284 335.642 140.746 335.403 141.295C335.169 141.841 334.962 142.441 334.784 143.097C334.606 143.748 334.466 144.422 334.364 145.119C334.265 145.816 334.216 146.504 334.216 147.182C334.216 148.083 334.303 148.998 334.477 149.926C334.652 150.854 334.886 151.716 335.182 152.511C335.477 153.307 335.807 153.955 336.17 154.455H334.989C334.295 153.443 333.761 152.337 333.386 151.136C333.015 149.932 332.83 148.614 332.83 147.182ZM341.922 153.159C341.066 153.159 340.337 152.926 339.734 152.46C339.132 151.991 338.672 151.311 338.354 150.42C338.036 149.527 337.876 148.447 337.876 147.182C337.876 145.924 338.036 144.85 338.354 143.96C338.676 143.066 339.138 142.384 339.74 141.915C340.346 141.441 341.073 141.205 341.922 141.205C342.77 141.205 343.496 141.441 344.098 141.915C344.704 142.384 345.166 143.066 345.484 143.96C345.806 144.85 345.967 145.924 345.967 147.182C345.967 148.447 345.808 149.527 345.49 150.42C345.172 151.311 344.712 151.991 344.109 152.46C343.507 152.926 342.778 153.159 341.922 153.159ZM341.922 151.909C342.77 151.909 343.429 151.5 343.899 150.682C344.369 149.864 344.604 148.697 344.604 147.182C344.604 146.174 344.496 145.316 344.28 144.608C344.068 143.9 343.761 143.36 343.359 142.989C342.962 142.617 342.482 142.432 341.922 142.432C341.081 142.432 340.424 142.847 339.95 143.676C339.477 144.502 339.24 145.67 339.24 147.182C339.24 148.189 339.346 149.045 339.558 149.75C339.77 150.455 340.075 150.991 340.473 151.358C340.875 151.725 341.357 151.909 341.922 151.909ZM347.854 150.614V149.455L352.967 141.364H353.808V143.159H353.24L349.376 149.273V149.364H356.263V150.614H347.854ZM353.331 153V150.261V149.722V141.364H354.672V153H353.331ZM368.564 139.784H369.892V150.504H368.564V139.784ZM364.468 141.656H369.06V142.728H364.468V141.656ZM360.628 152.84H370.276V153.928H360.628V152.84ZM360.628 149.576H361.956V153.32H360.628V149.576ZM358.836 140.824H360.148V147.656H358.836V140.824ZM358.836 147.24H359.924C360.948 147.24 361.961 147.203 362.964 147.128C363.977 147.053 365.044 146.915 366.164 146.712L366.308 147.816C365.156 148.029 364.068 148.173 363.044 148.248C362.02 148.312 360.98 148.344 359.924 148.344H358.836V147.24ZM364.468 144.424H369.06V145.496H364.468V144.424ZM375.73 140.68H376.786V142.616C376.786 143.331 376.653 144.04 376.386 144.744C376.12 145.448 375.736 146.083 375.234 146.648C374.744 147.213 374.141 147.656 373.426 147.976L372.706 146.952C373.336 146.675 373.874 146.301 374.322 145.832C374.781 145.352 375.128 144.829 375.362 144.264C375.608 143.699 375.73 143.149 375.73 142.616V140.68ZM375.954 140.68H377.01V142.616C377.01 143.139 377.122 143.661 377.346 144.184C377.581 144.696 377.917 145.16 378.354 145.576C378.802 145.981 379.33 146.307 379.938 146.552L379.234 147.576C378.541 147.299 377.949 146.904 377.458 146.392C376.968 145.88 376.594 145.299 376.338 144.648C376.082 143.997 375.954 143.32 375.954 142.616V140.68ZM383.634 139.784H384.898V148.712H383.634V139.784ZM381.33 143.656H384.05V144.744H381.33V143.656ZM380.53 140.056H381.778V148.248H380.53V140.056ZM380.146 149.032C381.138 149.032 381.992 149.133 382.706 149.336C383.432 149.539 383.992 149.837 384.386 150.232C384.781 150.616 384.978 151.08 384.978 151.624C384.978 152.168 384.781 152.632 384.386 153.016C383.992 153.411 383.432 153.709 382.706 153.912C381.992 154.115 381.138 154.216 380.146 154.216C379.154 154.216 378.296 154.115 377.57 153.912C376.845 153.709 376.285 153.411 375.89 153.016C375.506 152.632 375.314 152.168 375.314 151.624C375.314 151.08 375.506 150.616 375.89 150.232C376.285 149.837 376.845 149.539 377.57 149.336C378.296 149.133 379.154 149.032 380.146 149.032ZM380.146 150.056C379.058 150.056 378.2 150.195 377.57 150.472C376.941 150.749 376.626 151.133 376.626 151.624C376.626 152.115 376.941 152.499 377.57 152.776C378.2 153.053 379.058 153.192 380.146 153.192C380.872 153.192 381.496 153.128 382.018 153C382.541 152.883 382.941 152.707 383.218 152.472C383.506 152.237 383.65 151.955 383.65 151.624C383.65 151.133 383.336 150.749 382.706 150.472C382.088 150.195 381.234 150.056 380.146 150.056ZM390.716 148.091C390.716 149.523 390.528 150.841 390.153 152.045C389.782 153.246 389.25 154.352 388.557 155.364H387.375C387.648 154.989 387.902 154.527 388.136 153.977C388.375 153.432 388.583 152.833 388.761 152.182C388.939 151.527 389.078 150.85 389.176 150.153C389.278 149.453 389.33 148.765 389.33 148.091C389.33 147.189 389.242 146.275 389.068 145.347C388.894 144.419 388.659 143.557 388.364 142.761C388.068 141.966 387.739 141.318 387.375 140.818H388.557C389.25 141.83 389.782 142.937 390.153 144.142C390.528 145.343 390.716 146.659 390.716 148.091ZM394.626 153.091C394.346 153.091 394.106 152.991 393.905 152.79C393.704 152.589 393.604 152.348 393.604 152.068C393.604 151.788 393.704 151.547 393.905 151.347C394.106 151.146 394.346 151.045 394.626 151.045C394.907 151.045 395.147 151.146 395.348 151.347C395.549 151.547 395.649 151.788 395.649 152.068C395.649 152.254 395.602 152.424 395.507 152.58C395.416 152.735 395.293 152.86 395.138 152.955C394.986 153.045 394.816 153.091 394.626 153.091ZM412.032 139.784H413.36V150.632H412.032V139.784ZM412.944 144.536H415.488V145.64H412.944V144.536ZM402.16 141.544H410.704V142.616H402.16V141.544ZM406.432 143.4C407.115 143.4 407.717 143.517 408.24 143.752C408.763 143.976 409.168 144.291 409.456 144.696C409.744 145.091 409.888 145.56 409.888 146.104C409.888 146.648 409.744 147.123 409.456 147.528C409.168 147.923 408.763 148.232 408.24 148.456C407.717 148.68 407.115 148.792 406.432 148.792C405.749 148.792 405.147 148.68 404.624 148.456C404.101 148.232 403.691 147.923 403.392 147.528C403.104 147.123 402.96 146.648 402.96 146.104C402.96 145.56 403.104 145.091 403.392 144.696C403.691 144.291 404.101 143.976 404.624 143.752C405.147 143.517 405.749 143.4 406.432 143.4ZM406.432 144.44C405.781 144.44 405.253 144.595 404.848 144.904C404.443 145.203 404.24 145.603 404.24 146.104C404.24 146.605 404.443 147.005 404.848 147.304C405.253 147.603 405.781 147.752 406.432 147.752C407.093 147.752 407.621 147.603 408.016 147.304C408.421 147.005 408.624 146.605 408.624 146.104C408.624 145.603 408.421 145.203 408.016 144.904C407.621 144.595 407.093 144.44 406.432 144.44ZM405.776 139.784H407.104V142.088H405.776V139.784ZM404.352 152.84H414V153.928H404.352V152.84ZM404.352 149.768H405.664V153.288H404.352V149.768ZM418.511 140.456H427.823V141.544H418.511V140.456ZM416.847 145.624H429.967V146.712H416.847V145.624ZM422.719 146.376H424.047V149.768H422.719V146.376ZM426.959 140.456H428.271V141.512C428.271 142.109 428.25 142.787 428.207 143.544C428.164 144.291 428.026 145.16 427.791 146.152L426.495 146.008C426.73 145.027 426.863 144.179 426.895 143.464C426.938 142.749 426.959 142.099 426.959 141.512V140.456ZM418.207 149.352H428.351V154.248H427.023V150.424H418.207V149.352ZM435.422 140.888C436.126 140.888 436.75 141.096 437.294 141.512C437.838 141.917 438.259 142.499 438.558 143.256C438.867 144.013 439.022 144.904 439.022 145.928C439.022 146.952 438.867 147.843 438.558 148.6C438.259 149.357 437.838 149.944 437.294 150.36C436.75 150.776 436.126 150.984 435.422 150.984C434.728 150.984 434.104 150.776 433.55 150.36C433.006 149.944 432.579 149.357 432.27 148.6C431.971 147.843 431.822 146.952 431.822 145.928C431.822 144.904 431.971 144.013 432.27 143.256C432.579 142.499 433.006 141.917 433.55 141.512C434.104 141.096 434.728 140.888 435.422 140.888ZM435.422 142.072C434.963 142.072 434.558 142.232 434.206 142.552C433.854 142.861 433.576 143.309 433.374 143.896C433.182 144.472 433.086 145.149 433.086 145.928C433.086 146.707 433.182 147.389 433.374 147.976C433.576 148.552 433.854 149 434.206 149.32C434.558 149.64 434.963 149.8 435.422 149.8C435.891 149.8 436.302 149.64 436.654 149.32C437.006 149 437.278 148.552 437.47 147.976C437.672 147.389 437.774 146.707 437.774 145.928C437.774 145.149 437.672 144.472 437.47 143.896C437.278 143.309 437.006 142.861 436.654 142.552C436.302 142.232 435.891 142.072 435.422 142.072ZM442.158 139.768H443.47V154.264H442.158V139.768ZM438.59 145.288H442.75V146.36H438.59V145.288ZM450.816 141.304H459.36V142.376H450.816V141.304ZM455.088 143.128C455.771 143.128 456.374 143.235 456.896 143.448C457.419 143.661 457.824 143.965 458.112 144.36C458.4 144.744 458.544 145.203 458.544 145.736C458.544 146.269 458.4 146.728 458.112 147.112C457.824 147.496 457.419 147.8 456.896 148.024C456.374 148.237 455.771 148.344 455.088 148.344C454.406 148.344 453.803 148.237 453.28 148.024C452.758 147.8 452.347 147.496 452.048 147.112C451.76 146.728 451.616 146.269 451.616 145.736C451.616 145.203 451.76 144.744 452.048 144.36C452.347 143.965 452.758 143.661 453.28 143.448C453.803 143.235 454.406 143.128 455.088 143.128ZM455.088 144.152C454.427 144.152 453.894 144.296 453.488 144.584C453.094 144.861 452.896 145.245 452.896 145.736C452.896 146.216 453.094 146.6 453.488 146.888C453.894 147.165 454.427 147.304 455.088 147.304C455.739 147.304 456.267 147.165 456.672 146.888C457.078 146.6 457.28 146.216 457.28 145.736C457.28 145.245 457.078 144.861 456.672 144.584C456.278 144.296 455.75 144.152 455.088 144.152ZM460.688 139.768H462.016V148.824H460.688V139.768ZM461.648 143.768H464.144V144.872H461.648V143.768ZM452.608 149.608H462.016V154.248H460.688V150.696H452.608V149.608ZM454.432 139.704H455.76V141.896H454.432V139.704ZM467.151 148.456H468.463V150.12H475.551V148.456H476.863V154.056H467.151V148.456ZM468.463 151.16V152.984H475.551V151.16H468.463ZM465.503 146.36H478.575V147.448H465.503V146.36ZM471.359 139.928H472.511V140.584C472.511 141.085 472.404 141.56 472.191 142.008C471.978 142.445 471.684 142.851 471.311 143.224C470.948 143.587 470.522 143.912 470.031 144.2C469.551 144.488 469.028 144.728 468.463 144.92C467.908 145.112 467.332 145.256 466.735 145.352L466.239 144.296C466.762 144.221 467.268 144.104 467.759 143.944C468.26 143.784 468.73 143.592 469.167 143.368C469.604 143.133 469.988 142.872 470.319 142.584C470.65 142.285 470.906 141.971 471.087 141.64C471.268 141.299 471.359 140.947 471.359 140.584V139.928ZM471.583 139.928H472.719V140.584C472.719 140.936 472.81 141.283 472.991 141.624C473.183 141.955 473.444 142.269 473.775 142.568C474.106 142.856 474.484 143.117 474.911 143.352C475.348 143.587 475.812 143.789 476.303 143.96C476.804 144.12 477.311 144.232 477.823 144.296L477.343 145.352C476.746 145.256 476.164 145.112 475.599 144.92C475.044 144.728 474.522 144.488 474.031 144.2C473.551 143.901 473.124 143.565 472.751 143.192C472.388 142.819 472.1 142.413 471.887 141.976C471.684 141.539 471.583 141.075 471.583 140.584V139.928ZM490.766 139.768H492.094V154.248H490.766V139.768ZM486.526 141.336H487.838C487.838 142.381 487.71 143.389 487.454 144.36C487.209 145.331 486.819 146.253 486.286 147.128C485.753 147.992 485.059 148.797 484.206 149.544C483.353 150.291 482.318 150.957 481.102 151.544L480.398 150.472C481.795 149.8 482.947 149.016 483.854 148.12C484.761 147.224 485.433 146.227 485.87 145.128C486.307 144.019 486.526 142.824 486.526 141.544V141.336ZM481.07 141.336H487.086V142.408H481.07V141.336ZM504.829 139.768H506.173V150.344H504.829V139.768ZM505.757 144.152H508.301V145.272H505.757V144.152ZM500.877 140.888H502.285C502.285 142.136 502.007 143.267 501.453 144.28C500.909 145.293 500.13 146.173 499.117 146.92C498.103 147.667 496.903 148.259 495.517 148.696L494.957 147.624C496.173 147.24 497.223 146.744 498.109 146.136C498.994 145.528 499.677 144.829 500.157 144.04C500.637 143.251 500.877 142.397 500.877 141.48V140.888ZM495.549 140.888H501.565V141.992H495.549V140.888ZM497.149 152.84H506.797V153.928H497.149V152.84ZM497.149 149.272H498.477V153.272H497.149V149.272ZM518.291 153.159C517.511 153.159 516.821 153.021 516.223 152.744C515.628 152.464 515.164 152.08 514.831 151.591C514.498 151.098 514.333 150.538 514.337 149.909C514.333 149.417 514.429 148.962 514.626 148.545C514.823 148.125 515.092 147.775 515.433 147.494C515.778 147.21 516.162 147.03 516.587 146.955V146.886C516.03 146.742 515.587 146.43 515.257 145.949C514.928 145.464 514.765 144.913 514.768 144.295C514.765 143.705 514.914 143.176 515.217 142.71C515.52 142.244 515.937 141.877 516.467 141.608C517.001 141.339 517.609 141.205 518.291 141.205C518.965 141.205 519.568 141.339 520.098 141.608C520.628 141.877 521.045 142.244 521.348 142.71C521.655 143.176 521.81 143.705 521.814 144.295C521.81 144.913 521.642 145.464 521.308 145.949C520.979 146.43 520.541 146.742 519.996 146.886V146.955C520.416 147.03 520.795 147.21 521.132 147.494C521.469 147.775 521.738 148.125 521.939 148.545C522.14 148.962 522.242 149.417 522.246 149.909C522.242 150.538 522.071 151.098 521.734 151.591C521.401 152.08 520.937 152.464 520.342 152.744C519.751 153.021 519.068 153.159 518.291 153.159ZM518.291 151.909C518.818 151.909 519.272 151.824 519.655 151.653C520.037 151.483 520.333 151.242 520.541 150.932C520.75 150.621 520.856 150.258 520.859 149.841C520.856 149.402 520.742 149.013 520.518 148.676C520.295 148.339 519.99 148.074 519.604 147.881C519.221 147.687 518.784 147.591 518.291 147.591C517.795 147.591 517.352 147.687 516.962 147.881C516.575 148.074 516.27 148.339 516.047 148.676C515.827 149.013 515.719 149.402 515.723 149.841C515.719 150.258 515.82 150.621 516.024 150.932C516.232 151.242 516.53 151.483 516.916 151.653C517.303 151.824 517.761 151.909 518.291 151.909ZM518.291 146.386C518.708 146.386 519.077 146.303 519.399 146.136C519.725 145.97 519.981 145.737 520.166 145.438C520.352 145.138 520.446 144.788 520.45 144.386C520.446 143.992 520.354 143.65 520.172 143.358C519.99 143.062 519.738 142.835 519.416 142.676C519.094 142.513 518.719 142.432 518.291 142.432C517.856 142.432 517.475 142.513 517.149 142.676C516.823 142.835 516.571 143.062 516.393 143.358C516.215 143.65 516.128 143.992 516.132 144.386C516.128 144.788 516.217 145.138 516.399 145.438C516.585 145.737 516.84 145.97 517.166 146.136C517.492 146.303 517.867 146.386 518.291 146.386ZM534.595 139.784H535.923V150.504H534.595V139.784ZM530.499 141.656H535.091V142.728H530.499V141.656ZM526.659 152.84H536.307V153.928H526.659V152.84ZM526.659 149.576H527.987V153.32H526.659V149.576ZM524.867 140.824H526.179V147.656H524.867V140.824ZM524.867 147.24H525.955C526.979 147.24 527.992 147.203 528.995 147.128C530.008 147.053 531.075 146.915 532.195 146.712L532.339 147.816C531.187 148.029 530.099 148.173 529.075 148.248C528.051 148.312 527.011 148.344 525.955 148.344H524.867V147.24ZM530.499 144.424H535.091V145.496H530.499V144.424Z" fill="#9F9F9F"/>
<defs>
<linearGradient id="paint0_linear_553_8419" x1="0" y1="103.5" x2="950" y2="103.5" gradientUnits="userSpaceOnUse">
<stop stop-color="#FF577C"/>
<stop offset="1" stop-color="#66B8FB"/>
</linearGradient>
</defs>
</svg>
