<svg width="958" height="207" viewBox="0 0 958 207" fill="none" xmlns="http://www.w3.org/2000/svg">
<path d="M1.5 100C1.5 45.5999 45.6 1.5 100 1.5H858C912.4 1.5 956.5 45.6 956.5 100V107C956.5 161.4 912.4 205.5 858 205.5H5.00001C3.06701 205.5 1.5 203.933 1.5 202V100Z" stroke="url(#paint0_linear_553_8423)" stroke-width="3"/>
<path d="M168.117 57.0625V77.9453H166.266V66.1797H161.695V64.6562H166.266V57.0625H168.117ZM158.062 63.25C158.062 66.7188 160.547 70.4922 163.594 71.875L162.492 73.3516C160.113 72.1914 158.109 69.6719 157.172 66.7656C156.211 69.8477 154.16 72.5195 151.781 73.7734L150.656 72.3438C153.68 70.8672 156.188 66.9531 156.211 63.25V60.7422H151.453V59.2188H162.844V60.7422H158.062V63.25ZM188.414 66.8359V68.3359H181.969V73.7266H190.664V75.2734H171.586V73.7266H180.164V68.3359H174.023V58.7734H188.203V60.2734H175.875V66.8359H188.414ZM215.531 57.0625V77.9453H213.68V57.0625H215.531ZM204.445 58.6797C207.539 58.7031 209.766 61.5156 209.766 65.9453C209.766 70.375 207.539 73.1875 204.445 73.1875C201.328 73.1875 199.125 70.375 199.125 65.9453C199.125 61.5156 201.328 58.7031 204.445 58.6797ZM204.445 60.3203C202.359 60.3438 200.906 62.5469 200.906 65.9453C200.906 69.3438 202.359 71.5469 204.445 71.5469C206.531 71.5469 207.984 69.3438 207.984 65.9453C207.984 62.5469 206.531 60.3438 204.445 60.3203ZM234.727 70.1641C239.016 70.1641 241.594 71.5703 241.594 74.0078C241.594 76.4688 239.016 77.875 234.727 77.8984C230.438 77.875 227.812 76.4688 227.812 74.0078C227.812 71.5703 230.438 70.1641 234.727 70.1641ZM234.727 71.6172C231.586 71.6406 229.641 72.5078 229.664 74.0078C229.641 75.5078 231.586 76.3984 234.727 76.3984C237.891 76.3984 239.812 75.5078 239.812 74.0078C239.812 72.5078 237.891 71.6406 234.727 71.6172ZM241.406 57.0625V62.3125H244.547V63.8828H241.406V69.6016H239.578V57.0625H241.406ZM227.812 58.375V61.5625H233.883V58.375H235.711V67.9844H226.008V58.375H227.812ZM227.812 66.4844H233.883V63.0156H227.812V66.4844ZM248.742 58.1406V61.375H254.555V58.1406H256.359V62.1953H261.281V57.0625H263.133V68.4531H261.281V63.7422H256.359V67.6797H246.914V58.1406H248.742ZM248.742 66.1797H254.555V62.8281H248.742V66.1797ZM251.555 69.4609V72.0156H261.281V69.4609H263.109V77.6172H249.703V69.4609H251.555ZM251.555 76.0938H261.281V73.4922H251.555V76.0938ZM283.781 57.0625V77.9453H281.93V57.0625H283.781ZM272.695 58.6797C275.789 58.7031 278.016 61.5156 278.016 65.9453C278.016 70.375 275.789 73.1875 272.695 73.1875C269.578 73.1875 267.375 70.375 267.375 65.9453C267.375 61.5156 269.578 58.7031 272.695 58.6797ZM272.695 60.3203C270.609 60.3438 269.156 62.5469 269.156 65.9453C269.156 69.3438 270.609 71.5469 272.695 71.5469C274.781 71.5469 276.234 69.3438 276.234 65.9453C276.234 62.5469 274.781 60.3438 272.695 60.3203ZM310.641 57.0625V69.4844H308.789V64.0234H304.594V62.5H308.789V57.0625H310.641ZM303.727 70.1406C308.062 70.1406 310.711 71.5469 310.711 74.0078C310.711 76.4688 308.062 77.875 303.727 77.8984C299.391 77.875 296.742 76.4688 296.742 74.0078C296.742 71.5469 299.391 70.1406 303.727 70.1406ZM303.727 71.5703C300.539 71.5703 298.547 72.4844 298.57 74.0078C298.547 75.5078 300.539 76.4219 303.727 76.4219C306.914 76.4219 308.883 75.5078 308.883 74.0078C308.883 72.4844 306.914 71.5703 303.727 71.5703ZM300.609 60.8828C300.609 63.6016 302.695 66.1797 305.742 67.2344L304.781 68.7109C302.438 67.8672 300.621 66.1211 299.742 63.9531C298.828 66.4023 296.895 68.3594 294.422 69.2969L293.461 67.8203C296.555 66.6953 298.758 63.8828 298.758 60.9062V60.1328H294.047V58.5859H305.273V60.1328H300.609V60.8828ZM330.398 57.0625V61.5859H333.539V63.1328H330.398V67.6797H328.57V57.0625H330.398ZM324.633 58.2578V66.5781H315V58.2578H324.633ZM316.805 59.7578V65.1016H322.852V59.7578H316.805ZM330.398 68.6641V73.75H318.961V76.1406H331.172V77.6172H317.156V72.3438H328.57V70.1406H317.109V68.6641H330.398ZM351.258 63.2734V65.7344H359.93V67.2578H340.852V65.7344H349.453V63.2734H351.258ZM358.172 57.7188V59.1719H351.586C351.738 61.3047 355.23 62.8633 358.852 63.1562L358.242 64.5391C354.773 64.2109 351.504 62.8633 350.391 60.6719C349.254 62.8633 345.984 64.2109 342.492 64.5391L341.883 63.1562C345.48 62.8633 348.973 61.3047 349.172 59.1719H342.609V57.7188H358.172ZM358.125 70.0234V71.4766H342.656V70.0234H349.453V68.0547H351.281V70.0234H358.125ZM350.367 72.5078C354.375 72.5078 356.672 73.4453 356.672 75.25C356.672 77.0781 354.375 78.0156 350.367 78.0156C346.312 78.0156 344.086 77.0781 344.086 75.25C344.086 73.4453 346.312 72.5078 350.367 72.5078ZM350.367 73.7969C347.555 73.8203 345.938 74.2891 345.938 75.25C345.938 76.2109 347.555 76.75 350.367 76.7266C353.203 76.75 354.773 76.2109 354.797 75.25C354.773 74.2891 353.203 73.8203 350.367 73.7969ZM377.742 57.0625V65.3125H381.234V66.8594H377.742V77.9453H375.914V57.0625H377.742ZM372.258 59.1016V60.625H364.359V71.1719C368.133 71.1719 370.805 70.9961 373.898 70.4219L374.133 72.0156C370.875 72.6016 368.133 72.7188 364.172 72.7188H362.531V59.1016H372.258ZM399.07 59.1719V61.2578C399.047 63.8125 399.047 66.6719 398.297 70.8672L396.422 70.6562C397.219 66.6719 397.219 63.7422 397.219 61.2578V60.6953H384.375V59.1719H399.07ZM401.344 73.4219V74.9453H382.359V73.4219H389.812V65.9688H391.617V73.4219H401.344ZM415.336 61.2109C415.336 63.5078 416.953 65.8516 419.625 66.8594L418.664 68.2656C416.66 67.4922 415.219 66.0039 414.469 64.2109C413.695 66.2031 412.207 67.9727 410.156 68.8516L409.148 67.4219C411.891 66.2266 413.578 63.5312 413.578 61.2109V58.375H415.336V61.2109ZM426.82 57.0859V69.9531H425.062V64.2109H422.297V69.2969H420.562V57.4844H422.297V62.6875H425.062V57.0859H426.82ZM419.93 70.4219C424.242 70.4219 426.938 71.7812 426.938 74.1484C426.938 76.4922 424.242 77.8516 419.93 77.8516C415.594 77.8516 412.922 76.4922 412.945 74.1484C412.922 71.7812 415.594 70.4219 419.93 70.4219ZM419.93 71.8281C416.742 71.8281 414.75 72.6953 414.773 74.1484C414.75 75.5781 416.742 76.4219 419.93 76.4219C423.094 76.4219 425.086 75.5781 425.109 74.1484C425.086 72.6953 423.094 71.8281 419.93 71.8281ZM446.156 57.0625V62.3594H449.297V63.9297H446.156V69.2969H444.328V57.0625H446.156ZM440.438 58.3984C440.438 63.6719 436.758 67.4219 430.594 69.0625L429.844 67.6328C434.953 66.25 438.105 63.4609 438.492 59.9219H430.781V58.3984H440.438ZM446.156 70.2578V77.8984H444.328V71.7578H432.516V70.2578H446.156ZM461.016 60.6719V62.1719H450.562V60.6719H454.898V57.6953H456.727V60.6719H461.016ZM455.789 63.5781C458.414 63.5781 460.289 65.5469 460.312 68.3125C460.289 71.1016 458.414 73.0938 455.789 73.0938C453.188 73.0938 451.312 71.1016 451.312 68.3125C451.312 65.5469 453.188 63.5781 455.789 63.5781ZM455.789 65.125C454.148 65.1484 452.953 66.4844 452.953 68.3125C452.953 70.1641 454.148 71.5 455.789 71.4766C457.453 71.5 458.672 70.1641 458.672 68.3125C458.672 66.4844 457.453 65.1484 455.789 65.125ZM468.352 57.0625V77.8984H466.594V67.375H463.828V76.8672H462.094V57.5781H463.828V65.8516H466.594V57.0625H468.352ZM490.43 73.6797V75.2266H471.352V73.6797H476.086V68.0547C474.305 67.1289 473.227 65.6289 473.227 63.7422C473.227 60.5078 476.391 58.3984 480.844 58.375C485.297 58.3984 488.461 60.5078 488.461 63.7422C488.461 65.5938 487.418 67.082 485.695 68.0078V73.6797H490.43ZM480.844 59.8984C477.422 59.875 475.008 61.4219 475.008 63.7422C475.008 66.0625 477.422 67.6328 480.844 67.6328C484.242 67.6328 486.68 66.0625 486.68 63.7422C486.68 61.4219 484.242 59.875 480.844 59.8984ZM477.891 73.6797H483.844V68.7109C482.941 68.957 481.934 69.0859 480.844 69.0859C479.777 69.0859 478.781 68.9688 477.891 68.7344V73.6797ZM495.469 59.0312L495.305 71.2188H493.336L493.172 59.0312H495.469ZM494.32 76.1406C493.5 76.1406 492.797 75.4609 492.82 74.6172C492.797 73.7969 493.5 73.1172 494.32 73.1172C495.141 73.1172 495.82 73.7969 495.82 74.6172C495.82 75.4609 495.141 76.1406 494.32 76.1406ZM523.266 68.1016V69.5781H504.258V68.1016H523.266ZM520.805 71.6172V77.8984H518.93V73.0938H506.391V71.6172H520.805ZM521.016 64.6562V66.0859H506.789V57.625H520.898V59.1016H508.641V61.0938H520.336V62.5234H508.641V64.6562H521.016ZM542.203 57.0625V77.8984H540.352V57.0625H542.203ZM538.102 60.4609V61.9609H525.492V60.4609H530.859V57.2734H532.711V60.4609H538.102ZM531.844 63.6719C534.844 63.6719 537 65.6406 537 68.4531C537 71.2656 534.844 73.2344 531.844 73.2344C528.82 73.2344 526.641 71.2656 526.664 68.4531C526.641 65.6406 528.82 63.6719 531.844 63.6719ZM531.844 65.2188C529.852 65.2188 528.398 66.5781 528.398 68.4531C528.398 70.3516 529.852 71.6875 531.844 71.6641C533.812 71.6875 535.242 70.3516 535.242 68.4531C535.242 66.5781 533.812 65.2188 531.844 65.2188ZM557.531 58.3281C559.289 58.3164 560.789 58.9727 561.75 60.0859H567.211V57.0625H569.062V69.4141H567.211V66.4375H561.773C560.789 67.5508 559.289 68.207 557.531 68.1953C554.414 68.2188 552.117 66.1797 552.117 63.2734C552.117 60.3438 554.414 58.3047 557.531 58.3281ZM557.531 59.9219C555.398 59.8984 553.875 61.3047 553.875 63.2734C553.875 65.2188 555.398 66.625 557.531 66.625C559.594 66.625 561.141 65.2188 561.141 63.2734C561.141 61.3047 559.594 59.8984 557.531 59.9219ZM562.148 69.9062C566.461 69.9062 569.133 71.3594 569.133 73.8672C569.133 76.3984 566.461 77.8516 562.148 77.8516C557.812 77.8516 555.164 76.3984 555.164 73.8672C555.164 71.3594 557.812 69.9062 562.148 69.9062ZM562.148 71.3359C558.961 71.3359 556.969 72.2969 556.969 73.8672C556.969 75.4375 558.961 76.375 562.148 76.375C565.359 76.375 567.328 75.4375 567.328 73.8672C567.328 72.2969 565.359 71.3359 562.148 71.3359ZM562.641 61.5859C562.816 62.1016 562.922 62.6641 562.922 63.2734C562.922 63.8594 562.816 64.4102 562.641 64.9141H567.211V61.5859H562.641ZM588.703 57.0625V65.9453H592.031V67.4922H588.703V77.8984H586.852V57.0625H588.703ZM572.273 72.3438C573.973 72.3438 575.953 72.3438 578.016 72.2734V69.9531C575.59 69.6836 574.008 68.2656 574.031 66.2031C574.008 63.8594 576 62.3359 578.953 62.3359C581.859 62.3359 583.875 63.8594 583.898 66.2031C583.875 68.2656 582.27 69.6836 579.867 69.9766V72.2031C581.812 72.1094 583.77 71.957 585.586 71.6875L585.703 73.0938C581.156 73.8672 576.234 73.9141 572.578 73.9141L572.273 72.3438ZM585.211 59.6172V61.1172H572.648V59.6172H578.016V57.1094H579.867V59.6172H585.211ZM578.953 63.7656C577.031 63.7656 575.742 64.75 575.742 66.2031C575.742 67.6562 577.031 68.5938 578.953 68.5703C580.852 68.5938 582.141 67.6562 582.141 66.2031C582.141 64.75 580.852 63.7656 578.953 63.7656ZM599.555 58.4219C602.766 58.4453 605.086 60.4141 605.109 63.3203C605.086 65.9336 603.211 67.7969 600.492 68.125V71.6875C602.438 71.5938 604.395 71.4531 606.211 71.2188L606.328 72.6016C601.922 73.3516 596.977 73.3984 593.32 73.375L593.016 71.8281C594.691 71.8164 596.637 71.8047 598.641 71.7344V68.125C595.875 67.8086 593.977 65.9453 594 63.3203C593.977 60.4141 596.297 58.4453 599.555 58.4219ZM599.555 60.0156C597.375 60.0156 595.781 61.375 595.805 63.3203C595.781 65.2656 597.375 66.625 599.555 66.625C601.711 66.625 603.281 65.2656 603.305 63.3203C603.281 61.375 601.711 60.0156 599.555 60.0156ZM609.375 57.0625V65.6641H612.773V67.2578H609.375V77.8984H607.547V57.0625H609.375ZM631.594 58.6797V59.7812C631.57 61.1406 631.57 63.2266 631.055 65.9453L629.203 65.8047C629.707 63.3086 629.754 61.5391 629.789 60.2266H621.211V58.6797H631.594ZM626.227 63.2969V67.7734C628.535 67.6797 630.926 67.5156 633.094 67.2109L633.211 68.5703C628.852 69.3203 623.812 69.4141 620.109 69.4141L619.922 67.8906C621.27 67.8789 622.793 67.8672 624.398 67.8203V63.2969H626.227ZM636.375 57.0625V63.8594H639.422V65.4297H636.375V72.7422H634.5V57.0625H636.375ZM637.055 75.9062V77.4531H623.133V71.3359H624.984V75.9062H637.055ZM650.672 58.5625V64.6328H643.5V68.0781C647.309 68.0781 649.395 67.9727 651.938 67.5391L652.125 69.0625C649.406 69.5312 647.227 69.6016 643.148 69.6016H641.648V63.1797H648.797V60.0625H641.602V58.5625H650.672ZM658.055 57.0859V72.4141H656.203V66.7891H652.078V65.2656H656.203V62.1016H652.078V60.6016H656.203V57.0859H658.055ZM658.688 75.8125V77.3359H644.508V71.2891H646.359V75.8125H658.688ZM671.93 60.6719V62.1719H661.477V60.6719H665.812V57.6953H667.641V60.6719H671.93ZM666.703 63.5781C669.328 63.5781 671.203 65.5469 671.227 68.3125C671.203 71.1016 669.328 73.0938 666.703 73.0938C664.102 73.0938 662.227 71.1016 662.227 68.3125C662.227 65.5469 664.102 63.5781 666.703 63.5781ZM666.703 65.125C665.062 65.1484 663.867 66.4844 663.867 68.3125C663.867 70.1641 665.062 71.5 666.703 71.4766C668.367 71.5 669.586 70.1641 669.586 68.3125C669.586 66.4844 668.367 65.1484 666.703 65.125ZM679.266 57.0625V77.8984H677.508V67.375H674.742V76.8672H673.008V57.5781H674.742V65.8516H677.508V57.0625H679.266ZM689.602 62.6641C689.602 66.4375 692.016 70.2344 695.039 71.6172L693.938 73.1172C691.57 71.8984 689.613 69.4023 688.688 66.4375C687.762 69.5547 685.805 72.2266 683.438 73.4922L682.242 72.0156C685.289 70.5156 687.727 66.5078 687.727 62.6641V58.8672H689.602V62.6641ZM699.539 57.0625V77.9453H697.711V65.6875H692.766V64.1875H697.711V57.0625H699.539ZM722.086 73.6797V75.2266H703.008V73.6797H707.742V68.0547C705.961 67.1289 704.883 65.6289 704.883 63.7422C704.883 60.5078 708.047 58.3984 712.5 58.375C716.953 58.3984 720.117 60.5078 720.117 63.7422C720.117 65.5938 719.074 67.082 717.352 68.0078V73.6797H722.086ZM712.5 59.8984C709.078 59.875 706.664 61.4219 706.664 63.7422C706.664 66.0625 709.078 67.6328 712.5 67.6328C715.898 67.6328 718.336 66.0625 718.336 63.7422C718.336 61.4219 715.898 59.875 712.5 59.8984ZM709.547 73.6797H715.5V68.7109C714.598 68.957 713.59 69.0859 712.5 69.0859C711.434 69.0859 710.438 68.9688 709.547 68.7344V73.6797ZM725.953 76.1406C725.133 76.1406 724.43 75.4609 724.453 74.6172C724.43 73.7969 725.133 73.1172 725.953 73.1172C726.773 73.1172 727.453 73.7969 727.453 74.6172C727.453 75.4609 726.773 76.1406 725.953 76.1406ZM151.875 110V93.0312H153.984V101.422H154.195L161.742 93.0312H164.508L157.406 100.695L164.508 110H161.93L156.094 102.148L153.984 104.539V110H151.875ZM171.352 100.602V102.453H163.922V100.602H171.352ZM190.5 101.094V102.617H176.109V93.0078H190.289V94.5312H177.938V101.094H190.5ZM192.75 107.516V109.062H173.672V107.516H192.75ZM210.539 91.0625V99.3594H214.031V100.906H210.539V111.945H208.711V91.0625H210.539ZM204.703 93.0078V100.461H197.109V105.336C200.977 105.336 203.672 105.207 206.836 104.609L207.023 106.133C203.742 106.742 200.953 106.883 196.945 106.906H195.281V98.9375H202.875V94.5312H195.234V93.0078H204.703ZM225.633 93.1719V106.602H216.023V93.1719H225.633ZM217.805 94.6484V105.102H223.805V94.6484H217.805ZM231.281 91.0625V99.3828H234.773V100.977H231.281V111.898H229.453V91.0625H231.281ZM253.758 91.0625V111.898H251.977V91.0625H253.758ZM249.562 91.5078V110.844H247.805V100.719H245.133C244.934 104.773 243.211 107.305 240.633 107.305C237.914 107.305 236.156 104.492 236.156 100.062C236.156 95.6328 237.914 92.8203 240.633 92.8203C243.164 92.8203 244.875 95.2695 245.109 99.1953H247.805V91.5078H249.562ZM240.633 94.5547C238.945 94.5547 237.867 96.6641 237.891 100.062C237.867 103.438 238.945 105.57 240.633 105.547C242.32 105.57 243.398 103.438 243.398 100.062C243.398 96.6641 242.32 94.5547 240.633 94.5547ZM263.977 96.6641C263.977 100.438 266.391 104.234 269.414 105.617L268.312 107.117C265.945 105.898 263.988 103.402 263.062 100.438C262.137 103.555 260.18 106.227 257.812 107.492L256.617 106.016C259.664 104.516 262.102 100.508 262.102 96.6641V92.8672H263.977V96.6641ZM273.914 91.0625V111.945H272.086V99.6875H267.141V98.1875H272.086V91.0625H273.914ZM290.461 97.4609C290.438 100.812 292.852 104.492 295.875 105.922L294.82 107.375C292.477 106.238 290.496 103.754 289.57 100.93C288.609 104 286.512 106.695 284.18 107.891L283.055 106.438C286.055 104.984 288.633 101.023 288.656 97.4609V94.7422H283.805V93.2188H295.148V94.7422H290.461V97.4609ZM299.531 91.0625V99.5H303.023V101.07H299.531V111.898H297.703V91.0625H299.531ZM314.672 94.0156C314.648 96.8047 318.375 99.1719 322.008 99.7109L321.328 101.164C318.07 100.613 314.906 98.8789 313.641 96.3594C312.375 98.8789 309.199 100.613 306 101.164L305.273 99.7109C308.883 99.1719 312.609 96.8047 312.609 94.0156V93.875H305.93V92.375H321.328V93.875H314.672V94.0156ZM323.133 102.945V104.469H314.508V111.898H312.703V104.469H304.148V102.945H323.133ZM350.414 99.3828V100.93H347.039V111.898H345.211V91.0625H347.039V99.3828H350.414ZM333.609 93.125V105.055C336.656 105.043 339.762 104.809 343.195 104.094L343.43 105.664C339.844 106.391 336.609 106.602 333.445 106.602H331.781V93.125H333.609ZM361.148 92.4219C365.578 92.4453 368.766 94.6016 368.766 97.8828C368.766 100.988 366 103.051 362.039 103.297V107.68H370.734V109.227H351.656V107.68H360.234V103.297C356.285 103.039 353.531 100.977 353.531 97.8828C353.531 94.6016 356.719 92.4453 361.148 92.4219ZM361.148 93.9453C357.773 93.9453 355.312 95.5391 355.312 97.8828C355.312 100.297 357.773 101.844 361.148 101.867C364.523 101.844 366.984 100.297 366.984 97.8828C366.984 95.5391 364.523 93.9453 361.148 93.9453ZM389.25 97.3906V98.8672H374.977V91.8359H376.805V97.3906H389.25ZM391.453 101.703V103.203H372.375V101.703H391.453ZM389.367 109.859V111.383H374.859V105.336H376.688V109.859H389.367ZM415.453 91.0625V97.2734H418.617V98.8203H415.453V106.156H413.625V91.0625H415.453ZM409.43 92.8672V94.4141H401.977V100.906C406.16 100.906 408.539 100.801 411.328 100.227L411.562 101.75C408.633 102.312 406.148 102.453 401.766 102.453H400.148V92.8672H409.43ZM416.414 109.906V111.453H402.422V104.633H404.227V109.906H416.414ZM425.508 92.6797C428.344 92.7031 430.383 95.1289 430.688 99.0312H435.352V91.0625H437.18V111.945H435.352V100.555H430.711C430.488 104.633 428.414 107.188 425.508 107.188C422.438 107.188 420.281 104.375 420.281 99.9453C420.281 95.5156 422.438 92.7031 425.508 92.6797ZM425.508 94.3203C423.445 94.3438 422.039 96.5469 422.039 99.9453C422.039 103.344 423.445 105.547 425.508 105.547C427.547 105.547 428.977 103.344 428.977 99.9453C428.977 96.5469 427.547 94.3438 425.508 94.3203ZM459.656 99.8281V101.305H440.648V99.8281H459.656ZM457.383 96.6172V98.1172H443.18V91.7891H457.172V93.2656H445.031V96.6172H457.383ZM457.195 103.18V108.008H444.82V110.164H457.828V111.664H442.992V106.625H455.391V104.609H442.945V103.18H457.195ZM470.883 91.4375C475.523 91.4375 478.242 92.7031 478.242 95.0234C478.242 97.3906 475.523 98.6562 470.883 98.6797C466.242 98.6562 463.5 97.3906 463.5 95.0234C463.5 92.7031 466.242 91.4375 470.883 91.4375ZM470.883 92.8203C467.414 92.8203 465.398 93.6641 465.422 95.0234C465.398 96.4766 467.414 97.2734 470.883 97.2734C474.328 97.2734 476.367 96.4766 476.367 95.0234C476.367 93.6641 474.328 92.8203 470.883 92.8203ZM480.375 100.086V101.586H461.391V100.086H480.375ZM477.938 103.391V108.055H465.562V110.211H478.57V111.664H463.734V106.695H476.133V104.797H463.688V103.391H477.938ZM490.688 93.0547V98.1406H495.211V93.0547H496.922V106.695H488.93V93.0547H490.688ZM490.688 105.172H495.211V99.6406H490.688V105.172ZM506.016 91.0625V111.898H504.234V100.859H501.328V110.844H499.57V91.5078H501.328V99.3359H504.234V91.0625H506.016ZM527.953 103.016V104.562H519.258V111.898H517.453V104.562H508.875V103.016H527.953ZM518.367 91.9062C522.75 91.9062 525.703 93.6641 525.703 96.5C525.703 99.2656 522.75 101.023 518.367 101.023C513.984 101.023 511.031 99.2656 511.031 96.5C511.031 93.6641 513.984 91.9062 518.367 91.9062ZM518.367 93.4062C515.109 93.4062 512.906 94.625 512.93 96.5C512.906 98.3516 515.109 99.5469 518.367 99.5469C521.602 99.5469 523.828 98.3516 523.828 96.5C523.828 94.625 521.602 93.4062 518.367 93.4062ZM547.477 91.0625V111.898H545.719V91.0625H547.477ZM543.094 91.625V110.844H541.336V101.117H536.93C535.652 103.543 533.648 105.688 530.742 107.398L529.664 106.062C534.199 103.379 536.473 99.6172 536.812 95.2578H530.555V93.7344H538.641C538.629 95.7852 538.301 97.7656 537.609 99.6172H541.336V91.625H543.094ZM568.828 100.062V101.586H564.258V105.688C566.297 105.605 568.348 105.465 570.281 105.242L570.422 106.625C565.805 107.305 560.766 107.375 556.781 107.375L556.523 105.828C558.34 105.828 560.355 105.816 562.43 105.758V101.586H558.117V93.0547H568.734V94.5547H559.922V100.062H568.828ZM573.492 91.0625V111.945H571.664V91.0625H573.492ZM582.75 92.6797C585.586 92.7031 587.625 95.1289 587.93 99.0312H592.594V91.0625H594.422V111.945H592.594V100.555H587.953C587.73 104.633 585.656 107.188 582.75 107.188C579.68 107.188 577.523 104.375 577.523 99.9453C577.523 95.5156 579.68 92.7031 582.75 92.6797ZM582.75 94.3203C580.688 94.3438 579.281 96.5469 579.281 99.9453C579.281 103.344 580.688 105.547 582.75 105.547C584.789 105.547 586.219 103.344 586.219 99.9453C586.219 96.5469 584.789 94.3438 582.75 94.3203ZM605.227 96.6641C605.227 100.438 607.641 104.234 610.664 105.617L609.562 107.117C607.195 105.898 605.238 103.402 604.312 100.438C603.387 103.555 601.43 106.227 599.062 107.492L597.867 106.016C600.914 104.516 603.352 100.508 603.352 96.6641V92.8672H605.227V96.6641ZM615.164 91.0625V111.945H613.336V99.6875H608.391V98.1875H613.336V91.0625H615.164ZM641.484 100.836V102.336H635.039V107.727H643.734V109.273H624.656V107.727H633.234V102.336H627.094V92.7734H641.273V94.2734H628.945V100.836H641.484ZM654.891 91.4609C659.414 91.4609 662.25 92.9141 662.25 95.3984C662.25 97.8359 659.414 99.2656 654.891 99.2656C650.367 99.2656 647.508 97.8359 647.508 95.3984C647.508 92.9141 650.367 91.4609 654.891 91.4609ZM654.891 92.9141C651.516 92.9141 649.383 93.8281 649.406 95.3984C649.383 96.9219 651.516 97.8125 654.891 97.8125C658.219 97.8125 660.375 96.9219 660.375 95.3984C660.375 93.8281 658.219 92.9141 654.891 92.9141ZM662.062 104.773V111.617H647.719V104.773H653.977V102.383H645.398V100.859H664.383V102.383H655.781V104.773H662.062ZM649.547 106.25V110.117H660.258V106.25H649.547ZM683.32 91.0625V111.945H681.469V91.0625H683.32ZM672.234 92.6797C675.328 92.7031 677.555 95.5156 677.555 99.9453C677.555 104.375 675.328 107.188 672.234 107.188C669.117 107.188 666.914 104.375 666.914 99.9453C666.914 95.5156 669.117 92.7031 672.234 92.6797ZM672.234 94.3203C670.148 94.3438 668.695 96.5469 668.695 99.9453C668.695 103.344 670.148 105.547 672.234 105.547C674.32 105.547 675.773 103.344 675.773 99.9453C675.773 96.5469 674.32 94.3438 672.234 94.3203ZM709.195 91.0625V95.7734H712.336V97.3203H709.195V101.75H707.367V91.0625H709.195ZM703.43 92.4453V100.93H693.797V92.4453H703.43ZM695.602 93.9453V99.4531H701.648V93.9453H695.602ZM696.914 103.625V109.812C698.121 109.777 699.727 109.602 701.203 109.109L701.484 110.586C699.445 111.266 697.477 111.336 696.117 111.336H695.133V103.625H696.914ZM711.281 103.836V105.242H700.758V103.836H705.141V101.984H706.945V103.836H711.281ZM706.008 105.992C708.281 106.016 709.898 107.117 709.922 108.922C709.898 110.727 708.281 111.852 706.008 111.852C703.711 111.852 702.117 110.727 702.141 108.922C702.117 107.117 703.711 106.016 706.008 105.992ZM706.008 107.305C704.719 107.305 703.781 107.938 703.781 108.922C703.781 109.906 704.719 110.562 706.008 110.539C707.32 110.562 708.234 109.906 708.234 108.922C708.234 107.938 707.32 107.305 706.008 107.305ZM730.828 91.0625V111.945H728.977V91.0625H730.828ZM719.742 92.6797C722.836 92.7031 725.062 95.5156 725.062 99.9453C725.062 104.375 722.836 107.188 719.742 107.188C716.625 107.188 714.422 104.375 714.422 99.9453C714.422 95.5156 716.625 92.7031 719.742 92.6797ZM719.742 94.3203C717.656 94.3438 716.203 96.5469 716.203 99.9453C716.203 103.344 717.656 105.547 719.742 105.547C721.828 105.547 723.281 103.344 723.281 99.9453C723.281 96.5469 721.828 94.3438 719.742 94.3203ZM740.297 101.68C741.609 101.691 743.332 101.691 745.125 101.609V99.1016H741.586V92.375H750.211V93.9219H743.391V97.5781H750.328V99.1016H746.859V101.539C748.312 101.469 749.742 101.352 750.984 101.164L751.078 102.5C747.68 103.133 743.297 103.18 740.531 103.18L740.297 101.68ZM758.062 91.0625V103.93H756.305V98.4453H753.75V103.812H752.016V91.4609H753.75V96.9219H756.305V91.0625H758.062ZM747.586 105.359C747.586 107.07 748.582 109.016 750.586 110.117C752.555 108.992 753.586 107.035 753.586 105.359V104.82H755.344V105.359C755.344 107.469 756.961 109.508 759.609 110.281L758.742 111.664C756.645 110.973 755.168 109.602 754.43 107.914C753.797 109.578 752.531 111.09 750.586 111.852C748.605 111.102 747.328 109.602 746.695 107.914C745.957 109.602 744.492 110.984 742.453 111.664L741.539 110.281C744.211 109.461 745.828 107.422 745.828 105.359V104.82H747.586V105.359ZM766.758 92.6797C769.594 92.7031 771.633 95.1289 771.938 99.0312H776.602V91.0625H778.43V111.945H776.602V100.555H771.961C771.738 104.633 769.664 107.188 766.758 107.188C763.688 107.188 761.531 104.375 761.531 99.9453C761.531 95.5156 763.688 92.7031 766.758 92.6797ZM766.758 94.3203C764.695 94.3438 763.289 96.5469 763.289 99.9453C763.289 103.344 764.695 105.547 766.758 105.547C768.797 105.547 770.227 103.344 770.227 99.9453C770.227 96.5469 768.797 94.3438 766.758 94.3203ZM800.977 107.68V109.227H781.898V107.68H786.633V102.055C784.852 101.129 783.773 99.6289 783.773 97.7422C783.773 94.5078 786.938 92.3984 791.391 92.375C795.844 92.3984 799.008 94.5078 799.008 97.7422C799.008 99.5938 797.965 101.082 796.242 102.008V107.68H800.977ZM791.391 93.8984C787.969 93.875 785.555 95.4219 785.555 97.7422C785.555 100.062 787.969 101.633 791.391 101.633C794.789 101.633 797.227 100.062 797.227 97.7422C797.227 95.4219 794.789 93.875 791.391 93.8984ZM788.438 107.68H794.391V102.711C793.488 102.957 792.48 103.086 791.391 103.086C790.324 103.086 789.328 102.969 788.438 102.734V107.68ZM804.844 110.141C804.023 110.141 803.32 109.461 803.344 108.617C803.32 107.797 804.023 107.117 804.844 107.117C805.664 107.117 806.344 107.797 806.344 108.617C806.344 109.461 805.664 110.141 804.844 110.141Z" fill="#2C2C2C"/>
<path d="M151.488 141.336H152.8V149.816H151.488V141.336ZM151.488 149.432H152.416C154.096 149.432 155.664 149.352 157.488 148.984L157.664 150.12C155.776 150.504 154.16 150.584 152.416 150.584H151.488V149.432ZM161.808 139.784H163.088V154.248H161.808V139.784ZM155.504 144.632H159.12V145.736H155.504V144.632ZM158.752 140.12H160V153.512H158.752V140.12ZM166.303 145.848H167.375C170.159 145.848 171.791 145.784 173.679 145.416L173.823 146.456C171.871 146.824 170.207 146.92 167.375 146.92H166.303V145.848ZM166.303 140.632H172.879V141.704H167.599V146.488H166.303V140.632ZM172.031 142.984H176.447V144.008H172.031V142.984ZM176.079 139.784H177.407V147.416H176.079V139.784ZM168.095 148.12H177.407V151.512H169.423V153.688H168.127V150.504H176.095V149.16H168.095V148.12ZM168.127 153H177.935V154.056H168.127V153ZM190.126 139.8H191.454V150.456H190.126V139.8ZM191.054 144.216H193.598V145.336H191.054V144.216ZM182.542 152.84H192.11V153.928H182.542V152.84ZM182.542 149.624H183.87V153.24H182.542V149.624ZM180.862 147.112H181.998C184.622 147.112 186.494 147.032 188.75 146.632L188.862 147.736C186.574 148.12 184.67 148.2 181.998 148.2H180.862V147.112ZM180.83 140.728H187.342V144.872H182.158V147.496H180.862V143.864H186.03V141.816H180.83V140.728ZM196.604 146.712H206.54V147.8H196.604V146.712ZM194.956 151.192H208.06V152.296H194.956V151.192ZM196.604 141.112H206.396V142.216H197.932V147.192H196.604V141.112ZM213.531 140.888C215.627 140.888 217.131 142.856 217.131 145.928C217.131 149.016 215.627 150.984 213.531 150.984C211.419 150.984 209.931 149.016 209.931 145.928C209.931 142.856 211.419 140.888 213.531 140.888ZM213.531 142.088C212.139 142.088 211.195 143.592 211.195 145.928C211.195 148.28 212.139 149.816 213.531 149.816C214.923 149.816 215.867 148.28 215.867 145.928C215.867 143.592 214.923 142.088 213.531 142.088ZM220.267 139.768H221.579V154.264H220.267V139.768ZM216.699 145.288H220.843V146.376H216.699V145.288ZM232.43 141.032H233.518V143.624C233.518 146.824 231.79 149.944 229.502 151.16L228.686 150.104C230.782 149.048 232.43 146.264 232.43 143.624V141.032ZM232.67 141.032H233.742V143.624C233.742 146.168 235.358 148.808 237.406 149.832L236.59 150.888C234.35 149.688 232.67 146.728 232.67 143.624V141.032ZM238.67 139.784H240.014V154.248H238.67V139.784ZM239.694 145.64H242.382V146.76H239.694V145.64ZM246.829 144.68H248.141V147.416H246.829V144.68ZM252.141 144.68H253.453V147.416H252.141V144.68ZM243.597 146.936H256.669V148.008H243.597V146.936ZM250.125 149.096C253.229 149.096 255.085 150.008 255.085 151.656C255.085 153.304 253.229 154.232 250.125 154.232C247.021 154.232 245.164 153.304 245.164 151.656C245.164 150.008 247.021 149.096 250.125 149.096ZM250.125 150.12C247.869 150.12 246.509 150.68 246.509 151.656C246.509 152.648 247.869 153.192 250.125 153.192C252.397 153.192 253.741 152.648 253.741 151.656C253.741 150.68 252.397 150.12 250.125 150.12ZM250.141 140.04C253.277 140.04 255.229 141.048 255.229 142.744C255.229 144.424 253.277 145.416 250.141 145.416C246.989 145.416 245.053 144.424 245.053 142.744C245.053 141.048 246.989 140.04 250.141 140.04ZM250.141 141.08C247.837 141.08 246.413 141.688 246.413 142.744C246.413 143.784 247.837 144.392 250.141 144.392C252.445 144.392 253.869 143.784 253.869 142.744C253.869 141.688 252.445 141.08 250.141 141.08ZM261.899 141.848H262.955V144.2C262.955 147.208 261.115 150.312 258.859 151.464L258.091 150.408C260.155 149.4 261.899 146.648 261.899 144.2V141.848ZM262.139 141.848H263.195V144.2C263.195 146.488 264.827 149.064 266.923 150.056L266.171 151.112C263.883 149.976 262.139 147.064 262.139 144.2V141.848ZM258.603 141.256H266.395V142.376H258.603V141.256ZM268.107 139.784H269.451V154.248H268.107V139.784ZM269.131 145.624H271.819V146.744H269.131V145.624ZM274.455 153.091C274.174 153.091 273.934 152.991 273.733 152.79C273.532 152.589 273.432 152.348 273.432 152.068C273.432 151.788 273.532 151.547 273.733 151.347C273.934 151.146 274.174 151.045 274.455 151.045C274.735 151.045 274.975 151.146 275.176 151.347C275.377 151.547 275.477 151.788 275.477 152.068C275.477 152.254 275.43 152.424 275.335 152.58C275.244 152.735 275.121 152.86 274.966 152.955C274.814 153.045 274.644 153.091 274.455 153.091ZM282.361 153V151.977L286.202 147.773C286.652 147.28 287.024 146.852 287.315 146.489C287.607 146.121 287.823 145.777 287.963 145.455C288.107 145.129 288.179 144.788 288.179 144.432C288.179 144.023 288.08 143.669 287.884 143.369C287.69 143.07 287.425 142.839 287.088 142.676C286.751 142.513 286.372 142.432 285.952 142.432C285.505 142.432 285.115 142.525 284.781 142.71C284.452 142.892 284.196 143.148 284.014 143.477C283.836 143.807 283.747 144.193 283.747 144.636H282.406C282.406 143.955 282.563 143.356 282.878 142.841C283.192 142.326 283.62 141.924 284.162 141.636C284.707 141.348 285.319 141.205 285.997 141.205C286.679 141.205 287.283 141.348 287.81 141.636C288.336 141.924 288.749 142.312 289.048 142.801C289.348 143.29 289.497 143.833 289.497 144.432C289.497 144.86 289.42 145.278 289.264 145.688C289.113 146.093 288.848 146.545 288.469 147.045C288.094 147.542 287.573 148.148 286.906 148.864L284.293 151.659V151.75H289.702V153H282.361ZM296.139 141.364V153H294.73V142.841H294.662L291.821 144.727V143.295L294.73 141.364H296.139ZM304.777 144.952H307.545V146.056H304.777V144.952ZM302.073 141.144H303.113V143.896C303.113 146.92 301.849 149.848 299.737 151.144L298.905 150.136C300.889 148.968 302.073 146.376 302.073 143.896V141.144ZM302.329 141.144H303.353V143.848C303.353 146.168 304.441 148.632 306.345 149.784L305.577 150.824C303.497 149.544 302.329 146.664 302.329 143.848V141.144ZM310.089 139.784H311.369V154.248H310.089V139.784ZM307.161 140.088H308.409V153.528H307.161V140.088ZM314.705 147.182C314.705 145.75 314.89 144.434 315.261 143.233C315.636 142.028 316.17 140.92 316.864 139.909H318.045C317.773 140.284 317.517 140.746 317.278 141.295C317.044 141.841 316.837 142.441 316.659 143.097C316.481 143.748 316.341 144.422 316.239 145.119C316.14 145.816 316.091 146.504 316.091 147.182C316.091 148.083 316.178 148.998 316.352 149.926C316.527 150.854 316.761 151.716 317.057 152.511C317.352 153.307 317.682 153.955 318.045 154.455H316.864C316.17 153.443 315.636 152.337 315.261 151.136C314.89 149.932 314.705 148.614 314.705 147.182ZM323.797 153.159C322.941 153.159 322.212 152.926 321.609 152.46C321.007 151.991 320.547 151.311 320.229 150.42C319.911 149.527 319.751 148.447 319.751 147.182C319.751 145.924 319.911 144.85 320.229 143.96C320.551 143.066 321.013 142.384 321.615 141.915C322.221 141.441 322.948 141.205 323.797 141.205C324.645 141.205 325.371 141.441 325.973 141.915C326.579 142.384 327.041 143.066 327.359 143.96C327.681 144.85 327.842 145.924 327.842 147.182C327.842 148.447 327.683 149.527 327.365 150.42C327.047 151.311 326.587 151.991 325.984 152.46C325.382 152.926 324.653 153.159 323.797 153.159ZM323.797 151.909C324.645 151.909 325.304 151.5 325.774 150.682C326.244 149.864 326.479 148.697 326.479 147.182C326.479 146.174 326.371 145.316 326.155 144.608C325.943 143.9 325.636 143.36 325.234 142.989C324.837 142.617 324.357 142.432 323.797 142.432C322.956 142.432 322.299 142.847 321.825 143.676C321.352 144.502 321.115 145.67 321.115 147.182C321.115 148.189 321.221 149.045 321.433 149.75C321.645 150.455 321.95 150.991 322.348 151.358C322.75 151.725 323.232 151.909 323.797 151.909ZM333.933 153.159C333.183 153.159 332.515 153.03 331.928 152.773C331.344 152.515 330.88 152.157 330.536 151.699C330.195 151.237 330.009 150.701 329.979 150.091H331.411C331.441 150.466 331.57 150.79 331.797 151.062C332.024 151.331 332.321 151.54 332.689 151.688C333.056 151.835 333.464 151.909 333.911 151.909C334.411 151.909 334.854 151.822 335.24 151.648C335.626 151.473 335.929 151.231 336.149 150.92C336.369 150.61 336.479 150.25 336.479 149.841C336.479 149.413 336.373 149.036 336.161 148.71C335.948 148.381 335.638 148.123 335.229 147.938C334.82 147.752 334.32 147.659 333.729 147.659H332.797V146.409H333.729C334.191 146.409 334.596 146.326 334.945 146.159C335.297 145.992 335.571 145.758 335.768 145.455C335.969 145.152 336.07 144.795 336.07 144.386C336.07 143.992 335.982 143.65 335.808 143.358C335.634 143.066 335.388 142.839 335.07 142.676C334.755 142.513 334.384 142.432 333.956 142.432C333.554 142.432 333.176 142.506 332.82 142.653C332.467 142.797 332.179 143.008 331.956 143.284C331.732 143.557 331.611 143.886 331.592 144.273H330.229C330.251 143.663 330.435 143.129 330.78 142.67C331.125 142.208 331.575 141.848 332.132 141.591C332.693 141.333 333.308 141.205 333.979 141.205C334.698 141.205 335.316 141.35 335.831 141.642C336.346 141.93 336.742 142.311 337.018 142.784C337.295 143.258 337.433 143.769 337.433 144.318C337.433 144.973 337.261 145.532 336.916 145.994C336.575 146.456 336.111 146.777 335.524 146.955V147.045C336.259 147.167 336.833 147.479 337.246 147.983C337.659 148.483 337.865 149.102 337.865 149.841C337.865 150.473 337.693 151.042 337.348 151.545C337.007 152.045 336.541 152.439 335.95 152.727C335.359 153.015 334.687 153.159 333.933 153.159ZM350.344 139.784H351.672V150.504H350.344V139.784ZM346.264 141.672H350.84V142.744H346.264V141.672ZM342.424 152.84H352.056V153.928H342.424V152.84ZM342.424 149.576H343.752V153.336H342.424V149.576ZM340.616 140.84H341.944V147.656H340.616V140.84ZM340.616 147.24H341.704C343.768 147.24 345.704 147.128 347.96 146.728L348.088 147.832C345.768 148.248 343.832 148.344 341.704 148.344H340.616V147.24ZM346.264 144.424H350.84V145.512H346.264V144.424ZM357.527 140.68H358.583V142.616C358.583 144.776 357.335 147.048 355.207 147.992L354.487 146.952C356.391 146.12 357.527 144.248 357.527 142.616V140.68ZM357.735 140.68H358.791V142.616C358.791 144.216 359.879 145.848 361.735 146.568L361.015 147.576C358.935 146.744 357.735 144.744 357.735 142.616V140.68ZM365.415 139.8H366.679V148.712H365.415V139.8ZM363.111 143.656H365.847V144.744H363.111V143.656ZM362.311 140.072H363.575V148.248H362.311V140.072ZM361.927 149.032C364.903 149.032 366.759 149.992 366.759 151.64C366.759 153.272 364.903 154.216 361.927 154.216C358.935 154.216 357.111 153.272 357.111 151.64C357.111 149.992 358.935 149.032 361.927 149.032ZM361.927 150.072C359.751 150.072 358.407 150.648 358.407 151.64C358.407 152.616 359.751 153.192 361.927 153.192C364.103 153.192 365.431 152.616 365.431 151.64C365.431 150.648 364.103 150.072 361.927 150.072ZM372.513 148.091C372.513 149.523 372.325 150.841 371.95 152.045C371.579 153.246 371.047 154.352 370.354 155.364H369.172C369.445 154.989 369.698 154.527 369.933 153.977C370.172 153.432 370.38 152.833 370.558 152.182C370.736 151.527 370.875 150.85 370.973 150.153C371.075 149.453 371.126 148.765 371.126 148.091C371.126 147.189 371.039 146.275 370.865 145.347C370.691 144.419 370.456 143.557 370.161 142.761C369.865 141.966 369.536 141.318 369.172 140.818H370.354C371.047 141.83 371.579 142.937 371.95 144.142C372.325 145.343 372.513 146.659 372.513 148.091ZM376.423 153.091C376.143 153.091 375.902 152.991 375.702 152.79C375.501 152.589 375.401 152.348 375.401 152.068C375.401 151.788 375.501 151.547 375.702 151.347C375.902 151.146 376.143 151.045 376.423 151.045C376.704 151.045 376.944 151.146 377.145 151.347C377.346 151.547 377.446 151.788 377.446 152.068C377.446 152.254 377.399 152.424 377.304 152.58C377.213 152.735 377.09 152.86 376.935 152.955C376.783 153.045 376.613 153.091 376.423 153.091ZM393.813 139.8H395.141V150.648H393.813V139.8ZM394.725 144.536H397.285V145.656H394.725V144.536ZM383.957 141.544H392.501V142.616H383.957V141.544ZM388.229 143.416C390.277 143.416 391.685 144.488 391.685 146.12C391.685 147.736 390.277 148.808 388.229 148.808C386.165 148.808 384.757 147.736 384.757 146.12C384.757 144.488 386.165 143.416 388.229 143.416ZM388.229 144.456C386.917 144.456 386.021 145.112 386.021 146.12C386.021 147.112 386.917 147.768 388.229 147.768C389.525 147.768 390.421 147.112 390.421 146.12C390.421 145.112 389.525 144.456 388.229 144.456ZM387.557 139.784H388.885V142.104H387.557V139.784ZM386.133 152.84H395.797V153.928H386.133V152.84ZM386.133 149.784H387.461V153.304H386.133V149.784ZM400.308 140.456H409.62V141.544H400.308V140.456ZM398.644 145.64H411.748V146.728H398.644V145.64ZM404.516 146.376H405.828V149.784H404.516V146.376ZM408.756 140.456H410.052V141.528C410.052 142.728 410.052 144.184 409.572 146.168L408.276 146.008C408.756 144.072 408.756 142.696 408.756 141.528V140.456ZM400.004 149.352H410.148V154.248H408.82V150.44H400.004V149.352ZM417.219 140.888C419.315 140.888 420.819 142.856 420.819 145.928C420.819 149.016 419.315 150.984 417.219 150.984C415.107 150.984 413.618 149.016 413.618 145.928C413.618 142.856 415.107 140.888 417.219 140.888ZM417.219 142.088C415.827 142.088 414.883 143.592 414.883 145.928C414.883 148.28 415.827 149.816 417.219 149.816C418.611 149.816 419.555 148.28 419.555 145.928C419.555 143.592 418.611 142.088 417.219 142.088ZM423.955 139.768H425.267V154.264H423.955V139.768ZM420.387 145.288H424.531V146.376H420.387V145.288ZM432.613 141.304H441.157V142.392H432.613V141.304ZM436.885 143.128C438.933 143.128 440.341 144.152 440.341 145.752C440.341 147.336 438.933 148.344 436.885 148.344C434.805 148.344 433.413 147.336 433.413 145.752C433.413 144.152 434.805 143.128 436.885 143.128ZM436.885 144.168C435.557 144.168 434.677 144.776 434.677 145.752C434.677 146.696 435.557 147.32 436.885 147.32C438.181 147.32 439.077 146.696 439.077 145.752C439.077 144.776 438.181 144.168 436.885 144.168ZM442.469 139.784H443.797V148.824H442.469V139.784ZM443.429 143.768H445.941V144.872H443.429V143.768ZM434.405 149.608H443.797V154.248H442.469V150.696H434.405V149.608ZM436.213 139.704H437.541V141.912H436.213V139.704ZM448.948 148.456H450.26V150.136H457.332V148.456H458.66V154.056H448.948V148.456ZM450.26 151.16V152.984H457.332V151.16H450.26ZM447.284 146.376H460.356V147.448H447.284V146.376ZM453.156 139.944H454.292V140.584C454.292 143.096 451.492 144.904 448.516 145.352L448.036 144.312C450.644 143.96 453.156 142.408 453.156 140.584V139.944ZM453.364 139.944H454.5V140.584C454.5 142.376 457.044 143.96 459.62 144.312L459.124 145.352C456.18 144.904 453.364 143.064 453.364 140.584V139.944ZM472.547 139.784H473.875V154.248H472.547V139.784ZM468.307 141.336H469.619C469.619 145.528 467.731 149.192 462.899 151.56L462.195 150.488C466.371 148.472 468.307 145.4 468.307 141.56V141.336ZM462.851 141.336H468.883V142.424H462.851V141.336ZM486.626 139.784H487.954V150.36H486.626V139.784ZM487.538 144.168H490.098V145.272H487.538V144.168ZM482.674 140.904H484.082C484.082 144.648 481.458 147.384 477.314 148.712L476.738 147.624C480.386 146.504 482.674 144.264 482.674 141.48V140.904ZM477.33 140.904H483.346V141.992H477.33V140.904ZM478.93 152.84H488.594V153.928H478.93V152.84ZM478.93 149.288H480.258V153.272H478.93V149.288ZM500.224 153.159C499.747 153.152 499.27 153.061 498.793 152.886C498.315 152.712 497.88 152.419 497.486 152.006C497.092 151.589 496.776 151.027 496.537 150.318C496.298 149.606 496.179 148.712 496.179 147.636C496.179 146.606 496.276 145.693 496.469 144.898C496.662 144.098 496.942 143.426 497.31 142.881C497.677 142.331 498.12 141.915 498.639 141.631C499.162 141.347 499.751 141.205 500.406 141.205C501.058 141.205 501.637 141.335 502.145 141.597C502.656 141.854 503.073 142.214 503.395 142.676C503.717 143.138 503.925 143.67 504.02 144.273H502.634C502.505 143.75 502.255 143.316 501.884 142.972C501.512 142.627 501.02 142.455 500.406 142.455C499.505 142.455 498.795 142.847 498.276 143.631C497.76 144.415 497.501 145.515 497.497 146.932H497.588C497.8 146.61 498.052 146.335 498.344 146.108C498.639 145.877 498.965 145.699 499.321 145.574C499.677 145.449 500.054 145.386 500.452 145.386C501.118 145.386 501.728 145.553 502.281 145.886C502.834 146.216 503.277 146.672 503.611 147.256C503.944 147.835 504.111 148.5 504.111 149.25C504.111 149.97 503.95 150.629 503.628 151.227C503.306 151.822 502.853 152.295 502.27 152.648C501.69 152.996 501.009 153.167 500.224 153.159ZM500.224 151.909C500.702 151.909 501.13 151.79 501.509 151.551C501.891 151.312 502.192 150.992 502.412 150.591C502.635 150.189 502.747 149.742 502.747 149.25C502.747 148.769 502.639 148.331 502.423 147.938C502.211 147.54 501.918 147.223 501.543 146.989C501.171 146.754 500.747 146.636 500.27 146.636C499.91 146.636 499.575 146.708 499.264 146.852C498.954 146.992 498.681 147.186 498.446 147.432C498.215 147.678 498.033 147.96 497.901 148.278C497.768 148.593 497.702 148.924 497.702 149.273C497.702 149.735 497.81 150.167 498.026 150.568C498.245 150.97 498.545 151.294 498.923 151.54C499.306 151.786 499.74 151.909 500.224 151.909ZM516.501 139.784H517.829V150.504H516.501V139.784ZM512.421 141.672H516.997V142.744H512.421V141.672ZM508.581 152.84H518.213V153.928H508.581V152.84ZM508.581 149.576H509.909V153.336H508.581V149.576ZM506.773 140.84H508.101V147.656H506.773V140.84ZM506.773 147.24H507.861C509.925 147.24 511.861 147.128 514.117 146.728L514.245 147.832C511.925 148.248 509.989 148.344 507.861 148.344H506.773V147.24ZM512.421 144.424H516.997V145.512H512.421V144.424Z" fill="#9F9F9F"/>
<defs>
<linearGradient id="paint0_linear_553_8423" x1="0" y1="103.5" x2="958" y2="103.5" gradientUnits="userSpaceOnUse">
<stop stop-color="#FF577C"/>
<stop offset="1" stop-color="#66B8FB"/>
</linearGradient>
</defs>
</svg>
