<svg width="986" height="231" viewBox="0 0 986 231" fill="none" xmlns="http://www.w3.org/2000/svg">
<path d="M1.5 150C1.5 67.9857 67.9857 1.5 150 1.5H870.5C933.461 1.5 984.5 52.5395 984.5 115.5C984.5 178.46 933.46 229.5 870.5 229.5H4.99999C3.067 229.5 1.5 227.933 1.5 226V150Z" stroke="url(#paint0_linear_815_5893)" stroke-width="3"/>
<path d="M169.067 66.2002V88.124H166.748V75.9658H162.231V74.0615H166.748V66.2002H169.067ZM158.618 72.3525C158.618 76.0635 160.938 80.043 164.307 81.5322L162.915 83.3877C160.388 82.167 158.435 79.6157 157.471 76.625C156.494 79.811 154.504 82.5332 151.978 83.8271L150.562 82.0205C153.906 80.4336 156.25 76.2832 156.274 72.3525V70.3018H151.44V68.3975H163.477V70.3018H158.618V72.3525ZM190.137 76.2832V78.1387H183.521V83.4854H192.432V85.3896H172.412V83.4854H181.226V78.1387H174.902V67.8848H189.941V69.7646H177.222V76.2832H190.137ZM218.237 66.2002V88.124H215.918V66.2002H218.237ZM206.543 67.8359C209.79 67.8359 212.183 70.8145 212.183 75.502C212.183 80.2139 209.79 83.1924 206.543 83.1924C203.247 83.1924 200.879 80.2139 200.879 75.502C200.879 70.8145 203.247 67.8359 206.543 67.8359ZM206.543 69.9111C204.517 69.9111 203.125 72.0596 203.125 75.502C203.125 78.9688 204.517 81.1172 206.543 81.1172C208.545 81.1172 209.937 78.9688 209.937 75.502C209.937 72.0596 208.545 69.9111 206.543 69.9111ZM237.964 79.8232C242.48 79.8232 245.215 81.3369 245.215 83.9248C245.215 86.5371 242.48 88.0508 237.964 88.0752C233.398 88.0508 230.615 86.5371 230.615 83.9248C230.615 81.3369 233.398 79.8232 237.964 79.8232ZM237.964 81.6543C234.79 81.6543 232.91 82.46 232.935 83.9248C232.91 85.3896 234.79 86.2197 237.964 86.2197C241.113 86.2197 242.944 85.3896 242.944 83.9248C242.944 82.46 241.113 81.6543 237.964 81.6543ZM245.02 66.2002V71.5469H248.193V73.5244H245.02V79.2617H242.7V66.2002H245.02ZM230.957 67.5674V70.7168H236.694V67.5674H238.989V77.7236H228.687V67.5674H230.957ZM230.957 75.8682H236.694V72.5479H230.957V75.8682ZM252.808 67.3232V70.5215H258.276V67.3232H260.571V71.4492H265.356V66.2002H267.676V78.1387H265.356V73.3779H260.571V77.4062H250.488V67.3232H252.808ZM252.808 75.5264H258.276V72.3281H252.808V75.5264ZM255.713 79.1641V81.6299H265.356V79.1641H267.651V87.7578H253.418V79.1641H255.713ZM255.713 85.8779H265.356V83.4365H255.713V85.8779ZM289.16 66.2002V88.124H286.841V66.2002H289.16ZM277.466 67.8359C280.713 67.8359 283.105 70.8145 283.105 75.502C283.105 80.2139 280.713 83.1924 277.466 83.1924C274.17 83.1924 271.802 80.2139 271.802 75.502C271.802 70.8145 274.17 67.8359 277.466 67.8359ZM277.466 69.9111C275.439 69.9111 274.048 72.0596 274.048 75.502C274.048 78.9688 275.439 81.1172 277.466 81.1172C279.468 81.1172 280.859 78.9688 280.859 75.502C280.859 72.0596 279.468 69.9111 277.466 69.9111ZM316.992 66.2002V79.2129H314.673V73.6709H310.596V71.7666H314.673V66.2002H316.992ZM309.668 79.8232C314.258 79.8232 317.065 81.3369 317.065 83.9492C317.065 86.5615 314.258 88.0508 309.668 88.0752C305.078 88.0508 302.246 86.5615 302.271 83.9492C302.246 81.3369 305.078 79.8232 309.668 79.8232ZM309.668 81.6299C306.47 81.6299 304.565 82.46 304.565 83.9492C304.565 85.4141 306.47 86.2686 309.668 86.2441C312.866 86.2686 314.771 85.4141 314.771 83.9492C314.771 82.46 312.866 81.6299 309.668 81.6299ZM306.592 70.0576C306.592 72.8408 308.569 75.5264 311.865 76.6494L310.669 78.4805C308.215 77.626 306.409 75.8804 305.469 73.7197C304.504 76.1733 302.588 78.1387 299.976 79.0908L298.755 77.2354C302.148 76.0635 304.224 73.1094 304.224 70.082V69.5938H299.487V67.7139H311.279V69.5938H306.592V70.0576ZM337.549 66.2002V70.7656H340.723V72.6943H337.549V77.2598H335.229V66.2002H337.549ZM331.445 67.3721V76.2344H321.216V67.3721H331.445ZM323.486 69.2275V74.3789H329.175V69.2275H323.486ZM337.549 78.2607V83.8027H325.732V85.9512H338.306V87.8066H323.462V82.0693H335.254V80.0674H323.413V78.2607H337.549ZM359.18 72.7188V75.1113H368.066V76.9912H348.047V75.1113H356.885V72.7188H359.18ZM366.235 66.835V68.6172H359.619C359.985 70.5093 363.062 72.0107 367.017 72.2793L366.26 74.0127C362.402 73.6831 359.204 72.2793 358.057 70.082C356.897 72.2793 353.687 73.6831 349.829 74.0127L349.072 72.2793C352.954 72.0107 356.079 70.5093 356.47 68.6172H349.902V66.835H366.235ZM366.162 79.6768V81.459H349.902V79.6768H356.885V77.748H359.18V79.6768H366.162ZM358.008 82.3867C362.256 82.3867 364.697 83.3877 364.697 85.2676C364.697 87.1719 362.256 88.1729 358.008 88.1729C353.76 88.1729 351.392 87.1719 351.392 85.2676C351.392 83.3877 353.76 82.3867 358.008 82.3867ZM358.008 83.9736C355.273 83.9736 353.735 84.3887 353.76 85.2676C353.735 86.1465 355.273 86.6104 358.008 86.5859C360.791 86.6104 362.28 86.1465 362.305 85.2676C362.28 84.3887 360.791 83.9736 358.008 83.9736ZM386.719 66.2002V74.6719H390.234V76.5762H386.719V88.124H384.399V66.2002H386.719ZM380.835 68.2998V70.1797H372.925V80.751C376.599 80.7388 379.358 80.5801 382.471 80.0186L382.764 81.9717C379.346 82.582 376.44 82.7041 372.363 82.6797H370.605V68.2998H380.835ZM408.984 68.2998V70.4482C408.984 73.1582 408.984 76.1855 408.154 80.6533L405.811 80.4092C406.665 76.1855 406.665 73.085 406.665 70.4482V70.1797H393.384V68.2998H408.984ZM411.23 83.1924V85.1211H391.284V83.1924H398.877V75.4775H401.172V83.1924H411.23ZM425.684 70.3994C425.684 72.792 427.222 75.209 430.054 76.2832L428.833 78.0654C426.794 77.2842 425.366 75.7949 424.585 73.9883C423.779 76.0269 422.278 77.7969 420.166 78.7002L418.896 76.8936C421.851 75.5996 423.438 72.8408 423.438 70.3994V67.5674H425.684V70.3994ZM437.646 66.2246V79.6768H435.449V73.8174H432.886V78.9932H430.737V66.6152H432.886V71.9131H435.449V66.2246H437.646ZM430.322 80.0918C434.888 80.0918 437.744 81.5811 437.769 84.0713C437.744 86.5615 434.888 88.0508 430.322 88.0264C425.757 88.0508 422.9 86.5615 422.925 84.0713C422.9 81.5811 425.757 80.0918 430.322 80.0918ZM430.322 81.874C427.148 81.874 425.195 82.6797 425.22 84.0713C425.195 85.4629 427.148 86.2686 430.322 86.2441C433.496 86.2686 435.425 85.4629 435.449 84.0713C435.425 82.6797 433.496 81.874 430.322 81.874ZM457.788 66.2002V71.5957H460.962V73.5488H457.788V78.9932H455.469V66.2002H457.788ZM451.733 67.543C451.733 73.1826 447.925 77.1133 441.431 78.7979L440.479 77.0156C445.728 75.6484 448.84 72.8774 449.243 69.4229H441.528V67.543H451.733ZM457.788 79.9453V88.0752H455.469V81.8252H443.335V79.9453H457.788ZM473.022 69.8135V71.6934H462.158V69.8135H466.455V66.835H468.75V69.8135H473.022ZM467.603 73.0117C470.386 73.0117 472.339 75.0869 472.363 78.041C472.339 81.0195 470.386 83.1191 467.603 83.1191C464.868 83.1191 462.842 81.0195 462.866 78.041C462.842 75.0869 464.868 73.0117 467.603 73.0117ZM467.603 74.9404C466.016 74.9404 464.917 76.2344 464.917 78.041C464.917 79.8965 466.016 81.1416 467.603 81.1416C469.165 81.1416 470.312 79.8965 470.312 78.041C470.312 76.2344 469.165 74.9404 467.603 74.9404ZM480.933 66.2002V88.0752H478.735V77.2109H476.221V87.0498H474.023V66.6885H476.221V75.3066H478.735V66.2002H480.933ZM503.833 83.4121V85.3408H483.813V83.4121H488.599V77.6992C486.804 76.7104 485.718 75.1357 485.718 73.1826C485.718 69.7402 489.087 67.4697 493.774 67.4697C498.486 67.4697 501.855 69.7402 501.855 73.1826C501.855 75.1113 500.806 76.6616 499.048 77.6504V83.4121H503.833ZM493.774 69.3252C490.332 69.3252 487.964 70.8145 487.964 73.1826C487.964 75.5264 490.332 77.0645 493.774 77.0645C497.192 77.0645 499.609 75.5264 499.609 73.1826C499.609 70.8145 497.192 69.3252 493.774 69.3252ZM490.894 83.4121H496.704V78.5293C495.813 78.7612 494.824 78.8711 493.774 78.8711C492.749 78.8711 491.772 78.7612 490.894 78.5537V83.4121ZM509.448 68.3242L509.229 80.8975H506.812L506.592 68.3242H509.448ZM508.032 86.1709C507.08 86.1709 506.274 85.3896 506.299 84.4375C506.274 83.4854 507.08 82.7041 508.032 82.7041C508.96 82.7041 509.766 83.4854 509.766 84.4375C509.766 85.3896 508.96 86.1709 508.032 86.1709ZM538.306 77.6992V79.5303H518.311V77.6992H538.306ZM535.767 81.4346V88.0752H533.398V83.29H520.581V81.4346H535.767ZM536.011 74.0615V75.8438H520.923V66.7617H535.864V68.5928H523.267V70.375H535.303V72.1328H523.267V74.0615H536.011ZM558.081 66.2002V88.0752H555.762V66.2002H558.081ZM553.638 69.667V71.5469H540.454V69.667H545.85V66.4199H548.193V69.667H553.638ZM547.07 73.1338C550.269 73.1338 552.588 75.2334 552.588 78.2119C552.588 81.2148 550.269 83.29 547.07 83.3145C543.896 83.29 541.577 81.2148 541.577 78.2119C541.577 75.2334 543.896 73.1338 547.07 73.1338ZM547.07 75.0381C545.166 75.0381 543.774 76.332 543.774 78.2119C543.774 80.1162 545.166 81.3857 547.07 81.3613C548.975 81.3857 550.366 80.1162 550.366 78.2119C550.366 76.332 548.975 75.0381 547.07 75.0381ZM573.73 67.4697C575.549 67.4575 577.1 68.1411 578.125 69.2764H583.594V66.2002H585.913V79.1152H583.594V76.1611H578.101C577.087 77.2842 575.537 77.9556 573.73 77.9434C570.435 77.9678 567.993 75.7705 567.993 72.7188C567.993 69.6426 570.435 67.4453 573.73 67.4697ZM573.73 69.4717C571.68 69.4473 570.215 70.7656 570.215 72.7188C570.215 74.623 571.68 75.9902 573.73 75.9658C575.732 75.9902 577.197 74.623 577.197 72.7188C577.197 70.7656 575.732 69.4473 573.73 69.4717ZM578.589 79.6035C583.13 79.6035 585.986 81.1416 585.986 83.8271C585.986 86.4883 583.13 88.0508 578.589 88.0264C574.023 88.0508 571.167 86.4883 571.191 83.8271C571.167 81.1416 574.023 79.6035 578.589 79.6035ZM578.589 81.3857C575.391 81.3857 573.438 82.2646 573.462 83.8271C573.438 85.3408 575.391 86.1953 578.589 86.1953C581.812 86.1953 583.716 85.3408 583.716 83.8271C583.716 82.2646 581.812 81.3857 578.589 81.3857ZM579.175 71.1318C579.333 71.6201 579.419 72.1572 579.419 72.7188C579.419 73.2559 579.333 73.7808 579.199 74.2568H583.594V71.1318H579.175ZM606.421 66.2002V75.3555H609.717V77.3086H606.421V88.0752H604.102V66.2002H606.421ZM589.014 82.1182C590.735 82.1182 592.737 82.1182 594.824 82.0449V79.8232C592.358 79.4814 590.747 77.9922 590.771 75.8682C590.747 73.4023 592.871 71.7666 595.996 71.7666C599.097 71.7666 601.245 73.4023 601.27 75.8682C601.245 77.9922 599.609 79.4937 597.144 79.8477V81.9473C599.084 81.874 601.038 81.7153 602.856 81.459L603.003 83.168C598.267 84.0225 593.14 84.0469 589.38 84.0469L589.014 82.1182ZM602.539 68.7881V70.6436H589.429V68.7881H594.824V66.249H597.144V68.7881H602.539ZM595.996 73.5732C594.165 73.5732 592.944 74.4766 592.944 75.8682C592.944 77.2598 594.165 78.1143 595.996 78.1143C597.827 78.1143 599.048 77.2598 599.048 75.8682C599.048 74.4766 597.827 73.5732 595.996 73.5732ZM617.456 67.5918C620.825 67.5918 623.34 69.7158 623.34 72.792C623.34 75.502 621.387 77.4673 618.628 77.8945V81.3613C620.569 81.2759 622.51 81.1294 624.316 80.8975L624.487 82.6309C619.873 83.4365 614.771 83.4609 610.986 83.4365L610.62 81.5322C612.317 81.52 614.27 81.5078 616.309 81.459V77.8945C613.477 77.4917 611.548 75.5142 611.572 72.792C611.548 69.7158 614.014 67.5918 617.456 67.5918ZM617.456 69.5449C615.356 69.5693 613.818 70.8389 613.818 72.792C613.818 74.7451 615.356 76.0391 617.456 76.0146C619.531 76.0391 621.045 74.7451 621.069 72.792C621.045 70.8389 619.531 69.5693 617.456 69.5449ZM627.954 66.2002V75.0869H631.323V77.04H627.954V88.0752H625.635V66.2002H627.954ZM650.781 67.8604V69.0811C650.757 70.5459 650.757 72.7188 650.22 75.5508L647.925 75.3311C648.401 72.9019 648.474 71.144 648.511 69.7646H639.746V67.8604H650.781ZM645.19 72.7676V77.2842C647.534 77.2109 649.951 77.04 652.148 76.7227L652.295 78.4072C647.729 79.2129 642.505 79.2861 638.647 79.3105L638.428 77.4307C639.771 77.4185 641.296 77.4062 642.896 77.3574V72.7676H645.19ZM655.908 66.2002V73.1582H658.911V75.1113H655.908V82.6309H653.54V66.2002H655.908ZM656.616 85.7314V87.6113H641.748V81.1416H644.067V85.7314H656.616ZM670.63 67.7383V74.3301H663.403V77.5771C667.041 77.5649 669.202 77.4551 671.777 77.0156L672.021 78.8955C669.189 79.3838 666.846 79.457 662.695 79.457H661.084V72.5479H668.286V69.5938H661.035V67.7383H670.63ZM678.442 66.2246V82.3135H676.123V76.5762H672.046V74.6719H676.123V71.6445H672.046V69.7891H676.123V66.2246H678.442ZM679.077 85.6338V87.5381H664.062V81.1172H666.382V85.6338H679.077ZM692.627 69.8135V71.6934H681.763V69.8135H686.06V66.835H688.354V69.8135H692.627ZM687.207 73.0117C689.99 73.0117 691.943 75.0869 691.968 78.041C691.943 81.0195 689.99 83.1191 687.207 83.1191C684.473 83.1191 682.446 81.0195 682.471 78.041C682.446 75.0869 684.473 73.0117 687.207 73.0117ZM687.207 74.9404C685.62 74.9404 684.521 76.2344 684.521 78.041C684.521 79.8965 685.62 81.1416 687.207 81.1416C688.77 81.1416 689.917 79.8965 689.917 78.041C689.917 76.2344 688.77 74.9404 687.207 74.9404ZM700.537 66.2002V88.0752H698.34V77.2109H695.825V87.0498H693.628V66.6885H695.825V75.3066H698.34V66.2002H700.537ZM711.304 71.7666C711.304 75.7705 713.55 79.75 716.895 81.2637L715.479 83.1191C712.988 81.874 711.121 79.396 710.156 76.4053C709.192 79.5547 707.275 82.2158 704.761 83.5342L703.296 81.6543C706.689 80.043 708.96 75.8193 708.96 71.7666V68.0312H711.304V71.7666ZM721.655 66.2002V88.124H719.36V75.3555H714.478V73.4756H719.36V66.2002H721.655ZM745.044 83.4121V85.3408H725.024V83.4121H729.81V77.6992C728.015 76.7104 726.929 75.1357 726.929 73.1826C726.929 69.7402 730.298 67.4697 734.985 67.4697C739.697 67.4697 743.066 69.7402 743.066 73.1826C743.066 75.1113 742.017 76.6616 740.259 77.6504V83.4121H745.044ZM734.985 69.3252C731.543 69.3252 729.175 70.8145 729.175 73.1826C729.175 75.5264 731.543 77.0645 734.985 77.0645C738.403 77.0645 740.82 75.5264 740.82 73.1826C740.82 70.8145 738.403 69.3252 734.985 69.3252ZM732.104 83.4121H737.915V78.5293C737.024 78.7612 736.035 78.8711 734.985 78.8711C733.96 78.8711 732.983 78.7612 732.104 78.5537V83.4121ZM749.121 86.1709C748.169 86.1709 747.363 85.3896 747.388 84.4375C747.363 83.4854 748.169 82.7041 749.121 82.7041C750.049 82.7041 750.854 83.4854 750.854 84.4375C750.854 85.3896 750.049 86.1709 749.121 86.1709ZM151.807 121V103.324H154.492V111.747H154.712L162.109 103.324H165.479L158.35 111.283L165.503 121H162.256L156.567 113.114L154.492 115.507V121H151.807ZM173.218 111.039V113.285H165.381V111.039H173.218ZM193.311 111.576V113.48H178.076V103.153H193.115V105.058H180.371V111.576H193.311ZM195.605 118.266V120.194H175.586V118.266H195.605ZM214.233 101.2V109.745H217.749V111.698H214.233V123.124H211.938V101.2H214.233ZM208.057 103.178V111.21H200.391V115.946C204.15 115.934 206.934 115.8 210.132 115.214L210.352 117.094C206.934 117.729 203.979 117.875 199.878 117.899H198.096V109.33H205.762V105.058H198.047V103.178H208.057ZM229.858 103.373V117.582H219.629V103.373H229.858ZM221.899 105.204V115.702H227.563V105.204H221.899ZM235.84 101.2V109.77H239.355V111.723H235.84V123.075H233.521V101.2H235.84ZM259.229 101.2V123.075H257.007V101.2H259.229ZM254.785 101.615V122.001H252.563V111.454H250.098C249.902 115.727 248.071 118.388 245.361 118.363C242.505 118.388 240.649 115.385 240.649 110.648C240.649 105.912 242.505 102.934 245.361 102.958C248.022 102.934 249.829 105.46 250.098 109.574H252.563V101.615H254.785ZM245.361 105.131C243.774 105.131 242.798 107.157 242.798 110.648C242.798 114.14 243.774 116.166 245.361 116.166C246.973 116.166 247.974 114.14 247.974 110.648C247.974 107.157 246.973 105.131 245.361 105.131ZM269.897 106.767C269.897 110.771 272.144 114.75 275.488 116.264L274.072 118.119C271.582 116.874 269.714 114.396 268.75 111.405C267.786 114.555 265.869 117.216 263.354 118.534L261.89 116.654C265.283 115.043 267.554 110.819 267.554 106.767V103.031H269.897V106.767ZM280.249 101.2V123.124H277.954V110.355H273.071V108.476H277.954V101.2H280.249ZM297.339 107.646C297.339 111.112 299.609 114.97 302.93 116.532L301.611 118.339C299.158 117.155 297.217 114.689 296.24 111.82C295.227 114.958 293.176 117.655 290.674 118.9L289.307 117.069C292.627 115.482 295.044 111.356 295.044 107.646V105.326H290.112V103.397H302.1V105.326H297.339V107.646ZM306.763 101.2V109.867H310.278V111.82H306.763V123.075H304.443V101.2H306.763ZM331.274 113.529V115.409H322.388V123.051H320.117V115.409H311.328V113.529H331.274ZM329.395 102.494V104.35H322.632C322.668 107.06 326.038 109.477 330.176 110.038L329.321 111.869C325.732 111.308 322.632 109.538 321.313 107.035C319.958 109.538 316.87 111.308 313.33 111.869L312.451 110.038C316.541 109.477 319.91 107.06 319.995 104.35H313.184V102.494H329.395ZM359.473 109.794V111.698H356.079V123.051H353.76V101.2H356.079V109.794H359.473ZM342.163 103.324V115.629C345.215 115.629 348.401 115.373 351.88 114.652L352.148 116.605C348.413 117.362 344.946 117.558 341.675 117.558H339.868V103.324H342.163ZM370.605 102.519C375.293 102.543 378.687 104.838 378.687 108.329C378.687 111.613 375.842 113.773 371.753 114.115V118.412H380.664V120.341H360.645V118.412H369.458V114.115C365.393 113.773 362.549 111.613 362.549 108.329C362.549 104.838 365.942 102.543 370.605 102.519ZM370.605 104.423C367.236 104.398 364.795 105.961 364.795 108.329C364.795 110.795 367.236 112.309 370.605 112.333C373.999 112.309 376.44 110.795 376.44 108.329C376.44 105.961 373.999 104.398 370.605 104.423ZM399.951 107.597V109.452H384.888V101.981H387.183V107.597H399.951ZM402.246 112.211V114.066H382.227V112.211H402.246ZM400.098 120.658V122.562H384.717V116.142H387.036V120.658H400.098ZM427.148 101.176V107.523H430.347V109.452H427.148V117.021H424.829V101.176H427.148ZM420.703 103.056V104.936H413.232V111.308C417.493 111.32 419.897 111.186 422.632 110.624L422.9 112.504C419.946 113.09 417.358 113.236 412.671 113.236H410.938V103.056H420.703ZM428.076 120.731V122.611H413.281V115.385H415.601V120.731H428.076ZM437.5 102.836C440.466 102.836 442.639 105.351 442.993 109.403H447.51V101.2H449.805V123.124H447.51V111.283H443.018C442.761 115.543 440.54 118.192 437.5 118.192C434.229 118.192 431.934 115.214 431.958 110.502C431.934 105.814 434.229 102.836 437.5 102.836ZM437.5 104.911C435.522 104.911 434.155 107.06 434.155 110.502C434.155 113.969 435.522 116.117 437.5 116.117C439.478 116.117 440.845 113.969 440.845 110.502C440.845 107.06 439.478 104.911 437.5 104.911ZM473.145 110.16V112.016H453.174V110.16H473.145ZM470.776 106.718V108.573H455.786V101.835H470.557V103.715H458.105V106.718H470.776ZM470.605 113.749V119.047H457.861V121H471.216V122.831H455.591V117.338H468.311V115.531H455.566V113.749H470.605ZM484.741 101.566C489.673 101.566 492.554 102.885 492.554 105.326C492.554 107.768 489.673 109.11 484.741 109.11C479.81 109.11 476.929 107.768 476.929 105.326C476.929 102.885 479.81 101.566 484.741 101.566ZM484.741 103.275C481.25 103.275 479.321 104.032 479.346 105.326C479.321 106.669 481.25 107.377 484.741 107.377C488.232 107.377 490.161 106.669 490.161 105.326C490.161 104.032 488.232 103.275 484.741 103.275ZM494.727 110.453V112.309H474.78V110.453H494.727ZM492.212 113.993V119.12H479.468V121.073H492.822V122.855H477.197V117.436H489.917V115.727H477.173V113.993H492.212ZM505.42 103.227V108.451H509.595V103.227H511.743V117.68H503.223V103.227H505.42ZM505.42 115.8H509.595V110.282H505.42V115.8ZM521.313 101.2V123.075H519.092V111.674H516.382V122.001H514.185V101.615H516.382V109.77H519.092V101.2H521.313ZM544.092 113.627V115.556H535.156V123.075H532.886V115.556H524.072V113.627H544.092ZM534.033 102.03C538.647 102.03 541.821 103.91 541.821 106.889C541.821 109.843 538.647 111.698 534.033 111.698C529.395 111.698 526.245 109.843 526.245 106.889C526.245 103.91 529.395 102.03 534.033 102.03ZM534.033 103.886C530.786 103.91 528.613 105.033 528.638 106.889C528.613 108.72 530.786 109.843 534.033 109.843C537.28 109.843 539.453 108.72 539.453 106.889C539.453 105.033 537.28 103.91 534.033 103.886ZM564.502 101.2V123.075H562.305V101.2H564.502ZM559.888 101.762V122.001H557.69V111.845H553.418C552.112 114.384 550.037 116.605 546.948 118.412L545.63 116.752C550.269 113.993 552.502 110.319 552.905 105.814H546.655V103.91H555.2C555.188 106.046 554.895 108.085 554.224 109.989H557.69V101.762H559.888ZM586.45 110.453V112.357H581.836V116.41C583.862 116.312 585.901 116.178 587.817 115.971L587.988 117.68C583.179 118.412 577.979 118.461 573.828 118.485L573.535 116.557C575.378 116.557 577.417 116.544 579.517 116.483V112.357H575.122V103.227H586.353V105.106H577.417V110.453H586.45ZM591.504 101.2V123.124H589.185V101.2H591.504ZM600.952 102.836C603.918 102.836 606.091 105.351 606.445 109.403H610.962V101.2H613.257V123.124H610.962V111.283H606.47C606.213 115.543 603.992 118.192 600.952 118.192C597.681 118.192 595.386 115.214 595.41 110.502C595.386 105.814 597.681 102.836 600.952 102.836ZM600.952 104.911C598.975 104.911 597.607 107.06 597.607 110.502C597.607 113.969 598.975 116.117 600.952 116.117C602.93 116.117 604.297 113.969 604.297 110.502C604.297 107.06 602.93 104.911 600.952 104.911ZM624.512 106.767C624.512 110.771 626.758 114.75 630.103 116.264L628.687 118.119C626.196 116.874 624.329 114.396 623.364 111.405C622.4 114.555 620.483 117.216 617.969 118.534L616.504 116.654C619.897 115.043 622.168 110.819 622.168 106.767V103.031H624.512V106.767ZM634.863 101.2V123.124H632.568V110.355H627.686V108.476H632.568V101.2H634.863ZM662.061 111.283V113.139H655.444V118.485H664.355V120.39H644.336V118.485H653.149V113.139H646.826V102.885H661.865V104.765H649.146V111.283H662.061ZM675.903 101.566C680.713 101.566 683.716 103.104 683.716 105.741C683.716 108.305 680.713 109.843 675.903 109.843C671.118 109.843 668.091 108.305 668.091 105.741C668.091 103.104 671.118 101.566 675.903 101.566ZM675.903 103.373C672.534 103.373 670.459 104.228 670.483 105.741C670.459 107.206 672.534 108.036 675.903 108.036C679.248 108.036 681.323 107.206 681.323 105.741C681.323 104.228 679.248 103.373 675.903 103.373ZM683.447 115.507V122.807H668.335V115.507H674.756V113.212H665.942V111.332H685.889V113.212H677.051V115.507H683.447ZM670.63 117.362V120.927H681.201V117.362H670.63ZM705.664 101.2V123.124H703.345V101.2H705.664ZM693.97 102.836C697.217 102.836 699.609 105.814 699.609 110.502C699.609 115.214 697.217 118.192 693.97 118.192C690.674 118.192 688.306 115.214 688.306 110.502C688.306 105.814 690.674 102.836 693.97 102.836ZM693.97 104.911C691.943 104.911 690.552 107.06 690.552 110.502C690.552 113.969 691.943 116.117 693.97 116.117C695.972 116.117 697.363 113.969 697.363 110.502C697.363 107.06 695.972 104.911 693.97 104.911ZM732.446 101.2V106.01H735.62V107.938H732.446V112.309H730.127V101.2H732.446ZM726.343 102.616V111.601H716.113V102.616H726.343ZM718.384 104.472V109.745H724.072V104.472H718.384ZM719.727 114.213V120.585C721.008 120.524 722.485 120.341 723.877 119.877L724.219 121.708C722.192 122.392 720.215 122.489 718.579 122.489H717.456V114.213H719.727ZM734.497 114.457V116.166H723.462V114.457H727.881V112.626H730.151V114.457H734.497ZM728.979 116.874C731.396 116.898 733.105 118.046 733.105 119.95C733.105 121.854 731.396 123.026 728.979 123.026C726.514 123.026 724.829 121.854 724.854 119.95C724.829 118.046 726.514 116.898 728.979 116.874ZM728.979 118.485C727.759 118.51 726.904 119.047 726.904 119.95C726.904 120.878 727.759 121.439 728.979 121.439C730.176 121.439 731.03 120.878 731.03 119.95C731.03 119.047 730.176 118.51 728.979 118.485ZM754.98 101.2V123.124H752.661V101.2H754.98ZM743.286 102.836C746.533 102.836 748.926 105.814 748.926 110.502C748.926 115.214 746.533 118.192 743.286 118.192C739.99 118.192 737.622 115.214 737.622 110.502C737.622 105.814 739.99 102.836 743.286 102.836ZM743.286 104.911C741.26 104.911 739.868 107.06 739.868 110.502C739.868 113.969 741.26 116.117 743.286 116.117C745.288 116.117 746.68 113.969 746.68 110.502C746.68 107.06 745.288 104.911 743.286 104.911ZM764.478 112.162C765.796 112.162 767.517 112.15 769.312 112.089V109.696H765.771V102.519H774.829V104.447H768.042V107.816H774.951V109.696H771.484V111.991C772.913 111.918 774.304 111.796 775.537 111.625L775.659 113.261C772.144 113.92 767.603 113.993 764.746 113.993L764.478 112.162ZM783.276 101.2V114.652H781.055V109.086H778.735V114.53H776.562V101.591H778.735V107.182H781.055V101.2H783.276ZM772.266 116.093C772.266 117.814 773.23 119.743 775.22 120.878C777.197 119.706 778.149 117.753 778.149 116.093V115.531H780.42V116.093C780.396 118.266 781.958 120.316 784.766 121.098L783.691 122.831C781.531 122.147 780.017 120.768 779.248 119.047C778.564 120.756 777.246 122.257 775.22 123.026C773.157 122.282 771.838 120.792 771.167 119.096C770.374 120.78 768.896 122.147 766.797 122.831L765.649 121.098C768.506 120.292 770.044 118.192 770.068 116.093V115.531H772.266V116.093ZM792.114 102.836C795.081 102.836 797.253 105.351 797.607 109.403H802.124V101.2H804.419V123.124H802.124V111.283H797.632C797.375 115.543 795.154 118.192 792.114 118.192C788.843 118.192 786.548 115.214 786.572 110.502C786.548 105.814 788.843 102.836 792.114 102.836ZM792.114 104.911C790.137 104.911 788.77 107.06 788.77 110.502C788.77 113.969 790.137 116.117 792.114 116.117C794.092 116.117 795.459 113.969 795.459 110.502C795.459 107.06 794.092 104.911 792.114 104.911ZM827.808 118.412V120.341H807.788V118.412H812.573V112.699C810.779 111.71 809.692 110.136 809.692 108.183C809.692 104.74 813.062 102.47 817.749 102.47C822.461 102.47 825.83 104.74 825.83 108.183C825.83 110.111 824.78 111.662 823.022 112.65V118.412H827.808ZM817.749 104.325C814.307 104.325 811.938 105.814 811.938 108.183C811.938 110.526 814.307 112.064 817.749 112.064C821.167 112.064 823.584 110.526 823.584 108.183C823.584 105.814 821.167 104.325 817.749 104.325ZM814.868 118.412H820.679V113.529C819.788 113.761 818.799 113.871 817.749 113.871C816.724 113.871 815.747 113.761 814.868 113.554V118.412ZM831.885 121.171C830.933 121.171 830.127 120.39 830.151 119.438C830.127 118.485 830.933 117.704 831.885 117.704C832.812 117.704 833.618 118.485 833.618 119.438C833.618 120.39 832.812 121.171 831.885 121.171Z" fill="#2C2C2C"/>
<path d="M152.971 154.379V163.133C154.588 163.106 156.108 163.01 157.857 162.641L158.086 164.064C156.038 164.495 154.289 164.574 152.338 164.574H151.301V154.379H152.971ZM155.713 159.301V157.93H159.158V153.096H160.74V167.721H159.158V159.301H155.713ZM162.533 168.494V152.744H164.115V168.494H162.533ZM174.205 153.641V154.959H168.65V159.213C171.445 159.222 173.106 159.134 175.049 158.756L175.189 160.074C173.115 160.47 171.322 160.549 168.193 160.549H166.998V153.641H174.205ZM168.949 163.045V161.727H179.25V165.559H170.654V166.965H179.812V168.301H168.984V164.293H177.598V163.045H168.949ZM173.309 157.455V156.189H177.598V152.744H179.25V161.006H177.598V157.455H173.309ZM194.068 152.762V157.49H196.371V158.896H194.068V164.346H192.398V152.762H194.068ZM182.326 155.135V153.764H189.498V158.404H184.014V160.602C186.747 160.602 188.681 160.487 190.975 160.092L191.15 161.463C188.716 161.885 186.633 161.964 183.609 161.973H182.344V157.121H187.863V155.135H182.326ZM184.172 168.16V163.449H185.859V166.807H194.771V168.16H184.172ZM210.012 160.215V161.586H199.043V154.15H209.871V155.521H200.695V160.215H210.012ZM197.25 166.42V165.031H211.664V166.42H197.25ZM217.078 153.922C219.223 153.931 220.778 155.741 221.033 158.65H224.285V152.744H225.938V168.529H224.285V160.004H221.051C220.866 163.08 219.275 164.987 217.078 164.979C214.731 164.987 213.07 162.843 213.088 159.441C213.07 156.075 214.731 153.931 217.078 153.922ZM214.67 159.441C214.679 161.946 215.654 163.484 217.078 163.484C218.502 163.484 219.478 161.946 219.486 159.441C219.478 156.972 218.502 155.425 217.078 155.416C215.654 155.425 214.679 156.972 214.67 159.441ZM238.225 156.752C238.207 159.538 239.833 162.395 242.18 163.537L241.143 164.873C239.429 163.977 238.102 162.219 237.407 160.118C236.704 162.351 235.324 164.24 233.531 165.172L232.494 163.818C234.911 162.658 236.546 159.635 236.555 156.752V154.062H238.225V156.752ZM243.357 168.494V152.744H245.027V159.02H247.559V160.443H245.027V168.494H243.357ZM262.676 160.426V161.779H248.314V160.426H251.76V158.308C250.538 157.815 249.853 157.024 249.861 155.979C249.853 154.106 252.023 153.017 255.486 153.025C258.94 153.017 261.103 154.106 261.111 155.979C261.103 157.024 260.417 157.815 259.195 158.316V160.426H262.676ZM250.02 165.646C250.02 163.845 252.059 162.852 255.486 162.852C258.87 162.852 260.909 163.845 260.918 165.646C260.909 167.466 258.87 168.459 255.486 168.459C252.059 168.459 250.02 167.466 250.02 165.646ZM251.584 155.979C251.575 157.033 253.034 157.622 255.486 157.631C257.921 157.622 259.397 157.033 259.389 155.979C259.397 154.924 257.921 154.317 255.486 154.309C253.034 154.317 251.575 154.924 251.584 155.979ZM251.707 165.646C251.698 166.631 253.078 167.193 255.486 167.176C257.859 167.193 259.248 166.631 259.248 165.646C259.248 164.68 257.859 164.135 255.486 164.135C253.078 164.135 251.698 164.68 251.707 165.646ZM253.447 160.426H257.543V158.747C256.928 158.844 256.233 158.896 255.486 158.896C254.748 158.896 254.062 158.844 253.447 158.756V160.426ZM269.355 157.385C269.347 159.872 270.99 162.649 273.381 163.783L272.432 165.084C270.665 164.24 269.259 162.465 268.547 160.408C267.826 162.649 266.35 164.592 264.557 165.488L263.572 164.17C265.963 163.019 267.694 160.048 267.703 157.385V155.715H264.152V154.326H272.783V155.715H269.355V157.385ZM274.471 168.494V152.744H276.141V158.984H278.672V160.391H276.141V168.494H274.471ZM281.221 167.123C280.535 167.114 279.964 166.561 279.973 165.875C279.964 165.189 280.535 164.627 281.221 164.627C281.897 164.627 282.46 165.189 282.469 165.875C282.46 166.561 281.897 167.114 281.221 167.123ZM288.902 167V165.594L293.314 161.146C294.712 159.696 295.406 158.888 295.406 157.771C295.406 156.515 294.387 155.715 293.051 155.715C291.636 155.715 290.739 156.611 290.73 157.965H288.902C288.885 155.636 290.66 154.098 293.086 154.098C295.538 154.098 297.234 155.653 297.252 157.719C297.234 159.143 296.566 160.276 294.176 162.623L291.592 165.242V165.348H297.463V167H288.902ZM304.441 154.273V167H302.49V156.207H302.42L299.379 158.193V156.348L302.543 154.273H304.441ZM311.93 157.051C311.93 159.564 312.984 162.245 315.094 163.537L314.162 164.82C312.686 163.933 311.692 162.359 311.147 160.54C310.576 162.535 309.486 164.24 307.957 165.172L306.92 163.924C309.144 162.588 310.321 159.802 310.312 157.121V154.186H311.93V157.051ZM313.389 159.67V158.281H315.832V153.043H317.414V167.721H315.832V159.67H313.389ZM319.084 168.494V152.744H320.684V168.494H319.084ZM323.637 162.148C323.654 158.835 324.595 156.084 326.238 153.729H327.961C326.748 155.469 325.588 159.011 325.588 162.148C325.588 165.295 326.748 168.837 327.961 170.586H326.238C324.595 168.222 323.654 165.471 323.637 162.148ZM334.096 167.176C331.151 167.176 329.42 164.803 329.42 160.637C329.42 156.497 331.169 154.098 334.096 154.098C337.014 154.098 338.763 156.497 338.771 160.637C338.763 164.803 337.04 167.176 334.096 167.176ZM331.354 160.637C331.345 163.81 332.373 165.506 334.096 165.506C335.81 165.506 336.838 163.81 336.838 160.637C336.838 157.473 335.801 155.741 334.096 155.732C332.382 155.741 331.354 157.473 331.354 160.637ZM345.293 167.176C342.656 167.176 340.784 165.761 340.705 163.678H342.674C342.744 164.794 343.852 165.506 345.275 165.506C346.813 165.506 347.93 164.671 347.93 163.432C347.93 162.175 346.884 161.278 345.064 161.27H343.975V159.688H345.064C346.515 159.696 347.525 158.888 347.525 157.666C347.525 156.506 346.655 155.715 345.311 155.715C344.036 155.715 342.894 156.427 342.85 157.578H340.986C341.039 155.504 342.955 154.098 345.328 154.098C347.833 154.098 349.406 155.68 349.389 157.561C349.406 159.011 348.51 160.048 347.139 160.391V160.479C348.879 160.725 349.89 161.894 349.881 163.502C349.89 165.62 347.93 167.176 345.293 167.176ZM364.594 152.762V164.398H362.924V159.037H358.6V157.701H362.924V156.049H358.6V154.713H362.924V152.762H364.594ZM352.395 162.148V153.852H354.047V160.742C356.139 160.733 358.125 160.619 360.375 160.197L360.551 161.568C358.055 162.034 355.919 162.131 353.607 162.148H352.395ZM354.328 168.16V163.379H356.016V166.807H364.998V168.16H354.328ZM371.836 155.768C371.836 157.49 372.935 159.23 374.982 160.004L374.104 161.287C372.636 160.725 371.607 159.652 371.045 158.36C370.465 159.819 369.393 161.085 367.863 161.744L366.949 160.443C369.076 159.521 370.219 157.517 370.219 155.768V153.729H371.836V155.768ZM369.85 165.611C369.832 163.818 371.88 162.755 375.176 162.746C378.463 162.755 380.528 163.818 380.537 165.611C380.528 167.404 378.463 168.468 375.176 168.459C371.88 168.468 369.832 167.404 369.85 165.611ZM371.502 165.611C371.484 166.613 372.882 167.193 375.176 167.176C377.461 167.193 378.858 166.613 378.867 165.611C378.858 164.601 377.461 164.021 375.176 164.029C372.882 164.021 371.484 164.601 371.502 165.611ZM375.475 161.955V153.043H377.021V156.857H378.867V152.762H380.449V162.447H378.867V158.229H377.021V161.955H375.475ZM386.9 162.148C386.883 165.471 385.942 168.222 384.299 170.586H382.576C383.789 168.837 384.949 165.295 384.949 162.148C384.949 159.011 383.789 155.469 382.576 153.729H384.299C385.942 156.084 386.883 158.835 386.9 162.148ZM390.803 167.123C390.117 167.114 389.546 166.561 389.555 165.875C389.546 165.189 390.117 164.627 390.803 164.627C391.479 164.627 392.042 165.189 392.051 165.875C392.042 166.561 391.479 167.114 390.803 167.123ZM410.314 152.762V157.824H412.6V159.213H410.314V164.539H408.645V152.762H410.314ZM397.957 155.943V154.59H401.824V152.744H403.494V154.59H407.344V155.943H397.957ZM398.818 159.67C398.81 157.868 400.365 156.69 402.65 156.699C404.909 156.69 406.465 157.868 406.465 159.67C406.465 161.454 404.909 162.614 402.65 162.623C400.365 162.614 398.81 161.454 398.818 159.67ZM400.33 168.16V163.607H402V166.807H410.982V168.16H400.33ZM400.436 159.67C400.418 160.698 401.314 161.331 402.65 161.322C403.986 161.331 404.883 160.698 404.9 159.67C404.883 158.633 403.986 157.991 402.65 157.982C401.314 157.991 400.418 158.633 400.436 159.67ZM426.082 153.482V154.66C426.091 155.82 426.091 157.209 425.722 159.037H427.91V160.391H421.512V163.08H426.152V168.494H424.482V164.416H414.973V163.08H419.842V160.391H413.496V159.037H424.043C424.412 157.271 424.43 155.961 424.43 154.836H415.307V153.482H426.082ZM433.324 153.922C435.469 153.931 437.024 155.741 437.279 158.65H440.531V152.744H442.184V168.529H440.531V160.004H437.297C437.112 163.08 435.521 164.987 433.324 164.979C430.978 164.987 429.316 162.843 429.334 159.441C429.316 156.075 430.978 153.931 433.324 153.922ZM430.916 159.441C430.925 161.946 431.9 163.484 433.324 163.484C434.748 163.484 435.724 161.946 435.732 159.441C435.724 156.972 434.748 155.425 433.324 155.416C431.9 155.425 430.925 156.972 430.916 159.441ZM458.408 154.344V155.68H449.021V154.344H452.889V152.674H454.559V154.344H458.408ZM449.883 159.248C449.874 157.525 451.438 156.4 453.715 156.383C455.982 156.4 457.529 157.525 457.529 159.248C457.529 160.979 455.982 162.113 453.715 162.113C451.438 162.113 449.874 160.979 449.883 159.248ZM450.973 164.75V163.396H461.379V168.494H459.709V164.75H450.973ZM451.5 159.248C451.482 160.224 452.379 160.812 453.715 160.812C455.051 160.812 455.947 160.224 455.965 159.248C455.947 158.281 455.051 157.675 453.715 157.666C452.379 157.675 451.482 158.281 451.5 159.248ZM459.709 162.588V152.744H461.379V157.016H463.664V158.404H461.379V162.588H459.709ZM467.988 162.184V163.854H475.389V162.184H477.059V168.301H466.336V162.184H467.988ZM464.561 161.199V159.811H478.922V161.199H464.561ZM465.334 157.525C468.384 157.13 470.88 155.451 470.889 153.588V152.92H472.594V153.588C472.603 155.398 475.116 157.156 478.131 157.525L477.533 158.844C474.984 158.492 472.761 157.279 471.75 155.601C470.73 157.288 468.498 158.492 465.967 158.844L465.334 157.525ZM467.988 166.965H475.389V165.154H467.988V166.965ZM493.213 152.744V168.494H491.525V152.744H493.213ZM480.275 164.275C484.459 162.28 486.507 159.441 486.832 155.768H481.031V154.432H488.52C488.52 159.046 486.56 163.036 481.154 165.629L480.275 164.275ZM508.049 152.744V157.402H510.334V158.791H508.049V164.188H506.361V152.744H508.049ZM495.656 161.129C499.348 160.021 501.633 157.921 501.958 155.328H496.324V153.939H503.777C503.777 158.07 500.965 161.067 496.359 162.465L495.656 161.129ZM498.047 168.16V163.01H499.734V166.807H508.699V168.16H498.047ZM520.775 167.176C518.42 167.158 515.959 165.761 515.959 161.059C515.968 156.629 517.884 154.098 520.934 154.098C523.28 154.098 524.906 155.557 525.205 157.578H523.289C523.034 156.541 522.217 155.794 520.934 155.785C518.965 155.794 517.822 157.499 517.822 160.373H517.963C518.657 159.292 519.853 158.659 521.232 158.65C523.5 158.659 525.328 160.399 525.328 162.834C525.328 165.304 523.509 167.193 520.775 167.176ZM518.051 162.887C518.06 164.302 519.193 165.55 520.758 165.559C522.296 165.55 523.447 164.354 523.447 162.869C523.447 161.41 522.34 160.224 520.811 160.232C519.255 160.224 518.068 161.472 518.051 162.887ZM539.971 152.762V164.398H538.301V159.037H533.977V157.701H538.301V156.049H533.977V154.713H538.301V152.762H539.971ZM527.771 162.148V153.852H529.424V160.742C531.516 160.733 533.502 160.619 535.752 160.197L535.928 161.568C533.432 162.034 531.296 162.131 528.984 162.148H527.771ZM529.705 168.16V163.379H531.393V166.807H540.375V168.16H529.705Z" fill="#9F9F9F"/>
<defs>
<linearGradient id="paint0_linear_815_5893" x1="0" y1="115.5" x2="986" y2="115.5" gradientUnits="userSpaceOnUse">
<stop stop-color="#FF577C"/>
<stop offset="1" stop-color="#66B8FB"/>
</linearGradient>
</defs>
</svg>
