<svg width="1160" height="259" viewBox="0 0 1160 259" fill="none" xmlns="http://www.w3.org/2000/svg">
<path d="M1.5 129.5C1.5 58.8076 58.8076 1.5 129.5 1.5H1010C1092.01 1.5 1158.5 67.9857 1158.5 150V254C1158.5 255.933 1156.93 257.5 1155 257.5H129.5C58.8076 257.5 1.5 200.192 1.5 129.5Z" stroke="url(#paint0_linear_815_5896)" stroke-width="3"/>
<path d="M120.312 66.4082V89.1582H118.002V77.3516H115.184V88.0664H112.924V67.0176H115.184V75.3965H118.002V66.4082H120.312ZM100.762 82.6582C105.814 79.7891 107.935 75.917 108.315 71.2832H101.727V69.3027H110.664C110.651 75.2822 108.671 80.665 102.158 84.334L100.762 82.6582ZM142.174 66.4336V82.9629H139.762V66.4336H142.174ZM123.766 73.5938C123.778 70.3057 126.394 67.9697 129.834 67.957C133.262 67.9697 135.877 70.3057 135.877 73.5938C135.877 76.9326 133.262 79.2559 129.834 79.2559C126.394 79.2559 123.778 76.9326 123.766 73.5938ZM126.127 73.5938C126.114 75.7393 127.714 77.1484 129.834 77.1484C131.916 77.1484 133.516 75.7393 133.516 73.5938C133.516 71.499 131.916 70.0645 129.834 70.0645C127.714 70.0645 126.114 71.499 126.127 73.5938ZM127.295 88.6758V81.2871H129.732V86.7207H142.859V88.6758H127.295ZM153.93 70.4453C153.917 73.3145 155.974 76.1201 159.414 77.3008L158.17 79.1797C155.618 78.3037 153.727 76.4756 152.736 74.2285C151.746 76.7295 149.753 78.7354 147.049 79.6875L145.805 77.7832C149.296 76.5898 151.479 73.5557 151.467 70.4707V69.8359H146.541V67.8809H158.805V69.8359H153.93V70.4453ZM149.334 83.1152V81.1602H164.746V89.1582H162.334V83.1152H149.334ZM158.119 74.1777V72.1973H162.334V66.4082H164.746V80.0176H162.334V74.1777H158.119ZM178.609 67.7793C183.383 67.7793 187.014 70.3057 187.014 74.127C187.014 77.9736 183.383 80.4873 178.609 80.4746C173.849 80.4873 170.218 77.9736 170.23 74.127C170.218 70.3057 173.849 67.7793 178.609 67.7793ZM168.25 86.2129V84.207H189.07V86.2129H168.25ZM172.541 74.127C172.528 76.7803 175.118 78.4941 178.609 78.4941C182.088 78.4941 184.665 76.7803 184.678 74.127C184.665 71.4863 182.088 69.7217 178.609 69.7344C175.118 69.7217 172.528 71.4863 172.541 74.127ZM211.541 84.4102V86.4414H190.721V84.4102H199.887V80.4238H193.26V73.1875H206.615V69.9883H193.209V68.0078H209.002V75.1172H195.646V78.4434H209.535V80.4238H202.273V84.4102H211.541ZM229.898 66.8906C234.888 66.8779 238.011 68.5029 238.023 71.2578C238.011 73.9619 234.888 75.5615 229.898 75.5488C224.922 75.5615 221.761 73.9619 221.773 71.2578C221.761 68.5029 224.922 66.8779 229.898 66.8906ZM219.539 79.2559V77.3008H240.283V79.2559H219.539ZM222.027 88.8789V81.2871H237.744V88.8789H222.027ZM224.262 71.2578C224.249 72.7686 226.395 73.6572 229.898 73.6699C233.377 73.6572 235.548 72.7686 235.535 71.2578C235.548 69.6836 233.377 68.7822 229.898 68.7949C226.395 68.7822 224.249 69.6836 224.262 71.2578ZM224.414 86.9238H235.408V83.2168H224.414V86.9238ZM248.408 67.7285C251.899 67.7285 254.451 69.9756 254.477 73.1621C254.451 76.374 251.899 78.5957 248.408 78.5957C244.93 78.5957 242.34 76.374 242.365 73.1621C242.34 69.9756 244.93 67.7285 248.408 67.7285ZM244.727 73.1621C244.701 75.2061 246.275 76.5645 248.408 76.5391C250.541 76.5645 252.103 75.2061 252.115 73.1621C252.103 71.1309 250.541 69.7979 248.408 69.7852C246.275 69.7979 244.701 71.1309 244.727 73.1621ZM244.854 82.8359V80.8809H259.885V89.1836H257.473V82.8359H244.854ZM257.473 79.7637V66.4082H259.885V72.1211H263.186V74.1016H259.885V79.7637H257.473ZM268.568 85.248L266.537 92.2559H264.379L265.725 85.248H268.568ZM295.914 77.1992V79.1797H280.07V68.4395H295.711V70.4199H282.457V77.1992H295.914ZM277.48 86.1621V84.1562H298.301V86.1621H277.48ZM317.674 66.4082V75.2949H321.33V77.3262H317.674V89.209H315.287V66.4082H317.674ZM300.84 70.4199V68.4648H311.25V76.8184H303.277V81.7441C307.175 81.7314 310.082 81.5918 313.408 80.9824L313.637 82.9375C310.082 83.5977 307.01 83.75 302.744 83.7754H300.891V74.8633H308.863V70.4199H300.84ZM333.924 68.668V83.4453H323.285V68.668H333.924ZM325.646 81.4902H331.537V70.5723H325.646V81.4902ZM337.732 89.1582V66.4082H340.145V75.3203H343.801V77.3516H340.145V89.1582H337.732ZM348.98 85.248L346.949 92.2559H344.791L346.137 85.248H348.98ZM377.469 66.4082V89.1582H375.158V77.4277H372.467V87.9902H370.182V66.8652H372.467V75.4473H375.158V66.4082H377.469ZM357.639 81.6426C358.312 81.6426 359.086 81.6426 359.924 81.6299V71.1562H358.121V69.1758H368.684V71.1562H366.881V81.3506C367.643 81.2744 368.379 81.1982 369.064 81.1094L369.191 82.8867C365.611 83.5723 360.851 83.6738 357.918 83.6738L357.639 81.6426ZM362.133 81.5918C362.971 81.5664 363.821 81.541 364.672 81.4902V71.1562H362.133V81.5918ZM388.387 70.5215C388.399 73.7969 390.431 76.9326 393.82 78.2402L392.5 80.1191C390.024 79.1162 388.184 77.123 387.219 74.6602C386.241 77.3135 384.312 79.4209 381.658 80.4746L380.363 78.5449C383.867 77.25 385.987 74.0127 386 70.5215V67.7031H388.387V70.5215ZM384.477 88.6758V81.668H386.914V86.7207H399.838V88.6758H384.477ZM392.5 76.209V74.2539H396.918V71.6133H392.5V69.6582H396.918V66.4336H399.33V83.3691H396.918V76.209H392.5ZM415.504 68.8457V70.2422C415.491 72.1592 415.491 75.0918 414.844 79.1543L412.457 78.9766C413.041 75.3457 413.104 72.6924 413.117 70.8008H403.875V68.8457H415.504ZM402.605 82.3027C404.027 82.29 405.614 82.2773 407.277 82.2393V75.3457H409.664V82.1631C412.076 82.0615 414.552 81.9092 416.824 81.6172L416.951 83.4199C412.216 84.1816 406.922 84.2832 402.885 84.2578L402.605 82.3027ZM418.119 89.1582V66.4082H420.557V75.8027H424.035V77.8594H420.557V89.1582H418.119ZM449.527 66.4082V71.5371H452.828V73.4922H449.527V78.4941H447.115V66.4082H449.527ZM431.678 76.9707C437.403 75.8154 440.387 73.1367 440.717 69.9121H432.693V67.9824H443.383C443.383 73.7842 439.46 77.4785 432.693 78.9258L431.678 76.9707ZM434.928 88.8789V79.459H449.629V81.2871H437.34V83.2422H449.375V84.9941H437.34V87.0508H450.137V88.8789H434.928ZM474.867 78.291V80.2207H454.123V78.291H474.867ZM456.357 71.7148C456.345 68.8584 459.531 67.1572 464.482 67.1699C469.408 67.1572 472.595 68.8584 472.607 71.7148C472.595 74.584 469.408 76.3232 464.482 76.3359C459.531 76.3232 456.345 74.584 456.357 71.7148ZM456.738 88.6758V82.0742H459.176V86.7207H472.531V88.6758H456.738ZM458.846 71.7148C458.833 73.4033 460.991 74.3555 464.482 74.3555C467.961 74.3555 470.132 73.4033 470.119 71.7148C470.132 70.0898 467.961 69.0996 464.482 69.0996C460.991 69.0996 458.833 70.0898 458.846 71.7148ZM502.467 66.4082V89.1582H500.156V66.4082H502.467ZM482.611 82.8867C485.836 80.9443 487.474 76.8057 487.486 72.7559V70.9277H483.297V68.9727H493.707V70.9277H489.797V72.7559C489.797 76.6406 491.371 80.5381 494.57 82.3789L493.123 84.1562C490.952 82.8613 489.467 80.5381 488.667 77.7959C487.854 80.7666 486.306 83.3057 484.084 84.6895L482.611 82.8867ZM492.031 76.4375V74.457H495.561V66.8906H497.846V88.0156H495.561V76.4375H492.031ZM520.545 70.8008C520.532 72.9463 522.576 74.8252 525.902 75.5234L524.912 77.4023C522.297 76.8057 520.367 75.498 519.364 73.7715C518.387 75.6504 516.432 77.085 513.74 77.707L512.725 75.8281C516.089 75.1045 518.12 73.0732 518.133 70.8008H513.232V68.8965H518.133V66.459H520.545V68.8965H525.42V70.8008H520.545ZM511.734 79.1035C516.051 79.1035 521.764 79.0654 526.715 78.4434L526.893 80.1953C524.811 80.5381 522.665 80.7539 520.57 80.8809V88.4727H518.158V81.0078C515.975 81.0967 513.893 81.1094 512.064 81.1094L511.734 79.1035ZM528.289 89.1582V66.4336H530.676V89.1582H528.289ZM555.33 70.166V72.1465H552.105V75.0156H555.33V76.9961H552.105V81.0078H549.693V66.4082H552.105V70.166H555.33ZM534.256 70.75V68.8457H539.842V66.2305H542.254V68.8457H547.814V70.75H534.256ZM535.5 75.8535C535.487 73.4033 537.722 71.8037 541.035 71.791C544.311 71.8037 546.545 73.4033 546.545 75.8535C546.545 78.291 544.311 79.8779 541.035 79.8652C537.722 79.8779 535.487 78.291 535.5 75.8535ZM537.303 85.1719C537.277 82.6582 540.146 81.1855 544.844 81.1855C549.478 81.1855 552.359 82.6582 552.359 85.1719C552.359 87.6475 549.478 89.1201 544.844 89.1074C540.146 89.1201 537.277 87.6475 537.303 85.1719ZM537.836 75.8535C537.811 77.1992 539.105 78.0371 541.035 78.0371C542.965 78.0371 544.26 77.1992 544.285 75.8535C544.26 74.4697 542.965 73.5938 541.035 73.5938C539.105 73.5938 537.811 74.4697 537.836 75.8535ZM539.689 85.1719C539.677 86.5049 541.568 87.2793 544.844 87.2793C548.068 87.2793 549.96 86.5049 549.973 85.1719C549.96 83.7881 548.068 83.0518 544.844 83.0391C541.568 83.0518 539.677 83.7881 539.689 85.1719ZM575.541 66.4082V89.209H573.129V66.4082H575.541ZM557.488 76.082C557.488 71.2197 559.938 68.1221 563.379 68.1094C566.756 68.1221 569.244 71.2197 569.244 76.082C569.244 80.9951 566.756 84.0928 563.379 84.0801C559.938 84.0928 557.488 80.9951 557.488 76.082ZM559.824 76.082C559.812 79.7002 561.259 81.9219 563.379 81.9219C565.461 81.9219 566.908 79.7002 566.908 76.082C566.908 72.5146 565.461 70.2803 563.379 70.2676C561.259 70.2803 559.812 72.5146 559.824 76.082ZM603.395 66.4336V73.7461H606.695V75.752H603.395V83.4453H600.982V66.4336H603.395ZM585.545 71.0293V69.0742H591.131V66.4082H593.543V69.0742H599.104V71.0293H585.545ZM586.789 76.4121C586.776 73.8096 589.023 72.1084 592.324 72.1211C595.587 72.1084 597.834 73.8096 597.834 76.4121C597.834 78.9893 595.587 80.665 592.324 80.6777C589.023 80.665 586.776 78.9893 586.789 76.4121ZM588.973 88.6758V82.0996H591.385V86.7207H604.359V88.6758H588.973ZM589.125 76.4121C589.1 77.8975 590.395 78.8115 592.324 78.7988C594.254 78.8115 595.549 77.8975 595.574 76.4121C595.549 74.9141 594.254 73.9873 592.324 73.9746C590.395 73.9873 589.1 74.9141 589.125 76.4121ZM626.17 67.4746V69.1758C626.183 70.8516 626.183 72.8574 625.649 75.498H628.811V77.4531H619.568V81.3379H626.271V89.1582H623.859V83.2676H610.123V81.3379H617.156V77.4531H607.99V75.498H623.225C623.758 72.9463 623.783 71.0547 623.783 69.4297H610.605V67.4746H626.17ZM636.631 68.1094C639.729 68.1221 641.976 70.7373 642.344 74.9395H647.041V66.4082H649.428V89.209H647.041V76.8945H642.369C642.103 81.3379 639.805 84.0928 636.631 84.0801C633.241 84.0928 630.842 80.9951 630.867 76.082C630.842 71.2197 633.241 68.1221 636.631 68.1094ZM633.152 76.082C633.165 79.7002 634.574 81.9219 636.631 81.9219C638.688 81.9219 640.097 79.7002 640.109 76.082C640.097 72.5146 638.688 70.2803 636.631 70.2676C634.574 70.2803 633.165 72.5146 633.152 76.082ZM672.508 66.4082V89.1582H670.197V66.4082H672.508ZM653.186 76.2344C653.186 71.3086 655.115 68.2236 658.086 68.2363C660.854 68.2236 662.72 70.8516 662.999 75.1172H665.576V66.8398H667.887V88.041H665.576V77.0723H663.012C662.796 81.5156 660.904 84.2705 658.086 84.2578C655.115 84.2705 653.186 81.1729 653.186 76.2344ZM655.42 76.2344C655.42 79.8525 656.448 81.9854 658.086 81.9727C659.762 81.9854 660.803 79.8525 660.803 76.2344C660.803 72.6035 659.762 70.4834 658.086 70.4961C656.448 70.4834 655.42 72.6035 655.42 76.2344ZM693.303 68.5156V70.5215H685.305V81.6172C689.126 81.5918 691.729 81.4521 694.725 80.8809L695.004 82.8613C691.729 83.4834 688.961 83.623 684.67 83.623H682.867V68.5156H693.303ZM692.008 76.5391V74.5332H698.33V66.4082H700.742V89.209H698.33V76.5391H692.008ZM728.443 66.4082V71.4102H731.744V73.416H728.443V77.9609H726.031V66.4082H728.443ZM711.457 77.2246V67.8809H722.096V77.2246H711.457ZM712.854 88.5488V79.9414H715.215V86.5684C716.548 86.5049 718.084 86.3145 719.531 85.832L719.887 87.7363C717.767 88.46 715.723 88.5488 714.021 88.5488H712.854ZM713.818 75.2949H719.734V69.8105H713.818V75.2949ZM719.1 81.9727V80.1953H723.695V78.291H726.057V80.1953H730.576V81.9727H719.1ZM720.547 85.9082C720.521 83.9404 722.273 82.7344 724.838 82.709C727.352 82.7344 729.129 83.9404 729.129 85.9082C729.129 87.876 727.352 89.1074 724.838 89.1074C722.273 89.1074 720.521 87.876 720.547 85.9082ZM722.68 85.9082C722.68 86.873 723.581 87.457 724.838 87.457C726.069 87.457 726.958 86.873 726.971 85.9082C726.958 84.9688 726.069 84.4102 724.838 84.3848C723.581 84.4102 722.68 84.9688 722.68 85.9082ZM751.879 66.4082V89.209H749.467V66.4082H751.879ZM733.826 76.082C733.826 71.2197 736.276 68.1221 739.717 68.1094C743.094 68.1221 745.582 71.2197 745.582 76.082C745.582 80.9951 743.094 84.0928 739.717 84.0801C736.276 84.0928 733.826 80.9951 733.826 76.082ZM736.162 76.082C736.149 79.7002 737.597 81.9219 739.717 81.9219C741.799 81.9219 743.246 79.7002 743.246 76.082C743.246 72.5146 741.799 70.2803 739.717 70.2676C737.597 70.2803 736.149 72.5146 736.162 76.082ZM780.316 76.5645V78.5449H773.436V84.334H782.678V86.3145H761.857V84.334H771.023V78.5449H764.346V68.2871H766.783V76.5645H780.316ZM805.047 76.3867V78.1895H795.881V80.0938H802.457V85.2227H789.203V87.1016H803.092V88.9297H786.842V83.5469H800.07V81.8457H786.816V80.0938H793.494V78.1895H784.354V76.3867H805.047ZM785.369 73.6699C789.724 73.4287 792.796 72.0957 793.291 70.166H786.41V68.3125H793.494V66.3066H795.881V68.3125H802.99V70.166H796.071C796.554 72.0957 799.626 73.4287 804.031 73.6699L803.295 75.498C799.334 75.2061 796.109 74.0508 794.688 72.0576C793.266 74.0508 790.041 75.2061 786.055 75.498L785.369 73.6699ZM820.053 72.1719V74.0508H815.66V76.082C817.717 75.9805 819.761 75.8408 821.678 75.625L821.779 77.2754C816.942 78.0117 811.56 78.1514 807.23 78.1387L806.926 76.2598C808.881 76.2598 811.026 76.2344 813.223 76.1709V74.0508H808.982V67.373H819.799V69.2012H811.471V72.1719H820.053ZM810.455 81.4395V79.5352H825.715V85.0449H812.867V87H826.426V88.9297H810.506V83.2422H823.328V81.4395H810.455ZM823.328 78.5703V66.4336H825.715V78.5703H823.328ZM847.271 68.4141C847.259 71.4355 850.953 74.2666 855.422 74.8633L854.482 76.8438C850.763 76.2471 847.5 74.3174 846.015 71.6387C844.529 74.3174 841.267 76.2471 837.572 76.8438L836.607 74.8633C841.063 74.2666 844.745 71.4736 844.758 68.4141V67.1699H847.271V68.4141ZM835.617 81.0586V79.0781H856.361V81.0586H847.119V89.1582H844.758V81.0586H835.617ZM872.332 81.4395C872.332 83.3945 873.297 85.4639 875.366 86.6953C877.448 85.3623 878.477 83.1914 878.477 81.4395V80.3477H880.838V81.4395C880.825 83.8008 882.387 86.0859 885.357 87.0508L884.164 88.8281C881.917 88.0537 880.381 86.5303 879.594 84.6768C878.87 86.5049 877.512 88.168 875.43 89.0312C873.246 88.2061 871.862 86.5938 871.164 84.7402C870.339 86.5303 868.841 88.041 866.695 88.8281L865.477 87.0508C868.396 86.0098 869.983 83.6357 869.996 81.4395V80.3477H872.332V81.4395ZM864.893 73.0605C864.905 69.874 867.47 67.6904 870.961 67.6777C874.439 67.6904 877.004 69.874 877.004 73.0605C877.004 76.209 874.439 78.3926 870.961 78.3926C867.47 78.3926 864.905 76.209 864.893 73.0605ZM867.254 73.0605C867.241 75.041 868.803 76.3867 870.961 76.3867C873.094 76.3867 874.643 75.041 874.643 73.0605C874.643 71.0674 873.094 69.7217 870.961 69.7344C868.803 69.7217 867.241 71.0674 867.254 73.0605ZM880.889 79.3828V66.4336H883.301V79.3828H880.889ZM906.457 66.4082V89.1582H904.172V66.4082H906.457ZM886.83 82.582C891.654 79.7129 893.965 75.8916 894.384 71.207H887.896V69.2266H896.783C896.771 71.4482 896.466 73.5684 895.768 75.5488H899.373V66.9922H901.658V88.041H899.373V77.4785H894.93C893.584 80.1191 891.413 82.4297 888.201 84.3086L886.83 82.582ZM926.973 70.166V72.1211H915.674V70.166H920.143V67.0684H922.529V70.166H926.973ZM916.41 78.7227C916.397 75.6631 918.479 73.4922 921.336 73.4922C924.218 73.4922 926.274 75.6631 926.287 78.7227C926.274 81.833 924.218 84.0166 921.336 84.0039C918.479 84.0166 916.397 81.833 916.41 78.7227ZM918.543 78.7227C918.53 80.6523 919.698 81.9473 921.336 81.9473C922.974 81.9473 924.154 80.6523 924.154 78.7227C924.154 76.8311 922.974 75.5107 921.336 75.498C919.698 75.5107 918.53 76.8311 918.543 78.7227ZM928.014 88.0918V66.916H930.299V75.8789H932.914V66.4082H935.199V89.1582H932.914V77.8594H930.299V88.0918H928.014ZM958.939 79.2305V81.1855H949.697V89.1328H947.336V81.1855H938.195V79.2305H958.939ZM939.363 75.5996C943.604 75.0156 947.133 72.4893 947.209 69.6836H940.125V67.7539H956.984V69.6836H949.951C949.989 72.4893 953.493 75.0156 957.797 75.5996L956.908 77.5039C953.176 76.9199 949.951 75.0791 948.567 72.4893C947.171 75.0791 943.959 76.9199 940.277 77.5039L939.363 75.5996ZM968.74 81.4141C968.74 83.3818 969.718 85.4512 971.774 86.708C973.856 85.3496 974.847 83.1406 974.859 81.4141V80.1953H977.221V81.4141C977.221 83.7627 978.77 86.0986 981.791 87.0508L980.547 88.8535C978.312 88.0537 976.789 86.5303 976.002 84.6514C975.278 86.4795 973.92 88.1807 971.812 89.0566C969.654 88.2314 968.271 86.6191 967.56 84.7529C966.747 86.543 965.236 88.0537 963.104 88.8535L961.936 87.0508C964.843 86.0352 966.404 83.623 966.43 81.4141V80.1953H968.74V81.4141ZM961.021 73.0352C961.009 69.8867 963.535 67.6523 966.963 67.6523C969.908 67.6523 972.244 69.3916 972.765 71.9688H977.221V66.4082H979.633V79.3066H977.221V73.9492H972.803C972.333 76.5898 969.972 78.3926 966.963 78.3926C963.535 78.3926 961.009 76.1709 961.021 73.0352ZM963.332 73.0352C963.319 75.0029 964.855 76.3867 966.963 76.3867C969.02 76.3867 970.556 75.0029 970.568 73.0352C970.556 71.0293 969.02 69.6709 966.963 69.6836C964.855 69.6709 963.319 71.0293 963.332 73.0352ZM989.307 68.1094C992.404 68.1221 994.651 70.7373 995.02 74.9395H999.717V66.4082H1002.1V89.209H999.717V76.8945H995.045C994.778 81.3379 992.48 84.0928 989.307 84.0801C985.917 84.0928 983.518 80.9951 983.543 76.082C983.518 71.2197 985.917 68.1221 989.307 68.1094ZM985.828 76.082C985.841 79.7002 987.25 81.9219 989.307 81.9219C991.363 81.9219 992.772 79.7002 992.785 76.082C992.772 72.5146 991.363 70.2803 989.307 70.2676C987.25 70.2803 985.841 72.5146 985.828 76.082ZM1026.43 84.3086V86.3145H1005.61V84.3086H1010.58V78.3672C1008.72 77.3389 1007.58 75.7139 1007.59 73.6699C1007.58 70.0898 1011.09 67.7412 1015.97 67.7285C1020.85 67.7412 1024.37 70.0898 1024.37 73.6699C1024.37 75.6758 1023.28 77.2881 1021.45 78.3164V84.3086H1026.43ZM1009.92 73.6699C1009.92 76.1074 1012.4 77.6943 1015.97 77.707C1019.51 77.6943 1022.02 76.1074 1022.04 73.6699C1022.02 71.2197 1019.51 69.6582 1015.97 69.6582C1012.4 69.6582 1009.92 71.2197 1009.92 73.6699ZM1012.97 84.3086H1019.01V79.2559C1018.09 79.4717 1017.06 79.5859 1015.97 79.5859C1014.9 79.5859 1013.88 79.4717 1012.97 79.2559V84.3086ZM1030.67 87.1777C1029.68 87.165 1028.85 86.3652 1028.87 85.375C1028.85 84.3848 1029.68 83.5723 1030.67 83.5723C1031.65 83.5723 1032.46 84.3848 1032.47 85.375C1032.46 86.3652 1031.65 87.165 1030.67 87.1777ZM119.678 102.408V125.209H117.266V102.408H119.678ZM101.625 112.082C101.625 107.22 104.075 104.122 107.516 104.109C110.893 104.122 113.381 107.22 113.381 112.082C113.381 116.995 110.893 120.093 107.516 120.08C104.075 120.093 101.625 116.995 101.625 112.082ZM103.961 112.082C103.948 115.7 105.396 117.922 107.516 117.922C109.598 117.922 111.045 115.7 111.045 112.082C111.045 108.515 109.598 106.28 107.516 106.268C105.396 106.28 103.948 108.515 103.961 112.082ZM141.311 103.957V105.938H133.287V113.123C137.375 113.098 139.774 112.971 142.504 112.412L142.732 114.342C139.787 114.989 137.248 115.091 132.627 115.078H130.9V103.957H141.311ZM133.211 119.09V117.16H148.623V125.158H146.211V119.09H133.211ZM140.041 110.178V108.223H146.211V102.408H148.623V116.043H146.211V110.178H140.041ZM172.922 114.316V116.246H163.883V120.436H161.496V116.246H152.102V114.316H172.922ZM154.691 124.676V118.455H157.078V122.721H170.611V124.676H154.691ZM154.844 112.311V103.119H157.23V105.887H167.768V103.119H170.18V112.311H154.844ZM157.23 110.381H167.768V107.689H157.23V110.381ZM194.174 102.408V125.158H191.863V102.408H194.174ZM174.852 112.234C174.852 107.309 176.781 104.224 179.752 104.236C182.52 104.224 184.386 106.852 184.665 111.117H187.242V102.84H189.553V124.041H187.242V113.072H184.678C184.462 117.516 182.57 120.271 179.752 120.258C176.781 120.271 174.852 117.173 174.852 112.234ZM177.086 112.234C177.086 115.853 178.114 117.985 179.752 117.973C181.428 117.985 182.469 115.853 182.469 112.234C182.469 108.604 181.428 106.483 179.752 106.496C178.114 106.483 177.086 108.604 177.086 112.234ZM221.291 102.434V109.746H224.592V111.752H221.291V119.445H218.879V102.434H221.291ZM203.441 107.029V105.074H209.027V102.408H211.439V105.074H217V107.029H203.441ZM204.686 112.412C204.673 109.81 206.92 108.108 210.221 108.121C213.483 108.108 215.73 109.81 215.73 112.412C215.73 114.989 213.483 116.665 210.221 116.678C206.92 116.665 204.673 114.989 204.686 112.412ZM206.869 124.676V118.1H209.281V122.721H222.256V124.676H206.869ZM207.021 112.412C206.996 113.897 208.291 114.812 210.221 114.799C212.15 114.812 213.445 113.897 213.471 112.412C213.445 110.914 212.15 109.987 210.221 109.975C208.291 109.987 206.996 110.914 207.021 112.412ZM244.066 103.475V105.176C244.079 106.852 244.079 108.857 243.546 111.498H246.707V113.453H237.465V117.338H244.168V125.158H241.756V119.268H228.02V117.338H235.053V113.453H225.887V111.498H241.121C241.654 108.946 241.68 107.055 241.68 105.43H228.502V103.475H244.066ZM275.5 113.91V115.865H266.461V120.283H264.074V115.865H254.68V113.91H275.5ZM257.27 124.676V118.125H259.682V122.721H273.189V124.676H257.27ZM257.346 111.549V103.475H272.809V111.549H257.346ZM259.707 109.645H270.422V105.379H259.707V109.645ZM295 102.408V111.93H298.428V113.961H295V125.158H292.588V102.408H295ZM276.896 118.963C278.687 118.963 280.769 118.963 282.939 118.899V116.589C280.375 116.208 278.699 114.659 278.725 112.463C278.699 109.898 280.921 108.21 284.158 108.197C287.383 108.21 289.63 109.898 289.643 112.463C289.63 114.659 287.929 116.221 285.352 116.589V118.811C287.37 118.709 289.401 118.544 291.293 118.277L291.445 120.055C286.52 120.931 281.2 120.981 277.277 120.969L276.896 118.963ZM277.328 107.029V105.1H282.939V102.459H285.352V105.1H290.963V107.029H277.328ZM280.984 112.463C280.984 113.91 282.254 114.812 284.158 114.799C286.062 114.812 287.319 113.91 287.332 112.463C287.319 111.003 286.062 110.076 284.158 110.076C282.254 110.076 280.984 111.003 280.984 112.463ZM319.223 102.408V125.158H316.912V102.408H319.223ZM299.9 112.234C299.9 107.309 301.83 104.224 304.801 104.236C307.568 104.224 309.435 106.852 309.714 111.117H312.291V102.84H314.602V124.041H312.291V113.072H309.727C309.511 117.516 307.619 120.271 304.801 120.258C301.83 120.271 299.9 117.173 299.9 112.234ZM302.135 112.234C302.135 115.853 303.163 117.985 304.801 117.973C306.477 117.985 307.518 115.853 307.518 112.234C307.518 108.604 306.477 106.483 304.801 106.496C303.163 106.483 302.135 108.604 302.135 112.234ZM347.99 102.408V125.158H345.68V113.402H342.734V123.99H340.525V102.865H342.734V111.422H345.68V102.408H347.99ZM329.227 119.699V105.15H337.758V107.105H331.639V117.643C334.432 117.63 336.539 117.503 338.977 117.033L339.154 119.014C336.425 119.585 334.063 119.674 330.75 119.699H329.227ZM368.811 102.434V109.746H372.111V111.752H368.811V119.445H366.398V102.434H368.811ZM350.961 107.029V105.074H356.547V102.408H358.959V105.074H364.52V107.029H350.961ZM352.205 112.412C352.192 109.81 354.439 108.108 357.74 108.121C361.003 108.108 363.25 109.81 363.25 112.412C363.25 114.989 361.003 116.665 357.74 116.678C354.439 116.665 352.192 114.989 352.205 112.412ZM354.389 124.676V118.1H356.801V122.721H369.775V124.676H354.389ZM354.541 112.412C354.516 113.897 355.811 114.812 357.74 114.799C359.67 114.812 360.965 113.897 360.99 112.412C360.965 110.914 359.67 109.987 357.74 109.975C355.811 109.987 354.516 110.914 354.541 112.412ZM399.457 105.607V107.562H380.744V105.607H388.92V102.738H391.307V105.607H399.457ZM379.754 122.594V120.639H388.92V117.63C384.934 117.376 382.509 115.802 382.521 113.275C382.509 110.533 385.416 108.921 390.113 108.934C394.747 108.921 397.692 110.533 397.68 113.275C397.692 115.802 395.242 117.376 391.307 117.63V120.639H400.574V122.594H379.754ZM384.984 113.275C384.959 114.862 386.863 115.726 390.113 115.738C393.312 115.726 395.229 114.862 395.217 113.275C395.229 111.701 393.312 110.838 390.113 110.838C386.863 110.838 384.959 111.701 384.984 113.275ZM421.141 102.408V125.158H418.703V102.408H421.141ZM402.453 119.064C408.496 116.183 411.454 112.082 411.924 106.775H403.545V104.846H414.361C414.361 111.511 411.53 117.274 403.723 121.02L402.453 119.064ZM443.561 102.434V115.307H441.148V102.434H443.561ZM424.797 112.895C428.352 111.701 430.497 108.68 430.51 105.506V103.297H432.973V105.506C432.96 108.578 435.156 111.346 438.609 112.514L437.416 114.367C434.775 113.491 432.782 111.701 431.754 109.365C430.738 111.866 428.72 113.847 425.99 114.799L424.797 112.895ZM428.605 124.879V116.525H443.561V124.879H428.605ZM430.992 122.924H441.199V118.455H430.992V122.924ZM466.006 102.408V125.209H463.594V102.408H466.006ZM447.953 112.082C447.953 107.22 450.403 104.122 453.844 104.109C457.221 104.122 459.709 107.22 459.709 112.082C459.709 116.995 457.221 120.093 453.844 120.08C450.403 120.093 447.953 116.995 447.953 112.082ZM450.289 112.082C450.276 115.7 451.724 117.922 453.844 117.922C455.926 117.922 457.373 115.7 457.373 112.082C457.373 108.515 455.926 106.28 453.844 106.268C451.724 106.28 450.276 108.515 450.289 112.082ZM482.941 106.775C482.941 109.264 484.528 111.777 487.486 112.895L486.217 114.748C484.097 113.936 482.611 112.387 481.799 110.521C480.961 112.628 479.412 114.456 477.203 115.408L475.883 113.529C478.955 112.196 480.605 109.302 480.605 106.775V103.83H482.941V106.775ZM480.072 120.994C480.047 118.404 483.005 116.868 487.766 116.855C492.514 116.868 495.497 118.404 495.51 120.994C495.497 123.584 492.514 125.12 487.766 125.107C483.005 125.12 480.047 123.584 480.072 120.994ZM482.459 120.994C482.434 122.441 484.452 123.279 487.766 123.254C491.066 123.279 493.085 122.441 493.098 120.994C493.085 119.534 491.066 118.696 487.766 118.709C484.452 118.696 482.434 119.534 482.459 120.994ZM488.197 115.713V102.84H490.432V108.35H493.098V102.434H495.383V116.424H493.098V110.33H490.432V115.713H488.197ZM510.312 103.83C510.312 104.592 510.236 105.328 510.097 106.039H515.01V102.434H517.422V115.307H515.01V112.742H509.271V110.736H515.01V107.994H509.513C508.04 111.625 504.574 114.228 499.648 115.586L498.709 113.707C503.978 112.26 507.24 109.403 507.735 105.811H499.953V103.83H510.312ZM499.572 123.102C502.492 122.099 504.066 119.661 504.092 117.465V115.967H506.428V117.465C506.415 119.445 507.38 121.515 509.449 122.784C511.531 121.413 512.547 119.217 512.572 117.465V115.967H514.883V117.465C514.87 119.839 516.457 122.149 519.428 123.102L518.209 124.904C515.987 124.117 514.464 122.594 513.689 120.728C512.966 122.556 511.595 124.244 509.475 125.107C507.291 124.282 505.933 122.67 505.234 120.791C504.422 122.594 502.937 124.104 500.816 124.904L499.572 123.102ZM539.334 104.592V106.826C539.321 109.632 539.321 112.78 538.471 117.439L536.033 117.186C536.909 112.78 536.909 109.556 536.922 106.826V106.547H523.109V104.592H539.334ZM520.926 122.086V120.08H528.822V112.057H531.209V120.08H541.67V122.086H520.926ZM547.484 121.248L545.453 128.256H543.295L544.641 121.248H547.484ZM569.98 104.719V106.648H556.422V104.719H562.008V102.307H564.42V104.719H569.98ZM557.666 111.803C557.653 109.314 559.913 107.689 563.201 107.664C566.477 107.689 568.711 109.314 568.711 111.803C568.711 114.304 566.477 115.941 563.201 115.941C559.913 115.941 557.653 114.304 557.666 111.803ZM559.24 119.75V117.795H574.271V125.158H571.859V119.75H559.24ZM560.002 111.803C559.977 113.212 561.271 114.062 563.201 114.062C565.131 114.062 566.426 113.212 566.451 111.803C566.426 110.406 565.131 109.53 563.201 109.518C561.271 109.53 559.977 110.406 560.002 111.803ZM571.859 116.627V102.408H574.271V108.578H577.572V110.584H574.271V116.627H571.859ZM583.818 116.043V118.455H594.508V116.043H596.92V124.879H581.432V116.043H583.818ZM578.867 114.621V112.615H599.611V114.621H578.867ZM579.984 109.314C584.39 108.743 587.995 106.318 588.008 103.627V102.662H590.471V103.627C590.483 106.242 594.114 108.781 598.469 109.314L597.605 111.219C593.924 110.711 590.712 108.959 589.252 106.534C587.779 108.972 584.555 110.711 580.898 111.219L579.984 109.314ZM583.818 122.949H594.508V120.334H583.818V122.949ZM620.178 102.408V125.209H617.766V102.408H620.178ZM602.125 112.082C602.125 107.22 604.575 104.122 608.016 104.109C611.393 104.122 613.881 107.22 613.881 112.082C613.881 116.995 611.393 120.093 608.016 120.08C604.575 120.093 602.125 116.995 602.125 112.082ZM604.461 112.082C604.448 115.7 605.896 117.922 608.016 117.922C610.098 117.922 611.545 115.7 611.545 112.082C611.545 108.515 610.098 106.28 608.016 106.268C605.896 106.28 604.448 108.515 604.461 112.082ZM641.709 104.516V106.521H633.711V117.617C637.532 117.592 640.135 117.452 643.131 116.881L643.41 118.861C640.135 119.483 637.367 119.623 633.076 119.623H631.273V104.516H641.709ZM640.414 112.539V110.533H646.736V102.408H649.148V125.209H646.736V112.539H640.414ZM679.719 111.955V113.885H658.975V111.955H679.719ZM660.041 109.111C664.192 108.807 667.455 107.169 667.887 105.176H660.879V103.246H677.865V105.176H670.781C671.213 107.169 674.488 108.807 678.678 109.111L677.891 110.99C673.98 110.635 670.705 109.226 669.334 107.067C667.963 109.213 664.713 110.635 660.803 110.99L660.041 109.111ZM661.463 117.516V115.713H677.104V121.07H663.85V123.076H677.738V124.93H661.488V119.318H674.717V117.516H661.463ZM700.387 102.408V125.158H698V113.402H692.896V111.422H698V102.408H700.387ZM681.395 119.039C687.425 116.094 690.104 111.993 690.522 106.775H682.41V104.846H692.973C692.947 111.435 690.383 117.122 682.664 120.943L681.395 119.039ZM722.934 102.434V125.158H720.496V119.725H715.469V117.896H720.496V102.434H722.934ZM703.814 114.266C708.131 114.24 713.856 114.228 718.846 113.529L718.973 115.307C716.802 115.688 714.555 115.916 712.371 116.056V124.447H709.959V116.17C707.877 116.246 705.896 116.271 704.145 116.271L703.814 114.266ZM705.49 108.02C705.503 105.328 707.89 103.475 711.305 103.475C714.669 103.475 717.068 105.328 717.068 108.02C717.068 110.762 714.669 112.526 711.305 112.539C707.89 112.526 705.503 110.762 705.49 108.02ZM707.775 108.02C707.763 109.645 709.21 110.698 711.305 110.686C713.323 110.698 714.771 109.645 714.783 108.02C714.771 106.42 713.336 105.341 711.305 105.328C709.21 105.341 707.763 106.42 707.775 108.02ZM734.766 109.111C734.753 112.92 737.254 116.855 740.758 118.354L739.438 120.232C736.759 119.052 734.626 116.538 733.572 113.504C732.519 116.754 730.386 119.521 727.732 120.816L726.336 118.912C729.764 117.3 732.303 113.034 732.328 109.111V106.699H727.123V104.693H739.945V106.699H734.766V109.111ZM742.814 125.158V102.408H745.227V125.158H742.814ZM767.266 109.061V110.99H751.6V103.221H753.986V109.061H767.266ZM748.832 115.789V113.859H769.652V115.789H748.832ZM751.422 124.625V117.947H753.834V122.645H767.418V124.625H751.422ZM796.643 102.434V117.719H794.23V110.686H789.584V108.705H794.23V102.434H796.643ZM778.006 114.494C783.363 112.869 786.397 109.924 786.854 106.141H779.174V104.186H789.432C789.432 110.127 785.737 114.291 779.072 116.398L778.006 114.494ZM780.418 123.152C784.696 122.467 787.946 119.877 787.959 116.779V115.84H790.346V116.779C790.346 119.852 793.558 122.391 797.836 123.127L796.846 125.031C793.393 124.409 790.511 122.683 789.14 120.182C787.756 122.695 784.836 124.435 781.357 125.082L780.418 123.152ZM824.369 102.408V107.537H827.67V109.492H824.369V114.494H821.957V102.408H824.369ZM806.52 112.971C812.245 111.815 815.229 109.137 815.559 105.912H807.535V103.982H818.225C818.225 109.784 814.302 113.479 807.535 114.926L806.52 112.971ZM809.77 124.879V115.459H824.471V117.287H812.182V119.242H824.217V120.994H812.182V123.051H824.979V124.879H809.77ZM835.059 104.109C838.461 104.122 840.886 107.22 840.898 112.082C840.886 116.995 838.461 120.093 835.059 120.08C831.656 120.093 829.231 116.995 829.244 112.082C829.231 107.22 831.656 104.122 835.059 104.109ZM831.555 112.082C831.542 115.7 832.989 117.922 835.059 117.922C837.166 117.922 838.588 115.7 838.588 112.082C838.588 108.515 837.166 106.28 835.059 106.268C832.989 106.28 831.542 108.515 831.555 112.082ZM844.275 125.158V102.408H846.688V111.32H850.344V113.352H846.688V125.158H844.275ZM872.256 120.309V122.314H851.436V120.309H856.412V114.367C854.546 113.339 853.403 111.714 853.416 109.67C853.403 106.09 856.92 103.741 861.795 103.729C866.683 103.741 870.199 106.09 870.199 109.67C870.199 111.676 869.107 113.288 867.279 114.316V120.309H872.256ZM855.752 109.67C855.752 112.107 858.228 113.694 861.795 113.707C865.337 113.694 867.851 112.107 867.863 109.67C867.851 107.22 865.337 105.658 861.795 105.658C858.228 105.658 855.752 107.22 855.752 109.67ZM858.799 120.309H864.842V115.256C863.915 115.472 862.887 115.586 861.795 115.586C860.729 115.586 859.713 115.472 858.799 115.256V120.309ZM876.496 123.178C875.506 123.165 874.681 122.365 874.693 121.375C874.681 120.385 875.506 119.572 876.496 119.572C877.474 119.572 878.286 120.385 878.299 121.375C878.286 122.365 877.474 123.165 876.496 123.178ZM113.508 140.135V141.404C113.482 142.928 113.482 145.188 112.924 148.133L110.537 147.904C111.032 145.391 111.108 143.55 111.134 142.115H102.031V140.135H113.508ZM100.66 150.088C102.057 150.088 103.644 150.075 105.307 150.037V145.238H107.693V149.961C110.131 149.859 112.645 149.682 114.93 149.352L115.082 151.104C110.334 151.941 104.9 152.03 100.889 152.043L100.66 150.088ZM104.113 160.676V153.947H106.525V158.721H119.576V160.676H104.113ZM116.377 155.496V138.408H118.84V145.645H121.963V147.676H118.84V155.496H116.377ZM142.174 138.434V151.307H139.762V138.434H142.174ZM123.41 148.895C126.965 147.701 129.11 144.68 129.123 141.506V139.297H131.586V141.506C131.573 144.578 133.77 147.346 137.223 148.514L136.029 150.367C133.389 149.491 131.396 147.701 130.367 145.365C129.352 147.866 127.333 149.847 124.604 150.799L123.41 148.895ZM127.219 160.879V152.525H142.174V160.879H127.219ZM129.605 158.924H139.812V154.455H129.605V158.924ZM156.139 138.789C161.268 138.776 164.251 140.16 164.264 142.699C164.251 145.251 161.268 146.635 156.139 146.635C151.01 146.635 148.001 145.251 148.014 142.699C148.001 140.16 151.01 138.776 156.139 138.789ZM145.779 149.961V148.031H166.523V149.961H145.779ZM148.268 153.516V151.713H163.908V157.045H150.654V159.076H164.543V160.93H148.293V155.293H161.521V153.516H148.268ZM150.527 142.699C150.515 144.108 152.521 144.832 156.139 144.832C159.782 144.832 161.788 144.108 161.775 142.699C161.788 141.354 159.782 140.566 156.139 140.566C152.521 140.566 150.515 141.354 150.527 142.699ZM192.473 138.383V144.045H195.773V146.051H192.473V151.281H190.061V138.383H192.473ZM174.598 149.402C180.133 148.031 183.218 145.226 183.599 141.76H175.613V139.805H186.227C186.239 145.657 182.316 149.644 175.486 151.357L174.598 149.402ZM176.807 159.203C180.806 158.657 183.776 156.601 184.005 154.277H177.721V152.348H192.828V154.277H186.569C186.798 156.55 189.794 158.657 193.768 159.229L192.854 161.107C189.4 160.562 186.582 158.937 185.287 156.74C184.005 158.949 181.187 160.549 177.746 161.107L176.807 159.203ZM215.477 145.061V146.99H199.811V139.221H202.197V145.061H215.477ZM197.043 151.789V149.859H217.863V151.789H197.043ZM199.633 160.625V153.947H202.045V158.645H215.629V160.625H199.633ZM244.854 138.434V153.719H242.441V146.686H237.795V144.705H242.441V138.434H244.854ZM226.217 150.494C231.574 148.869 234.608 145.924 235.065 142.141H227.385V140.186H237.643C237.643 146.127 233.948 150.291 227.283 152.398L226.217 150.494ZM228.629 159.152C232.907 158.467 236.157 155.877 236.17 152.779V151.84H238.557V152.779C238.557 155.852 241.769 158.391 246.047 159.127L245.057 161.031C241.604 160.409 238.722 158.683 237.351 156.182C235.967 158.695 233.047 160.435 229.568 161.082L228.629 159.152ZM267.197 138.408V161.209H264.785V138.408H267.197ZM249.145 148.082C249.145 143.22 251.595 140.122 255.035 140.109C258.412 140.122 260.9 143.22 260.9 148.082C260.9 152.995 258.412 156.093 255.035 156.08C251.595 156.093 249.145 152.995 249.145 148.082ZM251.48 148.082C251.468 151.7 252.915 153.922 255.035 153.922C257.117 153.922 258.564 151.7 258.564 148.082C258.564 144.515 257.117 142.28 255.035 142.268C252.915 142.28 251.468 144.515 251.48 148.082ZM296.143 138.408V151.941H293.73V146.178H289.49V144.197H293.73V138.408H296.143ZM277.176 149.885C280.705 148.653 282.876 145.581 282.863 142.445V141.938H277.938V139.982H290.201V141.938H285.326V142.42C285.313 145.302 287.37 148.107 290.811 149.275L289.566 151.18C287.015 150.304 285.136 148.476 284.146 146.229C283.155 148.768 281.162 150.812 278.445 151.814L277.176 149.885ZM280.832 156.867C280.819 154.163 283.739 152.589 288.525 152.576C293.286 152.589 296.206 154.163 296.219 156.867C296.206 159.571 293.286 161.146 288.525 161.158C283.739 161.146 280.819 159.571 280.832 156.867ZM283.219 156.867C283.206 158.403 285.187 159.279 288.525 159.254C291.839 159.279 293.819 158.403 293.832 156.867C293.819 155.318 291.839 154.442 288.525 154.455C285.187 154.442 283.206 155.318 283.219 156.867ZM317.521 138.408V143.156H320.822V145.162H317.521V149.91H315.109V138.408H317.521ZM300.535 148.844V139.627H311.174V148.844H300.535ZM302.82 152.83V150.951H317.521V156.715H305.232V158.949H318.309V160.879H302.871V154.912H315.135V152.83H302.82ZM302.896 146.914H308.812V141.557H302.896V146.914ZM340.018 145.188V147.676H349.26V149.631H328.439V147.676H337.631V145.188H340.018ZM329.506 144.73C333.556 144.451 336.793 142.877 337.187 140.922H330.369V139.068H347.355V140.922H340.462C340.855 142.89 344.055 144.451 348.168 144.73L347.381 146.533C343.369 146.19 340.043 144.73 338.85 142.458C337.631 144.718 334.305 146.19 330.293 146.533L329.506 144.73ZM330.369 154.277V152.424H337.631V150.418H340.018V152.424H347.279V154.277H330.369ZM331.918 158.238C331.905 156.271 334.381 155.255 338.799 155.242C343.217 155.255 345.743 156.271 345.756 158.238C345.743 160.231 343.217 161.272 338.799 161.26C334.381 161.272 331.905 160.231 331.918 158.238ZM334.381 158.238C334.355 159.152 335.955 159.635 338.799 159.609C341.693 159.635 343.255 159.152 343.268 158.238C343.255 157.324 341.693 156.905 338.799 156.893C335.955 156.905 334.355 157.324 334.381 158.238ZM371.68 150.291V152.221H350.936V150.291H371.68ZM353.17 143.715C353.157 140.858 356.344 139.157 361.295 139.17C366.221 139.157 369.407 140.858 369.42 143.715C369.407 146.584 366.221 148.323 361.295 148.336C356.344 148.323 353.157 146.584 353.17 143.715ZM353.551 160.676V154.074H355.988V158.721H369.344V160.676H353.551ZM355.658 143.715C355.646 145.403 357.804 146.355 361.295 146.355C364.773 146.355 366.944 145.403 366.932 143.715C366.944 142.09 364.773 141.1 361.295 141.1C357.804 141.1 355.646 142.09 355.658 143.715ZM390.291 152.576C394.976 152.576 397.832 154.15 397.832 156.842C397.832 159.571 394.976 161.146 390.291 161.158C385.556 161.146 382.648 159.571 382.648 156.842C382.648 154.15 385.556 152.576 390.291 152.576ZM380.643 150.393V139.83H383.004V143.105H388.971V139.83H391.357V150.393H380.643ZM383.004 148.463H388.971V145.01H383.004V148.463ZM385.061 156.842C385.048 158.365 387.003 159.229 390.291 159.229C393.554 159.229 395.483 158.365 395.471 156.842C395.483 155.331 393.554 154.48 390.291 154.48C387.003 154.48 385.048 155.331 385.061 156.842ZM395.217 151.992V138.408H397.629V143.969H400.93V146.025H397.629V151.992H395.217ZM405.729 139.576V142.902H411.416V139.576H413.803V143.867H418.779V138.408H421.191V150.824H418.779V145.873H413.803V150.062H403.316V139.576H405.729ZM405.729 148.107H411.416V144.781H405.729V148.107ZM406.363 160.828V151.891H408.75V154.455H418.779V151.891H421.166V160.828H406.363ZM408.75 158.873H418.779V156.334H408.75V158.873ZM443.535 138.408V161.209H441.123V138.408H443.535ZM425.482 148.082C425.482 143.22 427.933 140.122 431.373 140.109C434.75 140.122 437.238 143.22 437.238 148.082C437.238 152.995 434.75 156.093 431.373 156.08C427.933 156.093 425.482 152.995 425.482 148.082ZM427.818 148.082C427.806 151.7 429.253 153.922 431.373 153.922C433.455 153.922 434.902 151.7 434.902 148.082C434.902 144.515 433.455 142.28 431.373 142.268C429.253 142.28 427.806 144.515 427.818 148.082ZM464.889 138.408V147.295H468.545V149.326H464.889V161.209H462.502V138.408H464.889ZM448.055 142.42V140.465H458.465V148.818H450.492V153.744C454.39 153.731 457.297 153.592 460.623 152.982L460.852 154.938C457.297 155.598 454.225 155.75 449.959 155.775H448.105V146.863H456.078V142.42H448.055ZM488.045 140.592V142.826C488.032 145.632 488.032 148.78 487.182 153.439L484.744 153.186C485.62 148.78 485.62 145.556 485.633 142.826V142.547H471.82V140.592H488.045ZM469.637 158.086V156.08H477.533V148.057H479.92V156.08H490.381V158.086H469.637ZM505.412 142.775C505.412 145.264 506.999 147.777 509.957 148.895L508.688 150.748C506.567 149.936 505.082 148.387 504.27 146.521C503.432 148.628 501.883 150.456 499.674 151.408L498.354 149.529C501.426 148.196 503.076 145.302 503.076 142.775V139.83H505.412V142.775ZM502.543 156.994C502.518 154.404 505.476 152.868 510.236 152.855C514.984 152.868 517.968 154.404 517.98 156.994C517.968 159.584 514.984 161.12 510.236 161.107C505.476 161.12 502.518 159.584 502.543 156.994ZM504.93 156.994C504.904 158.441 506.923 159.279 510.236 159.254C513.537 159.279 515.556 158.441 515.568 156.994C515.556 155.534 513.537 154.696 510.236 154.709C506.923 154.696 504.904 155.534 504.93 156.994ZM510.668 151.713V138.84H512.902V144.35H515.568V138.434H517.854V152.424H515.568V146.33H512.902V151.713H510.668ZM538.801 138.408V144.02H542.102V146.051H538.801V151.713H536.389V138.408H538.801ZM520.799 149.656C526.258 148.222 529.495 145.34 529.914 141.76H521.891V139.805H532.504C532.491 145.657 528.543 149.771 521.789 151.51L520.799 149.656ZM523.77 154.658V152.703H538.801V161.158H536.389V154.658H523.77ZM554.645 142.166V144.121H543.346V142.166H547.814V139.068H550.201V142.166H554.645ZM544.082 150.723C544.069 147.663 546.151 145.492 549.008 145.492C551.89 145.492 553.946 147.663 553.959 150.723C553.946 153.833 551.89 156.017 549.008 156.004C546.151 156.017 544.069 153.833 544.082 150.723ZM546.215 150.723C546.202 152.652 547.37 153.947 549.008 153.947C550.646 153.947 551.826 152.652 551.826 150.723C551.826 148.831 550.646 147.511 549.008 147.498C547.37 147.511 546.202 148.831 546.215 150.723ZM555.686 160.092V138.916H557.971V147.879H560.586V138.408H562.871V161.158H560.586V149.859H557.971V160.092H555.686ZM586.688 156.309V158.314H565.867V156.309H570.844V150.367C568.978 149.339 567.835 147.714 567.848 145.67C567.835 142.09 571.352 139.741 576.227 139.729C581.114 139.741 584.631 142.09 584.631 145.67C584.631 147.676 583.539 149.288 581.711 150.316V156.309H586.688ZM570.184 145.67C570.184 148.107 572.659 149.694 576.227 149.707C579.769 149.694 582.282 148.107 582.295 145.67C582.282 143.22 579.769 141.658 576.227 141.658C572.659 141.658 570.184 143.22 570.184 145.67ZM573.23 156.309H579.273V151.256C578.347 151.472 577.318 151.586 576.227 151.586C575.16 151.586 574.145 151.472 573.23 151.256V156.309ZM590.928 159.178C589.938 159.165 589.112 158.365 589.125 157.375C589.112 156.385 589.938 155.572 590.928 155.572C591.905 155.572 592.718 156.385 592.73 157.375C592.718 158.365 591.905 159.165 590.928 159.178Z" fill="#2C2C2C"/>
<path d="M718.939 181.658C720.249 181.649 721.365 182.142 722.104 182.959H726.041V180.744H727.711V190.043H726.041V187.916H722.095C721.356 188.725 720.24 189.208 718.939 189.199C716.566 189.208 714.8 187.635 714.809 185.438C714.8 183.214 716.566 181.649 718.939 181.658ZM716.408 185.438C716.399 186.817 717.463 187.793 718.939 187.775C720.372 187.793 721.436 186.817 721.436 185.438C721.436 184.022 720.372 183.082 718.939 183.1C717.463 183.082 716.399 184.022 716.408 185.438ZM717.111 193.436C717.103 191.511 719.142 190.386 722.438 190.395C725.716 190.386 727.755 191.511 727.764 193.436C727.755 195.352 725.716 196.468 722.438 196.459C719.142 196.468 717.103 195.352 717.111 193.436ZM718.746 193.436C718.737 194.517 720.126 195.149 722.438 195.141C724.749 195.149 726.129 194.517 726.129 193.436C726.129 192.311 724.749 191.687 722.438 191.678C720.126 191.687 718.737 192.311 718.746 193.436ZM722.868 184.295C722.974 184.646 723.035 185.033 723.035 185.438C723.035 185.824 722.974 186.202 722.868 186.545H726.041V184.295H722.868ZM734.408 181.922C736.553 181.931 738.108 183.741 738.363 186.65H741.615V180.744H743.268V196.529H741.615V188.004H738.381C738.196 191.08 736.605 192.987 734.408 192.979C732.062 192.987 730.4 190.843 730.418 187.441C730.4 184.075 732.062 181.931 734.408 181.922ZM732 187.441C732.009 189.946 732.984 191.484 734.408 191.484C735.832 191.484 736.808 189.946 736.816 187.441C736.808 184.972 735.832 183.425 734.408 183.416C732.984 183.425 732.009 184.972 732 187.441ZM755.555 184.752C755.537 187.538 757.163 190.395 759.51 191.537L758.473 192.873C756.759 191.977 755.432 190.219 754.737 188.118C754.034 190.351 752.654 192.24 750.861 193.172L749.824 191.818C752.241 190.658 753.876 187.635 753.885 184.752V182.062H755.555V184.752ZM760.688 196.494V180.744H762.357V187.02H764.889V188.443H762.357V196.494H760.688ZM780.006 188.426V189.779H765.645V188.426H769.09V186.308C767.868 185.815 767.183 185.024 767.191 183.979C767.183 182.106 769.354 181.017 772.816 181.025C776.271 181.017 778.433 182.106 778.441 183.979C778.433 185.024 777.747 185.815 776.525 186.316V188.426H780.006ZM767.35 193.646C767.35 191.845 769.389 190.852 772.816 190.852C776.2 190.852 778.239 191.845 778.248 193.646C778.239 195.466 776.2 196.459 772.816 196.459C769.389 196.459 767.35 195.466 767.35 193.646ZM768.914 183.979C768.905 185.033 770.364 185.622 772.816 185.631C775.251 185.622 776.728 185.033 776.719 183.979C776.728 182.924 775.251 182.317 772.816 182.309C770.364 182.317 768.905 182.924 768.914 183.979ZM769.037 193.646C769.028 194.631 770.408 195.193 772.816 195.176C775.189 195.193 776.578 194.631 776.578 193.646C776.578 192.68 775.189 192.135 772.816 192.135C770.408 192.135 769.028 192.68 769.037 193.646ZM770.777 188.426H774.873V186.747C774.258 186.844 773.563 186.896 772.816 186.896C772.078 186.896 771.393 186.844 770.777 186.756V188.426ZM786.686 185.385C786.677 187.872 788.32 190.649 790.711 191.783L789.762 193.084C787.995 192.24 786.589 190.465 785.877 188.408C785.156 190.649 783.68 192.592 781.887 193.488L780.902 192.17C783.293 191.019 785.024 188.048 785.033 185.385V183.715H781.482V182.326H790.113V183.715H786.686V185.385ZM791.801 196.494V180.744H793.471V186.984H796.002V188.391H793.471V196.494H791.801ZM798.551 195.123C797.865 195.114 797.294 194.561 797.303 193.875C797.294 193.189 797.865 192.627 798.551 192.627C799.228 192.627 799.79 193.189 799.799 193.875C799.79 194.561 799.228 195.114 798.551 195.123ZM806.232 195V193.594L810.645 189.146C812.042 187.696 812.736 186.888 812.736 185.771C812.736 184.515 811.717 183.715 810.381 183.715C808.966 183.715 808.069 184.611 808.061 185.965H806.232C806.215 183.636 807.99 182.098 810.416 182.098C812.868 182.098 814.564 183.653 814.582 185.719C814.564 187.143 813.896 188.276 811.506 190.623L808.922 193.242V193.348H814.793V195H806.232ZM821.455 195.176C818.818 195.176 816.946 193.761 816.867 191.678H818.836C818.906 192.794 820.014 193.506 821.438 193.506C822.976 193.506 824.092 192.671 824.092 191.432C824.092 190.175 823.046 189.278 821.227 189.27H820.137V187.688H821.227C822.677 187.696 823.688 186.888 823.688 185.666C823.688 184.506 822.817 183.715 821.473 183.715C820.198 183.715 819.056 184.427 819.012 185.578H817.148C817.201 183.504 819.117 182.098 821.49 182.098C823.995 182.098 825.568 183.68 825.551 185.561C825.568 187.011 824.672 188.048 823.301 188.391V188.479C825.041 188.725 826.052 189.894 826.043 191.502C826.052 193.62 824.092 195.176 821.455 195.176ZM832.424 185.051C832.424 187.564 833.479 190.245 835.588 191.537L834.656 192.82C833.18 191.933 832.187 190.359 831.642 188.54C831.07 190.535 829.98 192.24 828.451 193.172L827.414 191.924C829.638 190.588 830.815 187.802 830.807 185.121V182.186H832.424V185.051ZM833.883 187.67V186.281H836.326V181.043H837.908V195.721H836.326V187.67H833.883ZM839.578 196.494V180.744H841.178V196.494H839.578ZM844.131 190.148C844.148 186.835 845.089 184.084 846.732 181.729H848.455C847.242 183.469 846.082 187.011 846.082 190.148C846.082 193.295 847.242 196.837 848.455 198.586H846.732C845.089 196.222 844.148 193.471 844.131 190.148ZM854.59 195.176C851.646 195.176 849.914 192.803 849.914 188.637C849.914 184.497 851.663 182.098 854.59 182.098C857.508 182.098 859.257 184.497 859.266 188.637C859.257 192.803 857.534 195.176 854.59 195.176ZM851.848 188.637C851.839 191.81 852.867 193.506 854.59 193.506C856.304 193.506 857.332 191.81 857.332 188.637C857.332 185.473 856.295 183.741 854.59 183.732C852.876 183.741 851.848 185.473 851.848 188.637ZM866.104 182.273V195H864.152V184.207H864.082L861.041 186.193V184.348L864.205 182.273H866.104ZM881.924 180.762V192.398H880.254V187.037H875.93V185.701H880.254V184.049H875.93V182.713H880.254V180.762H881.924ZM869.725 190.148V181.852H871.377V188.742C873.469 188.733 875.455 188.619 877.705 188.197L877.881 189.568C875.385 190.034 873.249 190.131 870.938 190.148H869.725ZM871.658 196.16V191.379H873.346V194.807H882.328V196.16H871.658ZM889.166 183.768C889.166 185.49 890.265 187.23 892.312 188.004L891.434 189.287C889.966 188.725 888.938 187.652 888.375 186.36C887.795 187.819 886.723 189.085 885.193 189.744L884.279 188.443C886.406 187.521 887.549 185.517 887.549 183.768V181.729H889.166V183.768ZM887.18 193.611C887.162 191.818 889.21 190.755 892.506 190.746C895.793 190.755 897.858 191.818 897.867 193.611C897.858 195.404 895.793 196.468 892.506 196.459C889.21 196.468 887.162 195.404 887.18 193.611ZM888.832 193.611C888.814 194.613 890.212 195.193 892.506 195.176C894.791 195.193 896.188 194.613 896.197 193.611C896.188 192.601 894.791 192.021 892.506 192.029C890.212 192.021 888.814 192.601 888.832 193.611ZM892.805 189.955V181.043H894.352V184.857H896.197V180.762H897.779V190.447H896.197V186.229H894.352V189.955H892.805ZM904.23 190.148C904.213 193.471 903.272 196.222 901.629 198.586H899.906C901.119 196.837 902.279 193.295 902.279 190.148C902.279 187.011 901.119 183.469 899.906 181.729H901.629C903.272 184.084 904.213 186.835 904.23 190.148ZM908.133 195.123C907.447 195.114 906.876 194.561 906.885 193.875C906.876 193.189 907.447 192.627 908.133 192.627C908.81 192.627 909.372 193.189 909.381 193.875C909.372 194.561 908.81 195.114 908.133 195.123ZM927.645 180.762V185.824H929.93V187.213H927.645V192.539H925.975V180.762H927.645ZM915.287 183.943V182.59H919.154V180.744H920.824V182.59H924.674V183.943H915.287ZM916.148 187.67C916.14 185.868 917.695 184.69 919.98 184.699C922.239 184.69 923.795 185.868 923.795 187.67C923.795 189.454 922.239 190.614 919.98 190.623C917.695 190.614 916.14 189.454 916.148 187.67ZM917.66 196.16V191.607H919.33V194.807H928.312V196.16H917.66ZM917.766 187.67C917.748 188.698 918.645 189.331 919.98 189.322C921.316 189.331 922.213 188.698 922.23 187.67C922.213 186.633 921.316 185.991 919.98 185.982C918.645 185.991 917.748 186.633 917.766 187.67ZM943.412 181.482V182.66C943.421 183.82 943.421 185.209 943.052 187.037H945.24V188.391H938.842V191.08H943.482V196.494H941.812V192.416H932.303V191.08H937.172V188.391H930.826V187.037H941.373C941.742 185.271 941.76 183.961 941.76 182.836H932.637V181.482H943.412ZM950.654 181.922C952.799 181.931 954.354 183.741 954.609 186.65H957.861V180.744H959.514V196.529H957.861V188.004H954.627C954.442 191.08 952.852 192.987 950.654 192.979C948.308 192.987 946.646 190.843 946.664 187.441C946.646 184.075 948.308 181.931 950.654 181.922ZM948.246 187.441C948.255 189.946 949.23 191.484 950.654 191.484C952.078 191.484 953.054 189.946 953.062 187.441C953.054 184.972 952.078 183.425 950.654 183.416C949.23 183.425 948.255 184.972 948.246 187.441ZM975.738 182.344V183.68H966.352V182.344H970.219V180.674H971.889V182.344H975.738ZM967.213 187.248C967.204 185.525 968.769 184.4 971.045 184.383C973.312 184.4 974.859 185.525 974.859 187.248C974.859 188.979 973.312 190.113 971.045 190.113C968.769 190.113 967.204 188.979 967.213 187.248ZM968.303 192.75V191.396H978.709V196.494H977.039V192.75H968.303ZM968.83 187.248C968.812 188.224 969.709 188.812 971.045 188.812C972.381 188.812 973.277 188.224 973.295 187.248C973.277 186.281 972.381 185.675 971.045 185.666C969.709 185.675 968.812 186.281 968.83 187.248ZM977.039 190.588V180.744H978.709V185.016H980.994V186.404H978.709V190.588H977.039ZM985.318 190.184V191.854H992.719V190.184H994.389V196.301H983.666V190.184H985.318ZM981.891 189.199V187.811H996.252V189.199H981.891ZM982.664 185.525C985.714 185.13 988.21 183.451 988.219 181.588V180.92H989.924V181.588C989.933 183.398 992.446 185.156 995.461 185.525L994.863 186.844C992.314 186.492 990.091 185.279 989.08 183.601C988.061 185.288 985.828 186.492 983.297 186.844L982.664 185.525ZM985.318 194.965H992.719V193.154H985.318V194.965ZM1010.54 180.744V196.494H1008.86V180.744H1010.54ZM997.605 192.275C1001.79 190.28 1003.84 187.441 1004.16 183.768H998.361V182.432H1005.85C1005.85 187.046 1003.89 191.036 998.484 193.629L997.605 192.275ZM1025.38 180.744V185.402H1027.66V186.791H1025.38V192.188H1023.69V180.744H1025.38ZM1012.99 189.129C1016.68 188.021 1018.96 185.921 1019.29 183.328H1013.65V181.939H1021.11C1021.11 186.07 1018.29 189.067 1013.69 190.465L1012.99 189.129ZM1015.38 196.16V191.01H1017.06V194.807H1026.03V196.16H1015.38ZM1037.95 195.176C1035.18 195.176 1033.25 193.682 1033.27 191.607C1033.25 189.973 1034.42 188.637 1035.93 188.408V188.338C1034.62 188.039 1033.75 186.879 1033.75 185.49C1033.75 183.53 1035.51 182.098 1037.95 182.098C1040.35 182.098 1042.12 183.53 1042.13 185.49C1042.12 186.879 1041.23 188.039 1039.95 188.338V188.408C1041.44 188.637 1042.61 189.973 1042.62 191.607C1042.61 193.682 1040.67 195.176 1037.95 195.176ZM1035.24 191.467C1035.21 192.715 1036.27 193.576 1037.95 193.576C1039.6 193.576 1040.65 192.715 1040.65 191.467C1040.65 190.157 1039.51 189.199 1037.95 189.199C1036.37 189.199 1035.21 190.157 1035.24 191.467ZM1035.63 185.666C1035.64 186.853 1036.58 187.679 1037.95 187.67C1039.27 187.679 1040.24 186.861 1040.23 185.666C1040.24 184.479 1039.31 183.671 1037.95 183.68C1036.55 183.671 1035.64 184.479 1035.63 185.666ZM1057.21 180.762V192.398H1055.54V187.037H1051.22V185.701H1055.54V184.049H1051.22V182.713H1055.54V180.762H1057.21ZM1045.01 190.148V181.852H1046.67V188.742C1048.76 188.733 1050.74 188.619 1052.99 188.197L1053.17 189.568C1050.67 190.034 1048.54 190.131 1046.23 190.148H1045.01ZM1046.95 196.16V191.379H1048.63V194.807H1057.62V196.16H1046.95Z" fill="#9F9F9F"/>
<defs>
<linearGradient id="paint0_linear_815_5896" x1="0" y1="129.5" x2="1160" y2="129.5" gradientUnits="userSpaceOnUse">
<stop stop-color="#FF577C"/>
<stop offset="1" stop-color="#66B8FB"/>
</linearGradient>
</defs>
</svg>
