<svg width="920" height="233" viewBox="0 0 920 233" fill="none" xmlns="http://www.w3.org/2000/svg">
<path d="M1.5 150C1.5 67.9857 67.9857 1.5 150 1.5H803.5C867.013 1.5 918.5 52.9873 918.5 116.5C918.5 180.013 867.013 231.5 803.5 231.5H5.00003C3.06702 231.5 1.5 229.933 1.5 228V150Z" stroke="url(#paint0_linear_815_5889)" stroke-width="3"/>
<path d="M199.805 66.4082V79.9414H197.393V74.1777H193.152V72.1973H197.393V66.4082H199.805ZM180.838 77.8848C184.367 76.6533 186.538 73.5811 186.525 70.4453V69.9375H181.6V67.9824H193.863V69.9375H188.988V70.4199C188.976 73.3018 191.032 76.1074 194.473 77.2754L193.229 79.1797C190.677 78.3037 188.798 76.4756 187.808 74.2285C186.817 76.7676 184.824 78.8115 182.107 79.8145L180.838 77.8848ZM184.494 84.8672C184.481 82.1631 187.401 80.5889 192.188 80.5762C196.948 80.5889 199.868 82.1631 199.881 84.8672C199.868 87.5713 196.948 89.1455 192.188 89.1582C187.401 89.1455 184.481 87.5713 184.494 84.8672ZM186.881 84.8672C186.868 86.4033 188.849 87.2793 192.188 87.2539C195.501 87.2793 197.481 86.4033 197.494 84.8672C197.481 83.3184 195.501 82.4424 192.188 82.4551C188.849 82.4424 186.868 83.3184 186.881 84.8672ZM221.184 66.4082V71.1562H224.484V73.1621H221.184V77.9102H218.771V66.4082H221.184ZM204.197 76.8438V67.627H214.836V76.8438H204.197ZM206.482 80.8301V78.9512H221.184V84.7148H208.895V86.9492H221.971V88.8789H206.533V82.9121H218.797V80.8301H206.482ZM206.559 74.9141H212.475V69.5566H206.559V74.9141ZM243.68 73.1875V75.6758H252.922V77.6309H232.102V75.6758H241.293V73.1875H243.68ZM233.168 72.7305C237.218 72.4512 240.455 70.877 240.849 68.9219H234.031V67.0684H251.018V68.9219H244.124C244.518 70.8896 247.717 72.4512 251.83 72.7305L251.043 74.5332C247.031 74.1904 243.705 72.7305 242.512 70.458C241.293 72.7178 237.967 74.1904 233.955 74.5332L233.168 72.7305ZM234.031 82.2773V80.4238H241.293V78.418H243.68V80.4238H250.941V82.2773H234.031ZM235.58 86.2383C235.567 84.2705 238.043 83.2549 242.461 83.2422C246.879 83.2549 249.405 84.2705 249.418 86.2383C249.405 88.2314 246.879 89.2725 242.461 89.2598C238.043 89.2725 235.567 88.2314 235.58 86.2383ZM238.043 86.2383C238.018 87.1523 239.617 87.6348 242.461 87.6094C245.355 87.6348 246.917 87.1523 246.93 86.2383C246.917 85.3242 245.355 84.9053 242.461 84.8926C239.617 84.9053 238.018 85.3242 238.043 86.2383ZM275.342 78.291V80.2207H254.598V78.291H275.342ZM256.832 71.7148C256.819 68.8584 260.006 67.1572 264.957 67.1699C269.883 67.1572 273.069 68.8584 273.082 71.7148C273.069 74.584 269.883 76.3232 264.957 76.3359C260.006 76.3232 256.819 74.584 256.832 71.7148ZM257.213 88.6758V82.0742H259.65V86.7207H273.006V88.6758H257.213ZM259.32 71.7148C259.308 73.4033 261.466 74.3555 264.957 74.3555C268.436 74.3555 270.606 73.4033 270.594 71.7148C270.606 70.0898 268.436 69.0996 264.957 69.0996C261.466 69.0996 259.308 70.0898 259.32 71.7148ZM289.51 68.1094C292.912 68.1221 295.337 71.2197 295.35 76.082C295.337 80.9951 292.912 84.0928 289.51 84.0801C286.107 84.0928 283.683 80.9951 283.695 76.082C283.683 71.2197 286.107 68.1221 289.51 68.1094ZM286.006 76.082C285.993 79.7002 287.44 81.9219 289.51 81.9219C291.617 81.9219 293.039 79.7002 293.039 76.082C293.039 72.5146 291.617 70.2803 289.51 70.2676C287.44 70.2803 285.993 72.5146 286.006 76.082ZM298.727 89.1582V66.4082H301.139V75.3203H304.795V77.3516H301.139V89.1582H298.727ZM324.727 66.4082V89.209H322.314V66.4082H324.727ZM306.674 76.082C306.674 71.2197 309.124 68.1221 312.564 68.1094C315.941 68.1221 318.43 71.2197 318.43 76.082C318.43 80.9951 315.941 84.0928 312.564 84.0801C309.124 84.0928 306.674 80.9951 306.674 76.082ZM309.01 76.082C308.997 79.7002 310.444 81.9219 312.564 81.9219C314.646 81.9219 316.094 79.7002 316.094 76.082C316.094 72.5146 314.646 70.2803 312.564 70.2676C310.444 70.2803 308.997 72.5146 309.01 76.082ZM347.197 66.4082V89.209H344.785V66.4082H347.197ZM329.805 83.623V68.5156H340.697V70.5215H332.242V81.5664C336.546 81.5537 339.313 81.4268 342.525 80.8555L342.779 82.8613C339.377 83.4834 336.406 83.6104 331.684 83.623H329.805ZM356.998 68.1094C360.096 68.1221 362.343 70.7373 362.711 74.9395H367.408V66.4082H369.795V89.209H367.408V76.8945H362.736C362.47 81.3379 360.172 84.0928 356.998 84.0801C353.608 84.0928 351.209 80.9951 351.234 76.082C351.209 71.2197 353.608 68.1221 356.998 68.1094ZM353.52 76.082C353.532 79.7002 354.941 81.9219 356.998 81.9219C359.055 81.9219 360.464 79.7002 360.477 76.082C360.464 72.5146 359.055 70.2803 356.998 70.2676C354.941 70.2803 353.532 72.5146 353.52 76.082ZM392.164 66.4336V82.9629H389.752V66.4336H392.164ZM373.756 73.5938C373.769 70.3057 376.384 67.9697 379.824 67.957C383.252 67.9697 385.867 70.3057 385.867 73.5938C385.867 76.9326 383.252 79.2559 379.824 79.2559C376.384 79.2559 373.769 76.9326 373.756 73.5938ZM376.117 73.5938C376.104 75.7393 377.704 77.1484 379.824 77.1484C381.906 77.1484 383.506 75.7393 383.506 73.5938C383.506 71.499 381.906 70.0645 379.824 70.0645C377.704 70.0645 376.104 71.499 376.117 73.5938ZM377.285 88.6758V81.2871H379.723V86.7207H392.85V88.6758H377.285ZM421.084 66.4336V81.7188H418.672V74.6855H414.025V72.7051H418.672V66.4336H421.084ZM402.447 78.4941C407.805 76.8691 410.839 73.9238 411.296 70.1406H403.615V68.1855H413.873C413.873 74.127 410.179 78.291 403.514 80.3984L402.447 78.4941ZM404.859 87.1523C409.138 86.4668 412.388 83.877 412.4 80.7793V79.8398H414.787V80.7793C414.787 83.8516 417.999 86.3906 422.277 87.127L421.287 89.0312C417.834 88.4092 414.952 86.6826 413.581 84.1816C412.197 86.6953 409.277 88.4346 405.799 89.082L404.859 87.1523ZM448.811 66.4082V71.5371H452.111V73.4922H448.811V78.4941H446.398V66.4082H448.811ZM430.961 76.9707C436.687 75.8154 439.67 73.1367 440 69.9121H431.977V67.9824H442.666C442.666 73.7842 438.743 77.4785 431.977 78.9258L430.961 76.9707ZM434.211 88.8789V79.459H448.912V81.2871H436.623V83.2422H448.658V84.9941H436.623V87.0508H449.42V88.8789H434.211ZM459.5 68.1094C462.902 68.1221 465.327 71.2197 465.34 76.082C465.327 80.9951 462.902 84.0928 459.5 84.0801C456.098 84.0928 453.673 80.9951 453.686 76.082C453.673 71.2197 456.098 68.1221 459.5 68.1094ZM455.996 76.082C455.983 79.7002 457.431 81.9219 459.5 81.9219C461.607 81.9219 463.029 79.7002 463.029 76.082C463.029 72.5146 461.607 70.2803 459.5 70.2676C457.431 70.2803 455.983 72.5146 455.996 76.082ZM468.717 89.1582V66.4082H471.129V75.3203H474.785V77.3516H471.129V89.1582H468.717ZM496.697 84.3086V86.3145H475.877V84.3086H480.854V78.3672C478.987 77.3389 477.845 75.7139 477.857 73.6699C477.845 70.0898 481.361 67.7412 486.236 67.7285C491.124 67.7412 494.641 70.0898 494.641 73.6699C494.641 75.6758 493.549 77.2881 491.721 78.3164V84.3086H496.697ZM480.193 73.6699C480.193 76.1074 482.669 77.6943 486.236 77.707C489.778 77.6943 492.292 76.1074 492.305 73.6699C492.292 71.2197 489.778 69.6582 486.236 69.6582C482.669 69.6582 480.193 71.2197 480.193 73.6699ZM483.24 84.3086H489.283V79.2559C488.356 79.4717 487.328 79.5859 486.236 79.5859C485.17 79.5859 484.154 79.4717 483.24 79.2559V84.3086ZM502.537 68.6172L502.309 81.6934H499.795L499.566 68.6172H502.537ZM499.262 85.375C499.249 84.3848 500.074 83.5723 501.064 83.5723C502.042 83.5723 502.854 84.3848 502.867 85.375C502.854 86.3652 502.042 87.165 501.064 87.1777C500.074 87.165 499.249 86.3652 499.262 85.375ZM524.551 68.0586V70.0137H522.367V76.8945C523.332 76.8184 524.259 76.7295 525.16 76.6152L525.262 78.4434C520.882 79.1289 515.778 79.2051 512.135 79.2051L511.83 77.1992C512.681 77.1992 513.62 77.1992 514.598 77.1865V70.0137H512.465V68.0586H524.551ZM515.461 84.9941C515.448 82.3408 518.343 80.8301 523.154 80.8301C527.953 80.8301 530.835 82.3408 530.848 84.9941C530.835 87.5967 527.953 89.1201 523.154 89.1074C518.343 89.1201 515.448 87.5967 515.461 84.9941ZM516.934 77.1484C517.962 77.123 519.003 77.085 520.057 77.0342V70.0137H516.934V77.1484ZM517.848 84.9941C517.835 86.4287 519.79 87.2412 523.154 87.2539C526.493 87.2412 528.448 86.4287 528.461 84.9941C528.448 83.5215 526.493 82.6963 523.154 82.709C519.79 82.6963 517.835 83.5215 517.848 84.9941ZM524.881 76.4375V74.5078H528.359V72.2988H524.881V70.3691H528.359V66.4082H530.771V80.3984H528.359V76.4375H524.881ZM555.096 84.2832V86.2637H534.275V84.2832H543.391V78.875H545.777V84.2832H555.096ZM534.986 77.3008C539.366 76.5645 543.276 73.1875 543.289 69.582V67.8555H545.828V69.582C545.828 73.1875 549.789 76.5645 554.182 77.3008L553.141 79.2812C549.446 78.5576 546.069 76.2725 544.571 73.1621C543.073 76.2598 539.722 78.5576 536.053 79.2812L534.986 77.3008ZM580.969 66.4336V73.7461H584.27V75.752H580.969V83.4453H578.557V66.4336H580.969ZM563.119 71.0293V69.0742H568.705V66.4082H571.117V69.0742H576.678V71.0293H563.119ZM564.363 76.4121C564.351 73.8096 566.598 72.1084 569.898 72.1211C573.161 72.1084 575.408 73.8096 575.408 76.4121C575.408 78.9893 573.161 80.665 569.898 80.6777C566.598 80.665 564.351 78.9893 564.363 76.4121ZM566.547 88.6758V82.0996H568.959V86.7207H581.934V88.6758H566.547ZM566.699 76.4121C566.674 77.8975 567.969 78.8115 569.898 78.7988C571.828 78.8115 573.123 77.8975 573.148 76.4121C573.123 74.9141 571.828 73.9873 569.898 73.9746C567.969 73.9873 566.674 74.9141 566.699 76.4121ZM603.744 67.4746V69.1758C603.757 70.8516 603.757 72.8574 603.224 75.498H606.385V77.4531H597.143V81.3379H603.846V89.1582H601.434V83.2676H587.697V81.3379H594.73V77.4531H585.564V75.498H600.799C601.332 72.9463 601.357 71.0547 601.357 69.4297H588.18V67.4746H603.744ZM635.178 77.9102V79.8652H626.139V84.2832H623.752V79.8652H614.357V77.9102H635.178ZM616.947 88.6758V82.125H619.359V86.7207H632.867V88.6758H616.947ZM617.023 75.5488V67.4746H632.486V75.5488H617.023ZM619.385 73.6445H630.1V69.3789H619.385V73.6445ZM654.678 66.4082V75.9297H658.105V77.9609H654.678V89.1582H652.266V66.4082H654.678ZM636.574 82.9629C638.364 82.9629 640.446 82.9629 642.617 82.8994V80.5889C640.053 80.208 638.377 78.6592 638.402 76.4629C638.377 73.8984 640.599 72.21 643.836 72.1973C647.061 72.21 649.308 73.8984 649.32 76.4629C649.308 78.6592 647.606 80.2207 645.029 80.5889V82.8105C647.048 82.709 649.079 82.5439 650.971 82.2773L651.123 84.0547C646.197 84.9307 640.878 84.9814 636.955 84.9688L636.574 82.9629ZM637.006 71.0293V69.0996H642.617V66.459H645.029V69.0996H650.641V71.0293H637.006ZM640.662 76.4629C640.662 77.9102 641.932 78.8115 643.836 78.7988C645.74 78.8115 646.997 77.9102 647.01 76.4629C646.997 75.0029 645.74 74.0762 643.836 74.0762C641.932 74.0762 640.662 75.0029 640.662 76.4629ZM678.9 66.4082V89.1582H676.59V66.4082H678.9ZM659.578 76.2344C659.578 71.3086 661.508 68.2236 664.479 68.2363C667.246 68.2236 669.112 70.8516 669.392 75.1172H671.969V66.8398H674.279V88.041H671.969V77.0723H669.404C669.188 81.5156 667.297 84.2705 664.479 84.2578C661.508 84.2705 659.578 81.1729 659.578 76.2344ZM661.812 76.2344C661.812 79.8525 662.841 81.9854 664.479 81.9727C666.154 81.9854 667.195 79.8525 667.195 76.2344C667.195 72.6035 666.154 70.4834 664.479 70.4961C662.841 70.4834 661.812 72.6035 661.812 76.2344ZM193.508 104.135V105.404C193.482 106.928 193.482 109.188 192.924 112.133L190.537 111.904C191.032 109.391 191.108 107.55 191.134 106.115H182.031V104.135H193.508ZM180.66 114.088C182.057 114.088 183.644 114.075 185.307 114.037V109.238H187.693V113.961C190.131 113.859 192.645 113.682 194.93 113.352L195.082 115.104C190.334 115.941 184.9 116.03 180.889 116.043L180.66 114.088ZM184.113 124.676V117.947H186.525V122.721H199.576V124.676H184.113ZM196.377 119.496V102.408H198.84V109.645H201.963V111.676H198.84V119.496H196.377ZM222.174 102.434V115.307H219.762V102.434H222.174ZM203.41 112.895C206.965 111.701 209.11 108.68 209.123 105.506V103.297H211.586V105.506C211.573 108.578 213.77 111.346 217.223 112.514L216.029 114.367C213.389 113.491 211.396 111.701 210.367 109.365C209.352 111.866 207.333 113.847 204.604 114.799L203.41 112.895ZM207.219 124.879V116.525H222.174V124.879H207.219ZM209.605 122.924H219.812V118.455H209.605V122.924ZM244.619 102.408V125.209H242.207V102.408H244.619ZM226.566 112.082C226.566 107.22 229.017 104.122 232.457 104.109C235.834 104.122 238.322 107.22 238.322 112.082C238.322 116.995 235.834 120.093 232.457 120.08C229.017 120.093 226.566 116.995 226.566 112.082ZM228.902 112.082C228.89 115.7 230.337 117.922 232.457 117.922C234.539 117.922 235.986 115.7 235.986 112.082C235.986 108.515 234.539 106.28 232.457 106.268C230.337 106.28 228.89 108.515 228.902 112.082ZM262.494 117.439C262.494 119.395 263.459 121.464 265.528 122.695C267.61 121.362 268.639 119.191 268.639 117.439V116.348H271V117.439C270.987 119.801 272.549 122.086 275.52 123.051L274.326 124.828C272.079 124.054 270.543 122.53 269.756 120.677C269.032 122.505 267.674 124.168 265.592 125.031C263.408 124.206 262.024 122.594 261.326 120.74C260.501 122.53 259.003 124.041 256.857 124.828L255.639 123.051C258.559 122.01 260.146 119.636 260.158 117.439V116.348H262.494V117.439ZM255.055 109.061C255.067 105.874 257.632 103.69 261.123 103.678C264.602 103.69 267.166 105.874 267.166 109.061C267.166 112.209 264.602 114.393 261.123 114.393C257.632 114.393 255.067 112.209 255.055 109.061ZM257.416 109.061C257.403 111.041 258.965 112.387 261.123 112.387C263.256 112.387 264.805 111.041 264.805 109.061C264.805 107.067 263.256 105.722 261.123 105.734C258.965 105.722 257.403 107.067 257.416 109.061ZM271.051 115.383V102.434H273.463V115.383H271.051ZM283.238 104.109C286.336 104.122 288.583 106.737 288.951 110.939H293.648V102.408H296.035V125.209H293.648V112.895H288.977C288.71 117.338 286.412 120.093 283.238 120.08C279.849 120.093 277.449 116.995 277.475 112.082C277.449 107.22 279.849 104.122 283.238 104.109ZM279.76 112.082C279.772 115.7 281.182 117.922 283.238 117.922C285.295 117.922 286.704 115.7 286.717 112.082C286.704 108.515 285.295 106.28 283.238 106.268C281.182 106.28 279.772 108.515 279.76 112.082ZM307.74 108.197C307.74 112.361 310.076 116.513 313.555 118.074L312.082 120.004C309.505 118.709 307.55 116.145 306.547 113.034C305.544 116.31 303.563 119.077 300.936 120.436L299.412 118.48C302.941 116.792 305.29 112.412 305.303 108.197V104.312H307.74V108.197ZM311.041 111.93V109.975H316.119V102.408H318.506V125.209H316.119V111.93H311.041ZM347.273 102.408V116.627H344.887V102.408H347.273ZM328.408 113.352C329.932 113.352 331.607 113.352 333.359 113.313V109.162H335.721V113.25C338.234 113.161 340.824 112.996 343.211 112.691L343.363 114.418C338.349 115.167 332.902 115.256 328.713 115.23L328.408 113.352ZM330.084 105.734V103.779H341.357V105.354C341.345 106.979 341.345 108.972 340.824 111.498L338.514 111.244C338.971 108.959 339.009 107.245 338.996 105.734H330.084ZM331.785 120.969C331.785 118.366 334.73 116.843 339.58 116.83C344.379 116.843 347.375 118.366 347.375 120.969C347.375 123.622 344.379 125.12 339.58 125.107C334.73 125.12 331.785 123.622 331.785 120.969ZM334.273 120.969C334.261 122.429 336.267 123.241 339.58 123.254C342.906 123.241 344.887 122.429 344.912 120.969C344.887 119.547 342.906 118.722 339.58 118.734C336.267 118.722 334.261 119.547 334.273 120.969ZM358.775 106.598C358.763 109.492 360.781 112.133 364.234 113.225L363.092 115.104C360.502 114.278 358.61 112.564 357.607 110.406C356.617 112.895 354.624 114.862 351.895 115.814L350.65 113.885C354.205 112.717 356.351 109.784 356.363 106.623V105.988H351.361V104.033H363.676V105.988H358.775V106.598ZM353.723 120.842C353.723 118.176 356.63 116.614 361.365 116.627C366.05 116.614 368.906 118.176 368.906 120.842C368.906 123.546 366.05 125.12 361.365 125.107C356.63 125.12 353.723 123.546 353.723 120.842ZM356.135 120.842C356.122 122.365 358.077 123.216 361.365 123.203C364.628 123.216 366.558 122.365 366.545 120.842C366.558 119.356 364.628 118.519 361.365 118.531C358.077 118.519 356.122 119.356 356.135 120.842ZM366.291 116.068V102.408H368.703V108.045H372.004V110.025H368.703V116.068H366.291ZM392.139 102.408V125.158H389.727V102.408H392.139ZM373.807 107.969V106.014H379.418V102.637H381.855V106.014H387.518V107.969H373.807ZM374.975 114.9C374.962 111.803 377.374 109.619 380.688 109.619C384.001 109.619 386.413 111.803 386.426 114.9C386.413 118.023 384.001 120.194 380.688 120.207C377.374 120.194 374.962 118.023 374.975 114.9ZM377.26 114.9C377.26 116.881 378.694 118.201 380.688 118.176C382.681 118.201 384.115 116.881 384.115 114.9C384.115 112.958 382.681 111.612 380.688 111.6C378.694 111.612 377.26 112.958 377.26 114.9ZM421.77 102.408V125.158H419.459V113.479H416.742V124.041H414.457V102.84H416.742V111.447H419.459V102.408H421.77ZM401.812 118.734C405.139 116.868 406.688 112.945 406.688 108.426V106.953H402.422V104.998H412.984V106.953H409.023V108.426C409.023 112.514 410.56 116.221 413.873 117.922L412.451 119.775C410.217 118.557 408.719 116.437 407.906 113.821C407.132 116.805 405.634 119.191 403.311 120.562L401.812 118.734ZM436.521 104.592V119.547H425.857V104.592H436.521ZM428.244 117.592H434.186V106.496H428.244V117.592ZM441.016 125.209V102.408H443.428V125.209H441.016ZM454.955 117.439C454.955 119.395 455.92 121.464 457.989 122.695C460.071 121.362 461.1 119.191 461.1 117.439V116.348H463.461V117.439C463.448 119.801 465.01 122.086 467.98 123.051L466.787 124.828C464.54 124.054 463.004 122.53 462.217 120.677C461.493 122.505 460.135 124.168 458.053 125.031C455.869 124.206 454.485 122.594 453.787 120.74C452.962 122.53 451.464 124.041 449.318 124.828L448.1 123.051C451.02 122.01 452.606 119.636 452.619 117.439V116.348H454.955V117.439ZM447.516 109.061C447.528 105.874 450.093 103.69 453.584 103.678C457.062 103.69 459.627 105.874 459.627 109.061C459.627 112.209 457.062 114.393 453.584 114.393C450.093 114.393 447.528 112.209 447.516 109.061ZM449.877 109.061C449.864 111.041 451.426 112.387 453.584 112.387C455.717 112.387 457.266 111.041 457.266 109.061C457.266 107.067 455.717 105.722 453.584 105.734C451.426 105.722 449.864 107.067 449.877 109.061ZM463.512 115.383V102.434H465.924V115.383H463.512ZM479.889 102.789C485.018 102.776 488.001 104.16 488.014 106.699C488.001 109.251 485.018 110.635 479.889 110.635C474.76 110.635 471.751 109.251 471.764 106.699C471.751 104.16 474.76 102.776 479.889 102.789ZM469.529 113.961V112.031H490.273V113.961H469.529ZM472.018 117.516V115.713H487.658V121.045H474.404V123.076H488.293V124.93H472.043V119.293H485.271V117.516H472.018ZM474.277 106.699C474.265 108.108 476.271 108.832 479.889 108.832C483.532 108.832 485.538 108.108 485.525 106.699C485.538 105.354 483.532 104.566 479.889 104.566C476.271 104.566 474.265 105.354 474.277 106.699ZM517.314 102.434V117.719H514.902V110.686H510.256V108.705H514.902V102.434H517.314ZM498.678 114.494C504.035 112.869 507.069 109.924 507.526 106.141H499.846V104.186H510.104C510.104 110.127 506.409 114.291 499.744 116.398L498.678 114.494ZM501.09 123.152C505.368 122.467 508.618 119.877 508.631 116.779V115.84H511.018V116.779C511.018 119.852 514.229 122.391 518.508 123.127L517.518 125.031C514.064 124.409 511.183 122.683 509.812 120.182C508.428 122.695 505.508 124.435 502.029 125.082L501.09 123.152ZM545.041 102.408V107.537H548.342V109.492H545.041V114.494H542.629V102.408H545.041ZM527.191 112.971C532.917 111.815 535.9 109.137 536.23 105.912H528.207V103.982H538.896C538.896 109.784 534.974 113.479 528.207 114.926L527.191 112.971ZM530.441 124.879V115.459H545.143V117.287H532.854V119.242H544.889V120.994H532.854V123.051H545.65V124.879H530.441ZM555.73 104.109C559.133 104.122 561.558 107.22 561.57 112.082C561.558 116.995 559.133 120.093 555.73 120.08C552.328 120.093 549.903 116.995 549.916 112.082C549.903 107.22 552.328 104.122 555.73 104.109ZM552.227 112.082C552.214 115.7 553.661 117.922 555.73 117.922C557.838 117.922 559.26 115.7 559.26 112.082C559.26 108.515 557.838 106.28 555.73 106.268C553.661 106.28 552.214 108.515 552.227 112.082ZM564.947 125.158V102.408H567.359V111.32H571.016V113.352H567.359V125.158H564.947ZM592.928 120.309V122.314H572.107V120.309H577.084V114.367C575.218 113.339 574.075 111.714 574.088 109.67C574.075 106.09 577.592 103.741 582.467 103.729C587.354 103.741 590.871 106.09 590.871 109.67C590.871 111.676 589.779 113.288 587.951 114.316V120.309H592.928ZM576.424 109.67C576.424 112.107 578.899 113.694 582.467 113.707C586.009 113.694 588.522 112.107 588.535 109.67C588.522 107.22 586.009 105.658 582.467 105.658C578.899 105.658 576.424 107.22 576.424 109.67ZM579.471 120.309H585.514V115.256C584.587 115.472 583.559 115.586 582.467 115.586C581.4 115.586 580.385 115.472 579.471 115.256V120.309ZM597.168 123.178C596.178 123.165 595.353 122.365 595.365 121.375C595.353 120.385 596.178 119.572 597.168 119.572C598.146 119.572 598.958 120.385 598.971 121.375C598.958 122.365 598.146 123.165 597.168 123.178Z" fill="#2C2C2C"/>
<path d="M185.045 155.271C187.418 155.289 189.167 156.739 189.176 158.805C189.167 160.879 187.418 162.32 185.045 162.32C182.646 162.32 180.905 160.879 180.896 158.805C180.905 156.739 182.646 155.289 185.045 155.271ZM182.531 158.805C182.522 160.105 183.595 160.967 185.045 160.967C186.486 160.967 187.559 160.105 187.559 158.805C187.559 157.521 186.486 156.66 185.045 156.678C183.595 156.66 182.522 157.521 182.531 158.805ZM183.287 164.816V163.48H193.641V167.453H184.957V168.965H194.168V170.301H183.34V166.205H191.988V164.816H183.287ZM191.971 162.76V154.744H193.641V162.76H191.971ZM199.67 155.342V157.205H206.965V155.342H208.635V161.705H204.135V163.252H210.498V164.623H196.137V163.252H202.482V161.705H198.018V155.342H199.67ZM197.947 170.16V165.748H199.635V168.807H208.881V170.16H197.947ZM199.67 160.352H206.965V158.506H199.67V160.352ZM215.965 155.922C218.109 155.931 219.665 157.741 219.92 160.65H223.172V154.744H224.824V170.529H223.172V162.004H219.938C219.753 165.08 218.162 166.987 215.965 166.979C213.618 166.987 211.957 164.843 211.975 161.441C211.957 158.075 213.618 155.931 215.965 155.922ZM213.557 161.441C213.565 163.946 214.541 165.484 215.965 165.484C217.389 165.484 218.364 163.946 218.373 161.441C218.364 158.972 217.389 157.425 215.965 157.416C214.541 157.425 213.565 158.972 213.557 161.441ZM237.111 158.752C237.094 161.538 238.72 164.395 241.066 165.537L240.029 166.873C238.315 165.977 236.988 164.219 236.294 162.118C235.591 164.351 234.211 166.24 232.418 167.172L231.381 165.818C233.798 164.658 235.433 161.635 235.441 158.752V156.062H237.111V158.752ZM242.244 170.494V154.744H243.914V161.02H246.445V162.443H243.914V170.494H242.244ZM261.562 162.426V163.779H247.201V162.426H250.646V160.308C249.425 159.815 248.739 159.024 248.748 157.979C248.739 156.106 250.91 155.017 254.373 155.025C257.827 155.017 259.989 156.106 259.998 157.979C259.989 159.024 259.304 159.815 258.082 160.316V162.426H261.562ZM248.906 167.646C248.906 165.845 250.945 164.852 254.373 164.852C257.757 164.852 259.796 165.845 259.805 167.646C259.796 169.466 257.757 170.459 254.373 170.459C250.945 170.459 248.906 169.466 248.906 167.646ZM250.471 157.979C250.462 159.033 251.921 159.622 254.373 159.631C256.808 159.622 258.284 159.033 258.275 157.979C258.284 156.924 256.808 156.317 254.373 156.309C251.921 156.317 250.462 156.924 250.471 157.979ZM250.594 167.646C250.585 168.631 251.965 169.193 254.373 169.176C256.746 169.193 258.135 168.631 258.135 167.646C258.135 166.68 256.746 166.135 254.373 166.135C251.965 166.135 250.585 166.68 250.594 167.646ZM252.334 162.426H256.43V160.747C255.814 160.844 255.12 160.896 254.373 160.896C253.635 160.896 252.949 160.844 252.334 160.756V162.426ZM268.242 159.385C268.233 161.872 269.877 164.649 272.268 165.783L271.318 167.084C269.552 166.24 268.146 164.465 267.434 162.408C266.713 164.649 265.236 166.592 263.443 167.488L262.459 166.17C264.85 165.019 266.581 162.048 266.59 159.385V157.715H263.039V156.326H271.67V157.715H268.242V159.385ZM273.357 170.494V154.744H275.027V160.984H277.559V162.391H275.027V170.494H273.357ZM280.107 169.123C279.422 169.114 278.851 168.561 278.859 167.875C278.851 167.189 279.422 166.627 280.107 166.627C280.784 166.627 281.347 167.189 281.355 167.875C281.347 168.561 280.784 169.114 280.107 169.123ZM287.789 169V167.594L292.201 163.146C293.599 161.696 294.293 160.888 294.293 159.771C294.293 158.515 293.273 157.715 291.938 157.715C290.522 157.715 289.626 158.611 289.617 159.965H287.789C287.771 157.636 289.547 156.098 291.973 156.098C294.425 156.098 296.121 157.653 296.139 159.719C296.121 161.143 295.453 162.276 293.062 164.623L290.479 167.242V167.348H296.35V169H287.789ZM302.924 169.176C299.979 169.176 298.248 166.803 298.248 162.637C298.248 158.497 299.997 156.098 302.924 156.098C305.842 156.098 307.591 158.497 307.6 162.637C307.591 166.803 305.868 169.176 302.924 169.176ZM300.182 162.637C300.173 165.81 301.201 167.506 302.924 167.506C304.638 167.506 305.666 165.81 305.666 162.637C305.666 159.473 304.629 157.741 302.924 157.732C301.21 157.741 300.182 159.473 300.182 162.637ZM313.857 159.051C313.857 161.564 314.912 164.245 317.021 165.537L316.09 166.82C314.613 165.933 313.62 164.359 313.075 162.54C312.504 164.535 311.414 166.24 309.885 167.172L308.848 165.924C311.071 164.588 312.249 161.802 312.24 159.121V156.186H313.857V159.051ZM315.316 161.67V160.281H317.76V155.043H319.342V169.721H317.76V161.67H315.316ZM321.012 170.494V154.744H322.611V170.494H321.012ZM325.564 164.148C325.582 160.835 326.522 158.084 328.166 155.729H329.889C328.676 157.469 327.516 161.011 327.516 164.148C327.516 167.295 328.676 170.837 329.889 172.586H328.166C326.522 170.222 325.582 167.471 325.564 164.148ZM336.023 169.176C333.079 169.176 331.348 166.803 331.348 162.637C331.348 158.497 333.097 156.098 336.023 156.098C338.941 156.098 340.69 158.497 340.699 162.637C340.69 166.803 338.968 169.176 336.023 169.176ZM333.281 162.637C333.272 165.81 334.301 167.506 336.023 167.506C337.737 167.506 338.766 165.81 338.766 162.637C338.766 159.473 337.729 157.741 336.023 157.732C334.31 157.741 333.281 159.473 333.281 162.637ZM342.422 166.521V164.957L348.047 156.273H350.438V164.887H352.178V166.521H350.438V169H348.609V166.521H342.422ZM344.461 164.887H348.609V158.576H348.469L344.461 164.781V164.887ZM366.715 154.762V166.398H365.045V161.037H360.721V159.701H365.045V158.049H360.721V156.713H365.045V154.762H366.715ZM354.516 164.148V155.852H356.168V162.742C358.26 162.733 360.246 162.619 362.496 162.197L362.672 163.568C360.176 164.034 358.04 164.131 355.729 164.148H354.516ZM356.449 170.16V165.379H358.137V168.807H367.119V170.16H356.449ZM373.957 157.768C373.957 159.49 375.056 161.23 377.104 162.004L376.225 163.287C374.757 162.725 373.729 161.652 373.166 160.36C372.586 161.819 371.514 163.085 369.984 163.744L369.07 162.443C371.197 161.521 372.34 159.517 372.34 157.768V155.729H373.957V157.768ZM371.971 167.611C371.953 165.818 374.001 164.755 377.297 164.746C380.584 164.755 382.649 165.818 382.658 167.611C382.649 169.404 380.584 170.468 377.297 170.459C374.001 170.468 371.953 169.404 371.971 167.611ZM373.623 167.611C373.605 168.613 375.003 169.193 377.297 169.176C379.582 169.193 380.979 168.613 380.988 167.611C380.979 166.601 379.582 166.021 377.297 166.029C375.003 166.021 373.605 166.601 373.623 167.611ZM377.596 163.955V155.043H379.143V158.857H380.988V154.762H382.57V164.447H380.988V160.229H379.143V163.955H377.596ZM389.021 164.148C389.004 167.471 388.063 170.222 386.42 172.586H384.697C385.91 170.837 387.07 167.295 387.07 164.148C387.07 161.011 385.91 157.469 384.697 155.729H386.42C388.063 158.084 389.004 160.835 389.021 164.148ZM392.924 169.123C392.238 169.114 391.667 168.561 391.676 167.875C391.667 167.189 392.238 166.627 392.924 166.627C393.601 166.627 394.163 167.189 394.172 167.875C394.163 168.561 393.601 169.114 392.924 169.123ZM412.436 154.762V159.824H414.721V161.213H412.436V166.539H410.766V154.762H412.436ZM400.078 157.943V156.59H403.945V154.744H405.615V156.59H409.465V157.943H400.078ZM400.939 161.67C400.931 159.868 402.486 158.69 404.771 158.699C407.03 158.69 408.586 159.868 408.586 161.67C408.586 163.454 407.03 164.614 404.771 164.623C402.486 164.614 400.931 163.454 400.939 161.67ZM402.451 170.16V165.607H404.121V168.807H413.104V170.16H402.451ZM402.557 161.67C402.539 162.698 403.436 163.331 404.771 163.322C406.107 163.331 407.004 162.698 407.021 161.67C407.004 160.633 406.107 159.991 404.771 159.982C403.436 159.991 402.539 160.633 402.557 161.67ZM428.203 155.482V156.66C428.212 157.82 428.212 159.209 427.843 161.037H430.031V162.391H423.633V165.08H428.273V170.494H426.604V166.416H417.094V165.08H421.963V162.391H415.617V161.037H426.164C426.533 159.271 426.551 157.961 426.551 156.836H417.428V155.482H428.203ZM435.445 155.922C437.59 155.931 439.146 157.741 439.4 160.65H442.652V154.744H444.305V170.529H442.652V162.004H439.418C439.233 165.08 437.643 166.987 435.445 166.979C433.099 166.987 431.438 164.843 431.455 161.441C431.438 158.075 433.099 155.931 435.445 155.922ZM433.037 161.441C433.046 163.946 434.021 165.484 435.445 165.484C436.869 165.484 437.845 163.946 437.854 161.441C437.845 158.972 436.869 157.425 435.445 157.416C434.021 157.425 433.046 158.972 433.037 161.441ZM460.529 156.344V157.68H451.143V156.344H455.01V154.674H456.68V156.344H460.529ZM452.004 161.248C451.995 159.525 453.56 158.4 455.836 158.383C458.104 158.4 459.65 159.525 459.65 161.248C459.65 162.979 458.104 164.113 455.836 164.113C453.56 164.113 451.995 162.979 452.004 161.248ZM453.094 166.75V165.396H463.5V170.494H461.83V166.75H453.094ZM453.621 161.248C453.604 162.224 454.5 162.812 455.836 162.812C457.172 162.812 458.068 162.224 458.086 161.248C458.068 160.281 457.172 159.675 455.836 159.666C454.5 159.675 453.604 160.281 453.621 161.248ZM461.83 164.588V154.744H463.5V159.016H465.785V160.404H463.5V164.588H461.83ZM470.109 164.184V165.854H477.51V164.184H479.18V170.301H468.457V164.184H470.109ZM466.682 163.199V161.811H481.043V163.199H466.682ZM467.455 159.525C470.505 159.13 473.001 157.451 473.01 155.588V154.92H474.715V155.588C474.724 157.398 477.237 159.156 480.252 159.525L479.654 160.844C477.105 160.492 474.882 159.279 473.871 157.601C472.852 159.288 470.619 160.492 468.088 160.844L467.455 159.525ZM470.109 168.965H477.51V167.154H470.109V168.965ZM495.334 154.744V170.494H493.646V154.744H495.334ZM482.396 166.275C486.58 164.28 488.628 161.441 488.953 157.768H483.152V156.432H490.641C490.641 161.046 488.681 165.036 483.275 167.629L482.396 166.275ZM510.17 154.744V159.402H512.455V160.791H510.17V166.188H508.482V154.744H510.17ZM497.777 163.129C501.469 162.021 503.754 159.921 504.079 157.328H498.445V155.939H505.898C505.898 160.07 503.086 163.067 498.48 164.465L497.777 163.129ZM500.168 170.16V165.01H501.855V168.807H510.82V170.16H500.168ZM522.738 169.176C519.97 169.176 518.045 167.682 518.062 165.607C518.045 163.973 519.214 162.637 520.717 162.408V162.338C519.407 162.039 518.537 160.879 518.537 159.49C518.537 157.53 520.304 156.098 522.738 156.098C525.138 156.098 526.913 157.53 526.922 159.49C526.913 160.879 526.025 162.039 524.742 162.338V162.408C526.228 162.637 527.405 163.973 527.414 165.607C527.405 167.682 525.463 169.176 522.738 169.176ZM520.031 165.467C520.005 166.715 521.06 167.576 522.738 167.576C524.391 167.576 525.445 166.715 525.445 165.467C525.445 164.157 524.303 163.199 522.738 163.199C521.156 163.199 520.005 164.157 520.031 165.467ZM520.418 159.666C520.427 160.853 521.376 161.679 522.738 161.67C524.065 161.679 525.032 160.861 525.023 159.666C525.032 158.479 524.101 157.671 522.738 157.68C521.341 157.671 520.427 158.479 520.418 159.666ZM542.004 154.762V166.398H540.334V161.037H536.01V159.701H540.334V158.049H536.01V156.713H540.334V154.762H542.004ZM529.805 164.148V155.852H531.457V162.742C533.549 162.733 535.535 162.619 537.785 162.197L537.961 163.568C535.465 164.034 533.329 164.131 531.018 164.148H529.805ZM531.738 170.16V165.379H533.426V168.807H542.408V170.16H531.738Z" fill="#9F9F9F"/>
<defs>
<linearGradient id="paint0_linear_815_5889" x1="0" y1="116.5" x2="920" y2="116.5" gradientUnits="userSpaceOnUse">
<stop stop-color="#FF577C"/>
<stop offset="1" stop-color="#66B8FB"/>
</linearGradient>
</defs>
</svg>
