<svg width="146" height="16" viewBox="0 0 146 16" fill="none" xmlns="http://www.w3.org/2000/svg">
<path d="M130 8C130 12.4183 133.582 16 138 16C142.418 16 146 12.4183 146 8C146 3.58172 142.418 0 138 0C133.582 0 130 3.58172 130 8ZM0 9.5H4.92857V6.5H0V9.5ZM14.7857 9.5H24.6429V6.5H14.7857V9.5ZM34.5 9.5H44.3571V6.5H34.5V9.5ZM54.2143 9.5H64.0714V6.5H54.2143V9.5ZM73.9286 9.5H83.7857V6.5H73.9286V9.5ZM93.6429 9.5H103.5V6.5H93.6429V9.5ZM113.357 9.5H123.214V6.5H113.357V9.5ZM133.071 9.5H138V6.5H133.071V9.5Z" fill="#FF577C"/>
</svg>
